<svg width="788" height="788" viewBox="0 0 788 788" fill="none" xmlns="http://www.w3.org/2000/svg">
<path d="M486.8 251.2H262.8V413.6C262.8 434.5 279.7 451.4 300.6 451.4H524.5V289.1C524.6 268.2 507.7 251.2 486.8 251.2Z" fill="#00832D"/>
<path d="M262.8 413.7V251.2H191.8C170.9 251.2 154 268.2 154 289.1V625C154 641.9 174.4 650.3 186.3 638.4L264.4 560.3H486.8C507.7 560.3 524.6 543.4 524.6 522.5V451.5H300.7C279.8 451.5 262.8 434.6 262.8 413.7Z" fill="#00AC47"/>
<path d="M595.6 144H300.7C279.8 144 262.9 160.9 262.9 181.8V251.2H486.8C507.7 251.2 524.6 268.1 524.6 289V451.4H595.6C616.5 451.4 633.4 434.5 633.4 413.6V181.8C633.4 160.9 616.5 144 595.6 144Z" fill="#5BB974"/>
</svg>
