<svg width="472" height="280" viewBox="0 0 472 280" fill="none" xmlns="http://www.w3.org/2000/svg">
<path d="M117 141L21 141" stroke="black" stroke-width="2" stroke-miterlimit="4.13936" stroke-linecap="round" stroke-dasharray="1 5"/>
<path d="M288 226H437" stroke="black" stroke-width="2" stroke-miterlimit="4.13936" stroke-linecap="round" stroke-dasharray="1 5"/>
<path d="M288 54L137 141" stroke="black" stroke-width="2" stroke-miterlimit="4.13936" stroke-linecap="round" stroke-dasharray="1 5"/>
<path d="M439 141L288 228" stroke="black" stroke-width="2" stroke-miterlimit="4.13936" stroke-linecap="round" stroke-dasharray="1 5"/>
<path d="M288 226L137 141" stroke="black" stroke-width="2" stroke-miterlimit="4.13936" stroke-linecap="round" stroke-dasharray="1 5"/>
<path d="M288 226V54" stroke="black" stroke-width="2" stroke-miterlimit="4.13936" stroke-linecap="round" stroke-dasharray="1 5"/>
<path d="M418 54L288 54" stroke="black" stroke-width="2" stroke-miterlimit="4.13936" stroke-linecap="round" stroke-dasharray="1 5"/>
<rect x="268" y="202" width="40" height="48" rx="4" fill="#131212"/>
<path d="M276 215H300" stroke="white" stroke-width="4" stroke-linecap="round"/>
<path d="M276 227H288" stroke="white" stroke-width="4" stroke-linecap="round"/>
<path d="M299 227H300" stroke="white" stroke-width="4" stroke-linecap="round"/>
<path d="M243.565 270.348H239.407C239.419 270.168 239.455 269.964 239.515 269.736C239.587 269.508 239.701 269.292 239.857 269.088C240.025 268.884 240.241 268.716 240.505 268.584C240.781 268.44 241.123 268.368 241.531 268.368C242.155 268.368 242.617 268.536 242.917 268.872C243.229 269.208 243.445 269.7 243.565 270.348ZM239.407 271.968H246.121C246.169 271.248 246.109 270.558 245.941 269.898C245.773 269.238 245.497 268.65 245.113 268.134C244.741 267.618 244.261 267.21 243.673 266.91C243.085 266.598 242.395 266.442 241.603 266.442C240.895 266.442 240.247 266.568 239.659 266.82C239.083 267.072 238.585 267.42 238.165 267.864C237.745 268.296 237.421 268.812 237.193 269.412C236.965 270.012 236.851 270.66 236.851 271.356C236.851 272.076 236.959 272.736 237.175 273.336C237.403 273.936 237.721 274.452 238.129 274.884C238.537 275.316 239.035 275.652 239.623 275.892C240.211 276.12 240.871 276.234 241.603 276.234C242.659 276.234 243.559 275.994 244.303 275.514C245.047 275.034 245.599 274.236 245.959 273.12H243.709C243.625 273.408 243.397 273.684 243.025 273.948C242.653 274.2 242.209 274.326 241.693 274.326C240.973 274.326 240.421 274.14 240.037 273.768C239.653 273.396 239.443 272.796 239.407 271.968ZM247.637 266.694V276H250.193V271.806C250.193 271.386 250.235 270.996 250.319 270.636C250.403 270.276 250.541 269.964 250.733 269.7C250.937 269.424 251.201 269.208 251.525 269.052C251.849 268.896 252.245 268.818 252.713 268.818C252.869 268.818 253.031 268.83 253.199 268.854C253.367 268.866 253.511 268.884 253.631 268.908V266.532C253.427 266.472 253.241 266.442 253.073 266.442C252.749 266.442 252.437 266.49 252.137 266.586C251.837 266.682 251.555 266.82 251.291 267C251.027 267.168 250.793 267.378 250.589 267.63C250.385 267.87 250.223 268.134 250.103 268.422H250.067V266.694H247.637ZM258.461 273.804C258.065 273.804 257.735 273.72 257.471 273.552C257.207 273.384 256.991 273.168 256.823 272.904C256.667 272.64 256.553 272.346 256.481 272.022C256.421 271.686 256.391 271.35 256.391 271.014C256.391 270.666 256.427 270.336 256.499 270.024C256.583 269.7 256.709 269.418 256.877 269.178C257.057 268.926 257.273 268.728 257.525 268.584C257.789 268.44 258.101 268.368 258.461 268.368C258.881 268.368 259.229 268.446 259.505 268.602C259.781 268.758 260.003 268.968 260.171 269.232C260.339 269.496 260.459 269.802 260.531 270.15C260.603 270.486 260.639 270.846 260.639 271.23C260.639 271.566 260.591 271.89 260.495 272.202C260.411 272.502 260.279 272.772 260.099 273.012C259.919 273.252 259.691 273.444 259.415 273.588C259.139 273.732 258.821 273.804 258.461 273.804ZM263.069 275.406V266.694H260.639V267.936H260.603C260.291 267.396 259.901 267.012 259.433 266.784C258.977 266.556 258.443 266.442 257.831 266.442C257.183 266.442 256.607 266.568 256.103 266.82C255.611 267.072 255.197 267.414 254.861 267.846C254.525 268.266 254.267 268.758 254.087 269.322C253.919 269.874 253.835 270.45 253.835 271.05C253.835 271.686 253.907 272.292 254.051 272.868C254.207 273.432 254.447 273.93 254.771 274.362C255.095 274.782 255.509 275.118 256.013 275.37C256.517 275.61 257.117 275.73 257.813 275.73C258.377 275.73 258.911 275.616 259.415 275.388C259.931 275.148 260.327 274.782 260.603 274.29H260.639V275.514C260.651 276.174 260.489 276.72 260.153 277.152C259.829 277.584 259.307 277.8 258.587 277.8C258.131 277.8 257.729 277.704 257.381 277.512C257.033 277.332 256.799 277.002 256.679 276.522H254.141C254.177 277.05 254.321 277.5 254.573 277.872C254.837 278.256 255.161 278.568 255.545 278.808C255.941 279.048 256.373 279.222 256.841 279.33C257.321 279.45 257.789 279.51 258.245 279.51C259.313 279.51 260.165 279.366 260.801 279.078C261.437 278.79 261.923 278.436 262.259 278.016C262.595 277.608 262.811 277.164 262.907 276.684C263.015 276.204 263.069 275.778 263.069 275.406ZM265.019 269.556C265.055 268.956 265.205 268.458 265.469 268.062C265.733 267.666 266.069 267.348 266.477 267.108C266.885 266.868 267.341 266.7 267.845 266.604C268.361 266.496 268.877 266.442 269.393 266.442C269.861 266.442 270.335 266.478 270.815 266.55C271.295 266.61 271.733 266.736 272.129 266.928C272.525 267.12 272.849 267.39 273.101 267.738C273.353 268.074 273.479 268.524 273.479 269.088V273.93C273.479 274.35 273.503 274.752 273.551 275.136C273.599 275.52 273.683 275.808 273.803 276H271.211C271.163 275.856 271.121 275.712 271.085 275.568C271.061 275.412 271.043 275.256 271.031 275.1C270.623 275.52 270.143 275.814 269.591 275.982C269.039 276.15 268.475 276.234 267.899 276.234C267.455 276.234 267.041 276.18 266.657 276.072C266.273 275.964 265.937 275.796 265.649 275.568C265.361 275.34 265.133 275.052 264.965 274.704C264.809 274.356 264.731 273.942 264.731 273.462C264.731 272.934 264.821 272.502 265.001 272.166C265.193 271.818 265.433 271.542 265.721 271.338C266.021 271.134 266.357 270.984 266.729 270.888C267.113 270.78 267.497 270.696 267.881 270.636C268.265 270.576 268.643 270.528 269.015 270.492C269.387 270.456 269.717 270.402 270.005 270.33C270.293 270.258 270.521 270.156 270.689 270.024C270.857 269.88 270.935 269.676 270.923 269.412C270.923 269.136 270.875 268.92 270.779 268.764C270.695 268.596 270.575 268.47 270.419 268.386C270.275 268.29 270.101 268.23 269.897 268.206C269.705 268.17 269.495 268.152 269.267 268.152C268.763 268.152 268.367 268.26 268.079 268.476C267.791 268.692 267.623 269.052 267.575 269.556H265.019ZM270.923 271.446C270.815 271.542 270.677 271.62 270.509 271.68C270.353 271.728 270.179 271.77 269.987 271.806C269.807 271.842 269.615 271.872 269.411 271.896C269.207 271.92 269.003 271.95 268.799 271.986C268.607 272.022 268.415 272.07 268.223 272.13C268.043 272.19 267.881 272.274 267.737 272.382C267.605 272.478 267.497 272.604 267.413 272.76C267.329 272.916 267.287 273.114 267.287 273.354C267.287 273.582 267.329 273.774 267.413 273.93C267.497 274.086 267.611 274.212 267.755 274.308C267.899 274.392 268.067 274.452 268.259 274.488C268.451 274.524 268.649 274.542 268.853 274.542C269.357 274.542 269.747 274.458 270.023 274.29C270.299 274.122 270.503 273.924 270.635 273.696C270.767 273.456 270.845 273.216 270.869 272.976C270.905 272.736 270.923 272.544 270.923 272.4V271.446ZM277.443 272.976H275.013C275.037 273.6 275.175 274.122 275.427 274.542C275.691 274.95 276.021 275.28 276.417 275.532C276.825 275.784 277.287 275.964 277.803 276.072C278.319 276.18 278.847 276.234 279.387 276.234C279.915 276.234 280.431 276.18 280.935 276.072C281.451 275.976 281.907 275.802 282.303 275.55C282.699 275.298 283.017 274.968 283.257 274.56C283.509 274.14 283.635 273.624 283.635 273.012C283.635 272.58 283.551 272.22 283.383 271.932C283.215 271.632 282.993 271.386 282.717 271.194C282.441 270.99 282.123 270.828 281.763 270.708C281.415 270.588 281.055 270.486 280.683 270.402C280.323 270.318 279.969 270.24 279.621 270.168C279.273 270.096 278.961 270.018 278.685 269.934C278.421 269.838 278.205 269.718 278.037 269.574C277.869 269.43 277.785 269.244 277.785 269.016C277.785 268.824 277.833 268.674 277.929 268.566C278.025 268.446 278.139 268.356 278.271 268.296C278.415 268.236 278.571 268.2 278.739 268.188C278.907 268.164 279.063 268.152 279.207 268.152C279.663 268.152 280.059 268.242 280.395 268.422C280.731 268.59 280.917 268.92 280.953 269.412H283.383C283.335 268.836 283.185 268.362 282.933 267.99C282.693 267.606 282.387 267.3 282.015 267.072C281.643 266.844 281.217 266.682 280.737 266.586C280.269 266.49 279.783 266.442 279.279 266.442C278.775 266.442 278.283 266.49 277.803 266.586C277.323 266.67 276.891 266.826 276.507 267.054C276.123 267.27 275.811 267.57 275.571 267.954C275.343 268.338 275.229 268.83 275.229 269.43C275.229 269.838 275.313 270.186 275.481 270.474C275.649 270.75 275.871 270.984 276.147 271.176C276.423 271.356 276.735 271.506 277.083 271.626C277.443 271.734 277.809 271.83 278.181 271.914C279.093 272.106 279.801 272.298 280.305 272.49C280.821 272.682 281.079 272.97 281.079 273.354C281.079 273.582 281.025 273.774 280.917 273.93C280.809 274.074 280.671 274.194 280.503 274.29C280.347 274.374 280.167 274.44 279.963 274.488C279.771 274.524 279.585 274.542 279.405 274.542C279.153 274.542 278.907 274.512 278.667 274.452C278.439 274.392 278.235 274.302 278.055 274.182C277.875 274.05 277.725 273.888 277.605 273.696C277.497 273.492 277.443 273.252 277.443 272.976ZM288.371 266.694V263.904H285.815V266.694H284.267V268.404H285.815V273.894C285.815 274.362 285.893 274.74 286.049 275.028C286.205 275.316 286.415 275.538 286.679 275.694C286.955 275.85 287.267 275.952 287.615 276C287.975 276.06 288.353 276.09 288.749 276.09C289.001 276.09 289.259 276.084 289.523 276.072C289.787 276.06 290.027 276.036 290.243 276V274.02C290.123 274.044 289.997 274.062 289.865 274.074C289.733 274.086 289.595 274.092 289.451 274.092C289.019 274.092 288.731 274.02 288.587 273.876C288.443 273.732 288.371 273.444 288.371 273.012V268.404H290.243V266.694H288.371ZM297.723 270.348H293.565C293.577 270.168 293.613 269.964 293.673 269.736C293.745 269.508 293.859 269.292 294.015 269.088C294.183 268.884 294.399 268.716 294.663 268.584C294.939 268.44 295.281 268.368 295.689 268.368C296.313 268.368 296.775 268.536 297.075 268.872C297.387 269.208 297.603 269.7 297.723 270.348ZM293.565 271.968H300.279C300.327 271.248 300.267 270.558 300.099 269.898C299.931 269.238 299.655 268.65 299.271 268.134C298.899 267.618 298.419 267.21 297.831 266.91C297.243 266.598 296.553 266.442 295.761 266.442C295.053 266.442 294.405 266.568 293.817 266.82C293.241 267.072 292.743 267.42 292.323 267.864C291.903 268.296 291.579 268.812 291.351 269.412C291.123 270.012 291.009 270.66 291.009 271.356C291.009 272.076 291.117 272.736 291.333 273.336C291.561 273.936 291.879 274.452 292.287 274.884C292.695 275.316 293.193 275.652 293.781 275.892C294.369 276.12 295.029 276.234 295.761 276.234C296.817 276.234 297.717 275.994 298.461 275.514C299.205 275.034 299.757 274.236 300.117 273.12H297.867C297.783 273.408 297.555 273.684 297.183 273.948C296.811 274.2 296.367 274.326 295.851 274.326C295.131 274.326 294.579 274.14 294.195 273.768C293.811 273.396 293.601 272.796 293.565 271.968ZM301.795 266.694V276H304.351V271.806C304.351 271.386 304.393 270.996 304.477 270.636C304.561 270.276 304.699 269.964 304.891 269.7C305.095 269.424 305.359 269.208 305.683 269.052C306.007 268.896 306.403 268.818 306.871 268.818C307.027 268.818 307.189 268.83 307.357 268.854C307.525 268.866 307.669 268.884 307.789 268.908V266.532C307.585 266.472 307.399 266.442 307.231 266.442C306.907 266.442 306.595 266.49 306.295 266.586C305.995 266.682 305.713 266.82 305.449 267C305.185 267.168 304.951 267.378 304.747 267.63C304.543 267.87 304.381 268.134 304.261 268.422H304.225V266.694H301.795ZM307.247 273.228V276H310.073V273.228H307.247ZM314.417 271.356C314.417 270.984 314.453 270.618 314.525 270.258C314.597 269.898 314.717 269.58 314.885 269.304C315.065 269.028 315.299 268.806 315.587 268.638C315.875 268.458 316.235 268.368 316.667 268.368C317.099 268.368 317.459 268.458 317.747 268.638C318.047 268.806 318.281 269.028 318.449 269.304C318.629 269.58 318.755 269.898 318.827 270.258C318.899 270.618 318.935 270.984 318.935 271.356C318.935 271.728 318.899 272.094 318.827 272.454C318.755 272.802 318.629 273.12 318.449 273.408C318.281 273.684 318.047 273.906 317.747 274.074C317.459 274.242 317.099 274.326 316.667 274.326C316.235 274.326 315.875 274.242 315.587 274.074C315.299 273.906 315.065 273.684 314.885 273.408C314.717 273.12 314.597 272.802 314.525 272.454C314.453 272.094 314.417 271.728 314.417 271.356ZM311.861 271.356C311.861 272.1 311.975 272.772 312.203 273.372C312.431 273.972 312.755 274.488 313.175 274.92C313.595 275.34 314.099 275.664 314.687 275.892C315.275 276.12 315.935 276.234 316.667 276.234C317.399 276.234 318.059 276.12 318.647 275.892C319.247 275.664 319.757 275.34 320.177 274.92C320.597 274.488 320.921 273.972 321.149 273.372C321.377 272.772 321.491 272.1 321.491 271.356C321.491 270.612 321.377 269.94 321.149 269.34C320.921 268.728 320.597 268.212 320.177 267.792C319.757 267.36 319.247 267.03 318.647 266.802C318.059 266.562 317.399 266.442 316.667 266.442C315.935 266.442 315.275 266.562 314.687 266.802C314.099 267.03 313.595 267.36 313.175 267.792C312.755 268.212 312.431 268.728 312.203 269.34C311.975 269.94 311.861 270.612 311.861 271.356ZM323.153 266.694V276H325.709V271.806C325.709 271.386 325.751 270.996 325.835 270.636C325.919 270.276 326.057 269.964 326.249 269.7C326.453 269.424 326.717 269.208 327.041 269.052C327.365 268.896 327.761 268.818 328.229 268.818C328.385 268.818 328.547 268.83 328.715 268.854C328.883 268.866 329.027 268.884 329.147 268.908V266.532C328.943 266.472 328.757 266.442 328.589 266.442C328.265 266.442 327.953 266.49 327.653 266.586C327.353 266.682 327.071 266.82 326.807 267C326.543 267.168 326.309 267.378 326.105 267.63C325.901 267.87 325.739 268.134 325.619 268.422H325.583V266.694H323.153ZM333.977 273.804C333.581 273.804 333.251 273.72 332.987 273.552C332.723 273.384 332.507 273.168 332.339 272.904C332.183 272.64 332.069 272.346 331.997 272.022C331.937 271.686 331.907 271.35 331.907 271.014C331.907 270.666 331.943 270.336 332.015 270.024C332.099 269.7 332.225 269.418 332.393 269.178C332.573 268.926 332.789 268.728 333.041 268.584C333.305 268.44 333.617 268.368 333.977 268.368C334.397 268.368 334.745 268.446 335.021 268.602C335.297 268.758 335.519 268.968 335.687 269.232C335.855 269.496 335.975 269.802 336.047 270.15C336.119 270.486 336.155 270.846 336.155 271.23C336.155 271.566 336.107 271.89 336.011 272.202C335.927 272.502 335.795 272.772 335.615 273.012C335.435 273.252 335.207 273.444 334.931 273.588C334.655 273.732 334.337 273.804 333.977 273.804ZM338.585 275.406V266.694H336.155V267.936H336.119C335.807 267.396 335.417 267.012 334.949 266.784C334.493 266.556 333.959 266.442 333.347 266.442C332.699 266.442 332.123 266.568 331.619 266.82C331.127 267.072 330.713 267.414 330.377 267.846C330.041 268.266 329.783 268.758 329.603 269.322C329.435 269.874 329.351 270.45 329.351 271.05C329.351 271.686 329.423 272.292 329.567 272.868C329.723 273.432 329.963 273.93 330.287 274.362C330.611 274.782 331.025 275.118 331.529 275.37C332.033 275.61 332.633 275.73 333.329 275.73C333.893 275.73 334.427 275.616 334.931 275.388C335.447 275.148 335.843 274.782 336.119 274.29H336.155V275.514C336.167 276.174 336.005 276.72 335.669 277.152C335.345 277.584 334.823 277.8 334.103 277.8C333.647 277.8 333.245 277.704 332.897 277.512C332.549 277.332 332.315 277.002 332.195 276.522H329.657C329.693 277.05 329.837 277.5 330.089 277.872C330.353 278.256 330.677 278.568 331.061 278.808C331.457 279.048 331.889 279.222 332.357 279.33C332.837 279.45 333.305 279.51 333.761 279.51C334.829 279.51 335.681 279.366 336.317 279.078C336.953 278.79 337.439 278.436 337.775 278.016C338.111 277.608 338.327 277.164 338.423 276.684C338.531 276.204 338.585 275.778 338.585 275.406Z" fill="black"/>
<rect x="117" y="117" width="40" height="48" rx="4" fill="#131212"/>
<path d="M125 130H149" stroke="white" stroke-width="4" stroke-linecap="round"/>
<path d="M125 142H137" stroke="white" stroke-width="4" stroke-linecap="round"/>
<path d="M148 142H149" stroke="white" stroke-width="4" stroke-linecap="round"/>
<path d="M86.5885 185.348H82.4305C82.4425 185.168 82.4785 184.964 82.5385 184.736C82.6105 184.508 82.7245 184.292 82.8805 184.088C83.0485 183.884 83.2645 183.716 83.5285 183.584C83.8045 183.44 84.1465 183.368 84.5545 183.368C85.1785 183.368 85.6405 183.536 85.9405 183.872C86.2525 184.208 86.4685 184.7 86.5885 185.348ZM82.4305 186.968H89.1445C89.1925 186.248 89.1325 185.558 88.9645 184.898C88.7965 184.238 88.5205 183.65 88.1365 183.134C87.7645 182.618 87.2845 182.21 86.6965 181.91C86.1085 181.598 85.4185 181.442 84.6265 181.442C83.9185 181.442 83.2705 181.568 82.6825 181.82C82.1065 182.072 81.6085 182.42 81.1885 182.864C80.7685 183.296 80.4445 183.812 80.2165 184.412C79.9885 185.012 79.8745 185.66 79.8745 186.356C79.8745 187.076 79.9825 187.736 80.1985 188.336C80.4265 188.936 80.7445 189.452 81.1525 189.884C81.5605 190.316 82.0585 190.652 82.6465 190.892C83.2345 191.12 83.8945 191.234 84.6265 191.234C85.6825 191.234 86.5825 190.994 87.3265 190.514C88.0705 190.034 88.6225 189.236 88.9825 188.12H86.7325C86.6485 188.408 86.4205 188.684 86.0485 188.948C85.6765 189.2 85.2325 189.326 84.7165 189.326C83.9965 189.326 83.4445 189.14 83.0605 188.768C82.6765 188.396 82.4665 187.796 82.4305 186.968ZM93.0365 186.104L89.6885 191H92.5505L94.4945 188.066L96.4385 191H99.3545L95.9165 186.05L98.9765 181.694H96.1505L94.5305 184.124L92.8925 181.694H89.9765L93.0365 186.104ZM100.22 184.556C100.256 183.956 100.406 183.458 100.67 183.062C100.934 182.666 101.27 182.348 101.678 182.108C102.086 181.868 102.542 181.7 103.046 181.604C103.562 181.496 104.078 181.442 104.594 181.442C105.062 181.442 105.536 181.478 106.016 181.55C106.496 181.61 106.934 181.736 107.33 181.928C107.726 182.12 108.05 182.39 108.302 182.738C108.554 183.074 108.68 183.524 108.68 184.088V188.93C108.68 189.35 108.704 189.752 108.752 190.136C108.8 190.52 108.884 190.808 109.004 191H106.412C106.364 190.856 106.322 190.712 106.286 190.568C106.262 190.412 106.244 190.256 106.232 190.1C105.824 190.52 105.344 190.814 104.792 190.982C104.24 191.15 103.676 191.234 103.1 191.234C102.656 191.234 102.242 191.18 101.858 191.072C101.474 190.964 101.138 190.796 100.85 190.568C100.562 190.34 100.334 190.052 100.166 189.704C100.01 189.356 99.9324 188.942 99.9324 188.462C99.9324 187.934 100.022 187.502 100.202 187.166C100.394 186.818 100.634 186.542 100.922 186.338C101.222 186.134 101.558 185.984 101.93 185.888C102.314 185.78 102.698 185.696 103.082 185.636C103.466 185.576 103.844 185.528 104.216 185.492C104.588 185.456 104.918 185.402 105.206 185.33C105.494 185.258 105.722 185.156 105.89 185.024C106.058 184.88 106.136 184.676 106.124 184.412C106.124 184.136 106.076 183.92 105.98 183.764C105.896 183.596 105.776 183.47 105.62 183.386C105.476 183.29 105.302 183.23 105.098 183.206C104.906 183.17 104.696 183.152 104.468 183.152C103.964 183.152 103.568 183.26 103.28 183.476C102.992 183.692 102.824 184.052 102.776 184.556H100.22ZM106.124 186.446C106.016 186.542 105.878 186.62 105.71 186.68C105.554 186.728 105.38 186.77 105.188 186.806C105.008 186.842 104.816 186.872 104.612 186.896C104.408 186.92 104.204 186.95 104 186.986C103.808 187.022 103.616 187.07 103.424 187.13C103.244 187.19 103.082 187.274 102.938 187.382C102.806 187.478 102.698 187.604 102.614 187.76C102.53 187.916 102.488 188.114 102.488 188.354C102.488 188.582 102.53 188.774 102.614 188.93C102.698 189.086 102.812 189.212 102.956 189.308C103.1 189.392 103.268 189.452 103.46 189.488C103.652 189.524 103.85 189.542 104.054 189.542C104.558 189.542 104.948 189.458 105.224 189.29C105.5 189.122 105.704 188.924 105.836 188.696C105.968 188.456 106.046 188.216 106.07 187.976C106.106 187.736 106.124 187.544 106.124 187.4V186.446ZM110.736 181.694V191H113.292V185.6C113.292 185.144 113.358 184.778 113.49 184.502C113.622 184.214 113.778 183.998 113.958 183.854C114.15 183.698 114.342 183.596 114.534 183.548C114.738 183.488 114.9 183.458 115.02 183.458C115.428 183.458 115.734 183.53 115.938 183.674C116.154 183.806 116.304 183.986 116.388 184.214C116.484 184.442 116.538 184.694 116.55 184.97C116.562 185.234 116.568 185.504 116.568 185.78V191H119.124V185.816C119.124 185.528 119.142 185.246 119.178 184.97C119.226 184.682 119.31 184.43 119.43 184.214C119.562 183.986 119.736 183.806 119.952 183.674C120.18 183.53 120.474 183.458 120.834 183.458C121.194 183.458 121.476 183.518 121.68 183.638C121.896 183.758 122.058 183.92 122.166 184.124C122.274 184.328 122.34 184.568 122.364 184.844C122.388 185.12 122.4 185.414 122.4 185.726V191H124.956V184.772C124.956 184.172 124.872 183.662 124.704 183.242C124.536 182.81 124.302 182.462 124.002 182.198C123.702 181.934 123.342 181.742 122.922 181.622C122.502 181.502 122.046 181.442 121.554 181.442C120.906 181.442 120.342 181.598 119.862 181.91C119.394 182.222 119.022 182.582 118.746 182.99C118.494 182.414 118.122 182.012 117.63 181.784C117.15 181.556 116.616 181.442 116.028 181.442C115.416 181.442 114.87 181.574 114.39 181.838C113.922 182.102 113.52 182.474 113.184 182.954H113.148V181.694H110.736ZM131.675 189.326C131.267 189.326 130.919 189.242 130.631 189.074C130.343 188.906 130.109 188.69 129.929 188.426C129.761 188.15 129.635 187.832 129.551 187.472C129.479 187.112 129.443 186.746 129.443 186.374C129.443 185.99 129.479 185.618 129.551 185.258C129.623 184.898 129.743 184.58 129.911 184.304C130.091 184.028 130.319 183.806 130.595 183.638C130.883 183.458 131.237 183.368 131.657 183.368C132.065 183.368 132.407 183.458 132.683 183.638C132.971 183.806 133.205 184.034 133.385 184.322C133.565 184.598 133.691 184.916 133.763 185.276C133.847 185.636 133.889 186.002 133.889 186.374C133.889 186.746 133.853 187.112 133.781 187.472C133.709 187.832 133.583 188.15 133.403 188.426C133.235 188.69 133.007 188.906 132.719 189.074C132.443 189.242 132.095 189.326 131.675 189.326ZM126.977 181.694V194.258H129.533V189.848H129.569C129.881 190.304 130.277 190.652 130.757 190.892C131.249 191.12 131.783 191.234 132.359 191.234C133.043 191.234 133.637 191.102 134.141 190.838C134.657 190.574 135.083 190.22 135.419 189.776C135.767 189.332 136.025 188.822 136.193 188.246C136.361 187.67 136.445 187.07 136.445 186.446C136.445 185.786 136.361 185.156 136.193 184.556C136.025 183.944 135.767 183.41 135.419 182.954C135.071 182.498 134.633 182.132 134.105 181.856C133.577 181.58 132.947 181.442 132.215 181.442C131.639 181.442 131.111 181.556 130.631 181.784C130.151 182.012 129.755 182.378 129.443 182.882H129.407V181.694H126.977ZM138.053 178.148V191H140.609V178.148H138.053ZM148.885 185.348H144.727C144.739 185.168 144.775 184.964 144.835 184.736C144.907 184.508 145.021 184.292 145.177 184.088C145.345 183.884 145.561 183.716 145.825 183.584C146.101 183.44 146.443 183.368 146.851 183.368C147.475 183.368 147.937 183.536 148.237 183.872C148.549 184.208 148.765 184.7 148.885 185.348ZM144.727 186.968H151.441C151.489 186.248 151.429 185.558 151.261 184.898C151.093 184.238 150.817 183.65 150.433 183.134C150.061 182.618 149.581 182.21 148.993 181.91C148.405 181.598 147.715 181.442 146.923 181.442C146.215 181.442 145.567 181.568 144.979 181.82C144.403 182.072 143.905 182.42 143.485 182.864C143.065 183.296 142.741 183.812 142.513 184.412C142.285 185.012 142.171 185.66 142.171 186.356C142.171 187.076 142.279 187.736 142.495 188.336C142.723 188.936 143.041 189.452 143.449 189.884C143.857 190.316 144.355 190.652 144.943 190.892C145.531 191.12 146.191 191.234 146.923 191.234C147.979 191.234 148.879 190.994 149.623 190.514C150.367 190.034 150.919 189.236 151.279 188.12H149.029C148.945 188.408 148.717 188.684 148.345 188.948C147.973 189.2 147.529 189.326 147.013 189.326C146.293 189.326 145.741 189.14 145.357 188.768C144.973 188.396 144.763 187.796 144.727 186.968ZM153.065 188.228V191H155.891V188.228H153.065ZM164.303 184.97H166.805C166.769 184.37 166.625 183.854 166.373 183.422C166.121 182.978 165.791 182.612 165.383 182.324C164.987 182.024 164.531 181.802 164.015 181.658C163.511 181.514 162.983 181.442 162.431 181.442C161.675 181.442 161.003 181.568 160.415 181.82C159.827 182.072 159.329 182.426 158.921 182.882C158.513 183.326 158.201 183.86 157.985 184.484C157.781 185.096 157.679 185.762 157.679 186.482C157.679 187.178 157.793 187.82 158.021 188.408C158.249 188.984 158.567 189.482 158.975 189.902C159.383 190.322 159.875 190.652 160.451 190.892C161.039 191.12 161.681 191.234 162.377 191.234C163.613 191.234 164.627 190.91 165.419 190.262C166.211 189.614 166.691 188.672 166.859 187.436H164.393C164.309 188.012 164.099 188.474 163.763 188.822C163.439 189.158 162.971 189.326 162.359 189.326C161.963 189.326 161.627 189.236 161.351 189.056C161.075 188.876 160.853 188.648 160.685 188.372C160.529 188.084 160.415 187.766 160.343 187.418C160.271 187.07 160.235 186.728 160.235 186.392C160.235 186.044 160.271 185.696 160.343 185.348C160.415 184.988 160.535 184.664 160.703 184.376C160.883 184.076 161.111 183.836 161.387 183.656C161.663 183.464 162.005 183.368 162.413 183.368C163.505 183.368 164.135 183.902 164.303 184.97ZM170.571 186.356C170.571 185.984 170.607 185.618 170.679 185.258C170.751 184.898 170.871 184.58 171.039 184.304C171.219 184.028 171.453 183.806 171.741 183.638C172.029 183.458 172.389 183.368 172.821 183.368C173.253 183.368 173.613 183.458 173.901 183.638C174.201 183.806 174.435 184.028 174.603 184.304C174.783 184.58 174.909 184.898 174.981 185.258C175.053 185.618 175.089 185.984 175.089 186.356C175.089 186.728 175.053 187.094 174.981 187.454C174.909 187.802 174.783 188.12 174.603 188.408C174.435 188.684 174.201 188.906 173.901 189.074C173.613 189.242 173.253 189.326 172.821 189.326C172.389 189.326 172.029 189.242 171.741 189.074C171.453 188.906 171.219 188.684 171.039 188.408C170.871 188.12 170.751 187.802 170.679 187.454C170.607 187.094 170.571 186.728 170.571 186.356ZM168.015 186.356C168.015 187.1 168.129 187.772 168.357 188.372C168.585 188.972 168.909 189.488 169.329 189.92C169.749 190.34 170.253 190.664 170.841 190.892C171.429 191.12 172.089 191.234 172.821 191.234C173.553 191.234 174.213 191.12 174.801 190.892C175.401 190.664 175.911 190.34 176.331 189.92C176.751 189.488 177.075 188.972 177.303 188.372C177.531 187.772 177.645 187.1 177.645 186.356C177.645 185.612 177.531 184.94 177.303 184.34C177.075 183.728 176.751 183.212 176.331 182.792C175.911 182.36 175.401 182.03 174.801 181.802C174.213 181.562 173.553 181.442 172.821 181.442C172.089 181.442 171.429 181.562 170.841 181.802C170.253 182.03 169.749 182.36 169.329 182.792C168.909 183.212 168.585 183.728 168.357 184.34C168.129 184.94 168.015 185.612 168.015 186.356ZM179.379 181.694V191H181.935V185.6C181.935 185.144 182.001 184.778 182.133 184.502C182.265 184.214 182.421 183.998 182.601 183.854C182.793 183.698 182.985 183.596 183.177 183.548C183.381 183.488 183.543 183.458 183.663 183.458C184.071 183.458 184.377 183.53 184.581 183.674C184.797 183.806 184.947 183.986 185.031 184.214C185.127 184.442 185.181 184.694 185.193 184.97C185.205 185.234 185.211 185.504 185.211 185.78V191H187.767V185.816C187.767 185.528 187.785 185.246 187.821 184.97C187.869 184.682 187.953 184.43 188.073 184.214C188.205 183.986 188.379 183.806 188.595 183.674C188.823 183.53 189.117 183.458 189.477 183.458C189.837 183.458 190.119 183.518 190.323 183.638C190.539 183.758 190.701 183.92 190.809 184.124C190.917 184.328 190.983 184.568 191.007 184.844C191.031 185.12 191.043 185.414 191.043 185.726V191H193.599V184.772C193.599 184.172 193.515 183.662 193.347 183.242C193.179 182.81 192.945 182.462 192.645 182.198C192.345 181.934 191.985 181.742 191.565 181.622C191.145 181.502 190.689 181.442 190.197 181.442C189.549 181.442 188.985 181.598 188.505 181.91C188.037 182.222 187.665 182.582 187.389 182.99C187.137 182.414 186.765 182.012 186.273 181.784C185.793 181.556 185.259 181.442 184.671 181.442C184.059 181.442 183.513 181.574 183.033 181.838C182.565 182.102 182.163 182.474 181.827 182.954H181.791V181.694H179.379Z" fill="black"/>
<path d="M469.56 30C470.822 30 471.769 31.1547 471.522 32.3922L464 70H416L423.678 31.6078C423.865 30.6729 424.686 30 425.64 30L469.56 30Z" fill="#131212"/>
<path d="M469 32L462 68L419 68L426 32L469 32Z" fill="#F5F5F5"/>
<path d="M464 70L450 80L402 80L416 70L464 70Z" fill="#131212"/>
<path d="M464 72L450 82L450 80L464 70L464 72Z" fill="#131212"/>
<rect x="402" y="80" width="48" height="2" fill="#131212"/>
<path d="M418 71H459" stroke="white" stroke-miterlimit="16" stroke-dasharray="0 4"/>
<path d="M415 74H456" stroke="white" stroke-miterlimit="16" stroke-dasharray="0 4"/>
<path d="M423 79L427 76H436L432 79H423Z" fill="#F5F5F5"/>
<path d="M423.227 10.35V7.344H425.873C426.125 7.344 426.365 7.368 426.593 7.416C426.833 7.452 427.043 7.524 427.223 7.632C427.403 7.74 427.547 7.89 427.655 8.082C427.763 8.274 427.817 8.52 427.817 8.82C427.817 9.36 427.655 9.75 427.331 9.99C427.007 10.23 426.593 10.35 426.089 10.35H423.227ZM420.401 5.148V18H426.629C427.205 18 427.763 17.928 428.303 17.784C428.855 17.64 429.341 17.418 429.761 17.118C430.193 16.818 430.535 16.434 430.787 15.966C431.039 15.486 431.165 14.922 431.165 14.274C431.165 13.47 430.967 12.786 430.571 12.222C430.187 11.646 429.599 11.244 428.807 11.016C429.383 10.74 429.815 10.386 430.103 9.954C430.403 9.522 430.553 8.982 430.553 8.334C430.553 7.734 430.451 7.23 430.247 6.822C430.055 6.414 429.779 6.09 429.419 5.85C429.059 5.598 428.627 5.418 428.123 5.31C427.619 5.202 427.061 5.148 426.449 5.148H420.401ZM423.227 15.804V12.276H426.305C426.917 12.276 427.409 12.42 427.781 12.708C428.153 12.984 428.339 13.452 428.339 14.112C428.339 14.448 428.279 14.724 428.159 14.94C428.051 15.156 427.901 15.33 427.709 15.462C427.517 15.582 427.295 15.672 427.043 15.732C426.791 15.78 426.527 15.804 426.251 15.804H423.227ZM435.073 13.356C435.073 12.984 435.109 12.618 435.181 12.258C435.253 11.898 435.373 11.58 435.541 11.304C435.721 11.028 435.955 10.806 436.243 10.638C436.531 10.458 436.891 10.368 437.323 10.368C437.755 10.368 438.115 10.458 438.403 10.638C438.703 10.806 438.937 11.028 439.105 11.304C439.285 11.58 439.411 11.898 439.483 12.258C439.555 12.618 439.591 12.984 439.591 13.356C439.591 13.728 439.555 14.094 439.483 14.454C439.411 14.802 439.285 15.12 439.105 15.408C438.937 15.684 438.703 15.906 438.403 16.074C438.115 16.242 437.755 16.326 437.323 16.326C436.891 16.326 436.531 16.242 436.243 16.074C435.955 15.906 435.721 15.684 435.541 15.408C435.373 15.12 435.253 14.802 435.181 14.454C435.109 14.094 435.073 13.728 435.073 13.356ZM432.517 13.356C432.517 14.1 432.631 14.772 432.859 15.372C433.087 15.972 433.411 16.488 433.831 16.92C434.251 17.34 434.755 17.664 435.343 17.892C435.931 18.12 436.591 18.234 437.323 18.234C438.055 18.234 438.715 18.12 439.303 17.892C439.903 17.664 440.413 17.34 440.833 16.92C441.253 16.488 441.577 15.972 441.805 15.372C442.033 14.772 442.147 14.1 442.147 13.356C442.147 12.612 442.033 11.94 441.805 11.34C441.577 10.728 441.253 10.212 440.833 9.792C440.413 9.36 439.903 9.03 439.303 8.802C438.715 8.562 438.055 8.442 437.323 8.442C436.591 8.442 435.931 8.562 435.343 8.802C434.755 9.03 434.251 9.36 433.831 9.792C433.411 10.212 433.087 10.728 432.859 11.34C432.631 11.94 432.517 12.612 432.517 13.356ZM450.631 13.356C450.631 13.74 450.589 14.112 450.505 14.472C450.421 14.832 450.289 15.15 450.109 15.426C449.929 15.702 449.701 15.924 449.425 16.092C449.161 16.248 448.837 16.326 448.453 16.326C448.081 16.326 447.757 16.248 447.481 16.092C447.205 15.924 446.977 15.702 446.797 15.426C446.617 15.15 446.485 14.832 446.401 14.472C446.317 14.112 446.275 13.74 446.275 13.356C446.275 12.96 446.317 12.582 446.401 12.222C446.485 11.862 446.617 11.544 446.797 11.268C446.977 10.992 447.205 10.776 447.481 10.62C447.757 10.452 448.081 10.368 448.453 10.368C448.837 10.368 449.161 10.452 449.425 10.62C449.701 10.776 449.929 10.992 450.109 11.268C450.289 11.544 450.421 11.862 450.505 12.222C450.589 12.582 450.631 12.96 450.631 13.356ZM443.809 5.148V18H446.239V16.812H446.275C446.551 17.328 446.959 17.694 447.499 17.91C448.039 18.126 448.651 18.234 449.335 18.234C449.803 18.234 450.265 18.138 450.721 17.946C451.177 17.754 451.585 17.46 451.945 17.064C452.317 16.668 452.617 16.164 452.845 15.552C453.073 14.928 453.187 14.19 453.187 13.338C453.187 12.486 453.073 11.754 452.845 11.142C452.617 10.518 452.317 10.008 451.945 9.612C451.585 9.216 451.177 8.922 450.721 8.73C450.265 8.538 449.803 8.442 449.335 8.442C448.759 8.442 448.201 8.556 447.661 8.784C447.133 9 446.713 9.348 446.401 9.828H446.365V5.148H443.809Z" fill="black"/>
<path d="M469.56 198C470.822 198 471.769 199.155 471.522 200.392L464 238H416L423.678 199.608C423.865 198.673 424.686 198 425.64 198L469.56 198Z" fill="#131212"/>
<path d="M469 200L462 236L419 236L426 200L469 200Z" fill="#F5F5F5"/>
<path d="M464 238L450 248L402 248L416 238L464 238Z" fill="#131212"/>
<path d="M464 240L450 250L450 248L464 238L464 240Z" fill="#131212"/>
<rect x="402" y="248" width="48" height="2" fill="#131212"/>
<path d="M418 239H459" stroke="white" stroke-miterlimit="16" stroke-dasharray="0 4"/>
<path d="M415 242H456" stroke="white" stroke-miterlimit="16" stroke-dasharray="0 4"/>
<path d="M423 247L427 244H436L432 247H423Z" fill="#F5F5F5"/>
<path d="M423.394 273.624V265.524H425.41C426.106 265.524 426.688 265.626 427.156 265.83C427.636 266.022 428.02 266.304 428.308 266.676C428.596 267.048 428.8 267.498 428.92 268.026C429.052 268.542 429.118 269.124 429.118 269.772C429.118 270.48 429.028 271.08 428.848 271.572C428.668 272.064 428.428 272.466 428.128 272.778C427.828 273.078 427.486 273.294 427.102 273.426C426.718 273.558 426.322 273.624 425.914 273.624H423.394ZM420.568 263.148V276H426.112C427.096 276 427.948 275.838 428.668 275.514C429.4 275.178 430.006 274.722 430.486 274.146C430.978 273.57 431.344 272.886 431.584 272.094C431.824 271.302 431.944 270.438 431.944 269.502C431.944 268.434 431.794 267.504 431.494 266.712C431.206 265.92 430.798 265.26 430.27 264.732C429.754 264.204 429.136 263.808 428.416 263.544C427.708 263.28 426.94 263.148 426.112 263.148H420.568ZM433.532 269.556C433.568 268.956 433.718 268.458 433.982 268.062C434.246 267.666 434.582 267.348 434.99 267.108C435.398 266.868 435.854 266.7 436.358 266.604C436.874 266.496 437.39 266.442 437.906 266.442C438.374 266.442 438.848 266.478 439.328 266.55C439.808 266.61 440.246 266.736 440.642 266.928C441.038 267.12 441.362 267.39 441.614 267.738C441.866 268.074 441.992 268.524 441.992 269.088V273.93C441.992 274.35 442.016 274.752 442.064 275.136C442.112 275.52 442.196 275.808 442.316 276H439.724C439.676 275.856 439.634 275.712 439.598 275.568C439.574 275.412 439.556 275.256 439.544 275.1C439.136 275.52 438.656 275.814 438.104 275.982C437.552 276.15 436.988 276.234 436.412 276.234C435.968 276.234 435.554 276.18 435.17 276.072C434.786 275.964 434.45 275.796 434.162 275.568C433.874 275.34 433.646 275.052 433.478 274.704C433.322 274.356 433.244 273.942 433.244 273.462C433.244 272.934 433.334 272.502 433.514 272.166C433.706 271.818 433.946 271.542 434.234 271.338C434.534 271.134 434.87 270.984 435.242 270.888C435.626 270.78 436.01 270.696 436.394 270.636C436.778 270.576 437.156 270.528 437.528 270.492C437.9 270.456 438.23 270.402 438.518 270.33C438.806 270.258 439.034 270.156 439.202 270.024C439.37 269.88 439.448 269.676 439.436 269.412C439.436 269.136 439.388 268.92 439.292 268.764C439.208 268.596 439.088 268.47 438.932 268.386C438.788 268.29 438.614 268.23 438.41 268.206C438.218 268.17 438.008 268.152 437.78 268.152C437.276 268.152 436.88 268.26 436.592 268.476C436.304 268.692 436.136 269.052 436.088 269.556H433.532ZM439.436 271.446C439.328 271.542 439.19 271.62 439.022 271.68C438.866 271.728 438.692 271.77 438.5 271.806C438.32 271.842 438.128 271.872 437.924 271.896C437.72 271.92 437.516 271.95 437.312 271.986C437.12 272.022 436.928 272.07 436.736 272.13C436.556 272.19 436.394 272.274 436.25 272.382C436.118 272.478 436.01 272.604 435.926 272.76C435.842 272.916 435.8 273.114 435.8 273.354C435.8 273.582 435.842 273.774 435.926 273.93C436.01 274.086 436.124 274.212 436.268 274.308C436.412 274.392 436.58 274.452 436.772 274.488C436.964 274.524 437.162 274.542 437.366 274.542C437.87 274.542 438.26 274.458 438.536 274.29C438.812 274.122 439.016 273.924 439.148 273.696C439.28 273.456 439.358 273.216 439.382 272.976C439.418 272.736 439.436 272.544 439.436 272.4V271.446ZM443.976 266.694V276H446.532V271.122C446.532 270.174 446.688 269.496 447 269.088C447.312 268.668 447.816 268.458 448.512 268.458C449.124 268.458 449.55 268.65 449.79 269.034C450.03 269.406 450.15 269.976 450.15 270.744V276H452.706V270.276C452.706 269.7 452.652 269.178 452.544 268.71C452.448 268.23 452.274 267.828 452.022 267.504C451.77 267.168 451.422 266.91 450.978 266.73C450.546 266.538 449.988 266.442 449.304 266.442C448.764 266.442 448.236 266.568 447.72 266.82C447.204 267.06 446.784 267.45 446.46 267.99H446.406V266.694H443.976Z" fill="black"/>
<rect x="422.5" y="131.5" width="31" height="47" rx="3.5" fill="#131212" stroke="black"/>
<rect x="424" y="133" width="28" height="38" rx="2" fill="white"/>
<circle cx="438" cy="175" r="2" fill="white"/>
<path d="M426.309 110.468H429.045C428.961 109.724 428.757 109.064 428.433 108.488C428.109 107.912 427.695 107.432 427.191 107.048C426.699 106.652 426.135 106.352 425.499 106.148C424.875 105.944 424.209 105.842 423.501 105.842C422.517 105.842 421.629 106.016 420.837 106.364C420.057 106.712 419.397 107.192 418.857 107.804C418.317 108.416 417.903 109.136 417.615 109.964C417.327 110.78 417.183 111.668 417.183 112.628C417.183 113.564 417.327 114.44 417.615 115.256C417.903 116.06 418.317 116.762 418.857 117.362C419.397 117.962 420.057 118.436 420.837 118.784C421.629 119.12 422.517 119.288 423.501 119.288C424.293 119.288 425.019 119.168 425.679 118.928C426.339 118.688 426.915 118.34 427.407 117.884C427.899 117.428 428.295 116.876 428.595 116.228C428.895 115.58 429.081 114.854 429.153 114.05H426.417C426.309 114.914 426.009 115.61 425.517 116.138C425.037 116.666 424.365 116.93 423.501 116.93C422.865 116.93 422.325 116.81 421.881 116.57C421.437 116.318 421.077 115.988 420.801 115.58C420.525 115.172 420.321 114.716 420.189 114.212C420.069 113.696 420.009 113.168 420.009 112.628C420.009 112.064 420.069 111.518 420.189 110.99C420.321 110.462 420.525 109.994 420.801 109.586C421.077 109.166 421.437 108.836 421.881 108.596C422.325 108.344 422.865 108.218 423.501 108.218C423.849 108.218 424.179 108.278 424.491 108.398C424.815 108.506 425.103 108.662 425.355 108.866C425.607 109.07 425.817 109.31 425.985 109.586C426.153 109.85 426.261 110.144 426.309 110.468ZM430.705 112.556C430.741 111.956 430.891 111.458 431.155 111.062C431.419 110.666 431.755 110.348 432.163 110.108C432.571 109.868 433.027 109.7 433.531 109.604C434.047 109.496 434.563 109.442 435.079 109.442C435.547 109.442 436.021 109.478 436.501 109.55C436.981 109.61 437.419 109.736 437.815 109.928C438.211 110.12 438.535 110.39 438.787 110.738C439.039 111.074 439.165 111.524 439.165 112.088V116.93C439.165 117.35 439.189 117.752 439.237 118.136C439.285 118.52 439.369 118.808 439.489 119H436.897C436.849 118.856 436.807 118.712 436.771 118.568C436.747 118.412 436.729 118.256 436.717 118.1C436.309 118.52 435.829 118.814 435.277 118.982C434.725 119.15 434.161 119.234 433.585 119.234C433.141 119.234 432.727 119.18 432.343 119.072C431.959 118.964 431.623 118.796 431.335 118.568C431.047 118.34 430.819 118.052 430.651 117.704C430.495 117.356 430.417 116.942 430.417 116.462C430.417 115.934 430.507 115.502 430.687 115.166C430.879 114.818 431.119 114.542 431.407 114.338C431.707 114.134 432.043 113.984 432.415 113.888C432.799 113.78 433.183 113.696 433.567 113.636C433.951 113.576 434.329 113.528 434.701 113.492C435.073 113.456 435.403 113.402 435.691 113.33C435.979 113.258 436.207 113.156 436.375 113.024C436.543 112.88 436.621 112.676 436.609 112.412C436.609 112.136 436.561 111.92 436.465 111.764C436.381 111.596 436.261 111.47 436.105 111.386C435.961 111.29 435.787 111.23 435.583 111.206C435.391 111.17 435.181 111.152 434.953 111.152C434.449 111.152 434.053 111.26 433.765 111.476C433.477 111.692 433.309 112.052 433.261 112.556H430.705ZM436.609 114.446C436.501 114.542 436.363 114.62 436.195 114.68C436.039 114.728 435.865 114.77 435.673 114.806C435.493 114.842 435.301 114.872 435.097 114.896C434.893 114.92 434.689 114.95 434.485 114.986C434.293 115.022 434.101 115.07 433.909 115.13C433.729 115.19 433.567 115.274 433.423 115.382C433.291 115.478 433.183 115.604 433.099 115.76C433.015 115.916 432.973 116.114 432.973 116.354C432.973 116.582 433.015 116.774 433.099 116.93C433.183 117.086 433.297 117.212 433.441 117.308C433.585 117.392 433.753 117.452 433.945 117.488C434.137 117.524 434.335 117.542 434.539 117.542C435.043 117.542 435.433 117.458 435.709 117.29C435.985 117.122 436.189 116.924 436.321 116.696C436.453 116.456 436.531 116.216 436.555 115.976C436.591 115.736 436.609 115.544 436.609 115.4V114.446ZM441.149 109.694V119H443.705V114.806C443.705 114.386 443.747 113.996 443.831 113.636C443.915 113.276 444.053 112.964 444.245 112.7C444.449 112.424 444.713 112.208 445.037 112.052C445.361 111.896 445.757 111.818 446.225 111.818C446.381 111.818 446.543 111.83 446.711 111.854C446.879 111.866 447.023 111.884 447.143 111.908V109.532C446.939 109.472 446.753 109.442 446.585 109.442C446.261 109.442 445.949 109.49 445.649 109.586C445.349 109.682 445.067 109.82 444.803 110C444.539 110.168 444.305 110.378 444.101 110.63C443.897 110.87 443.735 111.134 443.615 111.422H443.579V109.694H441.149ZM450.096 114.356C450.096 113.984 450.132 113.618 450.204 113.258C450.276 112.898 450.396 112.58 450.564 112.304C450.744 112.028 450.978 111.806 451.266 111.638C451.554 111.458 451.914 111.368 452.346 111.368C452.778 111.368 453.138 111.458 453.426 111.638C453.726 111.806 453.96 112.028 454.128 112.304C454.308 112.58 454.434 112.898 454.506 113.258C454.578 113.618 454.614 113.984 454.614 114.356C454.614 114.728 454.578 115.094 454.506 115.454C454.434 115.802 454.308 116.12 454.128 116.408C453.96 116.684 453.726 116.906 453.426 117.074C453.138 117.242 452.778 117.326 452.346 117.326C451.914 117.326 451.554 117.242 451.266 117.074C450.978 116.906 450.744 116.684 450.564 116.408C450.396 116.12 450.276 115.802 450.204 115.454C450.132 115.094 450.096 114.728 450.096 114.356ZM447.54 114.356C447.54 115.1 447.654 115.772 447.882 116.372C448.11 116.972 448.434 117.488 448.854 117.92C449.274 118.34 449.778 118.664 450.366 118.892C450.954 119.12 451.614 119.234 452.346 119.234C453.078 119.234 453.738 119.12 454.326 118.892C454.926 118.664 455.436 118.34 455.856 117.92C456.276 117.488 456.6 116.972 456.828 116.372C457.056 115.772 457.17 115.1 457.17 114.356C457.17 113.612 457.056 112.94 456.828 112.34C456.6 111.728 456.276 111.212 455.856 110.792C455.436 110.36 454.926 110.03 454.326 109.802C453.738 109.562 453.078 109.442 452.346 109.442C451.614 109.442 450.954 109.562 450.366 109.802C449.778 110.03 449.274 110.36 448.854 110.792C448.434 111.212 448.11 111.728 447.882 112.34C447.654 112.94 447.54 113.612 447.54 114.356ZM458.904 106.148V119H461.46V106.148H458.904Z" fill="black"/>
<rect x="6.5" y="117.5" width="31" height="47" rx="3.5" fill="#131212" stroke="black"/>
<rect x="8" y="119" width="28" height="38" rx="2" fill="white"/>
<circle cx="22" cy="161" r="2" fill="white"/>
<path d="M4.8443 100.032L6.5183 95.316H6.5543L8.1743 100.032H4.8443ZM5.1143 92.148L0.254305 105H3.0983L4.1063 102.138H8.91231L9.88431 105H12.8183L8.0123 92.148H5.1143ZM13.7286 92.148V105H16.2846V92.148H13.7286ZM20.9252 94.254V92.148H18.3692V94.254H20.9252ZM18.3692 95.694V105H20.9252V95.694H18.3692ZM29.2738 98.97H31.7758C31.7398 98.37 31.5958 97.854 31.3438 97.422C31.0918 96.978 30.7618 96.612 30.3538 96.324C29.9578 96.024 29.5018 95.802 28.9858 95.658C28.4818 95.514 27.9538 95.442 27.4018 95.442C26.6458 95.442 25.9738 95.568 25.3858 95.82C24.7978 96.072 24.2998 96.426 23.8918 96.882C23.4838 97.326 23.1718 97.86 22.9558 98.484C22.7518 99.096 22.6498 99.762 22.6498 100.482C22.6498 101.178 22.7638 101.82 22.9918 102.408C23.2198 102.984 23.5378 103.482 23.9458 103.902C24.3538 104.322 24.8458 104.652 25.4218 104.892C26.0098 105.12 26.6518 105.234 27.3478 105.234C28.5838 105.234 29.5978 104.91 30.3898 104.262C31.1818 103.614 31.6618 102.672 31.8298 101.436H29.3638C29.2798 102.012 29.0698 102.474 28.7338 102.822C28.4098 103.158 27.9418 103.326 27.3298 103.326C26.9338 103.326 26.5978 103.236 26.3218 103.056C26.0458 102.876 25.8238 102.648 25.6558 102.372C25.4998 102.084 25.3858 101.766 25.3138 101.418C25.2418 101.07 25.2058 100.728 25.2058 100.392C25.2058 100.044 25.2418 99.696 25.3138 99.348C25.3858 98.988 25.5058 98.664 25.6738 98.376C25.8538 98.076 26.0818 97.836 26.3578 97.656C26.6338 97.464 26.9758 97.368 27.3838 97.368C28.4758 97.368 29.1058 97.902 29.2738 98.97ZM39.5378 99.348H35.3798C35.3918 99.168 35.4278 98.964 35.4878 98.736C35.5598 98.508 35.6738 98.292 35.8298 98.088C35.9978 97.884 36.2138 97.716 36.4778 97.584C36.7538 97.44 37.0958 97.368 37.5038 97.368C38.1278 97.368 38.5898 97.536 38.8898 97.872C39.2018 98.208 39.4178 98.7 39.5378 99.348ZM35.3798 100.968H42.0938C42.1418 100.248 42.0818 99.558 41.9138 98.898C41.7458 98.238 41.4698 97.65 41.0858 97.134C40.7138 96.618 40.2338 96.21 39.6458 95.91C39.0578 95.598 38.3678 95.442 37.5758 95.442C36.8678 95.442 36.2198 95.568 35.6318 95.82C35.0558 96.072 34.5578 96.42 34.1378 96.864C33.7178 97.296 33.3938 97.812 33.1658 98.412C32.9378 99.012 32.8238 99.66 32.8238 100.356C32.8238 101.076 32.9318 101.736 33.1478 102.336C33.3758 102.936 33.6938 103.452 34.1018 103.884C34.5098 104.316 35.0078 104.652 35.5958 104.892C36.1838 105.12 36.8438 105.234 37.5758 105.234C38.6318 105.234 39.5318 104.994 40.2758 104.514C41.0198 104.034 41.5718 103.236 41.9318 102.12H39.6818C39.5978 102.408 39.3698 102.684 38.9978 102.948C38.6258 103.2 38.1818 103.326 37.6658 103.326C36.9458 103.326 36.3938 103.14 36.0098 102.768C35.6258 102.396 35.4158 101.796 35.3798 100.968Z" fill="black"/>
<path d="M245.151 8.694V18H247.707V12.6C247.707 12.144 247.773 11.778 247.905 11.502C248.037 11.214 248.193 10.998 248.373 10.854C248.565 10.698 248.757 10.596 248.949 10.548C249.153 10.488 249.315 10.458 249.435 10.458C249.843 10.458 250.149 10.53 250.353 10.674C250.569 10.806 250.719 10.986 250.803 11.214C250.899 11.442 250.953 11.694 250.965 11.97C250.977 12.234 250.983 12.504 250.983 12.78V18H253.539V12.816C253.539 12.528 253.557 12.246 253.593 11.97C253.641 11.682 253.725 11.43 253.845 11.214C253.977 10.986 254.151 10.806 254.367 10.674C254.595 10.53 254.889 10.458 255.249 10.458C255.609 10.458 255.891 10.518 256.095 10.638C256.311 10.758 256.473 10.92 256.581 11.124C256.689 11.328 256.755 11.568 256.779 11.844C256.803 12.12 256.815 12.414 256.815 12.726V18H259.371V11.772C259.371 11.172 259.287 10.662 259.119 10.242C258.951 9.81 258.717 9.462 258.417 9.198C258.117 8.934 257.757 8.742 257.337 8.622C256.917 8.502 256.461 8.442 255.969 8.442C255.321 8.442 254.757 8.598 254.277 8.91C253.809 9.222 253.437 9.582 253.161 9.99C252.909 9.414 252.537 9.012 252.045 8.784C251.565 8.556 251.031 8.442 250.443 8.442C249.831 8.442 249.285 8.574 248.805 8.838C248.337 9.102 247.935 9.474 247.599 9.954H247.563V8.694H245.151ZM261.284 11.556C261.32 10.956 261.47 10.458 261.734 10.062C261.998 9.666 262.334 9.348 262.742 9.108C263.15 8.868 263.606 8.7 264.11 8.604C264.626 8.496 265.142 8.442 265.658 8.442C266.126 8.442 266.6 8.478 267.08 8.55C267.56 8.61 267.998 8.736 268.394 8.928C268.79 9.12 269.114 9.39 269.366 9.738C269.618 10.074 269.744 10.524 269.744 11.088V15.93C269.744 16.35 269.768 16.752 269.816 17.136C269.864 17.52 269.948 17.808 270.068 18H267.476C267.428 17.856 267.386 17.712 267.35 17.568C267.326 17.412 267.308 17.256 267.296 17.1C266.888 17.52 266.408 17.814 265.856 17.982C265.304 18.15 264.74 18.234 264.164 18.234C263.72 18.234 263.306 18.18 262.922 18.072C262.538 17.964 262.202 17.796 261.914 17.568C261.626 17.34 261.398 17.052 261.23 16.704C261.074 16.356 260.996 15.942 260.996 15.462C260.996 14.934 261.086 14.502 261.266 14.166C261.458 13.818 261.698 13.542 261.986 13.338C262.286 13.134 262.622 12.984 262.994 12.888C263.378 12.78 263.762 12.696 264.146 12.636C264.53 12.576 264.908 12.528 265.28 12.492C265.652 12.456 265.982 12.402 266.27 12.33C266.558 12.258 266.786 12.156 266.954 12.024C267.122 11.88 267.2 11.676 267.188 11.412C267.188 11.136 267.14 10.92 267.044 10.764C266.96 10.596 266.84 10.47 266.684 10.386C266.54 10.29 266.366 10.23 266.162 10.206C265.97 10.17 265.76 10.152 265.532 10.152C265.028 10.152 264.632 10.26 264.344 10.476C264.056 10.692 263.888 11.052 263.84 11.556H261.284ZM267.188 13.446C267.08 13.542 266.942 13.62 266.774 13.68C266.618 13.728 266.444 13.77 266.252 13.806C266.072 13.842 265.88 13.872 265.676 13.896C265.472 13.92 265.268 13.95 265.064 13.986C264.872 14.022 264.68 14.07 264.488 14.13C264.308 14.19 264.146 14.274 264.002 14.382C263.87 14.478 263.762 14.604 263.678 14.76C263.594 14.916 263.552 15.114 263.552 15.354C263.552 15.582 263.594 15.774 263.678 15.93C263.762 16.086 263.876 16.212 264.02 16.308C264.164 16.392 264.332 16.452 264.524 16.488C264.716 16.524 264.914 16.542 265.118 16.542C265.622 16.542 266.012 16.458 266.288 16.29C266.564 16.122 266.768 15.924 266.9 15.696C267.032 15.456 267.11 15.216 267.134 14.976C267.17 14.736 267.188 14.544 267.188 14.4V13.446ZM274.968 8.694V5.904H272.412V8.694H270.864V10.404H272.412V15.894C272.412 16.362 272.49 16.74 272.646 17.028C272.802 17.316 273.012 17.538 273.276 17.694C273.552 17.85 273.864 17.952 274.212 18C274.572 18.06 274.95 18.09 275.346 18.09C275.598 18.09 275.856 18.084 276.12 18.072C276.384 18.06 276.624 18.036 276.84 18V16.02C276.72 16.044 276.594 16.062 276.462 16.074C276.33 16.086 276.192 16.092 276.048 16.092C275.616 16.092 275.328 16.02 275.184 15.876C275.04 15.732 274.968 15.444 274.968 15.012V10.404H276.84V8.694H274.968ZM278.056 8.694V18H280.612V13.806C280.612 13.386 280.654 12.996 280.738 12.636C280.822 12.276 280.96 11.964 281.152 11.7C281.356 11.424 281.62 11.208 281.944 11.052C282.268 10.896 282.664 10.818 283.132 10.818C283.288 10.818 283.45 10.83 283.618 10.854C283.786 10.866 283.93 10.884 284.05 10.908V8.532C283.846 8.472 283.66 8.442 283.492 8.442C283.168 8.442 282.856 8.49 282.556 8.586C282.256 8.682 281.974 8.82 281.71 9C281.446 9.168 281.212 9.378 281.008 9.63C280.804 9.87 280.642 10.134 280.522 10.422H280.486V8.694H278.056ZM287.68 7.254V5.148H285.124V7.254H287.68ZM285.124 8.694V18H287.68V8.694H285.124ZM292.069 13.104L288.721 18H291.583L293.527 15.066L295.471 18H298.387L294.949 13.05L298.009 8.694H295.183L293.563 11.124L291.925 8.694H289.009L292.069 13.104ZM299.469 15.228V18H302.295V15.228H299.469ZM306.638 13.356C306.638 12.984 306.674 12.618 306.746 12.258C306.818 11.898 306.938 11.58 307.106 11.304C307.286 11.028 307.52 10.806 307.808 10.638C308.096 10.458 308.456 10.368 308.888 10.368C309.32 10.368 309.68 10.458 309.968 10.638C310.268 10.806 310.502 11.028 310.67 11.304C310.85 11.58 310.976 11.898 311.048 12.258C311.12 12.618 311.156 12.984 311.156 13.356C311.156 13.728 311.12 14.094 311.048 14.454C310.976 14.802 310.85 15.12 310.67 15.408C310.502 15.684 310.268 15.906 309.968 16.074C309.68 16.242 309.32 16.326 308.888 16.326C308.456 16.326 308.096 16.242 307.808 16.074C307.52 15.906 307.286 15.684 307.106 15.408C306.938 15.12 306.818 14.802 306.746 14.454C306.674 14.094 306.638 13.728 306.638 13.356ZM304.082 13.356C304.082 14.1 304.196 14.772 304.424 15.372C304.652 15.972 304.976 16.488 305.396 16.92C305.816 17.34 306.32 17.664 306.908 17.892C307.496 18.12 308.156 18.234 308.888 18.234C309.62 18.234 310.28 18.12 310.868 17.892C311.468 17.664 311.978 17.34 312.398 16.92C312.818 16.488 313.142 15.972 313.37 15.372C313.598 14.772 313.712 14.1 313.712 13.356C313.712 12.612 313.598 11.94 313.37 11.34C313.142 10.728 312.818 10.212 312.398 9.792C311.978 9.36 311.468 9.03 310.868 8.802C310.28 8.562 309.62 8.442 308.888 8.442C308.156 8.442 307.496 8.562 306.908 8.802C306.32 9.03 305.816 9.36 305.396 9.792C304.976 10.212 304.652 10.728 304.424 11.34C304.196 11.94 304.082 12.612 304.082 13.356ZM315.374 8.694V18H317.93V13.806C317.93 13.386 317.972 12.996 318.056 12.636C318.14 12.276 318.278 11.964 318.47 11.7C318.674 11.424 318.938 11.208 319.262 11.052C319.586 10.896 319.982 10.818 320.45 10.818C320.606 10.818 320.768 10.83 320.936 10.854C321.104 10.866 321.248 10.884 321.368 10.908V8.532C321.164 8.472 320.978 8.442 320.81 8.442C320.486 8.442 320.174 8.49 319.874 8.586C319.574 8.682 319.292 8.82 319.028 9C318.764 9.168 318.53 9.378 318.326 9.63C318.122 9.87 317.96 10.134 317.84 10.422H317.804V8.694H315.374ZM326.199 15.804C325.803 15.804 325.473 15.72 325.209 15.552C324.945 15.384 324.729 15.168 324.561 14.904C324.405 14.64 324.291 14.346 324.219 14.022C324.159 13.686 324.129 13.35 324.129 13.014C324.129 12.666 324.165 12.336 324.237 12.024C324.321 11.7 324.447 11.418 324.615 11.178C324.795 10.926 325.011 10.728 325.263 10.584C325.527 10.44 325.839 10.368 326.199 10.368C326.619 10.368 326.967 10.446 327.243 10.602C327.519 10.758 327.741 10.968 327.909 11.232C328.077 11.496 328.197 11.802 328.269 12.15C328.341 12.486 328.377 12.846 328.377 13.23C328.377 13.566 328.329 13.89 328.233 14.202C328.149 14.502 328.017 14.772 327.837 15.012C327.657 15.252 327.429 15.444 327.153 15.588C326.877 15.732 326.559 15.804 326.199 15.804ZM330.807 17.406V8.694H328.377V9.936H328.341C328.029 9.396 327.639 9.012 327.171 8.784C326.715 8.556 326.181 8.442 325.569 8.442C324.921 8.442 324.345 8.568 323.841 8.82C323.349 9.072 322.935 9.414 322.599 9.846C322.263 10.266 322.005 10.758 321.825 11.322C321.657 11.874 321.573 12.45 321.573 13.05C321.573 13.686 321.645 14.292 321.789 14.868C321.945 15.432 322.185 15.93 322.509 16.362C322.833 16.782 323.247 17.118 323.751 17.37C324.255 17.61 324.855 17.73 325.551 17.73C326.115 17.73 326.649 17.616 327.153 17.388C327.669 17.148 328.065 16.782 328.341 16.29H328.377V17.514C328.389 18.174 328.227 18.72 327.891 19.152C327.567 19.584 327.045 19.8 326.325 19.8C325.869 19.8 325.467 19.704 325.119 19.512C324.771 19.332 324.537 19.002 324.417 18.522H321.879C321.915 19.05 322.059 19.5 322.311 19.872C322.575 20.256 322.899 20.568 323.283 20.808C323.679 21.048 324.111 21.222 324.579 21.33C325.059 21.45 325.527 21.51 325.983 21.51C327.051 21.51 327.903 21.366 328.539 21.078C329.175 20.79 329.661 20.436 329.997 20.016C330.333 19.608 330.549 19.164 330.645 18.684C330.753 18.204 330.807 17.778 330.807 17.406Z" fill="black"/>
<rect x="268" y="30" width="40" height="48" rx="4" fill="#131212"/>
<path d="M276 43H300" stroke="white" stroke-width="4" stroke-linecap="round"/>
<path d="M276 55H288" stroke="white" stroke-width="4" stroke-linecap="round"/>
<path d="M299 55H300" stroke="white" stroke-width="4" stroke-linecap="round"/>
</svg>
