<?xml version="1.0" encoding="UTF-8" standalone="no"?>
<svg
   xmlns:dc="http://purl.org/dc/elements/1.1/"
   xmlns:cc="http://creativecommons.org/ns#"
   xmlns:rdf="http://www.w3.org/1999/02/22-rdf-syntax-ns#"
   xmlns:svg="http://www.w3.org/2000/svg"
   xmlns="http://www.w3.org/2000/svg"
   xmlns:sodipodi="http://sodipodi.sourceforge.net/DTD/sodipodi-0.dtd"
   xmlns:inkscape="http://www.inkscape.org/namespaces/inkscape"
   clip-rule="evenodd"
   fill-rule="evenodd"
   stroke-linejoin="round"
   stroke-miterlimit="1.4142"
   version="1.1"
   viewBox="0 0 1144 1144"
   xml:space="preserve"
   id="svg20"
   sodipodi:docname="Nextcloud Talk icon square.svg"
   inkscape:version="1.0.1 (3bc2e813f5, 2020-09-07)"
   width="1144"
   height="1144"
   inkscape:export-filename="Nextcloud Talk icon square.png"
   inkscape:export-xdpi="96"
   inkscape:export-ydpi="96"><metadata
   id="metadata24"><rdf:RDF><cc:Work
       rdf:about=""><dc:format>image/svg+xml</dc:format><dc:type
         rdf:resource="http://purl.org/dc/dcmitype/StillImage" /><dc:title></dc:title></cc:Work></rdf:RDF></metadata><sodipodi:namedview
   pagecolor="#ffffff"
   bordercolor="#666666"
   borderopacity="1"
   objecttolerance="10"
   gridtolerance="10"
   guidetolerance="10"
   inkscape:pageopacity="0"
   inkscape:pageshadow="2"
   inkscape:window-width="1920"
   inkscape:window-height="1016"
   id="namedview22"
   showgrid="false"
   inkscape:zoom="0.40327381"
   inkscape:cx="218.33061"
   inkscape:cy="717.89327"
   inkscape:window-x="0"
   inkscape:window-y="0"
   inkscape:window-maximized="1"
   inkscape:current-layer="svg20"
   fit-margin-top="0"
   fit-margin-left="0"
   fit-margin-right="0"
   fit-margin-bottom="0" /><defs
   id="defs16"><linearGradient
     id="a"
     x1="26.570419"
     x2="127.67858"
     y1="128.40788"
     y2="-8.9285713e-06"
     gradientTransform="matrix(8.96,0,0,8.96,-7.8e-5,8e-5)"
     gradientUnits="userSpaceOnUse"><stop
       stop-color="#0082c9"
       offset="0"
       id="stop11" /><stop
       stop-color="#1cafff"
       offset="1"
       id="stop13" /></linearGradient></defs>
<rect
   y="0"
   width="1144"
   height="1144"
   fill="url(#a)"
   fill-rule="evenodd"
   id="rect18"
   x="0"
   style="fill:url(#a)" /><path
   id="path2"
   d="m 571.959,247 c -178.258,0.003 -324.942,146.69 -324.942,324.951 0,0.003 0,0.006 0,0.009 0,178.262 146.684,324.949 324.942,324.952 59.474,-0.121 117.789,-16.568 168.562,-47.54 39.937,15.87 129.393,62.958 150.684,42.616 C 913.45,870.741 865.085,770.743 853.49,733.584 881.82,684.426 896.787,628.695 896.898,571.958 896.895,393.7 750.215,247.016 571.96,247.011 Z m 0.038,123.543 c 110.532,0 201.486,90.957 201.486,201.492 -0.007,110.53 -90.959,201.477 -201.487,201.477 -110.527,0 -201.479,-90.947 -201.487,-201.477 0,0 0,0 0,0 0,-110.535 90.955,-201.492 201.487,-201.492 z"
   style="clip-rule:evenodd;fill:#ffffff;fill-rule:nonzero;stroke-linejoin:round;stroke-miterlimit:1.41421" /></svg>
