<?xml version="1.0" encoding="UTF-8" standalone="no"?>
<!DOCTYPE svg PUBLIC "-//W3C//DTD SVG 1.1//EN" "http://www.w3.org/Graphics/SVG/1.1/DTD/svg11.dtd">
<svg width="100%" height="100%" viewBox="0 0 132 141" version="1.1" xmlns="http://www.w3.org/2000/svg" xmlns:xlink="http://www.w3.org/1999/xlink" xml:space="preserve" xmlns:serif="http://www.serif.com/" style="fill-rule:evenodd;clip-rule:evenodd;stroke-linejoin:round;stroke-miterlimit:1.41421;">
    <g transform="matrix(1,0,0,1,-1.82868e-06,0)">
        <path d="M128.444,84.345C126.514,94.27 111.166,105.131 93.537,107.236C84.344,108.334 75.294,109.341 65.643,108.899C49.859,108.176 37.405,105.131 37.405,105.131C37.405,106.668 37.5,108.131 37.689,109.499C39.741,125.075 53.135,126.009 65.822,126.444C78.627,126.882 90.028,123.286 90.028,123.286L90.555,134.864C90.555,134.864 81.598,139.673 65.643,140.557C56.844,141.041 45.92,140.336 33.195,136.969C5.599,129.664 0.853,100.248 0.127,70.4C-0.095,61.538 0.042,53.181 0.042,46.193C0.042,15.671 20.039,6.725 20.039,6.725C30.122,2.094 47.424,0.147 65.411,0L65.853,0C83.84,0.147 101.153,2.094 111.236,6.725C111.236,6.725 131.233,15.671 131.233,46.193C131.233,46.193 131.483,68.711 128.444,84.345" style="fill:rgb(48,136,212);fill-rule:nonzero;"/>
        <path d="M27.726,38.795C27.726,34.352 31.328,30.751 35.77,30.751C40.213,30.751 43.814,34.352 43.814,38.795C43.814,43.237 40.213,46.839 35.77,46.839C31.328,46.839 27.726,43.237 27.726,38.795M143.092,48.56L143.092,85.516L128.451,85.516L128.451,49.646C128.451,42.084 125.269,38.247 118.905,38.247C111.87,38.247 108.343,42.8 108.343,51.802L108.343,71.435L93.788,71.435L93.788,51.802C93.788,42.8 90.261,38.247 83.226,38.247C76.862,38.247 73.68,42.084 73.68,49.646L73.68,85.516L59.039,85.516L59.039,48.56C59.039,41.007 60.962,35.005 64.825,30.564C68.809,26.124 74.026,23.848 80.501,23.848C87.994,23.848 93.668,26.727 97.418,32.487L101.066,38.601L104.713,32.487C108.464,26.727 114.137,23.848 121.631,23.848C128.106,23.848 133.322,26.124 137.306,30.564C141.169,35.005 143.092,41.007 143.092,48.56M193.53,66.931C196.551,63.739 198.006,59.719 198.006,54.871C198.006,50.023 196.551,46.003 193.53,42.929C190.621,39.736 186.927,38.2 182.451,38.2C177.974,38.2 174.281,39.736 171.372,42.929C168.462,46.003 167.007,50.023 167.007,54.871C167.007,59.719 168.462,63.739 171.372,66.931C174.281,70.005 177.974,71.542 182.451,71.542C186.927,71.542 190.621,70.005 193.53,66.931M198.006,25.311L212.443,25.311L212.443,84.431L198.006,84.431L198.006,77.454C193.642,83.248 187.598,86.086 179.765,86.086C172.267,86.086 165.888,83.13 160.516,77.099C155.257,71.069 152.571,63.62 152.571,54.871C152.571,46.24 155.257,38.79 160.516,32.76C165.888,26.73 172.267,23.656 179.765,23.656C187.598,23.656 193.642,26.494 198.006,32.287L198.006,25.311ZM261.016,53.807C265.268,56.999 267.395,61.492 267.283,67.167C267.283,73.198 265.156,77.927 260.792,81.238C256.427,84.431 251.168,86.086 244.789,86.086C233.262,86.086 225.428,81.356 221.287,72.015L233.822,64.567C235.5,69.65 239.193,72.252 244.789,72.252C249.936,72.252 252.511,70.596 252.511,67.167C252.511,64.684 249.153,62.438 242.327,60.665C239.752,59.955 237.626,59.246 235.948,58.654C233.598,57.709 231.584,56.644 229.905,55.344C225.764,52.152 223.638,47.894 223.638,42.456C223.638,36.662 225.652,32.051 229.681,28.74C233.822,25.311 238.857,23.656 244.901,23.656C254.525,23.656 261.576,27.794 266.163,36.189L253.854,43.283C252.063,39.264 249.042,37.254 244.901,37.254C240.536,37.254 238.41,38.909 238.41,42.101C238.41,44.584 241.767,46.83 248.594,48.604C253.854,49.786 257.994,51.56 261.016,53.807M306.901,39.973L294.255,39.973L294.255,64.567C294.255,67.523 295.375,69.296 297.501,70.123C299.068,70.715 302.201,70.833 306.901,70.596L306.901,84.431C297.166,85.613 290.115,84.667 285.974,81.474C281.834,78.4 279.819,72.725 279.819,64.567L279.819,39.973L270.083,39.973L270.083,25.311L279.819,25.311L279.819,13.369L294.255,8.758L294.255,25.311L306.901,25.311L306.901,39.973ZM352.9,66.576C355.81,63.501 357.264,59.599 357.264,54.87C357.264,50.141 355.81,46.239 352.9,43.165C349.99,40.09 346.409,38.554 342.044,38.554C337.68,38.554 334.099,40.09 331.189,43.165C328.391,46.357 326.936,50.259 326.936,54.87C326.936,59.482 328.391,63.384 331.189,66.576C334.099,69.65 337.68,71.187 342.044,71.187C346.409,71.187 349.99,69.65 352.9,66.576M321.005,77.099C315.298,71.069 312.5,63.738 312.5,54.87C312.5,46.12 315.298,38.79 321.005,32.76C326.712,26.73 333.763,23.656 342.044,23.656C350.326,23.656 357.376,26.73 363.084,32.76C368.792,38.79 371.701,46.239 371.701,54.87C371.701,63.62 368.792,71.069 363.084,77.099C357.376,83.13 350.438,86.085 342.044,86.085C333.651,86.085 326.712,83.13 321.005,77.099M419.937,66.931C422.847,63.739 424.301,59.719 424.301,54.871C424.301,50.023 422.847,46.003 419.937,42.929C417.028,39.736 413.334,38.2 408.858,38.2C404.381,38.2 400.688,39.736 397.667,42.929C394.758,46.003 393.302,50.023 393.302,54.871C393.302,59.719 394.758,63.739 397.667,66.931C400.688,70.005 404.493,71.542 408.858,71.542C413.334,71.542 417.028,70.005 419.937,66.931M424.301,1.663L438.738,1.663L438.738,84.431L424.301,84.431L424.301,77.454C420.049,83.248 414.005,86.086 406.172,86.086C398.674,86.086 392.184,83.13 386.812,77.099C381.552,71.069 378.866,63.62 378.866,54.871C378.866,46.24 381.552,38.79 386.812,32.76C392.184,26.73 398.674,23.656 406.172,23.656C414.005,23.656 420.049,26.494 424.301,32.287L424.301,1.663ZM489.437,66.576C492.346,63.501 493.801,59.599 493.801,54.87C493.801,50.141 492.346,46.239 489.437,43.165C486.527,40.09 482.946,38.554 478.581,38.554C474.217,38.554 470.635,40.09 467.726,43.165C464.927,46.357 463.473,50.259 463.473,54.87C463.473,59.482 464.927,63.384 467.726,66.576C470.635,69.65 474.217,71.187 478.581,71.187C482.946,71.187 486.527,69.65 489.437,66.576M457.542,77.099C451.834,71.069 449.037,63.738 449.037,54.87C449.037,46.12 451.834,38.79 457.542,32.76C463.25,26.73 470.3,23.656 478.581,23.656C486.863,23.656 493.913,26.73 499.621,32.76C505.329,38.79 508.238,46.239 508.238,54.87C508.238,63.62 505.329,71.069 499.621,77.099C493.913,83.13 486.975,86.085 478.581,86.085C470.188,86.085 463.25,83.13 457.542,77.099M570.687,48.131L570.687,84.43L556.25,84.43L556.25,50.023C556.25,46.121 555.243,43.165 553.229,40.919C551.326,38.909 548.64,37.844 545.171,37.844C537.001,37.844 532.861,42.692 532.861,52.506L532.861,84.43L518.424,84.43L518.424,25.311L532.861,25.311L532.861,31.932C536.33,26.375 541.813,23.656 549.536,23.656C555.691,23.656 560.727,25.784 564.644,30.159C568.672,34.534 570.687,40.446 570.687,48.131" style="fill:white;fill-rule:nonzero;"/>
    </g>
</svg>
