<?xml version="1.0" ?><!DOCTYPE svg  PUBLIC '-//W3C//DTD SVG 1.1//EN'  'http://www.w3.org/Graphics/SVG/1.1/DTD/svg11.dtd'><svg height="512px" style="enable-background:new 0 0 512 512;" version="1.1" viewBox="0 0 512 512" width="512px" xml:space="preserve" xmlns="http://www.w3.org/2000/svg" xmlns:xlink="http://www.w3.org/1999/xlink"><g id="_x31_57_x2C__local_x2C__lan_x2C__connection_x2C__sync_x2C__computer"><g><path d="M207.56,147.191v-82.8H62.032v82.8H207.56z M214.325,60.996v89.592    c0,1.877-1.52,3.396-3.369,3.396H58.636c-1.877,0-3.397-1.52-3.397-3.396V60.996c0-1.877,1.52-3.396,3.397-3.396h152.319    C212.805,57.6,214.325,59.119,214.325,60.996z M153.97,191.395h-37.962l-7.233,27.471h52.428L153.97,191.395z M80.723,225.657    l1.16,10.298h108.531l-1.16-10.298C153.087,225.657,116.918,225.657,80.723,225.657z M137.074,170.826    c-0.525-0.525-1.271-0.829-2.071-0.829s-1.546,0.331-2.071,0.856c-0.524,0.496-0.856,1.242-0.856,2.043    c0,0.745,0.275,1.436,0.718,1.932l0.138,0.139c0.525,0.525,1.271,0.855,2.071,0.855c0.746,0,1.436-0.275,1.932-0.717l0.11-0.139    c0.525-0.524,0.856-1.27,0.856-2.07S137.57,171.377,137.074,170.826z M135.003,163.205c2.65,0,5.08,1.077,6.847,2.844    c1.767,1.74,2.843,4.17,2.843,6.848s-1.076,5.107-2.843,6.875l-0.277,0.248c-1.739,1.602-4.031,2.596-6.57,2.596    c-2.678,0-5.108-1.105-6.875-2.844l-0.221-0.249c-1.628-1.739-2.624-4.086-2.624-6.626c0-2.65,1.078-5.08,2.845-6.848    C129.895,164.282,132.325,163.205,135.003,163.205z M467.114,389.656v-82.801H321.613v82.801H467.114z M473.906,303.461v89.592    c0,1.877-1.52,3.396-3.396,3.396H318.219c-1.878,0-3.398-1.519-3.398-3.396v-89.592c0-1.879,1.521-3.396,3.398-3.396H470.51    C472.387,300.064,473.906,301.582,473.906,303.461z M413.552,433.858H375.59l-7.234,27.444h52.403L413.552,433.858z     M448.837,468.094c-36.195,0-72.364,0-108.532,0v11.928h108.532V468.094z M396.488,414.201c-0.496-0.497-1.158-0.801-1.932-0.801    c-0.746,0-1.436,0.304-1.932,0.801c-0.471,0.469-0.773,1.159-0.773,1.905c0,0.772,0.303,1.435,0.773,1.933    c0.496,0.496,1.186,0.8,1.932,0.8c0.689,0,1.325-0.275,1.795-0.689l0.137-0.11c0.471-0.498,0.803-1.188,0.803-1.933    C397.291,415.36,396.959,414.698,396.488,414.201z M394.557,406.608c2.623,0,4.998,1.076,6.709,2.788    c1.74,1.712,2.79,4.087,2.79,6.71c0,2.622-1.05,5.024-2.763,6.736l-0.275,0.22c-1.685,1.574-3.977,2.541-6.461,2.541    c-2.596,0-4.969-1.049-6.708-2.761c-1.713-1.74-2.788-4.114-2.788-6.736c0-2.596,1.075-4.971,2.788-6.71    C389.588,407.685,391.961,406.608,394.557,406.608z M32.794,99.125c0,1.877-1.52,3.396-3.397,3.396    c-1.878,0-3.396-1.519-3.396-3.396V47.081c0-4.142,1.712-7.924,4.445-10.657c2.762-2.733,6.515-4.445,10.658-4.445h29.899    c1.877,0,3.397,1.519,3.397,3.396c0,1.877-1.52,3.396-3.397,3.396H41.104c-2.292,0-4.362,0.938-5.882,2.43    c-1.49,1.519-2.429,3.589-2.429,5.881V99.125z M292.376,341.588c0,1.851-1.548,3.369-3.397,3.369    c-1.878,0-3.396-1.519-3.396-3.369v-52.043c0-4.141,1.685-7.924,4.417-10.656c2.762-2.762,6.517-4.445,10.685-4.445h29.901    c1.877,0,3.396,1.518,3.396,3.396c0,1.85-1.52,3.396-3.396,3.396h-29.901c-2.29,0-4.389,0.911-5.88,2.43    c-1.519,1.491-2.429,3.59-2.429,5.881V341.588z M226.445,113.178h146.522c1.877,0,3.395,1.546,3.395,3.396v107.704    c0,1.794-1.436,3.285-3.23,3.396c3.535,0.028,6.738,1.491,9.057,3.782c2.348,2.347,3.783,5.605,3.783,9.223    c0,3.588-1.463,6.818-3.811,9.193l-0.166,0.166c-2.319,2.236-5.521,3.644-9.027,3.644c-3.589,0-6.848-1.463-9.193-3.81    c-2.348-2.375-3.812-5.605-3.812-9.193c0-3.617,1.464-6.876,3.812-9.195c2.318-2.318,5.521-3.781,9.027-3.81    c-1.795-0.11-3.23-1.602-3.23-3.396V119.969H226.445v57.511c0,1.96-0.828,3.755-2.099,5.052c-1.299,1.271-3.092,2.071-5.026,2.071    h-62.672h-0.055H50.684c-1.96,0-3.727-0.801-5.024-2.071c-1.298-1.297-2.099-3.092-2.099-5.052V56.055    c0-1.961,0.8-3.729,2.099-5.025c1.297-1.298,3.064-2.099,5.024-2.099H219.32c1.934,0,3.727,0.801,5.026,2.099    c1.271,1.297,2.099,3.064,2.099,5.025V113.178z M239.339,149.456c-1.852,0-3.397-1.519-3.397-3.396    c0-1.878,1.546-3.396,3.397-3.396h96.272c1.877,0,3.396,1.519,3.396,3.396v40.281c0,1.877-1.519,3.396-3.396,3.396    s-3.396-1.52-3.396-3.396v-36.886H239.339z M115.676,377.48c-1.878,0-3.396-1.546-3.396-3.396c0-1.877,1.518-3.396,3.396-3.396    h107.592c1.852,0,3.397,1.519,3.397,3.396c0,1.851-1.546,3.396-3.397,3.396H115.676z M272.689,370.688    c1.877,0,3.396,1.519,3.396,3.396c0,1.851-1.519,3.396-3.396,3.396h-30.591c-1.877,0-3.395-1.546-3.395-3.396    c0-1.877,1.518-3.396,3.395-3.396H272.689z M234.699,385.238c1.877,0,3.397,1.519,3.397,3.396c0,1.877-1.52,3.395-3.397,3.395    h-69.355c-1.85,0-3.396-1.518-3.396-3.395c0-1.878,1.546-3.396,3.396-3.396H234.699z M77.686,392.029    c-1.878,0-3.396-1.518-3.396-3.395c0-1.878,1.518-3.396,3.396-3.396h30.59c1.877,0,3.397,1.519,3.397,3.396    c0,1.877-1.52,3.395-3.397,3.395H77.686z M135.25,392.029c-1.85,0-3.396-1.518-3.396-3.395c0-1.878,1.546-3.396,3.396-3.396    h13.971c1.877,0,3.396,1.519,3.396,3.396c0,1.877-1.518,3.395-3.396,3.395H135.25z M147.372,266.16    c1.572,1.574,3.588,2.761,5.826,3.341v89.729c0,1.878,1.518,3.396,3.396,3.396h146.522v57.316c0,1.877,0.745,3.617,1.932,4.887    l0.167,0.139c1.297,1.297,3.063,2.099,5.024,2.099h168.638c1.96,0,3.754-0.802,5.024-2.099c1.298-1.271,2.099-3.065,2.099-5.025    V298.518c0-1.959-0.801-3.727-2.099-5.024c-1.271-1.298-3.064-2.099-5.024-2.099H310.238c-1.961,0-3.728,0.801-5.024,2.099    c-1.299,1.298-2.099,3.065-2.099,5.024v57.317H159.961v-86.334c2.237-0.607,4.225-1.767,5.797-3.341    c2.376-2.375,3.812-5.633,3.812-9.221c0-3.59-1.436-6.848-3.783-9.195c-2.346-2.346-5.605-3.81-9.193-3.81    c-3.616,0-6.847,1.464-9.221,3.81c-2.348,2.375-3.783,5.605-3.783,9.195C143.589,260.527,145.024,263.813,147.372,266.16z" style="fill-rule:evenodd;clip-rule:evenodd;"/></g></g><g id="Layer_1"/></svg>