<?xml version="1.0" encoding="UTF-8"?>
<svg width="694.19" height="184.16" version="1.1" viewBox="0 0 694.19 184.16" xmlns="http://www.w3.org/2000/svg">
<defs>
<clipPath id="clip-path">
<path d="m138.05 37.577-58.78-33.92a12.3 12.3 0 0 0-12.33 0l-58.79 33.92a12.37 12.37 0 0 0-6.15 10.69v67.89a12.33 12.33 0 0 0 6.15 10.66l29.41 17v34.66a3.7 3.7 0 0 0 5.55 3.19l95-54.82a12.3 12.3 0 0 0 6.15-10.66v-67.93a12.4 12.4 0 0 0-6.21-10.68z" fill="none"/>
</clipPath>
</defs>
<g clip-path="url(#clip-path)">
<path d="m144.2 41.157-71.08 41.05-71.12-41.05v82.1l35.56 20.51v41.06l106.64-61.57z" fill="#ef6c00"/>
<g fill="#ff9800">
<path d="m73.12 82.207-71.12-41.05 71.12-41.05 71.08 41.05z"/>
<path d="m71.86 80.957-69.41-40.07-0.45 0.27 71.12 41.05 71.08-41.05-1.67-0.99z"/>
<path d="m73.12 82.717v-0.51l-70.67-40.81-0.45 0.27z"/>
</g>
</g>
<path d="m674.33 123.09h-10.6l-13.76-42.41-13.65 42.41h-10.49l-17.82-55.26h10.83l12.29 41.73h0.11l13.65-41.73h10.7l13.65 41.73h0.11l12.24-41.73h10.6zm-116.63-48.66q8-8.4 20.41-8.4t20.41 8.4 8 21q0 12.6-8 21t-20.41 8.4-20.41-8.4-8-21q0-12.6 8-21zm7.73 35.53a17.45 17.45 0 0 0 25.38 0q5.35-5.47 5.36-14.49 0.01-9.02-5.36-14.49a17.45 17.45 0 0 0-25.38 0q-5.36 5.47-5.36 14.49 0 9.02 5.35 14.49zm-23.65 13.13h-10.37v-80.73h10.38zm-26.5-81.43a21 21 0 0 1 8.31 1.46l-3.61 8.91a10.65 10.65 0 0 0-4.74-0.9 9.36 9.36 0 0 0-6.65 2.43q-2.6 2.43-2.59 7v7h14.44v9.47h-14.41v45.83h-10.38v-45.79h-10.37v-9.47h10.38v-7.33q0-8.46 5.41-13.53t14.21-5.08zm-66.33 107.37q-9.81 0-16-4.91a28.81 28.81 0 0 1-8.91-11.22l9.47-3.95a15.54 15.54 0 0 0 5.81 7.56 16.08 16.08 0 0 0 9.64 3q8.57 0 13.48-5.13t4.91-13.93v-5.3h-0.45a21.14 21.14 0 0 1-7.67 6.77 22.94 22.94 0 0 1-11.17 2.71q-10.72 0-18.5-8.46t-7.78-21q0-12.52 7.78-21t18.5-8.46a23 23 0 0 1 11.17 2.71 21.14 21.14 0 0 1 7.67 6.77h0.45v-7.67h9.92v52.44q0 14.21-8.23 21.6a29 29 0 0 1-20.09 7.47zm0.79-33.83a16.54 16.54 0 0 0 12.46-5.41q5.13-5.41 5.13-14.55 0-9.14-5.13-14.55a16.93 16.93 0 0 0-24.87 0.06q-5.19 5.47-5.19 14.49 0 9.02 5.19 14.49a16.5 16.5 0 0 0 12.41 5.46zm-84.15-41.01q8-8.4 20.41-8.4t20.41 8.4 8 21q0 12.6-8 21t-20.41 8.4-20.41-8.33q-8-8.4-8-21 0-12.6 8-21.07zm7.73 35.53a17.45 17.45 0 0 0 25.38 0q5.35-5.47 5.36-14.49 0.01-9.02-5.36-14.49a17.45 17.45 0 0 0-25.38 0q-5.36 5.47-5.36 14.49 0 9.02 5.38 14.49zm-24.62 13.14h-10.37v-80.75h10.38zm-47.64 1.8a21.82 21.82 0 0 1-14.72-5.08 16.8 16.8 0 0 1-5.92-13.42 16.59 16.59 0 0 1 7-14.15q7-5.13 17.25-5.13 9.14 0 15 3.38v-1.58a12.35 12.35 0 0 0-4.17-9.76 15 15 0 0 0-10.26-3.67 15.9 15.9 0 0 0-8.18 2.14 11 11 0 0 0-5 5.86l-9.47-4.04q1.92-5 7.56-9.19t14.89-4.23q10.6 0 17.59 6.2t7 17.48v33.39h-9.92v-7.67h-0.45q-6.24 9.47-18.2 9.47zm1.69-9.47a16.9 16.9 0 0 0 11.68-4.83 14.88 14.88 0 0 0 5.24-11.33q-4.4-3.61-13.2-3.61-7.56 0-11.39 3.27a9.82 9.82 0 0 0-3.83 7.67 7.38 7.38 0 0 0 3.5 6.43 13.94 13.94 0 0 0 8.01 2.4zm-32.16-61.46a7.35 7.35 0 1 1 2.14-5.19 7.07 7.07 0 0 1-2.14 5.19zm0 69.13h-10.35v-55.26h10.35zm-84.38 0v-80.75h24.7q18.61 0 29.77 11.22t11.17 29.15q0 17.93-11.17 29.15t-29.77 11.23zm10.38-9.92h14.32q14 0 22.16-8 8.16-8 8.18-22.44 0-14.32-8.18-22.39t-22.16-8.06h-14.32z" fill="#757575"/>
</svg>
