<?xml version="1.0" encoding="UTF-8"?>
<svg width="1350px" height="407px" viewBox="0 0 1350 407" version="1.1" xmlns="http://www.w3.org/2000/svg" xmlns:xlink="http://www.w3.org/1999/xlink">
    <!-- Generator: Sketch 50.2 (55047) - http://www.bohemiancoding.com/sketch -->
    <title>Group 17</title>
    <desc>Created with Sketch.</desc>
    <defs>
        <linearGradient x1="0%" y1="6.24500451e-15%" x2="98.3276346%" y2="100%" id="linearGradient-1">
            <stop stop-color="#4E28D0" offset="0%"></stop>
            <stop stop-color="#4472D5" offset="48.6437866%"></stop>
            <stop stop-color="#00C8FF" offset="100%"></stop>
        </linearGradient>
    </defs>
    <g id="Modular" stroke="none" stroke-width="1" fill="none" fill-rule="evenodd">
        <g id="Group-17">
            <rect id="Rectangle-19" fill="url(#linearGradient-1)" x="0" y="0" width="1350" height="407" rx="24"></rect>
            <g id="Modular-Logo" transform="translate(223.000000, 133.000000)" fill="#FFFFFF" fill-rule="nonzero">
                <g id="Logotype" transform="translate(249.000000, 21.000000)">
                    <path d="M0,95 L0,22.5568182 L20.9734848,22.5568182 L20.9734848,30.6534091 C24.8257576,24.2613636 33.8143939,20 41.9469697,20 C52.219697,20 59.9242424,24.2613636 63.3484848,31.5056818 C68.9128788,23.4090909 76.1893939,20 86.0340909,20 C99.7310606,20 113,28.0965909 113,47.6988636 L113,94.5738636 L91.5984848,94.5738636 L91.5984848,52.8125 C91.5984848,45.9943182 87.7462121,40.4545455 80.0416667,40.4545455 C72.3371212,40.4545455 68.0568182,46.4204545 68.0568182,52.8125 L68.0568182,94.5738636 L46.2272727,94.5738636 L46.2272727,52.8125 C46.2272727,45.9943182 42.375,40.4545455 34.6704545,40.4545455 C26.9659091,40.4545455 22.6856061,46.4204545 22.6856061,52.8125 L22.6856061,94.5738636 L0,94.5738636 L0,95 Z" id="Shape"></path>
                    <path d="M214,58 C214,80.3777778 197.316667,96 175.5,96 C154.111111,96 137,79.9555556 137,58 C137,35.6222222 154.111111,20 175.5,20 C197.316667,20 214,36.0444444 214,58 M191.755556,58 C191.755556,45.7555556 184.055556,40.2666667 175.5,40.2666667 C167.372222,40.2666667 159.244444,45.7555556 159.244444,58 C159.244444,69.8222222 167.372222,75.7333333 175.5,75.7333333 C184.055556,76.1555556 191.755556,70.2444444 191.755556,58" id="Shape"></path>
                    <path d="M390.714286,87.1387283 C386.857143,93.4682081 378.714286,96 371.428571,96 C353.857143,96 344,83.3410405 344,68.150289 L344,23 L366.285714,23 L366.285714,63.5086705 C366.285714,70.2601156 370.142857,75.7456647 377.857143,75.7456647 C385.142857,75.7456647 389.857143,70.6820809 389.857143,63.5086705 L389.857143,23 L412.142857,23 L412.142857,81.6531792 C412.142857,87.982659 412.571429,93.4682081 413,94.3121387 L391.571429,94.3121387 C391.142857,93.0462428 390.714286,89.2485549 390.714286,87.1387283" id="Shape"></path>
                    <path d="M545.303867,84.5363128 C541.900552,91.3296089 534.668508,96 525.734807,96 C504.464088,96 490,79.8659218 490,57.7877095 C490,36.5586592 503.61326,20 525.309392,20 C538.071823,20 544.027624,27.2178771 545.303867,30.6145251 L545.303867,22.122905 L566.574586,22.122905 L566.574586,81.1396648 C566.574586,87.9329609 567,92.603352 567,93.877095 L545.729282,93.877095 C545.303867,92.1787709 545.303867,88.3575419 545.303867,85.3854749 L545.303867,84.5363128 Z M528.712707,76.8938547 C537.646409,76.8938547 545.303867,70.1005587 545.303867,57.7877095 C545.303867,45.4748603 538.071823,38.6815642 528.712707,38.6815642 C519.353591,38.6815642 512.121547,45.0502793 512.121547,57.7877095 C512.121547,69.6759777 519.779006,76.8938547 528.712707,76.8938547 Z" id="Shape"></path>
                    <path d="M641.463768,21 C649.586957,21 656,27.3662791 656,35.4302326 C656,43.494186 649.586957,49.4360465 641.463768,49.4360465 C633.34058,49.4360465 627.355072,43.0697674 627.355072,35.4302326 C627.355072,26.9418605 633.34058,21 641.463768,21 Z M619.231884,94 L597,94 L597,21.8488372 L619.231884,21.8488372 L619.231884,94 Z" id="Shape"></path>
                    <rect id="Rectangle-path" x="442" y="0" width="22" height="94"></rect>
                    <path d="M314.572222,0 L292.755556,0 L292.755556,27.7333333 C291.044444,25.1733333 285.483333,20.48 273.077778,20.48 C252.544444,20.48 238,36.6933333 238,58.0266667 C238,80.2133333 253.4,96 273.933333,96 C282.488889,96 290.188889,92.16 293.183333,87.4666667 C293.183333,90.4533333 293.611111,93.44 293.611111,94.2933333 L315,94.2933333 C315,92.5866667 314.572222,87.8933333 314.572222,81.4933333 L314.572222,0 Z M276.5,76.3733333 C267.944444,76.3733333 260.244444,70.4 260.244444,58.4533333 C260.244444,46.5066667 267.944444,40.5333333 276.5,40.5333333 C285.055556,40.5333333 292.755556,46.5066667 292.755556,58.4533333 C292.755556,69.9733333 285.055556,76.3733333 276.5,76.3733333 Z" id="Shape"></path>
                </g>
                <g id="Logomark">
                    <polygon id="Shape" points="162.99823 11.7173386 142.701142 0.0710935441 122.404055 11.7173386 122.249115 129.422055 142.701142 141.223584 162.99823 129.577339"></polygon>
                    <polygon id="Shape" points="41.0607643 70.569697 20.608737 58.9234519 0.311649344 70.569697 0.311649344 129.422055 20.7636766 141.223584 41.0607643 129.422055"></polygon>
                    <polyline id="Shape" points="81.6549396 82.3712253 112.023101 64.8242161 112.023101 41.2211594 91.7260136 29.5749144 81.6549396 35.6309618 40.9058247 11.8726219 40.9058247 11.8726219 20.608737 0.0710935441 0.311649344 11.8726219 0.311649344 35.3203953 81.6549396 82.3712253"></polyline>
                </g>
            </g>
        </g>
    </g>
</svg>