<?xml version="1.0" ?><!DOCTYPE svg  PUBLIC '-//W3C//DTD SVG 1.1//EN'  'http://www.w3.org/Graphics/SVG/1.1/DTD/svg11.dtd'><svg height="512px" style="enable-background:new 0 0 512 512;" version="1.1" viewBox="0 0 512 512" width="512px" xml:space="preserve" xmlns="http://www.w3.org/2000/svg" xmlns:xlink="http://www.w3.org/1999/xlink"><g id="_x35_93_x2C__autonomous_x2C__machine_x2C__robot_x2C__robotic_x2C__technology"><g><path d="M316.661,428.486h-0.075h-34.79h-0.075h-1.966v24.99h60.385v-24.99H316.661    z M172.465,248.72c0.025,0.328,0.151,0.63,0.378,0.856c0.227,0.227,0.579,0.378,0.932,0.378h161.402    c0.353,0,0.681-0.151,0.907-0.378s0.378-0.528,0.402-0.856v-0.075v-55.951v-47.435h-52.751h-0.075h-58.369h-0.076h-52.751v45.042    v58.344V248.72z M336.486,256.051c-0.428,0.076-0.882,0.102-1.31,0.102H173.774c-0.454,0-0.881-0.025-1.31-0.102v66.279    c0,1.008,0.402,1.914,1.083,2.594c0.654,0.655,1.562,1.084,2.594,1.084h17.482h0.051h0.05h32.019h0.075h0.05h57.184h0.076h0.051    h32.018h0.051h0.076h17.482c1.008,0,1.939-0.429,2.596-1.084c0.654-0.654,1.082-1.586,1.082-2.594V256.051z M228.39,139.086    h52.171v-21.438H228.39V139.086z M310.74,96.538H198.21v3.552c0,3.124,1.284,5.971,3.325,8.012c2.066,2.064,4.913,3.35,8.011,3.35    h15.669h0.076h58.369h0.075h15.645c3.123,0,5.97-1.285,8.011-3.35c2.065-2.041,3.35-4.888,3.35-8.012V96.538z M198.21,90.365    h112.53c0-17.684,0-35.368,0-53.027c0-3.123-1.284-5.945-3.35-8.012c-2.041-2.064-4.888-3.324-8.011-3.324h-89.833    c-3.099,0-5.945,1.26-8.011,3.324l-0.151,0.152c-1.965,2.016-3.174,4.812-3.174,7.859V90.365z M342.684,171.658h45.822    c0.53,0,1.059,0.051,1.564,0.152v-25.242c0-0.353-0.152-0.68-0.379-0.907c-0.227-0.251-0.58-0.402-0.932-0.402h-46.076V171.658z     M118.882,170.929h45.798c0.555,0,1.083,0.05,1.587,0.177v-25.847h-47.385V170.929z M222.697,273.71    c1.158,0,2.393-0.755,2.771-1.738c1.033-2.065-0.529-4.459-2.771-4.459h-6.198c-1.158,0-2.393,0.756-2.771,1.738    c-1.033,2.065,0.529,4.459,2.771,4.459H222.697z M247.46,273.71c1.159,0,2.394-0.755,2.771-1.738    c1.033-2.065-0.529-4.459-2.771-4.459h-6.197c-1.159,0-2.394,0.756-2.771,1.738c-1.033,2.065,0.529,4.459,2.771,4.459H247.46z     M272.223,273.71c1.159,0,2.394-0.755,2.771-1.738c1.034-2.065-0.527-4.459-2.771-4.459h-6.196c-1.159,0-2.394,0.756-2.772,1.738    c-1.032,2.065,0.529,4.459,2.772,4.459H272.223z M296.986,273.71c1.158,0,2.394-0.755,2.771-1.738    c1.032-2.065-0.529-4.459-2.771-4.459h-6.197c-1.159,0-2.394,0.756-2.771,1.738c-1.033,2.065,0.528,4.459,2.771,4.459H296.986z     M317.19,273.71c1.184,0,2.393-0.755,2.796-1.738c1.033-2.065-0.555-4.459-2.796-4.459h-1.638c-1.184,0-2.393,0.756-2.797,1.738    c-1.032,2.065,0.555,4.459,2.797,4.459H317.19z M191.736,267.513c-1.159,0-2.368,0.756-2.771,1.738    c-1.033,2.065,0.529,4.459,2.771,4.459h6.197c1.185,0,2.394-0.755,2.796-1.738c1.033-2.065-0.554-4.459-2.796-4.459H191.736z     M222.697,292.427c1.158,0,2.393-0.755,2.771-1.737c1.033-2.066-0.529-4.434-2.771-4.434h-6.198c-1.158,0-2.393,0.755-2.771,1.738    c-1.033,2.064,0.529,4.433,2.771,4.433H222.697z M247.46,292.427c1.159,0,2.394-0.755,2.771-1.737    c1.033-2.066-0.529-4.434-2.771-4.434h-6.197c-1.159,0-2.394,0.755-2.771,1.738c-1.033,2.064,0.529,4.433,2.771,4.433H247.46z     M272.223,292.427c1.159,0,2.394-0.755,2.771-1.737c1.034-2.066-0.527-4.434-2.771-4.434h-6.196c-1.159,0-2.394,0.755-2.772,1.738    c-1.032,2.064,0.529,4.433,2.772,4.433H272.223z M296.986,292.427c1.158,0,2.394-0.755,2.771-1.737    c1.032-2.066-0.529-4.434-2.771-4.434h-6.197c-1.159,0-2.394,0.755-2.771,1.738c-1.033,2.064,0.528,4.433,2.771,4.433H296.986z     M317.19,292.427c1.184,0,2.393-0.755,2.796-1.737c1.033-2.066-0.555-4.434-2.796-4.434h-1.638c-1.184,0-2.393,0.755-2.797,1.738    c-1.032,2.064,0.555,4.433,2.797,4.433H317.19z M191.736,286.256c-1.159,0-2.368,0.755-2.771,1.738    c-1.033,2.064,0.529,4.433,2.771,4.433h6.197c1.185,0,2.394-0.755,2.796-1.737c1.033-2.066-0.554-4.434-2.796-4.434H191.736z     M222.697,311.17c1.158,0,2.393-0.756,2.771-1.738c1.033-2.066-0.529-4.459-2.771-4.459h-6.198c-1.158,0-2.393,0.756-2.771,1.738    c-1.033,2.066,0.529,4.459,2.771,4.459H222.697z M247.46,311.17c1.159,0,2.394-0.756,2.771-1.738    c1.033-2.066-0.529-4.459-2.771-4.459h-6.197c-1.159,0-2.394,0.756-2.771,1.738c-1.033,2.066,0.529,4.459,2.771,4.459H247.46z     M272.223,311.17c1.159,0,2.394-0.756,2.771-1.738c1.034-2.066-0.527-4.459-2.771-4.459h-6.196c-1.159,0-2.394,0.756-2.772,1.738    c-1.032,2.066,0.529,4.459,2.772,4.459H272.223z M296.986,311.17c1.158,0,2.394-0.756,2.771-1.738    c1.032-2.066-0.529-4.459-2.771-4.459h-6.197c-1.159,0-2.394,0.756-2.771,1.738c-1.033,2.066,0.528,4.459,2.771,4.459H296.986z     M317.19,311.17c1.184,0,2.393-0.756,2.796-1.738c1.033-2.066-0.555-4.459-2.796-4.459h-1.638c-1.184,0-2.393,0.756-2.797,1.738    c-1.032,2.066,0.555,4.459,2.797,4.459H317.19z M191.736,304.973c-1.159,0-2.368,0.756-2.771,1.738    c-1.033,2.066,0.529,4.459,2.771,4.459h6.197c1.185,0,2.394-0.756,2.796-1.738c1.033-2.066-0.554-4.459-2.796-4.459H191.736z     M316.938,64.368c0,10.38,0,20.733,0,31.112h12.368V64.368H316.938z M179.619,95.48h12.395V64.368h-12.395V95.48z     M346.337,428.486v24.99h7.582v-24.99H346.337z M171.684,428.486v24.99h60.385v-24.99h-4.862h-0.076h-34.764h-0.101H171.684z     M165.487,453.477v-24.99h-7.558v24.99H165.487z M309.305,229.196c-0.68-0.681-1.611-1.083-2.645-1.083s-1.966,0.402-2.62,1.083    c-0.68,0.655-1.109,1.612-1.109,2.646c0,1.008,0.43,1.939,1.109,2.619c0.654,0.68,1.587,1.084,2.62,1.084s1.965-0.404,2.645-1.084    c0.655-0.68,1.084-1.611,1.084-2.619C310.389,230.809,309.96,229.852,309.305,229.196z M306.66,221.916    c2.721,0,5.215,1.109,7.003,2.896c1.813,1.814,2.923,4.309,2.923,7.029s-1.109,5.215-2.923,7.003    c-1.788,1.789-4.257,2.897-7.003,2.897c-2.721,0-5.216-1.108-7.004-2.897c-1.788-1.788-2.922-4.282-2.922-7.003    s1.134-5.215,2.922-7.004C301.47,223.025,303.939,221.916,306.66,221.916z M274.516,229.196c-0.68-0.681-1.612-1.083-2.646-1.083    c-1.032,0-1.965,0.402-2.646,1.059c-0.654,0.705-1.082,1.637-1.082,2.67c0,1.032,0.428,1.939,1.082,2.619    c0.681,0.68,1.613,1.084,2.646,1.084c1.033,0,1.966-0.404,2.62-1.059c0.68-0.705,1.108-1.612,1.108-2.645    C275.599,230.809,275.17,229.877,274.516,229.196z M271.87,221.916c2.721,0,5.215,1.109,7.003,2.896    c1.789,1.814,2.923,4.309,2.923,7.029s-1.134,5.189-2.923,6.978c-1.788,1.814-4.282,2.923-7.003,2.923s-5.214-1.108-7.003-2.897    c-1.813-1.813-2.923-4.282-2.923-7.003c0-2.746,1.109-5.215,2.923-7.004C266.656,223.025,269.149,221.916,271.87,221.916z     M239.701,229.196c-0.655-0.681-1.586-1.083-2.62-1.083c-1.033,0-1.99,0.402-2.644,1.083c-0.681,0.655-1.084,1.612-1.084,2.646    c0,1.008,0.428,1.939,1.084,2.619c0.68,0.68,1.611,1.084,2.644,1.084c1.008,0,1.965-0.404,2.62-1.084    c0.681-0.68,1.109-1.611,1.109-2.619C240.81,230.809,240.381,229.852,239.701,229.196z M237.081,221.916    c2.721,0,5.19,1.109,7.003,2.896c1.789,1.814,2.922,4.309,2.922,7.029s-1.133,5.215-2.922,7.003    c-1.788,1.789-4.283,2.897-7.003,2.897c-2.745,0-5.24-1.108-7.028-2.897c-1.789-1.788-2.897-4.282-2.897-7.003    s1.108-5.215,2.897-7.004C231.867,223.025,234.36,221.916,237.081,221.916z M204.937,229.196c-0.706-0.681-1.637-1.083-2.67-1.083    c-1.008,0-1.94,0.402-2.62,1.059c-0.68,0.705-1.083,1.637-1.083,2.67c0,1.032,0.404,1.939,1.058,2.619    c0.706,0.68,1.637,1.084,2.646,1.084c1.033,0,1.964-0.404,2.645-1.059c0.68-0.705,1.083-1.612,1.083-2.645    C205.995,230.809,205.592,229.877,204.937,229.196z M202.267,221.916c2.745,0,5.214,1.109,7.003,2.896    c1.813,1.814,2.923,4.283,2.923,7.029c0,2.721-1.109,5.189-2.897,6.978c-1.814,1.814-4.283,2.923-7.028,2.923    c-2.721,0-5.19-1.108-6.979-2.897c-1.814-1.813-2.922-4.282-2.922-7.003s1.108-5.215,2.897-7.004    C197.077,223.025,199.546,221.916,202.267,221.916z M195.464,399.895h28.567V332.18h-28.567V399.895z M224.032,406.092h-28.567    v16.198h28.567V406.092z M284.894,399.895h28.593V332.18h-28.593V399.895z M313.486,406.092h-28.593v16.198h28.593V406.092z     M315.653,164.682h-122.38v45.797h122.38V164.682z M190.174,158.484h128.578c1.713,0,3.098,1.385,3.098,3.098v51.971    c0,1.713-1.385,3.099-3.098,3.099H190.174c-1.713,0-3.099-1.386-3.099-3.099v-51.971    C187.076,159.869,188.461,158.484,190.174,158.484z M258.418,174.959h-7.91v25.242h7.91V174.959z M164.73,177.125h1.537v1.512    v0.025v0.025v10.832h-47.385v-12.395h45.798H164.73z M388.533,177.856h1.537v1.486v0.024v0.051v8.791v0.076v1.234h-1.236h-0.074    h-46.076v-11.663h45.822H388.533z M115.506,473.756c-1.687,0-3.073-1.411-3.073-3.099c0-1.713,1.386-3.099,3.073-3.099h201.356    c1.714,0,3.099,1.386,3.099,3.099c0,1.688-1.385,3.099-3.099,3.099H115.506z M233.403,485.999c-1.687,0-3.098-1.386-3.098-3.099    s1.411-3.099,3.098-3.099h139.333c1.715,0,3.1,1.386,3.1,3.099s-1.385,3.099-3.1,3.099H233.403z M386.996,485.999    c-1.713,0-3.1-1.386-3.1-3.099s1.387-3.099,3.1-3.099h17.433c1.687,0,3.073,1.386,3.073,3.099s-1.387,3.099-3.073,3.099H386.996z     M107.597,485.621c-1.713,0-3.099-1.386-3.099-3.099s1.385-3.099,3.099-3.099h66.001c1.713,0,3.099,1.386,3.099,3.099    s-1.386,3.099-3.099,3.099H107.597z M369.059,295.551c4.409,0.68,8.339,2.746,11.337,5.744c3.704,3.703,5.997,8.817,5.997,14.459    c0,5.618-2.293,10.732-5.997,14.436l-0.202,0.201c-3.678,3.577-8.689,5.795-14.232,5.795c-5.617,0-10.732-2.293-14.435-5.996    c-3.703-3.703-5.996-8.817-5.996-14.436c0-1.712,1.386-3.098,3.099-3.098s3.099,1.386,3.099,3.098    c0,3.93,1.587,7.482,4.157,10.052c2.594,2.595,6.146,4.183,10.076,4.183c3.854,0,7.355-1.537,9.926-4.031l0.15-0.151    c2.569-2.569,4.156-6.122,4.156-10.052s-1.587-7.506-4.156-10.076c-2.569-2.545-6.096-4.131-10-4.156h-0.076    c-1.713,0-3.099-1.387-3.099-3.099v-0.075v-23.252h-20.179v-79.379h46.076c0.452,0,0.881-0.051,1.311-0.126v77.917    c0,0.43-0.178,0.832-0.455,1.109l-0.1,0.101c-0.277,0.227-0.63,0.378-1.01,0.378h-19.447V295.551z M142.486,301.521    c-3.904,0.025-7.431,1.611-9.976,4.156c-2.569,2.57-4.182,6.146-4.182,10.076s1.613,7.482,4.182,10.052l0.152,0.151    c2.543,2.494,6.045,4.031,9.899,4.031c3.931,0,7.508-1.588,10.077-4.157c2.57-2.595,4.157-6.147,4.157-10.077    c0-1.712,1.385-3.098,3.099-3.098c1.713,0,3.098,1.386,3.098,3.098c0,5.618-2.292,10.732-5.971,14.436    c-3.728,3.703-8.817,5.996-14.46,5.996c-5.517,0-10.555-2.218-14.233-5.795l-0.202-0.201c-3.703-3.703-5.995-8.817-5.995-14.436    c0-5.642,2.292-10.756,5.995-14.459c2.998-2.998,6.953-5.064,11.336-5.744v-20.455h-20.582v-79.379h47.385v77.791    c0,0.43-0.176,0.832-0.479,1.109c-0.277,0.277-0.68,0.479-1.108,0.479h-19.02v23.252v0.075c0,1.712-1.386,3.099-3.099,3.099    H142.486z M247.409,168.762h14.107c1.713,0,3.099,1.387,3.099,3.099V203.3c0,1.688-1.386,3.099-3.099,3.099h-14.107    c-1.687,0-3.098-1.41-3.098-3.099V171.86C244.311,170.148,245.722,168.762,247.409,168.762z" style="fill-rule:evenodd;clip-rule:evenodd;"/></g></g><g id="Layer_1"/></svg>