<?xml version="1.0" ?><!DOCTYPE svg  PUBLIC '-//W3C//DTD SVG 1.1//EN'  'http://www.w3.org/Graphics/SVG/1.1/DTD/svg11.dtd'><svg height="512px" style="enable-background:new 0 0 512 512;" version="1.1" viewBox="0 0 512 512" width="512px" xml:space="preserve" xmlns="http://www.w3.org/2000/svg" xmlns:xlink="http://www.w3.org/1999/xlink"><g id="_x31_97_x2C__SDK_x2C__App_x2C__development_x2C__kit_x2C__programming"><g><path d="M275.774,296.9h-42.128v158.615h42.128V296.9z M230.081,289.771h49.259    c1.969,0,3.565,1.594,3.565,3.564v162.18h41.405V249.292c0-1.159,0.579-2.289,1.621-2.984    c18.257-11.88,33.383-28.194,43.845-47.435c10.055-18.486,15.761-39.726,15.761-62.327c0-23.935-6.433-46.391-17.646-65.66    c-10.577-18.197-25.44-33.612-43.174-44.884v116.514c0,1.97-1.593,3.563-3.565,3.563H188.269c-1.973,0-3.566-1.594-3.566-3.563    V26.03c-17.733,11.243-32.596,26.658-43.174,44.855c-11.213,19.298-17.646,41.726-17.646,65.66    c0,22.602,5.706,43.841,15.761,62.327c10.402,19.154,25.444,35.409,43.609,47.29c1.102,0.608,1.856,1.767,1.856,3.129v206.224    h41.405v-162.18C226.515,291.365,228.112,289.771,230.081,289.771z M272.124,193.773c-4.433-4.434-10.605-7.186-17.414-7.186    c-6.809,0-12.982,2.752-17.415,7.186c-4.464,4.463-7.215,10.635-7.215,17.443c0,6.723,2.695,12.809,7.04,17.242l0.175,0.173    c4.461,4.434,10.606,7.216,17.415,7.216c6.78,0,12.954-2.782,17.414-7.216c4.464-4.462,7.216-10.634,7.216-17.415    C279.34,204.408,276.588,198.236,272.124,193.773z M254.71,179.459c8.749,0,16.691,3.564,22.457,9.303    c5.738,5.736,9.301,13.676,9.301,22.455c0,8.752-3.563,16.691-9.301,22.457c-5.737,5.738-13.676,9.302-22.457,9.302    s-16.719-3.563-22.458-9.302l-0.204-0.231c-5.619-5.737-9.097-13.59-9.097-22.226c0-8.75,3.563-16.689,9.3-22.455    C238.019,182.994,245.961,179.459,254.71,179.459z M295.739,51.096v51.982l-37.464,10.692V61.787l0,0L295.739,51.096z     M251.145,61.787v51.983l-37.492-10.692V51.096L251.145,61.787z M136.98,475.51c-1.972,0-3.565-1.595-3.565-3.564    c0-1.971,1.593-3.564,3.565-3.564h172.523c1.969,0,3.566,1.594,3.566,3.564c0,1.97-1.598,3.564-3.566,3.564H136.98z     M237.991,485.999c-1.941,0-3.566-1.594-3.566-3.564c0-1.94,1.625-3.535,3.566-3.535h119.411c1.94,0,3.564,1.595,3.564,3.535    c0,1.971-1.624,3.564-3.564,3.564H237.991z M369.601,485.999c-1.94,0-3.565-1.594-3.565-3.564c0-1.94,1.625-3.535,3.565-3.535    h14.95c1.945,0,3.566,1.595,3.566,3.535c0,1.971-1.621,3.564-3.566,3.564H369.601z M130.172,485.68    c-1.973,0-3.566-1.594-3.566-3.534c0-1.971,1.593-3.564,3.566-3.564h56.559c1.972,0,3.565,1.594,3.565,3.564    c0,1.94-1.593,3.534-3.565,3.534H130.172z M286.352,46.371l-31.641,9.041l0,0l-31.642-9.041l31.642-9.039L286.352,46.371z" style="fill-rule:evenodd;clip-rule:evenodd;"/></g></g><g id="Layer_1"/></svg>