<svg width="190" height="178" viewBox="0 0 190 178" fill="none" xmlns="http://www.w3.org/2000/svg">
<g clip-path="url(#clip0_906_12739)">
<rect width="190" height="78" rx="12" fill="white"/>
<rect width="190" height="38" fill="#DBDBDB"/>
<path d="M15.039 19.056H16.191L15.987 20.544H14.823L15.039 19.056ZM13.515 21.624L13.179 24H14.343L14.679 21.624H15.831L15.507 24H16.671L16.995 21.624H18.039V20.544H17.151L17.355 19.056H18.399V17.976H17.511L17.835 15.6H16.671L16.347 17.976H15.183L15.519 15.6H14.355L14.019 17.976H12.879V19.056H13.875L13.659 20.544H12.519V21.624H13.515ZM22.331 22.536C22.067 22.536 21.847 22.48 21.671 22.368C21.495 22.256 21.351 22.112 21.239 21.936C21.135 21.76 21.059 21.564 21.011 21.348C20.971 21.124 20.951 20.9 20.951 20.676C20.951 20.444 20.975 20.224 21.023 20.016C21.079 19.8 21.163 19.612 21.275 19.452C21.395 19.284 21.539 19.152 21.707 19.056C21.883 18.96 22.091 18.912 22.331 18.912C22.611 18.912 22.843 18.964 23.027 19.068C23.211 19.172 23.359 19.312 23.471 19.488C23.583 19.664 23.663 19.868 23.711 20.1C23.759 20.324 23.783 20.564 23.783 20.82C23.783 21.044 23.751 21.26 23.687 21.468C23.631 21.668 23.543 21.848 23.423 22.008C23.303 22.168 23.151 22.296 22.967 22.392C22.783 22.488 22.571 22.536 22.331 22.536ZM25.403 23.604V17.796H23.783V18.624H23.759C23.551 18.264 23.291 18.008 22.979 17.856C22.675 17.704 22.319 17.628 21.911 17.628C21.479 17.628 21.095 17.712 20.759 17.88C20.431 18.048 20.155 18.276 19.931 18.564C19.707 18.844 19.535 19.172 19.415 19.548C19.303 19.916 19.247 20.3 19.247 20.7C19.247 21.124 19.295 21.528 19.391 21.912C19.495 22.288 19.655 22.62 19.871 22.908C20.087 23.188 20.363 23.412 20.699 23.58C21.035 23.74 21.435 23.82 21.899 23.82C22.275 23.82 22.631 23.744 22.967 23.592C23.311 23.432 23.575 23.188 23.759 22.86H23.783V23.676C23.791 24.116 23.683 24.48 23.459 24.768C23.243 25.056 22.895 25.2 22.415 25.2C22.111 25.2 21.843 25.136 21.611 25.008C21.379 24.888 21.223 24.668 21.143 24.348H19.451C19.475 24.7 19.571 25 19.739 25.248C19.915 25.504 20.131 25.712 20.387 25.872C20.651 26.032 20.939 26.148 21.251 26.22C21.571 26.3 21.883 26.34 22.187 26.34C22.899 26.34 23.467 26.244 23.891 26.052C24.315 25.86 24.639 25.624 24.863 25.344C25.087 25.072 25.231 24.776 25.295 24.456C25.367 24.136 25.403 23.852 25.403 23.604ZM28.287 20.904C28.287 20.656 28.311 20.412 28.359 20.172C28.407 19.932 28.487 19.72 28.599 19.536C28.719 19.352 28.875 19.204 29.067 19.092C29.259 18.972 29.499 18.912 29.787 18.912C30.075 18.912 30.315 18.972 30.507 19.092C30.707 19.204 30.863 19.352 30.975 19.536C31.095 19.72 31.179 19.932 31.227 20.172C31.275 20.412 31.299 20.656 31.299 20.904C31.299 21.152 31.275 21.396 31.227 21.636C31.179 21.868 31.095 22.08 30.975 22.272C30.863 22.456 30.707 22.604 30.507 22.716C30.315 22.828 30.075 22.884 29.787 22.884C29.499 22.884 29.259 22.828 29.067 22.716C28.875 22.604 28.719 22.456 28.599 22.272C28.487 22.08 28.407 21.868 28.359 21.636C28.311 21.396 28.287 21.152 28.287 20.904ZM26.583 20.904C26.583 21.4 26.659 21.848 26.811 22.248C26.963 22.648 27.179 22.992 27.459 23.28C27.739 23.56 28.075 23.776 28.467 23.928C28.859 24.08 29.299 24.156 29.787 24.156C30.275 24.156 30.715 24.08 31.107 23.928C31.507 23.776 31.847 23.56 32.127 23.28C32.407 22.992 32.623 22.648 32.775 22.248C32.927 21.848 33.003 21.4 33.003 20.904C33.003 20.408 32.927 19.96 32.775 19.56C32.623 19.152 32.407 18.808 32.127 18.528C31.847 18.24 31.507 18.02 31.107 17.868C30.715 17.708 30.275 17.628 29.787 17.628C29.299 17.628 28.859 17.708 28.467 17.868C28.075 18.02 27.739 18.24 27.459 18.528C27.179 18.808 26.963 19.152 26.811 19.56C26.659 19.96 26.583 20.408 26.583 20.904ZM35.6229 20.904C35.6229 20.656 35.6469 20.412 35.6949 20.172C35.7429 19.932 35.8229 19.72 35.9349 19.536C36.0549 19.352 36.2109 19.204 36.4029 19.092C36.5949 18.972 36.8349 18.912 37.1229 18.912C37.4109 18.912 37.6509 18.972 37.8429 19.092C38.0429 19.204 38.1989 19.352 38.3109 19.536C38.4309 19.72 38.5149 19.932 38.5629 20.172C38.6109 20.412 38.6349 20.656 38.6349 20.904C38.6349 21.152 38.6109 21.396 38.5629 21.636C38.5149 21.868 38.4309 22.08 38.3109 22.272C38.1989 22.456 38.0429 22.604 37.8429 22.716C37.6509 22.828 37.4109 22.884 37.1229 22.884C36.8349 22.884 36.5949 22.828 36.4029 22.716C36.2109 22.604 36.0549 22.456 35.9349 22.272C35.8229 22.08 35.7429 21.868 35.6949 21.636C35.6469 21.396 35.6229 21.152 35.6229 20.904ZM33.9189 20.904C33.9189 21.4 33.9949 21.848 34.1469 22.248C34.2989 22.648 34.5149 22.992 34.7949 23.28C35.0749 23.56 35.4109 23.776 35.8029 23.928C36.1949 24.08 36.6349 24.156 37.1229 24.156C37.6109 24.156 38.0509 24.08 38.4429 23.928C38.8429 23.776 39.1829 23.56 39.4629 23.28C39.7429 22.992 39.9589 22.648 40.1109 22.248C40.2629 21.848 40.3389 21.4 40.3389 20.904C40.3389 20.408 40.2629 19.96 40.1109 19.56C39.9589 19.152 39.7429 18.808 39.4629 18.528C39.1829 18.24 38.8429 18.02 38.4429 17.868C38.0509 17.708 37.6109 17.628 37.1229 17.628C36.6349 17.628 36.1949 17.708 35.8029 17.868C35.4109 18.02 35.0749 18.24 34.7949 18.528C34.5149 18.808 34.2989 19.152 34.1469 19.56C33.9949 19.96 33.9189 20.408 33.9189 20.904ZM45.8508 20.88C45.8508 21.136 45.8268 21.384 45.7788 21.624C45.7308 21.864 45.6508 22.08 45.5388 22.272C45.4268 22.456 45.2748 22.604 45.0828 22.716C44.8988 22.828 44.6668 22.884 44.3868 22.884C44.1228 22.884 43.8948 22.828 43.7028 22.716C43.5188 22.596 43.3628 22.444 43.2348 22.26C43.1148 22.068 43.0268 21.852 42.9708 21.612C42.9148 21.372 42.8868 21.132 42.8868 20.892C42.8868 20.636 42.9108 20.392 42.9588 20.16C43.0148 19.92 43.0988 19.708 43.2108 19.524C43.3308 19.34 43.4868 19.192 43.6788 19.08C43.8708 18.968 44.1068 18.912 44.3868 18.912C44.6668 18.912 44.8988 18.968 45.0828 19.08C45.2668 19.192 45.4148 19.34 45.5268 19.524C45.6468 19.7 45.7308 19.908 45.7788 20.148C45.8268 20.38 45.8508 20.624 45.8508 20.88ZM45.8748 23.208V24H47.4948V15.432H45.7908V18.552H45.7668C45.5748 18.248 45.3108 18.02 44.9748 17.868C44.6468 17.708 44.2988 17.628 43.9308 17.628C43.4748 17.628 43.0748 17.72 42.7308 17.904C42.3868 18.08 42.0988 18.316 41.8668 18.612C41.6428 18.908 41.4708 19.252 41.3508 19.644C41.2388 20.028 41.1828 20.428 41.1828 20.844C41.1828 21.276 41.2388 21.692 41.3508 22.092C41.4708 22.492 41.6428 22.848 41.8668 23.16C42.0988 23.464 42.3908 23.708 42.7428 23.892C43.0948 24.068 43.5028 24.156 43.9668 24.156C44.3748 24.156 44.7388 24.084 45.0588 23.94C45.3868 23.788 45.6508 23.544 45.8508 23.208H45.8748ZM49.1548 18.936V24H50.8588V18.936H52.0348V17.796H50.8588V17.424C50.8588 17.168 50.9068 16.988 51.0028 16.884C51.1068 16.772 51.2748 16.716 51.5068 16.716C51.7228 16.716 51.9308 16.728 52.1308 16.752V15.48C51.9868 15.472 51.8388 15.464 51.6868 15.456C51.5348 15.44 51.3828 15.432 51.2308 15.432C50.5348 15.432 50.0148 15.608 49.6708 15.96C49.3268 16.312 49.1548 16.764 49.1548 17.316V17.796H48.1348V18.936H49.1548ZM52.7789 17.796V24H54.4829V21.204C54.4829 20.924 54.5109 20.664 54.5669 20.424C54.6229 20.184 54.7149 19.976 54.8429 19.8C54.9789 19.616 55.1549 19.472 55.3709 19.368C55.5869 19.264 55.8509 19.212 56.1629 19.212C56.2669 19.212 56.3749 19.22 56.4869 19.236C56.5989 19.244 56.6949 19.256 56.7749 19.272V17.688C56.6389 17.648 56.5149 17.628 56.4029 17.628C56.1869 17.628 55.9789 17.66 55.7789 17.724C55.5789 17.788 55.3909 17.88 55.2149 18C55.0389 18.112 54.8829 18.252 54.7469 18.42C54.6109 18.58 54.5029 18.756 54.4229 18.948H54.3989V17.796H52.7789ZM59.1949 16.836V15.432H57.4909V16.836H59.1949ZM57.4909 17.796V24H59.1949V17.796H57.4909ZM64.7127 20.232H61.9407C61.9487 20.112 61.9727 19.976 62.0127 19.824C62.0607 19.672 62.1367 19.528 62.2407 19.392C62.3527 19.256 62.4967 19.144 62.6727 19.056C62.8567 18.96 63.0847 18.912 63.3567 18.912C63.7727 18.912 64.0807 19.024 64.2807 19.248C64.4887 19.472 64.6327 19.8 64.7127 20.232ZM61.9407 21.312H66.4167C66.4487 20.832 66.4087 20.372 66.2967 19.932C66.1847 19.492 66.0007 19.1 65.7447 18.756C65.4967 18.412 65.1767 18.14 64.7847 17.94C64.3927 17.732 63.9327 17.628 63.4047 17.628C62.9327 17.628 62.5007 17.712 62.1087 17.88C61.7247 18.048 61.3927 18.28 61.1127 18.576C60.8327 18.864 60.6167 19.208 60.4647 19.608C60.3127 20.008 60.2367 20.44 60.2367 20.904C60.2367 21.384 60.3087 21.824 60.4527 22.224C60.6047 22.624 60.8167 22.968 61.0887 23.256C61.3607 23.544 61.6927 23.768 62.0847 23.928C62.4767 24.08 62.9167 24.156 63.4047 24.156C64.1087 24.156 64.7087 23.996 65.2047 23.676C65.7007 23.356 66.0687 22.824 66.3087 22.08H64.8087C64.7527 22.272 64.6007 22.456 64.3527 22.632C64.1047 22.8 63.8087 22.884 63.4647 22.884C62.9847 22.884 62.6167 22.76 62.3607 22.512C62.1047 22.264 61.9647 21.864 61.9407 21.312ZM67.4273 17.796V24H69.1313V20.748C69.1313 20.116 69.2353 19.664 69.4433 19.392C69.6513 19.112 69.9873 18.972 70.4513 18.972C70.8593 18.972 71.1433 19.1 71.3033 19.356C71.4633 19.604 71.5433 19.984 71.5433 20.496V24H73.2473V20.184C73.2473 19.8 73.2113 19.452 73.1393 19.14C73.0753 18.82 72.9593 18.552 72.7913 18.336C72.6233 18.112 72.3913 17.94 72.0953 17.82C71.8073 17.692 71.4353 17.628 70.9793 17.628C70.6193 17.628 70.2673 17.712 69.9233 17.88C69.5793 18.04 69.2993 18.3 69.0833 18.66H69.0473V17.796H67.4273ZM78.9446 20.88C78.9446 21.136 78.9206 21.384 78.8726 21.624C78.8246 21.864 78.7446 22.08 78.6326 22.272C78.5206 22.456 78.3686 22.604 78.1766 22.716C77.9926 22.828 77.7606 22.884 77.4806 22.884C77.2166 22.884 76.9886 22.828 76.7966 22.716C76.6126 22.596 76.4566 22.444 76.3286 22.26C76.2086 22.068 76.1206 21.852 76.0646 21.612C76.0086 21.372 75.9806 21.132 75.9806 20.892C75.9806 20.636 76.0046 20.392 76.0526 20.16C76.1086 19.92 76.1926 19.708 76.3046 19.524C76.4246 19.34 76.5806 19.192 76.7726 19.08C76.9646 18.968 77.2006 18.912 77.4806 18.912C77.7606 18.912 77.9926 18.968 78.1766 19.08C78.3606 19.192 78.5086 19.34 78.6206 19.524C78.7406 19.7 78.8246 19.908 78.8726 20.148C78.9206 20.38 78.9446 20.624 78.9446 20.88ZM78.9686 23.208V24H80.5886V15.432H78.8846V18.552H78.8606C78.6686 18.248 78.4046 18.02 78.0686 17.868C77.7406 17.708 77.3926 17.628 77.0246 17.628C76.5686 17.628 76.1686 17.72 75.8246 17.904C75.4806 18.08 75.1926 18.316 74.9606 18.612C74.7366 18.908 74.5646 19.252 74.4446 19.644C74.3326 20.028 74.2766 20.428 74.2766 20.844C74.2766 21.276 74.3326 21.692 74.4446 22.092C74.5646 22.492 74.7366 22.848 74.9606 23.16C75.1926 23.464 75.4846 23.708 75.8366 23.892C76.1886 24.068 76.5966 24.156 77.0606 24.156C77.4686 24.156 77.8326 24.084 78.1526 23.94C78.4806 23.788 78.7446 23.544 78.9446 23.208H78.9686ZM83.1965 21.984H81.5765C81.5925 22.4 81.6845 22.748 81.8525 23.028C82.0285 23.3 82.2485 23.52 82.5125 23.688C82.7845 23.856 83.0925 23.976 83.4365 24.048C83.7805 24.12 84.1325 24.156 84.4925 24.156C84.8445 24.156 85.1885 24.12 85.5245 24.048C85.8685 23.984 86.1725 23.868 86.4365 23.7C86.7005 23.532 86.9125 23.312 87.0725 23.04C87.2405 22.76 87.3245 22.416 87.3245 22.008C87.3245 21.72 87.2685 21.48 87.1565 21.288C87.0445 21.088 86.8965 20.924 86.7125 20.796C86.5285 20.66 86.3165 20.552 86.0765 20.472C85.8445 20.392 85.6045 20.324 85.3565 20.268C85.1165 20.212 84.8805 20.16 84.6485 20.112C84.4165 20.064 84.2085 20.012 84.0245 19.956C83.8485 19.892 83.7045 19.812 83.5925 19.716C83.4805 19.62 83.4245 19.496 83.4245 19.344C83.4245 19.216 83.4565 19.116 83.5205 19.044C83.5845 18.964 83.6605 18.904 83.7485 18.864C83.8445 18.824 83.9485 18.8 84.0605 18.792C84.1725 18.776 84.2765 18.768 84.3725 18.768C84.6765 18.768 84.9405 18.828 85.1645 18.948C85.3885 19.06 85.5125 19.28 85.5365 19.608H87.1565C87.1245 19.224 87.0245 18.908 86.8565 18.66C86.6965 18.404 86.4925 18.2 86.2445 18.048C85.9965 17.896 85.7125 17.788 85.3925 17.724C85.0805 17.66 84.7565 17.628 84.4205 17.628C84.0845 17.628 83.7565 17.66 83.4365 17.724C83.1165 17.78 82.8285 17.884 82.5725 18.036C82.3165 18.18 82.1085 18.38 81.9485 18.636C81.7965 18.892 81.7205 19.22 81.7205 19.62C81.7205 19.892 81.7765 20.124 81.8885 20.316C82.0005 20.5 82.1485 20.656 82.3325 20.784C82.5165 20.904 82.7245 21.004 82.9565 21.084C83.1965 21.156 83.4405 21.22 83.6885 21.276C84.2965 21.404 84.7685 21.532 85.1045 21.66C85.4485 21.788 85.6205 21.98 85.6205 22.236C85.6205 22.388 85.5845 22.516 85.5125 22.62C85.4405 22.716 85.3485 22.796 85.2365 22.86C85.1325 22.916 85.0125 22.96 84.8765 22.992C84.7485 23.016 84.6245 23.028 84.5045 23.028C84.3365 23.028 84.1725 23.008 84.0125 22.968C83.8605 22.928 83.7245 22.868 83.6045 22.788C83.4845 22.7 83.3845 22.592 83.3045 22.464C83.2325 22.328 83.1965 22.168 83.1965 21.984ZM90.2898 19.752V17.904H88.4058V19.752H90.2898ZM88.4058 22.152V24H90.2898V22.152H88.4058ZM95.8377 20.232H93.0657C93.0737 20.112 93.0977 19.976 93.1377 19.824C93.1857 19.672 93.2617 19.528 93.3657 19.392C93.4777 19.256 93.6217 19.144 93.7977 19.056C93.9817 18.96 94.2097 18.912 94.4817 18.912C94.8977 18.912 95.2057 19.024 95.4057 19.248C95.6137 19.472 95.7577 19.8 95.8377 20.232ZM93.0657 21.312H97.5417C97.5737 20.832 97.5337 20.372 97.4217 19.932C97.3097 19.492 97.1257 19.1 96.8697 18.756C96.6217 18.412 96.3017 18.14 95.9097 17.94C95.5177 17.732 95.0577 17.628 94.5297 17.628C94.0577 17.628 93.6257 17.712 93.2337 17.88C92.8497 18.048 92.5177 18.28 92.2377 18.576C91.9577 18.864 91.7417 19.208 91.5897 19.608C91.4377 20.008 91.3617 20.44 91.3617 20.904C91.3617 21.384 91.4337 21.824 91.5777 22.224C91.7297 22.624 91.9417 22.968 92.2137 23.256C92.4857 23.544 92.8177 23.768 93.2097 23.928C93.6017 24.08 94.0417 24.156 94.5297 24.156C95.2337 24.156 95.8337 23.996 96.3297 23.676C96.8257 23.356 97.1937 22.824 97.4337 22.08H95.9337C95.8777 22.272 95.7257 22.456 95.4777 22.632C95.2297 22.8 94.9337 22.884 94.5897 22.884C94.1097 22.884 93.7417 22.76 93.4857 22.512C93.2297 22.264 93.0897 21.864 93.0657 21.312ZM100.136 20.736L97.9043 24H99.8123L101.108 22.044L102.404 24H104.348L102.056 20.7L104.096 17.796H102.212L101.132 19.416L100.04 17.796H98.0963L100.136 20.736ZM104.926 19.704C104.95 19.304 105.05 18.972 105.226 18.708C105.402 18.444 105.626 18.232 105.898 18.072C106.17 17.912 106.474 17.8 106.81 17.736C107.154 17.664 107.498 17.628 107.842 17.628C108.154 17.628 108.47 17.652 108.79 17.7C109.11 17.74 109.402 17.824 109.666 17.952C109.93 18.08 110.146 18.26 110.314 18.492C110.482 18.716 110.566 19.016 110.566 19.392V22.62C110.566 22.9 110.582 23.168 110.614 23.424C110.646 23.68 110.702 23.872 110.782 24H109.054C109.022 23.904 108.994 23.808 108.97 23.712C108.954 23.608 108.942 23.504 108.934 23.4C108.662 23.68 108.342 23.876 107.974 23.988C107.606 24.1 107.23 24.156 106.846 24.156C106.55 24.156 106.274 24.12 106.018 24.048C105.762 23.976 105.538 23.864 105.346 23.712C105.154 23.56 105.002 23.368 104.89 23.136C104.786 22.904 104.734 22.628 104.734 22.308C104.734 21.956 104.794 21.668 104.914 21.444C105.042 21.212 105.202 21.028 105.394 20.892C105.594 20.756 105.818 20.656 106.066 20.592C106.322 20.52 106.578 20.464 106.834 20.424C107.09 20.384 107.342 20.352 107.59 20.328C107.838 20.304 108.058 20.268 108.25 20.22C108.442 20.172 108.594 20.104 108.706 20.016C108.818 19.92 108.87 19.784 108.862 19.608C108.862 19.424 108.83 19.28 108.766 19.176C108.71 19.064 108.63 18.98 108.526 18.924C108.43 18.86 108.314 18.82 108.178 18.804C108.05 18.78 107.91 18.768 107.758 18.768C107.422 18.768 107.158 18.84 106.966 18.984C106.774 19.128 106.662 19.368 106.63 19.704H104.926ZM108.862 20.964C108.79 21.028 108.698 21.08 108.586 21.12C108.482 21.152 108.366 21.18 108.238 21.204C108.118 21.228 107.99 21.248 107.854 21.264C107.718 21.28 107.582 21.3 107.446 21.324C107.318 21.348 107.19 21.38 107.062 21.42C106.942 21.46 106.834 21.516 106.738 21.588C106.65 21.652 106.578 21.736 106.522 21.84C106.466 21.944 106.438 22.076 106.438 22.236C106.438 22.388 106.466 22.516 106.522 22.62C106.578 22.724 106.654 22.808 106.75 22.872C106.846 22.928 106.958 22.968 107.086 22.992C107.214 23.016 107.346 23.028 107.482 23.028C107.818 23.028 108.078 22.972 108.262 22.86C108.446 22.748 108.582 22.616 108.67 22.464C108.758 22.304 108.81 22.144 108.826 21.984C108.85 21.824 108.862 21.696 108.862 21.6V20.964ZM111.936 17.796V24H113.64V20.4C113.64 20.096 113.684 19.852 113.772 19.668C113.86 19.476 113.964 19.332 114.084 19.236C114.212 19.132 114.34 19.064 114.468 19.032C114.604 18.992 114.712 18.972 114.792 18.972C115.064 18.972 115.268 19.02 115.404 19.116C115.548 19.204 115.648 19.324 115.704 19.476C115.768 19.628 115.804 19.796 115.812 19.98C115.82 20.156 115.824 20.336 115.824 20.52V24H117.528V20.544C117.528 20.352 117.54 20.164 117.564 19.98C117.596 19.788 117.652 19.62 117.732 19.476C117.82 19.324 117.936 19.204 118.08 19.116C118.232 19.02 118.428 18.972 118.668 18.972C118.908 18.972 119.096 19.012 119.232 19.092C119.376 19.172 119.484 19.28 119.556 19.416C119.628 19.552 119.672 19.712 119.688 19.896C119.704 20.08 119.712 20.276 119.712 20.484V24H121.416V19.848C121.416 19.448 121.36 19.108 121.248 18.828C121.136 18.54 120.98 18.308 120.78 18.132C120.58 17.956 120.34 17.828 120.06 17.748C119.78 17.668 119.476 17.628 119.148 17.628C118.716 17.628 118.34 17.732 118.02 17.94C117.708 18.148 117.46 18.388 117.276 18.66C117.108 18.276 116.86 18.008 116.532 17.856C116.212 17.704 115.856 17.628 115.464 17.628C115.056 17.628 114.692 17.716 114.372 17.892C114.06 18.068 113.792 18.316 113.568 18.636H113.544V17.796H111.936ZM125.895 22.884C125.623 22.884 125.391 22.828 125.199 22.716C125.007 22.604 124.851 22.46 124.731 22.284C124.619 22.1 124.535 21.888 124.479 21.648C124.431 21.408 124.407 21.164 124.407 20.916C124.407 20.66 124.431 20.412 124.479 20.172C124.527 19.932 124.607 19.72 124.719 19.536C124.839 19.352 124.991 19.204 125.175 19.092C125.367 18.972 125.603 18.912 125.883 18.912C126.155 18.912 126.383 18.972 126.567 19.092C126.759 19.204 126.915 19.356 127.035 19.548C127.155 19.732 127.239 19.944 127.287 20.184C127.343 20.424 127.371 20.668 127.371 20.916C127.371 21.164 127.347 21.408 127.299 21.648C127.251 21.888 127.167 22.1 127.047 22.284C126.935 22.46 126.783 22.604 126.591 22.716C126.407 22.828 126.175 22.884 125.895 22.884ZM122.763 17.796V26.172H124.467V23.232H124.491C124.699 23.536 124.963 23.768 125.283 23.928C125.611 24.08 125.967 24.156 126.351 24.156C126.807 24.156 127.203 24.068 127.539 23.892C127.883 23.716 128.167 23.48 128.391 23.184C128.623 22.888 128.795 22.548 128.907 22.164C129.019 21.78 129.075 21.38 129.075 20.964C129.075 20.524 129.019 20.104 128.907 19.704C128.795 19.296 128.623 18.94 128.391 18.636C128.159 18.332 127.867 18.088 127.515 17.904C127.163 17.72 126.743 17.628 126.255 17.628C125.871 17.628 125.519 17.704 125.199 17.856C124.879 18.008 124.615 18.252 124.407 18.588H124.383V17.796H122.763ZM130.147 15.432V24H131.851V15.432H130.147ZM137.369 20.232H134.597C134.605 20.112 134.629 19.976 134.669 19.824C134.717 19.672 134.793 19.528 134.897 19.392C135.009 19.256 135.153 19.144 135.329 19.056C135.513 18.96 135.741 18.912 136.013 18.912C136.429 18.912 136.737 19.024 136.937 19.248C137.145 19.472 137.289 19.8 137.369 20.232ZM134.597 21.312H139.073C139.105 20.832 139.065 20.372 138.953 19.932C138.841 19.492 138.657 19.1 138.401 18.756C138.153 18.412 137.833 18.14 137.441 17.94C137.049 17.732 136.589 17.628 136.061 17.628C135.589 17.628 135.157 17.712 134.765 17.88C134.381 18.048 134.049 18.28 133.769 18.576C133.489 18.864 133.273 19.208 133.121 19.608C132.969 20.008 132.893 20.44 132.893 20.904C132.893 21.384 132.965 21.824 133.109 22.224C133.261 22.624 133.473 22.968 133.745 23.256C134.017 23.544 134.349 23.768 134.741 23.928C135.133 24.08 135.573 24.156 136.061 24.156C136.765 24.156 137.365 23.996 137.861 23.676C138.357 23.356 138.725 22.824 138.965 22.08H137.465C137.409 22.272 137.257 22.456 137.009 22.632C136.761 22.8 136.465 22.884 136.121 22.884C135.641 22.884 135.273 22.76 135.017 22.512C134.761 22.264 134.621 21.864 134.597 21.312ZM140.156 22.152V24H142.04V22.152H140.156ZM147.647 19.98H149.315C149.291 19.58 149.195 19.236 149.027 18.948C148.859 18.652 148.639 18.408 148.367 18.216C148.103 18.016 147.799 17.868 147.455 17.772C147.119 17.676 146.767 17.628 146.399 17.628C145.895 17.628 145.447 17.712 145.055 17.88C144.663 18.048 144.331 18.284 144.059 18.588C143.787 18.884 143.579 19.24 143.435 19.656C143.299 20.064 143.231 20.508 143.231 20.988C143.231 21.452 143.307 21.88 143.459 22.272C143.611 22.656 143.823 22.988 144.095 23.268C144.367 23.548 144.695 23.768 145.079 23.928C145.471 24.08 145.899 24.156 146.363 24.156C147.187 24.156 147.863 23.94 148.391 23.508C148.919 23.076 149.239 22.448 149.351 21.624H147.707C147.651 22.008 147.511 22.316 147.287 22.548C147.071 22.772 146.759 22.884 146.351 22.884C146.087 22.884 145.863 22.824 145.679 22.704C145.495 22.584 145.347 22.432 145.235 22.248C145.131 22.056 145.055 21.844 145.007 21.612C144.959 21.38 144.935 21.152 144.935 20.928C144.935 20.696 144.959 20.464 145.007 20.232C145.055 19.992 145.135 19.776 145.247 19.584C145.367 19.384 145.519 19.224 145.703 19.104C145.887 18.976 146.115 18.912 146.387 18.912C147.115 18.912 147.535 19.268 147.647 19.98ZM151.826 20.904C151.826 20.656 151.85 20.412 151.898 20.172C151.946 19.932 152.026 19.72 152.138 19.536C152.258 19.352 152.414 19.204 152.606 19.092C152.798 18.972 153.038 18.912 153.326 18.912C153.614 18.912 153.854 18.972 154.046 19.092C154.246 19.204 154.402 19.352 154.514 19.536C154.634 19.72 154.718 19.932 154.766 20.172C154.814 20.412 154.838 20.656 154.838 20.904C154.838 21.152 154.814 21.396 154.766 21.636C154.718 21.868 154.634 22.08 154.514 22.272C154.402 22.456 154.246 22.604 154.046 22.716C153.854 22.828 153.614 22.884 153.326 22.884C153.038 22.884 152.798 22.828 152.606 22.716C152.414 22.604 152.258 22.456 152.138 22.272C152.026 22.08 151.946 21.868 151.898 21.636C151.85 21.396 151.826 21.152 151.826 20.904ZM150.122 20.904C150.122 21.4 150.198 21.848 150.35 22.248C150.502 22.648 150.718 22.992 150.998 23.28C151.278 23.56 151.614 23.776 152.006 23.928C152.398 24.08 152.838 24.156 153.326 24.156C153.814 24.156 154.254 24.08 154.646 23.928C155.046 23.776 155.386 23.56 155.666 23.28C155.946 22.992 156.162 22.648 156.314 22.248C156.466 21.848 156.542 21.4 156.542 20.904C156.542 20.408 156.466 19.96 156.314 19.56C156.162 19.152 155.946 18.808 155.666 18.528C155.386 18.24 155.046 18.02 154.646 17.868C154.254 17.708 153.814 17.628 153.326 17.628C152.838 17.628 152.398 17.708 152.006 17.868C151.614 18.02 151.278 18.24 150.998 18.528C150.718 18.808 150.502 19.152 150.35 19.56C150.198 19.96 150.122 20.408 150.122 20.904ZM157.698 17.796V24H159.402V20.4C159.402 20.096 159.446 19.852 159.534 19.668C159.622 19.476 159.726 19.332 159.846 19.236C159.974 19.132 160.102 19.064 160.23 19.032C160.366 18.992 160.474 18.972 160.554 18.972C160.826 18.972 161.03 19.02 161.166 19.116C161.31 19.204 161.41 19.324 161.466 19.476C161.53 19.628 161.566 19.796 161.574 19.98C161.582 20.156 161.586 20.336 161.586 20.52V24H163.29V20.544C163.29 20.352 163.302 20.164 163.326 19.98C163.358 19.788 163.414 19.62 163.494 19.476C163.582 19.324 163.698 19.204 163.842 19.116C163.994 19.02 164.19 18.972 164.43 18.972C164.67 18.972 164.858 19.012 164.994 19.092C165.138 19.172 165.246 19.28 165.318 19.416C165.39 19.552 165.434 19.712 165.45 19.896C165.466 20.08 165.474 20.276 165.474 20.484V24H167.178V19.848C167.178 19.448 167.122 19.108 167.01 18.828C166.898 18.54 166.742 18.308 166.542 18.132C166.342 17.956 166.102 17.828 165.822 17.748C165.542 17.668 165.238 17.628 164.91 17.628C164.478 17.628 164.102 17.732 163.782 17.94C163.47 18.148 163.222 18.388 163.038 18.66C162.87 18.276 162.622 18.008 162.294 17.856C161.974 17.704 161.618 17.628 161.226 17.628C160.818 17.628 160.454 17.716 160.134 17.892C159.822 18.068 159.554 18.316 159.33 18.636H159.306V17.796H157.698Z" fill="black"/>
<circle cx="20" cy="58" r="8" fill="#DBDBDB"/>
<path d="M39.3181 59.688L40.4341 56.544H40.4581L41.5381 59.688H39.3181ZM39.4981 54.432L36.2581 63H38.1541L38.8261 61.092H42.0301L42.6781 63H44.6341L41.4301 54.432H39.4981ZM45.2409 54.432V63H46.9449V54.432H45.2409ZM50.0387 55.836V54.432H48.3347V55.836H50.0387ZM48.3347 56.796V63H50.0387V56.796H48.3347ZM55.6044 58.98H57.2724C57.2484 58.58 57.1524 58.236 56.9844 57.948C56.8164 57.652 56.5964 57.408 56.3244 57.216C56.0604 57.016 55.7564 56.868 55.4124 56.772C55.0764 56.676 54.7244 56.628 54.3564 56.628C53.8524 56.628 53.4044 56.712 53.0124 56.88C52.6204 57.048 52.2884 57.284 52.0164 57.588C51.7444 57.884 51.5364 58.24 51.3924 58.656C51.2564 59.064 51.1884 59.508 51.1884 59.988C51.1884 60.452 51.2644 60.88 51.4164 61.272C51.5684 61.656 51.7804 61.988 52.0524 62.268C52.3244 62.548 52.6524 62.768 53.0364 62.928C53.4284 63.08 53.8564 63.156 54.3204 63.156C55.1444 63.156 55.8204 62.94 56.3484 62.508C56.8764 62.076 57.1964 61.448 57.3084 60.624H55.6644C55.6084 61.008 55.4684 61.316 55.2444 61.548C55.0284 61.772 54.7164 61.884 54.3084 61.884C54.0444 61.884 53.8204 61.824 53.6364 61.704C53.4524 61.584 53.3044 61.432 53.1924 61.248C53.0884 61.056 53.0124 60.844 52.9644 60.612C52.9164 60.38 52.8924 60.152 52.8924 59.928C52.8924 59.696 52.9164 59.464 52.9644 59.232C53.0124 58.992 53.0924 58.776 53.2044 58.584C53.3244 58.384 53.4764 58.224 53.6604 58.104C53.8444 57.976 54.0724 57.912 54.3444 57.912C55.0724 57.912 55.4924 58.268 55.6044 58.98ZM62.447 59.232H59.675C59.683 59.112 59.707 58.976 59.747 58.824C59.795 58.672 59.871 58.528 59.975 58.392C60.087 58.256 60.231 58.144 60.407 58.056C60.591 57.96 60.819 57.912 61.091 57.912C61.507 57.912 61.815 58.024 62.015 58.248C62.223 58.472 62.367 58.8 62.447 59.232ZM59.675 60.312H64.151C64.183 59.832 64.143 59.372 64.031 58.932C63.919 58.492 63.735 58.1 63.479 57.756C63.231 57.412 62.911 57.14 62.519 56.94C62.127 56.732 61.667 56.628 61.139 56.628C60.667 56.628 60.235 56.712 59.843 56.88C59.459 57.048 59.127 57.28 58.847 57.576C58.567 57.864 58.351 58.208 58.199 58.608C58.047 59.008 57.971 59.44 57.971 59.904C57.971 60.384 58.043 60.824 58.187 61.224C58.339 61.624 58.551 61.968 58.823 62.256C59.095 62.544 59.427 62.768 59.819 62.928C60.211 63.08 60.651 63.156 61.139 63.156C61.843 63.156 62.443 62.996 62.939 62.676C63.435 62.356 63.803 61.824 64.043 61.08H62.543C62.487 61.272 62.335 61.456 62.087 61.632C61.839 61.8 61.543 61.884 61.199 61.884C60.719 61.884 60.351 61.76 60.095 61.512C59.839 61.264 59.699 60.864 59.675 60.312ZM71.4895 54.228H70.0615C69.7975 54.612 69.5655 55.032 69.3655 55.488C69.1735 55.944 69.0095 56.416 68.8735 56.904C68.7455 57.392 68.6455 57.884 68.5735 58.38C68.5095 58.868 68.4775 59.336 68.4775 59.784C68.4775 60.728 68.6135 61.656 68.8855 62.568C69.1655 63.48 69.5575 64.348 70.0615 65.172H71.4775C71.0215 64.3 70.6895 63.404 70.4815 62.484C70.2815 61.564 70.1815 60.624 70.1815 59.664C70.1815 58.72 70.2855 57.792 70.4935 56.88C70.7015 55.96 71.0335 55.076 71.4895 54.228ZM76.1083 63V54.6H74.7523C74.7043 54.92 74.6043 55.188 74.4523 55.404C74.3003 55.62 74.1123 55.796 73.8883 55.932C73.6723 56.06 73.4243 56.152 73.1443 56.208C72.8723 56.256 72.5883 56.276 72.2923 56.268V57.552H74.4043V63H76.1083ZM80.0283 58.764C80.0283 58.62 80.0283 58.448 80.0283 58.248C80.0363 58.04 80.0523 57.828 80.0763 57.612C80.1003 57.396 80.1403 57.184 80.1963 56.976C80.2523 56.76 80.3283 56.568 80.4243 56.4C80.5283 56.232 80.6563 56.096 80.8083 55.992C80.9683 55.888 81.1643 55.836 81.3963 55.836C81.6283 55.836 81.8243 55.888 81.9843 55.992C82.1443 56.096 82.2763 56.232 82.3803 56.4C82.4843 56.568 82.5603 56.76 82.6083 56.976C82.6643 57.184 82.7043 57.396 82.7283 57.612C82.7603 57.828 82.7763 58.04 82.7763 58.248C82.7843 58.448 82.7883 58.62 82.7883 58.764C82.7883 59.004 82.7803 59.296 82.7643 59.64C82.7483 59.976 82.6963 60.304 82.6083 60.624C82.5283 60.936 82.3923 61.204 82.2003 61.428C82.0163 61.652 81.7483 61.764 81.3963 61.764C81.0523 61.764 80.7883 61.652 80.6043 61.428C80.4203 61.204 80.2843 60.936 80.1963 60.624C80.1163 60.304 80.0683 59.976 80.0523 59.64C80.0363 59.296 80.0283 59.004 80.0283 58.764ZM78.3243 58.764C78.3243 59.604 78.4043 60.308 78.5643 60.876C78.7323 61.436 78.9563 61.884 79.2363 62.22C79.5163 62.556 79.8403 62.796 80.2083 62.94C80.5843 63.084 80.9803 63.156 81.3963 63.156C81.8203 63.156 82.2163 63.084 82.5843 62.94C82.9603 62.796 83.2883 62.556 83.5683 62.22C83.8563 61.884 84.0803 61.436 84.2403 60.876C84.4083 60.308 84.4923 59.604 84.4923 58.764C84.4923 57.948 84.4083 57.264 84.2403 56.712C84.0803 56.152 83.8563 55.704 83.5683 55.368C83.2883 55.032 82.9603 54.792 82.5843 54.648C82.2163 54.504 81.8203 54.432 81.3963 54.432C80.9803 54.432 80.5843 54.504 80.2083 54.648C79.8403 54.792 79.5163 55.032 79.2363 55.368C78.9563 55.704 78.7323 56.152 78.5643 56.712C78.4043 57.264 78.3243 57.948 78.3243 58.764ZM86.6962 58.764C86.6962 58.62 86.6962 58.448 86.6962 58.248C86.7042 58.04 86.7202 57.828 86.7442 57.612C86.7682 57.396 86.8082 57.184 86.8642 56.976C86.9202 56.76 86.9962 56.568 87.0922 56.4C87.1962 56.232 87.3242 56.096 87.4762 55.992C87.6362 55.888 87.8322 55.836 88.0642 55.836C88.2962 55.836 88.4922 55.888 88.6522 55.992C88.8122 56.096 88.9442 56.232 89.0482 56.4C89.1522 56.568 89.2282 56.76 89.2762 56.976C89.3322 57.184 89.3722 57.396 89.3962 57.612C89.4282 57.828 89.4442 58.04 89.4442 58.248C89.4522 58.448 89.4562 58.62 89.4562 58.764C89.4562 59.004 89.4482 59.296 89.4322 59.64C89.4162 59.976 89.3642 60.304 89.2762 60.624C89.1962 60.936 89.0602 61.204 88.8682 61.428C88.6842 61.652 88.4162 61.764 88.0642 61.764C87.7202 61.764 87.4562 61.652 87.2722 61.428C87.0882 61.204 86.9522 60.936 86.8642 60.624C86.7842 60.304 86.7362 59.976 86.7202 59.64C86.7042 59.296 86.6962 59.004 86.6962 58.764ZM84.9922 58.764C84.9922 59.604 85.0722 60.308 85.2322 60.876C85.4002 61.436 85.6242 61.884 85.9042 62.22C86.1842 62.556 86.5082 62.796 86.8762 62.94C87.2522 63.084 87.6482 63.156 88.0642 63.156C88.4882 63.156 88.8842 63.084 89.2522 62.94C89.6282 62.796 89.9562 62.556 90.2362 62.22C90.5242 61.884 90.7482 61.436 90.9082 60.876C91.0762 60.308 91.1602 59.604 91.1602 58.764C91.1602 57.948 91.0762 57.264 90.9082 56.712C90.7482 56.152 90.5242 55.704 90.2362 55.368C89.9562 55.032 89.6282 54.792 89.2522 54.648C88.8842 54.504 88.4882 54.432 88.0642 54.432C87.6482 54.432 87.2522 54.504 86.8762 54.648C86.5082 54.792 86.1842 55.032 85.9042 55.368C85.6242 55.704 85.4002 56.152 85.2322 56.712C85.0722 57.264 84.9922 57.948 84.9922 58.764ZM91.3362 65.172H92.7522C93.0162 64.796 93.2482 64.38 93.4482 63.924C93.6482 63.468 93.8122 63 93.9402 62.52C94.0762 62.032 94.1762 61.544 94.2402 61.056C94.3042 60.56 94.3362 60.088 94.3362 59.64C94.3362 58.696 94.1962 57.764 93.9162 56.844C93.6442 55.924 93.2562 55.052 92.7522 54.228H91.3482C91.7882 55.1 92.1122 56 92.3202 56.928C92.5282 57.856 92.6322 58.8 92.6322 59.76C92.6322 60.704 92.5242 61.632 92.3082 62.544C92.1002 63.448 91.7762 64.324 91.3362 65.172ZM97.575 58.752V56.904H95.691V58.752H97.575ZM95.691 61.152V63H97.575V61.152H95.691ZM102.575 54.432V63H103.715V59.34H106.499C106.779 59.34 107.003 59.384 107.171 59.472C107.339 59.552 107.475 59.664 107.579 59.808C107.683 59.944 107.759 60.108 107.807 60.3C107.855 60.484 107.895 60.68 107.927 60.888C107.967 61.096 107.991 61.308 107.999 61.524C108.007 61.74 108.015 61.944 108.023 62.136C108.031 62.32 108.047 62.488 108.071 62.64C108.103 62.792 108.159 62.912 108.239 63H109.511C109.391 62.856 109.299 62.692 109.235 62.508C109.179 62.316 109.135 62.116 109.103 61.908C109.071 61.7 109.051 61.488 109.043 61.272C109.035 61.056 109.023 60.844 109.007 60.636C108.983 60.428 108.947 60.228 108.899 60.036C108.859 59.844 108.791 59.672 108.695 59.52C108.607 59.36 108.483 59.224 108.323 59.112C108.171 59 107.971 58.92 107.723 58.872V58.848C108.243 58.704 108.619 58.436 108.851 58.044C109.091 57.652 109.211 57.196 109.211 56.676C109.211 55.98 108.979 55.432 108.515 55.032C108.059 54.632 107.423 54.432 106.607 54.432H102.575ZM106.091 58.38H103.715V55.392H106.547C107.083 55.392 107.471 55.528 107.711 55.8C107.951 56.072 108.071 56.424 108.071 56.856C108.071 57.168 108.015 57.424 107.903 57.624C107.799 57.816 107.655 57.972 107.471 58.092C107.295 58.204 107.087 58.28 106.847 58.32C106.607 58.36 106.355 58.38 106.091 58.38ZM111.366 59.904C111.366 59.528 111.414 59.196 111.51 58.908C111.614 58.612 111.754 58.364 111.93 58.164C112.106 57.964 112.31 57.812 112.542 57.708C112.782 57.604 113.034 57.552 113.298 57.552C113.562 57.552 113.81 57.604 114.042 57.708C114.282 57.812 114.49 57.964 114.666 58.164C114.842 58.364 114.978 58.612 115.074 58.908C115.178 59.196 115.23 59.528 115.23 59.904C115.23 60.28 115.178 60.616 115.074 60.912C114.978 61.2 114.842 61.444 114.666 61.644C114.49 61.836 114.282 61.984 114.042 62.088C113.81 62.192 113.562 62.244 113.298 62.244C113.034 62.244 112.782 62.192 112.542 62.088C112.31 61.984 112.106 61.836 111.93 61.644C111.754 61.444 111.614 61.2 111.51 60.912C111.414 60.616 111.366 60.28 111.366 59.904ZM110.286 59.904C110.286 60.36 110.35 60.784 110.478 61.176C110.606 61.568 110.798 61.912 111.054 62.208C111.31 62.496 111.626 62.724 112.002 62.892C112.378 63.052 112.81 63.132 113.298 63.132C113.794 63.132 114.226 63.052 114.594 62.892C114.97 62.724 115.286 62.496 115.542 62.208C115.798 61.912 115.99 61.568 116.118 61.176C116.246 60.784 116.31 60.36 116.31 59.904C116.31 59.448 116.246 59.024 116.118 58.632C115.99 58.232 115.798 57.888 115.542 57.6C115.286 57.304 114.97 57.072 114.594 56.904C114.226 56.736 113.794 56.652 113.298 56.652C112.81 56.652 112.378 56.736 112.002 56.904C111.626 57.072 111.31 57.304 111.054 57.6C110.798 57.888 110.606 58.232 110.478 58.632C110.35 59.024 110.286 59.448 110.286 59.904ZM118.256 59.904C118.256 59.528 118.304 59.196 118.4 58.908C118.504 58.612 118.644 58.364 118.82 58.164C118.996 57.964 119.2 57.812 119.432 57.708C119.672 57.604 119.924 57.552 120.188 57.552C120.452 57.552 120.7 57.604 120.932 57.708C121.172 57.812 121.38 57.964 121.556 58.164C121.732 58.364 121.868 58.612 121.964 58.908C122.068 59.196 122.12 59.528 122.12 59.904C122.12 60.28 122.068 60.616 121.964 60.912C121.868 61.2 121.732 61.444 121.556 61.644C121.38 61.836 121.172 61.984 120.932 62.088C120.7 62.192 120.452 62.244 120.188 62.244C119.924 62.244 119.672 62.192 119.432 62.088C119.2 61.984 118.996 61.836 118.82 61.644C118.644 61.444 118.504 61.2 118.4 60.912C118.304 60.616 118.256 60.28 118.256 59.904ZM117.176 59.904C117.176 60.36 117.24 60.784 117.368 61.176C117.496 61.568 117.688 61.912 117.944 62.208C118.2 62.496 118.516 62.724 118.892 62.892C119.268 63.052 119.7 63.132 120.188 63.132C120.684 63.132 121.116 63.052 121.484 62.892C121.86 62.724 122.176 62.496 122.432 62.208C122.688 61.912 122.88 61.568 123.008 61.176C123.136 60.784 123.2 60.36 123.2 59.904C123.2 59.448 123.136 59.024 123.008 58.632C122.88 58.232 122.688 57.888 122.432 57.6C122.176 57.304 121.86 57.072 121.484 56.904C121.116 56.736 120.684 56.652 120.188 56.652C119.7 56.652 119.268 56.736 118.892 56.904C118.516 57.072 118.2 57.304 117.944 57.6C117.688 57.888 117.496 58.232 117.368 58.632C117.24 59.024 117.176 59.448 117.176 59.904ZM124.403 56.796V63H125.423V59.136C125.423 59.016 125.451 58.868 125.507 58.692C125.571 58.508 125.667 58.332 125.795 58.164C125.931 57.996 126.103 57.852 126.311 57.732C126.527 57.612 126.783 57.552 127.079 57.552C127.311 57.552 127.499 57.588 127.643 57.66C127.795 57.724 127.915 57.82 128.003 57.948C128.091 58.068 128.151 58.212 128.183 58.38C128.223 58.548 128.243 58.732 128.243 58.932V63H129.263V59.136C129.263 58.656 129.407 58.272 129.695 57.984C129.983 57.696 130.379 57.552 130.883 57.552C131.131 57.552 131.331 57.588 131.483 57.66C131.643 57.732 131.767 57.832 131.855 57.96C131.943 58.08 132.003 58.224 132.035 58.392C132.067 58.56 132.083 58.74 132.083 58.932V63H133.103V58.452C133.103 58.132 133.051 57.86 132.947 57.636C132.851 57.404 132.711 57.216 132.527 57.072C132.351 56.928 132.135 56.824 131.879 56.76C131.631 56.688 131.351 56.652 131.039 56.652C130.631 56.652 130.255 56.744 129.911 56.928C129.575 57.112 129.303 57.372 129.095 57.708C128.967 57.324 128.747 57.052 128.435 56.892C128.123 56.732 127.775 56.652 127.391 56.652C126.519 56.652 125.851 57.004 125.387 57.708H125.363V56.796H124.403ZM142.185 58.788H143.241C143.201 58.42 143.105 58.104 142.953 57.84C142.801 57.568 142.605 57.344 142.365 57.168C142.133 56.992 141.861 56.864 141.549 56.784C141.245 56.696 140.917 56.652 140.565 56.652C140.077 56.652 139.649 56.74 139.281 56.916C138.913 57.084 138.605 57.32 138.357 57.624C138.117 57.92 137.937 58.272 137.817 58.68C137.697 59.08 137.637 59.512 137.637 59.976C137.637 60.44 137.697 60.868 137.817 61.26C137.945 61.644 138.129 61.976 138.369 62.256C138.617 62.536 138.921 62.752 139.281 62.904C139.649 63.056 140.069 63.132 140.541 63.132C141.333 63.132 141.957 62.924 142.413 62.508C142.877 62.092 143.165 61.5 143.277 60.732H142.233C142.169 61.212 141.993 61.584 141.705 61.848C141.425 62.112 141.033 62.244 140.529 62.244C140.209 62.244 139.933 62.18 139.701 62.052C139.469 61.924 139.281 61.756 139.137 61.548C138.993 61.332 138.885 61.088 138.813 60.816C138.749 60.544 138.717 60.264 138.717 59.976C138.717 59.664 138.749 59.364 138.813 59.076C138.877 58.78 138.981 58.52 139.125 58.296C139.277 58.072 139.477 57.892 139.725 57.756C139.973 57.62 140.281 57.552 140.649 57.552C141.081 57.552 141.425 57.66 141.681 57.876C141.937 58.092 142.105 58.396 142.185 58.788ZM144.382 56.796V63H145.402V60.24C145.402 59.84 145.442 59.488 145.522 59.184C145.602 58.872 145.73 58.608 145.906 58.392C146.082 58.176 146.314 58.012 146.602 57.9C146.89 57.788 147.238 57.732 147.646 57.732V56.652C147.094 56.636 146.638 56.748 146.278 56.988C145.918 57.228 145.614 57.6 145.366 58.104H145.342V56.796H144.382ZM152.512 59.304H148.948C148.964 59.064 149.016 58.84 149.104 58.632C149.192 58.416 149.312 58.228 149.464 58.068C149.616 57.908 149.796 57.784 150.004 57.696C150.22 57.6 150.46 57.552 150.724 57.552C150.98 57.552 151.212 57.6 151.42 57.696C151.636 57.784 151.82 57.908 151.972 58.068C152.132 58.22 152.256 58.404 152.344 58.62C152.44 58.836 152.496 59.064 152.512 59.304ZM153.496 61.032H152.488C152.4 61.44 152.216 61.744 151.936 61.944C151.664 62.144 151.312 62.244 150.88 62.244C150.544 62.244 150.252 62.188 150.004 62.076C149.756 61.964 149.552 61.816 149.392 61.632C149.232 61.44 149.116 61.224 149.044 60.984C148.972 60.736 148.94 60.476 148.948 60.204H153.592C153.608 59.828 153.572 59.432 153.484 59.016C153.404 58.6 153.252 58.216 153.028 57.864C152.812 57.512 152.52 57.224 152.152 57C151.792 56.768 151.336 56.652 150.784 56.652C150.36 56.652 149.968 56.732 149.608 56.892C149.256 57.052 148.948 57.276 148.684 57.564C148.428 57.852 148.228 58.192 148.084 58.584C147.94 58.976 147.868 59.408 147.868 59.88C147.884 60.352 147.952 60.788 148.072 61.188C148.2 61.588 148.388 61.932 148.636 62.22C148.884 62.508 149.188 62.732 149.548 62.892C149.916 63.052 150.348 63.132 150.844 63.132C151.548 63.132 152.132 62.956 152.596 62.604C153.06 62.252 153.36 61.728 153.496 61.032ZM160.145 62.976C159.969 63.08 159.725 63.132 159.413 63.132C159.149 63.132 158.937 63.06 158.777 62.916C158.625 62.764 158.549 62.52 158.549 62.184C158.269 62.52 157.941 62.764 157.565 62.916C157.197 63.06 156.797 63.132 156.365 63.132C156.085 63.132 155.817 63.1 155.561 63.036C155.313 62.972 155.097 62.872 154.913 62.736C154.729 62.6 154.581 62.424 154.469 62.208C154.365 61.984 154.313 61.716 154.313 61.404C154.313 61.052 154.373 60.764 154.493 60.54C154.613 60.316 154.769 60.136 154.961 60C155.161 59.856 155.385 59.748 155.633 59.676C155.889 59.604 156.149 59.544 156.413 59.496C156.693 59.44 156.957 59.4 157.205 59.376C157.461 59.344 157.685 59.304 157.877 59.256C158.069 59.2 158.221 59.124 158.333 59.028C158.445 58.924 158.501 58.776 158.501 58.584C158.501 58.36 158.457 58.18 158.369 58.044C158.289 57.908 158.181 57.804 158.045 57.732C157.917 57.66 157.769 57.612 157.601 57.588C157.441 57.564 157.281 57.552 157.121 57.552C156.689 57.552 156.329 57.636 156.041 57.804C155.753 57.964 155.597 58.272 155.573 58.728H154.553C154.569 58.344 154.649 58.02 154.793 57.756C154.937 57.492 155.129 57.28 155.369 57.12C155.609 56.952 155.881 56.832 156.185 56.76C156.497 56.688 156.829 56.652 157.181 56.652C157.461 56.652 157.737 56.672 158.009 56.712C158.289 56.752 158.541 56.836 158.765 56.964C158.989 57.084 159.169 57.256 159.305 57.48C159.441 57.704 159.509 57.996 159.509 58.356V61.548C159.509 61.788 159.521 61.964 159.545 62.076C159.577 62.188 159.673 62.244 159.833 62.244C159.921 62.244 160.025 62.224 160.145 62.184V62.976ZM158.489 59.796C158.361 59.892 158.193 59.964 157.985 60.012C157.777 60.052 157.557 60.088 157.325 60.12C157.101 60.144 156.873 60.176 156.641 60.216C156.409 60.248 156.201 60.304 156.017 60.384C155.833 60.464 155.681 60.58 155.561 60.732C155.449 60.876 155.393 61.076 155.393 61.332C155.393 61.5 155.425 61.644 155.489 61.764C155.561 61.876 155.649 61.968 155.753 62.04C155.865 62.112 155.993 62.164 156.137 62.196C156.281 62.228 156.433 62.244 156.593 62.244C156.929 62.244 157.217 62.2 157.457 62.112C157.697 62.016 157.893 61.9 158.045 61.764C158.197 61.62 158.309 61.468 158.381 61.308C158.453 61.14 158.489 60.984 158.489 60.84V59.796ZM162.51 56.796V54.936H161.49V56.796H160.434V57.696H161.49V61.644C161.49 61.932 161.518 62.164 161.574 62.34C161.63 62.516 161.714 62.652 161.826 62.748C161.946 62.844 162.098 62.912 162.282 62.952C162.474 62.984 162.702 63 162.966 63H163.746V62.1H163.278C163.118 62.1 162.986 62.096 162.882 62.088C162.786 62.072 162.71 62.044 162.654 62.004C162.598 61.964 162.558 61.908 162.534 61.836C162.518 61.764 162.51 61.668 162.51 61.548V57.696H163.746V56.796H162.51ZM169.187 59.304H165.623C165.639 59.064 165.691 58.84 165.779 58.632C165.867 58.416 165.987 58.228 166.139 58.068C166.291 57.908 166.471 57.784 166.679 57.696C166.895 57.6 167.135 57.552 167.399 57.552C167.655 57.552 167.887 57.6 168.095 57.696C168.311 57.784 168.495 57.908 168.647 58.068C168.807 58.22 168.931 58.404 169.019 58.62C169.115 58.836 169.171 59.064 169.187 59.304ZM170.171 61.032H169.163C169.075 61.44 168.891 61.744 168.611 61.944C168.339 62.144 167.987 62.244 167.555 62.244C167.219 62.244 166.927 62.188 166.679 62.076C166.431 61.964 166.227 61.816 166.067 61.632C165.907 61.44 165.791 61.224 165.719 60.984C165.647 60.736 165.615 60.476 165.623 60.204H170.267C170.283 59.828 170.247 59.432 170.159 59.016C170.079 58.6 169.927 58.216 169.703 57.864C169.487 57.512 169.195 57.224 168.827 57C168.467 56.768 168.011 56.652 167.459 56.652C167.035 56.652 166.643 56.732 166.283 56.892C165.931 57.052 165.623 57.276 165.359 57.564C165.103 57.852 164.903 58.192 164.759 58.584C164.615 58.976 164.543 59.408 164.543 59.88C164.559 60.352 164.627 60.788 164.747 61.188C164.875 61.588 165.063 61.932 165.311 62.22C165.559 62.508 165.863 62.732 166.223 62.892C166.591 63.052 167.023 63.132 167.519 63.132C168.223 63.132 168.807 62.956 169.271 62.604C169.735 62.252 170.035 61.728 170.171 61.032ZM172.069 59.952C172.069 59.648 172.101 59.352 172.165 59.064C172.229 58.776 172.333 58.52 172.477 58.296C172.621 58.072 172.813 57.892 173.053 57.756C173.293 57.62 173.585 57.552 173.929 57.552C174.281 57.552 174.581 57.62 174.829 57.756C175.077 57.884 175.277 58.056 175.429 58.272C175.589 58.488 175.705 58.74 175.777 59.028C175.849 59.308 175.885 59.6 175.885 59.904C175.885 60.192 175.849 60.476 175.777 60.756C175.713 61.036 175.605 61.288 175.453 61.512C175.301 61.728 175.105 61.904 174.865 62.04C174.625 62.176 174.333 62.244 173.989 62.244C173.661 62.244 173.373 62.18 173.125 62.052C172.885 61.924 172.685 61.752 172.525 61.536C172.373 61.32 172.257 61.076 172.177 60.804C172.105 60.524 172.069 60.24 172.069 59.952ZM176.869 63V54.432H175.849V57.624H175.825C175.713 57.44 175.573 57.288 175.405 57.168C175.245 57.04 175.073 56.94 174.889 56.868C174.705 56.788 174.521 56.732 174.337 56.7C174.153 56.668 173.981 56.652 173.821 56.652C173.349 56.652 172.933 56.74 172.573 56.916C172.221 57.084 171.925 57.316 171.685 57.612C171.453 57.9 171.277 58.24 171.157 58.632C171.045 59.024 170.989 59.44 170.989 59.88C170.989 60.32 171.049 60.736 171.169 61.128C171.289 61.52 171.465 61.864 171.697 62.16C171.937 62.456 172.233 62.692 172.585 62.868C172.945 63.044 173.365 63.132 173.845 63.132C174.277 63.132 174.673 63.056 175.033 62.904C175.393 62.752 175.657 62.504 175.825 62.16H175.849V63H176.869Z" fill="black"/>
</g>
<rect x="1" y="1" width="188" height="76" rx="11" stroke="black" stroke-width="2"/>
<rect y="98" width="40" height="48" rx="4" fill="#131212"/>
<path d="M8 111H32" stroke="white" stroke-width="4" stroke-linecap="round"/>
<path d="M8 123H20" stroke="white" stroke-width="4" stroke-linecap="round"/>
<path d="M31 123H32" stroke="white" stroke-width="4" stroke-linecap="round"/>
<path d="M55.5885 121.348H51.4305C51.4425 121.168 51.4785 120.964 51.5385 120.736C51.6105 120.508 51.7245 120.292 51.8805 120.088C52.0485 119.884 52.2645 119.716 52.5285 119.584C52.8045 119.44 53.1465 119.368 53.5545 119.368C54.1785 119.368 54.6405 119.536 54.9405 119.872C55.2525 120.208 55.4685 120.7 55.5885 121.348ZM51.4305 122.968H58.1445C58.1925 122.248 58.1325 121.558 57.9645 120.898C57.7965 120.238 57.5205 119.65 57.1365 119.134C56.7645 118.618 56.2845 118.21 55.6965 117.91C55.1085 117.598 54.4185 117.442 53.6265 117.442C52.9185 117.442 52.2705 117.568 51.6825 117.82C51.1065 118.072 50.6085 118.42 50.1885 118.864C49.7685 119.296 49.4445 119.812 49.2165 120.412C48.9885 121.012 48.8745 121.66 48.8745 122.356C48.8745 123.076 48.9825 123.736 49.1985 124.336C49.4265 124.936 49.7445 125.452 50.1525 125.884C50.5605 126.316 51.0585 126.652 51.6465 126.892C52.2345 127.12 52.8945 127.234 53.6265 127.234C54.6825 127.234 55.5825 126.994 56.3265 126.514C57.0705 126.034 57.6225 125.236 57.9825 124.12H55.7325C55.6485 124.408 55.4205 124.684 55.0485 124.948C54.6765 125.2 54.2325 125.326 53.7165 125.326C52.9965 125.326 52.4445 125.14 52.0605 124.768C51.6765 124.396 51.4665 123.796 51.4305 122.968ZM62.0365 122.104L58.6885 127H61.5505L63.4945 124.066L65.4385 127H68.3545L64.9165 122.05L67.9765 117.694H65.1505L63.5305 120.124L61.8925 117.694H58.9765L62.0365 122.104ZM69.2204 120.556C69.2564 119.956 69.4064 119.458 69.6704 119.062C69.9344 118.666 70.2704 118.348 70.6784 118.108C71.0864 117.868 71.5424 117.7 72.0464 117.604C72.5624 117.496 73.0784 117.442 73.5944 117.442C74.0624 117.442 74.5364 117.478 75.0164 117.55C75.4964 117.61 75.9344 117.736 76.3304 117.928C76.7264 118.12 77.0504 118.39 77.3024 118.738C77.5544 119.074 77.6804 119.524 77.6804 120.088V124.93C77.6804 125.35 77.7044 125.752 77.7524 126.136C77.8004 126.52 77.8844 126.808 78.0044 127H75.4124C75.3644 126.856 75.3224 126.712 75.2864 126.568C75.2624 126.412 75.2444 126.256 75.2324 126.1C74.8244 126.52 74.3444 126.814 73.7924 126.982C73.2404 127.15 72.6764 127.234 72.1004 127.234C71.6564 127.234 71.2424 127.18 70.8584 127.072C70.4744 126.964 70.1384 126.796 69.8504 126.568C69.5624 126.34 69.3344 126.052 69.1664 125.704C69.0104 125.356 68.9324 124.942 68.9324 124.462C68.9324 123.934 69.0224 123.502 69.2024 123.166C69.3944 122.818 69.6344 122.542 69.9224 122.338C70.2224 122.134 70.5584 121.984 70.9304 121.888C71.3144 121.78 71.6984 121.696 72.0824 121.636C72.4664 121.576 72.8444 121.528 73.2164 121.492C73.5884 121.456 73.9184 121.402 74.2064 121.33C74.4944 121.258 74.7224 121.156 74.8904 121.024C75.0584 120.88 75.1364 120.676 75.1244 120.412C75.1244 120.136 75.0764 119.92 74.9804 119.764C74.8964 119.596 74.7764 119.47 74.6204 119.386C74.4764 119.29 74.3024 119.23 74.0984 119.206C73.9064 119.17 73.6964 119.152 73.4684 119.152C72.9644 119.152 72.5684 119.26 72.2804 119.476C71.9924 119.692 71.8244 120.052 71.7764 120.556H69.2204ZM75.1244 122.446C75.0164 122.542 74.8784 122.62 74.7104 122.68C74.5544 122.728 74.3804 122.77 74.1884 122.806C74.0084 122.842 73.8164 122.872 73.6124 122.896C73.4084 122.92 73.2044 122.95 73.0004 122.986C72.8084 123.022 72.6164 123.07 72.4244 123.13C72.2444 123.19 72.0824 123.274 71.9384 123.382C71.8064 123.478 71.6984 123.604 71.6144 123.76C71.5304 123.916 71.4884 124.114 71.4884 124.354C71.4884 124.582 71.5304 124.774 71.6144 124.93C71.6984 125.086 71.8124 125.212 71.9564 125.308C72.1004 125.392 72.2684 125.452 72.4604 125.488C72.6524 125.524 72.8504 125.542 73.0544 125.542C73.5584 125.542 73.9484 125.458 74.2244 125.29C74.5004 125.122 74.7044 124.924 74.8364 124.696C74.9684 124.456 75.0464 124.216 75.0704 123.976C75.1064 123.736 75.1244 123.544 75.1244 123.4V122.446ZM79.7364 117.694V127H82.2924V121.6C82.2924 121.144 82.3584 120.778 82.4904 120.502C82.6224 120.214 82.7784 119.998 82.9584 119.854C83.1504 119.698 83.3424 119.596 83.5344 119.548C83.7384 119.488 83.9004 119.458 84.0204 119.458C84.4284 119.458 84.7344 119.53 84.9384 119.674C85.1544 119.806 85.3044 119.986 85.3884 120.214C85.4844 120.442 85.5384 120.694 85.5504 120.97C85.5624 121.234 85.5684 121.504 85.5684 121.78V127H88.1244V121.816C88.1244 121.528 88.1424 121.246 88.1784 120.97C88.2264 120.682 88.3104 120.43 88.4304 120.214C88.5624 119.986 88.7364 119.806 88.9524 119.674C89.1804 119.53 89.4744 119.458 89.8344 119.458C90.1944 119.458 90.4764 119.518 90.6804 119.638C90.8964 119.758 91.0584 119.92 91.1664 120.124C91.2744 120.328 91.3404 120.568 91.3644 120.844C91.3884 121.12 91.4004 121.414 91.4004 121.726V127H93.9564V120.772C93.9564 120.172 93.8724 119.662 93.7044 119.242C93.5364 118.81 93.3024 118.462 93.0024 118.198C92.7024 117.934 92.3424 117.742 91.9224 117.622C91.5024 117.502 91.0464 117.442 90.5544 117.442C89.9064 117.442 89.3424 117.598 88.8624 117.91C88.3944 118.222 88.0224 118.582 87.7464 118.99C87.4944 118.414 87.1224 118.012 86.6304 117.784C86.1504 117.556 85.6164 117.442 85.0284 117.442C84.4164 117.442 83.8704 117.574 83.3904 117.838C82.9224 118.102 82.5204 118.474 82.1844 118.954H82.1484V117.694H79.7364ZM100.675 125.326C100.267 125.326 99.9189 125.242 99.6309 125.074C99.3429 124.906 99.1089 124.69 98.9289 124.426C98.7609 124.15 98.6349 123.832 98.5509 123.472C98.4789 123.112 98.4429 122.746 98.4429 122.374C98.4429 121.99 98.4789 121.618 98.5509 121.258C98.6229 120.898 98.7429 120.58 98.9109 120.304C99.0909 120.028 99.3189 119.806 99.5949 119.638C99.8829 119.458 100.237 119.368 100.657 119.368C101.065 119.368 101.407 119.458 101.683 119.638C101.971 119.806 102.205 120.034 102.385 120.322C102.565 120.598 102.691 120.916 102.763 121.276C102.847 121.636 102.889 122.002 102.889 122.374C102.889 122.746 102.853 123.112 102.781 123.472C102.709 123.832 102.583 124.15 102.403 124.426C102.235 124.69 102.007 124.906 101.719 125.074C101.443 125.242 101.095 125.326 100.675 125.326ZM95.9769 117.694V130.258H98.5329V125.848H98.5689C98.8809 126.304 99.2769 126.652 99.7569 126.892C100.249 127.12 100.783 127.234 101.359 127.234C102.043 127.234 102.637 127.102 103.141 126.838C103.657 126.574 104.083 126.22 104.419 125.776C104.767 125.332 105.025 124.822 105.193 124.246C105.361 123.67 105.445 123.07 105.445 122.446C105.445 121.786 105.361 121.156 105.193 120.556C105.025 119.944 104.767 119.41 104.419 118.954C104.071 118.498 103.633 118.132 103.105 117.856C102.577 117.58 101.947 117.442 101.215 117.442C100.639 117.442 100.111 117.556 99.6309 117.784C99.1509 118.012 98.7549 118.378 98.4429 118.882H98.4069V117.694H95.9769ZM107.053 114.148V127H109.609V114.148H107.053ZM117.885 121.348H113.727C113.739 121.168 113.775 120.964 113.835 120.736C113.907 120.508 114.021 120.292 114.177 120.088C114.345 119.884 114.561 119.716 114.825 119.584C115.101 119.44 115.443 119.368 115.851 119.368C116.475 119.368 116.937 119.536 117.237 119.872C117.549 120.208 117.765 120.7 117.885 121.348ZM113.727 122.968H120.441C120.489 122.248 120.429 121.558 120.261 120.898C120.093 120.238 119.817 119.65 119.433 119.134C119.061 118.618 118.581 118.21 117.993 117.91C117.405 117.598 116.715 117.442 115.923 117.442C115.215 117.442 114.567 117.568 113.979 117.82C113.403 118.072 112.905 118.42 112.485 118.864C112.065 119.296 111.741 119.812 111.513 120.412C111.285 121.012 111.171 121.66 111.171 122.356C111.171 123.076 111.279 123.736 111.495 124.336C111.723 124.936 112.041 125.452 112.449 125.884C112.857 126.316 113.355 126.652 113.943 126.892C114.531 127.12 115.191 127.234 115.923 127.234C116.979 127.234 117.879 126.994 118.623 126.514C119.367 126.034 119.919 125.236 120.279 124.12H118.029C117.945 124.408 117.717 124.684 117.345 124.948C116.973 125.2 116.529 125.326 116.013 125.326C115.293 125.326 114.741 125.14 114.357 124.768C113.973 124.396 113.763 123.796 113.727 122.968ZM122.065 124.228V127H124.891V124.228H122.065ZM133.303 120.97H135.805C135.769 120.37 135.625 119.854 135.373 119.422C135.121 118.978 134.791 118.612 134.383 118.324C133.987 118.024 133.531 117.802 133.015 117.658C132.511 117.514 131.983 117.442 131.431 117.442C130.675 117.442 130.003 117.568 129.415 117.82C128.827 118.072 128.329 118.426 127.921 118.882C127.513 119.326 127.201 119.86 126.985 120.484C126.781 121.096 126.679 121.762 126.679 122.482C126.679 123.178 126.793 123.82 127.021 124.408C127.249 124.984 127.567 125.482 127.975 125.902C128.383 126.322 128.875 126.652 129.451 126.892C130.039 127.12 130.681 127.234 131.377 127.234C132.613 127.234 133.627 126.91 134.419 126.262C135.211 125.614 135.691 124.672 135.859 123.436H133.393C133.309 124.012 133.099 124.474 132.763 124.822C132.439 125.158 131.971 125.326 131.359 125.326C130.963 125.326 130.627 125.236 130.351 125.056C130.075 124.876 129.853 124.648 129.685 124.372C129.529 124.084 129.415 123.766 129.343 123.418C129.271 123.07 129.235 122.728 129.235 122.392C129.235 122.044 129.271 121.696 129.343 121.348C129.415 120.988 129.535 120.664 129.703 120.376C129.883 120.076 130.111 119.836 130.387 119.656C130.663 119.464 131.005 119.368 131.413 119.368C132.505 119.368 133.135 119.902 133.303 120.97ZM139.571 122.356C139.571 121.984 139.607 121.618 139.679 121.258C139.751 120.898 139.871 120.58 140.039 120.304C140.219 120.028 140.453 119.806 140.741 119.638C141.029 119.458 141.389 119.368 141.821 119.368C142.253 119.368 142.613 119.458 142.901 119.638C143.201 119.806 143.435 120.028 143.603 120.304C143.783 120.58 143.909 120.898 143.981 121.258C144.053 121.618 144.089 121.984 144.089 122.356C144.089 122.728 144.053 123.094 143.981 123.454C143.909 123.802 143.783 124.12 143.603 124.408C143.435 124.684 143.201 124.906 142.901 125.074C142.613 125.242 142.253 125.326 141.821 125.326C141.389 125.326 141.029 125.242 140.741 125.074C140.453 124.906 140.219 124.684 140.039 124.408C139.871 124.12 139.751 123.802 139.679 123.454C139.607 123.094 139.571 122.728 139.571 122.356ZM137.015 122.356C137.015 123.1 137.129 123.772 137.357 124.372C137.585 124.972 137.909 125.488 138.329 125.92C138.749 126.34 139.253 126.664 139.841 126.892C140.429 127.12 141.089 127.234 141.821 127.234C142.553 127.234 143.213 127.12 143.801 126.892C144.401 126.664 144.911 126.34 145.331 125.92C145.751 125.488 146.075 124.972 146.303 124.372C146.531 123.772 146.645 123.1 146.645 122.356C146.645 121.612 146.531 120.94 146.303 120.34C146.075 119.728 145.751 119.212 145.331 118.792C144.911 118.36 144.401 118.03 143.801 117.802C143.213 117.562 142.553 117.442 141.821 117.442C141.089 117.442 140.429 117.562 139.841 117.802C139.253 118.03 138.749 118.36 138.329 118.792C137.909 119.212 137.585 119.728 137.357 120.34C137.129 120.94 137.015 121.612 137.015 122.356ZM148.379 117.694V127H150.935V121.6C150.935 121.144 151.001 120.778 151.133 120.502C151.265 120.214 151.421 119.998 151.601 119.854C151.793 119.698 151.985 119.596 152.177 119.548C152.381 119.488 152.543 119.458 152.663 119.458C153.071 119.458 153.377 119.53 153.581 119.674C153.797 119.806 153.947 119.986 154.031 120.214C154.127 120.442 154.181 120.694 154.193 120.97C154.205 121.234 154.211 121.504 154.211 121.78V127H156.767V121.816C156.767 121.528 156.785 121.246 156.821 120.97C156.869 120.682 156.953 120.43 157.073 120.214C157.205 119.986 157.379 119.806 157.595 119.674C157.823 119.53 158.117 119.458 158.477 119.458C158.837 119.458 159.119 119.518 159.323 119.638C159.539 119.758 159.701 119.92 159.809 120.124C159.917 120.328 159.983 120.568 160.007 120.844C160.031 121.12 160.043 121.414 160.043 121.726V127H162.599V120.772C162.599 120.172 162.515 119.662 162.347 119.242C162.179 118.81 161.945 118.462 161.645 118.198C161.345 117.934 160.985 117.742 160.565 117.622C160.145 117.502 159.689 117.442 159.197 117.442C158.549 117.442 157.985 117.598 157.505 117.91C157.037 118.222 156.665 118.582 156.389 118.99C156.137 118.414 155.765 118.012 155.273 117.784C154.793 117.556 154.259 117.442 153.671 117.442C153.059 117.442 152.513 117.574 152.033 117.838C151.565 118.102 151.163 118.474 150.827 118.954H150.791V117.694H148.379Z" fill="black"/>
<path d="M20 78L20 98" stroke="black" stroke-width="2" stroke-miterlimit="4.13936" stroke-linecap="round" stroke-dasharray="1 5"/>
<g clip-path="url(#clip1_906_12739)">
<rect x="41" y="154" width="24" height="24" rx="12" fill="#131212"/>
<g clip-path="url(#clip2_906_12739)">
<rect x="41" y="154" width="24" height="24" rx="12" fill="white"/>
<circle cx="53" cy="162" r="4" fill="black"/>
<circle cx="53" cy="175" r="8" fill="black"/>
<circle cx="53" cy="166" r="11" stroke="black" stroke-width="2"/>
</g>
</g>
<path d="M77.8443 167.032L79.5183 162.316H79.5543L81.1743 167.032H77.8443ZM78.1143 159.148L73.2543 172H76.0983L77.1063 169.138H81.9123L82.8843 172H85.8183L81.0123 159.148H78.1143ZM86.7286 159.148V172H89.2846V159.148H86.7286ZM93.9252 161.254V159.148H91.3692V161.254H93.9252ZM91.3692 162.694V172H93.9252V162.694H91.3692ZM102.274 165.97H104.776C104.74 165.37 104.596 164.854 104.344 164.422C104.092 163.978 103.762 163.612 103.354 163.324C102.958 163.024 102.502 162.802 101.986 162.658C101.482 162.514 100.954 162.442 100.402 162.442C99.6458 162.442 98.9738 162.568 98.3858 162.82C97.7978 163.072 97.2998 163.426 96.8918 163.882C96.4838 164.326 96.1718 164.86 95.9558 165.484C95.7518 166.096 95.6498 166.762 95.6498 167.482C95.6498 168.178 95.7638 168.82 95.9918 169.408C96.2198 169.984 96.5378 170.482 96.9458 170.902C97.3538 171.322 97.8458 171.652 98.4218 171.892C99.0098 172.12 99.6518 172.234 100.348 172.234C101.584 172.234 102.598 171.91 103.39 171.262C104.182 170.614 104.662 169.672 104.83 168.436H102.364C102.28 169.012 102.07 169.474 101.734 169.822C101.41 170.158 100.942 170.326 100.33 170.326C99.9338 170.326 99.5978 170.236 99.3218 170.056C99.0458 169.876 98.8238 169.648 98.6558 169.372C98.4998 169.084 98.3858 168.766 98.3138 168.418C98.2418 168.07 98.2058 167.728 98.2058 167.392C98.2058 167.044 98.2418 166.696 98.3138 166.348C98.3858 165.988 98.5058 165.664 98.6738 165.376C98.8538 165.076 99.0818 164.836 99.3578 164.656C99.6338 164.464 99.9758 164.368 100.384 164.368C101.476 164.368 102.106 164.902 102.274 165.97ZM112.538 166.348H108.38C108.392 166.168 108.428 165.964 108.488 165.736C108.56 165.508 108.674 165.292 108.83 165.088C108.998 164.884 109.214 164.716 109.478 164.584C109.754 164.44 110.096 164.368 110.504 164.368C111.128 164.368 111.59 164.536 111.89 164.872C112.202 165.208 112.418 165.7 112.538 166.348ZM108.38 167.968H115.094C115.142 167.248 115.082 166.558 114.914 165.898C114.746 165.238 114.47 164.65 114.086 164.134C113.714 163.618 113.234 163.21 112.646 162.91C112.058 162.598 111.368 162.442 110.576 162.442C109.868 162.442 109.22 162.568 108.632 162.82C108.056 163.072 107.558 163.42 107.138 163.864C106.718 164.296 106.394 164.812 106.166 165.412C105.938 166.012 105.824 166.66 105.824 167.356C105.824 168.076 105.932 168.736 106.148 169.336C106.376 169.936 106.694 170.452 107.102 170.884C107.51 171.316 108.008 171.652 108.596 171.892C109.184 172.12 109.844 172.234 110.576 172.234C111.632 172.234 112.532 171.994 113.276 171.514C114.02 171.034 114.572 170.236 114.932 169.12H112.682C112.598 169.408 112.37 169.684 111.998 169.948C111.626 170.2 111.182 170.326 110.666 170.326C109.946 170.326 109.394 170.14 109.01 169.768C108.626 169.396 108.416 168.796 108.38 167.968Z" fill="black"/>
<path d="M20 134L20 166L40 166" stroke="black" stroke-width="2" stroke-miterlimit="4.13936" stroke-linecap="round" stroke-linejoin="round" stroke-dasharray="1 5"/>
<defs>
<clipPath id="clip0_906_12739">
<rect width="190" height="78" rx="12" fill="white"/>
</clipPath>
<clipPath id="clip1_906_12739">
<rect x="41" y="154" width="24" height="24" rx="12" fill="white"/>
</clipPath>
<clipPath id="clip2_906_12739">
<rect x="41" y="154" width="24" height="24" rx="12" fill="white"/>
</clipPath>
</defs>
</svg>
