<svg id="vector" xmlns="http://www.w3.org/2000/svg" width="108" height="108" viewBox="0 0 108 108"><path fill="#81A263" d="M 24,0 L 84,0 A 24,24 0 0,1 108,24 L 108,84 A 24,24 0 0,1 84,108 L 24,108 A 24,24 0 0,1 0,84 L 0,24 A 24,24 0 0,1 24,0 Z" id="path_0"/><g transform="translate(20.5, 20.5)" id="g_0"><path fill="#000" d="M33.078,61.393c-0.136,-0.04 -0.268,-0.112 -0.404,-0.112 -2.009,0 -3.971,-0.354 -5.871,-0.947 -1.499,-0.467 -2.939,-1.115 -4.395,-1.708 -0.5,-0.205 -0.966,-0.496 -1.456,-0.731 -0.089,-0.043 -0.222,-0.033 -0.321,-0.003 -0.904,0.294 -1.754,-0.252 -1.857,-1.188 -0.013,-0.109 -0.109,-0.228 -0.202,-0.301 -1.039,-0.87 -2.092,-1.727 -3.127,-2.601 -0.255,-0.215 -0.467,-0.483 -0.721,-0.705 -0.086,-0.076 -0.235,-0.093 -0.357,-0.106 -0.553,-0.05 -1.079,-0.457 -1.046,-1.003 0.046,-0.711 -0.41,-1.115 -0.745,-1.612 -0.45,-0.665 -0.946,-1.307 -1.327,-2.012 -1.135,-2.111 -2.009,-4.332 -2.601,-6.658 -0.03,-0.123 -0.122,-0.271 -0.228,-0.321 -0.824,-0.397 -1.062,-1.238 -0.496,-1.989 0.202,-0.268 0.218,-0.51 0.202,-0.801 -0.046,-0.765 -0.069,-1.532 -0.113,-2.297 -0.007,-0.126 -0.036,-0.261 -0.099,-0.367 -0.361,-0.606 -0.338,-1.145 0.142,-1.668 0.242,-0.265 0.351,-0.539 0.324,-0.884 -0.007,-0.116 0.02,-0.232 0.04,-0.347 0.053,-0.301 0.083,-0.572 -0.156,-0.844 -0.268,-0.308 -0.248,-0.884 0.083,-1.069 0.47,-0.265 0.443,-0.718 0.576,-1.112 0.109,-0.328 0.208,-0.665 0.268,-1.006 0.023,-0.126 -0.036,-0.338 -0.129,-0.4 -0.897,-0.596 -1.82,-1.148 -2.714,-1.751 -0.635,-0.427 -1.294,-0.847 -1.83,-1.383 -0.887,-0.887 -1.724,-1.833 -2.502,-2.816 -0.526,-0.665 -0.874,-1.459 -1.032,-2.313v-0.556c0.126,-0.771 0.533,-1.383 1.046,-1.959 0.172,-0.195 0.189,-0.553 0.218,-0.841 0.053,-0.47 0.02,-0.953 0.089,-1.42 0.169,-1.135 1.052,-2.055 2.171,-2.316 0.192,-0.046 0.384,-0.103 0.582,-0.123 0.526,-0.053 0.893,-0.328 1.208,-0.741 0.668,-0.874 1.536,-1.363 2.667,-1.271 0.655,0.053 1.264,0.291 1.708,0.754 0.625,0.655 1.181,1.38 1.737,2.098 0.331,0.427 0.629,0.887 0.903,1.354 0.275,0.463 0.503,0.956 0.745,1.42 2.065,-2.257 4.497,-3.508 7.681,-2.809 0,-0.096 -0.003,-0.156 0,-0.218 0.036,-0.907 0.844,-1.459 1.638,-1.016 0.457,0.255 0.751,0.026 1.109,-0.066 0.536,-0.139 1.062,-0.308 1.658,-0.483 -0.003,0.01 0.013,-0.063 0.033,-0.136 0.232,-0.963 1.082,-1.264 1.883,-0.685 0.122,0.089 0.318,0.112 0.473,0.106 0.271,-0.01 0.539,-0.069 0.841,-0.112 0.06,-0.503 0.328,-0.877 0.854,-0.98 0.549,-0.106 0.973,0.132 1.314,0.559 0.066,0.083 0.215,0.136 0.328,0.136 0.94,0.01 1.88,0.013 2.819,-0.003 0.119,-0.003 0.268,-0.083 0.344,-0.179 0.702,-0.844 1.711,-0.698 2.101,0.311 0.023,0.06 0.05,0.132 0.096,0.166 0.232,0.162 1.099,0.106 1.34,-0.079 0.606,-0.46 1.463,-0.202 1.724,0.52 0.05,0.136 0.076,0.278 0.096,0.361 0.761,0.242 1.492,0.477 2.227,0.705 0.076,0.023 0.182,0.033 0.252,0 1.165,-0.563 1.85,-0.199 1.956,1.086 3.147,-0.718 5.566,0.576 7.648,2.766 0.324,-0.589 0.629,-1.228 1.013,-1.814 0.523,-0.801 1.072,-1.588 1.668,-2.333 0.599,-0.748 1.35,-1.314 2.346,-1.426 1.076,-0.122 1.966,0.288 2.611,1.118 0.43,0.553 0.93,0.867 1.615,0.943 1.684,0.189 2.558,1.714 2.561,3.051 0,0.225 -0.003,0.45 -0.003,0.675 0.003,0.453 0.106,0.854 0.447,1.201 0.854,0.877 1.003,1.926 0.586,3.048 -0.347,0.933 -0.887,1.757 -1.582,2.475 -0.288,0.298 -0.516,0.662 -0.811,0.953 -0.513,0.506 -1.016,1.042 -1.598,1.456 -1.258,0.887 -2.571,1.701 -3.852,2.558 -0.093,0.063 -0.162,0.262 -0.136,0.374 0.126,0.566 0.281,1.125 0.444,1.681 0.03,0.106 0.126,0.215 0.218,0.278 0.493,0.338 0.592,0.854 0.235,1.334 -0.033,0.043 -0.079,0.073 -0.103,0.119 -0.116,0.212 0.046,1.522 0.208,1.708 0.652,0.751 0.688,1.042 0.248,1.91 -0.04,0.076 -0.05,0.175 -0.053,0.265 -0.043,0.831 -0.089,1.665 -0.109,2.495 -0.003,0.189 0.069,0.404 0.172,0.566 0.268,0.427 0.377,0.9 0.261,1.363 -0.06,0.238 -0.324,0.486 -0.559,0.602 -0.255,0.126 -0.361,0.275 -0.447,0.53 -0.493,1.476 -0.93,2.978 -1.536,4.408 -0.516,1.221 -1.214,2.369 -1.876,3.524 -0.268,0.47 -0.662,0.864 -0.979,1.307 -0.099,0.139 -0.185,0.321 -0.189,0.486 -0.017,0.96 -0.288,1.291 -1.241,1.443 -0.06,0.01 -0.132,0.03 -0.172,0.073 -1.185,1.277 -2.528,2.366 -3.938,3.382 -0.079,0.056 -0.139,0.189 -0.146,0.288 -0.06,0.824 -0.947,1.436 -1.737,1.205 -0.162,-0.046 -0.381,-0.033 -0.536,0.036 -1.238,0.546 -2.442,1.185 -3.706,1.658 -2.512,0.94 -5.09,1.622 -7.803,1.648 -0.175,0.003 -0.347,0.073 -0.523,0.113 -0.129,0.007 -0.261,0.007 -0.394,0.007ZM10.952,28.933c-0.364,0.172 -0.41,0.576 -0.496,0.917 -0.136,0.539 -0.185,1.099 -0.281,1.645 -0.142,0.804 -0.344,1.598 -0.43,2.409 -0.089,0.821 0.02,1.671 -0.116,2.482 -0.175,1.056 0.569,2.022 0.212,3.068 -0.007,0.017 0.03,0.043 0.033,0.069 0.113,0.586 0.192,1.178 0.338,1.754 0.294,1.161 0.572,2.333 0.953,3.465 0.281,0.84 0.708,1.635 1.076,2.442 0.738,1.622 1.9,2.945 3.071,4.256 0.304,0.341 0.692,0.612 0.956,0.98 0.765,1.069 1.78,1.87 2.833,2.594 1.264,0.867 2.614,1.628 3.971,2.35 1.443,0.768 2.982,1.304 4.626,1.489 0.761,0.086 1.516,0.225 2.28,0.308 0.493,0.056 0.996,0.083 1.492,0.076 0.629,-0.01 1.258,-0.096 1.886,-0.106 0.754,-0.013 1.512,0.069 2.263,0.026 1.079,-0.063 2.158,-0.172 3.23,-0.318 0.741,-0.099 1.492,-0.222 2.197,-0.46 1.876,-0.635 3.624,-1.542 5.301,-2.611 1.588,-1.013 3.005,-2.204 4.256,-3.604 0.576,-0.645 1.152,-1.287 1.708,-1.946 0.437,-0.516 0.917,-1.019 1.241,-1.602 0.612,-1.105 1.125,-2.26 1.674,-3.399 0.096,-0.199 0.192,-0.4 0.248,-0.612 0.324,-1.198 0.662,-2.389 0.937,-3.601 0.146,-0.632 0.218,-1.294 0.228,-1.942 0.003,-0.328 -0.109,-0.632 0.136,-0.93 0.096,-0.116 0.129,-0.318 0.129,-0.48 -0.016,-1.238 -0.026,-2.479 -0.083,-3.716 -0.023,-0.543 -0.136,-1.082 -0.228,-1.618 -0.063,-0.357 -0.225,-0.705 -0.238,-1.062 -0.02,-0.715 -0.208,-1.38 -0.477,-2.032 -0.093,-0.232 -0.222,-0.347 -0.483,-0.199 -0.238,0.132 -0.486,0.245 -0.741,0.331 -0.321,0.109 -0.778,-0.146 -0.897,-0.467 -0.132,-0.367 0.046,-0.748 0.397,-0.917 0.394,-0.189 0.778,-0.407 1.165,-0.612 0.516,-0.275 0.973,-0.745 1.648,-0.46 0.036,0.017 0.109,-0.05 0.162,-0.079 0.275,-0.169 0.563,-0.324 0.824,-0.513 1.357,-0.976 2.73,-1.936 4.054,-2.962 0.569,-0.44 1.095,-0.973 1.205,-1.774 0.026,-0.182 0.222,-0.404 0.397,-0.486 0.301,-0.142 0.291,-0.344 0.208,-0.579 -0.05,-0.142 -0.146,-0.268 -0.235,-0.394 -0.506,-0.698 -0.51,-1.532 -0.655,-2.333 -0.129,-0.715 -0.278,-1.43 -0.47,-2.128 -0.132,-0.486 -0.599,-0.824 -0.947,-0.808 -0.308,0.017 -0.615,0.02 -0.923,0 -0.857,-0.056 -1.509,-0.48 -2.025,-1.148 -0.387,-0.496 -1.198,-0.725 -1.648,-0.38 -0.586,0.447 -1.175,0.927 -1.638,1.492 -0.804,0.986 -1.344,2.135 -1.807,3.323 -0.172,0.44 -0.45,0.85 -0.738,1.228 -0.189,0.248 -0.635,0.228 -0.877,-0.023 -0.199,-0.208 -0.357,-0.463 -0.199,-0.807 0.063,-0.132 0.05,-0.377 -0.033,-0.49 -0.338,-0.44 -0.678,-0.89 -1.092,-1.254 -0.93,-0.814 -2.009,-1.373 -3.233,-1.612 -0.311,-0.06 -0.642,-0.056 -0.963,-0.043 -0.735,0.033 -1.406,0.298 -2.088,0.553 -0.533,0.199 -1.036,-0.093 -1.046,-0.645 -0.007,-0.357 -0.212,-0.417 -0.414,-0.536 -0.778,-0.467 -1.635,-0.715 -2.512,-0.9 -1.426,-0.305 -2.853,-0.655 -4.328,-0.582 -0.367,0.02 -0.675,-0.053 -0.884,-0.387 -0.033,-0.05 -0.123,-0.086 -0.189,-0.089 -0.523,-0.033 -1.049,-0.076 -1.572,-0.076 -0.443,0 -0.89,0.063 -1.334,0.069 -0.255,0.003 -0.453,0.03 -0.639,0.258 -0.109,0.136 -0.361,0.202 -0.553,0.215 -0.45,0.033 -0.91,-0.036 -1.354,0.026 -0.897,0.122 -1.794,0.281 -2.681,0.467 -1.039,0.215 -2.058,0.496 -3.005,1.009 -0.291,0.159 -0.437,0.334 -0.437,0.665 0.003,0.361 -0.265,0.52 -0.563,0.53 -0.262,0.01 -0.549,-0.046 -0.791,-0.156 -1.142,-0.52 -2.323,-0.569 -3.478,-0.175 -1.205,0.41 -2.29,1.079 -3.111,2.078 -0.285,0.344 -0.692,0.692 -0.424,1.291 0.093,0.208 -0.046,0.553 -0.377,0.682 -0.453,0.179 -0.774,0.073 -1.023,-0.4 -0.245,-0.47 -0.503,-0.943 -0.688,-1.44 -0.559,-1.512 -1.443,-2.793 -2.628,-3.875 -0.635,-0.579 -1.324,-0.721 -1.84,-0.328 -0.334,0.255 -0.632,0.556 -0.937,0.85 -0.592,0.569 -1.36,0.665 -2.101,0.675 -0.705,0.01 -1.003,0.109 -1.264,0.781 -0.331,0.847 -0.437,1.741 -0.536,2.628 -0.083,0.725 -0.242,1.4 -0.721,1.972 -0.235,0.281 -0.149,0.563 0.159,0.804 0.136,0.106 0.268,0.268 0.311,0.43 0.265,1.003 0.976,1.638 1.764,2.217 1.016,0.744 2.012,1.516 3.058,2.214 0.649,0.437 1.241,1.069 2.164,0.893 0.112,-0.023 0.258,0.096 0.38,0.162 0.563,0.321 1.115,0.662 1.688,0.963 0.414,0.218 0.596,0.546 0.443,0.927 -0.146,0.361 -0.569,0.546 -0.966,0.4 -0.281,-0.089 -0.546,-0.225 -0.87,-0.367Z"/><path fill="#D7F4F1" d="M55.518,27.913c-0.172,-0.291 -0.43,-0.433 -0.745,-0.579 -0.377,-0.175 -0.794,-0.453 -0.983,-0.801 -0.308,-0.566 -0.447,-1.224 -0.659,-1.847 -0.023,-0.073 -0.03,-0.166 -0.076,-0.218 -0.933,-1.036 -0.711,-2.125 -0.159,-3.233 0.053,-0.106 0.132,-0.208 0.152,-0.321 0.02,-0.126 0.03,-0.301 -0.04,-0.38 -0.242,-0.275 -0.228,-0.589 -0.172,-0.9 0.242,-1.357 0.804,-2.585 1.552,-3.73 0.576,-0.884 1.132,-1.784 1.787,-2.608 0.347,-0.437 0.847,-0.794 1.347,-1.059 0.668,-0.357 1.446,-0.089 1.89,0.52 0.202,0.278 0.414,0.546 0.609,0.827 0.238,0.344 0.566,0.5 0.973,0.506 0.252,0.003 0.506,0.023 0.754,-0.003 0.897,-0.099 1.605,0.678 1.698,1.532 0.053,0.477 0.01,0.963 0.013,1.446 0.003,0.655 0.02,1.304 0.622,1.741 0.844,0.612 0.645,1.731 0.268,2.366 -0.821,1.38 -1.976,2.465 -3.177,3.501 -1.231,1.062 -2.585,1.956 -4.034,2.697 -0.42,0.215 -0.87,0.364 -1.307,0.543h-0.314ZM11.359,27.913c0.172,-0.291 0.43,-0.433 0.745,-0.579 0.377,-0.175 0.794,-0.453 0.983,-0.801 0.308,-0.566 0.447,-1.224 0.659,-1.847 0.023,-0.073 0.03,-0.166 0.076,-0.218 0.933,-1.036 0.711,-2.125 0.159,-3.233 -0.053,-0.106 -0.132,-0.208 -0.152,-0.321 -0.02,-0.126 -0.03,-0.301 0.04,-0.38 0.242,-0.275 0.228,-0.589 0.172,-0.9 -0.242,-1.357 -0.804,-2.585 -1.552,-3.73 -0.576,-0.884 -1.132,-1.784 -1.787,-2.608 -0.347,-0.437 -0.847,-0.794 -1.347,-1.059 -0.668,-0.357 -1.446,-0.089 -1.89,0.52 -0.202,0.278 -0.414,0.546 -0.609,0.827 -0.238,0.344 -0.566,0.5 -0.973,0.506 -0.252,0.003 -0.506,0.023 -0.755,-0.003 -0.897,-0.099 -1.605,0.678 -1.698,1.532 -0.053,0.477 -0.01,0.963 -0.013,1.446 -0.003,0.655 -0.02,1.304 -0.622,1.741 -0.844,0.612 -0.645,1.731 -0.268,2.366 0.821,1.38 1.976,2.465 3.177,3.501 1.231,1.062 2.585,1.956 4.034,2.697 0.42,0.215 0.87,0.364 1.307,0.543h0.314Z"/><path fill="#365E32" d="M4.214,20.527c0.252,-0.566 0.801,-0.546 1.208,-0.195 1.532,1.327 3.071,2.651 4.65,3.918 0.642,0.516 1.403,0.877 2.092,1.334 0.192,0.126 0.404,0.341 0.44,0.546 0.036,0.202 -0.076,0.566 -0.228,0.635 -0.225,0.106 -0.605,0.116 -0.807,-0.01 -1.178,-0.748 -2.369,-1.486 -3.471,-2.343 -1.175,-0.913 -2.257,-1.939 -3.362,-2.935 -0.215,-0.192 -0.351,-0.473 -0.523,-0.711 0.003,-0.079 0.003,-0.159 0.003,-0.238ZM54.582,26.994c-0.215,-0.179 -0.443,-0.308 -0.582,-0.496 -0.175,-0.242 -0.04,-0.493 0.159,-0.669 0.195,-0.172 0.42,-0.318 0.649,-0.447 1.519,-0.864 2.882,-1.946 4.213,-3.071 0.755,-0.639 1.479,-1.314 2.214,-1.976 0.364,-0.328 0.755,-0.367 1.019,-0.103 0.271,0.268 0.218,0.695 -0.136,1.052 -1.903,1.919 -4.011,3.584 -6.274,5.056 -0.371,0.238 -0.784,0.407 -1.261,0.652ZM58.414,15.984c-0.202,0.367 -0.328,0.672 -0.52,0.927 -1.118,1.479 -2.254,2.949 -3.389,4.418 -0.357,0.463 -0.91,0.49 -1.228,0.089 -0.262,-0.334 -0.083,-0.599 0.112,-0.854 0.384,-0.503 0.784,-0.993 1.171,-1.492 0.84,-1.099 1.678,-2.201 2.515,-3.299 0.063,-0.083 0.132,-0.199 0.218,-0.222 0.212,-0.063 0.467,-0.162 0.645,-0.093 0.185,0.069 0.301,0.321 0.473,0.526ZM13.507,21.093c-0.139,0.185 -0.238,0.41 -0.41,0.526 -0.245,0.166 -0.543,0.156 -0.754,-0.089 -0.387,-0.447 -0.765,-0.904 -1.125,-1.373 -0.87,-1.138 -1.727,-2.29 -2.588,-3.438 -0.086,-0.116 -0.159,-0.242 -0.225,-0.371 -0.192,-0.377 -0.122,-0.665 0.208,-0.877 0.295,-0.189 0.625,-0.119 0.867,0.199 0.96,1.251 1.916,2.508 2.876,3.759 0.288,0.374 0.599,0.735 0.88,1.115 0.106,0.142 0.159,0.318 0.271,0.549Z" fill-opacity="0.1607843137254902"/><path fill="#365E32" d="M58.718,20.299c-0.126,0.228 -0.182,0.42 -0.308,0.549 -1.317,1.387 -2.647,2.763 -3.974,4.136 -0.347,0.357 -0.794,0.457 -1.046,0.242 -0.294,-0.248 -0.364,-0.556 -0.122,-0.874 0.308,-0.41 0.642,-0.804 1.003,-1.171 1.072,-1.099 2.164,-2.174 3.243,-3.27 0.258,-0.261 0.569,-0.242 0.841,-0.132 0.152,0.069 0.232,0.324 0.364,0.52ZM8.619,19.654c0.192,0.109 0.42,0.185 0.573,0.338 1.009,0.989 2.005,1.989 2.995,3.001 0.377,0.384 0.725,0.801 1.069,1.214 0.255,0.304 0.232,0.781 -0.023,0.996 -0.278,0.238 -0.619,0.202 -0.937,-0.129 -1.377,-1.423 -2.747,-2.849 -4.117,-4.276 -0.208,-0.215 -0.298,-0.443 -0.162,-0.751 0.116,-0.258 0.281,-0.364 0.602,-0.394Z" fill-opacity="0.1607843137254902"/><path fill="#030303" d="M53.44,24.224c0.056,-1.43 -0.046,-2.843 -0.43,-4.229 -0.271,-0.98 -0.771,-1.843 -1.363,-2.657 -0.159,-0.218 -0.407,-0.371 -0.592,-0.576 -0.377,-0.41 -0.884,-0.718 -1.277,-1.125 -0.096,-0.099 -0.199,-1.211 -0.199,-1.211s0.95,0.536 1.357,0.473c0.361,-0.053 0.923,0.238 0.923,0.837 0,0.126 0.553,0.688 0.715,0.841 0.559,0.52 0.612,0.748 0.91,1.135 0.182,0.242 0.354,0.291 0.516,0.589 0.142,0.261 0.189,0.665 0.271,0.844 0.261,0.582 0.453,1.039 0.533,1.423 0.242,1.128 0.202,1.254 0.268,1.754 -0.023,0.457 0,0.682 0,1.142 0,0.182 0.222,0.536 0.268,0.718 0.113,0.255 0.268,0.49 0.381,0.748 0.179,0.4 0.314,0.771 0.493,1.168 0.238,0.635 0.516,1.158 0.754,1.794 0.103,0.271 0.222,0.536 0.301,0.814 0.126,0.434 -0.043,0.771 -0.42,0.894 -0.344,0.112 -0.635,-0.079 -0.824,-0.486 -0.354,-0.761 -0.728,-1.512 -1.095,-2.267 -0.235,-0.377 -0.47,-0.754 -0.705,-1.128 -0.083,-0.126 -0.169,-0.252 -0.252,-0.377 -0.182,-0.367 -0.357,-0.741 -0.533,-1.115ZM12.984,24.105c-0.056,-1.43 0.046,-2.843 0.43,-4.229 0.271,-0.979 0.771,-1.843 1.363,-2.657 0.159,-0.218 0.407,-0.371 0.592,-0.576 0.377,-0.41 0.884,-0.718 1.277,-1.125 0.096,-0.099 1.214,-1.42 1.214,-1.42s-1.966,0.741 -2.373,0.682c-0.361,-0.053 -0.923,0.238 -0.923,0.837 0,0.126 -0.553,0.688 -0.715,0.841 -0.559,0.52 -0.612,0.748 -0.91,1.135 -0.182,0.242 -0.354,0.291 -0.516,0.589 -0.142,0.261 -0.189,0.665 -0.271,0.844 -0.261,0.582 -0.453,1.039 -0.533,1.423 -0.242,1.128 -0.202,1.254 -0.268,1.754 0.023,0.457 0,0.682 0,1.142 0,0.182 -0.222,0.536 -0.268,0.718 -0.112,0.255 -0.268,0.49 -0.38,0.748 -0.179,0.4 -0.314,0.771 -0.493,1.168 -0.238,0.635 -0.516,1.158 -0.755,1.794 -0.103,0.271 -0.109,0.53 -0.189,0.808 -0.126,0.433 -0.069,0.778 0.308,0.9 0.344,0.112 0.635,-0.079 0.824,-0.486 0.354,-0.761 0.728,-1.512 1.095,-2.267 0.235,-0.377 0.47,-0.754 0.705,-1.128 0.083,-0.126 0.169,-0.252 0.252,-0.377 0.182,-0.367 0.357,-0.741 0.533,-1.115Z"/><path fill="#EDB338" d="M35.03,59.921h-3.495c-0.109,-0.03 -0.215,-0.069 -0.328,-0.086 -0.94,-0.142 -1.893,-0.228 -2.819,-0.43 -10.021,-2.181 -17.357,-10.087 -18.793,-20.216 -0.063,-0.45 -0.146,-0.897 -0.218,-1.347v-3.733c0.03,-0.093 0.079,-0.185 0.089,-0.281 0.169,-1.688 0.48,-3.349 0.989,-4.97 3.716,-11.864 15.769,-18.883 27.95,-16.282 12.814,2.74 21.1,15.517 18.363,28.321 -2.128,9.958 -10.11,17.38 -20.226,18.803 -0.506,0.073 -1.009,0.149 -1.512,0.222Z"/><path fill="#E9DBBD" d="M34.613,60.053h-2.78c-0.073,-0.026 -0.146,-0.069 -0.218,-0.073 -1.602,-0.06 -3.16,-0.371 -4.706,-0.784 -2.161,-0.576 -4.176,-1.486 -6.079,-2.647 -2.24,-1.367 -4.196,-3.061 -5.891,-5.073 -1.903,-2.263 -3.309,-4.805 -4.309,-7.578 -0.546,-1.519 -0.864,-3.098 -1.099,-4.689 -0.05,-0.328 -0.026,-0.705 0.089,-1.013 0.741,-2.009 1.873,-3.786 3.326,-5.354 1.579,-1.701 3.418,-3.074 5.45,-4.186 4.362,-2.393 9.074,-3.481 14.008,-3.601 1.731,-0.043 3.475,0.136 5.202,0.298 2.359,0.222 4.646,0.814 6.86,1.641 3.627,1.36 6.877,3.309 9.458,6.264 1.228,1.41 2.217,2.958 2.872,4.716 0.116,0.308 0.262,0.632 0.252,0.947 -0.016,0.563 -0.112,1.125 -0.225,1.681 -0.424,2.075 -1.052,4.087 -1.989,5.993 -1.363,2.77 -3.177,5.199 -5.477,7.271 -2.075,1.87 -4.388,3.346 -6.969,4.405 -2.088,0.857 -4.249,1.43 -6.499,1.638 -0.424,0.033 -0.85,0.093 -1.277,0.146Z" stroke="#000" stroke-width="0.7"/><path fill="#EDB439" d="M12.236,22.116c0.076,-0.364 0.159,-0.728 0.228,-1.095 0.503,-2.585 2.853,-5.752 6.354,-6.264 0.96,-0.142 1.942,-0.235 2.912,0.053 0.831,0.245 1.089,0.808 0.728,1.602 -0.036,0.079 -0.046,0.175 -0.05,0.265 -0.023,0.513 -0.195,0.798 -0.708,0.913 -0.937,0.215 -1.886,0.364 -2.829,0.556 -0.798,0.162 -1.476,0.539 -1.995,1.185 -0.166,0.205 -0.381,0.381 -0.513,0.602 -0.208,0.354 -0.387,0.731 -0.546,1.112 -0.195,0.47 -0.361,0.95 -0.53,1.433 -0.043,0.123 -0.089,0.281 -0.043,0.384 0.344,0.798 0.06,1.324 -0.834,1.433 -0.083,0.626 -0.152,1.264 -0.261,1.896 -0.103,0.599 -0.46,0.903 -0.943,0.857 -0.467,-0.046 -0.811,-0.46 -0.814,-1.009 -0.003,-0.275 0.007,-0.556 0.056,-0.827 0.155,-0.841 -0.066,-1.661 -0.208,-2.455 -0.026,-0.218 -0.023,-0.43 -0.003,-0.639ZM52.083,24.303c-0.92,-0.152 -1.175,-0.629 -0.827,-1.463 0.04,-0.096 0.017,-0.261 -0.046,-0.347 -0.331,-0.483 -0.496,-1.013 -0.546,-1.592 -0.01,-0.129 -0.043,-0.271 -0.116,-0.374 -0.629,-0.937 -1.297,-1.867 -2.416,-2.247 -0.692,-0.235 -1.443,-0.308 -2.164,-0.453 -0.427,-0.086 -0.86,-0.139 -1.274,-0.268 -0.394,-0.122 -0.632,-0.414 -0.622,-0.867 0.003,-0.112 -0.03,-0.235 -0.079,-0.334 -0.331,-0.655 -0.093,-1.33 0.629,-1.496 0.659,-0.152 1.354,-0.208 2.032,-0.199 1.923,0.026 3.594,0.738 4.951,2.085 1.241,1.228 2.161,2.674 2.445,4.438 0.142,0.887 0.189,1.767 -0.079,2.664 -0.122,0.41 0.043,0.907 0.073,1.367 0.02,0.301 0.053,0.606 0.043,0.907 -0.016,0.49 -0.384,0.877 -0.824,0.913 -0.447,0.036 -0.827,-0.255 -0.913,-0.754 -0.106,-0.645 -0.175,-1.301 -0.265,-1.979Z"/><path fill="#050505" d="M49.045,20.312c0,0.265 -0.066,0.467 -0.208,0.741 -0.212,0.4 -0.599,0.477 -1.023,0.42 -0.391,-0.053 -0.53,-0.344 -0.559,-0.669 -0.04,-0.4 -0.05,-0.814 0,-1.214 0.053,-0.443 0.44,-0.731 0.887,-0.751 0.397,-0.016 0.735,0.245 0.85,0.685 0.053,0.202 0.096,0.503 0.053,0.788ZM19.46,20.143c-0.026,0.235 -0.03,0.437 -0.073,0.629 -0.079,0.364 -0.294,0.629 -0.669,0.702 -0.404,0.079 -0.738,-0.083 -0.933,-0.447 -0.298,-0.559 -0.298,-1.148 -0.043,-1.718 0.146,-0.328 0.42,-0.513 0.798,-0.467 0.394,0.05 0.711,0.235 0.831,0.632 0.069,0.225 0.066,0.47 0.089,0.669Z"/><path fill="#DAA22C" d="M8.351,34.535c0.516,-0.579 1.056,-0.903 1.645,-1.357 0.291,-0.225 0.682,-0.166 0.9,0.079 0.225,0.255 0.225,0.675 -0.076,0.923 -0.516,0.427 -1.056,0.834 -1.618,1.195 -0.394,0.252 -0.665,0.013 -0.874,-0.212 -0.113,-0.185 -0.079,-0.407 0.023,-0.629Z"/><path fill="#DAA22D" d="M28.908,24.601c-0.371,-0.606 -0.367,-1.218 -0.033,-1.837 0.314,-0.579 0.804,-0.85 1.456,-0.847 1.995,0.003 3.991,0.033 5.983,-0.007 1.38,-0.026 2.138,1.625 1.423,2.694 -0.166,-0.559 -0.543,-0.791 -1.023,-0.629 -0.112,0.036 -0.222,0.079 -0.331,0.122 -0.007,-0.066 -0.013,-0.132 -0.013,-0.199 0,-0.626 -0.374,-0.622 -0.811,-0.582 -0.857,0.076 -1.479,0.05 -2.336,0.05 -0.675,0 -1.228,-0.05 -1.903,-0.043 -0.708,0.01 -1.049,-0.228 -1.056,0.778 -0.063,-0.02 -0.126,-0.03 -0.185,-0.056 -0.599,-0.252 -0.983,-0.066 -1.171,0.556Z"/><path fill="#CAB994" d="M28.908,24.601c0.189,-0.626 0.572,-0.808 1.168,-0.559 0.06,0.026 0.126,0.036 0.185,0.056 0.47,0.102 0.94,0.278 1.413,0.298 1.095,0.046 2.197,0.046 3.293,0 0.477,-0.02 0.943,-0.195 1.416,-0.298 0.109,-0.04 0.218,-0.083 0.331,-0.123 0.48,-0.166 0.857,0.069 1.023,0.629 0.089,0.513 -0.347,0.834 -1.039,0.989 -0.599,0.132 -1.231,0.156 -1.85,0.156 -1.453,0 -2.906,-0.02 -4.358,-0.079 -0.381,-0.017 -0.761,-0.179 -1.128,-0.314 -0.328,-0.126 -0.496,-0.387 -0.453,-0.754Z"/><path fill="#DAA22C" d="M42.456,24.452c-0.536,0.013 -0.814,-0.202 -0.87,-0.553 -0.053,-0.318 0.149,-0.649 0.526,-0.735 0.592,-0.136 1.195,-0.222 1.794,-0.328 0.208,-0.036 0.414,-0.093 0.622,-0.112 0.38,-0.033 0.678,0.179 0.741,0.51 0.066,0.334 -0.116,0.678 -0.48,0.761 -0.824,0.189 -1.658,0.328 -2.333,0.457ZM24.176,24.449c-0.662,-0.126 -1.483,-0.265 -2.293,-0.443 -0.377,-0.083 -0.563,-0.404 -0.51,-0.741 0.053,-0.338 0.347,-0.589 0.718,-0.533 0.811,0.119 1.618,0.262 2.416,0.43 0.407,0.086 0.612,0.417 0.549,0.751 -0.066,0.347 -0.344,0.556 -0.88,0.536Z"/><path fill="#CABA95" d="M38.29,48.319c0.007,0.463 -0.182,0.741 -0.543,0.794 -0.361,0.053 -0.672,-0.159 -0.745,-0.599 -0.119,-0.728 -0.212,-1.459 -0.271,-2.194 -0.036,-0.43 0.268,-0.748 0.635,-0.774 0.374,-0.026 0.635,0.192 0.698,0.652 0.089,0.705 0.149,1.413 0.225,2.121ZM28.961,49.116c-0.334,-0.013 -0.619,-0.258 -0.596,-0.612 0.056,-0.827 0.142,-1.655 0.252,-2.475 0.043,-0.334 0.391,-0.526 0.718,-0.477 0.347,0.053 0.616,0.387 0.579,0.784 -0.063,0.695 -0.136,1.39 -0.238,2.082 -0.069,0.47 -0.344,0.711 -0.715,0.698ZM12.071,39.506c-0.016,-0.275 0.139,-0.437 0.235,-0.566 0.41,-0.563 0.827,-1.125 1.264,-1.668 0.281,-0.354 0.675,-0.407 0.973,-0.172 0.291,0.228 0.328,0.632 0.066,0.989 -0.41,0.563 -0.834,1.119 -1.258,1.671 -0.205,0.268 -0.5,0.407 -0.798,0.261 -0.205,-0.093 -0.434,-0.271 -0.483,-0.516ZM54.539,39.539c-0.053,0.195 -0.238,0.404 -0.427,0.467 -0.199,0.066 -0.556,0.013 -0.675,-0.129 -0.533,-0.629 -1.026,-1.301 -1.492,-1.982 -0.192,-0.278 -0.102,-0.599 0.179,-0.804 0.278,-0.205 0.609,-0.205 0.824,0.056 0.52,0.629 0.996,1.287 1.479,1.946 0.063,0.089 0.139,0.222 0.112,0.447Z"/><path fill="#CABA94" d="M43.032,43.649c-0.036,0.311 -0.278,0.4 -0.5,0.506 -0.288,0.136 -0.546,-0.043 -0.705,-0.291 -0.149,-0.232 -0.258,-0.49 -0.384,-0.738 -0.212,-0.424 -0.433,-0.847 -0.635,-1.274 -0.182,-0.387 -0.083,-0.774 0.218,-0.933 0.354,-0.189 0.745,-0.053 0.96,0.354 0.321,0.619 0.404,0.788 0.711,1.413 0.06,0.129 0.334,0.619 0.334,0.963ZM24.394,44.185c-0.51,0.01 -0.903,-0.407 -0.751,-0.761 0.338,-0.798 0.728,-1.575 1.148,-2.333 0.162,-0.294 0.513,-0.324 0.814,-0.172 0.311,0.159 0.424,0.467 0.288,0.771 -0.338,0.745 -0.705,1.473 -1.092,2.191 -0.093,0.159 -0.238,0.255 -0.407,0.304Z"/><path fill="#CABA95" d="M34.071,41.822c-0.023,0.361 -0.04,0.781 -0.073,1.201 -0.033,0.39 -0.298,0.619 -0.682,0.615 -0.381,-0.003 -0.639,-0.238 -0.665,-0.635 -0.033,-0.566 -0.063,-1.128 -0.069,-1.694 -0.007,-0.52 0.248,-0.771 0.735,-0.774 0.506,-0.003 0.751,0.252 0.758,0.794 -0.003,0.142 -0.003,0.288 -0.003,0.493Z"/><path fill="#DAA22C" d="M47.814,25.538c0.615,0.103 1.294,0.268 2.002,0.463 0.344,0.096 0.437,0.41 0.414,0.725 -0.023,0.294 -0.377,0.569 -0.701,0.51 -0.725,-0.132 -1.446,-0.291 -2.151,-0.493 -0.314,-0.089 -0.48,-0.381 -0.41,-0.725 0.076,-0.354 0.305,-0.533 0.847,-0.48ZM18.825,25.504c0.513,-0.003 0.808,0.208 0.854,0.523 0.053,0.347 -0.106,0.635 -0.424,0.725 -0.711,0.199 -1.433,0.361 -2.161,0.483 -0.334,0.056 -0.602,-0.182 -0.669,-0.5 -0.069,-0.314 0.06,-0.632 0.4,-0.731 0.711,-0.202 1.433,-0.357 1.999,-0.5Z"/><path fill="#CABA94" d="M38.121,57.363c0,-0.559 0.202,-0.821 0.523,-0.864 0.371,-0.05 0.662,0.119 0.751,0.48 0.166,0.662 0.321,1.33 0.46,1.999 0.076,0.361 -0.149,0.725 -0.467,0.821 -0.288,0.086 -0.672,-0.073 -0.761,-0.397 -0.205,-0.731 -0.367,-1.473 -0.506,-2.039ZM28.604,57.244c-0.169,0.705 -0.321,1.413 -0.513,2.111 -0.096,0.344 -0.49,0.539 -0.778,0.453 -0.285,-0.083 -0.539,-0.46 -0.473,-0.788 0.139,-0.698 0.298,-1.393 0.477,-2.082 0.086,-0.338 0.44,-0.52 0.788,-0.424 0.354,0.093 0.5,0.354 0.5,0.728Z"/><path fill="#DAA22C" d="M47.956,23.866c-0.238,0 -0.675,-0.189 -0.738,-0.53 -0.06,-0.324 0.152,-0.635 0.506,-0.748 0.539,-0.169 1.082,-0.338 1.622,-0.503 0.48,-0.146 0.807,-0.016 0.94,0.364 0.132,0.377 -0.04,0.688 -0.506,0.86 -0.602,0.225 -1.092,0.52 -1.823,0.556Z"/><path fill="#CABA95" d="M47.672,30.405c-0.126,-0.033 -0.265,-0.046 -0.374,-0.109 -0.526,-0.301 -1.056,-0.606 -1.569,-0.93 -0.354,-0.225 -0.45,-0.606 -0.268,-0.923 0.166,-0.288 0.559,-0.407 0.91,-0.215 0.569,0.311 1.125,0.642 1.668,0.993 0.255,0.166 0.417,0.427 0.288,0.751 -0.109,0.285 -0.324,0.443 -0.655,0.433Z"/><path fill="#CABA94" d="M18.332,30.167c-0.248,-0.285 -0.033,-0.721 0.195,-0.87 0.606,-0.397 1.224,-0.781 1.866,-1.112 0.285,-0.146 0.609,-0.043 0.791,0.265 0.179,0.308 0.116,0.639 -0.149,0.821 -0.576,0.394 -1.241,0.821 -1.714,1.066 -0.166,0.086 -0.688,0.179 -0.989,-0.169Z"/><path fill="#CABA95" d="M47.103,55.864c0,0.159 0.02,0.321 -0.003,0.477 -0.056,0.341 -0.258,0.546 -0.609,0.569 -0.357,0.023 -0.599,-0.162 -0.652,-0.503 -0.099,-0.639 -0.182,-1.281 -0.222,-1.926 -0.03,-0.47 0.238,-0.748 0.626,-0.764 0.41,-0.017 0.639,0.208 0.701,0.692 0.063,0.483 0.123,0.966 0.185,1.453 -0.01,0 -0.02,0.003 -0.026,0.003ZM19.517,55.857c0.063,-0.51 0.119,-1.023 0.195,-1.529 0.06,-0.407 0.294,-0.606 0.655,-0.609 0.391,-0.003 0.586,0.222 0.635,0.572 0.026,0.202 -0.01,0.417 -0.026,0.622 -0.04,0.447 -0.066,0.893 -0.129,1.337 -0.066,0.463 -0.318,0.682 -0.688,0.659 -0.377,-0.026 -0.619,-0.324 -0.622,-0.774v-0.278h-0.02Z"/><path fill="#DAA22C" d="M18.633,23.863c-0.698,-0.136 -1.354,-0.381 -2.012,-0.675 -0.261,-0.116 -0.414,-0.391 -0.285,-0.738 0.123,-0.334 0.371,-0.427 0.682,-0.41 0.156,0.01 0.308,0.056 0.46,0.103 0.467,0.142 0.93,0.294 1.393,0.437 0.384,0.116 0.612,0.417 0.556,0.751 -0.063,0.357 -0.334,0.533 -0.794,0.533Z"/><path fill="#CABA94" d="M19.414,42.269c0.007,0.242 -0.136,0.579 -0.235,0.791 -0.199,0.433 -0.407,0.86 -0.629,1.281 -0.218,0.414 -0.553,0.52 -0.96,0.324 -0.268,-0.129 -0.381,-0.51 -0.225,-0.867 0.245,-0.569 0.493,-1.138 0.774,-1.691 0.142,-0.281 0.381,-0.483 0.741,-0.391 0.344,0.086 0.473,0.271 0.533,0.553Z"/><path fill="#CAB994" d="M49.336,44.092c0.033,0.334 -0.155,0.52 -0.437,0.629 -0.298,0.112 -0.582,0.023 -0.721,-0.242 -0.324,-0.615 -0.626,-1.248 -0.89,-1.893 -0.136,-0.331 0.063,-0.708 0.357,-0.834 0.351,-0.149 0.652,-0.02 0.811,0.285 0.314,0.606 0.579,1.238 0.86,1.863 0.023,0.053 0.013,0.126 0.02,0.192Z"/><path fill="#DAA22D" d="M58.377,34.724c-0.007,0.559 -0.513,0.903 -0.9,0.662 -0.589,-0.367 -1.148,-0.791 -1.684,-1.234 -0.271,-0.225 -0.281,-0.563 -0.066,-0.86 0.192,-0.265 0.592,-0.334 0.89,-0.126 0.506,0.357 1.003,0.731 1.479,1.125 0.149,0.122 0.222,0.338 0.281,0.433Z"/><path fill="#CABA94" d="M53.155,44.099c0,-0.185 0.255,-0.424 0.447,-0.483 0.199,-0.063 0.553,-0.01 0.678,0.136 0.45,0.513 0.854,1.072 1.234,1.641 0.199,0.298 0.086,0.662 -0.185,0.84 -0.298,0.192 -0.606,0.166 -0.827,-0.096 -0.417,-0.493 -0.804,-1.013 -1.185,-1.536 -0.079,-0.109 -0.192,-0.305 -0.162,-0.503ZM13.49,44.136c-0.023,0.252 -0.103,0.384 -0.182,0.496 -0.367,0.5 -0.738,0.996 -1.135,1.473 -0.228,0.275 -0.539,0.321 -0.854,0.126 -0.275,-0.169 -0.391,-0.539 -0.192,-0.837 0.377,-0.569 0.781,-1.132 1.234,-1.638 0.132,-0.149 0.503,-0.192 0.711,-0.126 0.185,0.06 0.371,0.288 0.417,0.506Z"/><path fill="#CABA95" d="M41.192,34.916c-0.056,-0.301 0.113,-0.546 0.41,-0.632 0.294,-0.083 0.602,-0.063 0.768,0.238 0.328,0.599 0.629,1.211 0.933,1.827 0.142,0.288 0.003,0.516 -0.222,0.688 -0.242,0.185 -0.563,0.235 -0.751,0.01 -0.53,-0.625 -1.069,-1.837 -1.138,-2.131Z"/><path fill="#CABA94" d="M24.672,34.254c0.606,0 0.923,0.45 0.701,0.94 -0.265,0.589 -0.582,1.158 -0.913,1.714 -0.182,0.308 -0.506,0.344 -0.831,0.166 -0.321,-0.175 -0.437,-0.463 -0.275,-0.804 0.275,-0.572 0.563,-1.138 0.887,-1.684 0.106,-0.175 0.245,-0.301 0.43,-0.331ZM45.309,48.888c-0.354,0.003 -0.616,-0.189 -0.662,-0.543 -0.066,-0.536 -0.119,-1.072 -0.149,-1.612 -0.023,-0.48 0.261,-0.814 0.659,-0.837 0.367,-0.02 0.642,0.298 0.678,0.768 0.036,0.473 0.083,0.943 0.126,1.413 0.043,0.473 -0.225,0.804 -0.652,0.811Z"/><path fill="#CABA95" d="M22.147,46.733c-0.046,0.496 -0.076,0.996 -0.139,1.489 -0.066,0.516 -0.338,0.731 -0.784,0.662 -0.341,-0.053 -0.572,-0.424 -0.533,-0.847 0.04,-0.457 0.083,-0.917 0.119,-1.373 0.036,-0.463 0.308,-0.781 0.678,-0.774 0.367,0.003 0.659,0.374 0.659,0.844ZM43.284,29.777c0.215,-0.06 0.473,0.016 0.599,0.169 0.407,0.496 0.748,1.046 1.082,1.598 0.172,0.285 0.066,0.572 -0.189,0.771 -0.245,0.192 -0.576,0.218 -0.761,-0.01 -0.433,-0.539 -0.751,-1.049 -1.138,-1.625 -0.126,-0.222 -0.113,-0.4 -0.06,-0.506 0.116,-0.291 0.281,-0.347 0.467,-0.397Z"/><path fill="#DAA22B" d="M52.977,18.154c0.308,-0.016 0.539,0.003 0.711,0.338 0.06,0.195 0.013,0.453 -0.063,0.652 -0.046,0.116 -0.235,0.212 -0.377,0.248 -0.536,0.132 -1.076,0.245 -1.618,0.347 -0.417,0.079 -0.665,-0.063 -0.788,-0.407 -0.103,-0.294 0.046,-0.675 0.407,-0.804 0.549,-0.199 1.171,-0.291 1.727,-0.374Z"/><path fill="#DAA22C" d="M13.755,18.105c0.576,0.069 1.102,0.205 1.625,0.4 0.506,0.189 0.635,0.778 0.245,1.069 -0.185,0.139 -0.516,0.149 -0.768,0.119 -0.414,-0.046 -0.817,-0.185 -1.228,-0.268 -0.523,-0.106 -0.804,-0.371 -0.751,-0.738 0.056,-0.384 0.301,-0.582 0.877,-0.582Z"/><path fill="#CABA95" d="M23.911,30.237c0.04,0.205 -0.079,0.387 -0.132,0.47 -0.344,0.516 -0.675,1.039 -1.059,1.526 -0.208,0.265 -0.53,0.295 -0.824,0.106 -0.258,-0.162 -0.367,-0.563 -0.195,-0.844 0.324,-0.53 0.652,-1.059 1.049,-1.532 0.129,-0.156 0.496,-0.228 0.702,-0.166 0.195,0.056 0.341,0.202 0.46,0.44Z"/><path fill="#CAB994" d="M10.886,38.649c0,0.281 -0.129,0.377 -0.228,0.486 -0.367,0.414 -0.745,0.817 -1.138,1.204 -0.347,0.341 -0.682,0.347 -0.973,0.06 -0.301,-0.294 -0.295,-0.649 0.043,-1.009 0.361,-0.384 0.711,-0.788 1.122,-1.112 0.182,-0.142 0.523,-0.189 0.755,-0.129 0.172,0.043 0.384,0.321 0.42,0.5ZM17.634,32.166c0,0.255 -0.166,0.374 -0.275,0.496 -0.357,0.407 -0.728,0.804 -1.102,1.195 -0.304,0.314 -0.589,0.334 -0.91,0.089 -0.291,-0.218 -0.361,-0.52 -0.086,-0.867 0.391,-0.493 0.821,-0.963 1.291,-1.383 0.142,-0.126 0.49,-0.119 0.695,-0.043 0.166,0.069 0.364,0.298 0.387,0.513ZM56.362,38.023c0.291,-0.016 0.46,0.139 0.596,0.265 0.384,0.357 0.754,0.735 1.109,1.125 0.298,0.328 0.314,0.645 0.099,0.927 -0.245,0.314 -0.642,0.367 -0.97,0.06 -0.433,-0.404 -0.85,-0.831 -1.214,-1.294 -0.126,-0.159 -0.142,-0.483 -0.076,-0.692 0.053,-0.169 0.218,-0.311 0.457,-0.391Z"/><path fill="#CABA94" d="M49.69,31.511c0.371,0 0.513,0.212 0.688,0.387 0.354,0.351 0.685,0.735 0.989,1.132 0.285,0.367 0.232,0.645 -0.106,0.93 -0.281,0.235 -0.569,0.212 -0.87,-0.099 -0.387,-0.397 -0.761,-0.808 -1.132,-1.221 -0.195,-0.215 -0.261,-0.483 -0.099,-0.728 0.113,-0.165 0.235,-0.344 0.53,-0.4Z"/><path fill="#CABA95" d="M17.696,38.146c0.04,-0.139 0.069,-0.281 0.119,-0.414 0.159,-0.433 0.321,-0.867 0.493,-1.294 0.139,-0.341 0.473,-0.503 0.804,-0.414 0.298,0.083 0.553,0.46 0.45,0.781 -0.179,0.563 -0.387,1.122 -0.635,1.658 -0.149,0.321 -0.49,0.447 -0.808,0.294 -0.202,-0.096 -0.443,-0.232 -0.424,-0.612ZM48.899,38.159c0.036,0.291 -0.175,0.506 -0.377,0.602 -0.298,0.139 -0.642,0.03 -0.784,-0.275 -0.262,-0.559 -0.49,-1.138 -0.665,-1.727 -0.089,-0.301 0.106,-0.579 0.394,-0.705 0.275,-0.119 0.609,-0.083 0.741,0.189 0.298,0.609 0.569,1.38 0.692,1.916Z"/><path fill="#DAA22C" d="M28.415,13.452c0.01,0.126 -0.026,0.357 -0.248,0.513 -0.175,0.119 -0.543,0.01 -0.635,-0.142 -0.328,-0.533 -0.589,-1.109 -0.824,-1.691 -0.103,-0.258 0.01,-0.569 0.291,-0.655 0.222,-0.066 0.629,-0.079 0.715,0.046 0.381,0.579 0.625,1.304 0.702,1.929ZM39.951,12.075c-0.007,0.033 -0.017,0.142 -0.056,0.235 -0.199,0.444 -0.394,0.89 -0.619,1.324 -0.202,0.387 -0.559,0.523 -0.884,0.38 -0.344,-0.152 -0.483,-0.523 -0.301,-0.94 0.208,-0.483 0.437,-0.956 0.692,-1.416 0.159,-0.285 0.443,-0.361 0.758,-0.255 0.281,0.093 0.417,0.301 0.41,0.672Z"/><path fill="#CABA95" d="M40.832,51.442c0.003,-0.453 0.156,-0.698 0.496,-0.781 0.364,-0.089 0.659,0.073 0.761,0.407 0.169,0.553 0.305,1.122 0.377,1.694 0.04,0.308 -0.139,0.596 -0.5,0.665 -0.371,0.069 -0.645,-0.109 -0.751,-0.437 -0.169,-0.539 -0.275,-1.099 -0.384,-1.549Z"/><path fill="#DAA22C" d="M55.826,30.299c0.427,0.152 1.013,0.318 1.555,0.572 0.294,0.136 0.463,0.44 0.288,0.801 -0.162,0.341 -0.433,0.43 -0.788,0.324 -0.503,-0.152 -1.016,-0.278 -1.506,-0.457 -0.334,-0.122 -0.496,-0.404 -0.4,-0.764 0.093,-0.341 0.351,-0.483 0.85,-0.477Z"/><path fill="#CABA95" d="M25.9,51.684c-0.106,0.43 -0.218,0.999 -0.397,1.549 -0.119,0.357 -0.48,0.496 -0.804,0.394 -0.278,-0.086 -0.493,-0.437 -0.434,-0.764 0.089,-0.493 0.195,-0.983 0.324,-1.466 0.102,-0.387 0.424,-0.586 0.771,-0.53 0.328,0.05 0.539,0.314 0.539,0.817Z"/><path fill="#DAA32D" d="M42.695,19.495c0.02,0.602 -1.039,1.83 -1.469,1.906 -0.331,0.033 -0.553,-0.099 -0.645,-0.255 -0.106,-0.175 -0.119,-0.52 -0.013,-0.682 0.294,-0.447 0.645,-0.867 1.033,-1.241 0.146,-0.139 0.477,-0.199 0.675,-0.139 0.195,0.06 0.391,0.248 0.42,0.41Z"/><path fill="#DAA22D" d="M10.826,30.296c0.513,0.003 0.751,0.162 0.837,0.5 0.083,0.328 -0.06,0.609 -0.351,0.715 -0.563,0.208 -1.142,0.387 -1.731,0.516 -0.285,0.063 -0.52,-0.103 -0.629,-0.417 -0.119,-0.344 0.03,-0.612 0.295,-0.731 0.559,-0.248 1.152,-0.427 1.579,-0.582Z"/><path fill="#CABA95" d="M29.468,32.543c0,-0.238 -0.01,-0.477 0.003,-0.715 0.017,-0.354 0.255,-0.625 0.586,-0.635 0.318,-0.01 0.632,0.139 0.655,0.457 0.05,0.639 0.093,1.76 -0.007,1.946 -0.086,0.255 -0.42,0.367 -0.649,0.394 -0.305,0.033 -0.543,-0.215 -0.582,-0.539 -0.036,-0.298 -0.007,-0.606 -0.007,-0.907Z"/><path fill="#DAA22D" d="M24.702,19.018c0.093,0.06 0.308,0.146 0.45,0.298 0.308,0.324 0.586,0.675 0.864,1.026 0.258,0.328 0.242,0.675 -0.026,0.923 -0.262,0.242 -0.645,0.261 -0.923,-0.026 -0.364,-0.377 -0.711,-0.781 -1.006,-1.214 -0.295,-0.447 0.01,-0.989 0.642,-1.006Z"/><path fill="#CBBA95" d="M37.195,32.374c0,0.328 0.026,0.655 -0.007,0.98 -0.043,0.41 -0.331,0.668 -0.659,0.662 -0.331,-0.01 -0.596,-0.281 -0.629,-0.685 -0.036,-0.443 -0.076,-0.893 -0.053,-1.337 0.033,-0.662 0.559,-1.006 1.026,-0.678 0.149,0.102 0.242,0.324 0.295,0.513 0.046,0.166 0.02,0.546 0.026,0.546Z"/><path fill="#CABA95" d="M34.061,35.277c0.003,0.503 -0.278,0.811 -0.718,0.821 -0.46,0.01 -0.758,-0.298 -0.758,-0.821 0,-0.42 0.03,-0.844 0.06,-1.264 0.026,-0.347 0.301,-0.553 0.698,-0.546 0.371,0.007 0.572,0.152 0.668,0.404 0.056,0.146 0.053,0.483 0.053,0.609 0.007,0.195 -0.007,0.506 -0.003,0.798Z"/><path fill="#CAB994" d="M32.644,51.763c0,-0.199 -0.003,-0.397 0,-0.596 0.013,-0.463 0.248,-0.708 0.669,-0.711 0.424,-0.003 0.665,0.242 0.685,0.695 0.016,0.41 0.036,0.817 0.05,1.228 0.013,0.447 -0.294,0.784 -0.711,0.791 -0.43,0.007 -0.688,-0.258 -0.698,-0.731 -0.007,-0.225 0,-0.45 0,-0.675h0.007Z"/><path fill="#DAA22C" d="M30.315,18.972c0.291,0 0.46,0.215 0.596,0.391 0.265,0.344 0.483,0.721 0.718,1.089 0.215,0.341 0.185,0.669 -0.076,0.893 -0.268,0.232 -0.678,0.245 -0.923,-0.066 -0.344,-0.444 -0.669,-0.923 -0.907,-1.43 -0.205,-0.43 0.069,-0.794 0.592,-0.877ZM36.305,18.965c0.496,-0.017 0.817,0.467 0.582,0.963 -0.218,0.46 -0.506,0.893 -0.814,1.304 -0.255,0.334 -0.665,0.367 -0.95,0.146 -0.298,-0.228 -0.331,-0.579 -0.089,-0.953 0.228,-0.354 0.437,-0.725 0.695,-1.056 0.139,-0.182 0.328,-0.381 0.576,-0.404Z"/><path fill="#DAA32D" d="M46.57,16.583c-0.606,0.007 -0.92,-0.433 -0.735,-0.864 0.185,-0.433 0.4,-0.86 0.632,-1.274 0.205,-0.371 0.582,-0.48 0.907,-0.308 0.301,0.159 0.42,0.52 0.265,0.893 -0.159,0.374 -0.314,0.761 -0.536,1.099 -0.142,0.222 -0.291,0.4 -0.533,0.453Z"/><path fill="#DAA22D" d="M24.563,14.551c-0.04,0.149 -0.189,0.351 -0.357,0.41 -0.205,0.069 -0.556,0.073 -0.688,-0.056 -0.404,-0.394 -0.771,-0.837 -1.069,-1.314 -0.099,-0.162 -0.017,-0.52 0.102,-0.718 0.146,-0.248 0.503,-0.318 0.698,-0.116 0.463,0.473 0.887,0.92 1.244,1.479 0.06,0.093 0.076,0.195 0.069,0.314Z"/><path fill="#DAA32D" d="M44.214,13.26c-0.036,0.447 -0.976,1.76 -1.36,1.77 -0.208,0.007 -0.486,-0.093 -0.615,-0.242 -0.116,-0.136 -0.162,-0.473 -0.069,-0.612 0.318,-0.48 0.682,-0.943 1.092,-1.347 0.132,-0.129 0.477,-0.112 0.688,-0.063 0.175,0.04 0.285,0.318 0.265,0.493ZM20.777,16.199s-0.112,0.265 -0.291,0.321c-0.215,0.066 -0.616,0.026 -0.705,-0.112 -0.334,-0.523 -0.606,-1.095 -0.824,-1.678 -0.053,-0.136 0.152,-0.467 0.318,-0.559 0.169,-0.093 0.563,-0.086 0.642,0.026 0.271,0.387 0.698,1.248 0.883,1.651 0.079,0.165 -0.023,0.351 -0.023,0.351Z"/><path fill="#DAA22C" d="M51.408,15.636c0.066,0.202 0.043,0.553 -0.093,0.678 -0.41,0.38 -0.877,0.715 -1.357,1.009 -0.248,0.152 -0.549,0.079 -0.748,-0.172 -0.192,-0.242 -0.238,-0.566 -0.023,-0.761 0.447,-0.4 0.904,-0.725 1.403,-1.059 0.112,-0.076 0.285,-0.066 0.344,-0.053 0.129,0.013 0.414,0.179 0.473,0.357ZM15.711,15.209c0.248,0 0.387,0.109 0.5,0.185 0.367,0.255 0.735,0.513 1.082,0.798 0.324,0.268 0.371,0.662 0.152,0.947 -0.208,0.271 -0.586,0.334 -0.927,0.109 -0.384,-0.255 -0.755,-0.53 -1.109,-0.824 -0.238,-0.199 -0.367,-0.49 -0.192,-0.774 0.112,-0.189 0.305,-0.374 0.493,-0.44ZM36.563,11.321c0,0.096 -0.02,0.208 -0.079,0.301 -0.238,0.381 -0.394,0.808 -0.619,1.195 -0.208,0.361 -0.592,0.47 -0.917,0.294 -0.305,-0.162 -0.42,-0.516 -0.248,-0.893 0.192,-0.417 0.404,-0.831 0.645,-1.224 0.172,-0.285 0.483,-0.427 0.788,-0.281 0.205,0.099 0.344,0.255 0.43,0.609ZM31.801,12.539c0.033,0.225 0.007,0.483 -0.185,0.592 -0.268,0.156 -0.579,0.063 -0.738,-0.189 -0.285,-0.457 -0.539,-0.937 -0.751,-1.43 -0.116,-0.265 -0.036,-0.596 0.248,-0.718 0.199,-0.086 0.549,-0.116 0.685,0 0.539,0.447 0.592,1.016 0.741,1.744Z"/><path fill="#DAA32D" d="M12.723,29.184c-0.38,0.003 -0.659,-0.185 -0.715,-0.51 -0.06,-0.338 0.149,-0.659 0.543,-0.758 0.371,-0.096 0.748,-0.192 1.125,-0.202 0.245,-0.007 0.539,0.076 0.728,0.222 0.387,0.305 0.212,0.937 -0.288,1.052 -0.447,0.102 -0.91,0.132 -1.393,0.195ZM53.916,29.184c-0.457,-0.06 -0.917,-0.099 -1.367,-0.192 -0.308,-0.063 -0.516,-0.288 -0.506,-0.626 0.01,-0.328 0.199,-0.615 0.516,-0.599 0.592,0.03 1.195,0.116 1.77,0.262 0.281,0.073 0.371,0.397 0.291,0.701 -0.079,0.295 -0.338,0.453 -0.705,0.453Z"/><path fill="#CAB994" d="M33.998,28.033c0,0.212 0.013,0.424 -0.003,0.632 -0.033,0.434 -0.288,0.675 -0.678,0.675 -0.384,0 -0.645,-0.252 -0.669,-0.685 -0.02,-0.42 -0.02,-0.844 -0.007,-1.267 0.013,-0.384 0.275,-0.602 0.682,-0.602 0.404,0 0.655,0.222 0.675,0.612 0.01,0.212 0.003,0.424 0.003,0.632 0,0.003 0,0.003 -0.003,0.003Z"/><path fill="#CABA95" d="M29.067,40.055c0.079,-0.377 0.149,-0.817 0.268,-1.248 0.113,-0.4 0.457,-0.579 0.831,-0.486 0.321,0.079 0.516,0.424 0.443,0.814 -0.079,0.414 -0.159,0.827 -0.275,1.231 -0.106,0.374 -0.443,0.569 -0.791,0.483 -0.374,-0.093 -0.473,-0.384 -0.477,-0.794Z"/><path fill="#DAA22B" d="M34.008,16.861c0,0.185 0.007,0.371 0,0.556 -0.016,0.404 -0.291,0.678 -0.675,0.682 -0.384,0.007 -0.678,-0.268 -0.692,-0.662 -0.013,-0.384 -0.013,-0.768 0,-1.152 0.013,-0.407 0.291,-0.678 0.675,-0.685 0.387,-0.003 0.669,0.261 0.695,0.665 0.007,0.199 -0.003,0.397 -0.003,0.596Z"/><path fill="#CABA94" d="M37.588,40.052c-0.026,0.46 -0.146,0.735 -0.503,0.798 -0.351,0.063 -0.645,-0.073 -0.751,-0.427 -0.132,-0.453 -0.252,-0.913 -0.311,-1.38 -0.036,-0.305 0.079,-0.609 0.433,-0.715 0.351,-0.106 0.672,0.03 0.794,0.397 0.155,0.473 0.248,0.963 0.338,1.327Z"/><path fill="#CBBA95" d="M34.084,60.199c0.01,0.44 -0.179,0.748 -0.579,0.804 -0.566,0.076 -0.89,-0.179 -0.903,-0.761 -0.01,-0.367 0.016,-0.738 0.069,-1.102 0.053,-0.354 0.324,-0.496 0.655,-0.513 0.347,-0.02 0.642,0.208 0.682,0.533 0.04,0.301 0.046,0.602 0.076,1.039ZM14.817,52.045c-0.506,-0.016 -0.831,-0.457 -0.642,-0.874 0.202,-0.453 0.48,-0.877 0.758,-1.291 0.169,-0.252 0.45,-0.252 0.705,-0.146 0.324,0.136 0.43,0.424 0.384,0.609 -0.126,0.486 -0.533,1.142 -0.9,1.575 -0.089,0.079 -0.238,0.099 -0.304,0.126Z"/><path fill="#CABA95" d="M51.401,49.672c0.208,0.043 0.288,0.159 0.407,0.324 0.228,0.321 0.42,0.668 0.602,1.019 0.189,0.357 0.099,0.748 -0.179,0.917 -0.318,0.192 -0.705,0.119 -0.933,-0.228 -0.245,-0.374 -0.486,-0.758 -0.652,-1.168 -0.182,-0.45 0.142,-0.867 0.754,-0.864Z"/><path fill="#DAA32E" d="M44.72,20.524c-0.556,0.013 -0.893,-0.467 -0.659,-0.913 0.215,-0.414 0.516,-0.794 0.831,-1.145 0.212,-0.235 0.53,-0.248 0.798,-0.06 0.265,0.185 0.397,0.473 0.222,0.761 -0.258,0.427 -0.566,0.824 -0.877,1.211 -0.076,0.096 -0.252,0.119 -0.314,0.146ZM21.323,18.297c0.566,0.003 1.479,1.274 1.294,1.807 -0.149,0.43 -0.711,0.592 -1.033,0.248 -0.328,-0.354 -0.619,-0.758 -0.847,-1.185 -0.225,-0.414 0.116,-0.874 0.586,-0.87ZM53.516,24.756c0.079,0.513 -0.41,0.9 -0.877,0.768 -0.377,-0.106 -0.748,-0.245 -1.109,-0.4 -0.364,-0.159 -0.503,-0.48 -0.391,-0.801 0.112,-0.328 0.414,-0.51 0.794,-0.41 0.404,0.106 0.808,0.248 1.181,0.43 0.185,0.096 0.357,0.262 0.4,0.414Z"/><path fill="#DAA32D" d="M15.598,24.66c-0.06,0.281 -0.305,0.354 -0.523,0.473 -0.331,0.179 -0.702,0.291 -1.066,0.394 -0.367,0.106 -0.721,-0.083 -0.837,-0.404 -0.129,-0.371 0.046,-0.635 0.351,-0.778 0.391,-0.182 0.801,-0.331 1.221,-0.43 0.433,-0.106 0.844,0.189 0.854,0.745ZM52.788,20.901c0.275,0.043 0.642,0.126 0.999,0.245 0.387,0.129 0.549,0.443 0.45,0.801 -0.106,0.374 -0.417,0.477 -0.741,0.447 -0.377,-0.036 -0.748,-0.132 -1.112,-0.238 -0.341,-0.099 -0.53,-0.424 -0.473,-0.728 0.06,-0.334 0.417,-0.556 0.877,-0.526Z"/><path fill="#DAA22C" d="M13.904,20.885c0.5,0.007 0.774,0.222 0.824,0.579 0.046,0.338 -0.185,0.635 -0.582,0.725 -0.308,0.069 -0.615,0.146 -0.93,0.192 -0.404,0.063 -0.735,-0.136 -0.817,-0.46 -0.093,-0.357 0.103,-0.685 0.513,-0.804 0.354,-0.099 0.718,-0.169 0.993,-0.232Z"/><path fill="#CBBA95" d="M38.184,28.321c-0.046,-0.017 -0.225,-0.023 -0.308,-0.116 -0.288,-0.318 -0.576,-0.649 -0.801,-1.009 -0.152,-0.242 -0.056,-0.52 0.169,-0.711 0.238,-0.202 0.543,-0.248 0.761,-0.043 0.324,0.301 0.639,0.639 0.857,1.016 0.235,0.41 -0.103,0.86 -0.678,0.864ZM28.462,28.321c-0.632,-0.007 -0.93,-0.53 -0.632,-0.983 0.202,-0.304 0.453,-0.582 0.715,-0.837 0.245,-0.238 0.556,-0.252 0.831,-0.04 0.275,0.215 0.347,0.523 0.162,0.811 -0.212,0.328 -0.473,0.629 -0.745,0.913 -0.093,0.099 -0.278,0.116 -0.331,0.136Z"/><path fill="#DAA22C" d="M28.097,17.628c0,0.288 -0.218,0.47 -0.41,0.523 -0.208,0.063 -0.556,0.003 -0.705,-0.142 -0.255,-0.252 -0.46,-0.589 -0.569,-0.93 -0.063,-0.202 0.026,-0.559 0.179,-0.695 0.152,-0.132 0.539,-0.179 0.708,-0.076 0.46,0.275 0.725,0.794 0.798,1.32ZM40.256,16.814c-0.01,0.225 -0.301,1.016 -0.741,1.307 -0.159,0.106 -0.523,0.079 -0.678,-0.036 -0.159,-0.116 -0.294,-0.463 -0.232,-0.639 0.136,-0.384 0.361,-0.761 0.635,-1.066 0.119,-0.132 0.48,-0.165 0.675,-0.086 0.261,0.106 0.328,0.341 0.341,0.52Z"/><path fill="#050505" d="M30.761,24.356c-0.391,-0.02 -0.642,-0.245 -0.642,-0.559 0,-0.321 0.278,-0.553 0.695,-0.536 0.804,0.03 1.605,0.099 2.409,0.109 0.698,0.01 1.396,-0.04 2.092,-0.069 0.212,-0.007 0.42,-0.043 0.632,-0.04 0.341,0.007 0.586,0.235 0.586,0.52 0,0.304 -0.235,0.553 -0.589,0.576 -0.579,0.036 -1.158,0.06 -1.741,0.079 -0.305,0.01 -0.606,0.003 -0.91,0.003 -0.245,0 -1.658,-0.036 -2.532,-0.083Z"/></g></svg>