<svg xmlns="http://www.w3.org/2000/svg" width="321" height="371" viewbox="0 0 321 371" preserveAspectRatio="none"><rect x="0" y="0" width="100%" height="100%" fill="rgb(157, 161, 45)" /><polyline points="0,30.945974428564,17.866666666667,0,53.6,0,71.466666666667,30.945974428564,53.6,61.891948857128,17.866666666667,61.891948857128,0,30.945974428564" stroke="#000" stroke-opacity="0.02" fill-opacity="0.089333333333333" fill="#ddd" transform="translate(-35.733333333333, -30.945974428564)" /><polyline points="0,30.945974428564,17.866666666667,0,53.6,0,71.466666666667,30.945974428564,53.6,61.891948857128,17.866666666667,61.891948857128,0,30.945974428564" stroke="#000" stroke-opacity="0.02" fill-opacity="0.089333333333333" fill="#ddd" transform="translate(285.86666666667, -30.945974428564)" /><polyline points="0,30.945974428564,17.866666666667,0,53.6,0,71.466666666667,30.945974428564,53.6,61.891948857128,17.866666666667,61.891948857128,0,30.945974428564" stroke="#000" stroke-opacity="0.02" fill-opacity="0.089333333333333" fill="#ddd" transform="translate(-35.733333333333, 340.4057187142)" /><polyline points="0,30.945974428564,17.866666666667,0,53.6,0,71.466666666667,30.945974428564,53.6,61.891948857128,17.866666666667,61.891948857128,0,30.945974428564" stroke="#000" stroke-opacity="0.02" fill-opacity="0.089333333333333" fill="#ddd" transform="translate(285.86666666667, 340.4057187142)" /><polyline points="0,30.945974428564,17.866666666667,0,53.6,0,71.466666666667,30.945974428564,53.6,61.891948857128,17.866666666667,61.891948857128,0,30.945974428564" stroke="#000" stroke-opacity="0.02" fill-opacity="0.02" fill="#ddd" transform="translate(17.866666666667, 0)" /><polyline points="0,30.945974428564,17.866666666667,0,53.6,0,71.466666666667,30.945974428564,53.6,61.891948857128,17.866666666667,61.891948857128,0,30.945974428564" stroke="#000" stroke-opacity="0.02" fill-opacity="0.02" fill="#ddd" transform="translate(17.866666666667, 371.35169314277)" /><polyline points="0,30.945974428564,17.866666666667,0,53.6,0,71.466666666667,30.945974428564,53.6,61.891948857128,17.866666666667,61.891948857128,0,30.945974428564" stroke="#000" stroke-opacity="0.02" fill-opacity="0.028666666666667" fill="#222" transform="translate(71.466666666667, -30.945974428564)" /><polyline points="0,30.945974428564,17.866666666667,0,53.6,0,71.466666666667,30.945974428564,53.6,61.891948857128,17.866666666667,61.891948857128,0,30.945974428564" stroke="#000" stroke-opacity="0.02" fill-opacity="0.028666666666667" fill="#222" transform="translate(71.466666666667, 340.4057187142)" /><polyline points="0,30.945974428564,17.866666666667,0,53.6,0,71.466666666667,30.945974428564,53.6,61.891948857128,17.866666666667,61.891948857128,0,30.945974428564" stroke="#000" stroke-opacity="0.02" fill-opacity="0.046" fill="#222" transform="translate(125.06666666667, 0)" /><polyline points="0,30.945974428564,17.866666666667,0,53.6,0,71.466666666667,30.945974428564,53.6,61.891948857128,17.866666666667,61.891948857128,0,30.945974428564" stroke="#000" stroke-opacity="0.02" fill-opacity="0.046" fill="#222" transform="translate(125.06666666667, 371.35169314277)" /><polyline points="0,30.945974428564,17.866666666667,0,53.6,0,71.466666666667,30.945974428564,53.6,61.891948857128,17.866666666667,61.891948857128,0,30.945974428564" stroke="#000" stroke-opacity="0.02" fill-opacity="0.14133333333333" fill="#ddd" transform="translate(178.66666666667, -30.945974428564)" /><polyline points="0,30.945974428564,17.866666666667,0,53.6,0,71.466666666667,30.945974428564,53.6,61.891948857128,17.866666666667,61.891948857128,0,30.945974428564" stroke="#000" stroke-opacity="0.02" fill-opacity="0.14133333333333" fill="#ddd" transform="translate(178.66666666667, 340.4057187142)" /><polyline points="0,30.945974428564,17.866666666667,0,53.6,0,71.466666666667,30.945974428564,53.6,61.891948857128,17.866666666667,61.891948857128,0,30.945974428564" stroke="#000" stroke-opacity="0.02" fill-opacity="0.080666666666667" fill="#222" transform="translate(232.26666666667, 0)" /><polyline points="0,30.945974428564,17.866666666667,0,53.6,0,71.466666666667,30.945974428564,53.6,61.891948857128,17.866666666667,61.891948857128,0,30.945974428564" stroke="#000" stroke-opacity="0.02" fill-opacity="0.080666666666667" fill="#222" transform="translate(232.26666666667, 371.35169314277)" /><polyline points="0,30.945974428564,17.866666666667,0,53.6,0,71.466666666667,30.945974428564,53.6,61.891948857128,17.866666666667,61.891948857128,0,30.945974428564" stroke="#000" stroke-opacity="0.02" fill-opacity="0.072" fill="#ddd" transform="translate(-35.733333333333, 30.945974428564)" /><polyline points="0,30.945974428564,17.866666666667,0,53.6,0,71.466666666667,30.945974428564,53.6,61.891948857128,17.866666666667,61.891948857128,0,30.945974428564" stroke="#000" stroke-opacity="0.02" fill-opacity="0.072" fill="#ddd" transform="translate(285.86666666667, 30.945974428564)" /><polyline points="0,30.945974428564,17.866666666667,0,53.6,0,71.466666666667,30.945974428564,53.6,61.891948857128,17.866666666667,61.891948857128,0,30.945974428564" stroke="#000" stroke-opacity="0.02" fill-opacity="0.098" fill="#222" transform="translate(17.866666666667, 61.891948857128)" /><polyline points="0,30.945974428564,17.866666666667,0,53.6,0,71.466666666667,30.945974428564,53.6,61.891948857128,17.866666666667,61.891948857128,0,30.945974428564" stroke="#000" stroke-opacity="0.02" fill-opacity="0.063333333333333" fill="#222" transform="translate(71.466666666667, 30.945974428564)" /><polyline points="0,30.945974428564,17.866666666667,0,53.6,0,71.466666666667,30.945974428564,53.6,61.891948857128,17.866666666667,61.891948857128,0,30.945974428564" stroke="#000" stroke-opacity="0.02" fill-opacity="0.028666666666667" fill="#222" transform="translate(125.06666666667, 61.891948857128)" /><polyline points="0,30.945974428564,17.866666666667,0,53.6,0,71.466666666667,30.945974428564,53.6,61.891948857128,17.866666666667,61.891948857128,0,30.945974428564" stroke="#000" stroke-opacity="0.02" fill-opacity="0.124" fill="#ddd" transform="translate(178.66666666667, 30.945974428564)" /><polyline points="0,30.945974428564,17.866666666667,0,53.6,0,71.466666666667,30.945974428564,53.6,61.891948857128,17.866666666667,61.891948857128,0,30.945974428564" stroke="#000" stroke-opacity="0.02" fill-opacity="0.14133333333333" fill="#ddd" transform="translate(232.26666666667, 61.891948857128)" /><polyline points="0,30.945974428564,17.866666666667,0,53.6,0,71.466666666667,30.945974428564,53.6,61.891948857128,17.866666666667,61.891948857128,0,30.945974428564" stroke="#000" stroke-opacity="0.02" fill-opacity="0.02" fill="#ddd" transform="translate(-35.733333333333, 92.837923285692)" /><polyline points="0,30.945974428564,17.866666666667,0,53.6,0,71.466666666667,30.945974428564,53.6,61.891948857128,17.866666666667,61.891948857128,0,30.945974428564" stroke="#000" stroke-opacity="0.02" fill-opacity="0.02" fill="#ddd" transform="translate(285.86666666667, 92.837923285692)" /><polyline points="0,30.945974428564,17.866666666667,0,53.6,0,71.466666666667,30.945974428564,53.6,61.891948857128,17.866666666667,61.891948857128,0,30.945974428564" stroke="#000" stroke-opacity="0.02" fill-opacity="0.072" fill="#ddd" transform="translate(17.866666666667, 123.78389771426)" /><polyline points="0,30.945974428564,17.866666666667,0,53.6,0,71.466666666667,30.945974428564,53.6,61.891948857128,17.866666666667,61.891948857128,0,30.945974428564" stroke="#000" stroke-opacity="0.02" fill-opacity="0.13266666666667" fill="#222" transform="translate(71.466666666667, 92.837923285692)" /><polyline points="0,30.945974428564,17.866666666667,0,53.6,0,71.466666666667,30.945974428564,53.6,61.891948857128,17.866666666667,61.891948857128,0,30.945974428564" stroke="#000" stroke-opacity="0.02" fill-opacity="0.054666666666667" fill="#ddd" transform="translate(125.06666666667, 123.78389771426)" /><polyline points="0,30.945974428564,17.866666666667,0,53.6,0,71.466666666667,30.945974428564,53.6,61.891948857128,17.866666666667,61.891948857128,0,30.945974428564" stroke="#000" stroke-opacity="0.02" fill-opacity="0.063333333333333" fill="#222" transform="translate(178.66666666667, 92.837923285692)" /><polyline points="0,30.945974428564,17.866666666667,0,53.6,0,71.466666666667,30.945974428564,53.6,61.891948857128,17.866666666667,61.891948857128,0,30.945974428564" stroke="#000" stroke-opacity="0.02" fill-opacity="0.14133333333333" fill="#ddd" transform="translate(232.26666666667, 123.78389771426)" /><polyline points="0,30.945974428564,17.866666666667,0,53.6,0,71.466666666667,30.945974428564,53.6,61.891948857128,17.866666666667,61.891948857128,0,30.945974428564" stroke="#000" stroke-opacity="0.02" fill-opacity="0.037333333333333" fill="#ddd" transform="translate(-35.733333333333, 154.72987214282)" /><polyline points="0,30.945974428564,17.866666666667,0,53.6,0,71.466666666667,30.945974428564,53.6,61.891948857128,17.866666666667,61.891948857128,0,30.945974428564" stroke="#000" stroke-opacity="0.02" fill-opacity="0.037333333333333" fill="#ddd" transform="translate(285.86666666667, 154.72987214282)" /><polyline points="0,30.945974428564,17.866666666667,0,53.6,0,71.466666666667,30.945974428564,53.6,61.891948857128,17.866666666667,61.891948857128,0,30.945974428564" stroke="#000" stroke-opacity="0.02" fill-opacity="0.063333333333333" fill="#222" transform="translate(17.866666666667, 185.67584657138)" /><polyline points="0,30.945974428564,17.866666666667,0,53.6,0,71.466666666667,30.945974428564,53.6,61.891948857128,17.866666666667,61.891948857128,0,30.945974428564" stroke="#000" stroke-opacity="0.02" fill-opacity="0.063333333333333" fill="#222" transform="translate(71.466666666667, 154.72987214282)" /><polyline points="0,30.945974428564,17.866666666667,0,53.6,0,71.466666666667,30.945974428564,53.6,61.891948857128,17.866666666667,61.891948857128,0,30.945974428564" stroke="#000" stroke-opacity="0.02" fill-opacity="0.046" fill="#222" transform="translate(125.06666666667, 185.67584657138)" /><polyline points="0,30.945974428564,17.866666666667,0,53.6,0,71.466666666667,30.945974428564,53.6,61.891948857128,17.866666666667,61.891948857128,0,30.945974428564" stroke="#000" stroke-opacity="0.02" fill-opacity="0.054666666666667" fill="#ddd" transform="translate(178.66666666667, 154.72987214282)" /><polyline points="0,30.945974428564,17.866666666667,0,53.6,0,71.466666666667,30.945974428564,53.6,61.891948857128,17.866666666667,61.891948857128,0,30.945974428564" stroke="#000" stroke-opacity="0.02" fill-opacity="0.10666666666667" fill="#ddd" transform="translate(232.26666666667, 185.67584657138)" /><polyline points="0,30.945974428564,17.866666666667,0,53.6,0,71.466666666667,30.945974428564,53.6,61.891948857128,17.866666666667,61.891948857128,0,30.945974428564" stroke="#000" stroke-opacity="0.02" fill-opacity="0.14133333333333" fill="#ddd" transform="translate(-35.733333333333, 216.62182099995)" /><polyline points="0,30.945974428564,17.866666666667,0,53.6,0,71.466666666667,30.945974428564,53.6,61.891948857128,17.866666666667,61.891948857128,0,30.945974428564" stroke="#000" stroke-opacity="0.02" fill-opacity="0.14133333333333" fill="#ddd" transform="translate(285.86666666667, 216.62182099995)" /><polyline points="0,30.945974428564,17.866666666667,0,53.6,0,71.466666666667,30.945974428564,53.6,61.891948857128,17.866666666667,61.891948857128,0,30.945974428564" stroke="#000" stroke-opacity="0.02" fill-opacity="0.072" fill="#ddd" transform="translate(17.866666666667, 247.56779542851)" /><polyline points="0,30.945974428564,17.866666666667,0,53.6,0,71.466666666667,30.945974428564,53.6,61.891948857128,17.866666666667,61.891948857128,0,30.945974428564" stroke="#000" stroke-opacity="0.02" fill-opacity="0.02" fill="#ddd" transform="translate(71.466666666667, 216.62182099995)" /><polyline points="0,30.945974428564,17.866666666667,0,53.6,0,71.466666666667,30.945974428564,53.6,61.891948857128,17.866666666667,61.891948857128,0,30.945974428564" stroke="#000" stroke-opacity="0.02" fill-opacity="0.072" fill="#ddd" transform="translate(125.06666666667, 247.56779542851)" /><polyline points="0,30.945974428564,17.866666666667,0,53.6,0,71.466666666667,30.945974428564,53.6,61.891948857128,17.866666666667,61.891948857128,0,30.945974428564" stroke="#000" stroke-opacity="0.02" fill-opacity="0.11533333333333" fill="#222" transform="translate(178.66666666667, 216.62182099995)" /><polyline points="0,30.945974428564,17.866666666667,0,53.6,0,71.466666666667,30.945974428564,53.6,61.891948857128,17.866666666667,61.891948857128,0,30.945974428564" stroke="#000" stroke-opacity="0.02" fill-opacity="0.080666666666667" fill="#222" transform="translate(232.26666666667, 247.56779542851)" /><polyline points="0,30.945974428564,17.866666666667,0,53.6,0,71.466666666667,30.945974428564,53.6,61.891948857128,17.866666666667,61.891948857128,0,30.945974428564" stroke="#000" stroke-opacity="0.02" fill-opacity="0.13266666666667" fill="#222" transform="translate(-35.733333333333, 278.51376985708)" /><polyline points="0,30.945974428564,17.866666666667,0,53.6,0,71.466666666667,30.945974428564,53.6,61.891948857128,17.866666666667,61.891948857128,0,30.945974428564" stroke="#000" stroke-opacity="0.02" fill-opacity="0.13266666666667" fill="#222" transform="translate(285.86666666667, 278.51376985708)" /><polyline points="0,30.945974428564,17.866666666667,0,53.6,0,71.466666666667,30.945974428564,53.6,61.891948857128,17.866666666667,61.891948857128,0,30.945974428564" stroke="#000" stroke-opacity="0.02" fill-opacity="0.037333333333333" fill="#ddd" transform="translate(17.866666666667, 309.45974428564)" /><polyline points="0,30.945974428564,17.866666666667,0,53.6,0,71.466666666667,30.945974428564,53.6,61.891948857128,17.866666666667,61.891948857128,0,30.945974428564" stroke="#000" stroke-opacity="0.02" fill-opacity="0.072" fill="#ddd" transform="translate(71.466666666667, 278.51376985708)" /><polyline points="0,30.945974428564,17.866666666667,0,53.6,0,71.466666666667,30.945974428564,53.6,61.891948857128,17.866666666667,61.891948857128,0,30.945974428564" stroke="#000" stroke-opacity="0.02" fill-opacity="0.14133333333333" fill="#ddd" transform="translate(125.06666666667, 309.45974428564)" /><polyline points="0,30.945974428564,17.866666666667,0,53.6,0,71.466666666667,30.945974428564,53.6,61.891948857128,17.866666666667,61.891948857128,0,30.945974428564" stroke="#000" stroke-opacity="0.02" fill-opacity="0.028666666666667" fill="#222" transform="translate(178.66666666667, 278.51376985708)" /><polyline points="0,30.945974428564,17.866666666667,0,53.6,0,71.466666666667,30.945974428564,53.6,61.891948857128,17.866666666667,61.891948857128,0,30.945974428564" stroke="#000" stroke-opacity="0.02" fill-opacity="0.13266666666667" fill="#222" transform="translate(232.26666666667, 309.45974428564)" /></svg>