<?xml version="1.0" encoding="UTF-8"?>
<!-- Created with Inkscape (http://www.inkscape.org/) -->
<svg width="700mm" height="700mm" version="1.1" viewBox="0 0 700 700" xmlns="http://www.w3.org/2000/svg">
 <g transform="translate(-1420)">
  <ellipse transform="translate(8.9583e-6)" cx="1770.4" cy="350" rx="350" ry="350" fill="#534cdd"/>
  <path transform="translate(8.9583e-6)" d="m1631.5 293.99c-56.698 32.735-75.99 104.73-43.256 161.43l0.3736 0.64727c32.735 56.698 104.73 75.99 161.43 43.256l203.25-117.35c13.698-7.9088 18.358-25.303 10.45-39.001-7.9087-13.698-25.303-18.359-39.001-10.451l-26.64 15.381c-9.0057 5.1993-20.441 2.1351-25.641-6.8704-5.1992-9.0058-2.1352-20.441 6.8703-25.641l72.322-41.755c11.47-6.6224 15.373-21.188 8.7505-32.659-6.6223-11.47-21.188-15.373-32.658-8.7505l-72.322 41.756c-9.0059 5.1994-20.441 2.1352-25.641-6.8704-5.1993-9.0058-2.1352-20.441 6.8704-25.641l5.9442-3.4319c13.698-7.9088 18.359-25.303 10.45-39.001-7.9088-13.698-25.303-18.359-39.001-10.451l-91.67 52.928zm11.586 19.32c46.071-26.599 104.58-10.923 131.17 35.148 26.598 46.071 10.923 104.58-35.148 131.17-46.071 26.599-104.58 10.923-131.17-35.148-26.599-46.071-10.923-104.58 35.148-131.17zm60.353-34.845 40.813-23.564c5.4033-3.1196 12.265-1.2808 15.384 4.1225 3.1197 5.4033 1.2813 12.264-4.1222 15.385l-20.498 11.834c-10.11-4.0288-20.741-6.646-31.578-7.7777zm67.564-39.008 9.424-5.4409c5.4033-3.1196 12.265-1.2808 15.384 4.1225 3.1197 5.4033 1.2812 12.264-4.1222 15.385l-9.4239 5.4408c-5.4033 3.1196-12.264 1.2811-15.385-4.1222-3.1194-5.4033-1.2812-12.265 4.122-15.385zm-15.354 57.461 29.093-16.797c5.4034-3.1196 12.264-1.2811 15.385 4.1222 3.1195 5.4033 1.2811 12.264-4.1223 15.385l-21.568 12.452c-5.7886-5.7423-12.089-10.811-18.787-15.162zm32.026 30.789 11.629-6.7139c5.4034-3.1196 12.265-1.281 15.384 4.1224 3.1197 5.4033 1.2809 12.265-4.1224 15.385l-11.629 6.7139c-1.5535-3.3833-3.2713-6.7279-5.1714-10.019-1.9002-3.2911-3.9376-6.4508-6.0909-9.4879zm38.379-22.158 6.5798-3.7989c5.4033-3.1196 12.265-1.2808 15.385 4.1225 3.1196 5.4033 1.281 12.264-4.1222 15.385l-6.5798 3.7989c-5.4034 3.1196-12.264 1.2811-15.385-4.1222-3.1196-5.4033-1.2814-12.265 4.122-15.385zm-20.203 60.944 29.179-16.847c5.4033-3.1196 12.265-1.281 15.384 4.1224 3.1196 5.4033 1.2809 12.265-4.1225 15.385l-36.704 21.191c-0.4188-7.9768-1.6582-15.967-3.737-23.851zm2.6659 47.056 18.773-10.839c5.119-2.9554 11.752-0.98452 14.871 4.4188 3.1197 5.4033 1.51 12.132-3.6089 15.088l-39.088 22.568c4.4381-9.9503 7.4869-20.466 9.0524-31.235zm45.01-25.987c5.4034-3.1196 12.265-1.2808 15.384 4.1225 3.1197 5.4033 1.2812 12.264-4.1222 15.385-5.4032 3.1196-12.265 1.2814-15.384-4.122-3.1196-5.4033-1.281-12.265 4.1224-15.385z" fill="#fff" stroke-width=".79033"/>
 </g>
</svg>
