<?xml version="1.0" encoding="UTF-8"?>
<!-- Created with Inkscape (http://www.inkscape.org/) -->
<svg width="700mm" height="700mm" version="1.1" viewBox="0 0 700 700" xmlns="http://www.w3.org/2000/svg">
 <path d="m169.16 281.2c-71.74 41.419-96.15 132.52-54.731 204.26l0.47284 0.81898c41.419 71.74 132.52 96.15 204.26 54.731l257.17-148.48c17.332-10.007 23.229-32.016 13.223-49.348-10.007-17.332-32.016-23.229-49.348-13.223l-33.707 19.461c-11.395 6.5787-25.864 2.7016-32.443-8.6931-6.5787-11.395-2.7016-25.864 8.6931-32.443l91.509-52.833c14.513-8.3792 19.451-26.809 11.072-41.323-8.3792-14.513-26.809-19.451-41.322-11.072l-91.509 52.833c-11.395 6.5787-25.864 2.7016-32.443-8.6931-6.5787-11.395-2.7016-25.864 8.6931-32.443l7.5212-4.3424c17.332-10.007 23.229-32.016 13.223-49.348-10.007-17.332-32.016-23.229-49.348-13.223l-115.99 66.97zm14.659 24.445c58.293-33.655 132.32-13.821 165.97 44.472 33.655 58.293 13.821 132.32-44.472 165.97-58.293 33.655-132.32 13.821-165.97-44.472-33.655-58.293-13.821-132.32 44.472-165.97zm76.364-44.089 51.641-29.815c6.8368-3.9472 15.519-1.6206 19.466 5.2162 3.9472 6.8368 1.621 15.518-5.2158 19.466l-25.936 14.974c-12.792-5.0976-26.243-8.4091-39.955-9.8411zm85.488-49.356 11.924-6.8843c6.8368-3.9472 15.519-1.6206 19.466 5.2162 3.9472 6.8368 1.621 15.518-5.2158 19.466l-11.924 6.8843c-6.8368 3.9472-15.518 1.621-19.466-5.2158-3.9472-6.8368-1.6213-15.519 5.2155-19.466zm-19.427 72.705 36.811-21.253c6.8368-3.9472 15.518-1.621 19.466 5.2158 3.9472 6.8368 1.621 15.518-5.2158 19.466l-27.29 15.756c-7.3244-7.2657-15.296-13.679-23.771-19.184zm40.523 38.957 14.714-8.4951c6.8368-3.9472 15.519-1.6208 19.466 5.216 3.9472 6.8368 1.6206 15.519-5.2162 19.466l-14.714 8.4951c-1.9656-4.2809-4.1391-8.5128-6.5434-12.677-2.4042-4.1642-4.9822-8.1621-7.7067-12.005zm48.561-28.037 8.3254-4.8067c6.8368-3.9472 15.519-1.6206 19.466 5.2162 3.9472 6.8368 1.621 15.518-5.2158 19.466l-8.3254 4.8067c-6.8368 3.9472-15.518 1.621-19.466-5.2158-3.9472-6.8368-1.6213-15.519 5.2155-19.466zm-25.563 77.112 36.92-21.316c6.8368-3.9472 15.519-1.6208 19.466 5.216 3.9472 6.8368 1.6206 15.519-5.2162 19.466l-46.442 26.813c-0.52993-10.093-2.0981-20.203-4.7284-30.179zm3.3731 59.54 23.754-13.714c6.477-3.7395 14.869-1.2457 18.816 5.5911 3.9472 6.8368 1.9106 15.351-4.5664 19.091l-49.458 28.555c5.6155-12.59 9.473-25.895 11.454-39.522zm56.951-32.881c6.8368-3.9472 15.519-1.6206 19.466 5.2162 3.9472 6.8368 1.621 15.518-5.2158 19.466-6.8368 3.9472-15.519 1.6213-19.466-5.2155-3.9472-6.8368-1.6208-15.519 5.216-19.466z" fill="currentColor"/>
</svg>
