<svg width="65" height="65" viewBox="0 0 65 65" fill="none" xmlns="http://www.w3.org/2000/svg">
<path fill-rule="evenodd" clip-rule="evenodd" d="M32.5 65C50.4493 65 65 50.4493 65 32.5C65 14.5507 50.4493 0 32.5 0C14.5507 0 0 14.5507 0 32.5C0 50.4493 14.5507 65 32.5 65Z" fill="#0DBD8B"/>
<path fill-rule="evenodd" clip-rule="evenodd" d="M26.5578 15.1432C26.5578 13.8313 27.6235 12.7678 28.9381 12.7678C37.848 12.7678 45.071 19.9758 45.071 28.8672C45.071 30.1791 44.0053 31.2426 42.6907 31.2426C41.3761 31.2426 40.3104 30.1791 40.3104 28.8672C40.3104 22.5995 35.2188 17.5185 28.9381 17.5185C27.6235 17.5185 26.5578 16.455 26.5578 15.1432Z" fill="white"/>
<path fill-rule="evenodd" clip-rule="evenodd" d="M49.8518 26.4919C51.1664 26.4919 52.2321 27.5554 52.2321 28.8672C52.2321 37.7587 45.0092 44.9666 36.0992 44.9666C34.7846 44.9666 33.7189 43.9031 33.7189 42.5913C33.7189 41.2794 34.7846 40.2159 36.0992 40.2159C42.38 40.2159 47.4715 35.1349 47.4715 28.8672C47.4715 27.5554 48.5372 26.4919 49.8518 26.4919Z" fill="white"/>
<path fill-rule="evenodd" clip-rule="evenodd" d="M38.4793 49.8566C38.4793 51.1685 37.4136 52.232 36.099 52.232C27.1891 52.232 19.9661 45.024 19.9661 36.1326C19.9661 34.8207 21.0318 33.7572 22.3464 33.7572C23.661 33.7572 24.7267 34.8207 24.7267 36.1326C24.7267 42.4003 29.8182 47.4813 36.099 47.4813C37.4136 47.4813 38.4793 48.5448 38.4793 49.8566Z" fill="white"/>
<path fill-rule="evenodd" clip-rule="evenodd" d="M15.1479 38.5079C13.8333 38.5079 12.7676 37.4445 12.7676 36.1326C12.7676 27.2411 19.9905 20.0332 28.9005 20.0332C30.2151 20.0332 31.2807 21.0967 31.2807 22.4085C31.2807 23.7204 30.2151 24.7839 28.9005 24.7839C22.6197 24.7839 17.5281 29.8649 17.5281 36.1326C17.5281 37.4445 16.4624 38.5079 15.1479 38.5079Z" fill="white"/>
</svg>
