<?xml version="1.0" encoding="UTF-8" standalone="no"?>
<!-- Created with Inkscape (http://www.inkscape.org/) -->
<svg width="210mm" height="210mm" viewBox="0 0 210 210" version="1.1" id="svg1" xml:space="preserve" inkscape:version="1.3.2 (091e20ef0f, 2023-11-25)" sodipodi:docname="neo-logo.svg" xmlns:inkscape="http://www.inkscape.org/namespaces/inkscape" xmlns:sodipodi="http://sodipodi.sourceforge.net/DTD/sodipodi-0.dtd" xmlns="http://www.w3.org/2000/svg" xmlns:svg="http://www.w3.org/2000/svg"><sodipodi:namedview id="namedview1" pagecolor="#ffffff" bordercolor="#000000" borderopacity="0.25" inkscape:showpageshadow="2" inkscape:pageopacity="0.0" inkscape:pagecheckerboard="0" inkscape:deskcolor="#d1d1d1" inkscape:document-units="mm" inkscape:zoom="0.66906472" inkscape:cx="424.47314" inkscape:cy="509.66669" inkscape:window-width="1280" inkscape:window-height="1372" inkscape:window-x="2360" inkscape:window-y="339" inkscape:window-maximized="0" inkscape:current-layer="g1"/><defs id="defs1"/><g inkscape:label="Layer 1" inkscape:groupmode="layer" id="layer1"><rect style="fill:#101b15;fill-opacity:1;stroke-width:0.430576" id="rect1-1" width="201.59537" height="188.70128" x="4.2896194" y="21.298729" ry="31.087112"/><rect style="fill:#4b996e;fill-opacity:1;stroke-width:0.430576" id="rect1" width="201.59537" height="188.70128" x="4.2896214" y="0" ry="31.087112"/><g id="g1" transform="matrix(4.2332361,0,0,3.9624772,3.4023336,0.47668304)"><path d="M 0,0 H 48 V 48 H 0 Z" fill="none" id="path1"/><g id="Shopicon" transform="matrix(0.88305138,0,0,0.88905549,2.8273906,2.3533929)"><path d="M 14,4 H 4 v 10 h 10 z m -4,6 H 8 V 8 h 2 z" id="path2"/><path d="M 29,4 H 19 v 10 h 10 z m -4,6 H 23 V 8 h 2 z" id="path3"/><path d="M 34,14 H 44 V 4 H 34 Z m 4,-6 h 2 v 2 h -2 z" id="path4"/><path d="M 14,19 H 4 v 10 h 10 z m -4,6 H 8 v -2 h 2 z" id="path5"/><path d="M 29,19 H 19 v 10 h 10 z m -4,6 h -2 v -2 h 2 z" id="path6"/><path d="M 34,29 H 44 V 19 H 34 Z m 4,-6 h 2 v 2 h -2 z" id="path7"/><path d="M 14,34 H 4 v 10 h 10 z m -4,6 H 8 v -2 h 2 z" id="path8"/><path d="M 29,34 H 19 v 10 h 10 z m -4,6 h -2 v -2 h 2 z" id="path9"/><path d="M 34,44 H 44 V 34 H 34 Z m 4,-6 h 2 v 2 h -2 z" id="path10"/></g></g></g></svg>