<svg width="142" height="142" viewBox="0 0 142 142" fill="none" xmlns="http://www.w3.org/2000/svg">
<path d="M21.0003 0C9.64305 0 0 9.64304 0 21.0003V111C0 122.357 9.64305 132 21.0003 132H103.014C104.771 132 106.519 132.23 108.216 132.685C109.263 132.965 110.309 133.246 111.356 133.526L139.086 140.957C139.345 141.026 139.618 141.026 139.877 140.957C140.136 140.887 140.372 140.751 140.561 140.561C140.751 140.372 140.887 140.136 140.957 139.877C141.026 139.618 141.026 139.345 140.957 139.086L133.526 111.356C133.07 109.652 132.613 107.948 132.157 106.244C131.964 105.179 131.911 104.093 132 103.014V21.0003C132 9.64304 122.357 0 111 0H21.0003ZM32.0001 32.0001H100V100H32.0001V32.0001Z" fill="#FF8000"/>
</svg>
