<?xml version="1.0" standalone="no"?>
<!DOCTYPE svg PUBLIC "-//W3C//DTD SVG 20010904//EN" "http://www.w3.org/TR/2001/REC-SVG-20010904/DTD/svg10.dtd">
<!-- Created using Krita: https://krita.org -->
<svg xmlns="http://www.w3.org/2000/svg" 
    xmlns:xlink="http://www.w3.org/1999/xlink"
    xmlns:krita="http://krita.org/namespaces/svg/krita"
    xmlns:sodipodi="http://sodipodi.sourceforge.net/DTD/sodipodi-0.dtd"
    width="36pt"
    height="36pt"
    viewBox="0 0 36 36">
<defs/>
<g id="layer1" transform="matrix(0.272125977555955 0 0 0.272125977555955 -0.201737186443871 14.8674797828278)" display="none" fill="none">
  <image id="image0" transform="translate(-36.060299, -80.749046)" width="344.50592px" height="323.32062px" preserveAspectRatio="none"/>
  <g id="layer3" transform="matrix(1.1173914 0 0 1.1173914 53.913442 28.733416)" opacity="0.311219" fill="none">
   <image id="image1" transform="translate(61.62299, -58.783875)" width="140.07587px" height="131.46194px" preserveAspectRatio="none"/>
  </g>
 </g><rect id="rect6" transform="matrix(0.272125977555955 0 0 0.272125977555955 1.511577080933e-06 -0.00112500846831187)" fill="#1a1c28" stroke-opacity="0" stroke="#000000" stroke-width="0" stroke-linecap="square" stroke-linejoin="bevel" width="132.291669921875" height="132.291669921875"/><path id="path1" transform="matrix(0.272125977555955 0 0 0.272125977555955 -3.62499723367724 4.33368126144387)" fill="#9987f7" stroke-opacity="0" stroke="#000000" stroke-width="0" stroke-linecap="square" stroke-linejoin="bevel" d="M85.9845 0.00141674C78.5668 0.182853 75.9135 8.99596 75.9135 8.99596C75.9135 8.99596 81.5652 8.93626 85.7567 9.51191C90.8363 10.2095 95.2582 11.7001 95.2582 11.7001C95.2582 11.7001 92.1268 -0.148822 85.9845 0.00141674ZM58.9107 4.51269C46.4605 5.03676 38.027 22.5279 55.7893 45.6269C55.9977 45.8979 54.7913 46.2428 52.6216 44.0576C48.928 40.3376 46.0956 33.8298 46.0956 33.8298C46.0956 33.8298 38.2284 57.2731 31.9961 66.2185C22.4868 79.8672 10.9406 85.4968 9.55072 86.4888C1.28527 92.3881 -6.76175 115.396 9.04188 128.021C29.6265 144.466 70.7886 137.884 75.4469 111.001C78.5565 93.0565 86.7539 77.0582 105.446 73.6017C127.96 69.4384 131.299 56.7588 131.299 56.7588C131.299 56.7588 125.395 55.032 125.169 50.4371C124.981 46.6209 132.004 46.3011 132.004 46.3011C132.004 46.3011 127.669 42.968 121.088 38.285C117.43 35.6814 114.962 26.7211 104.668 18.7679C93.6832 10.2801 76.361 11.1853 76.361 11.1853C76.361 11.1853 79.2537 16.2175 79.4344 17.7617C79.7317 20.3037 78.363 17.9867 78.1918 17.7147C72.9191 8.63609 66.0876 4.78881 60.1282 4.51555C59.7184 4.49677 59.3123 4.49578 58.9107 4.51268ZM99.0204 35.9794C101.96 35.7797 104.637 37.6709 105.43 40.5088L105.659 42.1827C105.659 45.4522 103.127 48.1632 99.865 48.386C96.6029 48.6086 93.7257 46.2666 93.2816 43.0273C92.8375 39.788 94.9781 36.7581 98.1796 36.0944C98.4569 36.037 98.7378 35.9985 99.0204 35.9794Z" sodipodi:nodetypes="ccscscsscssscscsccscscsccccccssc"/><path id="path5" transform="matrix(0.272125977555955 0 0 0.272125977555955 10.9217512443971 6.37569773340872)" fill="#7b6dc4" stroke-opacity="0" stroke="#000000" stroke-width="0" stroke-linecap="square" stroke-linejoin="bevel" d="M5.81796 27.5064C5.81796 27.5064 -5.66202 11.0795 3.62999 1.78749C10.4032 -4.98572 20.3906 9.67241 20.3906 9.67241C20.3906 9.67241 9.9244 8.78856 9.28568 12.7273C9.02723 14.321 13.0011 15.4932 13.0011 15.4932C13.0011 15.4932 10.1939 19.2912 8.99671 21.2934C7.79951 23.2956 5.81796 27.5064 5.81796 27.5064Z" sodipodi:nodetypes="cscscsc"/>
</svg>
