<svg viewBox="0 0 512 512" xmlns="http://www.w3.org/2000/svg">
  <circle fill="#1a1c28" cx="256" cy="256" r="256"/>
  <path fill="#9987f7" d="M 281.22266,61.638672 C 252.51454,62.340869 242.25,96.445312 242.25,96.445312 c 0,0 21.86199,-0.227888 38.08398,2 19.65916,2.699828 36.77735,8.470708 36.77735,8.470708 0,0 -12.11665,-45.858806 -35.88867,-45.277348 z M 176.44531,79.111328 c -48.18496,2.028265 -80.827932,69.713192 -12.08398,159.111332 0.80656,1.04883 -3.85279,2.3732 -12.25,-6.08399 -14.29505,-14.39719 -25.27735,-39.58398 -25.27735,-39.58398 0,0 -30.436281,90.74068 -54.556636,125.36133 -11.322288,16.25087 -23.296412,29.36278 -34.673828,40.0664 36.151472,77.35634 112.144354,132.24302 201.664064,138.37696 0.39018,-1.71398 0.87261,-3.37593 1.17773,-5.13672 12.03483,-69.44913 43.76694,-131.34524 116.10938,-144.72266 87.13409,-16.11287 100.05664,-65.19531 100.05664,-65.19531 0,0 -22.84799,-6.68744 -23.72266,-24.47071 -0.72761,-14.76952 26.44531,-16 26.44531,-16 0,0 -16.78002,-12.90506 -42.25,-31.02929 -14.15717,-10.07649 -23.71663,-44.74674 -63.55664,-75.52735 -42.51354,-32.84961 -109.55468,-29.36132 -109.55468,-29.36132 0,0 11.18932,19.49626 11.88867,25.47265 1.15061,9.83808 -4.14406,0.85935 -4.80664,-0.19336 -20.4065,-35.136179 -46.82452,-50.026406 -69.88867,-51.083982 -1.58601,-0.07268 -3.16642,-0.06541 -4.72071,0 z M 331.66602,200.88867 c 11.37691,-0.77289 21.73754,6.54405 24.80664,17.52735 l 0.88867,6.47265 c 0,12.65369 -9.79136,23.13771 -22.41602,24 -12.62504,0.86151 -23.7539,-8.18586 -25.47265,-20.72265 -1.71877,-12.53682 6.55284,-24.26336 18.94336,-26.83204 1.07319,-0.22215 2.15627,-0.37139 3.25,-0.44531 z"/>
  <path fill="#7b6dc4" d="m 177.84845,197.13285 c 0,0 -44.43023,-63.57598 -8.46796,-99.538252 26.21392,-26.213922 64.86752,30.516502 64.86752,30.516502 0,0 -40.50667,-3.42071 -42.97866,11.82315 -1.00026,6.16799 14.37955,10.70468 14.37955,10.70468 0,0 -10.86453,14.69916 -15.49793,22.44815 -4.63345,7.74898 -12.30252,24.04577 -12.30252,24.04577 z"/>
</svg>
