<svg width="1024" height="1024" viewBox="0 0 1024 1024" fill="none" xmlns="http://www.w3.org/2000/svg">
<path d="M439.521 260.215H439.594C466.262 166.986 582.468 121.479 700.889 121.479C782.721 121.479 856.179 147.384 906.538 188.512C876.485 189.929 846.811 195.826 818.5 206.008C859.192 221.133 894.148 244.401 920.054 273.186C900.509 269.822 880.689 268.323 860.861 268.709C909.595 339.304 935.631 423.086 935.493 508.867C935.493 742.757 745.889 932.362 511.999 932.362C281.715 932.362 88.5049 739.551 88.5049 508.867C88.5049 472.435 93.3448 434.816 102.746 399.533C105.215 392.128 108.651 385.025 113.213 382.424C118.924 379.169 124.127 388.873 124.962 392.031C131.154 415.226 139.486 437.797 149.851 459.451C148.944 411.1 169.598 367.057 198.008 328.967C216.957 303.569 234.526 280.035 242.633 212.118C243.177 207.557 247.497 204.278 251.865 205.706C313.525 225.888 346.485 328.567 341.367 414.428C375.428 419.304 375.271 383.719 375.271 383.719C364.381 350.25 371.641 288.045 439.4 260.215H439.521Z" fill="url(#paint0_linear_4383_20931)"/>
<path opacity="0.9" d="M921.638 401.023C931.935 633.945 740.456 834.767 506.965 834.767C288.382 834.767 109.268 665.816 93.0661 451.383C90.1756 471.463 88.6556 491.717 88.5166 512.003C90.1743 741.441 282.912 932.364 512.011 932.364C745.9 932.364 935.505 742.759 935.505 508.869C935.505 471.602 930.677 435.46 921.638 401.023Z" fill="url(#paint1_radial_4383_20931)"/>
<path style="mix-blend-mode:screen" d="M501.678 291.082C497.116 283.011 476.051 271.069 466.843 268.988C501.69 157.367 679.219 123.1 787.875 142.847C833.093 151.075 889.405 175.71 906.538 188.512C856.179 147.384 782.709 121.479 700.89 121.479C582.469 121.479 466.262 166.986 439.594 260.215H439.4C371.641 288.045 364.381 350.275 375.271 383.731C385.725 343.813 435.468 294.76 501.678 291.082Z" fill="url(#paint2_radial_4383_20931)"/>
<path d="M624.744 213.993C529.615 232.711 498.531 238.834 466.696 269.096C502.451 174.439 593.72 155.248 702.474 198.396C676.591 203.731 650.68 208.934 624.744 214.005V213.993Z" fill="url(#paint3_linear_4383_20931)"/>
<path d="M111.495 386.576C85.5043 492.982 105.59 618.046 223.66 723C188.51 684.558 145.592 542.627 240.297 441.231C246.674 434.394 257.649 439.416 257.999 448.757C265.804 659.488 435.843 788.194 631.884 764.127C571.143 760.715 370.262 690.354 519.695 662.525C597.799 647.969 720.261 625.16 720.261 515.27C720.261 337.136 582.529 285.058 499.004 292.802C441.844 298.101 390.965 334.377 375.307 383.708C381.321 403.152 357.351 416.765 341.367 414.478C346.498 328.629 313.538 225.89 251.865 205.707C247.509 204.279 243.177 207.558 242.633 212.12C234.526 280.036 216.957 303.571 198.021 328.968C169.598 367.071 148.944 411.102 149.851 459.453C139.487 437.798 131.154 415.228 124.962 392.033C124.272 389.419 120.485 382.123 115.911 381.784C113.431 381.603 112.112 384.022 111.495 386.576Z" fill="url(#paint4_radial_4383_20931)"/>
<path style="mix-blend-mode:screen" d="M467.218 673.305C582.215 766.68 813.479 696.67 813.479 469.641C720.116 611.16 601.199 708.782 467.23 673.305H467.218Z" fill="url(#paint5_linear_4383_20931)"/>
<path style="mix-blend-mode:screen" d="M240.298 441.23C241.344 440.06 242.661 439.166 244.134 438.626C245.607 438.085 247.19 437.916 248.744 438.132C163.972 541.526 232.349 723.108 279.272 767.72C281.897 775.149 234.756 736.515 228.259 727.476C192.564 697.19 141.406 547.116 240.298 441.23Z" fill="url(#paint6_linear_4383_20931)"/>
<path d="M511.999 681.859C627.02 681.859 720.273 605.775 720.273 511.917C720.273 418.058 627.02 341.975 511.999 341.975C413.869 341.975 303.676 405.813 303.725 514.397C303.773 682.186 481.036 778.719 632.138 764.102C620.789 762.783 549.98 759.02 502.126 704.885C497.806 700.009 490.316 691.491 493.716 685.961C497.104 680.431 506.445 681.847 511.987 681.847L511.999 681.859Z" fill="url(#paint7_linear_4383_20931)"/>
<path opacity="0.6" d="M697.586 434.696L532.98 592.212C518.375 602.593 502.827 603.343 487.484 593.93L326.036 435.276C330.643 427.874 335.821 420.842 341.524 414.247L358.464 430.098C400.861 469.834 435.14 501.935 483.455 543.171C505.259 561.78 512.035 561.417 533.427 543.171C588.699 495.981 629.125 460.287 681.674 413.352C687.531 420.038 692.848 427.179 697.574 434.708L697.586 434.696Z" fill="white"/>
<mask id="mask0_4383_20931" style="mask-type:luminance" maskUnits="userSpaceOnUse" x="303" y="432" width="418" height="334">
<path d="M720.273 511.917C720.273 605.776 627.019 681.86 511.998 681.86C506.445 681.86 497.116 680.432 493.716 685.973C490.316 691.491 497.805 700.009 502.125 704.886C547.088 755.753 612.318 762.154 629.439 763.836L632.138 764.102C481.035 778.719 303.772 682.186 303.724 514.398C303.566 486.461 311.341 459.054 326.145 435.361L488.38 582.713C499.923 593.192 519.367 593.192 530.91 582.713L696.218 432.566C711.585 456.258 720.273 483.265 720.273 511.917Z" fill="white"/>
</mask>
<g mask="url(#mask0_4383_20931)">
<path opacity="0.7" d="M255.482 315.912H781.91V793.215H255.482V315.912Z" fill="url(#paint8_linear_4383_20931)"/>
<g filter="url(#filter0_f_4383_20931)">
<path fill-rule="evenodd" clip-rule="evenodd" d="M463.647 583.705C432.974 551.786 341.112 445.731 341.112 445.731L348.215 446.045L492.034 553.456C502.802 561.284 518.169 561.2 528.841 553.274L669.865 446.191L677.342 445.598C677.342 445.598 588.481 549.136 554.444 583.245C520.408 617.355 494.32 615.625 463.647 583.705Z" fill="#458FCD"/>
</g>
</g>
<path d="M541.22 256.959C563.508 249.941 561.547 227.883 561.547 227.883C561.547 227.883 550.403 214.755 528.321 222.027C507.655 228.839 504.448 243.565 504.448 243.565C504.448 243.565 515.737 264.981 541.22 256.959Z" fill="white"/>
<defs>
<filter id="filter0_f_4383_20931" x="302.393" y="406.878" width="413.669" height="240.08" filterUnits="userSpaceOnUse" color-interpolation-filters="sRGB">
<feFlood flood-opacity="0" result="BackgroundImageFix"/>
<feBlend mode="normal" in="SourceGraphic" in2="BackgroundImageFix" result="shape"/>
<feGaussianBlur stdDeviation="19.3597" result="effect1_foregroundBlur_4383_20931"/>
</filter>
<linearGradient id="paint0_linear_4383_20931" x1="235.494" y1="261.062" x2="832.5" y2="817.921" gradientUnits="userSpaceOnUse">
<stop stop-color="#1B91F3"/>
<stop offset="1" stop-color="#0B68CB"/>
</linearGradient>
<radialGradient id="paint1_radial_4383_20931" cx="0" cy="0" r="1" gradientUnits="userSpaceOnUse" gradientTransform="translate(234.392 452.666) rotate(66.5177) scale(358.108 343.053)">
<stop offset="0.53" stop-color="#0B4186" stop-opacity="0"/>
<stop offset="1" stop-color="#0B4186" stop-opacity="0.45"/>
</radialGradient>
<radialGradient id="paint2_radial_4383_20931" cx="0" cy="0" r="1" gradientUnits="userSpaceOnUse" gradientTransform="translate(522.889 305.59) rotate(-127.996) scale(76.556 126.683)">
<stop stop-color="#EF3ACC" stop-opacity="0"/>
<stop offset="1" stop-color="#EF3ACC" stop-opacity="0.64"/>
</radialGradient>
<linearGradient id="paint3_linear_4383_20931" x1="401.611" y1="403.61" x2="616.432" y2="164.469" gradientUnits="userSpaceOnUse">
<stop stop-color="#0F5DB0"/>
<stop offset="1" stop-color="#0F5DB0" stop-opacity="0"/>
</linearGradient>
<radialGradient id="paint4_radial_4383_20931" cx="0" cy="0" r="1" gradientUnits="userSpaceOnUse" gradientTransform="translate(352.281 739.613) rotate(-64.2625) scale(558.669 690.12)">
<stop offset="0.02" stop-color="#094188"/>
<stop offset="0.97" stop-color="#0B4186" stop-opacity="0"/>
</radialGradient>
<linearGradient id="paint5_linear_4383_20931" x1="778.099" y1="576.761" x2="678.214" y2="822.012" gradientUnits="userSpaceOnUse">
<stop stop-color="#E247C4" stop-opacity="0"/>
<stop offset="1" stop-color="#E247C4" stop-opacity="0.64"/>
</linearGradient>
<linearGradient id="paint6_linear_4383_20931" x1="158.697" y1="356.821" x2="246.699" y2="711.008" gradientUnits="userSpaceOnUse">
<stop offset="0.1" stop-color="#EF3ACC"/>
<stop offset="1" stop-color="#EF3ACC" stop-opacity="0"/>
</linearGradient>
<linearGradient id="paint7_linear_4383_20931" x1="511.999" y1="404.204" x2="511.999" y2="762.36" gradientUnits="userSpaceOnUse">
<stop stop-color="white"/>
<stop offset="0.91" stop-color="#BEE1FE"/>
<stop offset="1" stop-color="#96CEFD"/>
</linearGradient>
<linearGradient id="paint8_linear_4383_20931" x1="518.702" y1="606.877" x2="518.702" y2="756.915" gradientUnits="userSpaceOnUse">
<stop stop-color="#BCE0FD"/>
<stop offset="1" stop-color="#88CCFC"/>
</linearGradient>
</defs>
</svg>
