<?xml version="1.0" encoding="UTF-8" standalone="no"?>
<svg
   viewBox="0 0 566.92913 566.92915"
   height="15cm"
   width="15cm"
   xml:space="preserve"
   id="svg2"
   version="1.1"
   sodipodi:docname="favicon.svg"
   inkscape:version="1.2.1 (9c6d41e410, 2022-07-14)"
   xmlns:inkscape="http://www.inkscape.org/namespaces/inkscape"
   xmlns:sodipodi="http://sodipodi.sourceforge.net/DTD/sodipodi-0.dtd"
   xmlns="http://www.w3.org/2000/svg"
   xmlns:svg="http://www.w3.org/2000/svg"
   xmlns:rdf="http://www.w3.org/1999/02/22-rdf-syntax-ns#"
   xmlns:cc="http://creativecommons.org/ns#"
   xmlns:dc="http://purl.org/dc/elements/1.1/"><sodipodi:namedview
     id="namedview199"
     pagecolor="#ffffff"
     bordercolor="#000000"
     borderopacity="0.25"
     inkscape:showpageshadow="2"
     inkscape:pageopacity="0.0"
     inkscape:pagecheckerboard="0"
     inkscape:deskcolor="#d1d1d1"
     showgrid="false"
     inkscape:zoom="0.89049507"
     inkscape:cx="273.4434"
     inkscape:cy="457.04913"
     inkscape:window-width="2560"
     inkscape:window-height="1385"
     inkscape:window-x="-4"
     inkscape:window-y="-4"
     inkscape:window-maximized="1"
     inkscape:current-layer="svg2"
     inkscape:document-units="cm" /><metadata
     id="metadata8"><rdf:RDF><cc:Work
         rdf:about=""><dc:format>image/svg+xml</dc:format><dc:type
           rdf:resource="http://purl.org/dc/dcmitype/StillImage" /></cc:Work></rdf:RDF></metadata><defs
     id="defs6"><clipPath
       id="clipPath18"
       clipPathUnits="userSpaceOnUse"><path
         style="clip-rule:evenodd"
         id="path16"
         d="M 0,9.1553e-5 H 793.8 V 446.52009 H 0 Z" /></clipPath></defs><g
     id="Background"
     transform="matrix(1.3333333,0,0,-1.3333333,0,595.36)"><g
       clip-path="url(#clipPath18)"
       id="g14"><path
         id="path20"
         style="fill:#adbeef;fill-opacity:1;fill-rule:evenodd;stroke:none"
         d="M 70.86,446.52 C 31.725,446.52 0,414.79 0,375.66 V 92.22 C 0,53.085 31.725,21.36 70.86,21.36 H 354.3 c 39.13,0 70.86,31.725 70.86,70.86 v 283.44 c 0,39.13 -31.73,70.86 -70.86,70.86 z" /></g></g><path
     id="Foreground"
     style="fill:#ffffff;fill-opacity:1;fill-rule:evenodd;stroke:none;stroke-width:1.33333"
     d="m 283.43945,130.7207 c -108.29289,0 -196.080075,68.33233 -196.080075,152.63868 0,84.24358 87.658055,152.53514 195.839845,152.63671 V 436 h 0.24023 65.36133 130.71875 l -70.59765,-35.36328 c 43.13484,-27.99841 70.59765,-70.13495 70.59765,-117.27734 0,-84.30635 -87.78719,-152.63868 -196.08008,-152.63868 z m -87.11914,87.19922 c 12.10663,0 21.91992,9.81331 21.91992,21.91992 0,12.10664 -9.81329,21.91993 -21.91992,21.91993 -12.10664,0 -21.91992,-9.81329 -21.91992,-21.91993 0,-12.10661 9.81328,-21.91992 21.91992,-21.91992 z m 174.32031,0 c 12.06665,0 21.83985,9.81329 21.83985,21.91992 0,12.10665 -9.7732,21.91993 -21.83985,21.91993 -12.06663,0 -21.83984,-9.81328 -21.83984,-21.91993 0,-12.10663 9.77321,-21.91992 21.83984,-21.91992 z m -152.39648,87.19922 h 130.55274 c 6e-5,0.0269 0.004,0.0532 0.004,0.0801 0,23.9866 -29.22797,43.4414 -65.28125,43.4414 -36.05325,10e-6 -65.2793,-19.4548 -65.2793,-43.4414 0,-0.0269 0.004,-0.0532 0.004,-0.0801 z" /></svg>
