<svg width="1200" height="1200" viewBox="0 0 1200 1200" version="1.1" xmlns="http://www.w3.org/2000/svg">
 <path fill="#FF6F61" d="m552.37 326.63c8.1562-3.3281 4.4531-30.938 5.9531-86.062 4.7344-178.64 129-145.03 140.06-73.594 4.6406 29.766-19.078 160.26-17.391 212.58 0.046875 1.5938 1.1719 2.9531 2.6719 3.375 1.5469 0.42188 3.1875-0.1875 4.0781-1.5 16.734-23.062 30.703-48.047 41.625-74.391 25.406-82.5 193.5-60.797 39.656 144.24-48.609 64.781-99.281 55.734-98.531 140.68 0.375 45.375-20.203 208.69 0.60938 217.82 19.969 8.7188 91.359-49.125 102.66-90.234 10.922-39.609-24.328-130.45-13.641-174.52 11.812-48.844 48.656-57.188 67.641-49.875v0.046874c15.328 8.625 25.969 23.625 29.062 40.969 10.922 33.281 2.25 58.875 8.2969 60.562 5.8125 1.5938 17.484-21.047 23.719-36.188 18.844-45.797 14.906-122.11 64.688-146.02 33-15.844 65.578-7.8281 75.984 36.188 4.7344 20.016 1.875 40.125-18.984 90.797-36 87.469-61.078 111-4.7344 75.984l0.046875-0.046876c10.547-7.875 21.656-15 33.234-21.375 79.078-30.844 99.234 75.609-11.859 131.16-33.094 16.547-40.312 8.9062-86.672 28.5-71.109 30.094-79.406 48.75-126.42 98.531-80.391 85.031-103.88 104.62-106.59 201.14-0.60938 17.062-13.781 31.078-30.797 32.672-37.875 3.7031-36.75 3.1406-136.74-0.046875v0.046875c-18.844-0.46875-33.938-15.703-34.266-34.547-0.14062-35.016 1.3594-62.203-15.094-86.297-36.797-53.812-143.86-28.406-189.32-36.984-134.72-25.5-107.44-176.29 2.9531-109.22 27.609 16.781 82.688 7.0781 74.016-13.969-10.312-25.031-94.219-89.672-185.02-104.72-143.02-23.766-113.95-217.22-10.078-134.16 44.953 35.953 68.344 63.75 42.75 5.3438-26.25-59.906-53.531-103.27-50.438-146.02 5.25-73.125 59.578-68.531 80.109-55.781 27.047 16.781 33.516 79.922 41.531 103.27 8.2969 24.141 20.812 47.062 25.5 45.703 4.0312-1.1719-2.7656-18.75 4.1719-42.141 21.469-72.562 81.797-27.656 90.234 1.7812 10.688 37.406-17.812 99.891-14.859 138.28 4.8281 62.203 84 146.58 108.61 134.72 17.953-8.6719 16.781-242.02 1.7812-276-31.781-72.094-140.48-128.11-151.92-213.1-9.75-72.375 39.234-88.172 64.688-82.5 29.578 6.6094 45.844 42.75 56.391 70.031 16.641 43.172 56.484 80.672 70.641 74.859z"/>
</svg>
