<svg width="299" height="299" viewBox="0 0 299 299" fill="none" xmlns="http://www.w3.org/2000/svg">
<path d="M150 270C216.274 270 270 216.274 270 150C270 83.7258 216.274 30 150 30C83.7258 30 30 83.7258 30 150C30 216.274 83.7258 270 150 270Z" fill="url(#paint0_linear_1089_14542)"/>
<path d="M111.229 158.772L125.466 198.178C125.466 198.178 127.246 201.865 129.152 201.865C131.058 201.865 159.407 172.373 159.407 172.373L190.932 111.483L111.737 148.6L111.229 158.772Z" fill="#C8DAEA"/>
<path d="M130.106 168.878L127.373 197.924C127.373 197.924 126.229 206.824 135.127 197.924C144.025 189.024 152.542 182.161 152.542 182.161" fill="#A9C6D8"/>
<path d="M111.486 160.178L82.2 150.636C82.2 150.636 78.7 149.216 79.827 145.996C80.059 145.332 80.527 144.767 81.927 143.796C88.416 139.273 202.033 98.436 202.033 98.436C202.033 98.436 205.241 97.355 207.133 98.074C207.601 98.2189 208.022 98.4855 208.353 98.8466C208.685 99.2077 208.914 99.6502 209.018 100.129C209.222 100.975 209.308 101.845 209.272 102.714C209.263 103.466 209.172 104.163 209.103 105.256C208.411 116.421 187.703 199.749 187.703 199.749C187.703 199.749 186.464 204.625 182.025 204.792C180.934 204.827 179.847 204.643 178.829 204.249C177.811 203.855 176.883 203.26 176.1 202.5C167.389 195.007 137.281 174.773 130.628 170.323C130.478 170.221 130.352 170.088 130.257 169.932C130.163 169.777 130.103 169.603 130.082 169.423C129.989 168.954 130.499 168.373 130.499 168.373C130.499 168.373 182.925 121.773 184.32 116.881C184.428 116.502 184.02 116.315 183.472 116.481C179.99 117.762 119.628 155.881 112.966 160.088C112.486 160.233 111.98 160.264 111.486 160.178Z" fill="white"/>
<defs>
<linearGradient id="paint0_linear_1089_14542" x1="150" y1="270" x2="150" y2="30" gradientUnits="userSpaceOnUse">
<stop stop-color="#1D93D2"/>
<stop offset="1" stop-color="#38B0E3"/>
</linearGradient>
</defs>
</svg>
