<?xml version="1.0" encoding="UTF-8"?>
<svg id="Calque_2" xmlns="http://www.w3.org/2000/svg" version="1.1" viewBox="0 0 556.5 194.6">
  <!-- Generator: Adobe Illustrator 29.2.1, SVG Export Plug-In . SVG Version: 2.1.0 Build 116)  -->
  <defs>
    <style>
      .st0 {
        fill: #000091;
      }

      .st1 {
        fill: #e1000f;
      }

      .st2 {
        fill: #fff;
      }

      .st3 {
        fill: none;
        stroke: #000;
        stroke-miterlimit: 10;
      }

      .st4 {
        fill: #9d9d9c;
      }
    </style>
  </defs>
  <g id="Calque_1-2">
    <rect class="st2" width="556.5" height="194.6"/>
    <g>
      <g>
        <path d="M46.7,90.5v-3.8h-5.7v-4.1h10.2v9.5c-2.1,2.8-5.5,4.5-9.7,4.5-7.2,0-12.1-5.4-12.1-11.8s4.8-11.8,11.8-11.8,7.3,1.8,9.4,4.5l-3.6,2.8c-1.3-1.8-3.3-3.1-5.8-3.1-4.2,0-7.2,3.3-7.2,7.5s3.1,7.5,7.5,7.5,3.9-.7,5.2-1.9h0Z"/>
        <path d="M78.2,84.9c0,6.3-4.8,11.8-11.8,11.8s-11.8-5.4-11.8-11.8,4.8-11.8,11.8-11.8,11.8,5.4,11.8,11.8ZM73.5,84.9c0-4.2-3-7.5-7.1-7.5s-7.2,3.3-7.2,7.5,3,7.5,7.2,7.5,7.1-3.3,7.1-7.5Z"/>
        <path d="M95.6,73.8h4.5v13.5c0,5.8-3.4,9.3-9,9.3s-9-3.5-9-9.3v-13.5h4.5v13.9c0,3,1.7,4.7,4.5,4.7s4.5-1.8,4.5-4.7v-13.9h0Z"/>
        <path d="M107.7,73.8l6.6,17.4,6.6-17.4h4.8l-8.4,22.2h-5.9l-8.4-22.2h4.8Z"/>
        <path d="M129.1,73.8h12.9v3.8h-8.4v5.1h7.2v3.8h-7.2v5.6h8.4v3.8h-12.9v-22.2h0Z"/>
        <path d="M147.2,73.8h6.8c4.9,0,7.9,2.5,7.9,6.6s-1.3,4.7-3.6,5.8l7,9.8h-5.4l-5.9-9h-2.3v9h-4.5v-22.2h0ZM151.8,77.6v5.6h2.5c1.9,0,3-1,3-2.8s-1.1-2.7-3-2.7c0,0-2.5,0-2.5,0Z"/>
        <path d="M168.2,73.8h5.8l9.9,15.9v-15.9h4.5v22.2h-5.8l-9.9-16v16h-4.5v-22.2Z"/>
        <path d="M194.6,73.8h12.9v3.8h-8.4v5.1h7.2v3.8h-7.2v5.6h8.4v3.8h-12.9v-22.2h0Z"/>
        <path d="M212.8,73.8h5.7l5.4,9.1,5.4-9.1h5.7v22.2h-4.5v-15.8l-4.9,8.2h-3.2l-4.9-8.2v15.8h-4.5v-22.2h0Z"/>
        <path d="M241.1,73.8h12.9v3.8h-8.4v5.1h7.2v3.8h-7.2v5.6h8.4v3.8h-12.9v-22.2h0Z"/>
        <path d="M259.3,73.8h5.8l9.9,15.9v-15.9h4.5v22.2h-5.8l-9.9-16v16h-4.5v-22.2Z"/>
        <path d="M283.5,73.8h18.2v4.1h-6.9v18.1h-4.5v-18.1h-6.9v-4.1h0Z"/>
      </g>
      <g>
        <path d="M101.8,157.4c.6,0,1.1.5.8,1.6l-2.8.6c.5-1.3,1.3-2.3,2-2.3M103.4,161.9h-.6c-.7.8-1.4,1.5-2.2,1.5s-1.2-.5-1.2-1.5,0-.9.1-1.2l4.5-1.5c.9-2.1-.2-3-1.4-3-2.1,0-4.6,3.6-4.6,6.7s.7,2.2,1.7,2.2,2.5-1.2,3.5-3.1M102.5,155.3l3.2-3v-.3h-1.7l-2,3.3h.5ZM92.8,157.4h1.5l-2.4,6.5c-.2.6,0,1.1.7,1.1,1.3,0,3.5-1.3,4.3-3.2h-.4c-.6.6-1.8,1.5-2.8,1.7l2.2-6.1h2.2l.3-.9h-2.2l.8-2.4h-.9l-1.6,2.4-1.8.3v.7h0ZM90.8,157.1c.2-.6-.2-.9-.5-.9-1.3,0-2.8,1.2-3.5,2.8h.4c.4-.6,1.1-1.3,1.8-1.4l-2.5,6.5c-.2.6.2.9.5.9,1.2,0,2.7-1.2,3.3-2.8h-.4c-.4.6-1.1,1.3-1.8,1.4l2.7-6.5h0ZM91.2,153.8c.6,0,1.1-.5,1.1-1.1s-.5-1.1-1.1-1.1-1.1.5-1.1,1.1.5,1.1,1.1,1.1M76.8,163.8c-.3.7,0,1.2.7,1.2s.6-.1.8-.6l1.7-4.6c.8-1,2.4-2,3.1-2s.4.4,0,1l-2.7,5.1c-.3.5,0,1.1.7,1.1,1.3,0,2.8-1.2,3.5-2.8h-.4c-.4.6-1.1,1.3-1.8,1.4l2.3-4.6c.3-.6.4-1.1.4-1.6,0-.8-.4-1.2-1.2-1.2-1.1,0-2.3,1.3-3.6,2.8v-1.2c0-.9-.3-1.6-1.1-1.6s-1,.4-1.4,1v.2c.8,0,1.2,1.2.6,2.6l-1.8,3.9h0ZM76.8,158.1c.3-1.1.2-2-.7-2s-1.2.7-2.2,2.8v-1.2c0-.9-.3-1.6-1.1-1.6s-1.7,1.4-2.4,2.8h.4c.4-.6.8-1,1.2-1s.6.6,0,1.9l-1.8,3.9c-.3.7,0,1.2.7,1.2s.6-.1.8-.6l1.7-4.6c.5-.6.9-1.1,1.5-1.7h1.7ZM66.8,157.4c.6,0,1.1.5.8,1.6l-2.8.6c.5-1.3,1.3-2.3,2-2.3M68.4,161.9h-.6c-.7.8-1.4,1.5-2.2,1.5s-1.2-.5-1.2-1.5,0-.9.1-1.2l4.5-1.5c.9-2.1-.2-3-1.4-3-2.1,0-4.6,3.6-4.6,6.7s.7,2.2,1.7,2.2,2.5-1.2,3.5-3.1M57.7,157.4h1.5l-2.4,6.5c-.2.6,0,1.1.7,1.1,1.3,0,3.5-1.3,4.3-3.2h-.4c-.6.6-1.8,1.5-2.8,1.7l2.2-6.1h2.2l.3-.9h-2.2l.8-2.4h-.9l-1.5,2.4-1.8.3v.7ZM49.5,162.5c0-2,2.2-4.7,3.5-4.7s.5,0,.8.1l-1.3,3.5c-.8.9-1.9,2-2.4,2s-.5-.3-.5-.9M56.4,155.8h-.7c0,0-.8.7-.8.7h-.2c-3.7,0-6.9,4.2-6.9,7.2s.5,1.3,1.3,1.3,1.9-1.4,3-2.8v.5c-.2,1.5.3,2.3,1.1,2.3s1.7-1.4,2.4-2.8h-.4c-.4.6-.8,1-1.2,1s-.6-.6,0-1.9l2.4-5.5h0ZM48.5,158.1c.3-1.1.2-2-.7-2s-1.2.7-2.2,2.8v-1.2c0-.9-.3-1.6-1.1-1.6s-1.7,1.4-2.4,2.8h.4c.4-.6.8-1,1.2-1s.6.6,0,1.9l-1.8,3.9c-.3.7,0,1.2.7,1.2s.6-.1.8-.6l1.7-4.6c.5-.6.9-1.1,1.5-1.7h1.7ZM36,164.7l.2-.5c-2.2-.4-2.4-.4-1.6-2.8l.9-2.4h2.4c1.1,0,1.1.4.9,1.6h.6l1.4-3.9h-.6c-.5.9-1,1.6-2.1,1.6h-2.4l1.2-3.4c.4-1.1.6-1.3,2.1-1.3h1c1.5,0,1.7.4,1.7,1.9h.6l.5-2.7h-9l-.2.5c1.7.4,1.9.5,1.1,2.8l-2,5.3c-.8,2.2-1.2,2.4-3.2,2.8v.5c-.1,0,6.3,0,6.3,0h0Z"/>
        <path d="M80,137c.6,0,1.1.5.8,1.6l-2.8.6c.5-1.3,1.3-2.3,2-2.3M81.6,141.5h-.6c-.7.8-1.4,1.5-2.2,1.5s-1.2-.5-1.2-1.5,0-.9.1-1.2l4.5-1.5c.9-2.1-.2-3-1.4-3-2.1,0-4.6,3.6-4.6,6.7s.7,2.2,1.7,2.2,2.5-1.2,3.5-3.1M80.7,135l3.2-3v-.3h-1.7l-2,3.3h.5ZM70.9,137h1.5l-2.4,6.5c-.2.6,0,1.1.7,1.1,1.3,0,3.5-1.3,4.3-3.2h-.4c-.6.6-1.8,1.5-2.8,1.7l2.2-6.1h2.2l.3-.9h-2.2l.8-2.4h-.9l-1.6,2.4-1.8.3v.7h0ZM68.9,136.7c.2-.6-.2-.9-.5-.9-1.3,0-2.8,1.2-3.5,2.8h.4c.4-.6,1.1-1.3,1.8-1.4l-2.5,6.5c-.2.6.2.9.5.9,1.2,0,2.7-1.2,3.3-2.8h-.4c-.4.6-1.1,1.3-1.8,1.4l2.7-6.5h0ZM69.4,133.5c.6,0,1.1-.5,1.1-1.1s-.5-1.1-1.1-1.1-1.1.5-1.1,1.1.5,1.1,1.1,1.1M60.7,143.2l4.6-11.9-.2-.2-2.8.3v.3l.5.4c.5.4.3.8-.1,2l-3.5,9.4c-.3.5,0,1.1.7,1.1,1.3,0,2.7-1.2,3.3-2.8h-.4c-.4.6-1.3,1.3-2,1.4M52.1,142.1c0-2,2.2-4.7,3.5-4.7s.5,0,.8.1l-1.3,3.5c-.8.9-1.9,2-2.4,2s-.5-.3-.5-.9M59,135.4h-.7c0,0-.8.7-.8.7h-.2c-3.7,0-6.9,4.2-6.9,7.2s.5,1.3,1.3,1.3,1.9-1.4,3-2.8v.5c-.2,1.5.3,2.3,1.1,2.3s1.7-1.4,2.4-2.8h-.4c-.4.6-.8,1-1.2,1s-.6-.6,0-1.9l2.4-5.5h0ZM42.4,146.2c0-.9.8-1.4,2-1.9.4.2,1,.4,1.8.7,1.2.4,1.7.6,1.7.9,0,.8-1.3,1.4-3.2,1.4s-2.3-.3-2.3-1.1M45.7,141c-.5,0-.8-.5-.8-1,0-1.4.8-3.6,2-3.6s.8.5.8,1c0,1.4-.8,3.6-2,3.6M49.3,145.4c0-1-.9-1.4-2.4-1.9-1.3-.4-1.9-.5-1.9-.9s.3-.8.8-1c2.1-.1,3.5-2,3.5-3.6s0-.6-.2-.9h1.8l.3-.9h-2.9c-.3-.2-.8-.3-1.2-.3-2.3,0-3.7,2-3.7,3.6s.8,2,1.7,2.2c-1.1.5-1.7,1-1.7,1.7s.1.6.4.9c-2.4.7-3.4,1.5-3.4,2.7s1.5,1.6,3.2,1.6c3,0,5.5-1.6,5.5-3M37.9,138.5c1.1,0,1.1.4.9,1.6h.6l1.4-3.9h-.6c-.5.9-1,1.6-2.1,1.6h-2.4l1.2-3.3c.4-1.1.6-1.3,2.1-1.3h1c1.5,0,1.7.4,1.7,1.9h.6l.5-2.7h-9l-.2.5c1.7.4,1.9.5,1.1,2.8l-2,5.3c-.8,2.2-1.2,2.4-3.2,2.8v.5c-.1,0,9.9,0,9.9,0l1.8-2.8h-.7c-1.1,1.1-2.6,2.1-4.6,2.1s-2.4-.1-1.5-2.5l1-2.6h2.4,0ZM39.2,131.6l3.2-2.2v-.3h-1.9l-1.8,2.5h.5,0Z"/>
        <path d="M79,116.6c.6,0,1.1.5.8,1.6l-2.8.7c.5-1.3,1.3-2.3,2-2.3M80.5,121.1h-.6c-.7.8-1.4,1.5-2.2,1.5s-1.2-.5-1.2-1.5,0-.8.1-1.2l4.5-1.5c.9-2.1-.2-3-1.4-3-2.1,0-4.6,3.6-4.6,6.7s.7,2.2,1.7,2.2,2.5-1.2,3.5-3.1M79.6,114.6l3.2-3v-.3h-1.7l-2,3.3h.5ZM70.3,116.7h1.2l-2.4,6.5c-.2.6,0,1.1.7,1.1,1.3,0,3.5-1.3,4.3-3.2h-.4c-.6.6-1.8,1.5-2.8,1.7l2.2-6.1h2.2l.3-.9h-2.2l.8-2.3h-.9l-1.6,2.3-1.5.3v.7h0ZM69.1,117.4c.3-1.1.2-2-.7-2s-1.2.7-2.2,2.8v-1.2c0-.9-.3-1.6-1.1-1.6s-1.7,1.4-2.4,2.8h.4c.4-.6.9-1,1.2-1s.6.6,0,1.9l-1.8,3.9c-.3.7,0,1.2.7,1.2s.6-.1.8-.6l1.7-4.6c.5-.6.9-1.1,1.5-1.7h1.7ZM59.1,116.6c.6,0,1.1.5.8,1.6l-2.8.7c.5-1.3,1.3-2.3,2-2.3M60.7,121.1h-.5c-.7.8-1.5,1.5-2.2,1.5s-1.2-.5-1.2-1.5,0-.8.1-1.2l4.5-1.5c.9-2.1-.2-3-1.4-3-2.1,0-4.6,3.6-4.6,6.7s.7,2.2,1.7,2.2,2.5-1.2,3.5-3.1M49.6,123c-.4,0-1.1-.4-1.1-.8s.2-.6.4-1.2l.7-1.9c.8-.9,2-1.9,2.6-1.9s.7.3.7.9c0,1.8-1.7,5-3.5,5M54.7,117.2c0-1.3-.5-1.8-1.4-1.8s-2.2,1.2-3.3,2.7l2.7-7.2-.2-.2-2.8.3v.3l.5.4c.5.4.3.8-.1,2l-2.9,7.6c-.2.6-.5,1.2-.5,1.4,0,.8,1.1,1.5,2,1.5,2.2,0,5.9-4,5.9-7.1M45.9,116.4c.2-.6-.2-.9-.5-.9-1.3,0-2.8,1.2-3.5,2.8h.4c.4-.6,1.1-1.3,1.8-1.4l-2.5,6.5c-.2.6.2.9.5.9,1.2,0,2.7-1.2,3.3-2.8h-.4c-.4.6-1.1,1.3-1.8,1.4l2.7-6.5h0ZM46.3,113.1c.6,0,1.1-.5,1.1-1.1s-.5-1.1-1.1-1.1-1.1.5-1.1,1.1.5,1.1,1.1,1.1M39.8,112.1h-5.9l-.2.5c1.7.4,1.9.5,1.1,2.8l-1.9,5.3c-.8,2.2-1.2,2.4-3.2,2.8v.5c-.1,0,8.9,0,8.9,0l2-3.5h-.7c-1.1,1.2-2.4,2.8-4.4,2.8s-1.7-.3-.9-2.5l1.9-5.3c.8-2.2,1.2-2.4,3.2-2.8l.2-.5h0Z"/>
      </g>
      <g>
        <path class="st0" d="M63,55.5c.3-.3.6-.7,1-1h0c.6-.7,1.2-1.3,1.9-1.9.2-.2.4-.3.6-.5,0,0,0-.2.1-.2-.3.1-.4.3-.7.5,0,0-.1,0,0-.1.2-.2.4-.3.6-.5h0c0,0,0,0,0-.1-.7-.1-1.3.4-1.8.8-.1,0-.2,0-.3,0-.8.3-1.5,1-2.3,1.3h0c-.3,0-.7.2-1,.3-.5.1-1,0-1.4,0-.7,0-1.3.2-2,.4,0,0,0,0,0,0-.4,0-.7.2-1,.4,0,0,0,0,0,0,0,0,0,0,0,0-.1.1-.2.2-.4.3-.3.2-.6.5-.9.7,0,0,0,0,0,0-.3.3-.6.6-.9.9,0,0-.1,0-.2,0h0s0,0,0,0c0,0,0-.2.1-.2,0,0,.1-.2.2-.3,0-.1.2-.2.2-.3,0,0,0,0,0,0s0,0,0,0c.3-.3.6-.5.9-.7h0s0,0,0,0c0,0,0,0,0-.2,0,0,0,0,0,0h0c0,0-.2,0-.3.1-.1.1-.2.4-.4.4,0,0,0,0,0,0,0,0,0,0,0,0h0c0,0,0,0,0,0,0,0,0,0,0,0,0,0,0,0,0,0,0,0,0,0,0,0,0,0,0,0,0,0,0,0,0,0,0-.1,0,0,0,0,0,0,0,0,0,0,0,0,0,0,0,0,0,0,0-.1.2-.2.4-.3h0c.2-.1.4-.2.6-.4,0,0,0,0,0,0-.3.1-.6.2-.9.4,0,0,0,0,0,0,0,0,0,0-.1,0,0,0,0,0,0,0,0-.1.2-.2.3-.3,0,0,.1,0,.1,0,1.8-1.4,4.2-1.1,6.3-1.8.2-.1.3-.2.5-.3.3-.1.5-.4.8-.6.5-.3.8-.7,1-1.3,0,0,0-.1,0-.1-.7.8-1.6,1.4-2.5,1.8-1.2.6-2.5.5-3.7.7,0-.1.2-.1.3-.1,0-.2.1-.2.2-.3h.2c0,0,0-.1.1-.1.1,0,.3,0,.2,0-.2-.2-.5.2-.8,0,.1-.1,0-.3.2-.3h.2c0-.1.1-.2.1-.2.8-.5,1.6-.9,2.4-1.3-.2,0-.3.2-.5,0,.1,0,0-.2.1-.2.6-.2,1.1-.5,1.7-.7-.2,0-.4.2-.6,0,.1,0,.2-.2.3-.2v-.2c0,0,0,0,.1,0,0,0-.1,0-.1,0,0-.1.2,0,.3-.2,0,0-.2,0-.2,0,.2-.2.5-.3.7-.3,0-.1-.2,0-.2-.1s0,0,.1,0h-.1c-.1,0,0-.2,0-.2.3-.4.3-.9.5-1.3,0,0-.1,0-.1,0-.6.6-1.5.8-2.3,1.1h-.3c-.3.1-.7.1-1,0-.2-.1-.3-.3-.6-.5-.5-.3-.9-.5-1.4-.7-1.4-.5-2.8-.7-4.3-.6.6-.3,1.3-.4,2-.6,1-.3,1.8-.6,2.8-.6-.2,0-.4,0-.6,0-.8,0-1.6.2-2.4.3-.6.1-1.1.3-1.6.5-.3.1-.5.5-.9.4v-.2c.6-.7,1.2-1.3,2.1-1.4,1-.2,2,0,3,.1.7,0,1.4.2,2.1.4.3,0,.3.5.6.5.3.1.7,0,1,.2,0-.1,0-.2,0-.3.2-.2.5,0,.7,0,.5-.3-.4-.8-.6-1.2,0,0,0-.1,0-.1.5.4.8.8,1.3,1.1.3.1,1,.3.8,0-.3-.6-.8-1.1-1.3-1.7v-.2c-.1,0-.1,0-.2-.1v-.2c-.2-.1-.2-.3-.3-.5-.2-.3,0-.7-.2-1-.1-.3-.2-.6-.2-1-.2-1-.4-1.8-.5-2.7-.1-1.1.6-1.9,1.1-2.8.4-.7.8-1.3,1.6-1.8.2-.7.6-1.2,1.1-1.8.4-.5,1.2-.9,1.7-1.1.8-.4,1.5-.6,1.5-.6H29.5v29.5h27.1c1.1-.8,2.1-1.1,3.6-1.9.7-.3,2.3-1.1,2.8-1.6h0ZM54.4,51.5c-.1,0-.3,0-.3,0,0-.3.5-.3.7-.4.1,0,.3-.2.4-.1.1.2.3.1.4.2-.3.3-.8.2-1.2.3h0ZM45.9,50.3s0,0,0-.1c.7-1,1.3-1.8,1.8-2.8.7-.4,1.3-1,1.9-1.6,1-1,2-1.9,3.1-2.5.5-.2,1-.1,1.5,0-.2.2-.5.2-.7.3,0,0-.1,0-.2,0,0,0,0-.1,0-.2-.6.6-1.3.9-1.8,1.6-.3.6-.6,1.3-1.3,1.5-.2,0,0-.2,0-.1-1.7,1.1-3,2.3-4.3,3.8h0ZM50.5,46.6c0,.1-.1.1-.2.2,0,.1-.1.2-.2.2,0,0-.1,0-.1,0,0-.2.2-.5.5-.5,0,0,0,0,0,.1h0ZM53.1,55c0,0,0,.1-.1.2,0,0,.1,0,0,0-.1.1-.2.2-.4.3,0,0,0,0,0,0,0,0-.1.1-.2.2,0,0-.4,0-.3,0,.1-.1.3-.3.4-.4,0,0,.2-.1.2-.2,0,0,0,0,.1-.1s.3,0,.3,0h0ZM52.1,54.5h0c-.2.2-.4.3-.6.4-.2.1-.5.2-.7.4h0s0,0,0,0c-.2.1-.4.3-.6.4,0,0,0,0,0,0h0c0,.1,0,.2-.1.2,0,0,0,0,0,0,0,0-.1,0-.1,0h0s0,0,0,0c0,0,0,0,0,0h0s0,0,0,0c0,0-.1.1-.2.2-.1.1-.2.2-.3.3h0s0,0,0,0h0s0,0,0,0h0s0,0,0,0h0s0,0,0,0c0,0,0,0,0,0,0,0,0,0,0,0,0,0,0,0,0,0h0s0,0,0,0c0,0,.1-.1.2-.2h0s0,0,0,0c0,0,0,0,0-.1,0,0,0,0,0,0,0,0,.1-.2.2-.2h0s0,0,0,0c0,0,0,0,0-.1,0,0,0,0,0-.1h0c0,0,0-.1,0-.2h0s0,0,0,0c0,0,0,0,0,0h0s0,0,0,0h0c0-.1.1-.2.2-.3,0,0,0,0,0,0,0,0-.1.1-.2.2,0,0-.2,0,0,0,0,0,0,0,.1-.1h0c0,0,.2-.2.3-.3,0,0,.1,0,.2-.1,0,0,0,0,0,0,0,0,0,0,.1-.1h0c.5-.5,1.4-.5,2.1-.8.3-.1.6,0,.9,0,.2,0,.3,0,.5.1-.5.3-1,.6-1.4.9h0ZM53.2,50.7c0,0,.2,0,.2-.1h-.5c0,0,0,0,0-.1-.3,0-.6.2-.9.2-.4.1-.7.4-1.2.5-.6.2-1.1.7-1.8,1,0,0,0,0,0-.1,0-.2.3-.2.4-.4,0,0,0-.1,0-.1.5-.6,1.1-1,1.6-1.5v-.2c.2-.2.5-.3.6-.6,0-.2.3-.4.6-.5,0,0-.2,0-.2-.2-.2,0-.5.1-.7,0,0,0,.2-.2.3-.2,0,0,0,0-.1,0,0-.1.1-.2.3-.3.2,0,.5,0,.7-.2-.4,0-.8.1-1.2-.1.3-.7.7-1.3,1.4-1.7,0,0,.2,0,.2,0,0,.3-.2.5-.5.6.5.1.9.1,1.3.3,0,.1-.2,0-.2,0,.3.2.6,0,.9.3-.2.2-.3,0-.5,0,1.7.5,3.6.9,5,2-1.2.6-2.5.9-3.8,1.2-.2,0-.3,0-.5,0,0,0,0,.2,0,.2-.2,0-.4,0-.6.1-.2.1-.6.2-.7,0h0Z"/>
        <path class="st1" d="M110.6,29.5h-31.8s0,0,.3.1c.3.1.6.3.8.4.4.2.8.5,1.1.9.1.2.3.5.2.7-.1.3-.2.7-.4.8-.3.2-.8.2-1.2.1-.2,0-.4,0-.7-.1.8.3,1.6.7,2.2,1.5,0,.1.3.2.5.2s0,.1,0,.2c-.1.1-.2.2-.2.3h.2c.3-.1.2-.7.6-.5.3.2.4.6.2.8-.2.2-.4.4-.7.6,0,.1,0,.3,0,.4.2.2.2.5.3.7.2.4.2.8.4,1.2.2.8.4,1.7.4,2.5,0,.5-.2.8,0,1.3.1.5.4.8.6,1.2.2.3.4.6.6.9.3.6.9,1.1.7,1.8-.2.4-.8.3-1.2.6-.3.3,0,.7.1,1,.3.5-.3.8-.7,1,.1.2.3.1.4.2,0,.3.3.5.2.7-.2.3-.9.5-.6,1,.2.4,0,.8,0,1.2-.2.5-.6.7-1,.8-.3.1-.7.1-1.1,0-.1,0-.2-.1-.3-.1-.9-.1-1.9-.4-2.8-.4-.3,0-.6.1-.8.2-.2.2-.5.4-.7.6h0s0,0-.1.1c0,0,0,0,0,0,0,0,0,0,0,0-.2.2-.3.4-.4.6,0,0,0,0,0,0,0,0,0,0,0,0-.2.3-.3.7-.4,1-.4,1.3-.2,2.4,0,2.6,0,0,1.8.6,3.1,1.2.6.3,1,.5,1.3.7h31.2v-29.5h0Z"/>
        <path class="st4" d="M80.8,40.3c.2,0,.6,0,.6.2-.1.5-.8.6-1.1,1h-.2c-.2.1-.1.4-.3.4-.2,0-.3,0-.5,0,.2.2.5.4.8.3,0,0,.2.1.2.2,0,0,0,0,.1,0,0,0,.1,0,.1,0v.2c-.2.2-.4.1-.7.2.4.1.9.1,1.3,0,.3-.1,0-.7.2-1-.1,0,0-.2-.1-.2.1-.1.2-.3.3-.3.1,0,.3,0,.3-.2,0-.1-.2-.2-.2-.3.3-.2.6-.6.5-.9,0-.2-.5-.2-.8-.3s-.6,0-.9,0c-.3,0-.6.2-.8.2-.4.1-.7.3-1.1.6.4-.2.8-.2,1.2-.3.3,0,.6,0,.9,0h0Z"/>
      </g>
    </g>
    <g>
      <path d="M374.2,66.3c0,2-.7,3.7-2.2,5.1s-3.3,2.1-5.5,2.1h-5.6v-14.3h5.6c2.2,0,4,.7,5.5,2.1s2.2,3.1,2.2,5.1ZM366.6,61.8h-2.8v9.1h2.8c1.3,0,2.4-.4,3.3-1.3.9-.9,1.3-1.9,1.3-3.2s-.4-2.4-1.3-3.2-2-1.3-3.3-1.3h0Z"/>
      <path d="M379.7,59.7c0,.5-.2.9-.5,1.2-.3.3-.7.5-1.2.5s-.9-.2-1.2-.5c-.3-.3-.5-.7-.5-1.2s.2-.9.5-1.2.7-.5,1.2-.5.9.2,1.2.5c.3.3.5.7.5,1.2ZM379.3,73.5h-2.6v-10.3h2.6v10.3Z"/>
      <path d="M385,73.5h-2.6v-10.3h2.6v1c.4-.4.9-.8,1.3-.9s.9-.3,1.4-.3.3,0,.5,0,.3,0,.4,0v2.6c-.2,0-.4,0-.6-.1-.2,0-.4,0-.6,0-.5,0-1,.1-1.5.4s-.8.6-1,1v6.6h0Z"/>
      <path d="M399.8,71.8c-.5.7-1.1,1.2-1.9,1.6s-1.6.5-2.6.5c-1.7,0-3.1-.5-4.2-1.6-1-1.1-1.6-2.4-1.6-4s.5-3,1.5-4c1-1,2.3-1.6,3.8-1.6s2.5.4,3.4,1.3c.9.9,1.3,2,1.3,3.4s0,.5,0,.8,0,.5-.1.7h-7.2c.1.9.4,1.6.9,2,.5.5,1.2.7,2.1.7s1-.1,1.5-.3c.5-.2.9-.5,1.1-.9l1.9,1.5h0ZM394.8,64.9c-.7,0-1.2.2-1.6.5s-.7.9-.9,1.6h4.8c0-.6-.2-1.1-.7-1.5s-.9-.6-1.6-.6h0Z"/>
      <path d="M404,68.3c0,.9.3,1.7.8,2.2.6.6,1.3.9,2.1.9s.9,0,1.3-.3c.4-.2.7-.5,1-.9l2,1.6c-.5.7-1.1,1.2-1.9,1.6s-1.6.5-2.5.5c-1.7,0-3-.5-4.1-1.6s-1.6-2.4-1.6-4,.5-2.9,1.6-4c1.1-1,2.4-1.6,4.1-1.6s1.7.2,2.5.5,1.4.9,1.9,1.6l-2,1.6c-.3-.4-.6-.7-1-.9s-.9-.3-1.4-.3c-.9,0-1.5.3-2.1.9s-.8,1.3-.8,2.2h0Z"/>
      <path d="M417.9,73.7c-1.3,0-2.2-.3-2.9-1-.6-.7-1-1.7-1-3v-4.2h-1.9v-2.3h1.9v-2.6h2.6v2.6h3.2v2.3h-3.2v4.2c0,.5.1.9.4,1.2s.7.4,1.2.4.6,0,.9,0,.5,0,.7-.2v2.3c-.3.1-.5.2-.9.2-.3,0-.7,0-1.1,0h0Z"/>
      <path d="M425.2,59.7c0,.5-.2.9-.5,1.2-.3.3-.7.5-1.2.5s-.9-.2-1.2-.5c-.3-.3-.5-.7-.5-1.2s.2-.9.5-1.2.7-.5,1.2-.5.9.2,1.2.5c.3.3.5.7.5,1.2ZM424.8,73.5h-2.6v-10.3h2.6v10.3Z"/>
      <path d="M427.2,68.3c0-1.6.5-2.9,1.6-4s2.4-1.6,4.1-1.6,3,.5,4.1,1.6c1.1,1.1,1.6,2.4,1.6,4s-.5,2.9-1.6,4-2.4,1.6-4.1,1.6-3-.5-4.1-1.6-1.6-2.4-1.6-4ZM429.9,68.3c0,.9.3,1.7.9,2.2.6.6,1.3.9,2.1.9s1.5-.3,2.1-.9.8-1.3.8-2.2-.3-1.7-.8-2.2c-.5-.6-1.2-.9-2.1-.9s-1.6.3-2.1.9-.9,1.3-.9,2.2Z"/>
      <path d="M443.5,73.5h-2.6v-10.3h2.6v.8c.5-.4.9-.8,1.4-.9.5-.2,1-.3,1.6-.3,1.2,0,2.2.4,2.9,1.2s1.1,1.9,1.1,3.4v6.2h-2.6v-6.1c0-.7-.2-1.2-.5-1.6s-.9-.6-1.5-.6-.9.1-1.3.4-.8.6-1.1,1.2v6.7h0Z"/>
      <path d="M363.4,84.3c0,.5-.2.9-.5,1.2-.3.3-.7.5-1.2.5s-.9-.2-1.2-.5c-.3-.3-.5-.7-.5-1.2s.2-.9.5-1.2.7-.5,1.2-.5.9.2,1.2.5c.3.3.5.7.5,1.2ZM363,98.1h-2.6v-10.3h2.6v10.3Z"/>
      <path d="M368.7,98.1h-2.6v-10.3h2.6v.8c.5-.4.9-.8,1.4-.9s1-.3,1.6-.3c1.2,0,2.2.4,2.9,1.2s1.1,1.9,1.1,3.4v6.2h-2.6v-6.1c0-.7-.2-1.2-.5-1.6s-.9-.6-1.5-.6-.9.1-1.3.4c-.4.2-.8.6-1.1,1.2v6.7h0Z"/>
      <path d="M383.2,98.3c-1.3,0-2.2-.3-2.9-1-.6-.7-1-1.7-1-3v-4.2h-1.9v-2.3h1.9v-2.6h2.6v2.6h3.2v2.3h-3.2v4.2c0,.5.1.9.4,1.2s.7.4,1.2.4.6,0,.9,0,.5,0,.7-.2v2.3c-.3.1-.5.2-.9.2-.3,0-.7,0-1.1,0h0Z"/>
      <path d="M396.8,96.4c-.5.7-1.1,1.2-1.9,1.6s-1.6.5-2.6.5c-1.7,0-3.1-.5-4.2-1.6-1-1.1-1.6-2.4-1.6-4s.5-3,1.5-4c1-1,2.3-1.6,3.8-1.6s2.5.4,3.4,1.3,1.3,2,1.3,3.4,0,.5,0,.8,0,.5-.1.7h-7.2c.1.9.4,1.6.9,2,.5.5,1.2.7,2.1.7s1-.1,1.5-.3c.5-.2.9-.5,1.1-.9l1.9,1.5h0ZM391.8,89.5c-.7,0-1.2.2-1.6.5s-.7.9-.9,1.6h4.8c0-.6-.2-1.1-.7-1.5s-.9-.6-1.6-.6h0Z"/>
      <path d="M401.8,98.1h-2.6v-10.3h2.6v1c.4-.4.9-.8,1.3-.9s.9-.3,1.4-.3.3,0,.5,0,.3,0,.4,0v2.6c-.2,0-.4,0-.6-.1-.2,0-.4,0-.6,0-.5,0-1,.1-1.5.4s-.8.6-1,1v6.6h0Z"/>
      <path d="M410.1,98.1h-2.6v-10.3h2.6v.8c.4-.4.9-.8,1.3-.9s1-.3,1.5-.3,1.3.2,1.9.4,1,.7,1.3,1.3c.5-.7,1.1-1.1,1.6-1.3.5-.2,1.1-.3,1.8-.3,1.2,0,2.1.4,2.8,1.2s1,1.8,1,3.2v6.3h-2.6v-6.2c0-.6-.2-1.1-.5-1.5s-.8-.5-1.4-.5-.8.1-1.2.3c-.4.2-.7.6-1,1.1,0,0,0,.1,0,.2v6.6h-2.6v-6.2c0-.6-.2-1.1-.5-1.5s-.8-.5-1.4-.5-.8.1-1.2.4-.7.6-1,1.2v6.7h0Z"/>
      <path d="M429.3,84.3c0,.5-.2.9-.5,1.2-.3.3-.7.5-1.2.5s-.9-.2-1.2-.5-.5-.7-.5-1.2.2-.9.5-1.2.7-.5,1.2-.5.9.2,1.2.5c.3.3.5.7.5,1.2ZM428.9,98.1h-2.6v-10.3h2.6v10.3Z"/>
      <path d="M434.6,98.1h-2.6v-10.3h2.6v.8c.5-.4.9-.8,1.4-.9.5-.2,1-.3,1.6-.3,1.2,0,2.2.4,2.9,1.2s1.1,1.9,1.1,3.4v6.2h-2.6v-6.1c0-.7-.2-1.2-.5-1.6s-.9-.6-1.5-.6-.9.1-1.3.4-.8.6-1.1,1.2v6.7h0Z"/>
      <path d="M447.6,84.3c0,.5-.2.9-.5,1.2-.3.3-.7.5-1.2.5s-.9-.2-1.2-.5-.5-.7-.5-1.2.2-.9.5-1.2.7-.5,1.2-.5.9.2,1.2.5c.3.3.5.7.5,1.2ZM447.3,98.1h-2.6v-10.3h2.6v10.3Z"/>
      <path d="M453.5,98.5c-.9,0-1.6-.2-2.3-.5s-1.3-.8-1.8-1.4l1.7-1.6c.4.5.8.8,1.1,1s.8.3,1.2.3.7,0,.9-.3c.2-.2.3-.5.3-.8s-.1-.5-.3-.7c-.2-.2-.7-.5-1.5-.8-.6-.2-1.1-.4-1.4-.6-.3-.2-.6-.3-.8-.5-.3-.3-.5-.6-.7-1s-.2-.8-.2-1.2c0-.9.4-1.7,1-2.3s1.6-.9,2.6-.9,1.5.2,2.1.5c.7.3,1.2.8,1.6,1.3l-1.7,1.5c-.3-.4-.6-.7-1-.9s-.7-.3-1-.3-.7,0-.9.3-.3.4-.3.7.1.5.3.7c.2.2.7.4,1.5.8.6.2,1.1.4,1.4.6s.5.3.8.5c.3.3.6.6.7,1,.2.4.2.8.2,1.2,0,1-.4,1.8-1.1,2.4-.7.6-1.6.9-2.6.9h0Z"/>
      <path d="M464.2,98.3c-1.3,0-2.2-.3-2.9-1-.6-.7-1-1.7-1-3v-4.2h-1.9v-2.3h1.9v-2.6h2.6v2.6h3.2v2.3h-3.2v4.2c0,.5.1.9.4,1.2s.7.4,1.2.4.6,0,.9,0,.5,0,.7-.2v2.3c-.3.1-.5.2-.9.2-.3,0-.7,0-1.1,0h0Z"/>
      <path d="M477.8,96.4c-.5.7-1.1,1.2-1.9,1.6s-1.6.5-2.6.5c-1.7,0-3.1-.5-4.2-1.6-1-1.1-1.6-2.4-1.6-4s.5-3,1.5-4c1-1,2.3-1.6,3.8-1.6s2.5.4,3.4,1.3,1.3,2,1.3,3.4,0,.5,0,.8,0,.5-.1.7h-7.2c.1.9.4,1.6.9,2,.5.5,1.2.7,2.1.7s1-.1,1.5-.3c.5-.2.9-.5,1.1-.9l1.9,1.5h0ZM472.8,89.5c-.7,0-1.2.2-1.6.5s-.7.9-.9,1.6h4.8c0-.6-.2-1.1-.7-1.5s-.9-.6-1.6-.6h0ZM476.8,82.7l-2.5,3.4h-2.5l2.1-3.4h2.8Z"/>
      <path d="M482.8,98.1h-2.6v-10.3h2.6v1c.4-.4.9-.8,1.3-.9s.9-.3,1.4-.3.3,0,.5,0,.3,0,.4,0v2.6c-.2,0-.4,0-.6-.1-.2,0-.4,0-.6,0-.5,0-1,.1-1.5.4s-.8.6-1,1v6.6h0Z"/>
      <path d="M491.5,84.3c0,.5-.2.9-.5,1.2-.3.3-.7.5-1.2.5s-.9-.2-1.2-.5-.5-.7-.5-1.2.2-.9.5-1.2.7-.5,1.2-.5.9.2,1.2.5c.3.3.5.7.5,1.2ZM491.1,98.1h-2.6v-10.3h2.6v10.3Z"/>
      <path d="M503.7,96.4c-.5.7-1.1,1.2-1.9,1.6s-1.6.5-2.6.5c-1.7,0-3.1-.5-4.2-1.6-1-1.1-1.6-2.4-1.6-4s.5-3,1.5-4c1-1,2.3-1.6,3.8-1.6s2.5.4,3.4,1.3,1.3,2,1.3,3.4,0,.5,0,.8,0,.5-.1.7h-7.2c.1.9.4,1.6.9,2,.5.5,1.2.7,2.1.7s1.1-.1,1.5-.3.9-.5,1.1-.9l1.9,1.5h0ZM498.7,89.5c-.7,0-1.2.2-1.6.5s-.7.9-.9,1.6h4.8c0-.6-.2-1.1-.7-1.5s-.9-.6-1.6-.6h0Z"/>
      <path d="M508.7,98.1h-2.6v-15.4h2.6v15.4Z"/>
      <path d="M514.4,98.1h-2.6v-15.4h2.6v15.4Z"/>
      <path d="M527,96.4c-.5.7-1.1,1.2-1.9,1.6s-1.7.5-2.6.5c-1.7,0-3.1-.5-4.2-1.6s-1.6-2.4-1.6-4,.5-3,1.5-4c1-1,2.3-1.6,3.8-1.6s2.5.4,3.4,1.3,1.3,2,1.3,3.4,0,.5,0,.8c0,.2,0,.5-.1.7h-7.2c.1.9.4,1.6.9,2s1.2.7,2.1.7,1-.1,1.5-.3c.5-.2.8-.5,1.1-.9l1.9,1.5h0ZM522,89.5c-.7,0-1.2.2-1.7.5-.4.4-.7.9-.9,1.6h4.8c0-.6-.2-1.1-.7-1.5s-.9-.6-1.6-.6h0Z"/>
      <path d="M364.9,123.1c-1.5,0-2.8-.5-3.8-1.6s-1.5-2.4-1.5-4,.5-2.9,1.5-4,2.2-1.6,3.8-1.6,1.2,0,1.8.3,1,.5,1.4.9v-5.9h2.6v15.4h-2.6v-.8c-.4.4-.9.7-1.4.9-.5.2-1.1.3-1.8.3h0ZM362.4,117.5c0,.9.3,1.7.8,2.2s1.2.9,2.1.9,1.1-.1,1.6-.4c.5-.2.9-.6,1.2-1.1v-3.4c-.3-.5-.8-.8-1.2-1.1-.5-.2-1-.4-1.6-.4-.9,0-1.6.3-2.1.9s-.8,1.3-.8,2.2h0Z"/>
      <path d="M378.5,120.6c.7,0,1.2-.2,1.6-.6.4-.4.6-1,.6-1.8v-5.9h2.6v5.7c0,1.6-.4,2.8-1.3,3.7-.9.9-2,1.3-3.5,1.3s-2.7-.4-3.5-1.3-1.3-2.1-1.3-3.7v-5.7h2.6v5.9c0,.8.2,1.4.6,1.8.4.4.9.6,1.6.6h0Z"/>
      <path d="M394.3,122.7h-2.6v-10.3h2.6v.8c.5-.4.9-.8,1.4-.9.5-.2,1-.3,1.6-.3,1.2,0,2.2.4,2.9,1.2s1.1,1.9,1.1,3.4v6.2h-2.6v-6c0-.7-.2-1.2-.5-1.6s-.9-.6-1.5-.6-.9.1-1.3.4c-.4.2-.8.6-1.1,1.2v6.7h0Z"/>
      <path d="M408.9,120.6c.7,0,1.2-.2,1.6-.6.4-.4.6-1,.6-1.8v-5.9h2.6v5.7c0,1.6-.4,2.8-1.3,3.7s-2,1.3-3.5,1.3-2.7-.4-3.5-1.3-1.3-2.1-1.3-3.7v-5.7h2.6v5.9c0,.8.2,1.4.6,1.8.4.4.9.6,1.6.6h0Z"/>
      <path d="M419.2,122.7h-2.6v-10.3h2.6v.8c.4-.4.9-.8,1.3-.9s1-.3,1.5-.3,1.3.2,1.9.4,1,.7,1.3,1.3c.5-.7,1.1-1.1,1.6-1.3.5-.2,1.1-.3,1.8-.3,1.2,0,2.1.4,2.8,1.2s1,1.8,1,3.2v6.3h-2.6v-6.2c0-.6-.2-1.1-.5-1.5-.3-.4-.8-.5-1.4-.5s-.8.1-1.2.3c-.4.2-.7.6-1,1.1,0,0,0,.1,0,.2v6.6h-2.6v-6.2c0-.6-.2-1.1-.5-1.5-.3-.4-.8-.5-1.4-.5s-.8.1-1.2.4-.7.6-1,1.2v6.7h0Z"/>
      <path d="M445,121c-.5.7-1.1,1.2-1.9,1.6s-1.6.5-2.6.5c-1.7,0-3.1-.5-4.2-1.6-1-1-1.6-2.4-1.6-4s.5-3,1.5-4c1-1,2.3-1.6,3.8-1.6s2.5.4,3.4,1.3,1.3,2,1.3,3.4,0,.5,0,.8c0,.2,0,.5-.1.7h-7.2c.1.9.4,1.6.9,2,.5.5,1.2.7,2.1.7s1-.1,1.5-.3c.5-.2.9-.5,1.1-.9l1.9,1.5h0ZM440,114.1c-.7,0-1.2.2-1.6.5s-.7.9-.9,1.6h4.8c0-.6-.2-1.1-.7-1.5s-.9-.6-1.6-.6h0ZM443.9,107.3l-2.5,3.4h-2.5l2.1-3.4h2.8Z"/>
      <path d="M449.9,122.7h-2.6v-10.3h2.6v1c.4-.4.9-.8,1.3-.9s.9-.3,1.4-.3.3,0,.5,0,.3,0,.4,0v2.6c-.2,0-.4,0-.6-.1-.2,0-.4,0-.6,0-.5,0-1,.1-1.5.4s-.8.6-1,1v6.6h0Z"/>
      <path d="M458.6,108.8c0,.5-.2.9-.5,1.2-.3.3-.7.5-1.2.5s-.9-.2-1.2-.5-.5-.7-.5-1.2.2-.9.5-1.2c.3-.3.7-.5,1.2-.5s.9.2,1.2.5c.3.3.5.7.5,1.2ZM458.2,122.7h-2.6v-10.3h2.6v10.3Z"/>
      <path d="M465.9,123.1c-1.5,0-2.8-.5-3.8-1.6s-1.5-2.4-1.5-4,.5-2.9,1.5-4,2.2-1.6,3.8-1.6,1.2,0,1.8.3c.5.2,1,.5,1.4.9v-.8h2.6v15.4h-2.6v-5.9c-.4.4-.9.8-1.4.9-.5.2-1.1.3-1.8.3h0ZM463.3,117.5c0,.9.3,1.7.8,2.2s1.2.9,2.1.9,1.1-.1,1.6-.4.9-.6,1.2-1.1v-3.3c-.3-.5-.8-.8-1.2-1.1-.5-.2-1-.4-1.6-.4-.9,0-1.6.3-2.1.9s-.8,1.3-.8,2.2h0Z"/>
      <path d="M479.4,120.6c.7,0,1.2-.2,1.6-.6.4-.4.6-1,.6-1.8v-5.9h2.6v5.7c0,1.6-.4,2.8-1.3,3.7s-2,1.3-3.5,1.3-2.7-.4-3.5-1.3-1.3-2.1-1.3-3.7v-5.7h2.6v5.9c0,.8.2,1.4.6,1.8.4.4.9.6,1.6.6h0Z"/>
      <path d="M496.6,121c-.5.7-1.1,1.2-1.9,1.6s-1.6.5-2.6.5c-1.7,0-3.1-.5-4.2-1.6-1-1-1.6-2.4-1.6-4s.5-3,1.5-4c1-1,2.3-1.6,3.8-1.6s2.5.4,3.4,1.3,1.3,2,1.3,3.4,0,.5,0,.8c0,.2,0,.5-.1.7h-7.2c.1.9.4,1.6.9,2,.5.5,1.2.7,2.1.7s1-.1,1.5-.3c.5-.2.9-.5,1.1-.9l1.9,1.5h0ZM491.6,114.1c-.7,0-1.2.2-1.6.5s-.7.9-.9,1.6h4.8c0-.6-.2-1.1-.7-1.5s-.9-.6-1.6-.6h0Z"/>
    </g>
    <line class="st3" x1="331.2" y1="29.5" x2="331.2" y2="165"/>
  </g>
</svg>