<?xml version="1.0" encoding="utf-8"?>
<!-- Generator: Adobe Illustrator 25.2.1, SVG Export Plug-In . SVG Version: 6.00 Build 0)  -->
<svg version="1.1" id="Layer_1" xmlns="http://www.w3.org/2000/svg" xmlns:xlink="http://www.w3.org/1999/xlink" x="0px" y="0px"
	 viewBox="0 0 841.89 595.28" style="enable-background:new 0 0 841.89 595.28;" xml:space="preserve">
<style type="text/css">
	.st0{opacity:0.5;}
	.st1{fill:#76B82A;}
</style>
<path class="st0" d="M243.62,199.06"/>
<path d="M746.23,133.79c0,9.28-7.52,16.79-16.79,16.79c-9.28,0-16.8-7.52-16.8-16.79c0-9.28,7.52-16.79,16.8-16.79
	C738.71,117,746.23,124.52,746.23,133.79z"/>
<path d="M671.47,133.68c0,9.28-7.52,16.8-16.8,16.8c-9.28,0-16.8-7.52-16.8-16.8c0-9.28,7.52-16.8,16.8-16.8
	C663.95,116.88,671.47,124.4,671.47,133.68z"/>
<path d="M746.21,185.43c0-9.23-7.7-16.72-16.93-16.72c-9.24,0-16.72,7.49-16.72,16.72c0,0.03,0.05,133.69,0.05,133.69
	c0,9.23,7.7,16.72,16.93,16.72c9.24,0,16.72-7.48,16.72-16.72C746.26,319.08,746.21,185.43,746.21,185.43z"/>
<path d="M294.83,335.89c0-0.04-0.06-150.45-0.06-150.45c0-9.23-7.69-16.72-16.93-16.72c-9.24,0-16.72,7.49-16.72,16.72
	c0,0.02,0.05,112.87,0.05,112.87c-3.31-1.77-6.3-4.09-8.81-6.84c-0.27-0.3-22.75-22.71-22.75-22.71l-24.21-24.21
	c0,0-69.51-69.46-69.61-69.56c-3.87-3.87-9.18-6.57-14.77-6.32c-2.75,0.12-5.51,0.02-8.27,0.04c-8.19,0.09-16.4,0-24.59,0
	c-2.06,0-4.12,0-6.18,0c0,0,135.67,135.93,148.04,148.05c12.05,11.81,28.55,19.09,46.75,19.09
	C276.81,335.85,294.83,335.89,294.83,335.89z"/>
<path class="st1" d="M637.67,269.14c0,0.03,0.01,0.06,0.01,0.09c0,18.31-14.84,33.14-33.14,33.14c-0.02,0-35.37,0-35.37,0
	c-9.24,0-16.72,7.69-16.72,16.92c0,9.24,7.49,16.72,16.72,16.72c0.02,0,35.35,0,35.37,0c36.89,0,66.79-29.9,66.79-66.79
	c0-0.03,0-0.06,0-0.09v-0.02c0-37.42,0.02-83.61,0.02-83.61c0-9.24-7.7-16.73-16.93-16.73c-9.24,0-16.72,7.49-16.72,16.73
	C637.7,185.53,637.67,269.14,637.67,269.14z"/>
<path class="st1" d="M530.08,235.6c0-0.03-0.01-0.07-0.01-0.1c0-18.3,14.84-33.14,33.15-33.14c0.02,0,0.88,0,0.88,0
	c19.55,0.01,34.5,0.01,34.5,0.01c9.23,0,16.72-7.7,16.72-16.93c0-9.24-7.49-16.73-16.72-16.73c-0.01,0-35.35,0-35.38,0
	c-36.89,0-66.79,29.9-66.79,66.79c0,0.03,0,0.07,0,0.1l0,0.02c0,37.42-0.01,83.61-0.01,83.61c0,9.24,7.69,16.73,16.93,16.73
	c9.23,0,16.72-7.49,16.72-16.73C530.05,319.2,530.08,235.6,530.08,235.6z"/>
<path d="M474.09,236.37c0-0.02,0-0.04,0-0.05c0-36.9-29.91-66.8-66.79-66.8c-0.03,0-20.62,0-20.65,0c-36.89,0-66.8,29.9-66.8,66.8
	c0,0.01,0.01,32.69,0.01,32.69c0,0.02-0.01,0.04-0.01,0.07c0,36.88,29.91,66.79,66.8,66.79c0.03,0,36.84,0,36.84,0
	c9.24,0,16.72-7.69,16.72-16.93c0-9.24-7.49-16.72-16.72-16.72c-0.01,0-36.74,0-36.74,0c-0.04,0-0.07,0-0.1,0
	c-18.31,0-33.15-14.84-33.15-33.14c0-0.02,0-0.04,0-0.07v-32.63c0-0.02,0-0.04,0-0.05c0-18.31,14.84-33.15,33.15-33.15
	c0.03,0,20.61,0,20.65,0c18.3,0,33.17,14.91,33.17,33.21l-22.34-0.01l-30.45,0.02c-9.23,0-16.72,7.69-16.72,16.93
	c0,9.24,7.49,16.72,16.72,16.72c0.01,0,70.85,0,86.42-0.01L474.09,236.37z"/>
</svg>
