<svg width="120" height="40" viewBox="0 0 120 40" fill="none" xmlns="http://www.w3.org/2000/svg">
<g clip-path="url(#clip0_5_34)">
<path d="M110.135 0.00013H9.53468C9.16798 0.00013 8.80568 0.00013 8.43995 0.00213C8.1338 0.00413 7.83009 0.00994 7.521 0.01483C6.84951 0.0227318 6.17961 0.0818063 5.5171 0.19154C4.85552 0.303663 4.21467 0.515046 3.61622 0.81854C3.0185 1.1246 2.47235 1.5223 1.99757 1.9972C1.5203 2.47077 1.12246 3.01815 0.81935 3.61829C0.5154 4.21724 0.304641 4.85907 0.19435 5.52161C0.0830109 6.18332 0.0230984 6.85265 0.01515 7.52361C0.00587 7.83021 0.00489 8.13783 0 8.44447V31.5587C0.00489 31.8692 0.00587 32.17 0.01515 32.4806C0.0231008 33.1516 0.0830134 33.8209 0.19435 34.4825C0.304336 35.1455 0.515108 35.7877 0.81935 36.3868C1.12233 36.985 1.52022 37.5302 1.99757 38.0011C2.47054 38.4781 3.01705 38.8761 3.61622 39.1798C4.21467 39.4841 4.85545 39.6968 5.5171 39.8106C6.17972 39.9195 6.84956 39.9786 7.521 39.9874C7.83009 39.9942 8.1338 39.9981 8.43995 39.9981C8.80567 40.0001 9.168 40.0001 9.53468 40.0001H110.135C110.494 40.0001 110.859 40.0001 111.219 39.9981C111.523 39.9981 111.836 39.9942 112.141 39.9874C112.811 39.9791 113.479 39.92 114.141 39.8106C114.804 39.696 115.448 39.4834 116.049 39.1798C116.647 38.8759 117.193 38.478 117.666 38.0011C118.142 37.5284 118.541 36.9836 118.848 36.3868C119.15 35.7872 119.358 35.1451 119.467 34.4825C119.578 33.8208 119.64 33.1516 119.652 32.4806C119.656 32.17 119.656 31.8692 119.656 31.5587C119.664 31.1954 119.664 30.8341 119.664 30.4649V9.53626C119.664 9.17005 119.664 8.80677 119.656 8.44447C119.656 8.13783 119.656 7.83021 119.652 7.52357C119.64 6.85255 119.578 6.18337 119.467 5.52157C119.358 4.85941 119.149 4.21763 118.848 3.61825C118.23 2.41533 117.252 1.43616 116.049 0.81845C115.448 0.515697 114.804 0.30437 114.141 0.19145C113.48 0.0812328 112.811 0.0221378 112.141 0.01469C111.836 0.00981 111.523 0.00395 111.219 0.002C110.859 0 110.494 0.00013 110.135 0.00013Z" fill="#A6A6A6"/>
<path d="M8.44484 39.125C8.14016 39.125 7.84284 39.1211 7.54055 39.1143C6.91433 39.1061 6.28957 39.0516 5.67141 38.9512C5.095 38.8519 4.53661 38.6673 4.01467 38.4033C3.49751 38.1415 3.02582 37.7983 2.61767 37.3867C2.20361 36.98 1.85888 36.5082 1.59716 35.9902C1.33255 35.4688 1.14942 34.9099 1.05416 34.333C0.951281 33.7131 0.895621 33.0863 0.887656 32.458C0.881316 32.2471 0.873016 31.5449 0.873016 31.5449V8.44434C0.873016 8.44434 0.881856 7.75293 0.887706 7.5498C0.895332 6.92248 0.950669 6.29665 1.05324 5.67773C1.14868 5.09925 1.33194 4.53875 1.5967 4.01563C1.85746 3.49794 2.20027 3.02586 2.61184 2.61768C3.02294 2.20562 3.49614 1.8606 4.01418 1.59521C4.53492 1.33209 5.09225 1.14873 5.6675 1.05127C6.28769 0.949836 6.91462 0.894996 7.54301 0.88721L8.44533 0.875H111.214L112.127 0.8877C112.75 0.895099 113.371 0.94945 113.985 1.05029C114.566 1.14898 115.13 1.33362 115.656 1.59814C116.694 2.13299 117.539 2.97916 118.071 4.01807C118.332 4.53758 118.512 5.09351 118.606 5.66699C118.71 6.29099 118.768 6.92174 118.78 7.5542C118.783 7.8374 118.783 8.1416 118.783 8.44434C118.791 8.81934 118.791 9.17627 118.791 9.53613V30.4648C118.791 30.8281 118.791 31.1826 118.783 31.54C118.783 31.8652 118.783 32.1631 118.779 32.4697C118.768 33.0909 118.71 33.7104 118.608 34.3232C118.515 34.9043 118.333 35.4675 118.068 35.9932C117.805 36.5056 117.462 36.9733 117.053 37.3789C116.644 37.7927 116.172 38.1379 115.653 38.4014C115.128 38.6674 114.566 38.8527 113.985 38.9512C113.367 39.0522 112.742 39.1067 112.116 39.1143C111.823 39.1211 111.517 39.125 111.219 39.125L110.135 39.127L8.44484 39.125Z" fill="black"/>
<rect x="11" y="10" width="19" height="19" fill="white"/>
<path d="M43.5 14H41.7045V8.18182H43.5795C44.1439 8.18182 44.6269 8.2983 45.0284 8.53125C45.4299 8.76231 45.7377 9.0947 45.9517 9.52841C46.1657 9.96023 46.2727 10.4773 46.2727 11.0795C46.2727 11.6856 46.1648 12.2074 45.9489 12.6449C45.733 13.0805 45.4186 13.4157 45.0057 13.6506C44.5928 13.8835 44.0909 14 43.5 14ZM42.4091 13.375H43.4545C43.9356 13.375 44.3343 13.2822 44.6506 13.0966C44.9669 12.911 45.2027 12.6468 45.358 12.304C45.5133 11.9612 45.5909 11.553 45.5909 11.0795C45.5909 10.6098 45.5142 10.2055 45.3608 9.86648C45.2074 9.52557 44.9782 9.2642 44.6733 9.08239C44.3684 8.89867 43.9886 8.80682 43.5341 8.80682H42.4091V13.375ZM49.1364 14.0909C48.7424 14.0909 48.3968 13.9972 48.0994 13.8097C47.804 13.6222 47.5729 13.3598 47.4062 13.0227C47.2415 12.6856 47.1591 12.2917 47.1591 11.8409C47.1591 11.3864 47.2415 10.9896 47.4062 10.6506C47.5729 10.3116 47.804 10.0483 48.0994 9.8608C48.3968 9.6733 48.7424 9.57955 49.1364 9.57955C49.5303 9.57955 49.875 9.6733 50.1705 9.8608C50.4678 10.0483 50.6989 10.3116 50.8636 10.6506C51.0303 10.9896 51.1136 11.3864 51.1136 11.8409C51.1136 12.2917 51.0303 12.6856 50.8636 13.0227C50.6989 13.3598 50.4678 13.6222 50.1705 13.8097C49.875 13.9972 49.5303 14.0909 49.1364 14.0909ZM49.1364 13.4886C49.4356 13.4886 49.6818 13.4119 49.875 13.2585C50.0682 13.1051 50.2112 12.9034 50.304 12.6534C50.3968 12.4034 50.4432 12.1326 50.4432 11.8409C50.4432 11.5492 50.3968 11.2775 50.304 11.0256C50.2112 10.7737 50.0682 10.5701 49.875 10.4148C49.6818 10.2595 49.4356 10.1818 49.1364 10.1818C48.8371 10.1818 48.5909 10.2595 48.3977 10.4148C48.2045 10.5701 48.0616 10.7737 47.9688 11.0256C47.8759 11.2775 47.8295 11.5492 47.8295 11.8409C47.8295 12.1326 47.8759 12.4034 47.9688 12.6534C48.0616 12.9034 48.2045 13.1051 48.3977 13.2585C48.5909 13.4119 48.8371 13.4886 49.1364 13.4886ZM52.9773 14L51.6477 9.63636H52.3523L53.2955 12.9773H53.3409L54.2727 9.63636H54.9886L55.9091 12.9659H55.9545L56.8977 9.63636H57.6023L56.2727 14H55.6136L54.6591 10.6477H54.5909L53.6364 14H52.9773ZM59.1591 11.375V14H58.4886V9.63636H59.1364V10.3182H59.1932C59.2955 10.0966 59.4508 9.91856 59.6591 9.78409C59.8674 9.64773 60.1364 9.57955 60.4659 9.57955C60.7614 9.57955 61.0199 9.64015 61.2415 9.76136C61.4631 9.88068 61.6354 10.0625 61.7585 10.3068C61.8816 10.5492 61.9432 10.8561 61.9432 11.2273V14H61.2727V11.2727C61.2727 10.9299 61.1837 10.6629 61.0057 10.4716C60.8277 10.2784 60.5833 10.1818 60.2727 10.1818C60.0587 10.1818 59.8674 10.2282 59.6989 10.321C59.5322 10.4138 59.4006 10.5492 59.304 10.7273C59.2074 10.9053 59.1591 11.1212 59.1591 11.375ZM63.8388 8.18182V14H63.1683V8.18182H63.8388ZM66.8395 14.0909C66.4455 14.0909 66.0999 13.9972 65.8026 13.8097C65.5071 13.6222 65.276 13.3598 65.1094 13.0227C64.9446 12.6856 64.8622 12.2917 64.8622 11.8409C64.8622 11.3864 64.9446 10.9896 65.1094 10.6506C65.276 10.3116 65.5071 10.0483 65.8026 9.8608C66.0999 9.6733 66.4455 9.57955 66.8395 9.57955C67.2334 9.57955 67.5781 9.6733 67.8736 9.8608C68.1709 10.0483 68.402 10.3116 68.5668 10.6506C68.7334 10.9896 68.8168 11.3864 68.8168 11.8409C68.8168 12.2917 68.7334 12.6856 68.5668 13.0227C68.402 13.3598 68.1709 13.6222 67.8736 13.8097C67.5781 13.9972 67.2334 14.0909 66.8395 14.0909ZM66.8395 13.4886C67.1387 13.4886 67.3849 13.4119 67.5781 13.2585C67.7713 13.1051 67.9143 12.9034 68.0071 12.6534C68.0999 12.4034 68.1463 12.1326 68.1463 11.8409C68.1463 11.5492 68.0999 11.2775 68.0071 11.0256C67.9143 10.7737 67.7713 10.5701 67.5781 10.4148C67.3849 10.2595 67.1387 10.1818 66.8395 10.1818C66.5402 10.1818 66.294 10.2595 66.1009 10.4148C65.9077 10.5701 65.7647 10.7737 65.6719 11.0256C65.5791 11.2775 65.5327 11.5492 65.5327 11.8409C65.5327 12.1326 65.5791 12.4034 65.6719 12.6534C65.7647 12.9034 65.9077 13.1051 66.1009 13.2585C66.294 13.4119 66.5402 13.4886 66.8395 13.4886ZM71.1243 14.1023C70.8478 14.1023 70.5968 14.0502 70.3714 13.946C70.1461 13.84 69.9671 13.6875 69.8345 13.4886C69.7019 13.2879 69.6357 13.0455 69.6357 12.7614C69.6357 12.5114 69.6849 12.3087 69.7834 12.1534C69.8819 11.9962 70.0135 11.8731 70.1783 11.7841C70.343 11.6951 70.5249 11.6288 70.7237 11.5852C70.9245 11.5398 71.1262 11.5038 71.3288 11.4773C71.594 11.4432 71.8089 11.4176 71.9737 11.4006C72.1404 11.3816 72.2616 11.3504 72.3374 11.3068C72.415 11.2633 72.4538 11.1875 72.4538 11.0795V11.0568C72.4538 10.7765 72.3771 10.5587 72.2237 10.4034C72.0722 10.2481 71.8421 10.1705 71.5334 10.1705C71.2133 10.1705 70.9624 10.2405 70.7805 10.3807C70.5987 10.5208 70.4709 10.6705 70.397 10.8295L69.7607 10.6023C69.8743 10.3371 70.0258 10.1307 70.2152 9.98295C70.4065 9.83333 70.6148 9.72917 70.8402 9.67045C71.0675 9.60985 71.291 9.57955 71.5107 9.57955C71.6508 9.57955 71.8118 9.59659 71.9936 9.63068C72.1773 9.66288 72.3544 9.73011 72.5249 9.83239C72.6972 9.93466 72.8402 10.089 72.9538 10.2955C73.0675 10.5019 73.1243 10.7784 73.1243 11.125V14H72.4538V13.4091H72.4197C72.3743 13.5038 72.2985 13.6051 72.1925 13.7131C72.0864 13.821 71.9453 13.9129 71.7692 13.9886C71.593 14.0644 71.3781 14.1023 71.1243 14.1023ZM71.2266 13.5C71.4917 13.5 71.7152 13.4479 71.897 13.3438C72.0807 13.2396 72.219 13.1051 72.3118 12.9403C72.4065 12.7756 72.4538 12.6023 72.4538 12.4205V11.8068C72.4254 11.8409 72.3629 11.8722 72.2663 11.9006C72.1716 11.9271 72.0618 11.9508 71.9368 11.9716C71.8137 11.9905 71.6934 12.0076 71.576 12.0227C71.4605 12.036 71.3667 12.0473 71.2947 12.0568C71.1205 12.0795 70.9576 12.1165 70.8061 12.1676C70.6565 12.2169 70.5353 12.2917 70.4425 12.392C70.3516 12.4905 70.3061 12.625 70.3061 12.7955C70.3061 13.0284 70.3923 13.2045 70.5646 13.3239C70.7389 13.4413 70.9595 13.5 71.2266 13.5ZM75.9957 14.0909C75.6321 14.0909 75.3111 13.9991 75.0327 13.8153C74.7543 13.6297 74.5365 13.3684 74.3793 13.0312C74.2221 12.6922 74.1435 12.2917 74.1435 11.8295C74.1435 11.3712 74.2221 10.9735 74.3793 10.6364C74.5365 10.2992 74.7552 10.0388 75.0355 9.85511C75.3158 9.6714 75.6397 9.57955 76.0071 9.57955C76.2912 9.57955 76.5156 9.62689 76.6804 9.72159C76.8471 9.81439 76.974 9.92045 77.0611 10.0398C77.1501 10.1572 77.2192 10.2538 77.2685 10.3295H77.3253V8.18182H77.9957V14H77.348V13.3295H77.2685C77.2192 13.4091 77.1491 13.5095 77.0582 13.6307C76.9673 13.75 76.8376 13.857 76.669 13.9517C76.5005 14.0445 76.276 14.0909 75.9957 14.0909ZM76.0866 13.4886C76.3556 13.4886 76.5829 13.4186 76.7685 13.2784C76.9541 13.1364 77.0952 12.9403 77.1918 12.6903C77.2884 12.4384 77.3366 12.1477 77.3366 11.8182C77.3366 11.4924 77.2893 11.2074 77.1946 10.9631C77.0999 10.7169 76.9598 10.5256 76.7741 10.3892C76.5885 10.2509 76.3594 10.1818 76.0866 10.1818C75.8026 10.1818 75.5658 10.2547 75.3764 10.4006C75.1889 10.5445 75.0478 10.7405 74.9531 10.9886C74.8603 11.2348 74.8139 11.5114 74.8139 11.8182C74.8139 12.1288 74.8613 12.411 74.956 12.6648C75.0526 12.9167 75.1946 13.1174 75.3821 13.267C75.5715 13.4148 75.8063 13.4886 76.0866 13.4886ZM83.5099 9.63636V10.2045H81.1577V9.63636H83.5099ZM81.8622 14V9.03409C81.8622 8.78409 81.9209 8.57576 82.0384 8.40909C82.1558 8.24242 82.3082 8.11742 82.4957 8.03409C82.6832 7.95076 82.8812 7.90909 83.0895 7.90909C83.2543 7.90909 83.3887 7.92235 83.4929 7.94886C83.5971 7.97538 83.6747 8 83.7259 8.02273L83.5327 8.60227C83.4986 8.59091 83.4512 8.5767 83.3906 8.55966C83.3319 8.54261 83.2543 8.53409 83.1577 8.53409C82.9361 8.53409 82.776 8.58996 82.6776 8.7017C82.581 8.81345 82.5327 8.97727 82.5327 9.19318V14H81.8622ZM86.0426 14.0909C85.6487 14.0909 85.303 13.9972 85.0057 13.8097C84.7102 13.6222 84.4792 13.3598 84.3125 13.0227C84.1477 12.6856 84.0653 12.2917 84.0653 11.8409C84.0653 11.3864 84.1477 10.9896 84.3125 10.6506C84.4792 10.3116 84.7102 10.0483 85.0057 9.8608C85.303 9.6733 85.6487 9.57955 86.0426 9.57955C86.4366 9.57955 86.7813 9.6733 87.0767 9.8608C87.3741 10.0483 87.6051 10.3116 87.7699 10.6506C87.9366 10.9896 88.0199 11.3864 88.0199 11.8409C88.0199 12.2917 87.9366 12.6856 87.7699 13.0227C87.6051 13.3598 87.3741 13.6222 87.0767 13.8097C86.7813 13.9972 86.4366 14.0909 86.0426 14.0909ZM86.0426 13.4886C86.3419 13.4886 86.5881 13.4119 86.7812 13.2585C86.9744 13.1051 87.1174 12.9034 87.2102 12.6534C87.303 12.4034 87.3494 12.1326 87.3494 11.8409C87.3494 11.5492 87.303 11.2775 87.2102 11.0256C87.1174 10.7737 86.9744 10.5701 86.7812 10.4148C86.5881 10.2595 86.3419 10.1818 86.0426 10.1818C85.7434 10.1818 85.4972 10.2595 85.304 10.4148C85.1108 10.5701 84.9678 10.7737 84.875 11.0256C84.7822 11.2775 84.7358 11.5492 84.7358 11.8409C84.7358 12.1326 84.7822 12.4034 84.875 12.6534C84.9678 12.9034 85.1108 13.1051 85.304 13.2585C85.4972 13.4119 85.7434 13.4886 86.0426 13.4886ZM89.0433 14V9.63636H89.6911V10.2955H89.7365C89.8161 10.0795 89.96 9.90436 90.1683 9.76989C90.3767 9.63542 90.6115 9.56818 90.8729 9.56818C90.9221 9.56818 90.9837 9.56913 91.0575 9.57102C91.1314 9.57292 91.1873 9.57576 91.2251 9.57955V10.2614C91.2024 10.2557 91.1503 10.2472 91.0689 10.2358C90.9893 10.2225 90.9051 10.2159 90.8161 10.2159C90.6039 10.2159 90.4145 10.2604 90.2479 10.3494C90.0831 10.4366 89.9524 10.5578 89.8558 10.7131C89.7611 10.8665 89.7138 11.0417 89.7138 11.2386V14H89.0433Z" fill="white"/>
<path d="M44.3345 30L41.3089 19.0909H43.0401L45.1655 27.5391H45.2667L47.4773 19.0909H49.1925L51.4031 27.5444H51.5043L53.6243 19.0909H55.3608L52.3299 30H50.6733L48.3775 21.8288H48.2923L45.9964 30H44.3345ZM56.7338 30V21.8182H58.3264V30H56.7338ZM57.5381 20.5558C57.2611 20.5558 57.0232 20.4634 56.8243 20.2788C56.629 20.0906 56.5313 19.8668 56.5313 19.6076C56.5313 19.3448 56.629 19.1211 56.8243 18.9364C57.0232 18.7482 57.2611 18.6541 57.5381 18.6541C57.8151 18.6541 58.0512 18.7482 58.2465 18.9364C58.4454 19.1211 58.5448 19.3448 58.5448 19.6076C58.5448 19.8668 58.4454 20.0906 58.2465 20.2788C58.0512 20.4634 57.8151 20.5558 57.5381 20.5558ZM62.0618 25.142V30H60.4691V21.8182H61.9979V23.1499H62.0991C62.2873 22.7166 62.582 22.3686 62.9833 22.1058C63.3881 21.843 63.8977 21.7116 64.5121 21.7116C65.0696 21.7116 65.5579 21.8288 65.9769 22.0632C66.396 22.294 66.7209 22.6385 66.9517 23.0966C67.1825 23.5547 67.2979 24.1211 67.2979 24.7958V30H65.7053V24.9876C65.7053 24.3945 65.5508 23.9311 65.2418 23.5973C64.9329 23.2599 64.5085 23.0913 63.9688 23.0913C63.5994 23.0913 63.271 23.1712 62.9833 23.331C62.6992 23.4908 62.4737 23.7251 62.3068 24.0341C62.1435 24.3395 62.0618 24.7088 62.0618 25.142ZM72.4968 30.1598C71.8363 30.1598 71.2468 29.9911 70.7283 29.6538C70.2134 29.3129 69.8086 28.8281 69.5138 28.1996C69.2227 27.5675 69.0771 26.8093 69.0771 25.9251C69.0771 25.0408 69.2244 24.2844 69.5192 23.6559C69.8175 23.0273 70.2259 22.5462 70.7443 22.2124C71.2628 21.8786 71.8505 21.7116 72.5075 21.7116C73.0153 21.7116 73.4237 21.7969 73.7326 21.9673C74.0451 22.1342 74.2866 22.3295 74.457 22.5533C74.631 22.777 74.766 22.9741 74.8619 23.1445H74.9577V19.0909H76.5504V30H74.995V28.7269H74.8619C74.766 28.9009 74.6275 29.0998 74.4464 29.3235C74.2688 29.5472 74.0238 29.7425 73.7113 29.9094C73.3988 30.0763 72.994 30.1598 72.4968 30.1598ZM72.8484 28.8015C73.3065 28.8015 73.6935 28.6808 74.0096 28.4393C74.3292 28.1942 74.5707 27.8551 74.734 27.4219C74.9009 26.9886 74.9844 26.4844 74.9844 25.9091C74.9844 25.3409 74.9027 24.8437 74.7393 24.4176C74.576 23.9915 74.3363 23.6594 74.0202 23.4215C73.7042 23.1836 73.3136 23.0646 72.8484 23.0646C72.369 23.0646 71.9695 23.1889 71.6499 23.4375C71.3303 23.6861 71.0888 24.0252 70.9254 24.4549C70.7656 24.8846 70.6857 25.3693 70.6857 25.9091C70.6857 26.456 70.7674 26.9478 70.9308 27.3846C71.0941 27.8214 71.3356 28.1676 71.6552 28.4233C71.9783 28.6754 72.3761 28.8015 72.8484 28.8015ZM82.27 30.1651C81.5029 30.1651 80.8335 29.9893 80.2618 29.6378C79.6901 29.2862 79.2462 28.7944 78.9301 28.1623C78.6141 27.5302 78.4561 26.7915 78.4561 25.9464C78.4561 25.0977 78.6141 24.3555 78.9301 23.7198C79.2462 23.0842 79.6901 22.5906 80.2618 22.239C80.8335 21.8874 81.5029 21.7116 82.27 21.7116C83.037 21.7116 83.7064 21.8874 84.2781 22.239C84.8499 22.5906 85.2938 23.0842 85.6098 23.7198C85.9259 24.3555 86.0839 25.0977 86.0839 25.9464C86.0839 26.7915 85.9259 27.5302 85.6098 28.1623C85.2938 28.7944 84.8499 29.2862 84.2781 29.6378C83.7064 29.9893 83.037 30.1651 82.27 30.1651ZM82.2753 28.8281C82.7725 28.8281 83.1844 28.6967 83.5111 28.4339C83.8378 28.1712 84.0793 27.8214 84.2355 27.3846C84.3953 26.9478 84.4752 26.4666 84.4752 25.9411C84.4752 25.419 84.3953 24.9396 84.2355 24.5028C84.0793 24.0625 83.8378 23.7092 83.5111 23.4428C83.1844 23.1765 82.7725 23.0433 82.2753 23.0433C81.7746 23.0433 81.3591 23.1765 81.0289 23.4428C80.7021 23.7092 80.4589 24.0625 80.2991 24.5028C80.1428 24.9396 80.0647 25.419 80.0647 25.9411C80.0647 26.4666 80.1428 26.9478 80.2991 27.3846C80.4589 27.8214 80.7021 28.1712 81.0289 28.4339C81.3591 28.6967 81.7746 28.8281 82.2753 28.8281ZM89.3865 30L86.9788 21.8182H88.6247L90.2281 27.8267H90.308L91.9166 21.8182H93.5626L95.1606 27.8001H95.2405L96.8332 21.8182H98.4791L96.0768 30H94.4521L92.7902 24.0927H92.6677L91.0058 30H89.3865ZM106.122 23.8157L104.678 24.0714C104.618 23.8867 104.522 23.7109 104.39 23.544C104.263 23.3771 104.089 23.2404 103.868 23.1339C103.648 23.0273 103.373 22.9741 103.043 22.9741C102.592 22.9741 102.215 23.0753 101.914 23.2777C101.612 23.4766 101.461 23.734 101.461 24.0501C101.461 24.3235 101.562 24.5437 101.764 24.7106C101.967 24.8775 102.294 25.0142 102.744 25.1207L104.044 25.419C104.797 25.593 105.358 25.8612 105.727 26.2234C106.097 26.5856 106.281 27.0561 106.281 27.6349C106.281 28.125 106.139 28.5618 105.855 28.9453C105.575 29.3253 105.182 29.6236 104.678 29.8402C104.177 30.0568 103.597 30.1651 102.936 30.1651C102.02 30.1651 101.273 29.9698 100.694 29.5792C100.115 29.185 99.7598 28.6257 99.6284 27.9013L101.168 27.6669C101.264 28.0682 101.461 28.3718 101.759 28.5778C102.057 28.7802 102.446 28.8814 102.926 28.8814C103.448 28.8814 103.865 28.7731 104.177 28.5565C104.49 28.3363 104.646 28.0682 104.646 27.7521C104.646 27.4964 104.55 27.2816 104.358 27.1076C104.17 26.9336 103.881 26.8022 103.49 26.7134L102.105 26.4098C101.342 26.2358 100.777 25.9588 100.411 25.5788C100.049 25.1989 99.8681 24.7177 99.8681 24.1353C99.8681 23.6523 100.003 23.2298 100.273 22.8675C100.543 22.5053 100.916 22.223 101.392 22.0206C101.867 21.8146 102.412 21.7116 103.027 21.7116C103.911 21.7116 104.607 21.9034 105.115 22.2869C105.623 22.6669 105.958 23.1765 106.122 23.8157Z" fill="white"/>
</g>
<defs>
<clipPath id="clip0_5_34">
<rect width="119.664" height="40" fill="white"/>
</clipPath>
</defs>
</svg>
