<svg width="120" height="40" viewBox="0 0 120 40" fill="none" xmlns="http://www.w3.org/2000/svg">
<g clip-path="url(#clip0_8_63)">
<path d="M110.135 0.00013H9.53468C9.16798 0.00013 8.80568 0.00013 8.43995 0.00213C8.1338 0.00413 7.83009 0.00994 7.521 0.01483C6.84951 0.0227318 6.17961 0.0818063 5.5171 0.19154C4.85552 0.303663 4.21467 0.515046 3.61622 0.81854C3.0185 1.1246 2.47235 1.5223 1.99757 1.9972C1.5203 2.47077 1.12246 3.01815 0.81935 3.61829C0.5154 4.21724 0.304641 4.85907 0.19435 5.52161C0.0830109 6.18332 0.0230984 6.85265 0.01515 7.52361C0.00587 7.83021 0.00489 8.13783 0 8.44447V31.5587C0.00489 31.8692 0.00587 32.17 0.01515 32.4806C0.0231008 33.1516 0.0830134 33.8209 0.19435 34.4825C0.304336 35.1455 0.515108 35.7877 0.81935 36.3868C1.12233 36.985 1.52022 37.5302 1.99757 38.0011C2.47054 38.4781 3.01705 38.8761 3.61622 39.1798C4.21467 39.4841 4.85545 39.6968 5.5171 39.8106C6.17972 39.9195 6.84956 39.9786 7.521 39.9874C7.83009 39.9942 8.1338 39.9981 8.43995 39.9981C8.80567 40.0001 9.168 40.0001 9.53468 40.0001H110.135C110.494 40.0001 110.859 40.0001 111.219 39.9981C111.523 39.9981 111.836 39.9942 112.141 39.9874C112.811 39.9791 113.479 39.92 114.141 39.8106C114.804 39.696 115.448 39.4834 116.049 39.1798C116.647 38.8759 117.193 38.478 117.666 38.0011C118.142 37.5284 118.541 36.9836 118.848 36.3868C119.15 35.7872 119.358 35.1451 119.467 34.4825C119.578 33.8208 119.64 33.1516 119.652 32.4806C119.656 32.17 119.656 31.8692 119.656 31.5587C119.664 31.1954 119.664 30.8341 119.664 30.4649V9.53626C119.664 9.17005 119.664 8.80677 119.656 8.44447C119.656 8.13783 119.656 7.83021 119.652 7.52357C119.64 6.85255 119.578 6.18337 119.467 5.52157C119.358 4.85941 119.149 4.21763 118.848 3.61825C118.23 2.41533 117.252 1.43616 116.049 0.81845C115.448 0.515697 114.804 0.30437 114.141 0.19145C113.48 0.0812328 112.811 0.0221378 112.141 0.01469C111.836 0.00981 111.523 0.00395 111.219 0.002C110.859 0 110.494 0.00013 110.135 0.00013Z" fill="#A6A6A6"/>
<path d="M8.44483 39.125C8.14015 39.125 7.84283 39.1211 7.54054 39.1143C6.91432 39.1061 6.28957 39.0516 5.6714 38.9512C5.09499 38.8519 4.5366 38.6673 4.01466 38.4033C3.4975 38.1415 3.02581 37.7983 2.61766 37.3867C2.2036 36.98 1.85888 36.5082 1.59715 35.9902C1.33254 35.4688 1.14941 34.9099 1.05415 34.333C0.951275 33.7131 0.895615 33.0863 0.887651 32.458C0.881311 32.2471 0.873011 31.5449 0.873011 31.5449V8.44434C0.873011 8.44434 0.881851 7.75293 0.887701 7.5498C0.895327 6.92248 0.950663 6.29665 1.05323 5.67773C1.14867 5.09925 1.33194 4.53875 1.59669 4.01563C1.85746 3.49794 2.20027 3.02586 2.61183 2.61768C3.02293 2.20562 3.49613 1.8606 4.01417 1.59521C4.53492 1.33209 5.09225 1.14873 5.66749 1.05127C6.28769 0.949836 6.91461 0.894996 7.543 0.88721L8.44532 0.875H111.214L112.127 0.8877C112.75 0.895099 113.371 0.94945 113.985 1.05029C114.566 1.14898 115.13 1.33362 115.656 1.59814C116.694 2.13299 117.539 2.97916 118.071 4.01807C118.332 4.53758 118.512 5.09351 118.606 5.66699C118.71 6.29099 118.768 6.92174 118.78 7.5542C118.783 7.8374 118.783 8.1416 118.783 8.44434C118.791 8.81934 118.791 9.17627 118.791 9.53613V30.4648C118.791 30.8281 118.791 31.1826 118.783 31.54C118.783 31.8652 118.783 32.1631 118.779 32.4697C118.768 33.0909 118.71 33.7104 118.608 34.3232C118.515 34.9043 118.333 35.4675 118.068 35.9932C117.805 36.5056 117.462 36.9733 117.053 37.3789C116.644 37.7927 116.172 38.1379 115.653 38.4014C115.128 38.6674 114.566 38.8527 113.985 38.9512C113.367 39.0522 112.742 39.1067 112.116 39.1143C111.823 39.1211 111.517 39.125 111.219 39.125L110.135 39.127L8.44483 39.125Z" fill="black"/>
<path d="M45.6818 10C45.6193 9.80871 45.5369 9.63731 45.4347 9.4858C45.3343 9.33239 45.214 9.2017 45.0739 9.09375C44.9356 8.9858 44.7784 8.90341 44.6023 8.84659C44.4261 8.78977 44.233 8.76136 44.0227 8.76136C43.678 8.76136 43.3646 8.85038 43.0824 9.02841C42.8002 9.20644 42.5758 9.46875 42.4091 9.81534C42.2424 10.1619 42.1591 10.5871 42.1591 11.0909C42.1591 11.5947 42.2434 12.0199 42.4119 12.3665C42.5805 12.7131 42.8087 12.9754 43.0966 13.1534C43.3845 13.3314 43.7083 13.4205 44.0682 13.4205C44.4015 13.4205 44.6951 13.3494 44.9489 13.2074C45.2045 13.0634 45.4034 12.8608 45.5455 12.5994C45.6894 12.3362 45.7614 12.0265 45.7614 11.6705L45.9773 11.7159H44.2273V11.0909H46.4432V11.7159C46.4432 12.1951 46.3409 12.6117 46.1364 12.9659C45.9337 13.3201 45.6534 13.5947 45.2955 13.7898C44.9394 13.983 44.5303 14.0795 44.0682 14.0795C43.553 14.0795 43.1004 13.9583 42.7102 13.7159C42.322 13.4735 42.0189 13.1288 41.8011 12.6818C41.5852 12.2348 41.4773 11.7045 41.4773 11.0909C41.4773 10.6307 41.5388 10.2169 41.6619 9.84943C41.7869 9.48011 41.9631 9.16572 42.1903 8.90625C42.4176 8.64678 42.6866 8.44792 42.9972 8.30966C43.3078 8.1714 43.6496 8.10227 44.0227 8.10227C44.3295 8.10227 44.6155 8.14867 44.8807 8.24148C45.1477 8.33239 45.3854 8.46212 45.5938 8.63068C45.804 8.79735 45.9792 8.99716 46.1193 9.23011C46.2595 9.46117 46.3561 9.7178 46.4091 10H45.6818ZM49.3885 14.0909C48.968 14.0909 48.6054 13.9981 48.3004 13.8125C47.9974 13.625 47.7635 13.3636 47.5987 13.0284C47.4358 12.6913 47.3544 12.2992 47.3544 11.8523C47.3544 11.4053 47.4358 11.0114 47.5987 10.6705C47.7635 10.3277 47.9927 10.0606 48.2862 9.86932C48.5817 9.67614 48.9264 9.57955 49.3203 9.57955C49.5476 9.57955 49.772 9.61742 49.9936 9.69318C50.2152 9.76894 50.4169 9.89205 50.5987 10.0625C50.7805 10.2311 50.9254 10.4545 51.0334 10.733C51.1413 11.0114 51.1953 11.3542 51.1953 11.7614V12.0455H47.8317V11.4659H50.5135C50.5135 11.2197 50.4643 11 50.3658 10.8068C50.2692 10.6136 50.1309 10.4612 49.951 10.3494C49.773 10.2377 49.5627 10.1818 49.3203 10.1818C49.0533 10.1818 48.8222 10.2481 48.6271 10.3807C48.4339 10.5114 48.2853 10.6818 48.1811 10.892C48.0769 11.1023 48.0249 11.3277 48.0249 11.5682V11.9545C48.0249 12.2841 48.0817 12.5634 48.1953 12.7926C48.3108 13.0199 48.4709 13.1932 48.6754 13.3125C48.88 13.4299 49.1177 13.4886 49.3885 13.4886C49.5646 13.4886 49.7237 13.464 49.8658 13.4148C50.0097 13.3636 50.1338 13.2879 50.2379 13.1875C50.3421 13.0852 50.4226 12.9583 50.4794 12.8068L51.1271 12.9886C51.0589 13.2083 50.9444 13.4015 50.7834 13.5682C50.6224 13.733 50.4235 13.8617 50.1868 13.9545C49.95 14.0455 49.6839 14.0909 49.3885 14.0909ZM54.1129 9.63636V10.2045H51.8516V9.63636H54.1129ZM52.5107 8.59091H53.1811V12.75C53.1811 12.9394 53.2086 13.0814 53.2635 13.1761C53.3203 13.2689 53.3923 13.3314 53.4794 13.3636C53.5684 13.3939 53.6622 13.4091 53.7607 13.4091C53.8345 13.4091 53.8951 13.4053 53.9425 13.3977C53.9898 13.3883 54.0277 13.3807 54.0561 13.375L54.1925 13.9773C54.147 13.9943 54.0836 14.0114 54.0021 14.0284C53.9207 14.0473 53.8175 14.0568 53.6925 14.0568C53.5031 14.0568 53.3175 14.0161 53.1357 13.9347C52.9557 13.8532 52.8061 13.7292 52.6868 13.5625C52.5694 13.3958 52.5107 13.1856 52.5107 12.9318V8.59091ZM57.3714 14V9.63636H58.0419V14H57.3714ZM57.7124 8.90909C57.5817 8.90909 57.469 8.86458 57.3743 8.77557C57.2815 8.68655 57.2351 8.57955 57.2351 8.45455C57.2351 8.32955 57.2815 8.22254 57.3743 8.13352C57.469 8.04451 57.5817 8 57.7124 8C57.843 8 57.9548 8.04451 58.0476 8.13352C58.1423 8.22254 58.1896 8.32955 58.1896 8.45455C58.1896 8.57955 58.1423 8.68655 58.0476 8.77557C57.9548 8.86458 57.843 8.90909 57.7124 8.90909ZM61.1676 9.63636V10.2045H58.9062V9.63636H61.1676ZM59.5653 8.59091H60.2358V12.75C60.2358 12.9394 60.2633 13.0814 60.3182 13.1761C60.375 13.2689 60.447 13.3314 60.5341 13.3636C60.6231 13.3939 60.7169 13.4091 60.8153 13.4091C60.8892 13.4091 60.9498 13.4053 60.9972 13.3977C61.0445 13.3883 61.0824 13.3807 61.1108 13.375L61.2472 13.9773C61.2017 13.9943 61.1383 14.0114 61.0568 14.0284C60.9754 14.0473 60.8722 14.0568 60.7472 14.0568C60.5578 14.0568 60.3722 14.0161 60.1903 13.9347C60.0104 13.8532 59.8608 13.7292 59.7415 13.5625C59.6241 13.3958 59.5653 13.1856 59.5653 12.9318V8.59091ZM66.1989 14.0909C65.8049 14.0909 65.4593 13.9972 65.1619 13.8097C64.8665 13.6222 64.6354 13.3598 64.4688 13.0227C64.304 12.6856 64.2216 12.2917 64.2216 11.8409C64.2216 11.3864 64.304 10.9896 64.4688 10.6506C64.6354 10.3116 64.8665 10.0483 65.1619 9.8608C65.4593 9.6733 65.8049 9.57955 66.1989 9.57955C66.5928 9.57955 66.9375 9.6733 67.233 9.8608C67.5303 10.0483 67.7614 10.3116 67.9261 10.6506C68.0928 10.9896 68.1761 11.3864 68.1761 11.8409C68.1761 12.2917 68.0928 12.6856 67.9261 13.0227C67.7614 13.3598 67.5303 13.6222 67.233 13.8097C66.9375 13.9972 66.5928 14.0909 66.1989 14.0909ZM66.1989 13.4886C66.4981 13.4886 66.7443 13.4119 66.9375 13.2585C67.1307 13.1051 67.2737 12.9034 67.3665 12.6534C67.4593 12.4034 67.5057 12.1326 67.5057 11.8409C67.5057 11.5492 67.4593 11.2775 67.3665 11.0256C67.2737 10.7737 67.1307 10.5701 66.9375 10.4148C66.7443 10.2595 66.4981 10.1818 66.1989 10.1818C65.8996 10.1818 65.6534 10.2595 65.4602 10.4148C65.267 10.5701 65.1241 10.7737 65.0312 11.0256C64.9384 11.2775 64.892 11.5492 64.892 11.8409C64.892 12.1326 64.9384 12.4034 65.0312 12.6534C65.1241 12.9034 65.267 13.1051 65.4602 13.2585C65.6534 13.4119 65.8996 13.4886 66.1989 13.4886ZM69.87 11.375V14H69.1996V9.63636H69.8473V10.3182H69.9041C70.0064 10.0966 70.1617 9.91856 70.37 9.78409C70.5784 9.64773 70.8473 9.57955 71.1768 9.57955C71.4723 9.57955 71.7308 9.64015 71.9524 9.76136C72.174 9.88068 72.3464 10.0625 72.4695 10.3068C72.5926 10.5492 72.6541 10.8561 72.6541 11.2273V14H71.9837V11.2727C71.9837 10.9299 71.8946 10.6629 71.7166 10.4716C71.5386 10.2784 71.2943 10.1818 70.9837 10.1818C70.7696 10.1818 70.5784 10.2282 70.4098 10.321C70.2431 10.4138 70.1115 10.5492 70.0149 10.7273C69.9183 10.9053 69.87 11.1212 69.87 11.375Z" fill="white"/>
<path d="M42.2784 31V19.3636H49.4943V20.875H44.0341V24.4205H48.9773V25.9261H44.0341V31H42.2784ZM56.6591 24.4432V25.9205H51.5V24.4432H56.6591ZM62.8267 31H59.0597V19.3636H62.946C64.0862 19.3636 65.0653 19.5966 65.8835 20.0625C66.7017 20.5246 67.3286 21.1894 67.7642 22.0568C68.2036 22.9205 68.4233 23.9564 68.4233 25.1648C68.4233 26.3769 68.2017 27.4186 67.7585 28.2898C67.3191 29.161 66.6828 29.8314 65.8494 30.3011C65.0161 30.767 64.0085 31 62.8267 31ZM60.8153 29.4659H62.7301C63.6165 29.4659 64.3532 29.2992 64.9403 28.9659C65.5275 28.6288 65.9669 28.142 66.2585 27.5057C66.5502 26.8655 66.696 26.0852 66.696 25.1648C66.696 24.2519 66.5502 23.4773 66.2585 22.8409C65.9706 22.2045 65.5407 21.7216 64.9688 21.392C64.3968 21.0625 63.6866 20.8977 62.8381 20.8977H60.8153V29.4659ZM70.4702 31V22.2727H72.1122V23.6591H72.2031C72.3622 23.1894 72.6425 22.8201 73.044 22.5511C73.4493 22.2784 73.9077 22.142 74.419 22.142C74.5251 22.142 74.6501 22.1458 74.794 22.1534C74.9418 22.161 75.0573 22.1705 75.1406 22.1818V23.8068C75.0724 23.7879 74.9512 23.767 74.777 23.7443C74.6027 23.7178 74.4285 23.7045 74.2543 23.7045C73.8527 23.7045 73.4948 23.7898 73.1804 23.9602C72.8698 24.1269 72.6236 24.3598 72.4418 24.6591C72.2599 24.9545 72.169 25.2917 72.169 25.6705V31H70.4702ZM79.9744 31.1761C79.1563 31.1761 78.4422 30.9886 77.8324 30.6136C77.2225 30.2386 76.7491 29.714 76.4119 29.0398C76.0748 28.3655 75.9062 27.5777 75.9062 26.6761C75.9062 25.7708 76.0748 24.9792 76.4119 24.3011C76.7491 23.6231 77.2225 23.0966 77.8324 22.7216C78.4422 22.3466 79.1563 22.1591 79.9744 22.1591C80.7926 22.1591 81.5066 22.3466 82.1165 22.7216C82.7263 23.0966 83.1998 23.6231 83.5369 24.3011C83.8741 24.9792 84.0426 25.7708 84.0426 26.6761C84.0426 27.5777 83.8741 28.3655 83.5369 29.0398C83.1998 29.714 82.7263 30.2386 82.1165 30.6136C81.5066 30.9886 80.7926 31.1761 79.9744 31.1761ZM79.9801 29.75C80.5104 29.75 80.9498 29.6098 81.2983 29.3295C81.6468 29.0492 81.9044 28.6761 82.071 28.2102C82.2415 27.7443 82.3267 27.2311 82.3267 26.6705C82.3267 26.1136 82.2415 25.6023 82.071 25.1364C81.9044 24.6667 81.6468 24.2898 81.2983 24.0057C80.9498 23.7216 80.5104 23.5795 79.9801 23.5795C79.446 23.5795 79.0028 23.7216 78.6506 24.0057C78.3021 24.2898 78.0426 24.6667 77.8722 25.1364C77.7055 25.6023 77.6222 26.1136 77.6222 26.6705C77.6222 27.2311 77.7055 27.7443 77.8722 28.2102C78.0426 28.6761 78.3021 29.0492 78.6506 29.3295C79.0028 29.6098 79.446 29.75 79.9801 29.75ZM85.9389 31V22.2727H87.6378V31H85.9389ZM86.7969 20.9261C86.5014 20.9261 86.2476 20.8277 86.0355 20.6307C85.8272 20.4299 85.723 20.1913 85.723 19.9148C85.723 19.6345 85.8272 19.3958 86.0355 19.1989C86.2476 18.9981 86.5014 18.8977 86.7969 18.8977C87.0923 18.8977 87.3442 18.9981 87.5526 19.1989C87.7647 19.3958 87.8707 19.6345 87.8707 19.9148C87.8707 20.1913 87.7647 20.4299 87.5526 20.6307C87.3442 20.8277 87.0923 20.9261 86.7969 20.9261ZM93.1903 31.1705C92.4858 31.1705 91.857 30.9905 91.304 30.6307C90.7547 30.267 90.3229 29.75 90.0085 29.0795C89.6979 28.4053 89.5426 27.5966 89.5426 26.6534C89.5426 25.7102 89.6998 24.9034 90.0142 24.233C90.3324 23.5625 90.768 23.0492 91.321 22.6932C91.8741 22.3371 92.5009 22.1591 93.2017 22.1591C93.7434 22.1591 94.179 22.25 94.5085 22.4318C94.8419 22.6098 95.0994 22.8182 95.2812 23.0568C95.4669 23.2955 95.6108 23.5057 95.7131 23.6875H95.8153V19.3636H97.5142V31H95.8551V29.642H95.7131C95.6108 29.8277 95.4631 30.0398 95.2699 30.2784C95.0805 30.517 94.8191 30.7254 94.4858 30.9034C94.1525 31.0814 93.7206 31.1705 93.1903 31.1705ZM93.5653 29.7216C94.054 29.7216 94.4669 29.5928 94.804 29.3352C95.1449 29.0739 95.4025 28.7121 95.5767 28.25C95.7547 27.7879 95.8438 27.25 95.8438 26.6364C95.8438 26.0303 95.7566 25.5 95.5824 25.0455C95.4081 24.5909 95.1525 24.2367 94.8153 23.983C94.4782 23.7292 94.0616 23.6023 93.5653 23.6023C93.054 23.6023 92.6278 23.7348 92.2869 24C91.946 24.2652 91.6884 24.6269 91.5142 25.0852C91.3438 25.5436 91.2585 26.0606 91.2585 26.6364C91.2585 27.2197 91.3456 27.7443 91.5199 28.2102C91.6941 28.6761 91.9517 29.0455 92.2926 29.3182C92.6373 29.5871 93.0616 29.7216 93.5653 29.7216Z" fill="white"/>
<g clip-path="url(#clip1_8_63)">
<g filter="url(#filter0_f_8_63)">
<path fill-rule="evenodd" clip-rule="evenodd" d="M10.3067 8.99331C10.1876 8.99002 10.0701 9.02083 9.96792 9.08212C9.86576 9.14341 9.78324 9.23261 9.73008 9.33923C9.67693 9.44585 9.65535 9.56545 9.66789 9.68392C9.68043 9.8024 9.72657 9.91483 9.80087 10.008L11.6026 12.34C11.5391 12.5065 11.5011 12.6857 11.5011 12.8751V14.8751V16.3078V16.3751C11.5011 17.2061 12.1701 17.8752 13.0011 17.8752H29.0011C29.8321 17.8752 30.5011 17.2061 30.5011 16.3751V14.3751V12.9426V12.8751C30.5011 12.685 30.4625 12.5052 30.3985 12.3381L32.1993 10.008C32.2745 9.91359 32.3208 9.79948 32.3326 9.67938C32.3444 9.55928 32.3211 9.43832 32.2657 9.33114C32.2102 9.22396 32.1249 9.13511 32.0201 9.07534C31.9153 9.01557 31.7954 8.98744 31.6749 8.99432C31.584 8.99944 31.4952 9.02437 31.4149 9.06738C31.3346 9.11039 31.2647 9.17044 31.2101 9.24331L29.4942 11.464C29.3391 11.4101 29.175 11.3751 29.0011 11.3751H13.0011C12.8268 11.3751 12.6623 11.4097 12.5069 11.464L10.7901 9.24331C10.7336 9.16789 10.6608 9.10621 10.5771 9.06292C10.4934 9.01963 10.4009 8.99584 10.3067 8.99331ZM13.0011 18.3752C12.8972 18.3752 12.7962 18.3856 12.6983 18.4056C12.0136 18.5437 11.5011 19.1406 11.5011 19.8607V19.8752V29.7648V29.7794V29.8751C11.5011 30.7061 12.1701 31.3751 13.0011 31.3751H29.0011C29.8321 31.3751 30.5011 30.7061 30.5011 29.8751V19.8751V19.8605C30.5011 19.1404 29.9886 18.5436 29.3038 18.4055C29.206 18.386 29.1049 18.375 29.0011 18.375L13.0011 18.3752Z" fill="#263238" fill-opacity="0.4"/>
</g>
<path fill-rule="evenodd" clip-rule="evenodd" d="M31.7054 9.25L29.5804 12Z" fill="#8AB000"/>
<path d="M31.7054 9.25L29.5804 12" stroke="#769616" stroke-width="2.5" stroke-linecap="round"/>
<path fill-rule="evenodd" clip-rule="evenodd" d="M31.6942 8.6236C31.921 8.6296 32.0751 8.7181 32.1846 8.8479C31.1711 10.0524 31.0004 10.2437 29.6169 11.9586C29.1071 12.6181 28.5761 12.2773 29.0858 11.6178L31.2108 8.86777C31.3253 8.71497 31.5034 8.62875 31.6942 8.6236Z" fill="white" fill-opacity="0.298039"/>
<path fill-rule="evenodd" clip-rule="evenodd" d="M32.1888 8.85416C32.2508 8.92811 32.4694 9.25646 32.2001 9.63226L30.0751 12.3823C29.5653 13.0418 29.5001 12.0761 29.5001 12.0761C29.5001 12.0761 31.3674 9.82111 32.1888 8.85416Z" fill="#263238" fill-opacity="0.2"/>
<path fill-rule="evenodd" clip-rule="evenodd" d="M31.8309 8.74106C32.05 8.74106 32.3109 8.81185 32.2431 9.14035C32.1913 9.39115 29.9126 12.1776 29.9126 12.1776C29.4029 12.8371 28.6659 12.5157 29.1757 11.8563L31.2929 9.11996C31.423 8.97496 31.5971 8.74816 31.8309 8.74106Z" fill="#8AB000"/>
<path fill-rule="evenodd" clip-rule="evenodd" d="M10.2945 9.25L12.4195 12Z" fill="#8AB000"/>
<path d="M10.2945 9.25L12.4195 12" stroke="#769616" stroke-width="2.5" stroke-linecap="round"/>
<path fill-rule="evenodd" clip-rule="evenodd" d="M10.3057 8.6236C10.0789 8.6296 9.92481 8.7181 9.81529 8.8479C10.8288 10.0524 10.9995 10.2437 12.383 11.9586C12.8928 12.6181 13.4238 12.2773 12.9141 11.6178L10.7891 8.86777C10.6746 8.71497 10.4965 8.62875 10.3057 8.6236Z" fill="white" fill-opacity="0.298039"/>
<path fill-rule="evenodd" clip-rule="evenodd" d="M9.81105 8.85416C9.7491 8.92811 9.53046 9.25646 9.7998 9.63226L11.9248 12.3823C12.4346 13.0418 12.4997 12.0761 12.4997 12.0761C12.4997 12.0761 10.6325 9.82111 9.81105 8.85416Z" fill="#263238" fill-opacity="0.2"/>
<path fill-rule="evenodd" clip-rule="evenodd" d="M10.1689 8.74106C9.94986 8.74106 9.68901 8.81185 9.75684 9.14035C9.80862 9.39115 12.0872 12.1776 12.0872 12.1776C12.597 12.8371 13.334 12.5157 12.8242 11.8563L10.707 9.11996C10.5769 8.97496 10.4028 8.74816 10.1689 8.74106Z" fill="#8AB000"/>
<path d="M29 11H13C12.1716 11 11.5 11.6716 11.5 12.5V16C11.5 16.8284 12.1716 17.5 13 17.5H29C29.8284 17.5 30.5 16.8284 30.5 16V12.5C30.5 11.6716 29.8284 11 29 11Z" fill="#AEEA00"/>
<path d="M29 12.5H13C12.1716 12.5 11.5 13.1716 11.5 14V16C11.5 16.8284 12.1716 17.5 13 17.5H29C29.8284 17.5 30.5 16.8284 30.5 16V14C30.5 13.1716 29.8284 12.5 29 12.5Z" fill="#263238" fill-opacity="0.2"/>
<path d="M29 11H13C12.1716 11 11.5 11.6716 11.5 12.5V14.5C11.5 15.3284 12.1716 16 13 16H29C29.8284 16 30.5 15.3284 30.5 14.5V12.5C30.5 11.6716 29.8284 11 29 11Z" fill="white" fill-opacity="0.298039"/>
<path d="M29 11.5H13C12.1716 11.5 11.5 12.0682 11.5 12.7692V15.7308C11.5 16.4318 12.1716 17 13 17H29C29.8284 17 30.5 16.4318 30.5 15.7308V12.7692C30.5 12.0682 29.8284 11.5 29 11.5Z" fill="#AEEA00"/>
<path d="M29 18H13C12.1716 18 11.5 18.6716 11.5 19.5V29.5C11.5 30.3284 12.1716 31 13 31H29C29.8284 31 30.5 30.3284 30.5 29.5V19.5C30.5 18.6716 29.8284 18 29 18Z" fill="#1976D2"/>
<path d="M29 24.5H13C12.1716 24.5 11.5 25.1716 11.5 26V29.5C11.5 30.3284 12.1716 31 13 31H29C29.8284 31 30.5 30.3284 30.5 29.5V26C30.5 25.1716 29.8284 24.5 29 24.5Z" fill="#263238" fill-opacity="0.2"/>
<path d="M29 18H13C12.1716 18 11.5 18.6716 11.5 19.5V23C11.5 23.8284 12.1716 24.5 13 24.5H29C29.8284 24.5 30.5 23.8284 30.5 23V19.5C30.5 18.6716 29.8284 18 29 18Z" fill="white" fill-opacity="0.2"/>
<path d="M29 18.5H13C12.1716 18.5 11.5 19.1199 11.5 19.8846V29.1154C11.5 29.8801 12.1716 30.5 13 30.5H29C29.8284 30.5 30.5 29.8801 30.5 29.1154V19.8846C30.5 19.1199 29.8284 18.5 29 18.5Z" fill="#1976D2"/>
<path d="M21 21.375C19.5597 21.375 18.3401 22.3673 17.9834 23.7002H19.5898C19.867 23.2075 20.3874 22.875 21 22.875C21.9063 22.875 22.625 23.5936 22.625 24.5C22.625 25.4063 21.9063 26.125 21 26.125C20.3463 26.125 19.7944 25.7486 19.5352 25.2002H17.958C18.2791 26.583 19.524 27.625 21 27.625C22.717 27.625 24.125 26.217 24.125 24.5C24.125 22.783 22.717 21.375 21 21.375Z" fill="#0D47A1"/>
<path d="M21 29.275C23.6372 29.275 25.775 27.1371 25.775 24.5C25.775 21.8628 23.6372 19.725 21 19.725C18.3628 19.725 16.225 21.8628 16.225 24.5C16.225 27.1371 18.3628 29.275 21 29.275Z" stroke="#0D47A1" stroke-width="1.9" stroke-linecap="round"/>
<path d="M16.1875 16.25C17.1195 16.25 17.875 15.3826 17.875 14.3125C17.875 13.2424 17.1195 12.375 16.1875 12.375C15.2555 12.375 14.5 13.2424 14.5 14.3125C14.5 15.3826 15.2555 16.25 16.1875 16.25Z" fill="#263238" fill-opacity="0.2"/>
<path d="M16.1875 16.25C17.1195 16.25 17.875 15.4945 17.875 14.5625C17.875 13.6305 17.1195 12.875 16.1875 12.875C15.2555 12.875 14.5 13.6305 14.5 14.5625C14.5 15.4945 15.2555 16.25 16.1875 16.25Z" fill="white"/>
<path d="M25.9375 16.25C26.8695 16.25 27.625 15.3826 27.625 14.3125C27.625 13.2424 26.8695 12.375 25.9375 12.375C25.0055 12.375 24.25 13.2424 24.25 14.3125C24.25 15.3826 25.0055 16.25 25.9375 16.25Z" fill="#263238" fill-opacity="0.2"/>
<path d="M25.9375 16.25C26.8695 16.25 27.625 15.4945 27.625 14.5625C27.625 13.6305 26.8695 12.875 25.9375 12.875C25.0055 12.875 24.25 13.6305 24.25 14.5625C24.25 15.4945 25.0055 16.25 25.9375 16.25Z" fill="white"/>
<path fill-rule="evenodd" clip-rule="evenodd" d="M10.3067 8.61825C10.1876 8.61496 10.0701 8.64577 9.96792 8.70706C9.86576 8.76834 9.78324 8.85758 9.73008 8.9642C9.67693 9.07082 9.65535 9.19039 9.66789 9.30886C9.68043 9.42734 9.72657 9.53977 9.80087 9.6329L11.6026 11.965C11.5391 12.1315 11.5011 12.3107 11.5011 12.5001V14.5001V15.9327V16.0001C11.5011 16.8311 12.1701 17.5001 13.0011 17.5001H29.0011C29.8321 17.5001 30.5011 16.8311 30.5011 16.0001V14.0001V12.5675V12.5001C30.5011 12.31 30.4625 12.1301 30.3985 11.963L32.1993 9.6329C32.2745 9.53853 32.3208 9.42442 32.3326 9.30432C32.3444 9.18421 32.3211 9.06326 32.2657 8.95608C32.2102 8.8489 32.1249 8.76005 32.0201 8.70028C31.9153 8.64051 31.7954 8.61238 31.6749 8.61926C31.584 8.62438 31.4952 8.64934 31.4149 8.69235C31.3346 8.73536 31.2647 8.79538 31.2101 8.86825L29.4942 11.089C29.3391 11.035 29.175 11.0001 29.0011 11.0001H13.0011C12.8268 11.0001 12.6623 11.0346 12.5069 11.089L10.7901 8.86825C10.7336 8.79283 10.6608 8.73118 10.5771 8.68789C10.4934 8.6446 10.4009 8.62078 10.3067 8.61825ZM13.0011 18.0001C12.8972 18.0001 12.7962 18.0106 12.6983 18.0306C12.0136 18.1686 11.5011 18.7655 11.5011 19.4857V19.5002V29.3898V29.4043V29.5C11.5011 30.331 12.1701 31 13.0011 31H29.0011C29.8321 31 30.5011 30.331 30.5011 29.5V19.5V19.4855C30.5011 18.7654 29.9886 18.1685 29.3038 18.0305C29.206 18.011 29.1049 17.9999 29.0011 17.9999L13.0011 18.0001Z" fill="url(#paint0_radial_8_63)"/>
</g>
</g>
<defs>
<filter id="filter0_f_8_63" x="8.76335" y="8.09201" width="24.4733" height="24.1841" filterUnits="userSpaceOnUse" color-interpolation-filters="sRGB">
<feFlood flood-opacity="0" result="BackgroundImageFix"/>
<feBlend mode="normal" in="SourceGraphic" in2="BackgroundImageFix" result="shape"/>
<feGaussianBlur stdDeviation="0.450532" result="effect1_foregroundBlur_8_63"/>
</filter>
<radialGradient id="paint0_radial_8_63" cx="0" cy="0" r="1" gradientUnits="userSpaceOnUse" gradientTransform="translate(9.66568 8.61868) rotate(90) scale(22.3851 24)">
<stop stop-color="white" stop-opacity="0.0980392"/>
<stop offset="1" stop-color="white" stop-opacity="0"/>
</radialGradient>
<clipPath id="clip0_8_63">
<rect width="119.664" height="40" fill="white"/>
</clipPath>
<clipPath id="clip1_8_63">
<rect width="24" height="24" fill="white" transform="translate(9 8)"/>
</clipPath>
</defs>
</svg>
