<?xml version="1.0" encoding="UTF-8" standalone="no"?>
<!-- Created with Inkscape (http://www.inkscape.org/) -->

<svg
   version="1.1"
   id="svg2"
   width="180"
   height="53.333332"
   viewBox="0 0 180 53.333332"
   sodipodi:docname="google-play-badge.eps"
   xmlns:inkscape="http://www.inkscape.org/namespaces/inkscape"
   xmlns:sodipodi="http://sodipodi.sourceforge.net/DTD/sodipodi-0.dtd"
   xmlns="http://www.w3.org/2000/svg"
   xmlns:svg="http://www.w3.org/2000/svg">
  <defs
     id="defs6" />
  <sodipodi:namedview
     id="namedview4"
     pagecolor="#ffffff"
     bordercolor="#000000"
     borderopacity="0.25"
     inkscape:showpageshadow="2"
     inkscape:pageopacity="0.0"
     inkscape:pagecheckerboard="0"
     inkscape:deskcolor="#d1d1d1" />
  <g
     id="g8"
     inkscape:groupmode="layer"
     inkscape:label="ink_ext_XXXXXX"
     transform="matrix(1.3333333,0,0,-1.3333333,0,53.333333)">
    <g
       id="g10"
       transform="scale(0.1)">
      <path
         d="M 1300,0 H 50 C 22.5,0 0,22.5 0,50 v 300 c 0,27.5 22.5,50 50,50 h 1250 c 27.5,0 50,-22.5 50,-50 V 50 c 0,-27.5 -22.5,-50 -50,-50"
         style="fill:#100f0d;fill-opacity:1;fill-rule:nonzero;stroke:none"
         id="path12" />
      <path
         d="M 1300,400 H 50 C 22.5,400 0,377.5 0,350 V 50 C 0,22.5 22.5,0 50,0 h 1250 c 27.5,0 50,22.5 50,50 v 300 c 0,27.5 -22.5,50 -50,50 z m 0,-7.996 c 23.16,0 42,-18.844 42,-42.004 V 50 C 1342,26.8398 1323.16,7.99609 1300,7.99609 H 50 C 26.8398,7.99609 8.00391,26.8398 8.00391,50 v 300 c 0,23.16 18.83589,42.004 41.99609,42.004 h 1250"
         style="fill:#a2a2a1;fill-opacity:1;fill-rule:nonzero;stroke:none"
         id="path14" />
      <g
         id="g16"
         transform="scale(10)">
        <text
           xml:space="preserve"
           transform="matrix(1,0,0,-1,41.041,27)"
           style="font-variant:normal;font-weight:normal;font-size:8.38px;font-family:ProductSans;-inkscape-font-specification:ProductSans-Regular;writing-mode:lr-tb;fill:#ffffff;fill-opacity:1;fill-rule:nonzero;stroke:none"
           id="text20"><tspan
             x="0 6.8798785 11.588861 16.282219 18.292965 20.438473 25.131832 26.974602 33.930656"
             y="0"
             sodipodi:role="line"
             id="tspan18">GET IT ON</tspan></text>
      </g>
      <path
         d="m 473.676,302.047 h -29.031 v -7.188 h 21.75 c -0.579,-5.859 -2.922,-10.468 -6.86,-13.812 -3.937,-3.344 -8.953,-5.016 -14.89,-5.016 -6.532,0 -12.063,2.25 -16.579,6.766 -4.437,4.609 -6.687,10.297 -6.687,17.156 0,6.875 2.25,12.563 6.687,17.156 4.516,4.532 10.047,6.782 16.579,6.782 3.343,0 6.515,-0.578 9.453,-1.844 2.922,-1.25 5.265,-3 7.109,-5.266 l 5.516,5.516 c -2.5,2.844 -5.688,5.031 -9.61,6.625 -3.937,1.578 -8.047,2.328 -12.468,2.328 -8.704,0 -16.079,-3 -22.094,-9.031 -6.031,-6.031 -9.047,-13.469 -9.047,-22.266 0,-8.781 3.016,-16.234 9.047,-22.25 6.015,-6.031 13.39,-9.047 22.094,-9.047 9.109,0 16.39,2.938 22,8.875 4.937,4.938 7.453,11.625 7.453,20 0,1.422 -0.172,2.938 -0.422,4.516 z m 11.566,27.875 V 270 h 34.969 v 7.359 H 492.93 v 19 h 24.609 v 7.204 H 492.93 v 18.984 h 27.281 v 7.375 z m 84.246,-7.375 v 7.375 h -41.172 v -7.375 h 16.735 V 270 h 7.687 v 52.547 z m 37.571,7.375 h -7.688 V 270 h 7.688 z m 50.925,-7.375 v 7.375 h -41.171 v -7.375 h 16.734 V 270 h 7.687 v 52.547 z m 77.985,-0.406 c -5.938,6.109 -13.219,9.109 -21.922,9.109 -8.703,0 -15.984,-3 -21.922,-9.031 -5.937,-5.938 -8.875,-13.391 -8.875,-22.266 0,-8.859 2.938,-16.312 8.875,-22.25 5.938,-6.031 13.219,-9.047 21.922,-9.047 8.625,0 15.984,3.016 21.922,9.047 5.953,5.938 8.875,13.391 8.875,22.25 0,8.797 -2.922,16.235 -8.875,22.188 z m -38.328,-5.032 c 4.437,4.532 9.875,6.782 16.406,6.782 6.531,0 11.969,-2.25 16.328,-6.782 4.422,-4.437 6.609,-10.203 6.609,-17.156 0,-6.937 -2.187,-12.719 -6.609,-17.156 -4.359,-4.516 -9.797,-6.766 -16.328,-6.766 -6.531,0 -11.969,2.25 -16.406,6.766 -4.344,4.531 -6.516,10.219 -6.516,17.156 0,6.953 2.172,12.641 6.516,17.156 z m 65.797,-9.781 -0.329,11.547 h 0.329 L 793.906,270 h 8.032 v 59.922 h -7.704 v -35.063 l 0.344,-11.546 h -0.344 l -29.125,46.609 H 755.75 V 270 h 7.688 z"
         style="fill:none;stroke:#ffffff;stroke-width:2;stroke-linecap:butt;stroke-linejoin:miter;stroke-miterlimit:10;stroke-dasharray:none;stroke-opacity:1"
         id="path22" />
      <path
         d="m 1069.36,100 h 18.66 v 125.016 h -18.66 z m 168.07,79.98 -21.39,-54.199 h -0.64 l -22.2,54.199 h -20.1 l 33.3,-75.75 -18.99,-42.1402 h 19.46 L 1258.18,179.98 Z M 1131.6,114.199 c -6.1,0 -14.63,3.059 -14.63,10.617 0,9.649 10.62,13.348 19.78,13.348 8.2,0 12.07,-1.766 17.05,-4.18 -1.45,-11.582 -11.42,-19.785 -22.2,-19.785 z m 2.26,68.516 c -13.51,0 -27.5,-5.953 -33.29,-19.141 l 16.56,-6.914 c 3.54,6.914 10.13,9.164 17.05,9.164 9.65,0 19.46,-5.785 19.62,-16.082 v -1.285 c -3.38,1.93 -10.62,4.824 -19.46,4.824 -17.86,0 -36.03,-9.808 -36.03,-28.144 0,-16.727 14.64,-27.5042 31.04,-27.5042 12.54,0 19.47,5.6292 23.8,12.2262 h 0.65 v -9.656 h 18.02 v 47.934 c 0,22.195 -16.58,34.578 -37.96,34.578 z M 1018.54,164.762 H 992 v 42.851 h 26.54 c 13.95,0 21.87,-11.547 21.87,-21.425 0,-9.688 -7.92,-21.426 -21.87,-21.426 z m -0.48,60.254 H 973.348 V 100 H 992 v 47.363 h 26.06 c 20.68,0 41.01,14.969 41.01,38.825 0,23.851 -20.33,38.828 -41.01,38.828 z M 774.246,114.176 c -12.891,0 -23.68,10.797 -23.68,25.613 0,14.988 10.789,25.938 23.68,25.938 12.727,0 22.715,-10.95 22.715,-25.938 0,-14.816 -9.988,-25.613 -22.715,-25.613 z m 21.426,58.804 h -0.645 c -4.187,4.993 -12.246,9.504 -22.39,9.504 -21.27,0 -40.762,-18.691 -40.762,-42.695 0,-23.84 19.492,-42.3671 40.762,-42.3671 10.144,0 18.203,4.5121 22.39,9.6641 h 0.645 v -6.117 c 0,-16.2776 -8.699,-24.9729 -22.715,-24.9729 -11.434,0 -18.523,8.2148 -21.426,15.1406 l -16.269,-6.7656 c 4.668,-11.2734 17.07,-25.1328 37.695,-25.1328 21.914,0 40.441,12.8906 40.441,44.3087 v 76.359 H 795.672 Z M 826.289,100 h 18.68 v 125.016 h -18.68 z m 46.231,41.242 c -0.481,16.434 12.734,24.809 22.234,24.809 7.414,0 13.691,-3.707 15.793,-9.02 z m 57.996,14.18 c -3.543,9.5 -14.336,27.062 -36.407,27.062 -21.914,0 -40.117,-17.238 -40.117,-42.531 0,-23.844 18.047,-42.5311 42.207,-42.5311 19.492,0 30.774,11.9181 35.449,18.8481 l -14.5,9.668 c -4.835,-7.09 -11.437,-11.762 -20.949,-11.762 -9.5,0 -16.269,4.351 -20.613,12.89 l 56.863,23.52 z m -453.078,14.012 v -18.043 h 43.175 c -1.289,-10.149 -4.672,-17.559 -9.828,-22.715 -6.285,-6.281 -16.113,-13.211 -33.347,-13.211 -26.583,0 -47.364,21.426 -47.364,48.008 0,26.582 20.781,48.011 47.364,48.011 14.339,0 24.808,-5.64 32.542,-12.89 l 12.731,12.73 c -10.797,10.309 -25.133,18.203 -45.273,18.203 -36.415,0 -67.024,-29.644 -67.024,-66.054 0,-36.407 30.609,-66.0511 67.024,-66.0511 19.652,0 34.476,6.4451 46.074,18.5271 11.922,11.922 15.629,28.676 15.629,42.211 0,4.184 -0.325,8.051 -0.969,11.274 z m 110.789,-55.258 c -12.891,0 -24.008,10.633 -24.008,25.777 0,15.305 11.117,25.774 24.008,25.774 12.886,0 24.003,-10.469 24.003,-25.774 0,-15.144 -11.117,-25.777 -24.003,-25.777 z m 0,68.308 c -23.528,0 -42.696,-17.882 -42.696,-42.531 0,-24.488 19.168,-42.5311 42.696,-42.5311 23.519,0 42.691,18.0431 42.691,42.5311 0,24.649 -19.172,42.531 -42.691,42.531 z m 93.128,-68.308 c -12.882,0 -24.003,10.633 -24.003,25.777 0,15.305 11.121,25.774 24.003,25.774 12.891,0 24.004,-10.469 24.004,-25.774 0,-15.144 -11.113,-25.777 -24.004,-25.777 z m 0,68.308 c -23.519,0 -42.687,-17.882 -42.687,-42.531 0,-24.488 19.168,-42.5311 42.687,-42.5311 23.528,0 42.696,18.0431 42.696,42.5311 0,24.649 -19.168,42.531 -42.696,42.531"
         style="fill:#ffffff;fill-opacity:1;fill-rule:nonzero;stroke:none"
         id="path24" />
      <path
         d="M 207.172,205.758 100.707,92.7578 c 0.004,-0.0234 0.012,-0.043 0.016,-0.0664 3.265,-12.2695 14.472,-21.3047 27.773,-21.3047 5.317,0 10.309,1.4375 14.59,3.961 l 0.34,0.1992 119.84,69.1521 -56.094,61.059"
         style="fill:#eb3131;fill-opacity:1;fill-rule:nonzero;stroke:none"
         id="path26" />
      <path
         d="m 314.883,225 -0.102,0.07 -51.738,29.993 -58.289,-51.868 58.492,-58.484 51.465,29.695 c 9.023,4.871 15.148,14.383 15.148,25.352 0,10.89 -6.043,20.355 -14.976,25.242"
         style="fill:#f6b60b;fill-opacity:1;fill-rule:nonzero;stroke:none"
         id="path28" />
      <path
         d="m 100.703,307.227 c -0.64,-2.36 -0.9764,-4.832 -0.9764,-7.399 V 100.152 c 0,-2.5622 0.3324,-5.0426 0.9804,-7.3942 L 210.836,202.867 100.703,307.227"
         style="fill:#5778c5;fill-opacity:1;fill-rule:nonzero;stroke:none"
         id="path30" />
      <path
         d="m 207.957,199.992 55.106,55.09 -119.704,69.402 c -4.351,2.606 -9.429,4.11 -14.863,4.11 -13.301,0 -24.523,-9.051 -27.789,-21.336 -0.004,-0.012 -0.004,-0.02 -0.004,-0.031 L 207.957,199.992"
         style="fill:#3bad49;fill-opacity:1;fill-rule:nonzero;stroke:none"
         id="path32" />
    </g>
  </g>
</svg>
