<svg width="120" height="40" viewBox="0 0 120 40" fill="none" xmlns="http://www.w3.org/2000/svg">
<g clip-path="url(#clip0_5_20)">
<path d="M110.135 0.00013H9.53468C9.16798 0.00013 8.80568 0.00013 8.43995 0.00213C8.1338 0.00413 7.83009 0.00994 7.521 0.01483C6.84951 0.0227318 6.17961 0.0818063 5.5171 0.19154C4.85552 0.303663 4.21467 0.515046 3.61622 0.81854C3.0185 1.1246 2.47235 1.5223 1.99757 1.9972C1.5203 2.47077 1.12246 3.01815 0.81935 3.61829C0.5154 4.21724 0.304641 4.85907 0.19435 5.52161C0.0830109 6.18332 0.0230984 6.85265 0.01515 7.52361C0.00587 7.83021 0.00489 8.13783 0 8.44447V31.5587C0.00489 31.8692 0.00587 32.17 0.01515 32.4806C0.0231008 33.1516 0.0830134 33.8209 0.19435 34.4825C0.304336 35.1455 0.515108 35.7877 0.81935 36.3868C1.12233 36.985 1.52022 37.5302 1.99757 38.0011C2.47054 38.4781 3.01705 38.8761 3.61622 39.1798C4.21467 39.4841 4.85545 39.6968 5.5171 39.8106C6.17972 39.9195 6.84956 39.9786 7.521 39.9874C7.83009 39.9942 8.1338 39.9981 8.43995 39.9981C8.80567 40.0001 9.168 40.0001 9.53468 40.0001H110.135C110.494 40.0001 110.859 40.0001 111.219 39.9981C111.523 39.9981 111.836 39.9942 112.141 39.9874C112.811 39.9791 113.479 39.92 114.141 39.8106C114.804 39.696 115.448 39.4834 116.049 39.1798C116.647 38.8759 117.193 38.478 117.666 38.0011C118.142 37.5284 118.541 36.9836 118.848 36.3868C119.15 35.7872 119.358 35.1451 119.467 34.4825C119.578 33.8208 119.64 33.1516 119.652 32.4806C119.656 32.17 119.656 31.8692 119.656 31.5587C119.664 31.1954 119.664 30.8341 119.664 30.4649V9.53626C119.664 9.17005 119.664 8.80677 119.656 8.44447C119.656 8.13783 119.656 7.83021 119.652 7.52357C119.64 6.85255 119.578 6.18337 119.467 5.52157C119.358 4.85941 119.149 4.21763 118.848 3.61825C118.23 2.41533 117.252 1.43616 116.049 0.81845C115.448 0.515697 114.804 0.30437 114.141 0.19145C113.48 0.0812328 112.811 0.0221378 112.141 0.01469C111.836 0.00981 111.523 0.00395 111.219 0.002C110.859 0 110.494 0.00013 110.135 0.00013Z" fill="#A6A6A6"/>
<path d="M8.44483 39.125C8.14015 39.125 7.84283 39.1211 7.54054 39.1143C6.91432 39.1061 6.28957 39.0516 5.6714 38.9512C5.09499 38.8519 4.5366 38.6673 4.01466 38.4033C3.4975 38.1415 3.02581 37.7983 2.61766 37.3867C2.2036 36.98 1.85888 36.5082 1.59715 35.9902C1.33254 35.4688 1.14941 34.9099 1.05415 34.333C0.951275 33.7131 0.895615 33.0863 0.887651 32.458C0.881311 32.2471 0.873011 31.5449 0.873011 31.5449V8.44434C0.873011 8.44434 0.881851 7.75293 0.887701 7.5498C0.895327 6.92248 0.950663 6.29665 1.05323 5.67773C1.14867 5.09925 1.33194 4.53875 1.59669 4.01563C1.85746 3.49794 2.20027 3.02586 2.61183 2.61768C3.02293 2.20562 3.49613 1.8606 4.01417 1.59521C4.53492 1.33209 5.09225 1.14873 5.66749 1.05127C6.28769 0.949836 6.91461 0.894996 7.543 0.88721L8.44532 0.875H111.214L112.127 0.8877C112.75 0.895099 113.371 0.94945 113.985 1.05029C114.566 1.14898 115.13 1.33362 115.656 1.59814C116.694 2.13299 117.539 2.97916 118.071 4.01807C118.332 4.53758 118.512 5.09351 118.606 5.66699C118.71 6.29099 118.768 6.92174 118.78 7.5542C118.783 7.8374 118.783 8.1416 118.783 8.44434C118.791 8.81934 118.791 9.17627 118.791 9.53613V30.4648C118.791 30.8281 118.791 31.1826 118.783 31.54C118.783 31.8652 118.783 32.1631 118.779 32.4697C118.768 33.0909 118.71 33.7104 118.608 34.3232C118.515 34.9043 118.333 35.4675 118.068 35.9932C117.805 36.5056 117.462 36.9733 117.053 37.3789C116.644 37.7927 116.172 38.1379 115.653 38.4014C115.128 38.6674 114.566 38.8527 113.985 38.9512C113.367 39.0522 112.742 39.1067 112.116 39.1143C111.823 39.1211 111.517 39.125 111.219 39.125L110.135 39.127L8.44483 39.125Z" fill="black"/>
<path d="M45.5227 8.18182H46.2273V12.0341C46.2273 12.4318 46.1335 12.7869 45.946 13.0994C45.7604 13.41 45.4981 13.6553 45.1591 13.8352C44.8201 14.0133 44.4223 14.1023 43.9659 14.1023C43.5095 14.1023 43.1117 14.0133 42.7727 13.8352C42.4337 13.6553 42.1705 13.41 41.983 13.0994C41.7973 12.7869 41.7045 12.4318 41.7045 12.0341V8.18182H42.4091V11.9773C42.4091 12.2614 42.4716 12.5142 42.5966 12.7358C42.7216 12.9555 42.8996 13.1288 43.1307 13.2557C43.3636 13.3807 43.642 13.4432 43.9659 13.4432C44.2898 13.4432 44.5682 13.3807 44.8011 13.2557C45.0341 13.1288 45.2121 12.9555 45.3352 12.7358C45.4602 12.5142 45.5227 12.2614 45.5227 11.9773V8.18182ZM50.6342 10.6136L50.032 10.7841C49.9941 10.6837 49.9382 10.5862 49.8643 10.4915C49.7924 10.3949 49.6939 10.3153 49.5689 10.2528C49.4439 10.1903 49.2839 10.1591 49.0888 10.1591C48.8217 10.1591 48.5992 10.2206 48.4212 10.3438C48.245 10.465 48.157 10.6193 48.157 10.8068C48.157 10.9735 48.2176 11.1051 48.3388 11.2017C48.46 11.2983 48.6494 11.3788 48.907 11.4432L49.5547 11.6023C49.9448 11.697 50.2356 11.8419 50.4268 12.0369C50.6181 12.2301 50.7138 12.4792 50.7138 12.7841C50.7138 13.0341 50.6418 13.2576 50.4979 13.4545C50.3558 13.6515 50.157 13.8068 49.9013 13.9205C49.6456 14.0341 49.3482 14.0909 49.0092 14.0909C48.5642 14.0909 48.1958 13.9943 47.9041 13.8011C47.6125 13.608 47.4278 13.3258 47.3501 12.9545L47.9865 12.7955C48.0471 13.0303 48.1617 13.2064 48.3303 13.3239C48.5007 13.4413 48.7232 13.5 48.9979 13.5C49.3104 13.5 49.5585 13.4337 49.7422 13.3011C49.9278 13.1667 50.0206 13.0057 50.0206 12.8182C50.0206 12.6667 49.9676 12.5398 49.8615 12.4375C49.7554 12.3333 49.5926 12.2557 49.3729 12.2045L48.6456 12.0341C48.246 11.9394 47.9524 11.7926 47.7649 11.5938C47.5793 11.393 47.4865 11.142 47.4865 10.8409C47.4865 10.5947 47.5556 10.3769 47.6939 10.1875C47.834 9.99811 48.0244 9.84943 48.2649 9.74148C48.5073 9.63352 48.782 9.57955 49.0888 9.57955C49.5206 9.57955 49.8596 9.67424 50.1058 9.86364C50.3539 10.053 50.5301 10.303 50.6342 10.6136ZM53.5526 14.0909C53.1321 14.0909 52.7694 13.9981 52.4645 13.8125C52.1615 13.625 51.9276 13.3636 51.7628 13.0284C51.5999 12.6913 51.5185 12.2992 51.5185 11.8523C51.5185 11.4053 51.5999 11.0114 51.7628 10.6705C51.9276 10.3277 52.1567 10.0606 52.4503 9.86932C52.7457 9.67614 53.0904 9.57955 53.4844 9.57955C53.7116 9.57955 53.9361 9.61742 54.1577 9.69318C54.3793 9.76894 54.581 9.89205 54.7628 10.0625C54.9446 10.2311 55.0895 10.4545 55.1974 10.733C55.3054 11.0114 55.3594 11.3542 55.3594 11.7614V12.0455H51.9957V11.4659H54.6776C54.6776 11.2197 54.6283 11 54.5298 10.8068C54.4332 10.6136 54.295 10.4612 54.1151 10.3494C53.937 10.2377 53.7268 10.1818 53.4844 10.1818C53.2173 10.1818 52.9863 10.2481 52.7912 10.3807C52.598 10.5114 52.4493 10.6818 52.3452 10.892C52.241 11.1023 52.1889 11.3277 52.1889 11.5682V11.9545C52.1889 12.2841 52.2457 12.5634 52.3594 12.7926C52.4749 13.0199 52.6349 13.1932 52.8395 13.3125C53.044 13.4299 53.2817 13.4886 53.5526 13.4886C53.7287 13.4886 53.8878 13.464 54.0298 13.4148C54.1738 13.3636 54.2978 13.2879 54.402 13.1875C54.5062 13.0852 54.5866 12.9583 54.6435 12.8068L55.2912 12.9886C55.223 13.2083 55.1084 13.4015 54.9474 13.5682C54.7865 13.733 54.5876 13.8617 54.3509 13.9545C54.1141 14.0455 53.848 14.0909 53.5526 14.0909ZM58.6293 14V9.63636H59.2997V14H58.6293ZM58.9702 8.90909C58.8395 8.90909 58.7268 8.86458 58.6321 8.77557C58.5393 8.68655 58.4929 8.57955 58.4929 8.45455C58.4929 8.32955 58.5393 8.22254 58.6321 8.13352C58.7268 8.04451 58.8395 8 58.9702 8C59.1009 8 59.2126 8.04451 59.3054 8.13352C59.4001 8.22254 59.4474 8.32955 59.4474 8.45455C59.4474 8.57955 59.4001 8.68655 59.3054 8.77557C59.2126 8.86458 59.1009 8.90909 58.9702 8.90909ZM61.1982 11.375V14H60.5277V9.63636H61.1754V10.3182H61.2322C61.3345 10.0966 61.4898 9.91856 61.6982 9.78409C61.9065 9.64773 62.1754 9.57955 62.505 9.57955C62.8004 9.57955 63.0589 9.64015 63.2805 9.76136C63.5021 9.88068 63.6745 10.0625 63.7976 10.3068C63.9207 10.5492 63.9822 10.8561 63.9822 11.2273V14H63.3118V11.2727C63.3118 10.9299 63.2228 10.6629 63.0447 10.4716C62.8667 10.2784 62.6224 10.1818 62.3118 10.1818C62.0978 10.1818 61.9065 10.2282 61.7379 10.321C61.5713 10.4138 61.4396 10.5492 61.343 10.7273C61.2464 10.9053 61.1982 11.1212 61.1982 11.375ZM67.8892 15.6364C67.7756 15.6364 67.6742 15.6269 67.5852 15.608C67.4962 15.5909 67.4347 15.5739 67.4006 15.5568L67.571 14.9659C67.7339 15.0076 67.8778 15.0227 68.0028 15.0114C68.1278 15 68.2386 14.9441 68.3352 14.8438C68.4337 14.7453 68.5237 14.5852 68.6051 14.3636L68.7301 14.0227L67.1165 9.63636H67.8438L69.0483 13.1136H69.0938L70.2983 9.63636H71.0256L69.1733 14.6364C69.09 14.8617 68.9867 15.0483 68.8636 15.196C68.7405 15.3456 68.5975 15.4564 68.4347 15.5284C68.2737 15.6004 68.0919 15.6364 67.8892 15.6364ZM73.527 14.0909C73.133 14.0909 72.7874 13.9972 72.4901 13.8097C72.1946 13.6222 71.9635 13.3598 71.7969 13.0227C71.6321 12.6856 71.5497 12.2917 71.5497 11.8409C71.5497 11.3864 71.6321 10.9896 71.7969 10.6506C71.9635 10.3116 72.1946 10.0483 72.4901 9.8608C72.7874 9.6733 73.133 9.57955 73.527 9.57955C73.9209 9.57955 74.2656 9.6733 74.5611 9.8608C74.8584 10.0483 75.0895 10.3116 75.2543 10.6506C75.4209 10.9896 75.5043 11.3864 75.5043 11.8409C75.5043 12.2917 75.4209 12.6856 75.2543 13.0227C75.0895 13.3598 74.8584 13.6222 74.5611 13.8097C74.2656 13.9972 73.9209 14.0909 73.527 14.0909ZM73.527 13.4886C73.8262 13.4886 74.0724 13.4119 74.2656 13.2585C74.4588 13.1051 74.6018 12.9034 74.6946 12.6534C74.7874 12.4034 74.8338 12.1326 74.8338 11.8409C74.8338 11.5492 74.7874 11.2775 74.6946 11.0256C74.6018 10.7737 74.4588 10.5701 74.2656 10.4148C74.0724 10.2595 73.8262 10.1818 73.527 10.1818C73.2277 10.1818 72.9815 10.2595 72.7884 10.4148C72.5952 10.5701 72.4522 10.7737 72.3594 11.0256C72.2666 11.2775 72.2202 11.5492 72.2202 11.8409C72.2202 12.1326 72.2666 12.4034 72.3594 12.6534C72.4522 12.9034 72.5952 13.1051 72.7884 13.2585C72.9815 13.4119 73.2277 13.4886 73.527 13.4886ZM79.2777 12.2159V9.63636H79.9482V14H79.2777V13.2614H79.2322C79.13 13.483 78.9709 13.6714 78.755 13.8267C78.5391 13.9801 78.2663 14.0568 77.9368 14.0568C77.6641 14.0568 77.4216 13.9972 77.2095 13.8778C76.9974 13.7566 76.8307 13.5748 76.7095 13.3324C76.5883 13.0881 76.5277 12.7803 76.5277 12.4091V9.63636H77.1982V12.3636C77.1982 12.6818 77.2872 12.9356 77.4652 13.125C77.6451 13.3144 77.8743 13.4091 78.1527 13.4091C78.3194 13.4091 78.4889 13.3665 78.6612 13.2812C78.8355 13.196 78.9813 13.0653 79.0987 12.8892C79.218 12.7131 79.2777 12.4886 79.2777 12.2159ZM81.1761 14V9.63636H81.8239V10.2955H81.8693C81.9489 10.0795 82.0928 9.90436 82.3011 9.76989C82.5095 9.63542 82.7443 9.56818 83.0057 9.56818C83.0549 9.56818 83.1165 9.56913 83.1903 9.57102C83.2642 9.57292 83.3201 9.57576 83.358 9.57955V10.2614C83.3352 10.2557 83.2831 10.2472 83.2017 10.2358C83.1222 10.2225 83.0379 10.2159 82.9489 10.2159C82.7367 10.2159 82.5473 10.2604 82.3807 10.3494C82.2159 10.4366 82.0852 10.5578 81.9886 10.7131C81.8939 10.8665 81.8466 11.0417 81.8466 11.2386V14H81.1761Z" fill="white"/>
<path d="M42.2784 31V19.3636H46.5398C47.3655 19.3636 48.0492 19.5 48.5909 19.7727C49.1326 20.0417 49.5379 20.4072 49.8068 20.8693C50.0758 21.3277 50.2102 21.8447 50.2102 22.4205C50.2102 22.9053 50.1212 23.3144 49.9432 23.6477C49.7652 23.9773 49.5265 24.2424 49.2273 24.4432C48.9318 24.6402 48.6061 24.7841 48.25 24.875V24.9886C48.6364 25.0076 49.0133 25.1326 49.3807 25.3636C49.7519 25.5909 50.0587 25.9148 50.3011 26.3352C50.5436 26.7557 50.6648 27.267 50.6648 27.8693C50.6648 28.464 50.5246 28.9981 50.2443 29.4716C49.9678 29.9413 49.5398 30.3144 48.9602 30.5909C48.3807 30.8636 47.6402 31 46.7386 31H42.2784ZM44.0341 29.4943H46.5682C47.4091 29.4943 48.0114 29.3314 48.375 29.0057C48.7386 28.6799 48.9205 28.2727 48.9205 27.7841C48.9205 27.4167 48.8277 27.0795 48.642 26.7727C48.4564 26.4659 48.1913 26.2216 47.8466 26.0398C47.5057 25.858 47.1004 25.767 46.6307 25.767H44.0341V29.4943ZM44.0341 24.3977H46.3864C46.7803 24.3977 47.1345 24.322 47.4489 24.1705C47.767 24.0189 48.0189 23.8068 48.2045 23.5341C48.3939 23.2576 48.4886 22.9318 48.4886 22.5568C48.4886 22.0758 48.3201 21.6723 47.983 21.3466C47.6458 21.0208 47.1288 20.858 46.4318 20.858H44.0341V24.3977ZM52.6108 31V22.2727H54.2528V23.6591H54.3438C54.5028 23.1894 54.7831 22.8201 55.1847 22.5511C55.59 22.2784 56.0483 22.142 56.5597 22.142C56.6657 22.142 56.7907 22.1458 56.9347 22.1534C57.0824 22.161 57.1979 22.1705 57.2812 22.1818V23.8068C57.2131 23.7879 57.0919 23.767 56.9176 23.7443C56.7434 23.7178 56.5691 23.7045 56.3949 23.7045C55.9934 23.7045 55.6354 23.7898 55.321 23.9602C55.0104 24.1269 54.7642 24.3598 54.5824 24.6591C54.4006 24.9545 54.3097 25.2917 54.3097 25.6705V31H52.6108ZM62.1151 31.1761C61.2969 31.1761 60.5829 30.9886 59.973 30.6136C59.3632 30.2386 58.8897 29.714 58.5526 29.0398C58.2154 28.3655 58.0469 27.5777 58.0469 26.6761C58.0469 25.7708 58.2154 24.9792 58.5526 24.3011C58.8897 23.6231 59.3632 23.0966 59.973 22.7216C60.5829 22.3466 61.2969 22.1591 62.1151 22.1591C62.9332 22.1591 63.6473 22.3466 64.2571 22.7216C64.867 23.0966 65.3404 23.6231 65.6776 24.3011C66.0147 24.9792 66.1832 25.7708 66.1832 26.6761C66.1832 27.5777 66.0147 28.3655 65.6776 29.0398C65.3404 29.714 64.867 30.2386 64.2571 30.6136C63.6473 30.9886 62.9332 31.1761 62.1151 31.1761ZM62.1207 29.75C62.651 29.75 63.0904 29.6098 63.4389 29.3295C63.7874 29.0492 64.045 28.6761 64.2116 28.2102C64.3821 27.7443 64.4673 27.2311 64.4673 26.6705C64.4673 26.1136 64.3821 25.6023 64.2116 25.1364C64.045 24.6667 63.7874 24.2898 63.4389 24.0057C63.0904 23.7216 62.651 23.5795 62.1207 23.5795C61.5866 23.5795 61.1435 23.7216 60.7912 24.0057C60.4427 24.2898 60.1832 24.6667 60.0128 25.1364C59.8461 25.6023 59.7628 26.1136 59.7628 26.6705C59.7628 27.2311 59.8461 27.7443 60.0128 28.2102C60.1832 28.6761 60.4427 29.0492 60.7912 29.3295C61.1435 29.6098 61.5866 29.75 62.1207 29.75ZM69.706 31L67.1378 22.2727H68.8935L70.6037 28.6818H70.6889L72.4048 22.2727H74.1605L75.8651 28.6534H75.9503L77.6491 22.2727H79.4048L76.8423 31H75.1094L73.3366 24.6989H73.206L71.4332 31H69.706ZM87.5568 24.4034L86.017 24.6761C85.9527 24.4792 85.8504 24.2917 85.7102 24.1136C85.5739 23.9356 85.3883 23.7898 85.1534 23.6761C84.9186 23.5625 84.625 23.5057 84.2727 23.5057C83.7917 23.5057 83.3902 23.6136 83.0682 23.8295C82.7462 24.0417 82.5852 24.3163 82.5852 24.6534C82.5852 24.9451 82.6932 25.1799 82.9091 25.358C83.125 25.536 83.4735 25.6818 83.9545 25.7955L85.3409 26.1136C86.1439 26.2992 86.7424 26.5852 87.1364 26.9716C87.5303 27.358 87.7273 27.8598 87.7273 28.4773C87.7273 29 87.5758 29.4659 87.2727 29.875C86.9735 30.2803 86.5549 30.5985 86.017 30.8295C85.483 31.0606 84.8636 31.1761 84.1591 31.1761C83.1818 31.1761 82.3845 30.9678 81.767 30.5511C81.1496 30.1307 80.7708 29.5341 80.6307 28.7614L82.2727 28.5114C82.375 28.9394 82.5852 29.2633 82.9034 29.483C83.2216 29.6989 83.6364 29.8068 84.1477 29.8068C84.7045 29.8068 85.1496 29.6913 85.483 29.4602C85.8163 29.2254 85.983 28.9394 85.983 28.6023C85.983 28.3295 85.8807 28.1004 85.6761 27.9148C85.4754 27.7292 85.1667 27.589 84.75 27.4943L83.2727 27.1705C82.4583 26.9848 81.8561 26.6894 81.4659 26.2841C81.0795 25.8788 80.8864 25.3655 80.8864 24.7443C80.8864 24.2292 81.0303 23.7784 81.3182 23.392C81.6061 23.0057 82.0038 22.7045 82.5114 22.4886C83.0189 22.2689 83.6004 22.1591 84.2557 22.1591C85.1989 22.1591 85.9413 22.3636 86.483 22.7727C87.0246 23.178 87.3826 23.7216 87.5568 24.4034ZM93.3565 31.1761C92.4967 31.1761 91.7562 30.9924 91.1349 30.625C90.5175 30.2538 90.0402 29.733 89.7031 29.0625C89.3698 28.3883 89.2031 27.5985 89.2031 26.6932C89.2031 25.7992 89.3698 25.0114 89.7031 24.3295C90.0402 23.6477 90.5099 23.1155 91.1122 22.733C91.7183 22.3504 92.4266 22.1591 93.2372 22.1591C93.7296 22.1591 94.2069 22.2405 94.669 22.4034C95.1312 22.5663 95.5459 22.822 95.9134 23.1705C96.2808 23.5189 96.5705 23.9716 96.7827 24.5284C96.9948 25.0814 97.1009 25.7538 97.1009 26.5455V27.1477H90.1634V25.875H95.4361C95.4361 25.428 95.3452 25.0322 95.1634 24.6875C94.9815 24.339 94.7259 24.0644 94.3963 23.8636C94.0705 23.6629 93.688 23.5625 93.2486 23.5625C92.7713 23.5625 92.3546 23.6799 91.9986 23.9148C91.6463 24.1458 91.3736 24.4489 91.1804 24.8239C90.991 25.1951 90.8963 25.5985 90.8963 26.0341V27.0284C90.8963 27.6117 90.9986 28.108 91.2031 28.517C91.4115 28.9261 91.7012 29.2386 92.0724 29.4545C92.4437 29.6667 92.8774 29.7727 93.3736 29.7727C93.6955 29.7727 93.9891 29.7273 94.2543 29.6364C94.5194 29.5417 94.7486 29.4015 94.9418 29.2159C95.1349 29.0303 95.2827 28.8011 95.3849 28.5284L96.9929 28.8182C96.8641 29.2917 96.633 29.7064 96.2997 30.0625C95.9702 30.4148 95.5554 30.6894 95.0554 30.8864C94.5592 31.0795 93.9929 31.1761 93.3565 31.1761ZM98.9858 31V22.2727H100.628V23.6591H100.719C100.878 23.1894 101.158 22.8201 101.56 22.5511C101.965 22.2784 102.423 22.142 102.935 22.142C103.041 22.142 103.166 22.1458 103.31 22.1534C103.457 22.161 103.573 22.1705 103.656 22.1818V23.8068C103.588 23.7879 103.467 23.767 103.293 23.7443C103.118 23.7178 102.944 23.7045 102.77 23.7045C102.368 23.7045 102.01 23.7898 101.696 23.9602C101.385 24.1269 101.139 24.3598 100.957 24.6591C100.776 24.9545 100.685 25.2917 100.685 25.6705V31H98.9858Z" fill="white"/>
<circle cx="21" cy="20" r="10.5" stroke="white"/>
<path d="M25.5 20C25.5 22.983 24.9494 25.6594 24.0804 27.5713C23.1908 29.5283 22.0641 30.5 21 30.5C19.9359 30.5 18.8092 29.5283 17.9196 27.5713C17.0506 25.6594 16.5 22.983 16.5 20C16.5 17.017 17.0506 14.3406 17.9196 12.4287C18.8092 10.4717 19.9359 9.5 21 9.5C22.0641 9.5 23.1908 10.4717 24.0804 12.4287C24.9494 14.3406 25.5 17.017 25.5 20Z" stroke="white"/>
<line x1="11" y1="16.5" x2="31" y2="16.5" stroke="white"/>
<line x1="11" y1="23.5" x2="31" y2="23.5" stroke="white"/>
</g>
<defs>
<clipPath id="clip0_5_20">
<rect width="119.664" height="40" fill="white"/>
</clipPath>
</defs>
</svg>
