<svg width="120" height="32" viewBox="0 0 120 32" fill="none" xmlns="http://www.w3.org/2000/svg">
<rect x="0.25" y="0.25" width="119.5" height="31.5" fill="black"/>
<rect x="0.25" y="0.25" width="119.5" height="31.5" fill="#AE7FE9" fill-opacity="0.1"/>
<rect x="0.25" y="0.25" width="119.5" height="31.5" stroke="url(#paint0_linear_1274_2469)" stroke-width="0.5"/>
<path d="M4.63422 4.54939V27.4506H6.28694V28H4V4H6.28694V4.54939H4.63422Z" fill="white"/>
<path d="M11.0018 11.8096V12.9685H11.0349C11.3449 12.5274 11.7182 12.1848 12.1556 11.942C12.5926 11.6996 13.0937 11.5779 13.658 11.5779C14.2002 11.5779 14.6956 11.683 15.1438 11.8925C15.5921 12.1023 15.9325 12.4719 16.1649 13.0018C16.4193 12.6266 16.7651 12.2954 17.2025 12.0084C17.6396 11.7216 18.157 11.5779 18.7547 11.5779C19.2086 11.5779 19.6289 11.6332 20.0166 11.7436C20.4037 11.8539 20.7358 12.0305 21.0125 12.2733C21.289 12.5162 21.5048 12.8336 21.6601 13.2251C21.8149 13.6173 21.8925 14.0888 21.8925 14.6409V20.3689H19.5349V15.5181C19.5349 15.2313 19.5239 14.9609 19.5017 14.7069C19.4794 14.4532 19.4187 14.2326 19.3191 14.0447C19.2194 13.8572 19.0726 13.708 18.8792 13.5976C18.6855 13.4877 18.4225 13.4321 18.0906 13.4321C17.7586 13.4321 17.4901 13.496 17.2853 13.6225C17.0805 13.7496 16.9201 13.9153 16.8039 14.1192C16.6878 14.3236 16.6103 14.5553 16.5716 14.8149C16.5326 15.0741 16.5135 15.3363 16.5135 15.6011V20.369H14.1561V15.568C14.1561 15.3142 14.1503 15.063 14.1397 14.8149C14.1284 14.5663 14.0816 14.3374 13.9984 14.1275C13.9153 13.918 13.7769 13.7496 13.5833 13.6225C13.3896 13.496 13.1046 13.4321 12.7283 13.4321C12.6175 13.4321 12.4708 13.457 12.2885 13.5069C12.1058 13.5565 11.9286 13.6504 11.7572 13.7882C11.5854 13.9263 11.439 14.125 11.3172 14.3841C11.1954 14.6436 11.1346 14.9829 11.1346 15.4022V20.3689H8.77731V11.8096H11.0018Z" fill="white"/>
<path fill-rule="evenodd" clip-rule="evenodd" d="M24.3323 12.1905C23.9559 12.4115 23.6458 12.7038 23.4026 13.0681C23.1587 13.432 23.0206 13.8904 22.9876 14.442H25.345C25.389 13.9786 25.5443 13.6473 25.8098 13.4487C26.0754 13.25 26.4407 13.1506 26.9056 13.1506C27.1155 13.1506 27.3122 13.1647 27.4949 13.192C27.6773 13.2197 27.8378 13.2749 27.9763 13.3576C28.1145 13.4403 28.2253 13.5564 28.3083 13.7053C28.3913 13.8543 28.4327 14.0559 28.4327 14.3095C28.4436 14.5525 28.3716 14.7374 28.217 14.8643C28.0618 14.9913 27.8517 15.0877 27.586 15.1539C27.3205 15.2201 27.016 15.2699 26.6729 15.3031C26.3298 15.3362 25.9812 15.3803 25.627 15.4354C25.2728 15.4909 24.9215 15.5652 24.5729 15.6589C24.2242 15.7527 23.9143 15.8935 23.6433 16.081C23.3718 16.2688 23.1506 16.5198 22.9792 16.8345C22.8073 17.1488 22.7216 17.549 22.7216 18.0345C22.7216 18.4759 22.7964 18.857 22.9459 19.177C23.0953 19.497 23.3028 19.7619 23.5684 19.9713C23.834 20.1813 24.1438 20.3358 24.4981 20.4352C24.8522 20.5344 25.234 20.5841 25.6436 20.5841C26.175 20.5841 26.6951 20.5066 27.2043 20.3525C27.7131 20.1979 28.156 19.9274 28.5323 19.5411C28.5432 19.6847 28.5626 19.8254 28.5904 19.9632C28.6179 20.1012 28.654 20.2363 28.6984 20.3689H31.0889C30.9781 20.1923 30.9005 19.9274 30.8566 19.5741C30.8122 19.2209 30.79 18.8517 30.79 18.4648V14.0117C30.79 13.4929 30.6738 13.0761 30.4414 12.7616C30.2089 12.4472 29.9101 12.2015 29.5449 12.025C29.1797 11.8486 28.7757 11.7298 28.333 11.6689C27.8903 11.6084 27.4532 11.5779 27.0215 11.5779C26.5456 11.5779 26.0724 11.625 25.6021 11.7187C25.1316 11.8126 24.7084 11.9698 24.3323 12.1905ZM27.5779 16.5117C27.7493 16.4786 27.9098 16.4373 28.0592 16.3877C28.2087 16.3379 28.3332 16.269 28.4329 16.1805V17.058C28.4329 17.1904 28.4188 17.3671 28.3915 17.5878C28.3637 17.8088 28.2889 18.0264 28.1673 18.2415C28.0453 18.4569 27.8573 18.6419 27.6029 18.7962C27.3481 18.951 26.9885 19.028 26.5237 19.028C26.3355 19.028 26.1529 19.0115 25.976 18.9783C25.7986 18.9453 25.6438 18.8873 25.5111 18.8046C25.3783 18.7218 25.273 18.6088 25.1955 18.465C25.118 18.3218 25.0794 18.145 25.0794 17.9355C25.0794 17.7148 25.118 17.5327 25.1955 17.3891C25.273 17.246 25.3753 17.1271 25.5028 17.0333C25.6299 16.9394 25.7793 16.8651 25.9511 16.8097C26.1225 16.7547 26.2967 16.7102 26.4739 16.6773C26.6619 16.6442 26.85 16.6168 27.0383 16.5944C27.2265 16.5725 27.4062 16.5448 27.5779 16.5117Z" fill="white"/>
<path d="M36.9992 11.809V13.3818H35.2728V17.6201C35.2728 18.0173 35.3391 18.2823 35.472 18.4146C35.6046 18.547 35.8704 18.6132 36.2688 18.6132C36.4017 18.6132 36.5287 18.6079 36.6506 18.5968C36.7723 18.5859 36.8885 18.569 36.9992 18.5471V20.3683C36.8 20.4014 36.5785 20.4233 36.3352 20.4346C36.0917 20.4452 35.8538 20.451 35.6213 20.451C35.2561 20.451 34.9102 20.4261 34.5838 20.3763C34.2572 20.3268 33.9694 20.2304 33.7205 20.0868C33.4715 19.9435 33.275 19.7391 33.1312 19.4742C32.9871 19.2095 32.9153 18.8618 32.9153 18.4311V13.3818H31.4877V11.809H32.9153V9.24292H35.2727V11.809H36.9992Z" fill="white"/>
<path d="M40.3691 11.8098V13.3991H40.4022C40.5127 13.134 40.6621 12.8887 40.8504 12.6623C41.0386 12.4362 41.2543 12.2429 41.4978 12.0829C41.7411 11.9231 42.0013 11.7989 42.2783 11.7103C42.5546 11.6222 42.8426 11.5779 43.1415 11.5779C43.2964 11.5779 43.4677 11.6057 43.6561 11.6608V13.8463C43.5453 13.824 43.4125 13.8046 43.2577 13.7882C43.1026 13.7716 42.9533 13.7632 42.8094 13.7632C42.3777 13.7632 42.0125 13.8352 41.7139 13.9786C41.415 14.1221 41.1744 14.3178 40.9917 14.5662C40.8091 14.8147 40.6788 15.1042 40.6014 15.4354C40.524 15.7664 40.4853 16.1253 40.4853 16.5115V20.3689H38.128V11.8098H40.3691Z" fill="white"/>
<path fill-rule="evenodd" clip-rule="evenodd" d="M44.6523 8.54919V10.4862H47.0098V8.54919H44.6523ZM47.0094 20.3701V11.8109H44.6519V20.3701H47.0094Z" fill="white"/>
<path d="M48.2375 11.8094H50.9268L52.4377 14.0443L53.9318 11.8094H56.5381L53.716 15.8159L56.8869 20.3687H54.1974L52.4044 17.6702L50.6114 20.3687H47.972L51.0597 15.8657L48.2375 11.8094Z" fill="white"/>
<path d="M59.7657 27.4506V4.54939H58.113V4H60.4001V28H58.113V27.4506H59.7657Z" fill="white"/>
<rect x="64.65" y="4.25" width="51.1" height="11.5" fill="black"/>
<rect x="64.65" y="4.25" width="51.1" height="11.5" fill="#AE7FE9" fill-opacity="0.1"/>
<rect x="64.65" y="4.25" width="51.1" height="11.5" stroke="url(#paint1_linear_1274_2469)" stroke-width="0.5"/>
<path d="M71.1228 10.23H72.5748L71.8608 8.232H71.8488L71.1228 10.23ZM71.5488 7.716H72.1788L73.8528 12H73.2228L72.7548 10.71H70.9428L70.4628 12H69.8808L71.5488 7.716ZM77.7534 8.97C77.7214 8.662 77.6094 8.44 77.4174 8.304C77.2294 8.164 76.9874 8.094 76.6914 8.094C76.5714 8.094 76.4534 8.106 76.3374 8.13C76.2214 8.154 76.1174 8.194 76.0254 8.25C75.9374 8.306 75.8654 8.382 75.8094 8.478C75.7574 8.57 75.7314 8.686 75.7314 8.826C75.7314 8.958 75.7694 9.066 75.8454 9.15C75.9254 9.23 76.0294 9.296 76.1574 9.348C76.2894 9.4 76.4374 9.444 76.6014 9.48C76.7654 9.512 76.9314 9.548 77.0994 9.588C77.2714 9.628 77.4394 9.676 77.6034 9.732C77.7674 9.784 77.9134 9.856 78.0414 9.948C78.1734 10.04 78.2774 10.156 78.3534 10.296C78.4334 10.436 78.4734 10.612 78.4734 10.824C78.4734 11.052 78.4214 11.248 78.3174 11.412C78.2174 11.572 78.0874 11.704 77.9274 11.808C77.7674 11.908 77.5874 11.98 77.3874 12.024C77.1914 12.072 76.9954 12.096 76.7994 12.096C76.5594 12.096 76.3314 12.066 76.1154 12.006C75.9034 11.946 75.7154 11.856 75.5514 11.736C75.3914 11.612 75.2634 11.456 75.1674 11.268C75.0754 11.076 75.0294 10.85 75.0294 10.59H75.5694C75.5694 10.77 75.6034 10.926 75.6714 11.058C75.7434 11.186 75.8354 11.292 75.9474 11.376C76.0634 11.46 76.1974 11.522 76.3494 11.562C76.5014 11.602 76.6574 11.622 76.8174 11.622C76.9454 11.622 77.0734 11.61 77.2014 11.586C77.3334 11.562 77.4514 11.522 77.5554 11.466C77.6594 11.406 77.7434 11.326 77.8074 11.226C77.8714 11.126 77.9034 10.998 77.9034 10.842C77.9034 10.694 77.8634 10.574 77.7834 10.482C77.7074 10.39 77.6034 10.316 77.4714 10.26C77.3434 10.2 77.1974 10.152 77.0334 10.116C76.8694 10.08 76.7014 10.044 76.5294 10.008C76.3614 9.968 76.1954 9.924 76.0314 9.876C75.8674 9.824 75.7194 9.758 75.5874 9.678C75.4594 9.594 75.3554 9.488 75.2754 9.36C75.1994 9.228 75.1614 9.064 75.1614 8.868C75.1614 8.652 75.2054 8.466 75.2934 8.31C75.3814 8.15 75.4974 8.02 75.6414 7.92C75.7894 7.816 75.9554 7.74 76.1394 7.692C76.3274 7.64 76.5194 7.614 76.7154 7.614C76.9354 7.614 77.1394 7.64 77.3274 7.692C77.5154 7.744 77.6794 7.826 77.8194 7.938C77.9634 8.05 78.0754 8.192 78.1554 8.364C78.2394 8.532 78.2854 8.734 78.2934 8.97H77.7534ZM82.6441 8.97C82.6121 8.662 82.5001 8.44 82.3081 8.304C82.1201 8.164 81.8781 8.094 81.5821 8.094C81.4621 8.094 81.3441 8.106 81.2281 8.13C81.1121 8.154 81.0081 8.194 80.9161 8.25C80.8281 8.306 80.7561 8.382 80.7001 8.478C80.6481 8.57 80.6221 8.686 80.6221 8.826C80.6221 8.958 80.6601 9.066 80.7361 9.15C80.8161 9.23 80.9201 9.296 81.0481 9.348C81.1801 9.4 81.3281 9.444 81.4921 9.48C81.6561 9.512 81.8221 9.548 81.9901 9.588C82.1621 9.628 82.3301 9.676 82.4941 9.732C82.6581 9.784 82.8041 9.856 82.9321 9.948C83.0641 10.04 83.1681 10.156 83.2441 10.296C83.3241 10.436 83.3641 10.612 83.3641 10.824C83.3641 11.052 83.3121 11.248 83.2081 11.412C83.1081 11.572 82.9781 11.704 82.8181 11.808C82.6581 11.908 82.4781 11.98 82.2781 12.024C82.0821 12.072 81.8861 12.096 81.6901 12.096C81.4501 12.096 81.2221 12.066 81.0061 12.006C80.7941 11.946 80.6061 11.856 80.4421 11.736C80.2821 11.612 80.1541 11.456 80.0581 11.268C79.9661 11.076 79.9201 10.85 79.9201 10.59H80.4601C80.4601 10.77 80.4941 10.926 80.5621 11.058C80.6341 11.186 80.7261 11.292 80.8381 11.376C80.9541 11.46 81.0881 11.522 81.2401 11.562C81.3921 11.602 81.5481 11.622 81.7081 11.622C81.8361 11.622 81.9641 11.61 82.0921 11.586C82.2241 11.562 82.3421 11.522 82.4461 11.466C82.5501 11.406 82.6341 11.326 82.6981 11.226C82.7621 11.126 82.7941 10.998 82.7941 10.842C82.7941 10.694 82.7541 10.574 82.6741 10.482C82.5981 10.39 82.4941 10.316 82.3621 10.26C82.2341 10.2 82.0881 10.152 81.9241 10.116C81.7601 10.08 81.5921 10.044 81.4201 10.008C81.2521 9.968 81.0861 9.924 80.9221 9.876C80.7581 9.824 80.6101 9.758 80.4781 9.678C80.3501 9.594 80.2461 9.488 80.1661 9.36C80.0901 9.228 80.0521 9.064 80.0521 8.868C80.0521 8.652 80.0961 8.466 80.1841 8.31C80.2721 8.15 80.3881 8.02 80.5321 7.92C80.6801 7.816 80.8461 7.74 81.0301 7.692C81.2181 7.64 81.4101 7.614 81.6061 7.614C81.8261 7.614 82.0301 7.64 82.2181 7.692C82.4061 7.744 82.5701 7.826 82.7101 7.938C82.8541 8.05 82.9661 8.192 83.0461 8.364C83.1301 8.532 83.1761 8.734 83.1841 8.97H82.6441ZM85.3867 9.858C85.3867 10.074 85.4147 10.288 85.4707 10.5C85.5267 10.708 85.6147 10.896 85.7347 11.064C85.8547 11.232 86.0087 11.368 86.1967 11.472C86.3847 11.572 86.6087 11.622 86.8687 11.622C87.1287 11.622 87.3527 11.572 87.5407 11.472C87.7287 11.368 87.8827 11.232 88.0027 11.064C88.1227 10.896 88.2107 10.708 88.2667 10.5C88.3227 10.288 88.3507 10.074 88.3507 9.858C88.3507 9.642 88.3227 9.43 88.2667 9.222C88.2107 9.01 88.1227 8.82 88.0027 8.652C87.8827 8.484 87.7287 8.35 87.5407 8.25C87.3527 8.146 87.1287 8.094 86.8687 8.094C86.6087 8.094 86.3847 8.146 86.1967 8.25C86.0087 8.35 85.8547 8.484 85.7347 8.652C85.6147 8.82 85.5267 9.01 85.4707 9.222C85.4147 9.43 85.3867 9.642 85.3867 9.858ZM84.8167 9.858C84.8167 9.566 84.8587 9.286 84.9427 9.018C85.0307 8.746 85.1607 8.506 85.3327 8.298C85.5047 8.09 85.7187 7.924 85.9747 7.8C86.2307 7.676 86.5287 7.614 86.8687 7.614C87.2087 7.614 87.5067 7.676 87.7627 7.8C88.0187 7.924 88.2327 8.09 88.4047 8.298C88.5767 8.506 88.7047 8.746 88.7887 9.018C88.8767 9.286 88.9207 9.566 88.9207 9.858C88.9207 10.15 88.8767 10.432 88.7887 10.704C88.7047 10.972 88.5767 11.21 88.4047 11.418C88.2327 11.626 88.0187 11.792 87.7627 11.916C87.5067 12.036 87.2087 12.096 86.8687 12.096C86.5287 12.096 86.2307 12.036 85.9747 11.916C85.7187 11.792 85.5047 11.626 85.3327 11.418C85.1607 11.21 85.0307 10.972 84.9427 10.704C84.8587 10.432 84.8167 10.15 84.8167 9.858ZM93.6273 9.006C93.5633 8.702 93.4213 8.474 93.2013 8.322C92.9853 8.17 92.7273 8.094 92.4273 8.094C92.1713 8.094 91.9513 8.142 91.7673 8.238C91.5873 8.334 91.4373 8.464 91.3173 8.628C91.2013 8.788 91.1153 8.972 91.0593 9.18C91.0033 9.388 90.9753 9.604 90.9753 9.828C90.9753 10.072 91.0033 10.304 91.0593 10.524C91.1153 10.74 91.2013 10.93 91.3173 11.094C91.4373 11.254 91.5893 11.382 91.7733 11.478C91.9573 11.574 92.1773 11.622 92.4333 11.622C92.6213 11.622 92.7873 11.592 92.9313 11.532C93.0793 11.468 93.2053 11.382 93.3093 11.274C93.4173 11.162 93.5013 11.03 93.5613 10.878C93.6213 10.726 93.6573 10.562 93.6693 10.386H94.2393C94.1833 10.926 93.9973 11.346 93.6813 11.646C93.3653 11.946 92.9333 12.096 92.3853 12.096C92.0533 12.096 91.7633 12.04 91.5153 11.928C91.2673 11.812 91.0613 11.654 90.8973 11.454C90.7333 11.254 90.6093 11.018 90.5253 10.746C90.4453 10.474 90.4053 10.182 90.4053 9.87C90.4053 9.558 90.4493 9.266 90.5373 8.994C90.6253 8.718 90.7533 8.478 90.9213 8.274C91.0933 8.07 91.3053 7.91 91.5573 7.794C91.8133 7.674 92.1053 7.614 92.4333 7.614C92.6573 7.614 92.8693 7.644 93.0693 7.704C93.2693 7.764 93.4473 7.852 93.6033 7.968C93.7593 8.084 93.8893 8.23 93.9933 8.406C94.0973 8.578 94.1653 8.778 94.1973 9.006H93.6273ZM95.9694 7.716H96.5394V12H95.9694V7.716ZM99.2361 10.23H100.688L99.9741 8.232H99.9621L99.2361 10.23ZM99.6621 7.716H100.292L101.966 12H101.336L100.868 10.71H99.0561L98.5761 12H97.9941L99.6621 7.716ZM103.81 8.196H102.382V7.716H105.808V8.196H104.38V12H103.81V8.196ZM107.283 7.716H110.241V8.196H107.853V9.558H110.079V10.038H107.853V11.52H110.259V12H107.283V7.716Z" fill="white"/>
<path d="M75.9455 20.288H76.9855L78.7855 25.088L80.5935 20.288H81.6335V26H80.9135V21.248H80.8975L79.1135 26H78.4655L76.6815 21.248H76.6655V26H75.9455V20.288ZM85.6582 23.536C85.6476 23.376 85.6102 23.224 85.5462 23.08C85.4876 22.936 85.4049 22.8133 85.2982 22.712C85.1969 22.6053 85.0742 22.5227 84.9302 22.464C84.7916 22.4 84.6369 22.368 84.4662 22.368C84.2902 22.368 84.1302 22.4 83.9862 22.464C83.8476 22.5227 83.7276 22.6053 83.6262 22.712C83.5249 22.8187 83.4449 22.944 83.3862 23.088C83.3276 23.2267 83.2929 23.376 83.2822 23.536H85.6582ZM86.3142 24.688C86.2236 25.152 86.0236 25.5013 85.7142 25.736C85.4049 25.9707 85.0156 26.088 84.5462 26.088C84.2156 26.088 83.9276 26.0347 83.6822 25.928C83.4422 25.8213 83.2396 25.672 83.0742 25.48C82.9089 25.288 82.7836 25.0587 82.6982 24.792C82.6182 24.5253 82.5729 24.2347 82.5622 23.92C82.5622 23.6053 82.6102 23.3173 82.7062 23.056C82.8022 22.7947 82.9356 22.568 83.1062 22.376C83.2822 22.184 83.4876 22.0347 83.7222 21.928C83.9622 21.8213 84.2236 21.768 84.5062 21.768C84.8742 21.768 85.1782 21.8453 85.4182 22C85.6636 22.1493 85.8582 22.3413 86.0022 22.576C86.1516 22.8107 86.2529 23.0667 86.3062 23.344C86.3649 23.6213 86.3889 23.8853 86.3782 24.136H83.2822C83.2769 24.3173 83.2982 24.4907 83.3462 24.656C83.3942 24.816 83.4716 24.96 83.5782 25.088C83.6849 25.2107 83.8209 25.3093 83.9862 25.384C84.1516 25.4587 84.3462 25.496 84.5702 25.496C84.8582 25.496 85.0929 25.4293 85.2742 25.296C85.4609 25.1627 85.5836 24.96 85.6422 24.688H86.3142ZM87.0831 21.864H87.7231V22.472H87.7391C88.0485 22.0027 88.4938 21.768 89.0751 21.768C89.3311 21.768 89.5631 21.8213 89.7711 21.928C89.9791 22.0347 90.1258 22.216 90.2111 22.472C90.3498 22.248 90.5311 22.0747 90.7551 21.952C90.9845 21.8293 91.2351 21.768 91.5071 21.768C91.7151 21.768 91.9018 21.792 92.0671 21.84C92.2378 21.8827 92.3818 21.952 92.4991 22.048C92.6218 22.144 92.7151 22.2693 92.7791 22.424C92.8485 22.5733 92.8831 22.7547 92.8831 22.968V26H92.2031V23.288C92.2031 23.16 92.1925 23.04 92.1711 22.928C92.1498 22.816 92.1098 22.72 92.0511 22.64C91.9925 22.5547 91.9098 22.488 91.8031 22.44C91.7018 22.392 91.5685 22.368 91.4031 22.368C91.0671 22.368 90.8031 22.464 90.6111 22.656C90.4191 22.848 90.3231 23.104 90.3231 23.424V26H89.6431V23.288C89.6431 23.1547 89.6298 23.032 89.6031 22.92C89.5818 22.808 89.5418 22.712 89.4831 22.632C89.4245 22.5467 89.3445 22.4827 89.2431 22.44C89.1471 22.392 89.0218 22.368 88.8671 22.368C88.6698 22.368 88.4991 22.408 88.3551 22.488C88.2165 22.568 88.1018 22.664 88.0111 22.776C87.9258 22.888 87.8618 23.0053 87.8191 23.128C87.7818 23.2453 87.7631 23.344 87.7631 23.424V26H87.0831V21.864ZM93.9274 20.288H94.6074V22.424H94.6234C94.7354 22.1947 94.9114 22.0293 95.1514 21.928C95.3914 21.8213 95.6554 21.768 95.9434 21.768C96.2634 21.768 96.5408 21.8267 96.7754 21.944C97.0154 22.0613 97.2128 22.2213 97.3674 22.424C97.5274 22.6213 97.6474 22.8507 97.7274 23.112C97.8074 23.3733 97.8474 23.6507 97.8474 23.944C97.8474 24.2373 97.8074 24.5147 97.7274 24.776C97.6528 25.0373 97.5354 25.2667 97.3754 25.464C97.2208 25.656 97.0234 25.808 96.7834 25.92C96.5488 26.032 96.2741 26.088 95.9594 26.088C95.8581 26.088 95.7434 26.0773 95.6154 26.056C95.4928 26.0347 95.3701 26 95.2474 25.952C95.1248 25.904 95.0074 25.84 94.8954 25.76C94.7888 25.6747 94.6981 25.5707 94.6234 25.448H94.6074V26H93.9274V20.288ZM97.1274 23.896C97.1274 23.704 97.1008 23.5173 97.0474 23.336C96.9994 23.1493 96.9221 22.984 96.8154 22.84C96.7141 22.696 96.5808 22.5813 96.4154 22.496C96.2554 22.4107 96.0661 22.368 95.8474 22.368C95.6181 22.368 95.4234 22.4133 95.2634 22.504C95.1034 22.5947 94.9728 22.7147 94.8714 22.864C94.7701 23.008 94.6954 23.1733 94.6474 23.36C94.6048 23.5467 94.5834 23.736 94.5834 23.928C94.5834 24.1307 94.6074 24.328 94.6554 24.52C94.7034 24.7067 94.7781 24.872 94.8794 25.016C94.9861 25.16 95.1221 25.2773 95.2874 25.368C95.4528 25.4533 95.6528 25.496 95.8874 25.496C96.1221 25.496 96.3168 25.4507 96.4714 25.36C96.6314 25.2693 96.7594 25.1493 96.8554 25C96.9514 24.8507 97.0208 24.68 97.0634 24.488C97.1061 24.296 97.1274 24.0987 97.1274 23.896ZM101.518 23.536C101.507 23.376 101.47 23.224 101.406 23.08C101.347 22.936 101.264 22.8133 101.158 22.712C101.056 22.6053 100.934 22.5227 100.79 22.464C100.651 22.4 100.496 22.368 100.326 22.368C100.15 22.368 99.9896 22.4 99.8456 22.464C99.707 22.5227 99.587 22.6053 99.4856 22.712C99.3843 22.8187 99.3043 22.944 99.2456 23.088C99.187 23.2267 99.1523 23.376 99.1416 23.536H101.518ZM102.174 24.688C102.083 25.152 101.883 25.5013 101.574 25.736C101.264 25.9707 100.875 26.088 100.406 26.088C100.075 26.088 99.787 26.0347 99.5416 25.928C99.3016 25.8213 99.099 25.672 98.9336 25.48C98.7683 25.288 98.643 25.0587 98.5576 24.792C98.4776 24.5253 98.4323 24.2347 98.4216 23.92C98.4216 23.6053 98.4696 23.3173 98.5656 23.056C98.6616 22.7947 98.795 22.568 98.9656 22.376C99.1416 22.184 99.347 22.0347 99.5816 21.928C99.8216 21.8213 100.083 21.768 100.366 21.768C100.734 21.768 101.038 21.8453 101.278 22C101.523 22.1493 101.718 22.3413 101.862 22.576C102.011 22.8107 102.112 23.0667 102.166 23.344C102.224 23.6213 102.248 23.8853 102.238 24.136H99.1416C99.1363 24.3173 99.1576 24.4907 99.2056 24.656C99.2536 24.816 99.331 24.96 99.4376 25.088C99.5443 25.2107 99.6803 25.3093 99.8456 25.384C100.011 25.4587 100.206 25.496 100.43 25.496C100.718 25.496 100.952 25.4293 101.134 25.296C101.32 25.1627 101.443 24.96 101.502 24.688H102.174ZM102.918 21.864H103.558V22.736H103.574C103.74 22.4 103.942 22.152 104.182 21.992C104.422 21.832 104.726 21.7573 105.094 21.768V22.488C104.822 22.488 104.59 22.5253 104.398 22.6C104.206 22.6747 104.052 22.784 103.934 22.928C103.817 23.072 103.732 23.248 103.678 23.456C103.625 23.6587 103.598 23.8933 103.598 24.16V26H102.918V21.864Z" fill="white"/>
<defs>
<linearGradient id="paint0_linear_1274_2469" x1="0.480001" y1="-1.15484e-06" x2="50.8334" y2="77.3428" gradientUnits="userSpaceOnUse">
<stop stop-color="#AE7FE9"/>
<stop offset="0.25" stop-color="#2C203A"/>
<stop offset="0.5" stop-color="#AE7FE9"/>
<stop offset="0.75" stop-color="#2C203A"/>
<stop offset="1" stop-color="#AE7FE9"/>
</linearGradient>
<linearGradient id="paint1_linear_1274_2469" x1="64.6064" y1="4" x2="82.3376" y2="35.2296" gradientUnits="userSpaceOnUse">
<stop stop-color="#AB61CB"/>
<stop offset="0.25" stop-color="#3E1C41"/>
<stop offset="0.5" stop-color="#AB61CB"/>
<stop offset="0.75" stop-color="#3E1C41"/>
<stop offset="1" stop-color="#AB61CB"/>
</linearGradient>
</defs>
</svg>
