<?xml version="1.0" encoding="UTF-8"?><svg xmlns="http://www.w3.org/2000/svg" viewBox="0 0 184.12 78.54"><defs><style>.d,.e{fill:#fff;}.f,.g{fill:#939599;}.e,.g,.h{fill-rule:evenodd;}.i{stroke-width:.14px;}.i,.j{fill:none;stroke:#010101;stroke-miterlimit:10;}.k,.h{fill:#161414;}.j{stroke-width:.24px;}</style></defs><g id="a"/><g id="b"><g id="c"><path class="h" d="M94.41,39.94c0,2.12-.78,3.93-2.33,5.43-1.6,1.48-3.49,2.21-5.67,2.21s-4.08-.74-5.64-2.21c-1.55-1.5-2.33-3.31-2.33-5.43s.78-3.9,2.33-5.4c1.55-1.52,3.43-2.28,5.64-2.28h.66v3.08h-.66c-1.32,0-2.45,.46-3.38,1.37-.95,.87-1.43,1.94-1.43,3.22s.48,2.37,1.43,3.29c.93,.92,2.05,1.37,3.38,1.37s2.45-.46,3.38-1.37c.93-.89,1.39-1.99,1.39-3.29v-.3h3.24v.3Z"/><rect class="k" x="97.61" y="38.46" width="9.57" height="3.08"/><path class="h" d="M118.67,32.26c2.21,0,4.1,.76,5.67,2.28,1.55,1.5,2.33,3.3,2.33,5.4s-.78,3.93-2.33,5.43c-1.6,1.48-3.49,2.21-5.67,2.21s-4.08-.74-5.64-2.21c-1.55-1.5-2.33-3.31-2.33-5.43V21.26h3.17v18.68c0,1.27,.48,2.37,1.43,3.29,.93,.92,2.05,1.37,3.38,1.37s2.45-.46,3.38-1.37c.93-.89,1.39-1.99,1.39-3.29s-.46-2.35-1.39-3.22c-.93-.92-2.05-1.37-3.38-1.37h-.63v-3.08h.63Z"/><path class="h" d="M137.82,47.58c-2.21,0-4.08-.74-5.64-2.21-1.55-1.5-2.33-3.31-2.33-5.43s.78-3.9,2.33-5.4c1.55-1.52,3.43-2.28,5.64-2.28s4.1,.76,5.67,2.28c1.55,1.5,2.33,3.3,2.33,5.4v4.66h-3.24v-4.66c0-1.27-.46-2.35-1.39-3.22-.93-.92-2.05-1.37-3.38-1.37s-2.45,.46-3.38,1.37c-.95,.87-1.43,1.94-1.43,3.22s.48,2.37,1.43,3.29c.93,.92,2.05,1.37,3.38,1.37h.66v2.98h-.66Z"/><path class="h" d="M156.34,44.6h.66c1.3,0,2.41-.46,3.34-1.37,.93-.89,1.39-1.99,1.39-3.29v-.3h3.24v.3c0,2.12-.78,3.93-2.33,5.43-1.6,1.48-3.48,2.21-5.64,2.21l-.66,.03v-3.02h0Zm-1.25-4.66c0-.49,.18-.92,.54-1.29,.36-.37,.81-.55,1.34-.55s.99,.18,1.36,.55c.37,.37,.56,.8,.56,1.29s-.19,.95-.56,1.31c-.37,.36-.82,.54-1.36,.54s-.98-.18-1.34-.54c-.36-.36-.54-.79-.54-1.31Zm-6.09,0c0-2.1,.78-3.9,2.33-5.4,1.55-1.52,3.45-2.28,5.67-2.28h.63v3.08h-.63c-1.35,0-2.48,.46-3.41,1.37-.95,.87-1.43,1.94-1.43,3.22v.3h-3.17v-.3h0Z"/><path class="h" d="M174.24,39.97c0-.49,.18-.92,.54-1.29,.36-.37,.81-.55,1.34-.55s.99,.18,1.36,.55c.37,.37,.56,.8,.56,1.29s-.19,.95-.56,1.31c-.37,.36-.82,.54-1.36,.54s-.98-.18-1.34-.54c-.36-.36-.54-.79-.54-1.31Zm-3.76,5.43c-1.55-1.5-2.33-3.31-2.33-5.43s.78-3.9,2.33-5.4c1.55-1.52,3.43-2.28,5.64-2.28s4.1,.76,5.67,2.28c1.55,1.5,2.33,3.3,2.33,5.4v.3h-3.24v-.3c0-1.27-.46-2.35-1.39-3.22-.93-.92-2.04-1.37-3.34-1.37s-2.48,.46-3.41,1.37c-.95,.87-1.43,1.94-1.43,3.22s.48,2.37,1.43,3.29c.93,.92,2.05,1.37,3.38,1.37h.66v2.98h-.63c-2.23,0-4.12-.74-5.68-2.21Z"/><path class="j" d="M65.24,70.46c-6.82,4.99-15.32,7.96-24.47,7.96C18.47,78.42,.12,60.75,.12,39.27S18.47,.12,40.77,.12V4.9C21.2,4.9,5.09,20.42,5.09,39.27s16.11,34.37,35.68,34.37c8.03,0,15.49-2.61,21.48-6.99l2.99,3.81Z"/><path class="h" d="M62.25,66.65c-5.99,4.38-13.45,6.99-21.48,6.99-19.57,0-35.68-15.52-35.68-34.37S21.2,4.9,40.77,4.9c9.81,0,18.69,3.9,25.23,10.16l-2.37,2.31c-5.93-5.68-13.97-9.21-22.86-9.21-17.72,0-32.3,14.04-32.3,31.11s14.58,31.11,32.3,31.11c7.27,0,14.03-2.36,19.45-6.33l2.03,2.6Z"/><path class="j" d="M62.25,66.65c-5.99,4.38-13.45,6.99-21.48,6.99-19.57,0-35.68-15.52-35.68-34.37S21.2,4.9,40.77,4.9c9.81,0,18.69,3.9,25.23,10.16l-2.37,2.31c-5.93-5.68-13.97-9.21-22.86-9.21-17.72,0-32.3,14.04-32.3,31.11s14.58,31.11,32.3,31.11c7.27,0,14.03-2.36,19.45-6.33l2.03,2.6Z"/><path class="e" d="M40.77,70.38c-17.72,0-32.3-14.04-32.3-31.11S23.05,8.16,40.77,8.16c8.87,0,16.96,3.52,22.82,9.18l-7.19,6.8c-4.03-3.86-9.56-6.26-15.63-6.26-12.18,0-22.21,9.66-22.21,21.39s10.03,21.39,22.21,21.39v9.72h0Z"/><path class="j" d="M40.77,70.38c-17.72,0-32.3-14.04-32.3-31.11S23.05,8.16,40.77,8.16c8.87,0,16.96,3.52,22.82,9.18l-7.19,6.8c-4.03-3.86-9.56-6.26-15.63-6.26-12.18,0-22.21,9.66-22.21,21.39s10.03,21.39,22.21,21.39v9.72h0Z"/><path class="e" d="M55.94,39.27c0,8.01-6.85,14.61-15.17,14.61s-15.17-6.59-15.17-14.61,6.85-14.61,15.17-14.61c8.32,0,15.17,6.6,15.17,14.61Zm-3.61,0c0,6.11-5.22,11.13-11.56,11.13s-11.56-5.03-11.56-11.13,5.22-11.13,11.56-11.13,11.56,5.03,11.56,11.13Z"/><path class="j" d="M55.94,39.27c0,8.01-6.85,14.61-15.17,14.61s-15.17-6.59-15.17-14.61,6.85-14.61,15.17-14.61c8.32,0,15.17,6.6,15.17,14.61Zm-3.61,0c0,6.11-5.22,11.13-11.56,11.13s-11.56-5.03-11.56-11.13,5.22-11.13,11.56-11.13,11.56,5.03,11.56,11.13Z"/><path class="j" d="M52.33,39.27c0,6.11-5.22,11.13-11.56,11.13s-11.56-5.03-11.56-11.13,5.22-11.13,11.56-11.13,11.56,5.03,11.56,11.13Z"/><ellipse class="j" cx="40.77" cy="39.27" rx="1.17" ry="1.13"/><path class="h" d="M48.85,39.27c0,4.27-3.65,7.78-8.08,7.78s-8.08-3.51-8.08-7.78,3.65-7.78,8.08-7.78c4.43,0,8.08,3.51,8.08,7.78Zm-1.04,0c0,3.72-3.18,6.78-7.04,6.78s-7.04-3.06-7.04-6.78,3.18-6.78,7.04-6.78,7.04,3.06,7.04,6.78Z"/><path class="j" d="M62.98,39.27c0,11.73-10.03,21.39-22.21,21.39s-22.21-9.66-22.21-21.39,10.03-21.39,22.21-21.39,22.21,9.66,22.21,21.39Z"/><rect class="d" x="40.16" y="5.54" width="1.15" height="2.02"/><polygon class="e" points="39.57 7.56 38.42 7.62 38.31 5.6 39.46 5.54 39.57 7.56"/><polygon class="g" points="36.5 5.79 37.64 5.68 37.86 7.69 36.72 7.8 36.5 5.79"/><polygon class="e" points="36.14 7.87 35.01 8.04 34.68 6.04 35.81 5.87 36.14 7.87"/><polygon class="e" points="34.42 8.14 33.3 8.37 32.86 6.39 33.99 6.16 34.42 8.14"/><polygon class="e" points="32.76 8.52 31.64 8.81 31.1 6.85 32.21 6.57 32.76 8.52"/><polygon class="e" points="31.12 8.95 30.02 9.29 29.37 7.37 30.47 7.02 31.12 8.95"/><polygon class="e" points="27.64 7.98 28.71 7.58 29.46 9.47 28.39 9.87 27.64 7.98"/><polygon class="g" points="25.97 8.71 27.02 8.26 27.88 10.11 26.82 10.56 25.97 8.71"/><polygon class="g" points="26.29 10.82 25.27 11.32 24.31 9.52 25.34 9.02 26.29 10.82"/><polygon class="g" points="24.74 11.58 23.74 12.13 22.69 10.38 23.69 9.82 24.74 11.58"/><polygon class="g" points="23.28 12.44 22.32 13.04 21.17 11.35 22.14 10.74 23.28 12.44"/><polygon class="g" points="21.83 13.35 20.9 14.01 19.67 12.37 20.6 11.72 21.83 13.35"/><polygon class="g" points="20.42 14.34 19.53 15.04 18.21 13.47 19.1 12.77 20.42 14.34"/><polygon class="g" points="19.12 15.41 18.26 16.15 16.86 14.65 17.71 13.91 19.12 15.41"/><polygon class="g" points="17.86 16.52 17.05 17.3 15.56 15.87 16.38 15.08 17.86 16.52"/><polygon class="g" points="16.63 17.7 15.86 18.52 14.3 17.17 15.08 16.34 16.63 17.7"/><polygon class="g" points="15.52 18.96 14.8 19.82 13.17 18.55 13.89 17.68 15.52 18.96"/><polygon class="g" points="14.43 20.28 13.75 21.18 12.05 19.99 12.73 19.09 14.43 20.28"/><polygon class="g" points="11.02 21.46 11.64 20.53 13.4 21.63 12.78 22.57 11.02 21.46"/><polygon class="g" points="12.51 23.05 11.94 24.01 10.12 23 10.69 22.03 12.51 23.05"/><polygon class="g" points="11.65 24.49 11.13 25.48 9.26 24.56 9.78 23.57 11.65 24.49"/><polygon class="g" points="10.86 25.98 10.39 27 8.48 26.18 8.94 25.16 10.86 25.98"/><polygon class="g" points="10.21 27.51 9.79 28.55 7.83 27.82 8.24 26.79 10.21 27.51"/><polygon class="g" points="9.61 29.04 9.25 30.09 7.25 29.47 7.61 28.41 9.61 29.04"/><polygon class="g" points="9.07 30.64 8.77 31.71 6.74 31.18 7.04 30.11 9.07 30.64"/><polygon class="e" points="8.67 32.25 8.43 33.33 6.37 32.91 6.61 31.83 8.67 32.25"/><polygon class="e" points="8.32 33.84 8.13 34.94 6.06 34.62 6.24 33.53 8.32 33.84"/><polygon class="e" points="8.04 35.5 7.92 36.6 5.84 36.39 5.96 35.29 8.04 35.5"/><polygon class="e" points="7.91 37.15 7.85 38.26 5.76 38.15 5.82 37.04 7.91 37.15"/><rect class="d" x="5.73" y="38.81" width="2.1" height="1.11"/><polygon class="g" points="7.83 40.49 7.89 41.6 5.79 41.7 5.73 40.59 7.83 40.49"/><polygon class="g" points="5.99 43.45 5.87 42.35 7.96 42.14 8.08 43.24 5.99 43.45"/><polygon class="e" points="8.15 43.76 8.33 44.86 6.26 45.18 6.08 44.08 8.15 43.76"/><polygon class="e" points="8.43 45.42 8.67 46.51 6.61 46.93 6.38 45.84 8.43 45.42"/><polygon class="e" points="8.83 47.03 9.13 48.1 7.1 48.62 6.8 47.55 8.83 47.03"/><polygon class="e" points="9.29 48.51 9.64 49.56 7.64 50.18 7.29 49.13 9.29 48.51"/><polygon class="e" points="9.82 50.1 10.23 51.13 8.27 51.86 7.86 50.82 9.82 50.1"/><polygon class="g" points="10.48 51.62 10.95 52.63 9.03 53.46 8.56 52.44 10.48 51.62"/><polygon class="g" points="11.19 53.14 11.71 54.13 9.84 55.05 9.32 54.06 11.19 53.14"/><polygon class="g" points="11.98 54.64 12.55 55.6 10.73 56.61 10.16 55.65 11.98 54.64"/><polygon class="g" points="12.87 56.04 13.5 56.97 11.74 58.07 11.11 57.14 12.87 56.04"/><polygon class="g" points="13.81 57.41 14.49 58.31 12.79 59.5 12.11 58.6 13.81 57.41"/><polygon class="g" points="14.83 58.76 15.56 59.63 13.93 60.9 13.2 60.04 14.83 58.76"/><polygon class="g" points="15.95 60.02 16.72 60.85 15.16 62.2 14.39 61.38 15.95 60.02"/><polygon class="g" points="17.02 61.33 17.83 62.12 16.35 63.55 15.53 62.76 17.02 61.33"/><polygon class="g" points="18.25 62.52 19.11 63.26 17.7 64.76 16.85 64.02 18.25 62.52"/><polygon class="g" points="19.56 63.59 20.46 64.29 19.13 65.86 18.24 65.17 19.56 63.59"/><polygon class="g" points="20.9 64.63 21.84 65.29 20.6 66.92 19.67 66.27 20.9 64.63"/><polygon class="g" points="22.13 67.92 21.17 67.32 22.31 65.62 23.28 66.23 22.13 67.92"/><polygon class="g" points="23.78 66.48 24.78 67.03 23.73 68.79 22.73 68.23 23.78 66.48"/><polygon class="g" points="25.25 67.3 26.28 67.8 25.33 69.61 24.3 69.1 25.25 67.3"/><polygon class="g" points="26.81 68.05 27.86 68.5 27.01 70.35 25.96 69.9 26.81 68.05"/><polygon class="e" points="28.39 68.69 29.47 69.09 28.71 70.97 27.64 70.58 28.39 68.69"/><polygon class="e" points="30.5 71.58 29.4 71.24 30.05 69.32 31.15 69.66 30.5 71.58"/><polygon class="e" points="31.7 69.83 32.81 70.11 32.27 72.07 31.16 71.78 31.7 69.83"/><polygon class="e" points="33.37 70.22 34.49 70.45 34.06 72.43 32.93 72.2 33.37 70.22"/><polygon class="e" points="35.07 70.55 36.2 70.72 35.88 72.72 34.74 72.55 35.07 70.55"/><polygon class="g" points="36.78 70.81 37.93 70.93 37.71 72.94 36.56 72.83 36.78 70.81"/><polygon class="g" points="38.49 70.94 39.64 71 39.53 73.02 38.38 72.96 38.49 70.94"/><rect class="f" x="40.19" y="71.02" width="1.15" height="2.02"/><polygon class="g" points="41.93 71.02 43.08 70.96 43.19 72.98 42.04 73.04 41.93 71.02"/><polygon class="g" points="43.65 70.89 44.79 70.78 45.01 72.79 43.86 72.91 43.65 70.89"/><polygon class="g" points="45.4 70.72 46.53 70.54 46.86 72.54 45.72 72.72 45.4 70.72"/><polygon class="g" points="47.11 70.46 48.23 70.23 48.67 72.2 47.54 72.44 47.11 70.46"/><polygon class="g" points="48.78 70.07 49.9 69.78 50.44 71.74 49.33 72.02 48.78 70.07"/><polygon class="g" points="50.45 69.64 51.54 69.3 52.19 71.22 51.1 71.56 50.45 69.64"/><polygon class="g" points="52.11 69.12 53.18 68.72 53.93 70.61 52.86 71.01 52.11 69.12"/><polygon class="g" points="53.69 68.49 54.74 68.04 55.59 69.88 54.54 70.33 53.69 68.49"/><polygon class="g" points="55.24 67.81 56.27 67.31 57.22 69.11 56.2 69.61 55.24 67.81"/><polygon class="g" points="56.79 67.05 57.78 66.49 58.83 68.25 57.84 68.8 56.79 67.05"/><polygon class="g" points="58.24 66.18 59.21 65.58 60.35 67.27 59.39 67.88 58.24 66.18"/><polygon class="e" points="46.42 8 45.28 7.83 45.61 5.83 46.75 6 46.42 8"/><polygon class="e" points="44.7 7.74 43.56 7.62 43.78 5.61 44.92 5.73 44.7 7.74"/><polygon class="e" points="42.99 7.61 41.84 7.55 41.95 5.53 43.1 5.59 42.99 7.61"/><polygon class="g" points="48.12 8.34 47 8.11 47.43 6.13 48.56 6.36 48.12 8.34"/><polygon class="g" points="49.92 8.79 48.8 8.5 49.35 6.55 50.46 6.84 49.92 8.79"/><polygon class="g" points="51.57 9.3 50.47 8.96 51.12 7.04 52.22 7.38 51.57 9.3"/><path class="e" d="M51.25,19.05c-1.4-.7-2.89-1.25-4.45-1.63l1.81-7.08c2.13,.52,4.17,1.27,6.15,2.23l-3.5,6.49Z"/><path class="i" d="M51.25,19.05c-1.4-.7-2.89-1.25-4.45-1.63l1.81-7.08c2.13,.52,4.17,1.27,6.15,2.23l-3.5,6.49Z"/><path class="e" d="M56.73,13.61c1.85,1.05,3.54,2.31,5.1,3.73l-5.17,5.31c-1.14-1.04-2.41-1.96-3.78-2.74l3.85-6.3Z"/><path class="i" d="M56.73,13.61c1.85,1.05,3.54,2.31,5.1,3.73l-5.17,5.31c-1.14-1.04-2.41-1.96-3.78-2.74l3.85-6.3Z"/><path class="h" d="M41.18,9.49c-.53-.03-1.05-.04-1.59-.04-7.8,0-14.88,3.1-20.03,8.08l1.51,1.37c.36-.4,2.41-2.35,3.94-3.29,2.1-1.3,4.2-2.22,4.2-2.22l.76,1.54s-1.74,.7-3.96,2.03c-2.02,1.22-3.53,2.81-3.77,3.07l2.69,2.54c3.78-3.56,8.95-5.83,14.66-5.83,.52,0,1.02,.02,1.6,.06v-7.31Z"/><path class="i" d="M41.18,9.49c-.53-.03-1.05-.04-1.59-.04-7.8,0-14.88,3.1-20.03,8.08l1.51,1.37c.36-.4,2.41-2.35,3.94-3.29,2.1-1.3,4.2-2.22,4.2-2.22l.76,1.54s-1.74,.7-3.96,2.03c-2.02,1.22-3.53,2.81-3.77,3.07l2.69,2.54c3.78-3.56,8.95-5.83,14.66-5.83,.52,0,1.02,.02,1.6,.06v-7.31Z"/><path class="h" d="M26.48,24.64l3.29,3.11s1.59-1.41,4.1-2.69c2.06-1.05,5.29-1.31,5.29-1.31l-.15-4.43s-3.82-.02-7.27,1.69c-3.38,1.68-5.26,3.62-5.26,3.62Z"/><path class="i" d="M26.48,24.64l3.29,3.11s1.59-1.41,4.1-2.69c2.06-1.05,5.29-1.31,5.29-1.31l-.15-4.43s-3.82-.02-7.27,1.69c-3.38,1.68-5.26,3.62-5.26,3.62Z"/><path class="e" d="M25.58,53.04l3.23-3.17s-1.47-1.53-2.79-3.95c-1.09-1.99-1.36-5.09-1.36-5.09l-4.6,.15s-.02,3.68,1.76,7c1.75,3.26,3.76,5.07,3.76,5.07Z"/><path class="i" d="M25.58,53.04l3.23-3.17s-1.47-1.53-2.79-3.95c-1.09-1.99-1.36-5.09-1.36-5.09l-4.6,.15s-.02,3.68,1.76,7c1.75,3.26,3.76,5.07,3.76,5.07Z"/><path class="i" d="M54.97,53.99l-3.29-3.11s-1.59,1.41-4.1,2.69c-2.06,1.05-5.29,1.31-5.29,1.31l.15,4.43s3.82,.02,7.26-1.7c3.38-1.68,5.26-3.62,5.26-3.62Z"/><path class="i" d="M55.81,25.35l-3.17,3.22s1.49,1.51,2.86,3.9c1.13,1.97,1.45,5.07,1.45,5.07l4.59-.23s-.05-3.68-1.89-6.97c-1.81-3.23-3.85-5-3.85-5Z"/><path class="h" d="M38.41,27.62c-2.26,.36-4.43,1.32-6.14,2.97l-1.24-1.19c1.98-1.91,4.44-3.03,7.04-3.44l.33,1.66Z"/><path class="i" d="M38.41,27.62c-2.26,.36-4.43,1.32-6.14,2.97l-1.24-1.19c1.98-1.91,4.44-3.03,7.04-3.44l.33,1.66Z"/><path class="e" d="M28.41,37.92c-.35,2.18-.07,4.46,1.03,6.54l-1.56,.77c-1.27-2.41-1.62-5-1.22-7.51l1.74,.21Z"/><path class="i" d="M28.41,37.92c-.35,2.18-.07,4.46,1.03,6.54l-1.56,.77c-1.27-2.41-1.62-5-1.22-7.51l1.74,.21Z"/><path class="e" d="M33.88,49.25c1.85,1.28,4.09,2.08,6.52,2.08v1.69c-2.8,0-5.36-.88-7.5-2.37l.99-1.4Z"/><path class="i" d="M33.88,49.25c1.85,1.28,4.09,2.08,6.52,2.08v1.69c-2.8,0-5.36-.88-7.5-2.37l.99-1.4Z"/><path class="e" d="M49.9,47.42c1.61-1.56,2.78-3.57,3.16-5.87l1.73,.26c-.44,2.67-1.74,4.96-3.6,6.77l-1.28-1.16Z"/><path class="i" d="M49.9,47.42c1.61-1.56,2.78-3.57,3.16-5.87l1.73,.26c-.44,2.67-1.74,4.96-3.6,6.77l-1.28-1.16Z"/><path class="e" d="M51.63,33.58c-1.01-1.97-2.6-3.69-4.74-4.79l.82-1.49c2.47,1.27,4.3,3.2,5.47,5.48l-1.55,.79Z"/><path class="i" d="M51.63,33.58c-1.01-1.97-2.6-3.69-4.74-4.79l.82-1.49c2.47,1.27,4.3,3.2,5.47,5.48l-1.55,.79Z"/><polygon class="h" points="33.17 31.87 34.41 30.83 35.68 32.57 34.82 33.32 33.17 31.87"/><polygon class="i" points="33.17 31.87 34.41 30.83 35.68 32.57 34.82 33.32 33.17 31.87"/><polygon class="i" points="35.01 48.17 33.7 47.22 35.2 45.66 36.14 46.31 35.01 48.17"/><polygon class="i" points="33.15 46.72 32.07 45.52 33.88 44.3 34.66 45.13 33.15 46.72"/><polygon class="i" points="39.57 49.72 37.96 49.39 38.65 47.37 39.78 47.58 39.57 49.72"/><polygon class="i" points="37.25 49.16 35.75 48.52 36.85 46.67 37.91 47.11 37.25 49.16"/><polygon class="i" points="44.4 49.25 42.8 49.61 42.53 47.5 43.65 47.23 44.4 49.25"/><polygon class="i" points="42.03 49.69 40.39 49.71 40.58 47.6 41.73 47.56 42.03 49.69"/><polygon class="i" points="50.07 44.9 49.09 46.16 47.47 44.71 48.15 43.81 50.07 44.9"/><polygon class="i" points="48.57 46.69 47.33 47.73 46.06 45.99 46.92 45.24 48.57 46.69"/><polygon class="i" points="31.6 44.87 30.83 43.47 32.88 42.68 33.44 43.65 31.6 44.87"/><polygon class="i" points="30.56 42.79 30.11 41.27 32.28 40.9 32.62 41.97 30.56 42.79"/><polygon class="i" points="30.03 40.46 29.95 38.88 32.15 38.99 32.23 40.1 30.03 40.46"/><polygon class="i" points="29.93 38.16 30.2 36.52 32.44 37.1 32.28 38.26 29.93 38.16"/><polygon class="i" points="49.61 33.11 48.51 31.93 47.03 33.51 47.79 34.36 49.61 33.11"/><polygon class="i" points="47.94 31.46 46.61 30.53 45.51 32.37 46.43 33.04 47.94 31.46"/><polygon class="i" points="51.49 37.34 51.03 35.82 48.99 36.61 49.28 37.69 51.49 37.34"/><polygon class="i" points="50.74 35.14 49.97 33.75 48.14 34.93 48.67 35.93 50.74 35.14"/><polygon class="i" points="51.22 42.05 51.53 40.49 49.33 40.31 49.09 41.4 51.22 42.05"/><polygon class="i" points="51.59 39.75 51.56 38.16 49.37 38.42 49.36 39.54 51.59 39.75"/><polygon class="i" points="45.96 30.06 44.45 29.44 43.81 31.48 44.86 31.93 45.96 30.06"/><polygon class="i" points="43.73 29.24 42.11 28.94 41.92 31.06 43.05 31.29 43.73 29.24"/><polygon class="i" points="41.3 28.83 39.66 28.92 40.01 31.02 41.16 30.98 41.3 28.83"/><polygon class="h" points="38.9 29.04 37.31 29.45 38.1 31.43 39.23 31.16 38.9 29.04"/><polygon class="i" points="38.9 29.04 37.31 29.45 38.1 31.43 39.23 31.16 38.9 29.04"/><polygon class="h" points="35.09 30.42 36.54 29.67 37.37 31.64 36.36 32.19 35.09 30.42"/><polygon class="i" points="35.09 30.42 36.54 29.67 37.37 31.64 36.36 32.19 35.09 30.42"/><polygon class="i" points="31.21 34.25 30.5 35.77 32.71 36.46 33.23 35.4 31.21 34.25"/><polygon class="i" points="50.4 44.22 51.07 42.77 48.97 42.11 48.48 43.12 50.4 44.22"/><polygon class="i" points="46.67 48.17 45.22 48.91 44.4 46.94 45.4 46.4 46.67 48.17"/></g></g></svg>