<svg width="112" height="112" viewBox="0 0 112 112" fill="none" xmlns="http://www.w3.org/2000/svg">
<path fill-rule="evenodd" clip-rule="evenodd" d="M56 112C86.9279 112 112 86.9279 112 56C112 25.0721 86.9279 0 56 0C25.0721 0 0 25.0721 0 56C0 86.9279 25.0721 112 56 112Z" fill="#0DBD8B"/>
<path fill-rule="evenodd" clip-rule="evenodd" d="M45.7614 26.093C45.7614 23.8326 47.5977 22.0001 49.8628 22.0001C65.2154 22.0001 77.6611 34.42 77.6611 49.7406C77.6611 52.0011 75.8248 53.8335 73.5597 53.8335C71.2945 53.8335 69.4583 52.0011 69.4583 49.7406C69.4583 38.9408 60.6851 30.1859 49.8628 30.1859C47.5977 30.1859 45.7614 28.3534 45.7614 26.093Z" fill="white"/>
<path fill-rule="evenodd" clip-rule="evenodd" d="M85.8985 45.6477C88.1637 45.6477 89.9999 47.4801 89.9999 49.7406C89.9999 65.0612 77.5542 77.4811 62.2017 77.4811C59.9366 77.4811 58.1003 75.6486 58.1003 73.3882C58.1003 71.1278 59.9366 69.2953 62.2017 69.2953C73.0239 69.2953 81.7971 60.5404 81.7971 49.7406C81.7971 47.4801 83.6334 45.6477 85.8985 45.6477Z" fill="white"/>
<path fill-rule="evenodd" clip-rule="evenodd" d="M66.3031 85.907C66.3031 88.1675 64.4669 89.9999 62.2017 89.9999C46.8492 89.9999 34.4035 77.5801 34.4035 62.2594C34.4035 59.999 36.2398 58.1665 38.5049 58.1665C40.77 58.1665 42.6063 59.999 42.6063 62.2594C42.6063 73.0592 51.3795 81.8142 62.2017 81.8142C64.4669 81.8142 66.3031 83.6466 66.3031 85.907Z" fill="white"/>
<path fill-rule="evenodd" clip-rule="evenodd" d="M26.1014 66.3524C23.8363 66.3524 22 64.5199 22 62.2595C22 46.9388 34.4457 34.519 49.7982 34.519C52.0633 34.519 53.8996 36.3514 53.8996 38.6118C53.8996 40.8723 52.0633 42.7047 49.7982 42.7047C38.976 42.7047 30.2028 51.4597 30.2028 62.2595C30.2028 64.5199 28.3665 66.3524 26.1014 66.3524Z" fill="white"/>
</svg>
