<?xml version="1.0" encoding="utf-8"?>
<!-- Generator: Adobe Illustrator 18.1.0, SVG Export Plug-In . SVG Version: 6.00 Build 0)  -->
<svg version="1.1" id="Ebene_1" xmlns="http://www.w3.org/2000/svg" xmlns:xlink="http://www.w3.org/1999/xlink" x="0px" y="0px"
	 viewBox="0 0 262 61.2" enable-background="new 0 0 262 61.2" xml:space="preserve">
<g>
	<path fill="#283583" d="M243.6,48.1h5.3V35.4c0-0.9,0-1.8-0.1-2.6c-0.1-0.8-0.2-1.6-0.5-2.3c0.4-0.3,0.9-0.5,1.7-0.8
		c0.8-0.3,1.6-0.4,2.4-0.4c1.7,0,2.8,0.5,3.4,1.6s0.9,2.8,0.9,5.2v12h5.3V35.2c0-1.5-0.1-3-0.4-4.3c-0.2-1.3-0.7-2.4-1.4-3.3
		c-0.7-0.9-1.6-1.6-2.7-2.1c-1.2-0.5-2.6-0.8-4.4-0.8c-0.7,0-1.4,0.1-2.1,0.2c-0.7,0.1-1.3,0.3-1.9,0.5s-1.2,0.5-1.7,0.7
		c-0.5,0.3-0.9,0.5-1.2,0.7c-0.7-0.7-1.5-1.2-2.5-1.6c-1-0.4-2.3-0.6-3.9-0.6c-1.8,0-3.6,0.1-5.2,0.4c-1.6,0.3-3,0.5-4,0.8V48h5.3
		V29.5c0.4-0.1,0.9-0.1,1.6-0.2c0.7-0.1,1.3-0.1,1.9-0.1c1.6,0,2.8,0.5,3.4,1.6c0.6,1.1,0.9,2.8,0.9,5.2L243.6,48.1L243.6,48.1z
		 M219,42.1c-1,1.3-2.3,2-4.1,2c-1.8,0-3.1-0.7-4.1-2s-1.5-3.2-1.5-5.5s0.5-4.1,1.5-5.4c1-1.3,2.3-2,4.1-2c1.8,0,3.1,0.7,4.1,2
		c1,1.3,1.5,3.1,1.5,5.4C220.5,38.9,220,40.7,219,42.1 M225.1,31.7c-0.5-1.5-1.3-2.7-2.3-3.8s-2.1-1.9-3.5-2.4
		c-1.4-0.6-2.8-0.9-4.4-0.9s-3.1,0.3-4.4,0.9c-1.3,0.6-2.5,1.4-3.5,2.4c-1,1.1-1.7,2.3-2.3,3.8c-0.5,1.5-0.8,3.1-0.8,4.9
		c0,1.8,0.3,3.5,0.8,4.9c0.5,1.5,1.3,2.8,2.3,3.8c1,1.1,2.1,1.9,3.5,2.5c1.3,0.6,2.8,0.9,4.5,0.9c1.6,0,3.1-0.3,4.5-0.9
		c1.4-0.6,2.5-1.4,3.5-2.5c1-1.1,1.7-2.3,2.2-3.8c0.5-1.5,0.8-3.1,0.8-4.9C225.9,34.8,225.6,33.2,225.1,31.7 M188.4,14.1l-5.3,0.9
		v33.1h5.3V37.6c0.8,0.6,1.6,1.3,2.4,2.1c0.8,0.8,1.6,1.7,2.4,2.6c0.8,0.9,1.5,1.9,2.2,2.9c0.7,1,1.3,1.9,1.8,2.8h6.1
		c-0.5-1-1.2-2.1-2-3.2c-0.8-1.2-1.6-2.3-2.5-3.5c-0.9-1.2-1.8-2.3-2.8-3.3s-1.9-1.9-2.8-2.7c1.6-1.7,3.3-3.4,4.9-5.1
		c1.6-1.8,3.2-3.4,4.6-5.1h-6.3c-0.5,0.6-1,1.2-1.7,1.9c-0.7,0.7-1.4,1.5-2.1,2.3c-0.7,0.8-1.5,1.6-2.2,2.4
		c-0.8,0.8-1.5,1.6-2.1,2.3V14.1H188.4z M179.4,25.5c-0.3-0.1-0.6-0.2-1.1-0.3c-0.4-0.1-0.9-0.2-1.4-0.3c-0.5-0.1-0.9-0.1-1.4-0.2
		c-0.5,0-0.9-0.1-1.2-0.1c-1.9,0-3.6,0.2-5.1,0.5s-2.8,0.7-3.8,1.1V48h5.3V29.6c0.3-0.1,0.7-0.2,1.4-0.3c0.7-0.1,1.3-0.2,1.9-0.2
		c1,0,1.9,0.1,2.7,0.2c0.8,0.2,1.4,0.3,1.8,0.5L179.4,25.5z M158.3,16.1c-0.6-0.6-1.4-0.9-2.3-0.9c-0.9,0-1.7,0.3-2.3,0.9
		c-0.6,0.6-1,1.4-1,2.4s0.3,1.8,1,2.4c0.6,0.6,1.4,0.9,2.3,0.9c0.9,0,1.6-0.3,2.3-0.9c0.6-0.6,1-1.4,1-2.4S158.9,16.7,158.3,16.1
		 M158.7,25.2h-5.3v22.9h5.3V25.2z M134.3,25c-1.3,0.2-2.3,0.5-2.9,0.7l0.7,4.3c0.6-0.2,1.5-0.4,2.5-0.6s2.1-0.3,3.4-0.3
		c0.9,0,1.7,0.1,2.3,0.4c0.6,0.2,1.1,0.6,1.4,1c0.4,0.4,0.6,0.9,0.8,1.5c0.1,0.6,0.2,1.1,0.2,1.8v0.9c-0.7-0.2-1.4-0.3-2.1-0.4
		c-0.6-0.1-1.3-0.1-1.8-0.1c-1.3,0-2.5,0.1-3.6,0.4c-1.2,0.2-2.2,0.7-3,1.2c-0.9,0.6-1.6,1.3-2.1,2.2c-0.5,0.9-0.8,2-0.8,3.3
		c0,1.4,0.2,2.5,0.7,3.5c0.5,0.9,1.1,1.7,1.9,2.3c0.8,0.6,1.8,1,2.9,1.3c1.1,0.3,2.4,0.4,3.8,0.4c2.1,0,3.9-0.1,5.6-0.4
		c1.6-0.2,2.9-0.5,3.7-0.6V33.9c0-1.3-0.2-2.6-0.5-3.7c-0.3-1.1-0.8-2.1-1.5-2.9c-0.7-0.8-1.7-1.4-2.9-1.8c-1.2-0.4-2.7-0.7-4.4-0.7
		C137,24.6,135.6,24.7,134.3,25 M135.7,43.6c-0.8-0.5-1.2-1.4-1.2-2.6c0-0.6,0.1-1.2,0.4-1.6c0.3-0.4,0.7-0.8,1.2-1
		c0.5-0.2,1-0.4,1.6-0.5c0.6-0.1,1.2-0.1,1.8-0.1c0.7,0,1.3,0,1.8,0.1c0.6,0.1,1,0.2,1.3,0.3v5.9c-0.8,0.2-2.1,0.3-3.7,0.3
		C137.5,44.4,136.5,44.1,135.7,43.6 M115.6,16.6c-1.5,1.7-2.3,4-2.3,6.9V48h5.3V29.5h8.3v-4.4h-8.3v-1.5c0-0.7,0.1-1.4,0.2-2
		c0.1-0.6,0.4-1.2,0.7-1.6c0.4-0.4,0.8-0.8,1.4-1c0.6-0.2,1.3-0.4,2.1-0.4s1.5,0.1,2.1,0.2c0.7,0.1,1.2,0.3,1.7,0.6l1-4.4
		c-0.5-0.2-1.2-0.4-2.1-0.6c-0.9-0.2-2-0.3-3.2-0.3C119.5,14.1,117.2,14.9,115.6,16.6"/>
	<path fill="#82AD29" d="M42.7,2.5C39,0.9,34.9,0,30.6,0C13.7,0,0,13.7,0,30.6s13.7,30.6,30.6,30.6c4.3,0,8.4-0.9,12.1-2.5
		c-8.6-6.3-14.3-16.5-14.3-28.1S34.1,8.9,42.7,2.5"/>
	<path fill="#C2D115" d="M63.3,0C46.4,0,32.7,13.7,32.7,30.6s13.7,30.6,30.6,30.6s30.6-13.7,30.6-30.6S80.2,0,63.3,0"/>
</g>
</svg>
