<svg width="129" height="32" viewBox="0 0 129 32" fill="none" xmlns="http://www.w3.org/2000/svg">
<g clip-path="url(#clip0_1216_2626)">
<mask id="mask0_1216_2626" style="mask-type:alpha" maskUnits="userSpaceOnUse" x="1" y="0" width="30" height="32">
<path fill-rule="evenodd" clip-rule="evenodd" d="M17.232 0H9.29275V8V15.5455V16H1.71439C1.51508 16 1.35352 16.1628 1.35352 16.3636V23.6364C1.35352 23.8372 1.51508 24 1.71439 24H9.29275V31.6364C9.29275 31.8372 9.45431 32 9.65362 32H16.8711C17.0704 32 17.232 31.8372 17.232 31.6364V24H24.8103C25.0096 24 25.1712 23.8372 25.1712 23.6364V16.3636C25.1712 16.1628 25.0096 16 24.8103 16H17.232V15.5455V12.0909L9.29275 8H17.232H25.1712H30.043C30.2423 8 30.4039 7.83719 30.4039 7.63636V0.363636C30.4039 0.162806 30.2423 0 30.043 0H25.1712H17.232Z" fill="#D9D9D9"/>
</mask>
<g mask="url(#mask0_1216_2626)">
<path d="M1.35352 16.3636C1.35352 16.1628 1.51508 16 1.71439 16H24.8103C25.0096 16 25.1712 16.1628 25.1712 16.3636V23.6364C25.1712 23.8372 25.0096 24 24.8103 24H1.71439C1.51508 24 1.35352 23.8372 1.35352 23.6364V16.3636Z" fill="url(#paint0_radial_1216_2626)"/>
<g filter="url(#filter0_d_1216_2626)">
<path fill-rule="evenodd" clip-rule="evenodd" d="M17.2322 12.0909L9.29297 8V15.5455V16V31.6364C9.29297 31.8372 9.45454 32 9.65384 32H16.8713C17.0706 32 17.2322 31.8372 17.2322 31.6364V16V15.5455V12.0909Z" fill="white"/>
</g>
<path fill-rule="evenodd" clip-rule="evenodd" d="M17.2322 0H9.29297V8V15.5455V16V31.6364C9.29297 31.8372 9.45454 32 9.65384 32H16.8713C17.0706 32 17.2322 31.8372 17.2322 31.6364V16V15.5455V12.0909L9.29297 8H17.2322H25.1714V0H17.2322H17.2322ZM25.1714 0H30.0432C30.2425 0 30.4041 0.162806 30.4041 0.363636V7.63636C30.4041 7.83719 30.2425 8 30.0432 8H25.1714V0Z" fill="url(#paint1_radial_1216_2626)"/>
</g>
<g clip-path="url(#clip1_1216_2626)">
<path d="M119.3 12.4709C119.426 12.4709 119.527 12.5731 119.527 12.6993V19.4381C119.527 20.4889 119.723 21.2691 120.188 21.8091C120.652 22.3491 121.379 22.6191 122.367 22.6191C122.972 22.6191 123.551 22.4695 124.104 22.1703C124.657 21.8711 125.1 21.4771 125.432 20.9882C125.746 20.525 125.879 20.046 125.893 19.5253L125.894 19.4381V13.1557C125.894 12.7775 126.199 12.4709 126.575 12.4709H127.03C127.155 12.4709 127.257 12.5731 127.257 12.6993V22.6362L127.256 22.6402C127.191 25.7397 124.61 28.2329 121.573 28.2329C120.674 28.2329 119.826 28.0148 119.074 27.6273C119.014 27.5964 118.947 27.5588 118.873 27.5145L118.758 27.4432C118.737 27.4305 118.717 27.4173 118.696 27.4038C118.453 27.247 118.382 26.9217 118.538 26.6772C118.558 26.6455 118.582 26.616 118.608 26.5893C118.86 26.3365 119.249 26.2838 119.558 26.4606C119.609 26.4895 119.655 26.5142 119.696 26.5348C120.264 26.8179 120.901 26.9765 121.573 26.9765C123.927 26.9765 125.851 25.0299 125.892 22.6006L125.893 22.522V21.7225C125.524 22.3355 125.03 22.9146 124.336 23.2868C123.643 23.659 122.839 23.8926 122.028 23.8926C120.745 23.8926 119.823 23.4656 119.159 22.7067C118.515 21.9707 118.184 21.0248 118.164 19.7838L118.163 19.6666V13.1562C118.163 12.7777 118.469 12.4709 118.845 12.4709H119.3ZM57.01 8.13062C57.1266 8.13062 57.2227 8.2188 57.2358 8.33241L57.2373 8.35905V8.81593C57.2373 9.18089 56.9534 9.47923 56.5954 9.50007L56.5553 9.50122H47.6892V14.9837L53.8282 14.9835L53.8547 14.9851C53.959 14.9973 54.0418 15.0806 54.0538 15.1854L54.0553 15.2121L54.055 15.669C54.0544 16.0338 53.7705 16.3319 53.4127 16.3531L53.3726 16.3543H47.6892V23.2073C47.6892 23.5723 47.4053 23.8706 47.0473 23.8915L47.0072 23.8926H46.5525C46.4359 23.8926 46.3399 23.8044 46.3267 23.6908L46.3252 23.6642V8.78654C46.3252 8.59705 46.3874 8.44035 46.5119 8.31646C46.626 8.20288 46.7872 8.14137 46.9599 8.1319L47.0072 8.13062H57.01ZM66.1034 12.4709C66.229 12.4709 66.3308 12.5731 66.3308 12.6993V23.209C66.3308 23.5866 66.0262 23.8926 65.6504 23.8926H65.1971C65.0717 23.8926 64.97 23.7906 64.9698 23.6645L64.9668 21.7225C64.6036 22.3275 64.0781 22.8056 63.3835 23.2283C62.6557 23.6712 61.862 23.8926 61.0033 23.8926C60.0282 23.8926 59.1517 23.6426 58.3731 23.1426C57.5944 22.6426 56.9831 21.9569 56.5392 21.0854C56.0953 20.2139 55.8733 19.2353 55.8733 18.1496C55.8733 17.0639 56.0989 16.0888 56.5501 15.2245C57.0013 14.3602 57.6162 13.6852 58.3949 13.1995C59.1736 12.7137 60.0359 12.4709 60.982 12.4709C61.8552 12.4709 62.6557 12.678 63.3835 13.0923C64.0796 13.4886 64.6036 14.0095 64.9668 14.641V13.1562C64.9668 12.7777 65.2721 12.4709 65.6488 12.4709H66.1034ZM70.4228 12.4709C70.5394 12.4709 70.6355 12.5591 70.6486 12.6727L70.6502 12.6993V14.641C71.0458 14.0469 71.5355 13.4489 72.2096 13.0577C72.8837 12.6665 73.5944 12.4709 74.3417 12.4709C75.1917 12.4709 75.9244 12.6737 76.5398 13.0794C77.1553 13.4851 77.5949 14.0792 77.8587 14.8617C78.1664 14.2241 78.7306 13.6663 79.5512 13.1881C80.3718 12.71 81.1998 12.4709 82.035 12.4709C83.3539 12.4709 84.3247 12.873 84.9475 13.6771C85.5508 14.4562 85.8619 15.4766 85.8808 16.7384L85.8817 16.8613V23.2073C85.8817 23.5723 85.5978 23.8706 85.2397 23.8915L85.1997 23.8926H84.745C84.6284 23.8926 84.5323 23.8044 84.5192 23.6908L84.5177 23.6642V16.9265C84.5177 15.9701 84.332 15.1913 83.8704 14.59C83.4088 13.9887 82.6945 13.688 81.7273 13.688C81.1118 13.688 80.5294 13.8329 79.9798 14.1227C79.4303 14.4125 78.987 14.8073 78.65 15.3072C78.3307 15.7808 78.1697 16.2902 78.1536 16.8353L78.1522 16.9265V23.2073C78.1522 23.5723 77.8683 23.8706 77.5103 23.8915L77.4702 23.8926H77.0156C76.899 23.8926 76.8029 23.8044 76.7898 23.6908L76.7882 23.6642V16.9254C76.7882 15.9835 76.6058 15.1551 76.1661 14.5683C75.7265 13.9814 75.0378 13.688 74.0999 13.688C73.4991 13.688 72.9313 13.8329 72.3964 14.1227C71.8616 14.4125 71.4293 14.8001 71.0996 15.2855C70.7863 15.7466 70.6627 16.3016 70.6511 16.8404L70.6502 16.9254V23.2073C70.6502 23.5723 70.3662 23.8706 70.0082 23.8915L69.9681 23.8926H69.5135C69.3969 23.8926 69.3008 23.8044 69.2877 23.6908L69.2861 23.6642V13.1562C69.2861 12.7912 69.5701 12.4929 69.9281 12.472L69.9681 12.4709H70.4228ZM93.2921 12.4709C94.1702 12.4709 94.9934 12.6709 95.7618 13.0709C96.5301 13.4709 97.1558 14.0566 97.6388 14.8281C98.1217 15.5995 98.3705 16.5138 98.3852 17.571C98.3852 17.7425 98.3193 17.8889 98.1876 18.0103C98.0872 18.1029 97.974 18.1602 97.848 18.1822L89.4054 18.1818C89.4054 20.6475 91.345 22.6362 93.7248 22.6362C94.8739 22.6362 95.9204 22.1725 96.6955 21.4153C96.7755 21.3371 96.8681 21.2333 96.9732 21.1038C97.1674 20.8646 97.5178 20.8288 97.7559 21.024C97.7705 21.0359 97.7844 21.0486 97.7977 21.0619C98.061 21.3265 98.0763 21.7505 97.8328 22.0336L97.7507 22.1268C97.7248 22.1555 97.7003 22.1817 97.6772 22.2055C96.6682 23.2474 95.27 23.8926 93.7248 23.8926C90.6487 23.8926 88.155 21.3358 88.155 18.1818H88.1557L88.1561 18.1613C88.1737 17.0429 88.4112 16.0265 88.8685 15.1817C89.3442 14.3031 89.9771 13.6316 90.7675 13.1673C91.5578 12.703 92.3993 12.4709 93.2921 12.4709ZM110.434 8.13062C110.56 8.13062 110.661 8.23289 110.661 8.35905V23.2074C110.661 23.5858 110.356 23.8927 109.979 23.8927H109.525C109.399 23.8927 109.297 23.7904 109.297 23.6642V21.7225C108.934 22.3275 108.409 22.8056 107.714 23.2283C106.986 23.6712 106.193 23.8927 105.334 23.8927C104.359 23.8927 103.482 23.6426 102.704 23.1426C101.925 22.6426 101.314 21.9569 100.87 21.0854C100.426 20.2139 100.204 19.2353 100.204 18.1496C100.204 17.0639 100.429 16.0888 100.881 15.2245C101.332 14.3602 101.947 13.6852 102.725 13.1995C103.504 12.7137 104.366 12.4709 105.313 12.4709C106.186 12.4709 106.986 12.678 107.714 13.0923C108.41 13.4886 108.934 14.0095 109.297 14.641L109.3 8.81423C109.3 8.43662 109.605 8.13062 109.981 8.13062H110.434ZM114.981 8.13062C115.097 8.13062 115.193 8.2188 115.207 8.33241L115.208 8.35905V23.2074C115.208 23.5723 114.924 23.8707 114.566 23.8915L114.526 23.8927H114.071C113.955 23.8927 113.859 23.8045 113.846 23.6909L113.844 23.6642V8.81593C113.844 8.45096 114.128 8.15262 114.486 8.13178L114.526 8.13062H114.981ZM61.1348 13.6709C60.378 13.6709 59.6975 13.8638 59.0935 14.2495C58.4895 14.6352 58.0165 15.1674 57.6744 15.846C57.3324 16.5246 57.1614 17.2924 57.1614 18.1496C57.1614 19.0068 57.3288 19.7818 57.6635 20.4747C57.9983 21.1675 58.4677 21.7104 59.0717 22.1033C59.6757 22.4962 60.3634 22.6926 61.1348 22.6926C61.8916 22.6926 62.5721 22.4962 63.1761 22.1033C63.7801 21.7104 64.2531 21.1675 64.5951 20.4747C64.9372 19.7818 65.1082 19.0068 65.1082 18.1496C65.1082 17.321 64.9372 16.5639 64.5951 15.8781C64.2531 15.1924 63.7801 14.6531 63.1761 14.2602C62.5721 13.8673 61.8916 13.6709 61.1348 13.6709ZM105.465 13.6709C104.708 13.6709 104.028 13.8638 103.424 14.2495C102.82 14.6352 102.347 15.1674 102.005 15.846C101.663 16.5246 101.492 17.2924 101.492 18.1496C101.492 19.0068 101.659 19.7818 101.994 20.4747C102.329 21.1675 102.798 21.7104 103.402 22.1033C104.006 22.4962 104.694 22.6926 105.465 22.6926C106.222 22.6926 106.903 22.4962 107.507 22.1033C108.111 21.7104 108.584 21.1675 108.926 20.4747C109.268 19.7818 109.439 19.0068 109.439 18.1496C109.439 17.321 109.268 16.5639 108.926 15.8781C108.584 15.1924 108.111 14.6531 107.507 14.2602C106.903 13.8673 106.222 13.6709 105.465 13.6709ZM93.2921 13.7138C92.4432 13.7138 91.6566 13.9995 90.9321 14.5709C90.2318 15.1233 89.7742 15.9093 89.5594 16.929L89.5381 17.0353H97.0241V16.8638L97.0105 16.7575C96.9261 16.1589 96.711 15.6337 96.3655 15.1817C95.9996 14.7031 95.5422 14.3388 94.9934 14.0888C94.4446 13.8388 93.8775 13.7138 93.2921 13.7138Z" fill="url(#paint2_radial_1216_2626)"/>
</g>
</g>
<defs>
<filter id="filter0_d_1216_2626" x="-14.707" y="-16" width="55.9395" height="72" filterUnits="userSpaceOnUse" color-interpolation-filters="sRGB">
<feFlood flood-opacity="0" result="BackgroundImageFix"/>
<feColorMatrix in="SourceAlpha" type="matrix" values="0 0 0 0 0 0 0 0 0 0 0 0 0 0 0 0 0 0 127 0" result="hardAlpha"/>
<feOffset/>
<feGaussianBlur stdDeviation="12"/>
<feComposite in2="hardAlpha" operator="out"/>
<feColorMatrix type="matrix" values="0 0 0 0 0.192689 0 0 0 0 0.16125 0 0 0 0 0.716667 0 0 0 1 0"/>
<feBlend mode="normal" in2="BackgroundImageFix" result="effect1_dropShadow_1216_2626"/>
<feBlend mode="normal" in="SourceGraphic" in2="effect1_dropShadow_1216_2626" result="shape"/>
</filter>
<radialGradient id="paint0_radial_1216_2626" cx="0" cy="0" r="1" gradientUnits="userSpaceOnUse" gradientTransform="translate(-7.12703 14.5) rotate(21.1318) scale(85.3579 39.6522)">
<stop stop-color="#A03CFE"/>
<stop offset="0.53125" stop-color="#4F46E5"/>
</radialGradient>
<radialGradient id="paint1_radial_1216_2626" cx="0" cy="0" r="1" gradientUnits="userSpaceOnUse" gradientTransform="translate(4.73694 -3.81817) rotate(35.8634) scale(99.0781 66.0238)">
<stop stop-color="#A03CFE"/>
<stop offset="0.53125" stop-color="#4F46E5"/>
</radialGradient>
<radialGradient id="paint2_radial_1216_2626" cx="0" cy="0" r="1" gradientUnits="userSpaceOnUse" gradientTransform="translate(30.5991 8.13061) rotate(10.5265) scale(132.253 98.3395)">
<stop stop-color="#A03CFE"/>
<stop offset="0.578999" stop-color="#4F46E5"/>
</radialGradient>
<clipPath id="clip0_1216_2626">
<rect width="128.561" height="32" fill="white"/>
</clipPath>
<clipPath id="clip1_1216_2626">
<rect width="83.5424" height="21.0909" fill="white" transform="translate(45.0195 7.63635)"/>
</clipPath>
</defs>
</svg>
