<svg viewBox="0 0 48 48" xmlns="http://www.w3.org/2000/svg"><path d="m26.81721 6.0579518-5.977432.5722243v24.6132839l5.914217-.890396v-10.493982l7.94986 11.63921 6.232374-1.972015-8.140472-11.193509 8.204242-10.5576331-6.359358-1.46211-7.886507 10.5571941zm-13.549395 5.9978532c-.0675.0071-.132687.03685-.183377.08773l-2.346015 2.345604c-.09864.09893-.11722.252309-.0445.372086l2.746696 4.523795c-.487167.819006-.877623 1.70206-1.156683 2.633586l-5.0425552 1.048867c-.1402951.029055-.2413813.153367-.2413813.297337v3.317296c0 .140314.095983.261806.2311699.294475l4.8943156 1.196322c.260998 1.07887.665445 2.101628 1.199988 3.041644l-2.832973 4.319972c-.07904.120754-.06252.279776.0396.381468l2.345182 2.345604c.09864.09836.252621.117637.372908.04535l4.43931-2.696114c.872008.503187 1.812374.899183 2.806296 1.16772l1.035783 4.980041c.02915.141164.153885.241396.296928.241396h3.317709c.139477 0 .261191-.09524.294481-.232013l1.219994-4.990317c1.024557-.276502 1.993542-.688627 2.886878-1.21469l4.374709 2.868406c.120287.07923.279379.06335.38148-.03869l2.346016-2.34559c.09924-.09921.117013-.252607.04409-.372072l-1.597029-2.631956-.516676.163387c-.07532.02381-.157452-.0043-.201758-.06987 0 0-1.01864-1.491165-2.334206-3.41665-1.572715 3.077927-4.772331 5.186372-8.467241 5.186372-5.249568 0-9.505489-4.256079-9.505489-9.505904 0-3.861926 2.303503-7.183248 5.610236-8.671068v-2.452313c-.601827.210541-1.183648.464396-1.73624.765418-.000404-.000369-.000809-.0014-.0024-.0028l-4.477658-2.936763c-.0603-.0394-.130199-.05513-.197673-.04819z" fill="#1d99f3"/></svg>
