<?xml version="1.0" encoding="UTF-8" standalone="no"?>
<!-- Created with Inkscape (http://www.inkscape.org/) -->

<svg
   version="1.1"
   id="svg1"
   width="536.25336"
   height="251.41333"
   viewBox="0 0 536.25336 251.41333"
   sodipodi:docname="lu-cix.svg"
   inkscape:version="1.4.2 (ebf0e940, 2025-05-08)"
   xmlns:inkscape="http://www.inkscape.org/namespaces/inkscape"
   xmlns:sodipodi="http://sodipodi.sourceforge.net/DTD/sodipodi-0.dtd"
   xmlns="http://www.w3.org/2000/svg"
   xmlns:svg="http://www.w3.org/2000/svg">
  <defs
     id="defs1" />
  <sodipodi:namedview
     id="namedview1"
     pagecolor="#ffffff"
     bordercolor="#000000"
     borderopacity="0.25"
     inkscape:showpageshadow="2"
     inkscape:pageopacity="0.0"
     inkscape:pagecheckerboard="0"
     inkscape:deskcolor="#d1d1d1"
     inkscape:zoom="1.5403167"
     inkscape:cx="267.80207"
     inkscape:cy="125.94812"
     inkscape:window-width="1896"
     inkscape:window-height="1003"
     inkscape:window-x="12"
     inkscape:window-y="37"
     inkscape:window-maximized="0"
     inkscape:current-layer="g1">
    <inkscape:page
       x="0"
       y="0"
       inkscape:label="1"
       id="page1"
       width="536.25336"
       height="251.41333"
       margin="0"
       bleed="0" />
  </sodipodi:namedview>
  <g
     id="g1"
     inkscape:groupmode="layer"
     inkscape:label="1">
    <g
       id="group-R5">
      <path
         id="path2"
         d="m 1826.92,1034.13 c 0,417.25 153.55,561.46 428.03,561.46 122.59,0 218.69,-34.11 277.67,-83.71 l -91.5,-176.81 c -48.15,40.31 -105.43,63.54 -173.67,63.54 -150.49,0 -184.63,-68.21 -184.63,-350.51 0,-300.862 54.31,-373.78 186.09,-373.78 77.58,0 135.02,29.481 179.92,76 l 100.84,-169 c -65.15,-58.949 -148.94,-103.929 -290.02,-103.929 -296.19,0 -432.73,167.5 -432.73,556.739"
         style="fill:#ed1c24;fill-opacity:1;fill-rule:nonzero;stroke:none"
         transform="matrix(0.13333333,0,0,-0.13333333,0,251.41333)" />
      <path
         id="path3"
         d="m 2687.96,1575.41 h 235.76 V 497.531 H 2687.96 V 1575.41"
         style="fill:#ed1c24;fill-opacity:1;fill-rule:nonzero;stroke:none"
         transform="matrix(0.13333333,0,0,-0.13333333,0,251.41333)" />
      <path
         id="path4"
         d="m 3356.32,1065.19 -260.51,510.22 h 269.84 l 127.2,-302.44 271.57,612.6 h 257.47 l -408.11,-807.96 296.23,-580.079 h -269.84 l -164.34,370.68 -360.48,-699.102 h -257.47 l 498.44,896.081"
         style="fill:#00adef;fill-opacity:1;fill-rule:nonzero;stroke:none"
         transform="matrix(0.13333333,0,0,-0.13333333,0,251.41333)" />
      <path
         id="path5"
         d="M 0,1576.13 H 229.551 V 696.73 H 559.906 V 498.211 H 0 V 1576.13"
         style="fill:#656263;fill-opacity:1;fill-rule:nonzero;stroke:none"
         transform="matrix(0.13333333,0,0,-0.13333333,0,251.41333)" />
      <path
         id="path6"
         d="M 623.316,845.672 V 1576.13 H 855.992 V 839.461 c 0,-120.973 34.063,-169.121 134.863,-169.121 100.875,0 134.945,49.691 134.945,170.66 v 735.13 h 232.7 V 848.762 c 0,-285.391 -169.07,-370.692 -369.223,-370.692 -201.566,0 -365.961,83.789 -365.961,367.602"
         style="fill:#656263;fill-opacity:1;fill-rule:nonzero;stroke:none"
         transform="matrix(0.13333333,0,0,-0.13333333,0,251.41333)" />
      <path
         id="path7"
         d="m 1763.25,920.906 h -341.14 v 220.054 h 341.14 V 920.906"
         style="fill:#656263;fill-opacity:1;fill-rule:nonzero;stroke:none"
         transform="matrix(0.13333333,0,0,-0.13333333,0,251.41333)" />
      <path
         id="path8"
         d="m 3457.39,123.309 c 1.48,-4.821 2.21,-9.61 2.21,-14.399 0,-21.0311 -10.71,-41.8514 -32.09,-62.4803 -17.68,-17.3399 -34.64,-28.2188 -50.86,-32.668 -14.38,-4.02342 -27.47,-6.06248 -39.26,-6.06248 -20.3,0 -37.98,5.73048 -53.1,17.17188 -24.33,18.3984 -36.68,46.7773 -37.06,85.1409 -0.35,54.199 20.48,107.277 62.51,159.258 36.5,44.64 73.36,73.019 110.61,85.191 15.1,4.769 28.19,7.187 39.25,7.187 15.85,0 29.88,-5.16 42.04,-15.468 16.59,-15.141 24.87,-32.828 24.87,-53.121 0,-9.219 -2.2,-19.008 -6.62,-29.278 -7.02,-15.883 -14.19,-33.582 -21.57,-53.109 -1.47,-3.692 -3.52,-5.543 -6.1,-5.543 -1.84,0 -3.67,0.91 -5.52,2.793 -11.44,7.707 -17.13,19.16 -17.13,34.297 0,5.48 0.89,11.582 2.76,18.203 1.46,5.148 5.34,16.066 11.61,32.637 5.16,12.531 7.73,21.75 7.73,27.671 0,9.551 -5.15,14.379 -15.46,14.379 -17.34,0 -40.39,-10.359 -69.15,-30.98 -32.07,-22.848 -58.61,-50.328 -79.63,-82.399 -28.02,-43.128 -42.02,-86.839 -42.02,-131.0581 0,-25.4531 4.77,-42.8125 14.37,-51.9922 6.27,-5.8984 14.19,-8.8477 23.79,-8.8477 16.94,0 35.46,8.3594 55.58,25.1563 20.08,16.7812 36.59,38.0508 49.48,63.8707 -22.49,-4.07 -38.71,-6.621 -48.65,-7.757 -25.82,-2.563 -43.52,6.289 -53.1,26.578 -2.95,5.859 -1.1,8.851 5.54,8.851 15.11,0 36.11,2.367 63.04,7.188 26.9,4.781 45.51,7.383 55.84,7.75 25.07,0.34 41.86,-9.078 50.34,-28.239 1.46,-3.3 1.83,-5.718 1.1,-7.191 -1.1,-1.457 -3.33,-2.027 -6.64,-1.641 -9.22,1.082 -22.12,0.711 -38.71,-1.089"
         style="fill:#656263;fill-opacity:1;fill-rule:nonzero;stroke:none"
         transform="matrix(0.13333333,0,0,-0.13333333,0,251.41333)" />
      <path
         id="path9"
         d="m 3457.39,123.309 c 1.48,-4.821 2.21,-9.61 2.21,-14.399 0,-21.0311 -10.71,-41.8514 -32.09,-62.4803 -17.68,-17.3399 -34.64,-28.2188 -50.86,-32.668 -14.38,-4.02342 -27.47,-6.06248 -39.26,-6.06248 -20.3,0 -37.98,5.73048 -53.1,17.17188 -24.33,18.3984 -36.68,46.7773 -37.06,85.1409 -0.35,54.199 20.48,107.277 62.51,159.258 36.5,44.64 73.36,73.019 110.61,85.191 15.1,4.769 28.19,7.187 39.25,7.187 15.85,0 29.88,-5.16 42.04,-15.468 16.59,-15.141 24.87,-32.828 24.87,-53.121 0,-9.219 -2.2,-19.008 -6.62,-29.278 -7.02,-15.883 -14.19,-33.582 -21.57,-53.109 -1.47,-3.692 -3.52,-5.543 -6.1,-5.543 -1.84,0 -3.67,0.91 -5.52,2.793 -11.44,7.707 -17.13,19.16 -17.13,34.297 0,5.48 0.89,11.582 2.76,18.203 1.46,5.148 5.34,16.066 11.61,32.637 5.16,12.531 7.73,21.75 7.73,27.671 0,9.551 -5.15,14.379 -15.46,14.379 -17.34,0 -40.39,-10.359 -69.15,-30.98 -32.07,-22.848 -58.61,-50.328 -79.63,-82.399 -28.02,-43.128 -42.02,-86.839 -42.02,-131.0581 0,-25.4531 4.77,-42.8125 14.37,-51.9922 6.27,-5.8984 14.19,-8.8477 23.79,-8.8477 16.94,0 35.46,8.3594 55.58,25.1563 20.08,16.7812 36.59,38.0508 49.48,63.8707 -22.49,-4.07 -38.71,-6.621 -48.65,-7.757 -25.82,-2.563 -43.52,6.289 -53.1,26.578 -2.95,5.859 -1.1,8.851 5.54,8.851 15.11,0 36.11,2.367 63.04,7.188 26.9,4.781 45.51,7.383 55.84,7.75 25.07,0.34 41.86,-9.078 50.34,-28.239 1.46,-3.3 1.83,-5.718 1.1,-7.191 -1.1,-1.457 -3.33,-2.027 -6.64,-1.641 -9.22,1.082 -22.12,0.711 -38.71,-1.089 z"
         style="fill:none;stroke:#656263;stroke-width:12.0474;stroke-linecap:butt;stroke-linejoin:miter;stroke-miterlimit:10;stroke-dasharray:none;stroke-opacity:1"
         transform="matrix(0.13333333,0,0,-0.13333333,0,251.41333)" />
      <path
         id="path10"
         d="m 3654.83,358.332 c 2.21,3.316 4.42,4.977 6.62,4.977 7.36,0 11.07,-8.887 11.07,-26.579 0,-17.742 -7.02,-38.968 -21.02,-63.691 -29.13,-51.348 -50.87,-90.488 -65.25,-117.449 -29.52,-54.27 -52.92,-101.1681 -70.24,-140.6994 -2.22,-4.7812 -5.18,-5.15232 -8.85,-1.1289 -5.89,6.6797 -8.84,15.8985 -8.84,27.7071 0,9.9804 2.2,21.2304 6.63,33.7929 12.91,36.1873 35.75,84.7503 68.57,145.6873 30.61,57.61 57.69,103.391 81.31,137.383"
         style="fill:#656263;fill-opacity:1;fill-rule:nonzero;stroke:none"
         transform="matrix(0.13333333,0,0,-0.13333333,0,251.41333)" />
      <path
         id="path11"
         d="m 3654.83,358.332 c 2.21,3.316 4.42,4.977 6.62,4.977 7.36,0 11.07,-8.887 11.07,-26.579 0,-17.742 -7.02,-38.968 -21.02,-63.691 -29.13,-51.348 -50.87,-90.488 -65.25,-117.449 -29.52,-54.27 -52.92,-101.1681 -70.24,-140.6994 -2.22,-4.7812 -5.18,-5.15232 -8.85,-1.1289 -5.89,6.6797 -8.84,15.8985 -8.84,27.7071 0,9.9804 2.2,21.2304 6.63,33.7929 12.91,36.1873 35.75,84.7503 68.57,145.6873 30.61,57.61 57.69,103.391 81.31,137.383 z"
         style="fill:none;stroke:#656263;stroke-width:12.0474;stroke-linecap:butt;stroke-linejoin:miter;stroke-miterlimit:10;stroke-dasharray:none;stroke-opacity:1"
         transform="matrix(0.13333333,0,0,-0.13333333,0,251.41333)" />
      <path
         id="path12"
         d="m 3727.29,307.449 c -11.82,4.77 -19.56,14.18 -23.24,28.223 -0.75,2.558 -0.65,4.34 0.26,5.238 0.92,0.899 2.86,1.379 5.81,1.379 17.72,-1.129 42.59,0.731 74.66,5.531 35.4,5.551 56.41,8.282 63.06,8.282 21.37,0.386 35.38,-8.653 42.02,-27.09 0.73,-2.563 0.73,-4.41 0,-5.524 -1.1,-1.488 -3.13,-2.058 -6.08,-1.668 -16.6,0.379 -36.14,-1.281 -58.61,-4.98 -17.7,-3.301 -35.6,-6.621 -53.65,-9.918 -16.96,-25.453 -42.4,-68.961 -76.32,-130.543 12.89,2.223 25.99,3.691 39.26,4.391 24.33,1.128 39.46,-7.149 45.36,-24.86 1.83,-5.551 0,-8.281 -5.54,-8.281 -26.93,0 -61.03,-5.16 -102.3,-15.469 -17.34,-33.2108 -31.53,-62.3514 -42.6,-87.41 33.18,10.3203 61.76,16.0391 85.73,17.1484 25.07,1.1016 40.72,-6.9882 47.01,-24.3476 1.1,-2.5625 1.28,-4.5899 0.55,-6.0625 -1.11,-1.5 -3.14,-2.2188 -6.1,-2.2188 -24.69,0.3907 -65.43,-7 -122.2,-22.12887 -10.33,-2.5586 -18.07,-0.71094 -23.24,5.53907 -1.47,1.4687 -5.32,8.3086 -11.59,20.4687 -4.45,8.0899 -4.26,18.6016 0.54,31.5118 26.9,72.6488 69.3,153.5698 127.21,242.7888"
         style="fill:#656263;fill-opacity:1;fill-rule:nonzero;stroke:none"
         transform="matrix(0.13333333,0,0,-0.13333333,0,251.41333)" />
      <path
         id="path13"
         d="m 3727.29,307.449 c -11.82,4.77 -19.56,14.18 -23.24,28.223 -0.75,2.558 -0.65,4.34 0.26,5.238 0.92,0.899 2.86,1.379 5.81,1.379 17.72,-1.129 42.59,0.731 74.66,5.531 35.4,5.551 56.41,8.282 63.06,8.282 21.37,0.386 35.38,-8.653 42.02,-27.09 0.73,-2.563 0.73,-4.41 0,-5.524 -1.1,-1.488 -3.13,-2.058 -6.08,-1.668 -16.6,0.379 -36.14,-1.281 -58.61,-4.98 -17.7,-3.301 -35.6,-6.621 -53.65,-9.918 -16.96,-25.453 -42.4,-68.961 -76.32,-130.543 12.89,2.223 25.99,3.691 39.26,4.391 24.33,1.128 39.46,-7.149 45.36,-24.86 1.83,-5.551 0,-8.281 -5.54,-8.281 -26.93,0 -61.03,-5.16 -102.3,-15.469 -17.34,-33.2108 -31.53,-62.3514 -42.6,-87.41 33.18,10.3203 61.76,16.0391 85.73,17.1484 25.07,1.1016 40.72,-6.9882 47.01,-24.3476 1.1,-2.5625 1.28,-4.5899 0.55,-6.0625 -1.11,-1.5 -3.14,-2.2188 -6.1,-2.2188 -24.69,0.3907 -65.43,-7 -122.2,-22.12887 -10.33,-2.5586 -18.07,-0.71094 -23.24,5.53907 -1.47,1.4687 -5.32,8.3086 -11.59,20.4687 -4.45,8.0899 -4.26,18.6016 0.54,31.5118 26.9,72.6488 69.3,153.5698 127.21,242.7888 z"
         style="fill:none;stroke:#656263;stroke-width:12.0474;stroke-linecap:butt;stroke-linejoin:miter;stroke-miterlimit:10;stroke-dasharray:none;stroke-opacity:1"
         transform="matrix(0.13333333,0,0,-0.13333333,0,251.41333)" />
    </g>
  </g>
</svg>
