<svg xmlns="http://www.w3.org/2000/svg" xmlns:xlink="http://www.w3.org/1999/xlink" width="500" zoomAndPan="magnify" viewBox="0 0 375 374.999991" height="500" preserveAspectRatio="xMidYMid meet" version="1.0"><defs><g/><clipPath id="289cd8c5d5"><path d="M 11.25 0 L 363.75 0 C 366.734375 0 369.59375 1.183594 371.703125 3.296875 C 373.816406 5.40625 375 8.265625 375 11.25 L 375 363.75 C 375 366.734375 373.816406 369.59375 371.703125 371.703125 C 369.59375 373.816406 366.734375 375 363.75 375 L 11.25 375 C 5.035156 375 0 369.964844 0 363.75 L 0 11.25 C 0 5.035156 5.035156 0 11.25 0 Z M 11.25 0 " clip-rule="nonzero"/></clipPath><clipPath id="924b3121d7"><path d="M 0 0 L 375 0 L 375 375 L 0 375 Z M 0 0 " clip-rule="nonzero"/></clipPath><clipPath id="315c1d014d"><path d="M 11.25 0 L 363.75 0 C 366.734375 0 369.59375 1.183594 371.703125 3.296875 C 373.816406 5.40625 375 8.265625 375 11.25 L 375 363.75 C 375 366.734375 373.816406 369.59375 371.703125 371.703125 C 369.59375 373.816406 366.734375 375 363.75 375 L 11.25 375 C 5.035156 375 0 369.964844 0 363.75 L 0 11.25 C 0 5.035156 5.035156 0 11.25 0 Z M 11.25 0 " clip-rule="nonzero"/></clipPath><clipPath id="1013c09e56"><rect x="0" width="375" y="0" height="375"/></clipPath><clipPath id="e6e2ff6ccb"><path d="M 122 37.5 L 194 37.5 L 194 108 L 122 108 Z M 122 37.5 " clip-rule="nonzero"/></clipPath></defs><g clip-path="url(#289cd8c5d5)"><g transform="matrix(1, 0, 0, 1, 0, 0)"><g clip-path="url(#1013c09e56)"><g clip-path="url(#924b3121d7)"><g clip-path="url(#315c1d014d)"><rect x="-82.5" width="540" fill="#2b293d" height="539.999987" y="-82.499998" fill-opacity="1"/></g></g></g></g></g><path fill="#a098e3" d="M 314.976562 173.609375 C 310.570312 183.257812 305.09375 192.261719 298.554688 200.617188 C 292.015625 208.972656 284.589844 216.449219 276.28125 223.046875 L 274.1875 224.597656 C 246.316406 224.910156 223.574219 224.804688 218.570312 223.945312 C 203.640625 221.328125 162.285156 199.929688 193.441406 184.328125 C 193.441406 184.328125 198.949219 183.367188 207.429688 182.066406 L 211.410156 181.460938 C 228.875 178.90625 255.382812 175.597656 273.832031 175.953125 C 296.214844 176.394531 305.136719 172.957031 314.976562 173.609375 Z M 314.976562 173.609375 " fill-opacity="1" fill-rule="nonzero"/><path fill="#847ebb" d="M 302.914062 194.546875 C 295.421875 205.339844 286.523438 214.8125 276.21875 222.960938 L 274.125 224.511719 C 263.957031 232.292969 252.894531 238.460938 240.933594 243.023438 C 228.371094 241.722656 214.132812 240.132812 199.746094 238.3125 C 161.550781 233.640625 122.835938 227.527344 117.222656 222.3125 C 110.648438 216.03125 129.242188 198.296875 144.988281 185.125 C 149.175781 181.691406 152.96875 178.570312 156.191406 176.058594 C 156.945312 175.472656 179.601562 177.753906 204.625 180.644531 L 211.429688 181.4375 C 235.785156 184.328125 260.660156 187.574219 268.660156 189.1875 C 283.042969 192.078125 286.6875 192.328125 302.914062 194.546875 Z M 302.914062 194.546875 " fill-opacity="1" fill-rule="nonzero"/><path fill="#666699" d="M 276.28125 223.046875 L 274.1875 224.597656 C 264.023438 232.375 252.957031 238.546875 240.996094 243.105469 C 231.640625 246.679688 222 249.160156 212.078125 250.539062 C 205.878906 251.425781 199.644531 251.867188 193.378906 251.859375 C 191.394531 251.859375 189.40625 251.8125 187.421875 251.722656 C 185.4375 251.632812 183.457031 251.5 181.476562 251.320312 C 179.496094 251.140625 177.523438 250.917969 175.554688 250.652344 C 173.585938 250.386719 171.625 250.074219 169.667969 249.722656 C 167.714844 249.367188 165.765625 248.96875 163.828125 248.527344 C 161.890625 248.085938 159.964844 247.601562 158.050781 247.078125 C 156.132812 246.550781 154.230469 245.980469 152.339844 245.367188 C 150.449219 244.753906 148.574219 244.101562 146.714844 243.40625 C 144.851562 242.707031 143.007812 241.972656 141.179688 241.191406 C 139.351562 240.414062 137.542969 239.597656 135.75 238.738281 C 133.957031 237.878906 132.1875 236.980469 130.433594 236.039062 C 128.683594 235.101562 126.953125 234.125 125.246094 233.109375 C 123.539062 232.09375 121.855469 231.039062 120.195312 229.949219 C 118.53125 228.859375 116.898438 227.730469 115.285156 226.566406 C 113.675781 225.402344 112.09375 224.203125 110.535156 222.96875 C 108.980469 221.734375 107.449219 220.464844 105.949219 219.164062 C 104.449219 217.859375 102.980469 216.523438 101.539062 215.15625 C 100.097656 213.789062 98.691406 212.386719 97.3125 210.957031 C 95.933594 209.523438 94.589844 208.0625 93.277344 206.570312 C 91.964844 205.078125 90.683594 203.558594 89.441406 202.011719 C 88.195312 200.460938 86.984375 198.886719 85.8125 197.28125 C 84.636719 195.679688 83.5 194.050781 82.398438 192.398438 C 81.296875 190.746094 80.230469 189.066406 79.203125 187.367188 C 78.179688 185.664062 77.191406 183.941406 76.242188 182.195312 C 75.289062 180.449219 74.378906 178.683594 73.507812 176.898438 C 72.636719 175.113281 71.808594 173.308594 71.019531 171.484375 C 70.226562 169.664062 69.476562 167.824219 68.769531 165.964844 C 68.0625 164.109375 67.394531 162.238281 66.769531 160.351562 C 66.148438 158.464844 65.566406 156.566406 65.023438 154.652344 C 64.484375 152.742188 63.988281 150.816406 63.535156 148.882812 C 63.082031 146.949219 62.671875 145.003906 62.304688 143.054688 C 61.9375 141.101562 61.613281 139.140625 61.335938 137.171875 C 70.277344 137.632812 103.402344 149.902344 103.402344 149.902344 C 103.402344 149.902344 111.359375 151.265625 121.976562 153.527344 C 135.546875 156.417969 153.511719 160.75 164.441406 165.503906 C 181.90625 173.085938 191.539062 174.363281 204.625 180.644531 C 205.546875 181.0625 206.445312 181.542969 207.429688 182.046875 C 208.015625 182.339844 208.605469 182.675781 209.210938 183.007812 C 224.789062 191.386719 216.332031 178.675781 241.019531 196.097656 C 262.796875 211.488281 266.398438 216.324219 276.28125 223.046875 Z M 276.28125 223.046875 " fill-opacity="1" fill-rule="nonzero"/><path fill="#58547d" d="M 212.164062 250.539062 C 205.960938 251.425781 199.730469 251.867188 193.464844 251.859375 C 191.476562 251.859375 189.488281 251.816406 187.503906 251.726562 C 185.519531 251.636719 183.535156 251.503906 181.554688 251.328125 C 179.574219 251.148438 177.601562 250.929688 175.628906 250.664062 C 173.660156 250.398438 171.695312 250.089844 169.742188 249.734375 C 167.785156 249.382812 165.835938 248.984375 163.898438 248.542969 C 161.960938 248.105469 160.03125 247.621094 158.117188 247.09375 C 156.199219 246.566406 154.292969 246 152.402344 245.386719 C 150.511719 244.777344 148.632812 244.121094 146.773438 243.425781 C 144.910156 242.730469 143.0625 241.996094 141.234375 241.214844 C 139.40625 240.4375 137.59375 239.621094 135.800781 238.761719 C 134.007812 237.902344 132.238281 237.003906 130.484375 236.066406 C 128.730469 235.128906 127 234.152344 125.292969 233.136719 C 123.582031 232.121094 121.898438 231.066406 120.234375 229.976562 C 118.574219 228.886719 116.9375 227.757812 115.324219 226.59375 C 113.714844 225.429688 112.128906 224.230469 110.570312 222.996094 C 109.011719 221.761719 107.484375 220.492188 105.980469 219.191406 C 104.480469 217.886719 103.011719 216.550781 101.566406 215.183594 C 100.125 213.8125 98.714844 212.414062 97.335938 210.980469 C 95.957031 209.550781 94.613281 208.089844 93.296875 206.597656 C 91.984375 205.105469 90.707031 203.582031 89.460938 202.035156 C 88.214844 200.484375 87.003906 198.910156 85.828125 197.304688 C 84.652344 195.703125 83.515625 194.074219 82.410156 192.417969 C 81.308594 190.765625 80.246094 189.085938 79.21875 187.386719 C 78.191406 185.683594 77.199219 183.960938 76.25 182.214844 C 75.300781 180.46875 74.390625 178.703125 73.515625 176.914062 C 72.644531 175.128906 71.816406 173.324219 71.023438 171.5 C 70.234375 169.675781 69.484375 167.835938 68.773438 165.976562 C 68.066406 164.121094 67.398438 162.25 66.773438 160.363281 C 66.148438 158.476562 65.566406 156.574219 65.027344 154.660156 C 64.488281 152.75 63.992188 150.824219 63.535156 148.890625 C 63.082031 146.953125 62.671875 145.007812 62.304688 143.054688 C 61.9375 141.101562 61.613281 139.140625 61.335938 137.171875 C 60.46875 131.117188 60.03125 125.03125 60.015625 118.914062 C 72.578125 120.527344 93.6875 125.320312 109.078125 139.519531 C 113.761719 143.835938 118.058594 148.503906 121.976562 153.527344 C 130.625 164.519531 136.277344 175.15625 145.011719 185.125 C 149.546875 190.335938 154.632812 194.933594 160.273438 198.925781 C 184.921875 216.472656 185.925781 222.3125 198.574219 236.929688 C 199.011719 237.433594 199.433594 237.914062 199.914062 238.394531 C 203.742188 242.699219 207.824219 246.746094 212.164062 250.539062 Z M 212.164062 250.539062 " fill-opacity="1" fill-rule="nonzero"/><g clip-path="url(#e6e2ff6ccb)"><path fill="#d9d9d9" d="M 193.464844 86.207031 C 193.160156 86.882812 192.835938 87.550781 192.492188 88.207031 C 192.144531 88.867188 191.78125 89.511719 191.398438 90.148438 C 191.015625 90.785156 190.613281 91.40625 190.191406 92.019531 C 189.769531 92.628906 189.332031 93.226562 188.871094 93.8125 C 188.414062 94.398438 187.941406 94.96875 187.449219 95.523438 C 186.957031 96.082031 186.449219 96.621094 185.921875 97.148438 C 185.398438 97.671875 184.859375 98.179688 184.304688 98.675781 C 183.746094 99.167969 183.179688 99.640625 182.59375 100.101562 C 182.007812 100.558594 181.410156 101 180.800781 101.421875 C 180.191406 101.84375 179.566406 102.246094 178.933594 102.632812 C 178.296875 103.015625 177.652344 103.382812 176.992188 103.726562 C 176.335938 104.070312 175.667969 104.398438 174.992188 104.703125 C 174.316406 105.007812 173.628906 105.292969 172.9375 105.554688 C 172.242188 105.820312 171.539062 106.0625 170.832031 106.285156 C 170.121094 106.503906 169.40625 106.703125 168.6875 106.882812 C 167.964844 107.0625 167.242188 107.21875 166.511719 107.351562 C 165.78125 107.484375 165.046875 107.597656 164.308594 107.6875 C 163.570312 107.777344 162.832031 107.84375 162.09375 107.890625 C 161.351562 107.9375 160.609375 107.957031 159.867188 107.957031 C 159.125 107.960938 158.382812 107.9375 157.640625 107.894531 C 156.898438 107.847656 156.160156 107.78125 155.421875 107.691406 C 154.6875 107.601562 153.953125 107.492188 153.222656 107.359375 C 152.492188 107.226562 151.765625 107.070312 151.042969 106.890625 C 150.324219 106.714844 149.609375 106.515625 148.898438 106.296875 C 148.191406 106.074219 147.488281 105.832031 146.792969 105.570312 C 146.101562 105.308594 145.414062 105.023438 144.738281 104.71875 C 144.058594 104.414062 143.390625 104.089844 142.734375 103.746094 C 142.078125 103.402344 141.429688 103.035156 140.796875 102.652344 C 140.160156 102.269531 139.535156 101.867188 138.925781 101.445312 C 138.3125 101.023438 137.714844 100.582031 137.128906 100.125 C 136.546875 99.667969 135.976562 99.195312 135.417969 98.703125 C 134.863281 98.210938 134.324219 97.699219 133.796875 97.175781 C 133.273438 96.652344 132.761719 96.109375 132.269531 95.554688 C 131.777344 95 131.304688 94.429688 130.84375 93.84375 C 130.386719 93.261719 129.945312 92.664062 129.523438 92.050781 C 129.101562 91.441406 128.699219 90.820312 128.316406 90.183594 C 127.929688 89.546875 127.566406 88.902344 127.21875 88.246094 C 126.875 87.585938 126.550781 86.917969 126.246094 86.242188 C 125.941406 85.566406 125.65625 84.878906 125.390625 84.1875 C 125.128906 83.492188 124.886719 82.789062 124.664062 82.082031 C 124.445312 81.371094 124.242188 80.65625 124.066406 79.9375 C 123.886719 79.214844 123.730469 78.492188 123.597656 77.761719 C 123.464844 77.03125 123.351562 76.296875 123.261719 75.558594 C 123.171875 74.820312 123.105469 74.082031 123.058594 73.34375 C 123.015625 72.601562 122.992188 71.859375 122.992188 71.117188 C 122.992188 70.375 123.015625 69.632812 123.058594 68.890625 C 123.101562 68.148438 123.171875 67.410156 123.257812 66.671875 C 123.347656 65.9375 123.460938 65.203125 123.59375 64.472656 C 123.726562 63.742188 123.882812 63.015625 124.0625 62.296875 C 124.238281 61.574219 124.4375 60.859375 124.65625 60.148438 C 124.878906 59.441406 125.121094 58.738281 125.382812 58.046875 C 125.648438 57.351562 125.929688 56.664062 126.234375 55.988281 C 126.539062 55.3125 126.863281 54.644531 127.210938 53.984375 C 127.554688 53.328125 127.917969 52.683594 128.304688 52.046875 C 128.6875 51.410156 129.089844 50.789062 129.511719 50.175781 C 129.933594 49.566406 130.371094 48.96875 130.832031 48.382812 C 131.289062 47.796875 131.761719 47.226562 132.257812 46.671875 C 132.75 46.117188 133.257812 45.574219 133.78125 45.050781 C 134.308594 44.523438 134.847656 44.015625 135.402344 43.523438 C 135.957031 43.03125 136.527344 42.554688 137.113281 42.097656 C 137.699219 41.640625 138.296875 41.199219 138.90625 40.777344 C 139.515625 40.355469 140.140625 39.953125 140.777344 39.570312 C 141.410156 39.183594 142.058594 38.820312 142.714844 38.476562 C 143.371094 38.128906 144.039062 37.804688 144.714844 37.5 C 144.402344 38.199219 144.113281 38.90625 143.84375 39.621094 C 143.574219 40.339844 143.328125 41.0625 143.105469 41.792969 C 142.882812 42.527344 142.679688 43.265625 142.503906 44.007812 C 142.324219 44.753906 142.171875 45.5 142.039062 46.253906 C 141.910156 47.007812 141.800781 47.765625 141.714844 48.527344 C 141.632812 49.289062 141.574219 50.050781 141.535156 50.8125 C 141.5 51.578125 141.488281 52.34375 141.496094 53.109375 C 141.507812 53.875 141.542969 54.636719 141.601562 55.398438 C 141.660156 56.164062 141.742188 56.921875 141.847656 57.679688 C 141.953125 58.4375 142.085938 59.191406 142.238281 59.941406 C 142.390625 60.691406 142.566406 61.4375 142.765625 62.175781 C 142.964844 62.914062 143.1875 63.644531 143.429688 64.371094 C 143.675781 65.097656 143.941406 65.8125 144.230469 66.519531 C 144.519531 67.230469 144.832031 67.925781 145.164062 68.617188 C 145.496094 69.304688 145.851562 69.984375 146.226562 70.652344 C 146.601562 71.316406 146.996094 71.972656 147.414062 72.613281 C 147.828125 73.257812 148.265625 73.886719 148.71875 74.5 C 149.175781 75.117188 149.648438 75.714844 150.140625 76.300781 C 150.632812 76.886719 151.140625 77.457031 151.671875 78.011719 C 152.199219 78.566406 152.742188 79.101562 153.304688 79.625 C 153.863281 80.144531 154.441406 80.644531 155.035156 81.128906 C 155.625 81.613281 156.234375 82.078125 156.855469 82.523438 C 157.476562 82.972656 158.113281 83.398438 158.757812 83.804688 C 159.40625 84.210938 160.066406 84.597656 160.738281 84.964844 C 161.410156 85.332031 162.09375 85.675781 162.789062 85.996094 C 163.480469 86.320312 164.183594 86.621094 164.898438 86.902344 C 165.609375 87.183594 166.328125 87.4375 167.058594 87.671875 C 167.785156 87.910156 168.519531 88.121094 169.261719 88.308594 C 170.003906 88.5 170.75 88.664062 171.5 88.804688 C 172.253906 88.949219 173.007812 89.066406 173.769531 89.164062 C 174.527344 89.257812 175.289062 89.332031 176.050781 89.378906 C 176.816406 89.425781 177.582031 89.449219 178.347656 89.453125 C 183.621094 89.460938 188.660156 88.378906 193.464844 86.207031 Z M 193.464844 86.207031 " fill-opacity="1" fill-rule="nonzero"/></g><g fill="#ffffff" fill-opacity="1"><g transform="translate(57.984122, 297.40463)"><g><path d="M 13.15625 0 L 7.390625 -18.796875 L 7.25 -18.796875 C 7.269531 -18.347656 7.300781 -17.671875 7.34375 -16.765625 C 7.394531 -15.867188 7.441406 -14.910156 7.484375 -13.890625 C 7.535156 -12.878906 7.5625 -11.960938 7.5625 -11.140625 L 7.5625 0 L 3.015625 0 L 3.015625 -23.953125 L 9.9375 -23.953125 L 15.59375 -5.640625 L 15.703125 -5.640625 L 21.71875 -23.953125 L 28.625 -23.953125 L 28.625 0 L 23.890625 0 L 23.890625 -11.34375 C 23.890625 -12.09375 23.898438 -12.957031 23.921875 -13.9375 C 23.953125 -14.925781 23.988281 -15.863281 24.03125 -16.75 C 24.082031 -17.644531 24.117188 -18.316406 24.140625 -18.765625 L 23.984375 -18.765625 L 17.8125 0 Z M 13.15625 0 "/></g></g></g><g fill="#ffffff" fill-opacity="1"><g transform="translate(95.523922, 297.40463)"><g><path d="M 24.765625 -12.015625 C 24.765625 -10.171875 24.535156 -8.488281 24.078125 -6.96875 C 23.617188 -5.457031 22.921875 -4.15625 21.984375 -3.0625 C 21.046875 -1.96875 19.863281 -1.128906 18.4375 -0.546875 C 17.007812 0.0351562 15.316406 0.328125 13.359375 0.328125 C 11.398438 0.328125 9.703125 0.0351562 8.265625 -0.546875 C 6.835938 -1.128906 5.65625 -1.96875 4.71875 -3.0625 C 3.789062 -4.15625 3.097656 -5.460938 2.640625 -6.984375 C 2.179688 -8.503906 1.953125 -10.191406 1.953125 -12.046875 C 1.953125 -14.523438 2.359375 -16.679688 3.171875 -18.515625 C 3.984375 -20.359375 5.234375 -21.789062 6.921875 -22.8125 C 8.617188 -23.832031 10.773438 -24.34375 13.390625 -24.34375 C 15.992188 -24.34375 18.132812 -23.832031 19.8125 -22.8125 C 21.488281 -21.789062 22.734375 -20.359375 23.546875 -18.515625 C 24.359375 -16.671875 24.765625 -14.503906 24.765625 -12.015625 Z M 7.28125 -12.015625 C 7.28125 -10.335938 7.488281 -8.894531 7.90625 -7.6875 C 8.320312 -6.488281 8.976562 -5.5625 9.875 -4.90625 C 10.769531 -4.257812 11.929688 -3.9375 13.359375 -3.9375 C 14.796875 -3.9375 15.960938 -4.257812 16.859375 -4.90625 C 17.753906 -5.5625 18.40625 -6.488281 18.8125 -7.6875 C 19.226562 -8.894531 19.4375 -10.335938 19.4375 -12.015625 C 19.4375 -14.523438 18.96875 -16.5 18.03125 -17.9375 C 17.09375 -19.382812 15.546875 -20.109375 13.390625 -20.109375 C 11.953125 -20.109375 10.78125 -19.78125 9.875 -19.125 C 8.976562 -18.476562 8.320312 -17.550781 7.90625 -16.34375 C 7.488281 -15.132812 7.28125 -13.691406 7.28125 -12.015625 Z M 7.28125 -12.015625 "/></g></g></g><g fill="#ffffff" fill-opacity="1"><g transform="translate(128.13267, 297.40463)"><g><path d="M 24.765625 -12.015625 C 24.765625 -10.171875 24.535156 -8.488281 24.078125 -6.96875 C 23.617188 -5.457031 22.921875 -4.15625 21.984375 -3.0625 C 21.046875 -1.96875 19.863281 -1.128906 18.4375 -0.546875 C 17.007812 0.0351562 15.316406 0.328125 13.359375 0.328125 C 11.398438 0.328125 9.703125 0.0351562 8.265625 -0.546875 C 6.835938 -1.128906 5.65625 -1.96875 4.71875 -3.0625 C 3.789062 -4.15625 3.097656 -5.460938 2.640625 -6.984375 C 2.179688 -8.503906 1.953125 -10.191406 1.953125 -12.046875 C 1.953125 -14.523438 2.359375 -16.679688 3.171875 -18.515625 C 3.984375 -20.359375 5.234375 -21.789062 6.921875 -22.8125 C 8.617188 -23.832031 10.773438 -24.34375 13.390625 -24.34375 C 15.992188 -24.34375 18.132812 -23.832031 19.8125 -22.8125 C 21.488281 -21.789062 22.734375 -20.359375 23.546875 -18.515625 C 24.359375 -16.671875 24.765625 -14.503906 24.765625 -12.015625 Z M 7.28125 -12.015625 C 7.28125 -10.335938 7.488281 -8.894531 7.90625 -7.6875 C 8.320312 -6.488281 8.976562 -5.5625 9.875 -4.90625 C 10.769531 -4.257812 11.929688 -3.9375 13.359375 -3.9375 C 14.796875 -3.9375 15.960938 -4.257812 16.859375 -4.90625 C 17.753906 -5.5625 18.40625 -6.488281 18.8125 -7.6875 C 19.226562 -8.894531 19.4375 -10.335938 19.4375 -12.015625 C 19.4375 -14.523438 18.96875 -16.5 18.03125 -17.9375 C 17.09375 -19.382812 15.546875 -20.109375 13.390625 -20.109375 C 11.953125 -20.109375 10.78125 -19.78125 9.875 -19.125 C 8.976562 -18.476562 8.320312 -17.550781 7.90625 -16.34375 C 7.488281 -15.132812 7.28125 -13.691406 7.28125 -12.015625 Z M 7.28125 -12.015625 "/></g></g></g><g fill="#ffffff" fill-opacity="1"><g transform="translate(160.741417, 297.40463)"><g><path d="M 24.265625 0 L 17.8125 0 L 7.390625 -18.125 L 7.25 -18.125 C 7.289062 -17.375 7.328125 -16.613281 7.359375 -15.84375 C 7.390625 -15.082031 7.421875 -14.320312 7.453125 -13.5625 C 7.484375 -12.800781 7.519531 -12.039062 7.5625 -11.28125 L 7.5625 0 L 3.015625 0 L 3.015625 -23.953125 L 9.421875 -23.953125 L 19.828125 -6.015625 L 19.9375 -6.015625 C 19.914062 -6.753906 19.890625 -7.488281 19.859375 -8.21875 C 19.828125 -8.957031 19.796875 -9.691406 19.765625 -10.421875 C 19.742188 -11.148438 19.722656 -11.882812 19.703125 -12.625 L 19.703125 -23.953125 L 24.265625 -23.953125 Z M 24.265625 0 "/></g></g></g><g fill="#ffffff" fill-opacity="1"><g transform="translate(193.923548, 297.40463)"><g><path d="M 3.015625 0 L 3.015625 -23.953125 L 8.09375 -23.953125 L 8.09375 -4.203125 L 17.8125 -4.203125 L 17.8125 0 Z M 3.015625 0 "/></g></g></g><g fill="#ffffff" fill-opacity="1"><g transform="translate(218.783513, 297.40463)"><g><path d="M 3.015625 0 L 3.015625 -23.953125 L 8.09375 -23.953125 L 8.09375 0 Z M 3.015625 0 "/></g></g></g><g fill="#ffffff" fill-opacity="1"><g transform="translate(235.79639, 297.40463)"><g><path d="M 12.109375 -13.453125 L 21.609375 -13.453125 L 21.609375 -1.03125 C 20.359375 -0.613281 19.054688 -0.28125 17.703125 -0.03125 C 16.347656 0.207031 14.8125 0.328125 13.09375 0.328125 C 10.707031 0.328125 8.6875 -0.140625 7.03125 -1.078125 C 5.375 -2.015625 4.113281 -3.398438 3.25 -5.234375 C 2.382812 -7.078125 1.953125 -9.335938 1.953125 -12.015625 C 1.953125 -14.523438 2.429688 -16.695312 3.390625 -18.53125 C 4.359375 -20.363281 5.773438 -21.78125 7.640625 -22.78125 C 9.503906 -23.789062 11.78125 -24.296875 14.46875 -24.296875 C 15.738281 -24.296875 16.988281 -24.160156 18.21875 -23.890625 C 19.457031 -23.617188 20.578125 -23.265625 21.578125 -22.828125 L 19.890625 -18.765625 C 19.160156 -19.140625 18.328125 -19.453125 17.390625 -19.703125 C 16.453125 -19.953125 15.46875 -20.078125 14.4375 -20.078125 C 12.957031 -20.078125 11.675781 -19.738281 10.59375 -19.0625 C 9.507812 -18.382812 8.664062 -17.4375 8.0625 -16.21875 C 7.46875 -15 7.171875 -13.5625 7.171875 -11.90625 C 7.171875 -10.351562 7.382812 -8.972656 7.8125 -7.765625 C 8.238281 -6.554688 8.910156 -5.609375 9.828125 -4.921875 C 10.742188 -4.242188 11.941406 -3.90625 13.421875 -3.90625 C 14.140625 -3.90625 14.75 -3.9375 15.25 -4 C 15.75 -4.070312 16.21875 -4.148438 16.65625 -4.234375 L 16.65625 -9.21875 L 12.109375 -9.21875 Z M 12.109375 -13.453125 "/></g></g></g><g fill="#ffffff" fill-opacity="1"><g transform="translate(265.996958, 297.40463)"><g><path d="M 22.640625 0 L 17.578125 0 L 17.578125 -10.34375 L 8.09375 -10.34375 L 8.09375 0 L 3.015625 0 L 3.015625 -23.953125 L 8.09375 -23.953125 L 8.09375 -14.5625 L 17.578125 -14.5625 L 17.578125 -23.953125 L 22.640625 -23.953125 Z M 22.640625 0 "/></g></g></g><g fill="#ffffff" fill-opacity="1"><g transform="translate(297.573631, 297.40463)"><g><path d="M 12.265625 0 L 7.171875 0 L 7.171875 -19.734375 L 0.671875 -19.734375 L 0.671875 -23.953125 L 18.765625 -23.953125 L 18.765625 -19.734375 L 12.265625 -19.734375 Z M 12.265625 0 "/></g></g></g><g fill="#ffffff" fill-opacity="1"><g transform="translate(78.667714, 337.154627)"><g><path d="M 3.015625 0 L 3.015625 -23.953125 L 8.09375 -23.953125 L 8.09375 0 Z M 3.015625 0 "/></g></g></g><g fill="#ffffff" fill-opacity="1"><g transform="translate(95.680592, 337.154627)"><g><path d="M 24.265625 0 L 17.8125 0 L 7.390625 -18.125 L 7.25 -18.125 C 7.289062 -17.375 7.328125 -16.613281 7.359375 -15.84375 C 7.390625 -15.082031 7.421875 -14.320312 7.453125 -13.5625 C 7.484375 -12.800781 7.519531 -12.039062 7.5625 -11.28125 L 7.5625 0 L 3.015625 0 L 3.015625 -23.953125 L 9.421875 -23.953125 L 19.828125 -6.015625 L 19.9375 -6.015625 C 19.914062 -6.753906 19.890625 -7.488281 19.859375 -8.21875 C 19.828125 -8.957031 19.796875 -9.691406 19.765625 -10.421875 C 19.742188 -11.148438 19.722656 -11.882812 19.703125 -12.625 L 19.703125 -23.953125 L 24.265625 -23.953125 Z M 24.265625 0 "/></g></g></g><g fill="#ffffff" fill-opacity="1"><g transform="translate(128.862722, 337.154627)"><g><path d="M 17.15625 -6.65625 C 17.15625 -5.226562 16.8125 -3.988281 16.125 -2.9375 C 15.4375 -1.894531 14.429688 -1.085938 13.109375 -0.515625 C 11.796875 0.046875 10.203125 0.328125 8.328125 0.328125 C 7.492188 0.328125 6.679688 0.269531 5.890625 0.15625 C 5.097656 0.0507812 4.335938 -0.101562 3.609375 -0.3125 C 2.890625 -0.53125 2.203125 -0.796875 1.546875 -1.109375 L 1.546875 -5.828125 C 2.679688 -5.328125 3.859375 -4.875 5.078125 -4.46875 C 6.304688 -4.070312 7.519531 -3.875 8.71875 -3.875 C 9.550781 -3.875 10.21875 -3.976562 10.71875 -4.1875 C 11.226562 -4.40625 11.597656 -4.707031 11.828125 -5.09375 C 12.054688 -5.476562 12.171875 -5.914062 12.171875 -6.40625 C 12.171875 -7.007812 11.96875 -7.523438 11.5625 -7.953125 C 11.164062 -8.378906 10.613281 -8.773438 9.90625 -9.140625 C 9.195312 -9.515625 8.398438 -9.914062 7.515625 -10.34375 C 6.960938 -10.601562 6.359375 -10.921875 5.703125 -11.296875 C 5.046875 -11.671875 4.421875 -12.128906 3.828125 -12.671875 C 3.242188 -13.222656 2.757812 -13.890625 2.375 -14.671875 C 2 -15.453125 1.8125 -16.390625 1.8125 -17.484375 C 1.8125 -18.910156 2.140625 -20.132812 2.796875 -21.15625 C 3.453125 -22.175781 4.390625 -22.953125 5.609375 -23.484375 C 6.828125 -24.023438 8.269531 -24.296875 9.9375 -24.296875 C 11.175781 -24.296875 12.359375 -24.148438 13.484375 -23.859375 C 14.617188 -23.578125 15.804688 -23.160156 17.046875 -22.609375 L 15.40625 -18.671875 C 14.300781 -19.117188 13.3125 -19.460938 12.4375 -19.703125 C 11.5625 -19.953125 10.671875 -20.078125 9.765625 -20.078125 C 9.128906 -20.078125 8.585938 -19.972656 8.140625 -19.765625 C 7.691406 -19.566406 7.351562 -19.285156 7.125 -18.921875 C 6.894531 -18.554688 6.78125 -18.132812 6.78125 -17.65625 C 6.78125 -17.082031 6.945312 -16.601562 7.28125 -16.21875 C 7.613281 -15.832031 8.113281 -15.457031 8.78125 -15.09375 C 9.457031 -14.726562 10.300781 -14.304688 11.3125 -13.828125 C 12.53125 -13.253906 13.570312 -12.648438 14.4375 -12.015625 C 15.3125 -11.390625 15.984375 -10.648438 16.453125 -9.796875 C 16.921875 -8.953125 17.15625 -7.90625 17.15625 -6.65625 Z M 17.15625 -6.65625 "/></g></g></g><g fill="#ffffff" fill-opacity="1"><g transform="translate(153.247597, 337.154627)"><g><path d="M 12.265625 0 L 7.171875 0 L 7.171875 -19.734375 L 0.671875 -19.734375 L 0.671875 -23.953125 L 18.765625 -23.953125 L 18.765625 -19.734375 L 12.265625 -19.734375 Z M 12.265625 0 "/></g></g></g><g fill="#ffffff" fill-opacity="1"><g transform="translate(178.58264, 337.154627)"><g><path d="M 3.015625 0 L 3.015625 -23.953125 L 8.09375 -23.953125 L 8.09375 0 Z M 3.015625 0 "/></g></g></g><g fill="#ffffff" fill-opacity="1"><g transform="translate(195.595518, 337.154627)"><g><path d="M 12.265625 0 L 7.171875 0 L 7.171875 -19.734375 L 0.671875 -19.734375 L 0.671875 -23.953125 L 18.765625 -23.953125 L 18.765625 -19.734375 L 12.265625 -19.734375 Z M 12.265625 0 "/></g></g></g><g fill="#ffffff" fill-opacity="1"><g transform="translate(220.930561, 337.154627)"><g><path d="M 22.515625 -23.953125 L 22.515625 -8.453125 C 22.515625 -6.804688 22.148438 -5.316406 21.421875 -3.984375 C 20.703125 -2.660156 19.601562 -1.609375 18.125 -0.828125 C 16.65625 -0.0546875 14.8125 0.328125 12.59375 0.328125 C 9.414062 0.328125 6.992188 -0.476562 5.328125 -2.09375 C 3.671875 -3.707031 2.84375 -5.847656 2.84375 -8.515625 L 2.84375 -23.953125 L 7.921875 -23.953125 L 7.921875 -9.296875 C 7.921875 -7.316406 8.320312 -5.925781 9.125 -5.125 C 9.9375 -4.332031 11.132812 -3.9375 12.71875 -3.9375 C 13.832031 -3.9375 14.734375 -4.125 15.421875 -4.5 C 16.117188 -4.882812 16.628906 -5.472656 16.953125 -6.265625 C 17.285156 -7.066406 17.453125 -8.085938 17.453125 -9.328125 L 17.453125 -23.953125 Z M 22.515625 -23.953125 "/></g></g></g><g fill="#ffffff" fill-opacity="1"><g transform="translate(252.195966, 337.154627)"><g><path d="M 12.265625 0 L 7.171875 0 L 7.171875 -19.734375 L 0.671875 -19.734375 L 0.671875 -23.953125 L 18.765625 -23.953125 L 18.765625 -19.734375 L 12.265625 -19.734375 Z M 12.265625 0 "/></g></g></g><g fill="#ffffff" fill-opacity="1"><g transform="translate(277.530998, 337.154627)"><g><path d="M 16.8125 0 L 3.015625 0 L 3.015625 -23.953125 L 16.8125 -23.953125 L 16.8125 -19.796875 L 8.09375 -19.796875 L 8.09375 -14.53125 L 16.203125 -14.53125 L 16.203125 -10.375 L 8.09375 -10.375 L 8.09375 -4.203125 L 16.8125 -4.203125 Z M 16.8125 0 "/></g></g></g></svg>