<svg width="197" height="197" viewBox="0 0 197 197" fill="none" xmlns="http://www.w3.org/2000/svg">
<g filter="url(#filter0_f_1089_14587)">
<path d="M66.566 149.648L68.801 150.972C78.188 156.543 88.951 159.49 99.927 159.495H99.95C133.657 159.495 161.089 132.069 161.103 98.36C161.109 82.025 154.754 66.664 143.208 55.109C137.545 49.4104 130.808 44.8916 123.387 41.8143C115.966 38.7369 108.008 37.1621 99.974 37.181C66.241 37.181 38.808 64.604 38.796 98.311C38.7794 109.821 42.0206 121.101 48.145 130.846L49.6 133.158L43.421 155.716L66.566 149.648ZM25.755 173.192L36.194 135.078C29.756 123.924 26.369 111.27 26.373 98.306C26.39 57.75 59.394 24.756 99.951 24.756C119.632 24.766 138.105 32.425 151.998 46.328C165.891 60.231 173.535 78.711 173.528 98.365C173.51 138.918 140.501 171.918 99.95 171.918H99.918C87.605 171.913 75.506 168.824 64.759 162.964L25.755 173.192Z" fill="#B3B3B3"/>
</g>
<path d="M25 172.436L35.439 134.322C28.9899 123.141 25.6024 110.458 25.618 97.55C25.635 56.994 58.639 24 99.196 24C118.877 24.01 137.35 31.669 151.243 45.572C165.136 59.475 172.78 77.955 172.773 97.609C172.755 138.162 139.746 171.162 99.195 171.162H99.163C86.85 171.157 74.751 168.068 64.004 162.208L25 172.436Z" fill="white"/>
<path d="M99.2181 36.425C65.4851 36.425 38.0521 63.848 38.0401 97.555C38.0235 109.065 41.2647 120.345 47.3891 130.09L48.8441 132.403L42.6651 154.961L65.8111 148.892L68.0461 150.216C77.4331 155.787 88.1961 158.733 99.1721 158.739H99.1951C132.902 158.739 160.335 131.313 160.348 97.604C160.374 89.5696 158.805 81.6099 155.733 74.1858C152.662 66.7617 148.148 60.0207 142.453 54.353C136.79 48.6543 130.053 44.1354 122.631 41.0581C115.21 37.9807 107.252 36.406 99.2181 36.425Z" fill="url(#paint0_linear_1089_14587)"/>
<path fill-rule="evenodd" clip-rule="evenodd" d="M80.8061 66.801C79.4281 63.74 77.9781 63.678 76.6691 63.625L73.1451 63.582C71.9191 63.582 69.9271 64.042 68.2431 65.882C66.5591 67.722 61.8081 72.169 61.8081 81.214C61.8081 90.259 68.3961 98.999 69.3141 100.227C70.2321 101.455 82.0321 120.608 100.719 127.977C116.248 134.101 119.408 132.883 122.78 132.577C126.152 132.271 133.657 128.13 135.188 123.837C136.719 119.544 136.72 115.866 136.261 115.097C135.802 114.328 134.576 113.871 132.736 112.951C130.896 112.031 121.859 107.584 120.174 106.97C118.489 106.356 117.264 106.051 116.037 107.891C114.81 109.731 111.291 113.87 110.218 115.097C109.145 116.324 108.074 116.478 106.234 115.559C104.394 114.64 98.4741 112.698 91.4501 106.435C85.9851 101.562 82.2961 95.544 81.2221 93.705C80.1481 91.866 81.1081 90.87 82.0301 89.954C82.8551 89.13 83.8681 87.807 84.7891 86.734C85.7101 85.661 86.0131 84.894 86.6251 83.669C87.2371 82.444 86.9321 81.368 86.4721 80.449C86.0121 79.53 82.4401 70.437 80.8061 66.801Z" fill="white"/>
<defs>
<filter id="filter0_f_1089_14587" x="18.693" y="17.694" width="161.897" height="162.56" filterUnits="userSpaceOnUse" color-interpolation-filters="sRGB">
<feFlood flood-opacity="0" result="BackgroundImageFix"/>
<feBlend mode="normal" in="SourceGraphic" in2="BackgroundImageFix" result="shape"/>
<feGaussianBlur stdDeviation="3.531" result="effect1_foregroundBlur_1089_14587"/>
</filter>
<linearGradient id="paint0_linear_1089_14587" x1="97.9491" y1="43.765" x2="98.5691" y2="148.29" gradientUnits="userSpaceOnUse">
<stop stop-color="#57D163"/>
<stop offset="1" stop-color="#23B33A"/>
</linearGradient>
</defs>
</svg>
