<svg width="1024" height="1024" viewBox="0 0 1024 1024" fill="none" xmlns="http://www.w3.org/2000/svg">
<rect width="1024" height="1024" fill="url(#paint0_linear_1090_14595)"/>
<path d="M812.293 579.044C803.053 626.587 729.523 678.62 645.076 688.702C601.041 693.958 557.685 698.787 511.452 696.665C435.842 693.201 376.181 678.62 376.181 678.62C376.181 685.979 376.636 692.989 377.543 699.541C387.374 774.16 451.532 778.629 512.307 780.715C573.649 782.812 628.27 765.589 628.27 765.589L630.792 821.046C630.792 821.046 587.885 844.086 511.452 848.324C469.305 850.641 416.972 847.264 356.017 831.131C223.819 796.14 201.084 655.223 197.606 512.242C196.546 469.789 197.199 429.758 197.199 396.279C197.199 250.071 292.994 207.216 292.994 207.216C341.297 185.033 424.178 175.705 510.344 175H512.46C598.626 175.705 681.562 185.033 729.861 207.216C729.861 207.216 825.651 250.071 825.651 396.279C825.651 396.279 826.855 504.151 812.293 579.044Z" fill="white"/>
<path d="M712.66 407.622V584.654H642.521V412.824C642.521 376.603 627.281 358.22 596.798 358.22C563.093 358.22 546.2 380.029 546.2 423.151V517.204H476.478V423.151C476.478 380.029 459.582 358.22 425.877 358.22C395.394 358.22 380.154 376.603 380.154 412.824V584.654H310.016V407.622C310.016 371.439 319.229 342.688 337.734 321.416C356.815 300.146 381.805 289.241 412.827 289.241C448.719 289.241 475.898 303.035 493.867 330.629L511.338 359.914L528.811 330.629C546.778 303.035 573.957 289.241 609.852 289.241C640.871 289.241 665.861 300.146 684.947 321.416C703.447 342.688 712.66 371.439 712.66 407.622Z" fill="#5C4CE1"/>
<defs>
<linearGradient id="paint0_linear_1090_14595" x1="512" y1="0" x2="512" y2="1024" gradientUnits="userSpaceOnUse">
<stop stop-color="#6364FF"/>
<stop offset="1" stop-color="#563ACC"/>
</linearGradient>
</defs>
</svg>
