<svg width="148" height="42" viewBox="0 0 148 42" fill="none" xmlns="http://www.w3.org/2000/svg">
<g clip-path="url(#clip0_4215_159)">
<g clip-path="url(#clip1_4215_159)">
<g clip-path="url(#clip2_4215_159)">
<path fill-rule="evenodd" clip-rule="evenodd" d="M16 32C24.8365 32 32 24.8365 32 16C32 7.16346 24.8365 0 16 0C7.16346 0 0 7.16346 0 16C0 24.8365 7.16346 32 16 32Z" fill="#0DBD8B"/>
<path fill-rule="evenodd" clip-rule="evenodd" d="M13.0747 7.45517C13.0747 6.80931 13.5993 6.28577 14.2465 6.28577C18.633 6.28577 22.1889 9.83428 22.1889 14.2116C22.1889 14.8575 21.6642 15.381 21.017 15.381C20.3698 15.381 19.8452 14.8575 19.8452 14.2116C19.8452 11.126 17.3386 8.62457 14.2465 8.62457C13.5993 8.62457 13.0747 8.101 13.0747 7.45517Z" fill="white"/>
<path fill-rule="evenodd" clip-rule="evenodd" d="M24.5425 13.0422C25.1896 13.0422 25.7143 13.5657 25.7143 14.2116C25.7143 18.5889 22.1584 22.1374 17.7719 22.1374C17.1248 22.1374 16.6001 21.6139 16.6001 20.968C16.6001 20.3222 17.1248 19.7986 17.7719 19.7986C20.864 19.7986 23.3706 17.2972 23.3706 14.2116C23.3706 13.5657 23.8953 13.0422 24.5425 13.0422Z" fill="white"/>
<path fill-rule="evenodd" clip-rule="evenodd" d="M18.9438 24.5449C18.9438 25.1907 18.4191 25.7143 17.7719 25.7143C13.3855 25.7143 9.82959 22.1657 9.82959 17.7884C9.82959 17.1426 10.3542 16.619 11.0014 16.619C11.6486 16.619 12.1732 17.1426 12.1732 17.7884C12.1732 20.8741 14.6799 23.3755 17.7719 23.3755C18.4191 23.3755 18.9438 23.899 18.9438 24.5449Z" fill="white"/>
<path fill-rule="evenodd" clip-rule="evenodd" d="M7.45757 18.9578C6.8104 18.9578 6.28577 18.4343 6.28577 17.7884C6.28574 13.4111 9.84165 9.86255 14.2281 9.86255C14.8753 9.86255 15.3999 10.3861 15.3999 11.0319C15.3999 11.6778 14.8753 12.2013 14.2281 12.2013C11.136 12.2013 8.6294 14.7028 8.6294 17.7884C8.6294 18.4343 8.10477 18.9578 7.45757 18.9578Z" fill="white"/>
<path d="M56.2857 18.1429H45C45.1334 19.3238 45.562 20.2667 46.2857 20.9714C47.0094 21.6571 47.962 22 49.1428 22C49.9237 22 50.6285 21.8095 51.2571 21.4286C51.8857 21.0476 52.3334 20.5333 52.6 19.8857H56.0285C55.5714 21.3905 54.7142 22.6095 53.4571 23.5429C52.2191 24.4571 50.7522 24.9143 49.0571 24.9143C46.8477 24.9143 45.0571 24.1809 43.6857 22.7143C42.3334 21.2476 41.6571 19.3905 41.6571 17.1429C41.6571 14.9524 42.3428 13.1143 43.7142 11.6286C45.0857 10.1429 46.8571 9.4 49.0285 9.4C51.2 9.4 52.9522 10.1333 54.2857 11.6C55.638 13.0476 56.3142 14.8762 56.3142 17.0857L56.2857 18.1429ZM49.0285 12.1714C47.962 12.1714 47.0762 12.4857 46.3714 13.1143C45.6665 13.7429 45.2285 14.5809 45.0571 15.6286H52.9428C52.7905 14.5809 52.3714 13.7429 51.6857 13.1143C51 12.4857 50.1142 12.1714 49.0285 12.1714ZM58.654 20.1429V3.14285H62.054V20.2C62.054 20.9619 62.4731 21.3429 63.3111 21.3429L63.9111 21.3143V24.5429C63.5874 24.6 63.2445 24.6286 62.8825 24.6286C61.416 24.6286 60.3397 24.2571 59.654 23.5143C58.9874 22.7714 58.654 21.6476 58.654 20.1429ZM79.7454 18.1429H68.4597C68.5931 19.3238 69.0217 20.2667 69.7454 20.9714C70.4694 21.6571 71.4217 22 72.6025 22C73.3837 22 74.0882 21.8095 74.7168 21.4286C75.3454 21.0476 75.7931 20.5333 76.0597 19.8857H79.4883C79.0311 21.3905 78.174 22.6095 76.9168 23.5429C75.6788 24.4571 74.2122 24.9143 72.5168 24.9143C70.3074 24.9143 68.5168 24.1809 67.1454 22.7143C65.7931 21.2476 65.1168 19.3905 65.1168 17.1429C65.1168 14.9524 65.8025 13.1143 67.174 11.6286C68.5454 10.1429 70.3168 9.4 72.4882 9.4C74.6597 9.4 76.4123 10.1333 77.7454 11.6C79.098 13.0476 79.774 14.8762 79.774 17.0857L79.7454 18.1429ZM72.4882 12.1714C71.4217 12.1714 70.536 12.4857 69.8311 13.1143C69.1265 13.7429 68.6882 14.5809 68.5168 15.6286H76.4025C76.2502 14.5809 75.8311 13.7429 75.1454 13.1143C74.4597 12.4857 73.574 12.1714 72.4882 12.1714ZM95.0851 16.0571V24.5714H91.6851V15.6857C91.6851 13.4381 90.752 12.3143 88.8851 12.3143C87.8757 12.3143 87.0662 12.6381 86.4565 13.2857C85.8662 13.9333 85.5708 14.8191 85.5708 15.9429V24.5714H82.1708V9.74285H85.3137V11.7143C85.6757 11.0476 86.228 10.4952 86.9708 10.0571C87.7137 9.61905 88.6377 9.4 89.7422 9.4C91.7994 9.4 93.2851 10.1809 94.1994 11.7429C95.4565 10.1809 97.1328 9.4 99.228 9.4C100.961 9.4 102.295 9.94285 103.228 11.0286C104.161 12.0952 104.628 13.5048 104.628 15.2571V24.5714H101.228V15.6857C101.228 13.4381 100.295 12.3143 98.428 12.3143C97.3994 12.3143 96.5805 12.6476 95.9708 13.3143C95.3805 13.9619 95.0851 14.8762 95.0851 16.0571ZM121.537 18.1429H110.251C110.385 19.3238 110.813 20.2667 111.537 20.9714C112.261 21.6571 113.213 22 114.394 22C115.175 22 115.88 21.8095 116.508 21.4286C117.137 21.0476 117.585 20.5333 117.851 19.8857H121.28C120.823 21.3905 119.965 22.6095 118.708 23.5429C117.47 24.4571 116.003 24.9143 114.308 24.9143C112.099 24.9143 110.308 24.1809 108.937 22.7143C107.585 21.2476 106.908 19.3905 106.908 17.1429C106.908 14.9524 107.594 13.1143 108.965 11.6286C110.337 10.1429 112.108 9.4 114.28 9.4C116.451 9.4 118.203 10.1333 119.537 11.6C120.889 13.0476 121.565 14.8762 121.565 17.0857L121.537 18.1429ZM114.28 12.1714C113.213 12.1714 112.327 12.4857 111.623 13.1143C110.918 13.7429 110.48 14.5809 110.308 15.6286H118.194C118.042 14.5809 117.623 13.7429 116.937 13.1143C116.251 12.4857 115.365 12.1714 114.28 12.1714ZM127.105 9.74285V11.7143C127.448 11.0667 128.01 10.5238 128.791 10.0857C129.591 9.62857 130.553 9.4 131.677 9.4C133.429 9.4 134.781 9.93334 135.734 11C136.705 12.0667 137.191 13.4857 137.191 15.2571V24.5714H133.791V15.6857C133.791 14.6381 133.543 13.8191 133.048 13.2286C132.572 12.6191 131.839 12.3143 130.848 12.3143C129.762 12.3143 128.905 12.6381 128.277 13.2857C127.667 13.9333 127.362 14.8286 127.362 15.9714V24.5714H123.962V9.74285H127.105ZM147.121 21.5429V24.4857C146.701 24.6 146.111 24.6571 145.349 24.6571C142.454 24.6571 141.006 23.2 141.006 20.2857V12.4571H138.749V9.74285H141.006V5.88571H144.406V9.74285H147.178V12.4571H144.406V19.9429C144.406 21.1048 144.959 21.6857 146.063 21.6857L147.121 21.5429Z" fill="#1B1D22"/>
</g>
<path d="M45.5446 38.8003C45.9488 38.8003 46.2971 38.6885 46.5895 38.4649C46.8819 38.2413 47.0754 37.9446 47.17 37.5748L48.6406 37.936C48.4428 38.581 48.0859 39.1142 47.5699 39.5356C47.0625 39.9484 46.3917 40.1548 45.5575 40.1548C44.5857 40.1548 43.7859 39.8194 43.1581 39.1486C42.5303 38.4692 42.2164 37.6393 42.2164 36.6589C42.2164 35.6699 42.5303 34.84 43.1581 34.1692C43.7859 33.4898 44.5857 33.1501 45.5575 33.1501C46.3917 33.1501 47.0625 33.3608 47.5699 33.7822C48.0859 34.195 48.4428 34.7239 48.6406 35.3689L47.17 35.7301C47.0754 35.3603 46.8819 35.0636 46.5895 34.84C46.2971 34.6164 45.9488 34.5046 45.5446 34.5046C45.0028 34.5046 44.5685 34.7067 44.2417 35.1109C43.9149 35.5065 43.7515 36.0225 43.7515 36.6589C43.7515 37.2953 43.9149 37.8113 44.2417 38.2069C44.5685 38.6025 45.0028 38.8003 45.5446 38.8003ZM53.5736 33.2533V34.6852C53.4532 34.668 53.3371 34.6594 53.2253 34.6594C52.0729 34.6594 51.4967 35.2786 51.4967 36.517V40H49.9616V33.3049H51.3806V34.2337C51.759 33.5715 52.4169 33.2404 53.3543 33.2404L53.5736 33.2533ZM58.9626 37.807L60.3429 38.1682C60.1021 38.7788 59.7108 39.2647 59.169 39.6259C58.6358 39.9785 58.0123 40.1548 57.2985 40.1548C56.3009 40.1548 55.4925 39.8237 54.8733 39.1615C54.2627 38.4993 53.9574 37.6608 53.9574 36.646C53.9574 35.657 54.267 34.8271 54.8862 34.1563C55.5054 33.4855 56.3052 33.1501 57.2856 33.1501C58.266 33.1501 59.0572 33.4812 59.6592 34.1434C60.2698 34.797 60.5751 35.6226 60.5751 36.6202L60.5622 37.0975H55.4667C55.5269 37.6307 55.7204 38.0564 56.0472 38.3746C56.374 38.6842 56.804 38.839 57.3372 38.839C58.1284 38.839 58.6702 38.495 58.9626 37.807ZM57.2856 34.4014C56.804 34.4014 56.4041 34.5433 56.0859 34.8271C55.7677 35.1109 55.5699 35.4893 55.4925 35.9623H59.0529C58.9841 35.4893 58.7949 35.1109 58.4853 34.8271C58.1757 34.5433 57.7758 34.4014 57.2856 34.4014ZM66.1078 36.8653L64.3276 37.162C63.8632 37.2394 63.5407 37.3555 63.3601 37.5103C63.1881 37.6651 63.1021 37.8672 63.1021 38.1166C63.1021 38.6756 63.4891 38.9551 64.2631 38.9551C64.8565 38.9551 65.3123 38.796 65.6305 38.4778C65.9487 38.1596 66.1078 37.7597 66.1078 37.2781V36.8653ZM63.9535 40.1548C63.1709 40.1548 62.5818 39.9699 62.1862 39.6001C61.7992 39.2303 61.6057 38.7401 61.6057 38.1295C61.6057 36.9513 62.4614 36.2375 64.1728 35.9881L66.1078 35.7043V35.614C66.1078 34.8142 65.6305 34.4143 64.6759 34.4143C63.8417 34.4143 63.3687 34.754 63.2569 35.4334L61.7863 35.1883C61.8981 34.5863 62.1905 34.0961 62.6635 33.7177C63.1451 33.3393 63.8288 33.1501 64.7146 33.1501C65.6692 33.1501 66.3873 33.3694 66.8689 33.808C67.3591 34.2466 67.6042 34.8615 67.6042 35.6527V38.3488C67.6042 38.6498 67.7504 38.8003 68.0428 38.8003L68.1718 38.7874V40.0258C68.0428 40.0602 67.8794 40.0774 67.6816 40.0774C67.329 40.0774 67.0323 40 66.7915 39.8452C66.5507 39.6818 66.383 39.4883 66.2884 39.2647C65.7896 39.8581 65.0113 40.1548 63.9535 40.1548ZM72.3929 38.6326V39.9613C72.2037 40.0129 71.9371 40.0387 71.5931 40.0387C70.2859 40.0387 69.6323 39.3808 69.6323 38.065V34.5304H68.6132V33.3049H69.6323V31.5634H71.1674V33.3049H72.4187V34.5304H71.1674V37.9102C71.1674 38.4348 71.4168 38.6971 71.9156 38.6971L72.3929 38.6326ZM76.5381 40.1548C75.5061 40.1548 74.6676 39.8151 74.0226 39.1357C73.3862 38.4563 73.068 37.6307 73.068 36.6589C73.068 35.6871 73.3862 34.8615 74.0226 34.1821C74.6676 33.4941 75.5061 33.1501 76.5381 33.1501C77.5787 33.1501 78.4172 33.4941 79.0536 34.1821C79.6986 34.8615 80.0211 35.6871 80.0211 36.6589C80.0211 37.6307 79.6986 38.4563 79.0536 39.1357C78.4172 39.8151 77.5787 40.1548 76.5381 40.1548ZM74.6031 36.6589C74.6031 37.2953 74.7837 37.8113 75.1449 38.2069C75.5147 38.6025 75.9791 38.8003 76.5381 38.8003C77.1057 38.8003 77.5701 38.6025 77.9313 38.2069C78.3011 37.8113 78.486 37.2953 78.486 36.6589C78.486 36.0139 78.3011 35.4936 77.9313 35.098C77.5701 34.7024 77.1057 34.5046 76.5381 34.5046C75.9791 34.5046 75.5147 34.7024 75.1449 35.098C74.7837 35.4936 74.6031 36.0139 74.6031 36.6589ZM85.0552 33.2533V34.6852C84.9348 34.668 84.8187 34.6594 84.7069 34.6594C83.5545 34.6594 82.9783 35.2786 82.9783 36.517V40H81.4432V33.3049H82.8622V34.2337C83.2406 33.5715 83.8985 33.2404 84.8359 33.2404L85.0552 33.2533ZM85.5754 38.1295L87.0202 37.8973C87.046 38.1983 87.1793 38.4391 87.4201 38.6197C87.6695 38.8003 88.0178 38.8906 88.465 38.8906C88.8606 38.8906 89.1659 38.8218 89.3809 38.6842C89.5959 38.5466 89.7034 38.3617 89.7034 38.1295C89.7034 37.8715 89.5701 37.6823 89.3035 37.5619C89.0455 37.4329 88.7316 37.3383 88.3618 37.2781C87.992 37.2179 87.6222 37.1405 87.2524 37.0459C86.8826 36.9427 86.5644 36.7449 86.2978 36.4525C86.0398 36.1601 85.9108 35.7602 85.9108 35.2528C85.9108 34.668 86.1516 34.1735 86.6332 33.7693C87.1234 33.3565 87.7684 33.1501 88.5682 33.1501C89.3508 33.1501 89.9528 33.3436 90.3742 33.7306C90.7956 34.1176 91.0579 34.5734 91.1611 35.098L89.7292 35.356C89.6948 35.0894 89.5744 34.8658 89.368 34.6852C89.1702 34.496 88.8907 34.4014 88.5295 34.4014C88.1597 34.4014 87.8759 34.4745 87.6781 34.6207C87.4803 34.7583 87.3814 34.9518 87.3814 35.2012C87.3814 35.4334 87.5104 35.6097 87.7684 35.7301C88.035 35.8505 88.3532 35.9408 88.723 36.001C89.0928 36.0612 89.4626 36.1472 89.8324 36.259C90.2022 36.3622 90.5161 36.5643 90.7741 36.8653C91.0407 37.1663 91.174 37.5662 91.174 38.065C91.174 38.667 90.9289 39.1658 90.4387 39.5614C89.9571 39.957 89.2691 40.1548 88.3747 40.1548C87.5147 40.1548 86.8568 39.9699 86.401 39.6001C85.9452 39.2217 85.67 38.7315 85.5754 38.1295ZM98.962 40.1548C97.93 40.1548 97.0915 39.8151 96.4465 39.1357C95.8101 38.4563 95.4919 37.6307 95.4919 36.6589C95.4919 35.6871 95.8101 34.8615 96.4465 34.1821C97.0915 33.4941 97.93 33.1501 98.962 33.1501C100.003 33.1501 100.841 33.4941 101.477 34.1821C102.122 34.8615 102.445 35.6871 102.445 36.6589C102.445 37.6307 102.122 38.4563 101.477 39.1357C100.841 39.8151 100.003 40.1548 98.962 40.1548ZM97.027 36.6589C97.027 37.2953 97.2076 37.8113 97.5688 38.2069C97.9386 38.6025 98.403 38.8003 98.962 38.8003C99.5296 38.8003 99.994 38.6025 100.355 38.2069C100.725 37.8113 100.91 37.2953 100.91 36.6589C100.91 36.0139 100.725 35.4936 100.355 35.098C99.994 34.7024 99.5296 34.5046 98.962 34.5046C98.403 34.5046 97.9386 34.7024 97.5688 35.098C97.2076 35.4936 97.027 36.0139 97.027 36.6589ZM104.138 33.3049V32.5954C104.138 31.8386 104.331 31.271 104.718 30.8926C105.105 30.5142 105.634 30.325 106.305 30.325L106.821 30.3637V31.7182C106.769 31.701 106.675 31.6924 106.537 31.6924C106.228 31.6924 106.004 31.7698 105.866 31.9246C105.737 32.0708 105.673 32.3245 105.673 32.6857V33.3049H106.86V34.5304H105.673V40H104.138V34.5304H103.067V33.3049H104.138ZM112.949 30.841L115.839 34.6336L118.741 30.841H120.173V40H118.638V33.3049L115.865 36.8911H115.813L113.052 33.3049V40H111.517V30.841H112.949ZM126.312 36.8653L124.532 37.162C124.067 37.2394 123.745 37.3555 123.564 37.5103C123.392 37.6651 123.306 37.8672 123.306 38.1166C123.306 38.6756 123.693 38.9551 124.467 38.9551C125.061 38.9551 125.516 38.796 125.835 38.4778C126.153 38.1596 126.312 37.7597 126.312 37.2781V36.8653ZM124.158 40.1548C123.375 40.1548 122.786 39.9699 122.39 39.6001C122.003 39.2303 121.81 38.7401 121.81 38.1295C121.81 36.9513 122.666 36.2375 124.377 35.9881L126.312 35.7043V35.614C126.312 34.8142 125.835 34.4143 124.88 34.4143C124.046 34.4143 123.573 34.754 123.461 35.4334L121.99 35.1883C122.102 34.5863 122.395 34.0961 122.868 33.7177C123.349 33.3393 124.033 33.1501 124.919 33.1501C125.873 33.1501 126.591 33.3694 127.073 33.808C127.563 34.2466 127.808 34.8615 127.808 35.6527V38.3488C127.808 38.6498 127.955 38.8003 128.247 38.8003L128.376 38.7874V40.0258C128.247 40.0602 128.084 40.0774 127.886 40.0774C127.533 40.0774 127.236 40 126.996 39.8452C126.755 39.6818 126.587 39.4883 126.493 39.2647C125.994 39.8581 125.215 40.1548 124.158 40.1548ZM132.597 38.6326V39.9613C132.408 40.0129 132.141 40.0387 131.797 40.0387C130.49 40.0387 129.836 39.3808 129.836 38.065V34.5304H128.817V33.3049H129.836V31.5634H131.372V33.3049H132.623V34.5304H131.372V37.9102C131.372 38.4348 131.621 38.6971 132.12 38.6971L132.597 38.6326ZM137.461 33.2533V34.6852C137.341 34.668 137.225 34.6594 137.113 34.6594C135.961 34.6594 135.385 35.2786 135.385 36.517V40H133.849V33.3049H135.268V34.2337C135.647 33.5715 136.305 33.2404 137.242 33.2404L137.461 33.2533ZM139.348 32.1826C139.064 32.1826 138.832 32.0966 138.651 31.9246C138.47 31.744 138.38 31.5161 138.38 31.2409C138.38 30.9571 138.47 30.7249 138.651 30.5443C138.832 30.3637 139.064 30.2734 139.348 30.2734C139.623 30.2734 139.851 30.3637 140.031 30.5443C140.212 30.7249 140.302 30.9571 140.302 31.2409C140.302 31.5161 140.212 31.744 140.031 31.9246C139.851 32.0966 139.623 32.1826 139.348 32.1826ZM138.574 40V33.3049H140.109V40H138.574ZM147.922 33.3049L145.381 36.6073L148.012 40H146.155L144.516 37.7554L142.865 40H141.021L143.639 36.6073L141.098 33.3049H142.943L144.516 35.4463L146.077 33.3049H147.922Z" fill="#656D77"/>
</g>
</g>
<defs>
<clipPath id="clip0_4215_159">
<rect width="148" height="42" fill="white"/>
</clipPath>
<clipPath id="clip1_4215_159">
<rect width="148" height="42" fill="white"/>
</clipPath>
<clipPath id="clip2_4215_159">
<rect width="148" height="32" fill="white"/>
</clipPath>
</defs>
</svg>
