<svg
    width="148"
    height="42"
    viewBox="0 0 148 42"
    fill="none"
    xmlns="http://www.w3.org/2000/svg"
>
<g clip-path="url(#clip0_1113_1867)">
<g clip-path="url(#clip1_1113_1867)">
<g clip-path="url(#clip2_1113_1867)">
<path
                    fill-rule="evenodd"
                    clip-rule="evenodd"
                    d="M16 32C24.8365 32 32 24.8365 32 16C32 7.16346 24.8365 0 16 0C7.16346 0 0 7.16346 0 16C0 24.8365 7.16346 32 16 32Z"
                    fill="#0DBD8B"
                />
<path
                    fill-rule="evenodd"
                    clip-rule="evenodd"
                    d="M13.0747 7.45504C13.0747 6.80919 13.5993 6.28564 14.2465 6.28564C18.633 6.28564 22.1889 9.83416 22.1889 14.2115C22.1889 14.8573 21.6642 15.3809 21.017 15.3809C20.3698 15.3809 19.8452 14.8573 19.8452 14.2115C19.8452 11.1258 17.3386 8.62444 14.2465 8.62444C13.5993 8.62444 13.0747 8.10087 13.0747 7.45504Z"
                    fill="white"
                />
<path
                    fill-rule="evenodd"
                    clip-rule="evenodd"
                    d="M24.5425 13.0422C25.1896 13.0422 25.7143 13.5658 25.7143 14.2116C25.7143 18.589 22.1584 22.1375 17.7719 22.1375C17.1248 22.1375 16.6001 21.6139 16.6001 20.9681C16.6001 20.3222 17.1248 19.7987 17.7719 19.7987C20.864 19.7987 23.3706 17.2973 23.3706 14.2116C23.3706 13.5658 23.8953 13.0422 24.5425 13.0422Z"
                    fill="white"
                />
<path
                    fill-rule="evenodd"
                    clip-rule="evenodd"
                    d="M18.9438 24.5448C18.9438 25.1906 18.4191 25.7142 17.7719 25.7142C13.3855 25.7142 9.82959 22.1656 9.82959 17.7883C9.82959 17.1424 10.3542 16.6189 11.0014 16.6189C11.6486 16.6189 12.1732 17.1424 12.1732 17.7883C12.1732 20.874 14.6799 23.3754 17.7719 23.3754C18.4191 23.3754 18.9438 23.8989 18.9438 24.5448Z"
                    fill="white"
                />
<path
                    fill-rule="evenodd"
                    clip-rule="evenodd"
                    d="M7.45744 18.9578C6.81027 18.9578 6.28564 18.4343 6.28564 17.7884C6.28562 13.4111 9.84153 9.86255 14.228 9.86255C14.8752 9.86255 15.3998 10.3861 15.3998 11.0319C15.3998 11.6778 14.8752 12.2013 14.228 12.2013C11.1359 12.2013 8.62927 14.7028 8.62927 17.7884C8.62927 18.4343 8.10464 18.9578 7.45744 18.9578Z"
                    fill="white"
                />
<path
                    d="M56.2858 18.1428H45.0001C45.1335 19.3238 45.5621 20.2666 46.2858 20.9714C47.0095 21.6571 47.9621 22 49.1429 22C49.9238 22 50.6287 21.8095 51.2572 21.4285C51.8858 21.0476 52.3335 20.5333 52.6001 19.8857H56.0287C55.5715 21.3904 54.7144 22.6095 53.4572 23.5428C52.2192 24.4571 50.7524 24.9142 49.0572 24.9142C46.8478 24.9142 45.0572 24.1809 43.6858 22.7143C42.3335 21.2476 41.6572 19.3904 41.6572 17.1428C41.6572 14.9523 42.3429 13.1143 43.7144 11.6285C45.0858 10.1428 46.8572 9.39997 49.0287 9.39997C51.2001 9.39997 52.9524 10.1333 54.2858 11.6C55.6381 13.0476 56.3144 14.8762 56.3144 17.0857L56.2858 18.1428ZM49.0287 12.1714C47.9621 12.1714 47.0764 12.4857 46.3715 13.1143C45.6667 13.7428 45.2287 14.5809 45.0572 15.6285H52.9429C52.7907 14.5809 52.3715 13.7428 51.6858 13.1143C51.0001 12.4857 50.1144 12.1714 49.0287 12.1714ZM58.6541 20.1428V3.14282H62.0541V20.2C62.0541 20.9619 62.4732 21.3428 63.3112 21.3428L63.9112 21.3142V24.5428C63.5875 24.6 63.2447 24.6285 62.8827 24.6285C61.4161 24.6285 60.3398 24.2571 59.6541 23.5142C58.9875 22.7714 58.6541 21.6476 58.6541 20.1428ZM79.7455 18.1428H68.4598C68.5932 19.3238 69.0218 20.2666 69.7455 20.9714C70.4695 21.6571 71.4218 22 72.6027 22C73.3838 22 74.0884 21.8095 74.7169 21.4285C75.3455 21.0476 75.7932 20.5333 76.0598 19.8857H79.4884C79.0312 21.3904 78.1741 22.6095 76.9169 23.5428C75.6789 24.4571 74.2124 24.9142 72.5169 24.9142C70.3075 24.9142 68.5169 24.1809 67.1455 22.7143C65.7932 21.2476 65.1169 19.3904 65.1169 17.1428C65.1169 14.9523 65.8027 13.1143 67.1741 11.6285C68.5455 10.1428 70.3169 9.39997 72.4884 9.39997C74.6598 9.39997 76.4124 10.1333 77.7455 11.6C79.0981 13.0476 79.7741 14.8762 79.7741 17.0857L79.7455 18.1428ZM72.4884 12.1714C71.4218 12.1714 70.5361 12.4857 69.8312 13.1143C69.1267 13.7428 68.6884 14.5809 68.5169 15.6285H76.4027C76.2504 14.5809 75.8312 13.7428 75.1455 13.1143C74.4598 12.4857 73.5741 12.1714 72.4884 12.1714ZM95.0852 16.0571V24.5714H91.6852V15.6857C91.6852 13.4381 90.7521 12.3142 88.8852 12.3142C87.8758 12.3142 87.0664 12.6381 86.4567 13.2857C85.8664 13.9333 85.5709 14.819 85.5709 15.9428V24.5714H82.1709V9.74282H85.3138V11.7143C85.6758 11.0476 86.2281 10.4952 86.9709 10.0571C87.7138 9.61902 88.6378 9.39997 89.7424 9.39997C91.7995 9.39997 93.2852 10.1809 94.1995 11.7428C95.4567 10.1809 97.1329 9.39997 99.2281 9.39997C100.962 9.39997 102.295 9.94282 103.228 11.0285C104.162 12.0952 104.628 13.5047 104.628 15.2571V24.5714H101.228V15.6857C101.228 13.4381 100.295 12.3142 98.4281 12.3142C97.3995 12.3142 96.5807 12.6476 95.9709 13.3142C95.3807 13.9619 95.0852 14.8762 95.0852 16.0571ZM121.537 18.1428H110.251C110.385 19.3238 110.813 20.2666 111.537 20.9714C112.261 21.6571 113.213 22 114.394 22C115.175 22 115.88 21.8095 116.508 21.4285C117.137 21.0476 117.585 20.5333 117.851 19.8857H121.28C120.823 21.3904 119.966 22.6095 118.708 23.5428C117.47 24.4571 116.004 24.9142 114.308 24.9142C112.099 24.9142 110.308 24.1809 108.937 22.7143C107.585 21.2476 106.908 19.3904 106.908 17.1428C106.908 14.9523 107.594 13.1143 108.966 11.6285C110.337 10.1428 112.108 9.39997 114.28 9.39997C116.451 9.39997 118.204 10.1333 119.537 11.6C120.889 13.0476 121.566 14.8762 121.566 17.0857L121.537 18.1428ZM114.28 12.1714C113.213 12.1714 112.328 12.4857 111.623 13.1143C110.918 13.7428 110.48 14.5809 110.308 15.6285H118.194C118.042 14.5809 117.623 13.7428 116.937 13.1143C116.251 12.4857 115.366 12.1714 114.28 12.1714ZM127.105 9.74282V11.7143C127.448 11.0666 128.01 10.5238 128.791 10.0857C129.591 9.62854 130.553 9.39997 131.677 9.39997C133.429 9.39997 134.782 9.93331 135.734 11C136.705 12.0666 137.191 13.4857 137.191 15.2571V24.5714H133.791V15.6857C133.791 14.6381 133.543 13.819 133.048 13.2285C132.572 12.619 131.839 12.3142 130.848 12.3142C129.762 12.3142 128.905 12.6381 128.277 13.2857C127.667 13.9333 127.362 14.8285 127.362 15.9714V24.5714H123.962V9.74282H127.105ZM147.121 21.5428V24.4857C146.702 24.6 146.111 24.6571 145.349 24.6571C142.454 24.6571 141.006 23.2 141.006 20.2857V12.4571H138.749V9.74282H141.006V5.88568H144.406V9.74282H147.178V12.4571H144.406V19.9428C144.406 21.1047 144.959 21.6857 146.064 21.6857L147.121 21.5428Z"
                    fill="#EBEEF2"
                />
</g>
<path
                d="M42.3423 36.6589C42.3423 35.6699 42.6562 34.84 43.2841 34.1692C43.9119 33.4898 44.7117 33.1501 45.6835 33.1501C46.6037 33.1501 47.3346 33.4124 47.8764 33.937C48.4268 34.453 48.7537 35.0507 48.8569 35.7301H47.2831C47.1885 35.3603 46.995 35.0636 46.7026 34.84C46.4188 34.6164 46.0748 34.5046 45.6705 34.5046C45.1287 34.5046 44.6945 34.7067 44.3676 35.1109C44.0408 35.5065 43.8774 36.0225 43.8774 36.6589C43.8774 37.2953 44.0408 37.8113 44.3676 38.2069C44.6945 38.6025 45.1287 38.8003 45.6705 38.8003C46.0748 38.8003 46.4188 38.6885 46.7026 38.4649C46.995 38.2413 47.1885 37.9446 47.2831 37.5748H48.8569C48.7537 38.2542 48.4268 38.8562 47.8764 39.3808C47.3346 39.8968 46.6037 40.1548 45.6835 40.1548C44.7117 40.1548 43.9119 39.8194 43.2841 39.1486C42.6562 38.4692 42.3423 37.6393 42.3423 36.6589ZM53.7752 33.2533V34.6852C53.6548 34.668 53.5387 34.6594 53.4269 34.6594C52.2745 34.6594 51.6983 35.2786 51.6983 36.517V40H50.1632V33.3049H51.5822V34.2337C51.9606 33.5715 52.6185 33.2404 53.5559 33.2404L53.7752 33.2533ZM60.7638 37.0975H55.6683C55.7285 37.6307 55.922 38.0564 56.2488 38.3746C56.5756 38.6842 57.0056 38.839 57.5388 38.839C57.8914 38.839 58.2096 38.753 58.4934 38.581C58.7772 38.409 58.9793 38.1768 59.0997 37.8844H60.6477C60.4413 38.5638 60.0543 39.1142 59.4867 39.5356C58.9277 39.9484 58.2655 40.1548 57.5001 40.1548C56.5025 40.1548 55.6941 39.8237 55.0749 39.1615C54.4643 38.4993 54.159 37.6608 54.159 36.646C54.159 35.657 54.4686 34.8271 55.0878 34.1563C55.707 33.4855 56.5068 33.1501 57.4872 33.1501C58.4676 33.1501 59.2588 33.4812 59.8608 34.1434C60.4714 34.797 60.7767 35.6226 60.7767 36.6202L60.7638 37.0975ZM57.4872 34.4014C57.0056 34.4014 56.6057 34.5433 56.2875 34.8271C55.9693 35.1109 55.7715 35.4893 55.6941 35.9623H59.2545C59.1857 35.4893 58.9965 35.1109 58.6869 34.8271C58.3773 34.5433 57.9774 34.4014 57.4872 34.4014ZM66.3093 37.1362C64.8129 37.1362 63.9357 37.205 63.6777 37.3426C63.4111 37.4802 63.2778 37.7296 63.2778 38.0908C63.2778 38.667 63.6605 38.9551 64.4259 38.9551C65.6815 38.9551 66.3093 38.4649 66.3093 37.4845V37.1362ZM64.155 40.1548C63.3638 40.1548 62.7747 39.9613 62.3877 39.5743C62.0007 39.1873 61.8072 38.6756 61.8072 38.0392C61.8072 37.2222 62.1684 36.6503 62.8908 36.3235C63.0628 36.2461 63.2262 36.1902 63.381 36.1558C63.5444 36.1128 63.8712 36.0741 64.3614 36.0397C64.8516 35.9967 65.5009 35.9752 66.3093 35.9752V35.6398C66.3093 34.8228 65.832 34.4143 64.8774 34.4143C64.0432 34.4143 63.5702 34.7454 63.4584 35.4076H61.962C62.0308 34.754 62.3017 34.2165 62.7747 33.7951C63.2563 33.3651 63.9701 33.1501 64.9161 33.1501C65.8707 33.1501 66.5888 33.3694 67.0704 33.808C67.5606 34.2466 67.8057 34.8615 67.8057 35.6527V40H66.3867V39.2905C65.9051 39.8667 65.1612 40.1548 64.155 40.1548ZM72.4937 38.6326V39.9613C72.3045 40.0129 72.0379 40.0387 71.6939 40.0387C70.3867 40.0387 69.7331 39.3808 69.7331 38.065V34.5304H68.714V33.3049H69.7331V31.5634H71.2682V33.3049H72.5195V34.5304H71.2682V37.9102C71.2682 38.4348 71.5176 38.6971 72.0164 38.6971L72.4937 38.6326ZM76.6389 40.1548C75.6069 40.1548 74.7684 39.8151 74.1234 39.1357C73.487 38.4563 73.1688 37.6307 73.1688 36.6589C73.1688 35.6871 73.487 34.8615 74.1234 34.1821C74.7684 33.4941 75.6069 33.1501 76.6389 33.1501C77.6795 33.1501 78.518 33.4941 79.1544 34.1821C79.7994 34.8615 80.1219 35.6871 80.1219 36.6589C80.1219 37.6307 79.7994 38.4563 79.1544 39.1357C78.518 39.8151 77.6795 40.1548 76.6389 40.1548ZM74.7039 36.6589C74.7039 37.2953 74.8845 37.8113 75.2457 38.2069C75.6155 38.6025 76.0799 38.8003 76.6389 38.8003C77.2065 38.8003 77.6709 38.6025 78.0321 38.2069C78.4019 37.8113 78.5868 37.2953 78.5868 36.6589C78.5868 36.0139 78.4019 35.4936 78.0321 35.098C77.6709 34.7024 77.2065 34.5046 76.6389 34.5046C76.0799 34.5046 75.6155 34.7024 75.2457 35.098C74.8845 35.4936 74.7039 36.0139 74.7039 36.6589ZM85.1559 33.2533V34.6852C85.0355 34.668 84.9194 34.6594 84.8076 34.6594C83.6552 34.6594 83.079 35.2786 83.079 36.517V40H81.5439V33.3049H82.9629V34.2337C83.3413 33.5715 83.9992 33.2404 84.9366 33.2404L85.1559 33.2533ZM88.5013 40.1548C87.5811 40.1548 86.8888 39.9398 86.4244 39.5098C85.96 39.0798 85.7063 38.5294 85.6633 37.8586H87.1468C87.164 38.1682 87.2973 38.4176 87.5467 38.6068C87.7961 38.796 88.1444 38.8906 88.5916 38.8906C88.9872 38.8906 89.2925 38.8218 89.5075 38.6842C89.7225 38.5466 89.83 38.3617 89.83 38.1295C89.83 37.8715 89.6967 37.6823 89.4301 37.5619C89.1721 37.4329 88.8539 37.3383 88.4755 37.2781C88.0971 37.2179 87.7187 37.1405 87.3403 37.0459C86.9619 36.9427 86.6394 36.7449 86.3728 36.4525C86.1148 36.1601 85.9858 35.7602 85.9858 35.2528C85.9858 34.668 86.2266 34.1735 86.7082 33.7693C87.1984 33.3565 87.8434 33.1501 88.6432 33.1501C89.099 33.1501 89.4989 33.2232 89.8429 33.3694C90.1955 33.507 90.4664 33.6919 90.6556 33.9241C90.8534 34.1563 90.9996 34.3928 91.0942 34.6336C91.1974 34.8744 91.2576 35.1195 91.2748 35.3689H89.8042C89.7784 35.1023 89.6623 34.8744 89.4559 34.6852C89.2581 34.496 88.9743 34.4014 88.6045 34.4014C88.2347 34.4014 87.9509 34.4745 87.7531 34.6207C87.5553 34.7583 87.4564 34.9518 87.4564 35.2012C87.4564 35.4334 87.5854 35.6097 87.8434 35.7301C88.11 35.8505 88.4325 35.9408 88.8109 36.001C89.1893 36.0612 89.5677 36.1472 89.9461 36.259C90.3245 36.3622 90.6427 36.5643 90.9007 36.8653C91.1673 37.1663 91.3006 37.5662 91.3006 38.065C91.3006 38.667 91.0555 39.1658 90.5653 39.5614C90.0837 39.957 89.3957 40.1548 88.5013 40.1548ZM99.0627 40.1548C98.0307 40.1548 97.1922 39.8151 96.5472 39.1357C95.9108 38.4563 95.5926 37.6307 95.5926 36.6589C95.5926 35.6871 95.9108 34.8615 96.5472 34.1821C97.1922 33.4941 98.0307 33.1501 99.0627 33.1501C100.103 33.1501 100.942 33.4941 101.578 34.1821C102.223 34.8615 102.546 35.6871 102.546 36.6589C102.546 37.6307 102.223 38.4563 101.578 39.1357C100.942 39.8151 100.103 40.1548 99.0627 40.1548ZM97.1277 36.6589C97.1277 37.2953 97.3083 37.8113 97.6695 38.2069C98.0393 38.6025 98.5037 38.8003 99.0627 38.8003C99.6303 38.8003 100.095 38.6025 100.456 38.2069C100.826 37.8113 101.011 37.2953 101.011 36.6589C101.011 36.0139 100.826 35.4936 100.456 35.098C100.095 34.7024 99.6303 34.5046 99.0627 34.5046C98.5037 34.5046 98.0393 34.7024 97.6695 35.098C97.3083 35.4936 97.1277 36.0139 97.1277 36.6589ZM104.239 33.3049V32.5954C104.239 31.8386 104.432 31.271 104.819 30.8926C105.206 30.5142 105.735 30.325 106.406 30.325L106.922 30.3637V31.7182C106.87 31.701 106.776 31.6924 106.638 31.6924C106.328 31.6924 106.105 31.7698 105.967 31.9246C105.838 32.0708 105.774 32.3245 105.774 32.6857V33.3049H106.961V34.5304H105.774V40H104.239V34.5304H103.168V33.3049H104.239ZM113.05 30.841L115.94 34.6336L118.842 30.841H120.274V40H118.739V33.3049L115.965 36.8911H115.914L113.153 33.3049V40H111.618V30.841H113.05ZM126.413 37.1362C124.916 37.1362 124.039 37.205 123.781 37.3426C123.515 37.4802 123.381 37.7296 123.381 38.0908C123.381 38.667 123.764 38.9551 124.529 38.9551C125.785 38.9551 126.413 38.4649 126.413 37.4845V37.1362ZM124.258 40.1548C123.467 40.1548 122.878 39.9613 122.491 39.5743C122.104 39.1873 121.911 38.6756 121.911 38.0392C121.911 37.2222 122.272 36.6503 122.994 36.3235C123.166 36.2461 123.33 36.1902 123.484 36.1558C123.648 36.1128 123.975 36.0741 124.465 36.0397C124.955 35.9967 125.604 35.9752 126.413 35.9752V35.6398C126.413 34.8228 125.935 34.4143 124.981 34.4143C124.147 34.4143 123.674 34.7454 123.562 35.4076H122.065C122.134 34.754 122.405 34.2165 122.878 33.7951C123.36 33.3651 124.074 33.1501 125.02 33.1501C125.974 33.1501 126.692 33.3694 127.174 33.808C127.664 34.2466 127.909 34.8615 127.909 35.6527V40H126.49V39.2905C126.009 39.8667 125.265 40.1548 124.258 40.1548ZM132.597 38.6326V39.9613C132.408 40.0129 132.141 40.0387 131.797 40.0387C130.49 40.0387 129.836 39.3808 129.836 38.065V34.5304H128.817V33.3049H129.836V31.5634H131.372V33.3049H132.623V34.5304H131.372V37.9102C131.372 38.4348 131.621 38.6971 132.12 38.6971L132.597 38.6326ZM137.461 33.2533V34.6852C137.341 34.668 137.225 34.6594 137.113 34.6594C135.961 34.6594 135.385 35.2786 135.385 36.517V40H133.849V33.3049H135.268V34.2337C135.647 33.5715 136.305 33.2404 137.242 33.2404L137.461 33.2533ZM139.348 32.1826C139.064 32.1826 138.832 32.0966 138.651 31.9246C138.47 31.744 138.38 31.5161 138.38 31.2409C138.38 30.9571 138.47 30.7249 138.651 30.5443C138.832 30.3637 139.064 30.2734 139.348 30.2734C139.623 30.2734 139.851 30.3637 140.031 30.5443C140.212 30.7249 140.302 30.9571 140.302 31.2409C140.302 31.5161 140.212 31.744 140.031 31.9246C139.851 32.0966 139.623 32.1826 139.348 32.1826ZM138.574 40V33.3049H140.109V40H138.574ZM147.922 33.3049L145.381 36.6073L148.012 40H146.155L144.516 37.7554L142.865 40H141.021L143.639 36.6073L141.098 33.3049H142.943L144.516 35.4463L146.077 33.3049H147.922Z"
                fill="#A3AAB4"
            />
</g>
</g>
<defs>
<clipPath id="clip0_1113_1867">
<rect width="148" height="42" fill="white" />
</clipPath>
<clipPath id="clip1_1113_1867">
<rect width="148" height="42" fill="white" />
</clipPath>
<clipPath id="clip2_1113_1867">
<rect width="148" height="32" fill="white" />
</clipPath>
</defs>
</svg>
