<svg width="64" height="64" viewBox="0 0 64 64" fill="none" xmlns="http://www.w3.org/2000/svg">
<rect width="64" height="64" fill="white"/>
<path d="M32.8295 51.6705C29.9318 51.6705 27.3703 51.2727 25.1449 50.4773C22.9195 49.6913 21.0492 48.5313 19.5341 46.9972C18.0189 45.4631 16.8731 43.5833 16.0966 41.358C15.3201 39.1326 14.9318 36.5852 14.9318 33.7159C14.9318 30.9413 15.3248 28.4602 16.1108 26.2727C16.9063 24.0852 18.0568 22.2292 19.5625 20.7045C21.0777 19.1705 22.9148 18.0009 25.0739 17.196C27.2424 16.3911 29.6951 15.9886 32.4318 15.9886C35.0928 15.9886 37.4223 16.4242 39.4205 17.2955C41.428 18.1572 43.1042 19.3267 44.4489 20.804C45.803 22.2718 46.8163 23.9242 47.4886 25.7614C48.1705 27.5985 48.5114 29.4924 48.5114 31.4432C48.5114 32.8163 48.4451 34.2083 48.3125 35.6193C48.1799 37.0303 47.9006 38.3277 47.4744 39.5114C47.0483 40.6856 46.3902 41.6326 45.5 42.3523C44.6193 43.072 43.4261 43.4318 41.9205 43.4318C41.2576 43.4318 40.5284 43.3277 39.733 43.1193C38.9375 42.911 38.232 42.5653 37.6165 42.0824C37.0009 41.5994 36.6364 40.9508 36.5227 40.1364H36.3523C36.125 40.6856 35.7746 41.2064 35.3011 41.6989C34.8371 42.1913 34.2263 42.5843 33.4688 42.8778C32.7206 43.1714 31.8068 43.2992 30.7273 43.2614C29.4962 43.214 28.4119 42.9394 27.4744 42.4375C26.5369 41.9261 25.7509 41.2348 25.1165 40.3636C24.4915 39.483 24.018 38.465 23.696 37.3097C23.3835 36.1449 23.2273 34.8902 23.2273 33.5455C23.2273 32.267 23.4167 31.0975 23.7955 30.0369C24.1742 28.9763 24.6998 28.0483 25.3722 27.2528C26.054 26.4574 26.8494 25.8229 27.7585 25.3494C28.6771 24.8665 29.6667 24.5682 30.7273 24.4545C31.6742 24.3598 32.536 24.4025 33.3125 24.5824C34.089 24.7528 34.7282 25.0133 35.2301 25.3636C35.732 25.7045 36.0492 26.0833 36.1818 26.5H36.3523V24.9091H39.3636V37.75C39.3636 38.5455 39.5862 39.2462 40.0312 39.8523C40.4763 40.4583 41.125 40.7614 41.9773 40.7614C42.9432 40.7614 43.6818 40.4299 44.1932 39.767C44.714 39.1042 45.0691 38.0814 45.2585 36.6989C45.4574 35.3163 45.5568 33.5455 45.5568 31.3864C45.5568 30.1174 45.3816 28.8674 45.0312 27.6364C44.6903 26.3958 44.1695 25.2358 43.4688 24.1562C42.7775 23.0767 41.9015 22.125 40.8409 21.3011C39.7803 20.4773 38.535 19.8333 37.1051 19.3693C35.6847 18.8958 34.0701 18.6591 32.2614 18.6591C30.036 18.6591 28.0426 19.0047 26.2812 19.696C24.5294 20.3778 23.0379 21.3769 21.8068 22.6932C20.5852 24 19.6525 25.5909 19.0085 27.4659C18.3741 29.3314 18.0568 31.4527 18.0568 33.8295C18.0568 36.2443 18.3741 38.3892 19.0085 40.2642C19.6525 42.1392 20.5994 43.7206 21.8494 45.0085C23.1089 46.2964 24.6667 47.2718 26.5227 47.9347C28.3788 48.607 30.5189 48.9432 32.9432 48.9432C33.9848 48.9432 35.0123 48.8438 36.0256 48.6449C37.0388 48.446 37.9337 48.2282 38.7102 47.9915C39.4867 47.7547 40.0455 47.5795 40.3864 47.4659L41.1818 50.0795C40.5947 50.3258 39.8277 50.572 38.8807 50.8182C37.9432 51.0644 36.9394 51.268 35.8693 51.429C34.8087 51.59 33.7955 51.6705 32.8295 51.6705ZM31.1818 40.3636C32.4508 40.3636 33.4782 40.108 34.2642 39.5966C35.0502 39.0852 35.6231 38.3134 35.983 37.2812C36.3428 36.2491 36.5227 34.947 36.5227 33.375C36.5227 31.7841 36.3239 30.5436 35.9261 29.6534C35.5284 28.7633 34.9413 28.1383 34.1648 27.7784C33.3883 27.4186 32.4318 27.2386 31.2955 27.2386C30.2159 27.2386 29.2926 27.5227 28.5256 28.0909C27.768 28.6496 27.1856 29.3977 26.7784 30.3352C26.3807 31.2633 26.1818 32.2765 26.1818 33.375C26.1818 34.5871 26.3428 35.7282 26.6648 36.7983C26.9867 37.8589 27.5123 38.7206 28.2415 39.3835C28.9706 40.0369 29.9508 40.3636 31.1818 40.3636Z" fill="black"/>
</svg>
