<svg width="70" height="70" viewBox="0 0 70 70" fill="none" xmlns="http://www.w3.org/2000/svg">
<path d="M16.6914 41.3906C16.4805 41.6406 16.3086 41.8008 16.1758 41.8711C16.0508 41.9414 15.8945 41.9766 15.707 41.9766C15.3398 41.9766 15.043 41.8555 14.8164 41.6133C14.5977 41.3633 14.4883 40.9531 14.4883 40.3828V38.7656C14.4883 38.1875 14.5977 37.7773 14.8164 37.5352C15.043 37.2852 15.3398 37.1602 15.707 37.1602C15.9883 37.1602 16.2227 37.2344 16.4102 37.3828C16.6055 37.5312 16.7539 37.7812 16.8555 38.1328C16.957 38.4766 17.0625 38.7109 17.1719 38.8359C17.3984 39.0781 17.8008 39.3242 18.3789 39.5742C18.957 39.8242 19.5898 39.9492 20.2773 39.9492C21.3477 39.9492 22.2266 39.6992 22.9141 39.1992C23.3516 38.8945 23.5703 38.5195 23.5703 38.0742C23.5703 37.7773 23.4648 37.5 23.2539 37.2422C23.043 36.9766 22.6992 36.7578 22.2227 36.5859C21.9102 36.4688 21.2109 36.3086 20.125 36.1055C18.8125 35.8633 17.8203 35.5703 17.1484 35.2266C16.4766 34.8828 15.9453 34.3984 15.5547 33.7734C15.1641 33.1484 14.9688 32.4727 14.9688 31.7461C14.9688 30.5977 15.4492 29.5938 16.4102 28.7344C17.3711 27.8672 18.6211 27.4336 20.1602 27.4336C20.7773 27.4336 21.3477 27.5039 21.8711 27.6445C22.4023 27.7773 22.8828 27.9844 23.3125 28.2656C23.625 27.9609 23.9375 27.8086 24.25 27.8086C24.6016 27.8086 24.8867 27.9336 25.1055 28.1836C25.332 28.4258 25.4453 28.832 25.4453 29.4023V31.207C25.4453 31.7852 25.332 32.1992 25.1055 32.4492C24.8867 32.6914 24.6016 32.8125 24.25 32.8125C23.9531 32.8125 23.6953 32.7227 23.4766 32.543C23.3047 32.4102 23.1758 32.1445 23.0898 31.7461C23.0039 31.3477 22.8945 31.0625 22.7617 30.8906C22.5352 30.5938 22.1953 30.3438 21.7422 30.1406C21.2891 29.9375 20.7656 29.8359 20.1719 29.8359C19.3047 29.8359 18.6172 30.0391 18.1094 30.4453C17.6094 30.8438 17.3594 31.2617 17.3594 31.6992C17.3594 31.9961 17.4609 32.2852 17.6641 32.5664C17.875 32.8398 18.1797 33.0547 18.5781 33.2109C18.8438 33.3203 19.5898 33.4961 20.8164 33.7383C22.0508 33.9805 22.9961 34.2461 23.6523 34.5352C24.3164 34.8242 24.8672 35.2773 25.3047 35.8945C25.7422 36.5117 25.9609 37.2461 25.9609 38.0977C25.9609 39.2852 25.543 40.2344 24.707 40.9453C23.5977 41.8828 22.1836 42.3516 20.4648 42.3516C19.8008 42.3516 19.1523 42.2695 18.5195 42.1055C17.8945 41.9492 17.2852 41.7109 16.6914 41.3906ZM30.8594 32.4375V39.5977H31.7266C32.3047 39.5977 32.7148 39.7109 32.957 39.9375C33.207 40.1562 33.332 40.4453 33.332 40.8047C33.332 41.1562 33.207 41.4453 32.957 41.6719C32.7148 41.8906 32.3047 42 31.7266 42H28.5742C27.9961 42 27.5859 41.8906 27.3438 41.6719C27.0938 41.4453 26.9688 41.1523 26.9688 40.793C26.9688 40.4414 27.0898 40.1562 27.332 39.9375C27.5742 39.7109 27.9492 39.5977 28.457 39.5977V30.1992C28.0352 30.1602 27.7148 30.0312 27.4961 29.8125C27.2852 29.5938 27.1797 29.3203 27.1797 28.9922C27.1797 28.6328 27.3008 28.3438 27.543 28.125C27.793 27.8984 28.207 27.7852 28.7852 27.7852L31.4219 27.7969L34.6914 35.0273L37.9023 27.7852L40.5625 27.7969C41.1406 27.7969 41.5508 27.9062 41.793 28.125C42.043 28.3438 42.168 28.6328 42.168 28.9922C42.168 29.3203 42.0586 29.5938 41.8398 29.8125C41.6211 30.0312 41.3047 30.1602 40.8906 30.1992V39.5977C41.3984 39.5977 41.7734 39.7109 42.0156 39.9375C42.2578 40.1641 42.3789 40.4531 42.3789 40.8047C42.3789 41.1562 42.2539 41.4453 42.0039 41.6719C41.7617 41.8906 41.3516 42 40.7734 42H37.6094C37.0391 42 36.6289 41.8906 36.3789 41.6719C36.1367 41.4453 36.0156 41.1523 36.0156 40.793C36.0156 40.4414 36.1367 40.1562 36.3789 39.9375C36.6289 39.7109 37.0391 39.5977 37.6094 39.5977H38.4883V32.4375L35.7344 38.625H33.6484L30.8594 32.4375ZM45.5195 41.3906C45.3086 41.6406 45.1367 41.8008 45.0039 41.8711C44.8789 41.9414 44.7227 41.9766 44.5352 41.9766C44.168 41.9766 43.8711 41.8555 43.6445 41.6133C43.4258 41.3633 43.3164 40.9531 43.3164 40.3828V38.7656C43.3164 38.1875 43.4258 37.7773 43.6445 37.5352C43.8711 37.2852 44.168 37.1602 44.5352 37.1602C44.8164 37.1602 45.0508 37.2344 45.2383 37.3828C45.4336 37.5312 45.582 37.7812 45.6836 38.1328C45.7852 38.4766 45.8906 38.7109 46 38.8359C46.2266 39.0781 46.6289 39.3242 47.207 39.5742C47.7852 39.8242 48.418 39.9492 49.1055 39.9492C50.1758 39.9492 51.0547 39.6992 51.7422 39.1992C52.1797 38.8945 52.3984 38.5195 52.3984 38.0742C52.3984 37.7773 52.293 37.5 52.082 37.2422C51.8711 36.9766 51.5273 36.7578 51.0508 36.5859C50.7383 36.4688 50.0391 36.3086 48.9531 36.1055C47.6406 35.8633 46.6484 35.5703 45.9766 35.2266C45.3047 34.8828 44.7734 34.3984 44.3828 33.7734C43.9922 33.1484 43.7969 32.4727 43.7969 31.7461C43.7969 30.5977 44.2773 29.5938 45.2383 28.7344C46.1992 27.8672 47.4492 27.4336 48.9883 27.4336C49.6055 27.4336 50.1758 27.5039 50.6992 27.6445C51.2305 27.7773 51.7109 27.9844 52.1406 28.2656C52.4531 27.9609 52.7656 27.8086 53.0781 27.8086C53.4297 27.8086 53.7148 27.9336 53.9336 28.1836C54.1602 28.4258 54.2734 28.832 54.2734 29.4023V31.207C54.2734 31.7852 54.1602 32.1992 53.9336 32.4492C53.7148 32.6914 53.4297 32.8125 53.0781 32.8125C52.7812 32.8125 52.5234 32.7227 52.3047 32.543C52.1328 32.4102 52.0039 32.1445 51.918 31.7461C51.832 31.3477 51.7227 31.0625 51.5898 30.8906C51.3633 30.5938 51.0234 30.3438 50.5703 30.1406C50.1172 29.9375 49.5938 29.8359 49 29.8359C48.1328 29.8359 47.4453 30.0391 46.9375 30.4453C46.4375 30.8438 46.1875 31.2617 46.1875 31.6992C46.1875 31.9961 46.2891 32.2852 46.4922 32.5664C46.7031 32.8398 47.0078 33.0547 47.4062 33.2109C47.6719 33.3203 48.418 33.4961 49.6445 33.7383C50.8789 33.9805 51.8242 34.2461 52.4805 34.5352C53.1445 34.8242 53.6953 35.2773 54.1328 35.8945C54.5703 36.5117 54.7891 37.2461 54.7891 38.0977C54.7891 39.2852 54.3711 40.2344 53.5352 40.9453C52.4258 41.8828 51.0117 42.3516 49.293 42.3516C48.6289 42.3516 47.9805 42.2695 47.3477 42.1055C46.7227 41.9492 46.1133 41.7109 45.5195 41.3906Z" fill="black"/>
</svg>
