<svg width="32" height="32" viewBox="0 0 32 32" fill="none" xmlns="http://www.w3.org/2000/svg">
<g clip-path="url(#clip0_1044_14109)">
<path d="M10.2338 10.4123V11.9569H10.2769C10.6892 11.3662 11.1877 10.9108 11.7662 10.5908C12.3446 10.2646 13.0154 10.1046 13.7662 10.1046C14.4862 10.1046 15.1446 10.2462 15.7415 10.5231C16.3385 10.8 16.7877 11.2985 17.1015 12C17.44 11.5015 17.9015 11.0585 18.48 10.6769C19.0585 10.2954 19.7477 10.1046 20.5415 10.1046C21.1446 10.1046 21.7046 10.1785 22.2215 10.3262C22.7385 10.4738 23.1754 10.7077 23.5446 11.0338C23.9138 11.36 24.1969 11.7785 24.4062 12.3015C24.6092 12.8246 24.7138 13.4523 24.7138 14.1908V21.8277H21.5815V15.36C21.5815 14.9785 21.5692 14.6154 21.5385 14.2769C21.5077 13.9385 21.4277 13.6431 21.2985 13.3969C21.1631 13.1446 20.9723 12.9477 20.7138 12.8C20.4554 12.6523 20.1046 12.5785 19.6677 12.5785C19.2246 12.5785 18.8677 12.6646 18.5969 12.8308C18.3262 13.0031 18.1108 13.2185 17.9569 13.4954C17.8031 13.7662 17.6985 14.0738 17.6492 14.4246C17.6 14.7692 17.5692 15.12 17.5692 15.4708V21.8277H14.4369V15.4277C14.4369 15.0892 14.4308 14.7569 14.4123 14.4246C14.4 14.0923 14.3323 13.7908 14.2215 13.5077C14.1108 13.2308 13.9262 13.0031 13.6677 12.8369C13.4092 12.6708 13.0338 12.5846 12.5292 12.5846C12.3815 12.5846 12.1846 12.6154 11.9446 12.6831C11.7046 12.7508 11.4646 12.8738 11.2369 13.0585C11.0092 13.2431 10.8123 13.5077 10.6523 13.8523C10.4923 14.1969 10.4123 14.6523 10.4123 15.2123V21.8338H7.28V10.4123H10.2338Z" fill="black"/>
<line x1="5" y1="1" y2="1" stroke="black" stroke-width="2"/>
<line x1="1" y1="1" x2="1" y2="32" stroke="black" stroke-width="2"/>
<line y1="31" x2="5" y2="31" stroke="black" stroke-width="2"/>
<line y1="-1" x2="5" y2="-1" transform="matrix(1 0 0 -1 27 0)" stroke="black" stroke-width="2"/>
<line y1="-1" x2="31" y2="-1" transform="matrix(0 1 1 0 32 1)" stroke="black" stroke-width="2"/>
<line y1="-1" x2="5" y2="-1" transform="matrix(-1 0 0 1 32 32)" stroke="black" stroke-width="2"/>
</g>
<defs>
<clipPath id="clip0_1044_14109">
<rect width="32" height="32" fill="white"/>
</clipPath>
</defs>
</svg>
