<svg width="56" height="56" viewBox="0 0 56 56" fill="none" xmlns="http://www.w3.org/2000/svg">
<rect width="56" height="56" fill="black"/>
<g clip-path="url(#clip0_79_6665)">
<path d="M12.8431 12.7323V43.2677H15.04V44H12V12H15.04V12.7323H12.8431Z" fill="white"/>
<path d="M22.2331 22.4122V23.9568H22.2762C22.6885 23.366 23.187 22.9106 23.7655 22.5906C24.3439 22.2645 25.0147 22.1045 25.7655 22.1045C26.4855 22.1045 27.1439 22.246 27.7408 22.523C28.3378 22.7999 28.787 23.2983 29.1008 23.9999C29.4393 23.5014 29.9008 23.0583 30.4793 22.6768C31.0578 22.2953 31.747 22.1045 32.5408 22.1045C33.1439 22.1045 33.7039 22.1783 34.2208 22.326C34.7378 22.4737 35.1747 22.7076 35.5439 23.0337C35.9131 23.3599 36.1962 23.7783 36.4054 24.3014C36.6085 24.8245 36.7131 25.4522 36.7131 26.1906V33.8276H33.5808V27.3599C33.5808 26.9783 33.5685 26.6153 33.5378 26.2768C33.507 25.9383 33.427 25.643 33.2978 25.3968C33.1624 25.1445 32.9716 24.9476 32.7131 24.7999C32.4547 24.6522 32.1039 24.5783 31.667 24.5783C31.2239 24.5783 30.867 24.6645 30.5962 24.8306C30.3255 25.003 30.1101 25.2183 29.9562 25.4953C29.8024 25.766 29.6978 26.0737 29.6485 26.4245C29.5993 26.7691 29.5685 27.1199 29.5685 27.4706V33.8276H26.4362V27.4276C26.4362 27.0891 26.4301 26.7568 26.4116 26.4245C26.3993 26.0922 26.3316 25.7906 26.2208 25.5076C26.1101 25.2306 25.9255 25.003 25.667 24.8368C25.4085 24.6706 25.0331 24.5845 24.5285 24.5845C24.3808 24.5845 24.1839 24.6153 23.9439 24.683C23.7039 24.7506 23.4639 24.8737 23.2362 25.0583C23.0085 25.243 22.8116 25.5076 22.6516 25.8522C22.4916 26.1968 22.4116 26.6522 22.4116 27.2122V33.8337H19.2793V22.4122H22.2331Z" fill="white"/>
<path d="M43.1579 43.2677V12.7323H40.9609V12H44.0009V44H40.9609V43.2677H43.1579Z" fill="white"/>
</g>
<defs>
<clipPath id="clip0_79_6665">
<rect width="32" height="32" fill="white" transform="translate(12 12)"/>
</clipPath>
</defs>
</svg>
