<?xml version="1.0" encoding="UTF-8" standalone="no"?>
<svg
   xmlns:dc="http://purl.org/dc/elements/1.1/"
   xmlns:cc="http://creativecommons.org/ns#"
   xmlns:rdf="http://www.w3.org/1999/02/22-rdf-syntax-ns#"
   xmlns:svg="http://www.w3.org/2000/svg"
   xmlns="http://www.w3.org/2000/svg"
   xmlns:sodipodi="http://sodipodi.sourceforge.net/DTD/sodipodi-0.dtd"
   xmlns:inkscape="http://www.inkscape.org/namespaces/inkscape"
   height="271.29001"
   width="577.11548"
   inkscape:version="1.0rc1 (09960d6, 2020-04-09)"
   sodipodi:docname="2020-04-14-stateresv2-1.svg"
   id="svg101"
   stroke-miterlimit="10"
   stroke-linecap="square"
   stroke="none"
   fill="none"
   viewBox="0 0 577.11548 271.29"
   version="1.1">
  <metadata
     id="metadata107">
    <rdf:RDF>
      <cc:Work
         rdf:about="">
        <dc:format>image/svg+xml</dc:format>
        <dc:type
           rdf:resource="http://purl.org/dc/dcmitype/StillImage" />
        <dc:title></dc:title>
      </cc:Work>
    </rdf:RDF>
  </metadata>
  <defs
     id="defs105" />
  <sodipodi:namedview
     fit-margin-bottom="15"
     fit-margin-right="15"
     fit-margin-left="15"
     fit-margin-top="15"
     inkscape:current-layer="svg101"
     inkscape:window-maximized="0"
     inkscape:window-y="23"
     inkscape:window-x="0"
     inkscape:cy="22.623226"
     inkscape:cx="417.11245"
     inkscape:zoom="0.85069444"
     showgrid="false"
     id="namedview103"
     inkscape:window-height="912"
     inkscape:window-width="1486"
     inkscape:pageshadow="2"
     inkscape:pageopacity="0"
     guidetolerance="10"
     gridtolerance="10"
     objecttolerance="10"
     borderopacity="1"
     bordercolor="#666666"
     pagecolor="#ffffff" />
  <clipPath
     id="p.0">
    <path
       inkscape:connector-curvature="0"
       id="path10"
       clip-rule="nonzero"
       d="M 0,0 H 1152 V 864 H 0 Z" />
  </clipPath>
  <path
     fill="#cfe2f3"
     d="m 15.5,67.5427 v 0 c 0,-4.50824 3.654652,-8.1629 8.162891,-8.1629 H 160.34499 c 2.16493,0 4.24119,0.86001 5.77203,2.39085 1.53084,1.53085 2.39086,3.60712 2.39086,5.77205 v 32.65059 c 0,4.50824 -3.65465,8.16289 -8.16289,8.16289 H 23.662891 c -4.50824,0 -8.162891,-3.65465 -8.162891,-8.16289 z"
     fill-rule="evenodd"
     id="path15"
     inkscape:connector-curvature="0" />
  <path
     stroke="#000000"
     stroke-width="1"
     stroke-linejoin="round"
     stroke-linecap="butt"
     d="m 15.5,67.5427 v 0 c 0,-4.50824 3.654652,-8.1629 8.162891,-8.1629 H 160.34499 c 2.16493,0 4.24119,0.86001 5.77203,2.39085 1.53084,1.53085 2.39086,3.60712 2.39086,5.77205 v 32.65059 c 0,4.50824 -3.65465,8.16289 -8.16289,8.16289 H 23.662891 c -4.50824,0 -8.162891,-3.65465 -8.162891,-8.16289 z"
     fill-rule="evenodd"
     id="path17"
     inkscape:connector-curvature="0" />
  <path
     fill="#000000"
     d="m 85.654022,80.66799 h -2.09375 l -0.84375,-2.17188 h -3.8125 l -0.78125,2.17188 h -2.04687 l 3.71875,-9.54688 h 2.03124 z m -3.54688,-3.78125 -1.3125,-3.53125 -1.29687,3.53125 z m 4.54703,3.78125 v -9.54688 h 1.82813 v 9.54688 z m 3.70299,-7.84375 v -1.70313 h 1.82813 v 1.70313 z m 0,7.84375 v -6.90625 h 1.82813 v 6.90625 z m 9.734238,-4.875 -1.796878,0.32812 q -0.0937,-0.53125 -0.42187,-0.79687 -0.32813,-0.28125 -0.82813,-0.28125 -0.6875,0 -1.09375,0.46875 -0.40625,0.46875 -0.40625,1.57812 0,1.23438 0.40625,1.75 0.42188,0.5 1.10938,0.5 0.53125,0 0.85937,-0.29687 0.32813,-0.29688 0.46875,-1.03125 l 1.796878,0.3125 q -0.281248,1.23437 -1.078128,1.875 -0.79687,0.625 -2.125,0.625 -1.51562,0 -2.42187,-0.95313 -0.90625,-0.95312 -0.90625,-2.65625 0,-1.70312 0.90625,-2.65625 0.90625,-0.95312 2.45312,-0.95312 1.26563,0 2,0.54687 0.75,0.53125 1.078128,1.64063 z m 5.38122,2.67187 1.82813,0.3125 q -0.34375,1 -1.10938,1.53125 -0.76562,0.51563 -1.89062,0.51563 -1.8125,0 -2.67188,-1.17188 -0.6875,-0.95312 -0.6875,-2.39062 0,-1.71875 0.89063,-2.6875 0.90625,-0.96875 2.28125,-0.96875 1.54687,0 2.4375,1.01562 0.89062,1.01563 0.84375,3.125 h -4.57813 q 0.0156,0.8125 0.4375,1.26563 0.42188,0.45312 1.0625,0.45312 0.42188,0 0.71875,-0.23437 0.29688,-0.23438 0.4375,-0.76563 z m 0.10938,-1.84375 q -0.0156,-0.79687 -0.40625,-1.20312 -0.39063,-0.42188 -0.95313,-0.42188 -0.59375,0 -0.98437,0.4375 -0.39063,0.4375 -0.39063,1.1875 z"
     fill-rule="nonzero"
     id="path19"
     inkscape:connector-curvature="0" />
  <path
     fill="#000000"
     d="m 29.547512,96.66799 v -6.90625 h 1.046875 v 0.96875 q 0.328125,-0.51563 0.859375,-0.8125 0.546875,-0.3125 1.234375,-0.3125 0.78125,0 1.265625,0.3125 0.484375,0.3125 0.6875,0.89062 0.828125,-1.20312 2.140625,-1.20312 1.03125,0 1.578125,0.57812 0.5625,0.5625 0.5625,1.73438 v 4.75 h -1.171875 v -4.35938 q 0,-0.70312 -0.125,-1 -0.109375,-0.3125 -0.40625,-0.5 -0.296875,-0.1875 -0.703125,-0.1875 -0.71875,0 -1.203125,0.48438 -0.484375,0.48437 -0.484375,1.54687 v 4.01563 h -1.171875 v -4.48438 q 0,-0.78125 -0.296875,-1.17187 -0.28125,-0.39063 -0.921875,-0.39063 -0.5,0 -0.921875,0.26563 -0.421875,0.25 -0.609375,0.75 -0.1875,0.5 -0.1875,1.45312 v 3.57813 z m 11.430557,0 v -1.32813 h 1.34375 v 1.32813 z m 3.359238,0 v -6.90625 h 1.0625 v 1.04687 q 0.40625,-0.73437 0.734375,-0.96875 0.34375,-0.23437 0.765625,-0.23437 0.59375,0 1.203125,0.375 l -0.40625,1.07812 q -0.4375,-0.25 -0.859375,-0.25 -0.390625,0 -0.703125,0.23438 -0.296875,0.23437 -0.421875,0.64062 -0.203125,0.625 -0.203125,1.35938 v 3.625 z m 4.016495,-3.45313 q 0,-1.92187 1.078125,-2.84375 0.890625,-0.76562 2.171875,-0.76562 1.42187,0 2.32812,0.9375 0.90625,0.92187 0.90625,2.57812 0,1.32813 -0.40625,2.09375 -0.39062,0.76563 -1.15625,1.1875 -0.76562,0.42188 -1.67187,0.42188 -1.453125,0 -2.359375,-0.92188 -0.890625,-0.9375 -0.890625,-2.6875 z m 1.203125,0 q 0,1.32813 0.578125,1.98438 0.59375,0.65625 1.46875,0.65625 0.875,0 1.45312,-0.65625 0.57813,-0.67188 0.57813,-2.03125 0,-1.28125 -0.59375,-1.9375 -0.57813,-0.65625 -1.4375,-0.65625 -0.875,0 -1.46875,0.65625 -0.578125,0.65625 -0.578125,1.98437 z m 6.209355,0 q 0,-1.92187 1.07812,-2.84375 0.89063,-0.76562 2.17188,-0.76562 1.42187,0 2.32812,0.9375 0.90625,0.92187 0.90625,2.57812 0,1.32813 -0.40625,2.09375 -0.39062,0.76563 -1.15625,1.1875 -0.76562,0.42188 -1.67187,0.42188 -1.45313,0 -2.35938,-0.92188 -0.89062,-0.9375 -0.89062,-2.6875 z m 1.20312,0 q 0,1.32813 0.57813,1.98438 0.59375,0.65625 1.46875,0.65625 0.875,0 1.45312,-0.65625 0.57813,-0.67188 0.57813,-2.03125 0,-1.28125 -0.59375,-1.9375 -0.57813,-0.65625 -1.4375,-0.65625 -0.875,0 -1.46875,0.65625 -0.57813,0.65625 -0.57813,1.98437 z m 6.64685,3.45313 v -6.90625 h 1.04688 v 0.96875 q 0.32812,-0.51563 0.85937,-0.8125 0.54688,-0.3125 1.23438,-0.3125 0.78125,0 1.26562,0.3125 0.48438,0.3125 0.6875,0.89062 0.82813,-1.20312 2.14063,-1.20312 1.03125,0 1.57812,0.57812 0.5625,0.5625 0.5625,1.73438 v 4.75 h -1.17187 v -4.35938 q 0,-0.70312 -0.125,-1 -0.10938,-0.3125 -0.40625,-0.5 -0.29688,-0.1875 -0.70313,-0.1875 -0.71875,0 -1.20312,0.48438 -0.48438,0.48437 -0.48438,1.54687 v 4.01563 h -1.17187 v -4.48438 q 0,-0.78125 -0.29688,-1.17187 -0.28125,-0.39063 -0.92187,-0.39063 -0.5,0 -0.92188,0.26563 -0.42187,0.25 -0.60937,0.75 -0.1875,0.5 -0.1875,1.45312 v 3.57813 z m 11.43056,0 v -1.32813 h 1.34375 v 1.32813 z m 3.37486,2.65625 v -9.5625 h 1.07813 v 0.89062 q 0.375,-0.53125 0.84375,-0.78125 0.48437,-0.26562 1.15625,-0.26562 0.875,0 1.54687,0.45312 0.6875,0.45313 1.03125,1.28125 0.34375,0.82813 0.34375,1.82813 0,1.04687 -0.375,1.90625 -0.375,0.84375 -1.10937,1.29687 -0.71875,0.45313 -1.53125,0.45313 -0.57813,0 -1.04688,-0.25 -0.46875,-0.25 -0.76562,-0.625 v 3.375 z m 1.0625,-6.07813 q 0,1.34375 0.53125,1.98438 0.54688,0.625 1.3125,0.625 0.78125,0 1.34375,-0.65625 0.5625,-0.65625 0.5625,-2.04688 0,-1.3125 -0.54687,-1.96875 -0.54688,-0.67187 -1.29688,-0.67187 -0.75,0 -1.32812,0.70312 -0.57813,0.70313 -0.57813,2.03125 z m 5.91248,-0.0312 q 0,-1.92187 1.07812,-2.84375 0.89063,-0.76562 2.17188,-0.76562 1.42187,0 2.32812,0.9375 0.90625,0.92187 0.90625,2.57812 0,1.32813 -0.40625,2.09375 -0.39062,0.76563 -1.15625,1.1875 -0.76562,0.42188 -1.67187,0.42188 -1.45313,0 -2.35938,-0.92188 -0.89062,-0.9375 -0.89062,-2.6875 z m 1.20312,0 q 0,1.32813 0.57813,1.98438 0.59375,0.65625 1.46875,0.65625 0.875,0 1.45312,-0.65625 0.57813,-0.67188 0.57813,-2.03125 0,-1.28125 -0.59375,-1.9375 -0.57813,-0.65625 -1.4375,-0.65625 -0.875,0 -1.46875,0.65625 -0.57813,0.65625 -0.57813,1.98437 z m 7.9281,3.45313 -2.125,-6.90625 h 1.21875 l 1.09375,3.98437 0.42188,1.48438 q 0.0156,-0.10938 0.35937,-1.42188 l 1.09375,-4.04687 h 1.20313 l 1.03125,4 0.34375,1.32812 0.40625,-1.34375 1.171868,-3.98437 h 1.14063 l -2.156248,6.90625 h -1.21875 l -1.09375,-4.14063 -0.26563,-1.17187 -1.40625,5.3125 z m 13.078278,-2.21875 1.20312,0.14062 q -0.28125,1.0625 -1.0625,1.65625 -0.76562,0.57813 -1.96875,0.57813 -1.51562,0 -2.40625,-0.9375 -0.89062,-0.9375 -0.89062,-2.60938 0,-1.75 0.89062,-2.70312 0.90625,-0.96875 2.34375,-0.96875 1.39063,0 2.26563,0.9375 0.875,0.9375 0.875,2.65625 0,0.10937 0,0.3125 h -5.15625 q 0.0625,1.14062 0.64062,1.75 0.57813,0.59375 1.4375,0.59375 0.65625,0 1.10938,-0.32813 0.45312,-0.34375 0.71875,-1.07812 z m -3.84375,-1.90625 h 3.85937 q -0.0781,-0.85938 -0.4375,-1.29688 -0.5625,-0.6875 -1.45312,-0.6875 -0.8125,0 -1.35938,0.54688 -0.54687,0.53125 -0.60937,1.4375 z m 6.50623,4.125 v -6.90625 h 1.0625 v 1.04687 q 0.40625,-0.73437 0.73437,-0.96875 0.34375,-0.23437 0.76563,-0.23437 0.59375,0 1.20312,0.375 l -0.40625,1.07812 q -0.4375,-0.25 -0.85937,-0.25 -0.39063,0 -0.70313,0.23438 -0.29687,0.23437 -0.42187,0.64062 -0.20313,0.625 -0.20313,1.35938 v 3.625 z m 3.37586,2.65625 v -0.85938 h 7.76563 v 0.85938 z m 8.47498,-2.65625 v -9.54688 h 1.17188 v 9.54688 z m 7.71109,-2.21875 1.20313,0.14062 q -0.28125,1.0625 -1.0625,1.65625 -0.76563,0.57813 -1.96875,0.57813 -1.51563,0 -2.40625,-0.9375 -0.89063,-0.9375 -0.89063,-2.60938 0,-1.75 0.89063,-2.70312 0.90625,-0.96875 2.34375,-0.96875 1.39062,0 2.26562,0.9375 0.875,0.9375 0.875,2.65625 0,0.10937 0,0.3125 h -5.15625 q 0.0625,1.14062 0.64063,1.75 0.57812,0.59375 1.4375,0.59375 0.65625,0 1.10937,-0.32813 0.45313,-0.34375 0.71875,-1.07812 z m -3.84375,-1.90625 h 3.85938 q -0.0781,-0.85938 -0.4375,-1.29688 -0.5625,-0.6875 -1.45313,-0.6875 -0.8125,0 -1.35937,0.54688 -0.54688,0.53125 -0.60938,1.4375 z m 8.44373,4.125 -2.625,-6.90625 h 1.23437 l 1.48438,4.14062 q 0.23437,0.65625 0.4375,1.39063 0.15625,-0.54688 0.4375,-1.3125 l 1.53125,-4.21875 h 1.21875 l -2.625,6.90625 z m 9.47656,-2.21875 1.20312,0.14062 q -0.28125,1.0625 -1.0625,1.65625 -0.76562,0.57813 -1.96875,0.57813 -1.51562,0 -2.40625,-0.9375 -0.89062,-0.9375 -0.89062,-2.60938 0,-1.75 0.89062,-2.70312 0.90625,-0.96875 2.34375,-0.96875 1.39063,0 2.26563,0.9375 0.875,0.9375 0.875,2.65625 0,0.10937 0,0.3125 h -5.15625 q 0.0625,1.14062 0.64062,1.75 0.57813,0.59375 1.4375,0.59375 0.65625,0 1.10938,-0.32813 0.45312,-0.34375 0.71875,-1.07812 z m -3.84375,-1.90625 h 3.85937 q -0.0781,-0.85938 -0.4375,-1.29688 -0.5625,-0.6875 -1.45312,-0.6875 -0.8125,0 -1.35938,0.54688 -0.54687,0.53125 -0.60937,1.4375 z m 6.50623,4.125 v -9.54688 h 1.17187 v 9.54688 z m 2.50796,-2.0625 1.15625,-0.1875 q 0.10938,0.70312 0.54688,1.07812 0.45312,0.35938 1.25,0.35938 0.8125,0 1.20312,-0.32813 0.39063,-0.32812 0.39063,-0.76562 0,-0.39063 -0.35938,-0.625 -0.23437,-0.15625 -1.1875,-0.39063 -1.29687,-0.32812 -1.79687,-0.5625 -0.48438,-0.25 -0.75,-0.65625 -0.25,-0.42187 -0.25,-0.9375 0,-0.45312 0.20312,-0.84375 0.21875,-0.40625 0.57813,-0.67187 0.28125,-0.1875 0.75,-0.32813 0.46875,-0.14062 1.01562,-0.14062 0.8125,0 1.42188,0.23437 0.60937,0.23438 0.90625,0.64063 0.29687,0.39062 0.40625,1.0625 l -1.14063,0.15625 q -0.0781,-0.53125 -0.45312,-0.82813 -0.375,-0.3125 -1.0625,-0.3125 -0.8125,0 -1.15625,0.26563 -0.34375,0.26562 -0.34375,0.625 0,0.23437 0.14062,0.42187 0.15625,0.1875 0.45313,0.3125 0.17187,0.0625 1.03125,0.29688 1.25,0.32812 1.73437,0.54687 0.5,0.20313 0.78125,0.60938 0.28125,0.40625 0.28125,1 0,0.59375 -0.34375,1.10937 -0.34375,0.51563 -1,0.79688 -0.64062,0.28125 -1.45312,0.28125 -1.34375,0 -2.04688,-0.5625 -0.70312,-0.5625 -0.90625,-1.65625 z"
     fill-rule="nonzero"
     id="path21"
     inkscape:connector-curvature="0" />
  <path
     fill="#000000"
     fill-opacity="0"
     d="M 75.673232,15.51629 H 108.33465 V 59.3588 H 75.673232 Z"
     fill-rule="evenodd"
     id="path23"
     inkscape:connector-curvature="0" />
  <path
     fill="#000000"
     d="m 101.9076,47.55628 h -3.765628 l -1.5,-3.90625 h -6.875 l -1.40625,3.90625 h -3.6875 l 6.6875,-17.18749 h 3.67188 z m -6.374998,-6.79688 -2.375,-6.375 -2.3125,6.375 z"
     fill-rule="nonzero"
     id="path25"
     inkscape:connector-curvature="0" />
  <path
     fill="#000000"
     fill-opacity="0"
     d="m 15.5,108.35618 h 153.00787 v 48.97638 H 15.5 Z"
     fill-rule="evenodd"
     id="path27"
     inkscape:connector-curvature="0" />
  <path
     fill="#000000"
     d="m 59.806102,131.43618 4.01563,-10.48438 h 1.5 l 4.29687,10.48438 h -1.57812 l -1.23438,-3.17188 h -4.375 l -1.15625,3.17188 z m 3.01563,-4.3125 h 3.5625 l -1.09375,-2.90625 q -0.5,-1.3125 -0.75,-2.17188 -0.20313,1.01563 -0.5625,2 z m 7.7131,4.3125 V 120.9518 h 1.28125 v 10.48438 z m 3.2874,-9.01563 v -1.46875 h 1.29687 v 1.46875 z m 0,9.01563 v -7.59375 h 1.29687 v 7.59375 z m 8.20927,-2.78125 1.26563,0.15625 q -0.20313,1.3125 -1.0625,2.0625 -0.84375,0.73437 -2.09375,0.73437 -1.5625,0 -2.51563,-1.01562 -0.9375,-1.03125 -0.9375,-2.92188 0,-1.23437 0.40625,-2.15625 0.40625,-0.92187 1.23438,-1.375 0.84375,-0.46875 1.8125,-0.46875 1.25,0 2.03125,0.625 0.78125,0.625 1.01562,1.76563 l -1.26562,0.20312 q -0.17188,-0.76562 -0.625,-1.15625 -0.45313,-0.39062 -1.09375,-0.39062 -0.98438,0 -1.59375,0.70312 -0.60938,0.70313 -0.60938,2.20313 0,1.53125 0.57813,2.23437 0.59375,0.6875 1.54687,0.6875 0.75,0 1.26563,-0.45312 0.51562,-0.46875 0.64062,-1.4375 z m 7.57813,0.32812 1.32812,0.17188 q -0.3125,1.17187 -1.17187,1.8125 -0.84375,0.64062 -2.17188,0.64062 -1.67187,0 -2.65625,-1.01562 -0.96875,-1.03125 -0.96875,-2.89063 0,-1.92187 0.98438,-2.96875 1,-1.0625 2.57812,-1.0625 1.51563,0 2.48438,1.03125 0.96875,1.03125 0.96875,2.92188 0,0.10937 -0.0156,0.34375 h -5.65625 q 0.0625,1.25 0.70313,1.92187 0.64062,0.65625 1.59375,0.65625 0.70312,0 1.20312,-0.35937 0.5,-0.375 0.79688,-1.20313 z m -4.23438,-2.07812 h 4.25 q -0.0937,-0.95313 -0.48437,-1.4375 -0.625,-0.75 -1.60938,-0.75 -0.875,0 -1.48437,0.59375 -0.60938,0.59375 -0.67188,1.59375 z m 7.54174,-1.60938 v -1.45312 h 1.46875 v 1.45312 z m 0,6.14063 v -1.46875 h 1.46875 v 1.46875 z m 12.268948,0 h -1.28125 v -8.20313 q -0.46875,0.4375 -1.21875,0.89063 -0.75,0.4375 -1.35938,0.65625 v -1.25 q 1.07813,-0.5 1.89063,-1.21875 0.8125,-0.73438 1.14062,-1.40625 h 0.82813 z m 3.30735,-5.17188 q 0,-1.85937 0.375,-2.98437 0.39063,-1.14063 1.14063,-1.75 0.76562,-0.625 1.90625,-0.625 0.84375,0 1.46875,0.34375 0.64062,0.32812 1.0625,0.96875 0.42187,0.64062 0.65625,1.5625 0.23437,0.92187 0.23437,2.48437 0,1.84375 -0.39062,2.98438 -0.375,1.125 -1.125,1.75 -0.75,0.60937 -1.90625,0.60937 -1.51563,0 -2.39063,-1.07812 -1.03125,-1.3125 -1.03125,-4.26563 z m 1.32813,0 q 0,2.57813 0.59375,3.4375 0.60937,0.85938 1.5,0.85938 0.89062,0 1.48437,-0.85938 0.60938,-0.85937 0.60938,-3.4375 0,-2.59375 -0.60938,-3.4375 -0.59375,-0.85937 -1.5,-0.85937 -0.89062,0 -1.42187,0.75 -0.65625,0.96875 -0.65625,3.54687 z m 6.82298,0 q 0,-1.85937 0.375,-2.98437 0.39063,-1.14063 1.14063,-1.75 0.76562,-0.625 1.90625,-0.625 0.84375,0 1.46875,0.34375 0.64062,0.32812 1.0625,0.96875 0.42187,0.64062 0.65625,1.5625 0.23437,0.92187 0.23437,2.48437 0,1.84375 -0.39062,2.98438 -0.375,1.125 -1.125,1.75 -0.75,0.60937 -1.90625,0.60937 -1.51563,0 -2.39063,-1.07812 -1.03125,-1.3125 -1.03125,-4.26563 z m 1.32813,0 q 0,2.57813 0.59375,3.4375 0.60937,0.85938 1.5,0.85938 0.89062,0 1.48437,-0.85938 0.60938,-0.85937 0.60938,-3.4375 0,-2.59375 -0.60938,-3.4375 -0.59375,-0.85937 -1.5,-0.85937 -0.89062,0 -1.42187,0.75 -0.65625,0.96875 -0.65625,3.54687 z"
     fill-rule="nonzero"
     id="path29"
     inkscape:connector-curvature="0" />
  <path
     fill="#000000"
     d="m 62.134332,138.95181 h 4.1875 q 1.25,0 1.85937,0.10937 0.60938,0.0937 1.09375,0.42188 0.48438,0.32812 0.79688,0.875 0.32812,0.54687 0.32812,1.23437 0,0.73438 -0.40625,1.35938 -0.39062,0.60937 -1.0625,0.90625 0.95313,0.28125 1.46875,0.95312 0.51563,0.67188 0.51563,1.57813 0,0.71875 -0.32813,1.40625 -0.32812,0.67187 -0.90625,1.07812 -0.57812,0.39063 -1.42187,0.48438 -0.53125,0.0625 -2.5625,0.0781 h -3.5625 z m 2.10937,1.73437 v 2.4375 h 1.39063 q 1.23437,0 1.54687,-0.0469 0.53125,-0.0625 0.84375,-0.375 0.3125,-0.3125 0.3125,-0.8125 0,-0.48438 -0.26562,-0.78125 -0.26563,-0.3125 -0.79688,-0.375 -0.3125,-0.0469 -1.8125,-0.0469 z m 0,4.17188 v 2.8125 h 1.96875 q 1.14063,0 1.45313,-0.0625 0.46875,-0.0937 0.76562,-0.42188 0.29688,-0.32812 0.29688,-0.89062 0,-0.46875 -0.23438,-0.79688 -0.21875,-0.32812 -0.65625,-0.48437 -0.4375,-0.15625 -1.875,-0.15625 z m 7.99052,0.67187 q 0,-1 0.48438,-1.9375 0.5,-0.9375 1.40625,-1.42187 0.90625,-0.5 2.01562,-0.5 1.71875,0 2.82813,1.125 1.10937,1.10937 1.10937,2.8125 0,1.73437 -1.125,2.875 -1.10937,1.125 -2.79687,1.125 -1.04688,0 -2,-0.46875 -0.9375,-0.46875 -1.4375,-1.375 -0.48438,-0.92188 -0.48438,-2.23438 z m 2.04688,0.10938 q 0,1.125 0.53125,1.73437 0.54687,0.59375 1.34375,0.59375 0.78125,0 1.3125,-0.59375 0.53125,-0.60937 0.53125,-1.75 0,-1.125 -0.53125,-1.71875 -0.53125,-0.60937 -1.3125,-0.60937 -0.79688,0 -1.34375,0.60937 -0.53125,0.59375 -0.53125,1.73438 z m 7.28075,3.79687 v -10.48437 h 2.01563 v 3.76562 q 0.92187,-1.04687 2.20312,-1.04687 1.375,0 2.28125,1 0.92188,1 0.92188,2.89062 0,1.9375 -0.9375,3 -0.92188,1.04688 -2.25,1.04688 -0.64063,0 -1.28125,-0.32813 -0.625,-0.32812 -1.09375,-0.95312 v 1.10937 z m 2,-3.96875 q 0,1.1875 0.35938,1.75 0.53125,0.79688 1.39062,0.79688 0.67188,0 1.14063,-0.5625 0.46875,-0.57813 0.46875,-1.79688 0,-1.29687 -0.48438,-1.875 -0.46875,-0.57812 -1.20312,-0.57812 -0.71875,0 -1.20313,0.5625 -0.46875,0.5625 -0.46875,1.70312 z m 7.42137,-1.625 v -2 h 2.01563 v 2 z m 0,5.59375 v -2.01562 h 2.01563 v 2.01562 z m 13.280748,0 h -2.01562 v -7.57812 q -1.09375,1.03125 -2.593748,1.53125 v -1.82813 q 0.796868,-0.26562 1.718748,-0.98437 0.92187,-0.71875 1.26562,-1.67188 h 1.625 z m 6.40111,-10.53125 q 1.53125,0 2.39062,1.07813 1.01563,1.29687 1.01563,4.28125 0,2.96875 -1.03125,4.28125 -0.84375,1.0625 -2.375,1.0625 -1.53125,0 -2.46875,-1.17188 -0.9375,-1.17187 -0.9375,-4.20312 0,-2.95313 1.03125,-4.25 0.85937,-1.07813 2.375,-1.07813 z m 0,1.67188 q -0.35938,0 -0.65625,0.23437 -0.28125,0.21875 -0.4375,0.82813 -0.20313,0.78125 -0.20313,2.625 0,1.84375 0.1875,2.53125 0.1875,0.6875 0.46875,0.92187 0.28125,0.23438 0.64063,0.23438 0.375,0 0.65625,-0.23438 0.28125,-0.23437 0.4375,-0.84375 0.21875,-0.76562 0.21875,-2.60937 0,-1.84375 -0.1875,-2.53125 -0.1875,-0.70313 -0.46875,-0.92188 -0.28125,-0.23437 -0.65625,-0.23437 z m 8.15111,-1.67188 q 1.53125,0 2.39062,1.07813 1.01563,1.29687 1.01563,4.28125 0,2.96875 -1.03125,4.28125 -0.84375,1.0625 -2.375,1.0625 -1.53125,0 -2.46875,-1.17188 -0.9375,-1.17187 -0.9375,-4.20312 0,-2.95313 1.03125,-4.25 0.85937,-1.07813 2.375,-1.07813 z m 0,1.67188 q -0.35938,0 -0.65625,0.23437 -0.28125,0.21875 -0.4375,0.82813 -0.20313,0.78125 -0.20313,2.625 0,1.84375 0.1875,2.53125 0.1875,0.6875 0.46875,0.92187 0.28125,0.23438 0.64063,0.23438 0.375,0 0.65625,-0.23438 0.28125,-0.23437 0.4375,-0.84375 0.21875,-0.76562 0.21875,-2.60937 0,-1.84375 -0.1875,-2.53125 -0.1875,-0.70313 -0.46875,-0.92188 -0.28125,-0.23437 -0.65625,-0.23437 z"
     fill-rule="nonzero"
     id="path31"
     inkscape:connector-curvature="0" />
  <path
     fill="#cfe2f3"
     d="m 212.05381,67.02641 v 0 c 0,-4.50824 3.65463,-8.16289 8.16287,-8.16289 h 136.6821 c 2.16495,0 4.24121,0.86002 5.77204,2.39086 1.53085,1.53083 2.39086,3.6071 2.39086,5.77203 V 99.677 c 0,4.50824 -3.65466,8.1629 -8.1629,8.1629 h -136.6821 c -4.50824,0 -8.16287,-3.65466 -8.16287,-8.1629 z"
     fill-rule="evenodd"
     id="path33"
     inkscape:connector-curvature="0" />
  <path
     stroke="#000000"
     stroke-width="1"
     stroke-linejoin="round"
     stroke-linecap="butt"
     d="m 212.05381,67.02641 v 0 c 0,-4.50824 3.65463,-8.16289 8.16287,-8.16289 h 136.6821 c 2.16495,0 4.24121,0.86002 5.77204,2.39086 1.53085,1.53083 2.39086,3.6071 2.39086,5.77203 V 99.677 c 0,4.50824 -3.65466,8.1629 -8.1629,8.1629 h -136.6821 c -4.50824,0 -8.16287,-3.65466 -8.16287,-8.1629 z"
     fill-rule="evenodd"
     id="path35"
     inkscape:connector-curvature="0" />
  <path
     fill="#000000"
     d="m 276.57256,70.60482 h 3.82812 q 1.125,0 1.67188,0.0937 0.5625,0.0937 1,0.40625 0.4375,0.29687 0.73437,0.79687 0.29688,0.5 0.29688,1.10938 0,0.67187 -0.35938,1.23437 -0.35937,0.5625 -0.98437,0.84375 0.875,0.25 1.34375,0.85938 0.46875,0.60937 0.46875,1.4375 0,0.65625 -0.3125,1.26562 -0.29688,0.60938 -0.82813,0.98438 -0.51562,0.35937 -1.28125,0.45312 -0.48437,0.0469 -2.32812,0.0625 h -3.25 z m 1.9375,1.59375 v 2.20312 h 1.26562 q 1.125,0 1.39063,-0.0312 0.5,-0.0625 0.78125,-0.34375 0.28125,-0.28125 0.28125,-0.73437 0,-0.45313 -0.25,-0.71875 -0.23438,-0.28125 -0.71875,-0.34375 -0.28125,-0.0312 -1.64063,-0.0312 z m 0,3.79687 v 2.54688 h 1.78125 q 1.04687,0 1.3125,-0.0625 0.4375,-0.0781 0.70312,-0.375 0.26563,-0.29688 0.26563,-0.8125 0,-0.42188 -0.20313,-0.71875 -0.20312,-0.3125 -0.60937,-0.4375 -0.39063,-0.14063 -1.70313,-0.14063 z m 7.25015,0.60938 q 0,-0.92188 0.45313,-1.76563 0.45312,-0.85937 1.26562,-1.29687 0.82813,-0.45313 1.84375,-0.45313 1.5625,0 2.5625,1.01563 1.01563,1.01562 1.01563,2.57812 0,1.5625 -1.01563,2.59375 -1.01562,1.03125 -2.54687,1.03125 -0.95313,0 -1.8125,-0.42187 -0.85938,-0.4375 -1.3125,-1.26563 -0.45313,-0.82812 -0.45313,-2.01562 z m 1.875,0.0937 q 0,1.03125 0.48438,1.57812 0.5,0.54688 1.20312,0.54688 0.71875,0 1.20313,-0.54688 0.48437,-0.54687 0.48437,-1.59375 0,-1.01562 -0.48437,-1.5625 -0.48438,-0.54687 -1.20313,-0.54687 -0.70312,0 -1.20312,0.54687 -0.48438,0.54688 -0.48438,1.57813 z m 6.61011,3.45312 v -9.54687 h 1.82812 v 3.4375 q 0.84375,-0.95313 2.01563,-0.95313 1.25,0 2.07812,0.92188 0.82813,0.90625 0.82813,2.60937 0,1.78125 -0.84375,2.73438 -0.84375,0.95312 -2.04688,0.95312 -0.59375,0 -1.17187,-0.29687 -0.5625,-0.29688 -0.98438,-0.875 v 1.01562 z m 1.8125,-3.60937 q 0,1.07812 0.34375,1.59375 0.46875,0.73437 1.26562,0.73437 0.60938,0 1.03125,-0.51562 0.42188,-0.53125 0.42188,-1.64063 0,-1.1875 -0.4375,-1.70312 -0.42188,-0.53125 -1.09375,-0.53125 -0.65625,0 -1.09375,0.51562 -0.4375,0.51563 -0.4375,1.54688 z"
     fill-rule="nonzero"
     id="path37"
     inkscape:connector-curvature="0" />
  <path
     fill="#000000"
     d="m 226.10133,96.1517 v -6.90625 h 1.04687 v 0.96875 q 0.32813,-0.51563 0.85938,-0.8125 0.54687,-0.3125 1.23437,-0.3125 0.78125,0 1.26563,0.3125 0.48437,0.3125 0.6875,0.89062 0.82812,-1.20312 2.14062,-1.20312 1.03125,0 1.57813,0.57812 0.5625,0.5625 0.5625,1.73438 v 4.75 h -1.17188 v -4.35938 q 0,-0.70312 -0.125,-1 -0.10937,-0.3125 -0.40625,-0.5 -0.29687,-0.1875 -0.70312,-0.1875 -0.71875,0 -1.20313,0.48438 -0.48437,0.48437 -0.48437,1.54687 v 4.01563 h -1.17188 v -4.48438 q 0,-0.78125 -0.29687,-1.17187 -0.28125,-0.39063 -0.92188,-0.39063 -0.5,0 -0.92187,0.26563 -0.42188,0.25 -0.60938,0.75 -0.1875,0.5 -0.1875,1.45312 v 3.57813 z m 11.43054,0 v -1.32813 h 1.34375 v 1.32813 z m 3.35926,0 v -6.90625 h 1.0625 v 1.04687 q 0.40625,-0.73437 0.73437,-0.96875 0.34375,-0.23437 0.76563,-0.23437 0.59375,0 1.20312,0.375 l -0.40625,1.07812 q -0.4375,-0.25 -0.85937,-0.25 -0.39063,0 -0.70313,0.23438 -0.29687,0.23437 -0.42187,0.64062 -0.20313,0.625 -0.20313,1.35938 v 3.625 z m 4.01647,-3.45313 q 0,-1.92187 1.07813,-2.84375 0.89062,-0.76562 2.17187,-0.76562 1.42188,0 2.32813,0.9375 0.90625,0.92187 0.90625,2.57812 0,1.32813 -0.40625,2.09375 -0.39063,0.76563 -1.15625,1.1875 -0.76563,0.42188 -1.67188,0.42188 -1.45312,0 -2.35937,-0.92188 -0.89063,-0.9375 -0.89063,-2.6875 z m 1.20313,0 q 0,1.32813 0.57812,1.98438 0.59375,0.65625 1.46875,0.65625 0.875,0 1.45313,-0.65625 0.57812,-0.67188 0.57812,-2.03125 0,-1.28125 -0.59375,-1.9375 -0.57812,-0.65625 -1.4375,-0.65625 -0.875,0 -1.46875,0.65625 -0.57812,0.65625 -0.57812,1.98437 z m 6.20935,0 q 0,-1.92187 1.07813,-2.84375 0.89062,-0.76562 2.17187,-0.76562 1.42188,0 2.32813,0.9375 0.90625,0.92187 0.90625,2.57812 0,1.32813 -0.40625,2.09375 -0.39063,0.76563 -1.15625,1.1875 -0.76563,0.42188 -1.67188,0.42188 -1.45312,0 -2.35937,-0.92188 -0.89063,-0.9375 -0.89063,-2.6875 z m 1.20313,0 q 0,1.32813 0.57812,1.98438 0.59375,0.65625 1.46875,0.65625 0.875,0 1.45313,-0.65625 0.57812,-0.67188 0.57812,-2.03125 0,-1.28125 -0.59375,-1.9375 -0.57812,-0.65625 -1.4375,-0.65625 -0.875,0 -1.46875,0.65625 -0.57812,0.65625 -0.57812,1.98437 z m 6.64685,3.45313 v -6.90625 h 1.04687 v 0.96875 q 0.32813,-0.51563 0.85938,-0.8125 0.54687,-0.3125 1.23437,-0.3125 0.78125,0 1.26563,0.3125 0.48437,0.3125 0.6875,0.89062 0.82812,-1.20312 2.14062,-1.20312 1.03125,0 1.57813,0.57812 0.5625,0.5625 0.5625,1.73438 v 4.75 h -1.17188 v -4.35938 q 0,-0.70312 -0.125,-1 -0.10937,-0.3125 -0.40625,-0.5 -0.29687,-0.1875 -0.70312,-0.1875 -0.71875,0 -1.20313,0.48438 -0.48437,0.48437 -0.48437,1.54687 v 4.01563 h -1.17188 v -4.48438 q 0,-0.78125 -0.29687,-1.17187 -0.28125,-0.39063 -0.92188,-0.39063 -0.5,0 -0.92187,0.26563 -0.42188,0.25 -0.60938,0.75 -0.1875,0.5 -0.1875,1.45312 v 3.57813 z m 11.43057,0 v -1.32813 h 1.34375 v 1.32813 z m 3.37485,2.65625 v -9.5625 h 1.07812 v 0.89062 q 0.375,-0.53125 0.84375,-0.78125 0.48438,-0.26562 1.15625,-0.26562 0.875,0 1.54688,0.45312 0.6875,0.45313 1.03125,1.28125 0.34375,0.82813 0.34375,1.82813 0,1.04687 -0.375,1.90625 -0.375,0.84375 -1.10938,1.29687 -0.71875,0.45313 -1.53125,0.45313 -0.57812,0 -1.04687,-0.25 -0.46875,-0.25 -0.76563,-0.625 v 3.375 z m 1.0625,-6.07813 q 0,1.34375 0.53125,1.98438 0.54687,0.625 1.3125,0.625 0.78125,0 1.34375,-0.65625 0.5625,-0.65625 0.5625,-2.04688 0,-1.3125 -0.54688,-1.96875 -0.54687,-0.67187 -1.29687,-0.67187 -0.75,0 -1.32813,0.70312 -0.57812,0.70313 -0.57812,2.03125 z m 5.91247,-0.0312 q 0,-1.92187 1.07813,-2.84375 0.89062,-0.76562 2.17187,-0.76562 1.42188,0 2.32813,0.9375 0.90625,0.92187 0.90625,2.57812 0,1.32813 -0.40625,2.09375 -0.39063,0.76563 -1.15625,1.1875 -0.76563,0.42188 -1.67188,0.42188 -1.45312,0 -2.35937,-0.92188 -0.89063,-0.9375 -0.89063,-2.6875 z m 1.20313,0 q 0,1.32813 0.57812,1.98438 0.59375,0.65625 1.46875,0.65625 0.875,0 1.45313,-0.65625 0.57812,-0.67188 0.57812,-2.03125 0,-1.28125 -0.59375,-1.9375 -0.57812,-0.65625 -1.4375,-0.65625 -0.875,0 -1.46875,0.65625 -0.57812,0.65625 -0.57812,1.98437 z m 7.9281,3.45313 -2.125,-6.90625 h 1.21875 l 1.09375,3.98437 0.42187,1.48438 q 0.0156,-0.10938 0.35938,-1.42188 l 1.09375,-4.04687 h 1.20312 l 1.03125,4 0.34375,1.32812 0.40625,-1.34375 1.17188,-3.98437 h 1.14062 l -2.15625,6.90625 h -1.21875 l -1.09375,-4.14063 -0.26562,-1.17187 -1.40625,5.3125 z m 13.07827,-2.21875 1.20313,0.14062 q -0.28125,1.0625 -1.0625,1.65625 -0.76563,0.57813 -1.96875,0.57813 -1.51563,0 -2.40625,-0.9375 -0.89063,-0.9375 -0.89063,-2.60938 0,-1.75 0.89063,-2.70312 0.90625,-0.96875 2.34375,-0.96875 1.39062,0 2.26562,0.9375 0.875,0.9375 0.875,2.65625 0,0.10937 0,0.3125 h -5.15625 q 0.0625,1.14062 0.64063,1.75 0.57812,0.59375 1.4375,0.59375 0.65625,0 1.10937,-0.32813 0.45313,-0.34375 0.71875,-1.07812 z m -3.84375,-1.90625 h 3.85938 q -0.0781,-0.85938 -0.4375,-1.29688 -0.5625,-0.6875 -1.45313,-0.6875 -0.8125,0 -1.35937,0.54688 -0.54688,0.53125 -0.60938,1.4375 z m 6.50623,4.125 V 89.2455 h 1.0625 v 1.04687 q 0.40625,-0.73437 0.73438,-0.96875 0.34375,-0.23437 0.76562,-0.23437 0.59375,0 1.20313,0.375 l -0.40625,1.07812 q -0.4375,-0.25 -0.85938,-0.25 -0.39062,0 -0.70312,0.23438 -0.29688,0.23437 -0.42188,0.64062 -0.20312,0.625 -0.20312,1.35938 v 3.625 z m 3.37589,2.65625 v -0.85938 h 7.76562 V 98.808 Z m 8.47497,-2.65625 v -9.54688 h 1.17188 v 9.54688 z m 7.71109,-2.21875 1.20313,0.14062 q -0.28125,1.0625 -1.0625,1.65625 -0.76563,0.57813 -1.96875,0.57813 -1.51563,0 -2.40625,-0.9375 -0.89063,-0.9375 -0.89063,-2.60938 0,-1.75 0.89063,-2.70312 0.90625,-0.96875 2.34375,-0.96875 1.39062,0 2.26562,0.9375 0.875,0.9375 0.875,2.65625 0,0.10937 0,0.3125 h -5.15625 q 0.0625,1.14062 0.64063,1.75 0.57812,0.59375 1.4375,0.59375 0.65625,0 1.10937,-0.32813 0.45313,-0.34375 0.71875,-1.07812 z m -3.84375,-1.90625 h 3.85938 q -0.0781,-0.85938 -0.4375,-1.29688 -0.5625,-0.6875 -1.45313,-0.6875 -0.8125,0 -1.35937,0.54688 -0.54688,0.53125 -0.60938,1.4375 z m 8.44373,4.125 -2.625,-6.90625 h 1.23437 l 1.48438,4.14062 q 0.23437,0.65625 0.4375,1.39063 0.15625,-0.54688 0.4375,-1.3125 l 1.53125,-4.21875 h 1.21875 l -2.625,6.90625 z m 9.47656,-2.21875 1.20312,0.14062 q -0.28125,1.0625 -1.0625,1.65625 -0.76562,0.57813 -1.96875,0.57813 -1.51562,0 -2.40625,-0.9375 -0.89062,-0.9375 -0.89062,-2.60938 0,-1.75 0.89062,-2.70312 0.90625,-0.96875 2.34375,-0.96875 1.39063,0 2.26563,0.9375 0.875,0.9375 0.875,2.65625 0,0.10937 0,0.3125 h -5.15625 q 0.0625,1.14062 0.64062,1.75 0.57813,0.59375 1.4375,0.59375 0.65625,0 1.10938,-0.32813 0.45312,-0.34375 0.71875,-1.07812 z m -3.84375,-1.90625 h 3.85937 q -0.0781,-0.85938 -0.4375,-1.29688 -0.5625,-0.6875 -1.45312,-0.6875 -0.8125,0 -1.35938,0.54688 -0.54687,0.53125 -0.60937,1.4375 z m 6.50619,4.125 v -9.54688 h 1.17188 v 9.54688 z m 2.50797,-2.0625 1.15625,-0.1875 q 0.10937,0.70312 0.54687,1.07812 0.45313,0.35938 1.25,0.35938 0.8125,0 1.20313,-0.32813 0.39062,-0.32812 0.39062,-0.76562 0,-0.39063 -0.35937,-0.625 -0.23438,-0.15625 -1.1875,-0.39063 -1.29688,-0.32812 -1.79688,-0.5625 -0.48437,-0.25 -0.75,-0.65625 -0.25,-0.42187 -0.25,-0.9375 0,-0.45312 0.20313,-0.84375 0.21875,-0.40625 0.57812,-0.67187 0.28125,-0.1875 0.75,-0.32813 0.46875,-0.14062 1.01563,-0.14062 0.8125,0 1.42187,0.23437 0.60938,0.23438 0.90625,0.64063 0.29688,0.39062 0.40625,1.0625 l -1.14062,0.15625 q -0.0781,-0.53125 -0.45313,-0.82813 -0.375,-0.3125 -1.0625,-0.3125 -0.8125,0 -1.15625,0.26563 -0.34375,0.26562 -0.34375,0.625 0,0.23437 0.14063,0.42187 0.15625,0.1875 0.45312,0.3125 0.17188,0.0625 1.03125,0.29688 1.25,0.32812 1.73438,0.54687 0.5,0.20313 0.78125,0.60938 0.28125,0.40625 0.28125,1 0,0.59375 -0.34375,1.10937 -0.34375,0.51563 -1,0.79688 -0.64063,0.28125 -1.45313,0.28125 -1.34375,0 -2.04687,-0.5625 -0.70313,-0.5625 -0.90625,-1.65625 z"
     fill-rule="nonzero"
     id="path39"
     inkscape:connector-curvature="0" />
  <path
     fill="#000000"
     fill-opacity="0"
     d="m 272.22703,15 h 32.66141 v 43.84252 h -32.66141 z"
     fill-rule="evenodd"
     id="path41"
     inkscape:connector-curvature="0" />
  <path
     fill="#000000"
     d="m 282.99266,29.8525 h 6.85938 q 2.04687,0 3.04687,0.17188 1,0.17187 1.78125,0.71875 0.79688,0.53125 1.32813,1.4375 0.53125,0.89062 0.53125,2 0,1.20312 -0.65625,2.21875 -0.65625,1 -1.76563,1.51562 1.57813,0.45313 2.42188,1.5625 0.84375,1.09375 0.84375,2.57813 0,1.17187 -0.54688,2.28125 -0.54687,1.10937 -1.5,1.78125 -0.9375,0.65625 -2.3125,0.79687 -0.875,0.0937 -4.1875,0.125 h -5.84375 z m 3.46875,2.85938 v 3.98437 h 2.26563 q 2.03125,0 2.51562,-0.0625 0.89063,-0.10937 1.40625,-0.60937 0.51563,-0.51563 0.51563,-1.34375 0,-0.79688 -0.45313,-1.29688 -0.4375,-0.5 -1.29687,-0.60937 -0.51563,-0.0625 -2.96875,-0.0625 z m 0,6.84375 v 4.59375 h 3.20313 q 1.875,0 2.375,-0.10938 0.78125,-0.14062 1.26562,-0.6875 0.48438,-0.54687 0.48438,-1.45312 0,-0.78125 -0.375,-1.3125 -0.375,-0.54688 -1.09375,-0.78125 -0.70313,-0.25 -3.0625,-0.25 z"
     fill-rule="nonzero"
     id="path43"
     inkscape:connector-curvature="0" />
  <path
     fill="#000000"
     fill-opacity="0"
     d="m 212.05381,107.8399 h 153.00787 v 48.97638 H 212.05381 Z"
     fill-rule="evenodd"
     id="path45"
     inkscape:connector-curvature="0" />
  <path
     fill="#000000"
     d="m 256.3599,130.9199 4.01562,-10.48438 h 1.5 l 4.29688,10.48438 h -1.57813 l -1.23437,-3.17188 h -4.375 l -1.15625,3.17188 z m 3.01562,-4.3125 h 3.5625 l -1.09375,-2.90625 q -0.5,-1.3125 -0.75,-2.17188 -0.20312,1.01563 -0.5625,2 z m 7.71311,4.3125 v -10.48438 h 1.28125 v 10.48438 z m 3.28741,-9.01563 v -1.46875 h 1.29688 v 1.46875 z m 0,9.01563 v -7.59375 h 1.29688 v 7.59375 z m 8.20926,-2.78125 1.26563,0.15625 q -0.20313,1.3125 -1.0625,2.0625 -0.84375,0.73437 -2.09375,0.73437 -1.5625,0 -2.51563,-1.01562 -0.9375,-1.03125 -0.9375,-2.92188 0,-1.23437 0.40625,-2.15625 0.40625,-0.92187 1.23438,-1.375 0.84375,-0.46875 1.8125,-0.46875 1.25,0 2.03125,0.625 0.78125,0.625 1.01562,1.76563 l -1.26562,0.20312 q -0.17188,-0.76562 -0.625,-1.15625 -0.45313,-0.39062 -1.09375,-0.39062 -0.98438,0 -1.59375,0.70312 -0.60938,0.70313 -0.60938,2.20313 0,1.53125 0.57813,2.23437 0.59375,0.6875 1.54687,0.6875 0.75,0 1.26563,-0.45312 0.51562,-0.46875 0.64062,-1.4375 z m 7.57813,0.32812 1.32812,0.17188 q -0.3125,1.17187 -1.17187,1.8125 -0.84375,0.64062 -2.17188,0.64062 -1.67187,0 -2.65625,-1.01562 -0.96875,-1.03125 -0.96875,-2.89063 0,-1.92187 0.98438,-2.96875 1,-1.0625 2.57812,-1.0625 1.51563,0 2.48438,1.03125 0.96875,1.03125 0.96875,2.92188 0,0.10937 -0.0156,0.34375 h -5.65625 q 0.0625,1.25 0.70313,1.92187 0.64062,0.65625 1.59375,0.65625 0.70312,0 1.20312,-0.35937 0.5,-0.375 0.79688,-1.20313 z m -4.23438,-2.07812 h 4.25 q -0.0937,-0.95313 -0.48437,-1.4375 -0.625,-0.75 -1.60938,-0.75 -0.875,0 -1.48437,0.59375 -0.60938,0.59375 -0.67188,1.59375 z m 7.54175,-1.60938 v -1.45312 h 1.46875 v 1.45312 z m 0,6.14063 v -1.46875 h 1.46875 v 1.46875 z m 12.26895,0 h -1.28125 v -8.20313 q -0.46875,0.4375 -1.21875,0.89063 -0.75,0.4375 -1.35937,0.65625 v -1.25 q 1.07812,-0.5 1.89062,-1.21875 0.8125,-0.73438 1.14063,-1.40625 h 0.82812 z m 3.30734,-5.17188 q 0,-1.85937 0.375,-2.98437 0.39063,-1.14063 1.14063,-1.75 0.76562,-0.625 1.90625,-0.625 0.84375,0 1.46875,0.34375 0.64062,0.32812 1.0625,0.96875 0.42187,0.64062 0.65625,1.5625 0.23437,0.92187 0.23437,2.48437 0,1.84375 -0.39062,2.98438 -0.375,1.125 -1.125,1.75 -0.75,0.60937 -1.90625,0.60937 -1.51563,0 -2.39063,-1.07812 -1.03125,-1.3125 -1.03125,-4.26563 z m 1.32813,0 q 0,2.57813 0.59375,3.4375 0.60937,0.85938 1.5,0.85938 0.89062,0 1.48437,-0.85938 0.60938,-0.85937 0.60938,-3.4375 0,-2.59375 -0.60938,-3.4375 -0.59375,-0.85937 -1.5,-0.85937 -0.89062,0 -1.42187,0.75 -0.65625,0.96875 -0.65625,3.54687 z m 6.823,0 q 0,-1.85937 0.375,-2.98437 0.39062,-1.14063 1.14062,-1.75 0.76563,-0.625 1.90625,-0.625 0.84375,0 1.46875,0.34375 0.64063,0.32812 1.0625,0.96875 0.42188,0.64062 0.65625,1.5625 0.23438,0.92187 0.23438,2.48437 0,1.84375 -0.39063,2.98438 -0.375,1.125 -1.125,1.75 -0.75,0.60937 -1.90625,0.60937 -1.51562,0 -2.39062,-1.07812 -1.03125,-1.3125 -1.03125,-4.26563 z m 1.32812,0 q 0,2.57813 0.59375,3.4375 0.60938,0.85938 1.5,0.85938 0.89063,0 1.48438,-0.85938 0.60937,-0.85937 0.60937,-3.4375 0,-2.59375 -0.60937,-3.4375 -0.59375,-0.85937 -1.5,-0.85937 -0.89063,0 -1.42188,0.75 -0.65625,0.96875 -0.65625,3.54687 z"
     fill-rule="nonzero"
     id="path47"
     inkscape:connector-curvature="0" />
  <path
     fill="#000000"
     d="m 260.29832,148.9199 v -10.48438 h 3.9375 q 1.20313,0 1.92188,0.3125 0.73437,0.3125 1.14062,0.98438 0.40625,0.65625 0.40625,1.375 0,0.67187 -0.375,1.26562 -0.35937,0.59375 -1.09375,0.96875 0.95313,0.28125 1.46875,0.95313 0.51563,0.67187 0.51563,1.57812 0,0.75 -0.3125,1.39063 -0.3125,0.625 -0.78125,0.96875 -0.45313,0.34375 -1.14063,0.51562 -0.6875,0.17188 -1.6875,0.17188 z m 1.39063,-6.07813 h 2.26562 q 0.92188,0 1.3125,-0.125 0.53125,-0.15625 0.79688,-0.51562 0.28125,-0.375 0.28125,-0.92188 0,-0.53125 -0.25,-0.92187 -0.25,-0.39063 -0.71875,-0.53125 -0.46875,-0.15625 -1.59375,-0.15625 h -2.09375 z m 0,4.84375 h 2.60937 q 0.67188,0 0.9375,-0.0469 0.48438,-0.0937 0.79688,-0.29688 0.32812,-0.20312 0.53125,-0.57812 0.21875,-0.39063 0.21875,-0.89063 0,-0.57812 -0.3125,-1.01562 -0.29688,-0.4375 -0.82813,-0.60938 -0.53125,-0.17187 -1.53125,-0.17187 h -2.42187 z m 7.79122,-2.5625 q 0,-2.10937 1.17188,-3.125 0.98437,-0.84375 2.39062,-0.84375 1.57813,0 2.5625,1.03125 1,1.01563 1,2.82813 0,1.46875 -0.4375,2.3125 -0.4375,0.82812 -1.28125,1.29687 -0.84375,0.46875 -1.84375,0.46875 -1.59375,0 -2.57812,-1.01562 -0.98438,-1.03125 -0.98438,-2.95313 z m 1.32813,0 q 0,1.45313 0.625,2.1875 0.64062,0.71875 1.60937,0.71875 0.96875,0 1.59375,-0.71875 0.64063,-0.73437 0.64063,-2.23437 0,-1.40625 -0.64063,-2.125 -0.64062,-0.73438 -1.59375,-0.73438 -0.96875,0 -1.60937,0.71875 -0.625,0.71875 -0.625,2.1875 z m 8.49484,3.79688 h -1.20312 v -10.48438 h 1.29687 v 3.73438 q 0.8125,-1.01563 2.07813,-1.01563 0.70312,0 1.32812,0.28125 0.625,0.28125 1.03125,0.79688 0.40625,0.5 0.625,1.23437 0.23438,0.71875 0.23438,1.53125 0,1.96875 -0.96875,3.03125 -0.95313,1.0625 -2.3125,1.0625 -1.34375,0 -2.10938,-1.125 z m -0.0156,-3.85938 q 0,1.375 0.375,1.98438 0.60937,0.98437 1.64062,0.98437 0.84375,0 1.45313,-0.73437 0.625,-0.73438 0.625,-2.1875 0,-1.48438 -0.59375,-2.1875 -0.59375,-0.71875 -1.42188,-0.71875 -0.84375,0 -1.46875,0.73437 -0.60937,0.73438 -0.60937,2.125 z m 7.33862,-2.28125 v -1.45312 h 1.46875 v 1.45312 z m 0,6.14063 v -1.46875 h 1.46875 v 1.46875 z m 12.26895,0 h -1.28125 v -8.20313 q -0.46875,0.4375 -1.21875,0.89063 -0.75,0.4375 -1.35937,0.65625 v -1.25 q 1.07812,-0.5 1.89062,-1.21875 0.8125,-0.73438 1.14063,-1.40625 h 0.82812 z m 3.30734,-5.17188 q 0,-1.85937 0.375,-2.98437 0.39063,-1.14063 1.14063,-1.75 0.76562,-0.625 1.90625,-0.625 0.84375,0 1.46875,0.34375 0.64062,0.32812 1.0625,0.96875 0.42187,0.64062 0.65625,1.5625 0.23437,0.92187 0.23437,2.48437 0,1.84375 -0.39062,2.98438 -0.375,1.125 -1.125,1.75 -0.75,0.60937 -1.90625,0.60937 -1.51563,0 -2.39063,-1.07812 -1.03125,-1.3125 -1.03125,-4.26563 z m 1.32813,0 q 0,2.57813 0.59375,3.4375 0.60937,0.85938 1.5,0.85938 0.89062,0 1.48437,-0.85938 0.60938,-0.85937 0.60938,-3.4375 0,-2.59375 -0.60938,-3.4375 -0.59375,-0.85937 -1.5,-0.85937 -0.89062,0 -1.42187,0.75 -0.65625,0.96875 -0.65625,3.54687 z m 6.823,0 q 0,-1.85937 0.375,-2.98437 0.39062,-1.14063 1.14062,-1.75 0.76563,-0.625 1.90625,-0.625 0.84375,0 1.46875,0.34375 0.64063,0.32812 1.0625,0.96875 0.42188,0.64062 0.65625,1.5625 0.23438,0.92187 0.23438,2.48437 0,1.84375 -0.39063,2.98438 -0.375,1.125 -1.125,1.75 -0.75,0.60937 -1.90625,0.60937 -1.51562,0 -2.39062,-1.07812 -1.03125,-1.3125 -1.03125,-4.26563 z m 1.32812,0 q 0,2.57813 0.59375,3.4375 0.60938,0.85938 1.5,0.85938 0.89063,0 1.48438,-0.85938 0.60937,-0.85937 0.60937,-3.4375 0,-2.59375 -0.60937,-3.4375 -0.59375,-0.85937 -1.5,-0.85937 -0.89063,0 -1.42188,0.75 -0.65625,0.96875 -0.65625,3.54687 z"
     fill-rule="nonzero"
     id="path49"
     inkscape:connector-curvature="0" />
  <path
     fill="#000000"
     d="m 254.79266,163.06054 2.04687,0.65625 q -0.46875,1.71875 -1.57812,2.54687 -1.09375,0.82813 -2.78125,0.82813 -2.07813,0 -3.4375,-1.42188 -1.34375,-1.42187 -1.34375,-3.90625 0,-2.60937 1.35937,-4.0625 1.35938,-1.45312 3.5625,-1.45312 1.92188,0 3.125,1.14062 0.71875,0.67188 1.0625,1.9375 l -2.09375,0.5 q -0.1875,-0.82812 -0.78125,-1.29687 -0.57812,-0.46875 -1.42187,-0.46875 -1.17188,0 -1.90625,0.84375 -0.71875,0.82812 -0.71875,2.70312 0,1.98438 0.71875,2.84375 0.71875,0.84375 1.85937,0.84375 0.84375,0 1.45313,-0.53125 0.60937,-0.54687 0.875,-1.70312 z m 5.86551,-6.625 v 3.84375 q 0.96875,-1.125 2.3125,-1.125 0.70312,0 1.25,0.26562 0.5625,0.25 0.84375,0.65625 0.28125,0.39063 0.39062,0.875 0.10938,0.48438 0.10938,1.51563 v 4.45312 h -2.01563 v -4.01562 q 0,-1.1875 -0.125,-1.51563 -0.10937,-0.32812 -0.40625,-0.51562 -0.28125,-0.1875 -0.71875,-0.1875 -0.5,0 -0.89062,0.25 -0.39063,0.23437 -0.57813,0.73437 -0.17187,0.48438 -0.17187,1.4375 v 3.8125 h -2.01563 v -10.48437 z m 8.45264,5.20312 -1.82813,-0.32812 q 0.29688,-1.10938 1.04688,-1.625 0.76562,-0.53125 2.23437,-0.53125 1.35938,0 2.01563,0.3125 0.65625,0.3125 0.92187,0.8125 0.26563,0.48437 0.26563,1.79687 l -0.0156,2.34375 q 0,1 0.0937,1.48438 0.0937,0.46875 0.35938,1.01562 h -1.98438 q -0.0781,-0.20312 -0.20312,-0.59375 -0.0469,-0.17187 -0.0625,-0.23437 -0.51563,0.5 -1.10938,0.75 -0.57812,0.25 -1.25,0.25 -1.17187,0 -1.85937,-0.64063 -0.67188,-0.64062 -0.67188,-1.60937 0,-0.64063 0.3125,-1.14063 0.3125,-0.51562 0.85938,-0.78125 0.5625,-0.26562 1.60937,-0.46875 1.40625,-0.26562 1.95313,-0.48437 v -0.20313 q 0,-0.57812 -0.29688,-0.82812 -0.28125,-0.25 -1.07812,-0.25 -0.53125,0 -0.84375,0.21875 -0.29688,0.20312 -0.46875,0.73437 z m 2.6875,1.625 q -0.39063,0.14063 -1.23438,0.32813 -0.82812,0.17187 -1.09375,0.34375 -0.39062,0.26562 -0.39062,0.70312 0,0.42188 0.3125,0.73438 0.3125,0.29687 0.8125,0.29687 0.53125,0 1.03125,-0.35937 0.35937,-0.26563 0.48437,-0.65625 0.0781,-0.26563 0.0781,-0.98438 z m 5.88546,3.65625 h -2.01562 v -7.59375 h 1.85937 v 1.07813 q 0.48438,-0.76563 0.85938,-1 0.39062,-0.25 0.875,-0.25 0.6875,0 1.32812,0.375 l -0.625,1.75 q -0.5,-0.32813 -0.9375,-0.32813 -0.42187,0 -0.71875,0.23438 -0.29687,0.23437 -0.46875,0.84375 -0.15625,0.60937 -0.15625,2.54687 z m 3.76615,0 v -10.48437 h 2.01562 v 10.48437 z m 4.07196,-8.625 v -1.85937 h 2.01562 v 1.85937 z m 0,8.625 v -7.59375 h 2.01562 v 7.59375 z m 8.47824,-2.42187 2,0.34375 q -0.375,1.09375 -1.21875,1.67187 -0.82813,0.57813 -2.07813,0.57813 -1.98437,0 -2.9375,-1.29688 -0.75,-1.03125 -0.75,-2.625 0,-1.875 0.98438,-2.9375 0.98437,-1.07812 2.5,-1.07812 1.6875,0 2.67187,1.125 0.98438,1.10937 0.9375,3.42187 h -5.03125 q 0.0156,0.89063 0.48438,1.39063 0.46875,0.5 1.15625,0.5 0.46875,0 0.78125,-0.25 0.32812,-0.26563 0.5,-0.84375 z m 0.10937,-2.03125 q -0.0156,-0.875 -0.45312,-1.32813 -0.42188,-0.45312 -1.03125,-0.45312 -0.67188,0 -1.09375,0.48437 -0.42188,0.46875 -0.42188,1.29688 z m 4.0261,-1.14063 v -2 h 2.01562 v 2 z m 0,5.59375 v -2.01562 h 2.01562 v 2.01562 z m 13.28076,0 h -2.01563 v -7.57812 q -1.09375,1.03125 -2.59375,1.53125 v -1.82813 q 0.79688,-0.26562 1.71875,-0.98437 0.92188,-0.71875 1.26563,-1.67188 h 1.625 z m 6.40109,-10.53125 q 1.53125,0 2.39063,1.07813 1.01562,1.29687 1.01562,4.28125 0,2.96875 -1.03125,4.28125 -0.84375,1.0625 -2.375,1.0625 -1.53125,0 -2.46875,-1.17188 -0.9375,-1.17187 -0.9375,-4.20312 0,-2.95313 1.03125,-4.25 0.85938,-1.07813 2.375,-1.07813 z m 0,1.67188 q -0.35937,0 -0.65625,0.23437 -0.28125,0.21875 -0.4375,0.82813 -0.20312,0.78125 -0.20312,2.625 0,1.84375 0.1875,2.53125 0.1875,0.6875 0.46875,0.92187 0.28125,0.23438 0.64062,0.23438 0.375,0 0.65625,-0.23438 0.28125,-0.23437 0.4375,-0.84375 0.21875,-0.76562 0.21875,-2.60937 0,-1.84375 -0.1875,-2.53125 -0.1875,-0.70313 -0.46875,-0.92188 -0.28125,-0.23437 -0.65625,-0.23437 z m 8.15112,-1.67188 q 1.53125,0 2.39063,1.07813 1.01562,1.29687 1.01562,4.28125 0,2.96875 -1.03125,4.28125 -0.84375,1.0625 -2.375,1.0625 -1.53125,0 -2.46875,-1.17188 -0.9375,-1.17187 -0.9375,-4.20312 0,-2.95313 1.03125,-4.25 0.85938,-1.07813 2.375,-1.07813 z m 0,1.67188 q -0.35937,0 -0.65625,0.23437 -0.28125,0.21875 -0.4375,0.82813 -0.20312,0.78125 -0.20312,2.625 0,1.84375 0.1875,2.53125 0.1875,0.6875 0.46875,0.92187 0.28125,0.23438 0.64062,0.23438 0.375,0 0.65625,-0.23438 0.28125,-0.23437 0.4375,-0.84375 0.21875,-0.76562 0.21875,-2.60937 0,-1.84375 -0.1875,-2.53125 -0.1875,-0.70313 -0.46875,-0.92188 -0.28125,-0.23437 -0.65625,-0.23437 z"
     fill-rule="nonzero"
     id="path51"
     inkscape:connector-curvature="0" />
  <path
     fill="#cfe2f3"
     d="m 408.60761,67.5427 v 0 c 0,-4.50824 3.65463,-8.1629 8.16287,-8.1629 h 136.68213 c 2.16492,0 4.24115,0.86001 5.77204,2.39085 1.53082,1.53085 2.3908,3.60712 2.3908,5.77205 v 32.65059 c 0,4.50824 -3.6546,8.16289 -8.16284,8.16289 H 416.77048 c -4.50824,0 -8.16287,-3.65465 -8.16287,-8.16289 z"
     fill-rule="evenodd"
     id="path53"
     inkscape:connector-curvature="0" />
  <path
     stroke="#000000"
     stroke-width="1"
     stroke-linejoin="round"
     stroke-linecap="butt"
     d="m 408.60761,67.5427 v 0 c 0,-4.50824 3.65463,-8.1629 8.16287,-8.1629 h 136.68213 c 2.16492,0 4.24115,0.86001 5.77204,2.39085 1.53082,1.53085 2.3908,3.60712 2.3908,5.77205 v 32.65059 c 0,4.50824 -3.6546,8.16289 -8.16284,8.16289 H 416.77048 c -4.50824,0 -8.16287,-3.65465 -8.16287,-8.16289 z"
     fill-rule="evenodd"
     id="path55"
     inkscape:connector-curvature="0" />
  <path
     fill="#000000"
     d="m 469.59756,77.16799 1.85938,0.57812 q -0.42188,1.5625 -1.42188,2.32813 -1,0.75 -2.53125,0.75 -1.90625,0 -3.14062,-1.29688 -1.21875,-1.29687 -1.21875,-3.54687 0,-2.375 1.23437,-3.6875 1.23438,-1.32813 3.23438,-1.32813 1.75,0 2.84375,1.03125 0.65625,0.60938 0.98437,1.76563 l -1.90625,0.45312 q -0.17187,-0.75 -0.71875,-1.17187 -0.53125,-0.4375 -1.29687,-0.4375 -1.0625,0 -1.73438,0.76562 -0.65625,0.76563 -0.65625,2.46875 0,1.8125 0.65625,2.57813 0.65625,0.76562 1.6875,0.76562 0.78125,0 1.32813,-0.48437 0.54687,-0.48438 0.79687,-1.53125 z m 5.32825,-6.04688 v 3.51563 q 0.875,-1.03125 2.10937,-1.03125 0.64063,0 1.14063,0.23437 0.51562,0.23438 0.76562,0.59375 0.25,0.35938 0.34375,0.8125 0.10938,0.4375 0.10938,1.375 v 4.04688 h -1.82813 v -3.65625 q 0,-1.07813 -0.10937,-1.375 -0.10938,-0.29688 -0.375,-0.46875 -0.26563,-0.17188 -0.65625,-0.17188 -0.45313,0 -0.8125,0.23438 -0.35938,0.21875 -0.53125,0.67187 -0.15625,0.4375 -0.15625,1.29688 v 3.46875 h -1.82813 v -9.54688 z m 7.68823,4.75 -1.67188,-0.3125 q 0.28125,-1 0.96875,-1.46875 0.6875,-0.48437 2.03125,-0.48437 1.21875,0 1.8125,0.29687 0.60938,0.28125 0.84375,0.73438 0.25,0.4375 0.25,1.625 l -0.0156,2.14062 q 0,0.90625 0.0781,1.34375 0.0937,0.42188 0.34375,0.92188 h -1.8125 q -0.0781,-0.1875 -0.17187,-0.54688 -0.0469,-0.15625 -0.0781,-0.20312 -0.46875,0.45312 -1,0.6875 -0.53125,0.21875 -1.14062,0.21875 -1.0625,0 -1.6875,-0.57813 -0.60938,-0.57812 -0.60938,-1.46875 0,-0.57812 0.28125,-1.03125 0.28125,-0.46875 0.78125,-0.70312 0.51563,-0.25 1.46875,-0.4375 1.28125,-0.23438 1.76563,-0.45313 v -0.17187 q 0,-0.53125 -0.26563,-0.75 -0.25,-0.23438 -0.96875,-0.23438 -0.48437,0 -0.76562,0.20313 -0.26563,0.1875 -0.4375,0.67187 z m 2.4375,1.48438 q -0.34375,0.10937 -1.10938,0.28125 -0.76562,0.15625 -1,0.3125 -0.35937,0.25 -0.35937,0.64062 0,0.39063 0.28125,0.67188 0.29687,0.28125 0.73437,0.28125 0.5,0 0.95313,-0.32813 0.32812,-0.25 0.4375,-0.60937 0.0625,-0.23438 0.0625,-0.89063 z m 5.34997,3.3125 h -1.82812 v -6.90625 h 1.70312 v 0.98437 q 0.4375,-0.70312 0.78125,-0.92187 0.34375,-0.21875 0.79688,-0.21875 0.625,0 1.20312,0.34375 l -0.5625,1.59375 q -0.46875,-0.29688 -0.85937,-0.29688 -0.39063,0 -0.65625,0.21875 -0.26563,0.20313 -0.42188,0.76563 -0.15625,0.54687 -0.15625,2.29687 z m 3.43683,0 v -9.54688 h 1.82813 v 9.54688 z m 3.70295,-7.84375 v -1.70313 h 1.82812 v 1.70313 z m 0,7.84375 v -6.90625 h 1.82812 v 6.90625 z m 7.703,-2.20313 1.82812,0.3125 q -0.34375,1 -1.10937,1.53125 -0.76563,0.51563 -1.89063,0.51563 -1.8125,0 -2.67187,-1.17188 -0.6875,-0.95312 -0.6875,-2.39062 0,-1.71875 0.89062,-2.6875 0.90625,-0.96875 2.28125,-0.96875 1.54688,0 2.4375,1.01562 0.89063,1.01563 0.84375,3.125 h -4.57812 q 0.0156,0.8125 0.4375,1.26563 0.42187,0.45312 1.0625,0.45312 0.42187,0 0.71875,-0.23437 0.29687,-0.23438 0.4375,-0.76563 z m 0.10937,-1.84375 q -0.0156,-0.79687 -0.40625,-1.20312 -0.39062,-0.42188 -0.95312,-0.42188 -0.59375,0 -0.98438,0.4375 -0.39062,0.4375 -0.39062,1.1875 z"
     fill-rule="nonzero"
     id="path57"
     inkscape:connector-curvature="0" />
  <path
     fill="#000000"
     d="m 422.65513,96.66799 v -6.90625 h 1.04687 v 0.96875 q 0.32813,-0.51563 0.85938,-0.8125 0.54687,-0.3125 1.23437,-0.3125 0.78125,0 1.26563,0.3125 0.48437,0.3125 0.6875,0.89062 0.82812,-1.20312 2.14062,-1.20312 1.03125,0 1.57813,0.57812 0.5625,0.5625 0.5625,1.73438 v 4.75 h -1.17188 v -4.35938 q 0,-0.70312 -0.125,-1 -0.10937,-0.3125 -0.40625,-0.5 -0.29687,-0.1875 -0.70312,-0.1875 -0.71875,0 -1.20313,0.48438 -0.48437,0.48437 -0.48437,1.54687 v 4.01563 h -1.17188 v -4.48438 q 0,-0.78125 -0.29687,-1.17187 -0.28125,-0.39063 -0.92188,-0.39063 -0.5,0 -0.92187,0.26563 -0.42188,0.25 -0.60938,0.75 -0.1875,0.5 -0.1875,1.45312 v 3.57813 z m 11.43054,0 v -1.32813 h 1.34375 v 1.32813 z m 3.35926,0 v -6.90625 h 1.0625 v 1.04687 q 0.40625,-0.73437 0.73437,-0.96875 0.34375,-0.23437 0.76563,-0.23437 0.59375,0 1.20312,0.375 l -0.40625,1.07812 q -0.4375,-0.25 -0.85937,-0.25 -0.39063,0 -0.70313,0.23438 -0.29687,0.23437 -0.42187,0.64062 -0.20313,0.625 -0.20313,1.35938 v 3.625 z m 4.01647,-3.45313 q 0,-1.92187 1.07813,-2.84375 0.89062,-0.76562 2.17187,-0.76562 1.42188,0 2.32813,0.9375 0.90625,0.92187 0.90625,2.57812 0,1.32813 -0.40625,2.09375 -0.39063,0.76563 -1.15625,1.1875 -0.76563,0.42188 -1.67188,0.42188 -1.45312,0 -2.35937,-0.92188 -0.89063,-0.9375 -0.89063,-2.6875 z m 1.20313,0 q 0,1.32813 0.57812,1.98438 0.59375,0.65625 1.46875,0.65625 0.875,0 1.45313,-0.65625 0.57812,-0.67188 0.57812,-2.03125 0,-1.28125 -0.59375,-1.9375 -0.57812,-0.65625 -1.4375,-0.65625 -0.875,0 -1.46875,0.65625 -0.57812,0.65625 -0.57812,1.98437 z m 6.20935,0 q 0,-1.92187 1.07813,-2.84375 0.89062,-0.76562 2.17187,-0.76562 1.42188,0 2.32813,0.9375 0.90625,0.92187 0.90625,2.57812 0,1.32813 -0.40625,2.09375 -0.39063,0.76563 -1.15625,1.1875 -0.76563,0.42188 -1.67188,0.42188 -1.45312,0 -2.35937,-0.92188 -0.89063,-0.9375 -0.89063,-2.6875 z m 1.20313,0 q 0,1.32813 0.57812,1.98438 0.59375,0.65625 1.46875,0.65625 0.875,0 1.45313,-0.65625 0.57812,-0.67188 0.57812,-2.03125 0,-1.28125 -0.59375,-1.9375 -0.57812,-0.65625 -1.4375,-0.65625 -0.875,0 -1.46875,0.65625 -0.57812,0.65625 -0.57812,1.98437 z m 6.64685,3.45313 v -6.90625 h 1.04687 v 0.96875 q 0.32813,-0.51563 0.85938,-0.8125 0.54687,-0.3125 1.23437,-0.3125 0.78125,0 1.26563,0.3125 0.48437,0.3125 0.6875,0.89062 0.82812,-1.20312 2.14062,-1.20312 1.03125,0 1.57813,0.57812 0.5625,0.5625 0.5625,1.73438 v 4.75 h -1.17188 v -4.35938 q 0,-0.70312 -0.125,-1 -0.10937,-0.3125 -0.40625,-0.5 -0.29687,-0.1875 -0.70312,-0.1875 -0.71875,0 -1.20313,0.48438 -0.48437,0.48437 -0.48437,1.54687 v 4.01563 h -1.17188 v -4.48438 q 0,-0.78125 -0.29687,-1.17187 -0.28125,-0.39063 -0.92188,-0.39063 -0.5,0 -0.92187,0.26563 -0.42188,0.25 -0.60938,0.75 -0.1875,0.5 -0.1875,1.45312 v 3.57813 z m 11.43054,0 v -1.32813 h 1.34375 v 1.32813 z m 3.37488,2.65625 v -9.5625 h 1.07812 v 0.89062 q 0.375,-0.53125 0.84375,-0.78125 0.48438,-0.26562 1.15625,-0.26562 0.875,0 1.54688,0.45312 0.6875,0.45313 1.03125,1.28125 0.34375,0.82813 0.34375,1.82813 0,1.04687 -0.375,1.90625 -0.375,0.84375 -1.10938,1.29687 -0.71875,0.45313 -1.53125,0.45313 -0.57812,0 -1.04687,-0.25 -0.46875,-0.25 -0.76563,-0.625 v 3.375 z m 1.0625,-6.07813 q 0,1.34375 0.53125,1.98438 0.54687,0.625 1.3125,0.625 0.78125,0 1.34375,-0.65625 0.5625,-0.65625 0.5625,-2.04688 0,-1.3125 -0.54688,-1.96875 -0.54687,-0.67187 -1.29687,-0.67187 -0.75,0 -1.32813,0.70312 -0.57812,0.70313 -0.57812,2.03125 z m 5.91247,-0.0312 q 0,-1.92187 1.07813,-2.84375 0.89062,-0.76562 2.17187,-0.76562 1.42188,0 2.32813,0.9375 0.90625,0.92187 0.90625,2.57812 0,1.32813 -0.40625,2.09375 -0.39063,0.76563 -1.15625,1.1875 -0.76563,0.42188 -1.67188,0.42188 -1.45312,0 -2.35937,-0.92188 -0.89063,-0.9375 -0.89063,-2.6875 z m 1.20313,0 q 0,1.32813 0.57812,1.98438 0.59375,0.65625 1.46875,0.65625 0.875,0 1.45313,-0.65625 0.57812,-0.67188 0.57812,-2.03125 0,-1.28125 -0.59375,-1.9375 -0.57812,-0.65625 -1.4375,-0.65625 -0.875,0 -1.46875,0.65625 -0.57812,0.65625 -0.57812,1.98437 z m 7.9281,3.45313 -2.125,-6.90625 h 1.21875 l 1.09375,3.98437 0.42187,1.48438 q 0.0156,-0.10938 0.35938,-1.42188 l 1.09375,-4.04687 h 1.20312 l 1.03125,4 0.34375,1.32812 0.40625,-1.34375 1.17188,-3.98437 h 1.14062 l -2.15625,6.90625 h -1.21875 l -1.09375,-4.14063 -0.26562,-1.17187 -1.40625,5.3125 z m 13.0783,-2.21875 1.20313,0.14062 q -0.28125,1.0625 -1.0625,1.65625 -0.76563,0.57813 -1.96875,0.57813 -1.51563,0 -2.40625,-0.9375 -0.89063,-0.9375 -0.89063,-2.60938 0,-1.75 0.89063,-2.70312 0.90625,-0.96875 2.34375,-0.96875 1.39062,0 2.26562,0.9375 0.875,0.9375 0.875,2.65625 0,0.10937 0,0.3125 h -5.15625 q 0.0625,1.14062 0.64063,1.75 0.57812,0.59375 1.4375,0.59375 0.65625,0 1.10937,-0.32813 0.45313,-0.34375 0.71875,-1.07812 z m -3.84375,-1.90625 h 3.85938 q -0.0781,-0.85938 -0.4375,-1.29688 -0.5625,-0.6875 -1.45313,-0.6875 -0.8125,0 -1.35937,0.54688 -0.54688,0.53125 -0.60938,1.4375 z m 6.50623,4.125 v -6.90625 h 1.0625 v 1.04687 q 0.40625,-0.73437 0.73438,-0.96875 0.34375,-0.23437 0.76562,-0.23437 0.59375,0 1.20313,0.375 l -0.40625,1.07812 q -0.4375,-0.25 -0.85938,-0.25 -0.39062,0 -0.70312,0.23438 -0.29688,0.23437 -0.42188,0.64062 -0.20312,0.625 -0.20312,1.35938 v 3.625 z m 3.37585,2.65625 v -0.85938 h 7.76563 v 0.85938 z m 8.47498,-2.65625 v -9.54688 h 1.17188 v 9.54688 z m 7.71106,-2.21875 1.20313,0.14062 q -0.28125,1.0625 -1.0625,1.65625 -0.76563,0.57813 -1.96875,0.57813 -1.51563,0 -2.40625,-0.9375 -0.89063,-0.9375 -0.89063,-2.60938 0,-1.75 0.89063,-2.70312 0.90625,-0.96875 2.34375,-0.96875 1.39062,0 2.26562,0.9375 0.875,0.9375 0.875,2.65625 0,0.10937 0,0.3125 h -5.15625 q 0.0625,1.14062 0.64063,1.75 0.57812,0.59375 1.4375,0.59375 0.65625,0 1.10937,-0.32813 0.45313,-0.34375 0.71875,-1.07812 z m -3.84375,-1.90625 h 3.85938 q -0.0781,-0.85938 -0.4375,-1.29688 -0.5625,-0.6875 -1.45313,-0.6875 -0.8125,0 -1.35937,0.54688 -0.54688,0.53125 -0.60938,1.4375 z m 8.44373,4.125 -2.625,-6.90625 h 1.23437 l 1.48438,4.14062 q 0.23437,0.65625 0.4375,1.39063 0.15625,-0.54688 0.4375,-1.3125 l 1.53125,-4.21875 h 1.21875 l -2.625,6.90625 z m 9.47656,-2.21875 1.20312,0.14062 q -0.28125,1.0625 -1.0625,1.65625 -0.76562,0.57813 -1.96875,0.57813 -1.51562,0 -2.40625,-0.9375 -0.89062,-0.9375 -0.89062,-2.60938 0,-1.75 0.89062,-2.70312 0.90625,-0.96875 2.34375,-0.96875 1.39063,0 2.26563,0.9375 0.875,0.9375 0.875,2.65625 0,0.10937 0,0.3125 h -5.15625 q 0.0625,1.14062 0.64062,1.75 0.57813,0.59375 1.4375,0.59375 0.65625,0 1.10938,-0.32813 0.45312,-0.34375 0.71875,-1.07812 z m -3.84375,-1.90625 h 3.85937 q -0.0781,-0.85938 -0.4375,-1.29688 -0.5625,-0.6875 -1.45312,-0.6875 -0.8125,0 -1.35938,0.54688 -0.54687,0.53125 -0.60937,1.4375 z m 6.50622,4.125 v -9.54688 h 1.17188 v 9.54688 z m 2.508,-2.0625 1.15625,-0.1875 q 0.10938,0.70312 0.54688,1.07812 0.45312,0.35938 1.25,0.35938 0.8125,0 1.20312,-0.32813 0.39063,-0.32812 0.39063,-0.76562 0,-0.39063 -0.35938,-0.625 -0.23437,-0.15625 -1.1875,-0.39063 -1.29687,-0.32812 -1.79687,-0.5625 -0.48438,-0.25 -0.75,-0.65625 -0.25,-0.42187 -0.25,-0.9375 0,-0.45312 0.20312,-0.84375 0.21875,-0.40625 0.57813,-0.67187 0.28125,-0.1875 0.75,-0.32813 0.46875,-0.14062 1.01562,-0.14062 0.8125,0 1.42188,0.23437 0.60937,0.23438 0.90625,0.64063 0.29687,0.39062 0.40625,1.0625 l -1.14063,0.15625 q -0.0781,-0.53125 -0.45312,-0.82813 -0.375,-0.3125 -1.0625,-0.3125 -0.8125,0 -1.15625,0.26563 -0.34375,0.26562 -0.34375,0.625 0,0.23437 0.14062,0.42187 0.15625,0.1875 0.45313,0.3125 0.17187,0.0625 1.03125,0.29688 1.25,0.32812 1.73437,0.54687 0.5,0.20313 0.78125,0.60938 0.28125,0.40625 0.28125,1 0,0.59375 -0.34375,1.10937 -0.34375,0.51563 -1,0.79688 -0.64062,0.28125 -1.45312,0.28125 -1.34375,0 -2.04688,-0.5625 -0.70312,-0.5625 -0.90625,-1.65625 z"
     fill-rule="nonzero"
     id="path59"
     inkscape:connector-curvature="0" />
  <path
     fill="#000000"
     fill-opacity="0"
     d="m 468.78086,15.51629 h 32.66138 V 59.3588 h -32.66138 z"
     fill-rule="evenodd"
     id="path61"
     inkscape:connector-curvature="0" />
  <path
     fill="#000000"
     d="m 490.51526,41.24378 3.375,1.0625 q -0.78125,2.8125 -2.57813,4.1875 -1.79687,1.35937 -4.5625,1.35937 -3.42187,0 -5.625,-2.34375 -2.20312,-2.34375 -2.20312,-6.39062 0,-4.29688 2.20312,-6.65625 2.21875,-2.37499 5.82813,-2.37499 3.15625,0 5.125,1.85936 1.17187,1.09375 1.76562,3.15625 l -3.4375,0.82813 q -0.3125,-1.34375 -1.28125,-2.10938 -0.95312,-0.78125 -2.34375,-0.78125 -1.90625,0 -3.09375,1.375 -1.1875,1.375 -1.1875,4.4375 0,3.26563 1.17188,4.65625 1.17187,1.375 3.04687,1.375 1.375,0 2.375,-0.875 1,-0.89062 1.42188,-2.76562 z"
     fill-rule="nonzero"
     id="path63"
     inkscape:connector-curvature="0" />
  <path
     fill="#000000"
     fill-opacity="0"
     d="m 408.60761,108.35618 h 153.00784 v 48.97638 H 408.60761 Z"
     fill-rule="evenodd"
     id="path65"
     inkscape:connector-curvature="0" />
  <path
     fill="#000000"
     d="m 419.77236,120.95181 h 2.125 v 5.67187 q 0,1.35938 0.0781,1.75 0.14062,0.65625 0.64062,1.04688 0.51563,0.39062 1.40625,0.39062 0.90625,0 1.35938,-0.375 0.45312,-0.375 0.54687,-0.90625 0.0937,-0.53125 0.0937,-1.78125 v -5.79687 h 2.125 v 5.5 q 0,1.89062 -0.17187,2.67187 -0.17188,0.78125 -0.64063,1.32813 -0.45312,0.53125 -1.23437,0.84375 -0.76563,0.3125 -2.01563,0.3125 -1.5,0 -2.28125,-0.34375 -0.78125,-0.34375 -1.23437,-0.89063 -0.4375,-0.5625 -0.57813,-1.17187 -0.21875,-0.90625 -0.21875,-2.65625 z m 10.53738,2.89062 h 1.875 v 1.10938 q 0.35938,-0.57813 0.98438,-0.92188 0.625,-0.35937 1.375,-0.35937 1.32812,0 2.25,1.03125 0.92187,1.03125 0.92187,2.89062 0,1.90625 -0.9375,2.96875 -0.92187,1.04688 -2.25,1.04688 -0.625,0 -1.14062,-0.25 -0.5,-0.25 -1.07813,-0.85938 v 3.82813 h -2 z m 1.98438,3.67188 q 0,1.28125 0.5,1.89062 0.51562,0.60938 1.25,0.60938 0.70312,0 1.15625,-0.5625 0.46875,-0.5625 0.46875,-1.84375 0,-1.20313 -0.48438,-1.78125 -0.46875,-0.57813 -1.1875,-0.57813 -0.73437,0 -1.21875,0.57813 -0.48437,0.5625 -0.48437,1.6875 z m 13.98389,3.92187 h -1.85938 v -1.10937 q -0.46875,0.64062 -1.10937,0.96875 -0.625,0.3125 -1.26563,0.3125 -1.3125,0 -2.25,-1.04688 -0.9375,-1.0625 -0.9375,-2.95312 0,-1.9375 0.90625,-2.9375 0.92188,-1 2.3125,-1 1.26563,0 2.20313,1.04687 v -3.76562 h 2 z m -5.35938,-3.96875 q 0,1.21875 0.32813,1.76563 0.5,0.78125 1.35937,0.78125 0.70313,0 1.1875,-0.57813 0.48438,-0.59375 0.48438,-1.76562 0,-1.3125 -0.46875,-1.89063 -0.46875,-0.57812 -1.20313,-0.57812 -0.71875,0 -1.20312,0.57812 -0.48438,0.5625 -0.48438,1.6875 z m 8.85886,-1.3125 -1.82813,-0.32812 q 0.29688,-1.10938 1.04688,-1.625 0.76562,-0.53125 2.23437,-0.53125 1.35938,0 2.01563,0.3125 0.65625,0.3125 0.92187,0.8125 0.26563,0.48437 0.26563,1.79687 l -0.0156,2.34375 q 0,1 0.0937,1.48438 0.0937,0.46875 0.35938,1.01562 h -1.98438 q -0.0781,-0.20312 -0.20312,-0.59375 -0.0469,-0.17187 -0.0625,-0.23437 -0.51563,0.5 -1.10938,0.75 -0.57812,0.25 -1.25,0.25 -1.17187,0 -1.85937,-0.64063 -0.67188,-0.64062 -0.67188,-1.60937 0,-0.64063 0.3125,-1.14063 0.3125,-0.51562 0.85938,-0.78125 0.5625,-0.26562 1.60937,-0.46875 1.40625,-0.26562 1.95313,-0.48437 v -0.20313 q 0,-0.57812 -0.29688,-0.82812 -0.28125,-0.25 -1.07812,-0.25 -0.53125,0 -0.84375,0.21875 -0.29688,0.20312 -0.46875,0.73437 z m 2.6875,1.625 q -0.39063,0.14063 -1.23438,0.32813 -0.82812,0.17187 -1.09375,0.34375 -0.39062,0.26562 -0.39062,0.70312 0,0.42188 0.3125,0.73438 0.3125,0.29687 0.8125,0.29687 0.53125,0 1.03125,-0.35937 0.35937,-0.26563 0.48437,-0.65625 0.0781,-0.26563 0.0781,-0.98438 z m 7.43237,-3.9375 v 1.59375 h -1.375 v 3.0625 q 0,0.9375 0.0312,1.09375 0.0469,0.14063 0.1875,0.25 0.14062,0.0937 0.34375,0.0937 0.28125,0 0.8125,-0.1875 l 0.17187,1.5625 q -0.70312,0.29688 -1.59375,0.29688 -0.54687,0 -0.98437,-0.17188 -0.42188,-0.1875 -0.64063,-0.46875 -0.20312,-0.29687 -0.28125,-0.79687 -0.0625,-0.35938 -0.0625,-1.42188 v -3.3125 h -0.92187 v -1.59375 h 0.92187 v -1.51562 l 2.01563,-1.17188 v 2.6875 z m 5.80252,5.17188 2,0.34375 q -0.375,1.09375 -1.21875,1.67187 -0.82812,0.57813 -2.07812,0.57813 -1.98438,0 -2.9375,-1.29688 -0.75,-1.03125 -0.75,-2.625 0,-1.875 0.98437,-2.9375 0.98438,-1.07812 2.5,-1.07812 1.6875,0 2.67188,1.125 0.98437,1.10937 0.9375,3.42187 h -5.03125 q 0.0156,0.89063 0.48437,1.39063 0.46875,0.5 1.15625,0.5 0.46875,0 0.78125,-0.25 0.32813,-0.26563 0.5,-0.84375 z m 0.10938,-2.03125 q -0.0156,-0.875 -0.45313,-1.32813 -0.42187,-0.45312 -1.03125,-0.45312 -0.67187,0 -1.09375,0.48437 -0.42187,0.46875 -0.42187,1.29688 z m 2.93237,2.28125 2.01562,-0.29688 q 0.125,0.57813 0.51563,0.89063 0.40625,0.29687 1.10937,0.29687 0.78125,0 1.17188,-0.28125 0.26562,-0.20312 0.26562,-0.54687 0,-0.21875 -0.14062,-0.375 -0.15625,-0.14063 -0.67188,-0.26563 -2.4375,-0.53125 -3.07812,-0.98437 -0.90625,-0.60938 -0.90625,-1.70313 0,-0.98437 0.78125,-1.65625 0.78125,-0.67187 2.42187,-0.67187 1.54688,0 2.3125,0.51562 0.76563,0.5 1.04688,1.48438 l -1.90625,0.35937 q -0.10938,-0.45312 -0.45313,-0.6875 -0.34375,-0.23437 -0.96875,-0.23437 -0.79687,0 -1.14062,0.21875 -0.23438,0.15625 -0.23438,0.40625 0,0.21875 0.20313,0.375 0.28125,0.20312 1.875,0.5625 1.60937,0.35937 2.25,0.89062 0.625,0.54688 0.625,1.5 0,1.04688 -0.875,1.79688 -0.85938,0.75 -2.57813,0.75 -1.54687,0 -2.45312,-0.625 -0.90625,-0.64063 -1.1875,-1.71875 z m 12.84808,2.17187 v -10.48437 h 2.01563 v 3.76562 q 0.92187,-1.04687 2.20312,-1.04687 1.375,0 2.28125,1 0.92188,1 0.92188,2.89062 0,1.9375 -0.9375,3 -0.92188,1.04688 -2.25,1.04688 -0.64063,0 -1.28125,-0.32813 -0.625,-0.32812 -1.09375,-0.95312 v 1.10937 z m 2,-3.96875 q 0,1.1875 0.35938,1.75 0.53125,0.79688 1.39062,0.79688 0.67188,0 1.14063,-0.5625 0.46875,-0.57813 0.46875,-1.79688 0,-1.29687 -0.48438,-1.875 -0.46875,-0.57812 -1.20312,-0.57812 -0.71875,0 -1.20313,0.5625 -0.46875,0.5625 -0.46875,1.70312 z m 8.54633,-1.3125 -1.82813,-0.32812 q 0.29688,-1.10938 1.04688,-1.625 0.76562,-0.53125 2.23437,-0.53125 1.35938,0 2.01563,0.3125 0.65625,0.3125 0.92187,0.8125 0.26563,0.48437 0.26563,1.79687 l -0.0156,2.34375 q 0,1 0.0937,1.48438 0.0937,0.46875 0.35938,1.01562 h -1.98438 q -0.0781,-0.20312 -0.20312,-0.59375 -0.0469,-0.17187 -0.0625,-0.23437 -0.51563,0.5 -1.10938,0.75 -0.57812,0.25 -1.25,0.25 -1.17187,0 -1.85937,-0.64063 -0.67188,-0.64062 -0.67188,-1.60937 0,-0.64063 0.3125,-1.14063 0.3125,-0.51562 0.85938,-0.78125 0.5625,-0.26562 1.60937,-0.46875 1.40625,-0.26562 1.95313,-0.48437 v -0.20313 q 0,-0.57812 -0.29688,-0.82812 -0.28125,-0.25 -1.07812,-0.25 -0.53125,0 -0.84375,0.21875 -0.29688,0.20312 -0.46875,0.73437 z m 2.6875,1.625 q -0.39063,0.14063 -1.23438,0.32813 -0.82812,0.17187 -1.09375,0.34375 -0.39062,0.26562 -0.39062,0.70312 0,0.42188 0.3125,0.73438 0.3125,0.29687 0.8125,0.29687 0.53125,0 1.03125,-0.35937 0.35937,-0.26563 0.48437,-0.65625 0.0781,-0.26563 0.0781,-0.98438 z m 10.86987,3.65625 h -2.01562 v -3.875 q 0,-1.23437 -0.125,-1.59375 -0.125,-0.35937 -0.42188,-0.5625 -0.29687,-0.20312 -0.70312,-0.20312 -0.51563,0 -0.9375,0.29687 -0.40625,0.28125 -0.5625,0.75 -0.15625,0.46875 -0.15625,1.75 v 3.4375 h -2.01563 v -7.59375 h 1.875 v 1.10938 q 1,-1.28125 2.5,-1.28125 0.67188,0 1.21875,0.23437 0.54688,0.23438 0.82813,0.60938 0.29687,0.375 0.40625,0.84375 0.10937,0.46875 0.10937,1.35937 z m 6.10272,0 v -10.48437 h 2.01563 v 10.48437 z m 8.47821,-2.42187 2,0.34375 q -0.375,1.09375 -1.21875,1.67187 -0.82812,0.57813 -2.07812,0.57813 -1.98438,0 -2.9375,-1.29688 -0.75,-1.03125 -0.75,-2.625 0,-1.875 0.98437,-2.9375 0.98438,-1.07812 2.5,-1.07812 1.6875,0 2.67188,1.125 0.98437,1.10937 0.9375,3.42187 h -5.03125 q 0.0156,0.89063 0.48437,1.39063 0.46875,0.5 1.15625,0.5 0.46875,0 0.78125,-0.25 0.32813,-0.26563 0.5,-0.84375 z m 0.10938,-2.03125 q -0.0156,-0.875 -0.45313,-1.32813 -0.42187,-0.45312 -1.03125,-0.45312 -0.67187,0 -1.09375,0.48437 -0.42187,0.46875 -0.42187,1.29688 z m 5.72925,4.45312 -3.0625,-7.59375 h 2.10937 l 1.4375,3.875 0.40625,1.29688 q 0.17188,-0.5 0.21875,-0.65625 0.0937,-0.32813 0.20313,-0.64063 l 1.45312,-3.875 h 2.0625 l -3.01562,7.59375 z m 10.46362,-2.42187 2,0.34375 q -0.375,1.09375 -1.21875,1.67187 -0.82813,0.57813 -2.07813,0.57813 -1.98437,0 -2.9375,-1.29688 -0.75,-1.03125 -0.75,-2.625 0,-1.875 0.98438,-2.9375 0.98437,-1.07812 2.5,-1.07812 1.6875,0 2.67187,1.125 0.98438,1.10937 0.9375,3.42187 h -5.03125 q 0.0156,0.89063 0.48438,1.39063 0.46875,0.5 1.15625,0.5 0.46875,0 0.78125,-0.25 0.32812,-0.26563 0.5,-0.84375 z m 0.10937,-2.03125 q -0.0156,-0.875 -0.45312,-1.32813 -0.42188,-0.45312 -1.03125,-0.45312 -0.67188,0 -1.09375,0.48437 -0.42188,0.46875 -0.42188,1.29688 z m 3.63544,4.45312 v -10.48437 h 2.01563 v 10.48437 z m 3.3689,-2.17187 2.01562,-0.29688 q 0.125,0.57813 0.51563,0.89063 0.40625,0.29687 1.10937,0.29687 0.78125,0 1.17188,-0.28125 0.26562,-0.20312 0.26562,-0.54687 0,-0.21875 -0.14062,-0.375 -0.15625,-0.14063 -0.67188,-0.26563 -2.4375,-0.53125 -3.07812,-0.98437 -0.90625,-0.60938 -0.90625,-1.70313 0,-0.98437 0.78125,-1.65625 0.78125,-0.67187 2.42187,-0.67187 1.54688,0 2.3125,0.51562 0.76563,0.5 1.04688,1.48438 l -1.90625,0.35937 q -0.10938,-0.45312 -0.45313,-0.6875 -0.34375,-0.23437 -0.96875,-0.23437 -0.79687,0 -1.14062,0.21875 -0.23438,0.15625 -0.23438,0.40625 0,0.21875 0.20313,0.375 0.28125,0.20312 1.875,0.5625 1.60937,0.35937 2.25,0.89062 0.625,0.54688 0.625,1.5 0,1.04688 -0.875,1.79688 -0.85938,0.75 -2.57813,0.75 -1.54687,0 -2.45312,-0.625 -0.90625,-0.64063 -1.1875,-1.71875 z"
     fill-rule="nonzero"
     id="path67"
     inkscape:connector-curvature="0" />
  <path
     fill="#000000"
     fill-opacity="0"
     d="m 168.50787,83.86799 43.55907,-0.50394"
     fill-rule="evenodd"
     id="path69"
     inkscape:connector-curvature="0" />
  <path
     stroke="#000000"
     stroke-width="3"
     stroke-linejoin="round"
     stroke-linecap="butt"
     d="m 168.50787,83.86799 25.56027,-0.2957"
     fill-rule="evenodd"
     id="path71"
     inkscape:connector-curvature="0" />
  <path
     fill="#000000"
     stroke="#000000"
     stroke-width="3"
     stroke-linecap="butt"
     d="m 194.12545,88.52716 13.55606,-5.11237 -13.6707,-4.79736 z"
     fill-rule="evenodd"
     id="path73"
     inkscape:connector-curvature="0" />
  <path
     fill="#000000"
     fill-opacity="0"
     d="m 365.06169,83.35171 43.55905,0.50394"
     fill-rule="evenodd"
     id="path75"
     inkscape:connector-curvature="0" />
  <path
     stroke="#000000"
     stroke-width="3"
     stroke-linejoin="round"
     stroke-linecap="butt"
     d="m 365.06169,83.35171 25.56024,0.29572"
     fill-rule="evenodd"
     id="path77"
     inkscape:connector-curvature="0" />
  <path
     fill="#000000"
     stroke="#000000"
     stroke-width="3"
     stroke-linecap="butt"
     d="m 390.56462,88.60229 13.67071,-4.79738 -13.55606,-5.11235 z"
     fill-rule="evenodd"
     id="path79"
     inkscape:connector-curvature="0" />
  <path
     fill="#000000"
     fill-opacity="0"
     d="m 212.05381,213.97654 v 0 c 0,-4.50824 3.65463,-8.1629 8.16287,-8.1629 h 136.6821 c 2.16495,0 4.24121,0.86001 5.77204,2.39087 1.53085,1.53082 2.39086,3.60708 2.39086,5.77203 v 32.6506 c 0,4.50824 -3.65466,8.16288 -8.1629,8.16288 h -136.6821 c -4.50824,0 -8.16287,-3.65464 -8.16287,-8.16288 z"
     fill-rule="evenodd"
     id="path81"
     inkscape:connector-curvature="0" />
  <path
     stroke="#b7b7b7"
     stroke-width="3"
     stroke-linejoin="round"
     stroke-linecap="butt"
     stroke-dasharray="12, 9"
     d="m 212.05381,213.97654 v 0 c 0,-4.50824 3.65463,-8.1629 8.16287,-8.1629 h 136.6821 c 2.16495,0 4.24121,0.86001 5.77204,2.39087 1.53085,1.53082 2.39086,3.60708 2.39086,5.77203 v 32.6506 c 0,4.50824 -3.65466,8.16288 -8.1629,8.16288 h -136.6821 c -4.50824,0 -8.16287,-3.65464 -8.16287,-8.16288 z"
     fill-rule="evenodd"
     id="path83"
     inkscape:connector-curvature="0" />
  <path
     fill="#b7b7b7"
     d="m 290.51869,236.11558 h -3.98437 q -0.0156,-0.85937 -0.0156,-1.04687 0,-1.9375 0.64063,-3.1875 0.64062,-1.25 2.5625,-2.8125 1.92187,-1.5625 2.29687,-2.04688 0.57813,-0.76562 0.57813,-1.6875 0,-1.28125 -1.03125,-2.1875 -1.01563,-0.92187 -2.75,-0.92187 -1.67188,0 -2.79688,0.95312 -1.125,0.95313 -1.54687,2.90625 l -4.03125,-0.5 q 0.17187,-2.79687 2.375,-4.75 2.21875,-1.95312 5.8125,-1.95312 3.78125,0 6.01562,1.98437 2.23438,1.96875 2.23438,4.59375 0,1.45313 -0.82813,2.75 -0.8125,1.29688 -3.5,3.53125 -1.39062,1.15625 -1.73437,1.85938 -0.32813,0.70312 -0.29688,2.51562 z m -3.98437,5.90625 v -4.39062 h 4.39062 v 4.39062 z"
     fill-rule="nonzero"
     id="path85"
     inkscape:connector-curvature="0" />
  <path
     fill="#000000"
     fill-opacity="0"
     d="m 164.1168,108.34909 49.22833,96.91338"
     fill-rule="evenodd"
     id="path87"
     inkscape:connector-curvature="0" />
  <path
     stroke="#b7b7b7"
     stroke-width="3"
     stroke-linejoin="round"
     stroke-linecap="butt"
     d="m 164.1168,108.34909 41.07643,80.86513"
     fill-rule="evenodd"
     id="path89"
     inkscape:connector-curvature="0" />
  <path
     fill="#b7b7b7"
     stroke="#b7b7b7"
     stroke-width="3"
     stroke-linecap="butt"
     d="m 200.77534,191.45834 10.58359,9.89395 -1.7478,-14.3822 z"
     fill-rule="evenodd"
     id="path91"
     inkscape:connector-curvature="0" />
  <path
     fill="#000000"
     fill-opacity="0"
     d="m 364.30576,205.2512 47.93701,-94.86615"
     fill-rule="evenodd"
     id="path93"
     inkscape:connector-curvature="0" />
  <path
     stroke="#b7b7b7"
     stroke-width="3"
     stroke-linejoin="round"
     stroke-linecap="butt"
     d="m 364.30576,205.2512 39.819,-78.80074"
     fill-rule="evenodd"
     id="path95"
     inkscape:connector-curvature="0" />
  <path
     fill="#b7b7b7"
     stroke="#b7b7b7"
     stroke-width="3"
     stroke-linecap="butt"
     d="m 408.54736,128.68527 1.71744,-14.38586 -10.56272,9.91626 z"
     fill-rule="evenodd"
     id="path97"
     inkscape:connector-curvature="0" />
</svg>
