<?xml version="1.0" encoding="UTF-8"?>
<svg id="Calque_2" xmlns="http://www.w3.org/2000/svg" version="1.1" viewBox="0 0 3306.76 1440">
  <!-- Generator: Adobe Illustrator 29.0.1, SVG Export Plug-In . SVG Version: 2.1.0 Build 192)  -->
  <defs>
    <style>
      .st0 {
        fill: none;
      }

      .st1 {
        fill: #9497bb;
      }

      .st2 {
        fill: #5dbfd4;
      }

      .st3 {
        fill: #1e325a;
      }

      .st4 {
        fill: #ebedf0;
      }

      .st5 {
        fill: #d5d7e5;
      }

      .st6 {
        fill: #acaecb;
      }

      .st7 {
        fill: #ebecf3;
      }

      .st8 {
        fill: #777ba9;
      }
    </style>
  </defs>
  <path class="st7" d="M789.16,312.86c-8.13,14.06-16.27,28.11-24.38,42.17-7.74,13.42-15.41,26.87-23.16,40.28-7.84,13.57-15.78,27.08-23.61,40.66-6.79,11.79-13.47,23.63-20.19,35.46-.38-.03-.76-.05-1.14-.08-13.82-24.17-27.57-48.37-41.46-72.49-15.31-26.58-30.71-53.11-46.16-79.61-1.15-1.97-3.07-3.48-4.63-5.21-.05-.74-.09-1.48-.14-2.22-4.9-8.9-9.68-17.88-14.72-26.7-9.18-16.07-18.47-32.08-27.77-48.08-8.64-14.86-17.36-29.66-26.01-44.52-7.51-12.89-14.98-25.81-22.4-38.76-.43-.75-.26-1.84-.37-2.78,61.24,0,122.48,0,183.72,0,.03.51.07,1.02.1,1.52-.75,1.52-1.43,3.08-2.27,4.54-12.13,21.01-24.29,42.01-36.42,63.01-14.88,25.76-29.76,51.53-44.62,77.31-2.62,4.55-5.19,9.13-8.18,14.4h5.34c57.97,0,115.93,0,173.9,0,1.52,0,3.03-.12,4.55-.18.01.42.02.84.03,1.26Z"/>
  <path class="st3" d="M2467.66,806.31v-339.27c-8.14-11.64-16.16-23.1-24.61-35.18h78.52c42.74,60.7,85.78,121.82,129.11,183.35,43.15-61.45,85.99-122.45,128.85-183.49h56.55v374.43h-65.78v-247.66c-.38-.12-.77-.24-1.15-.36-19.62,28.07-39.25,56.13-58.86,84.2-19.59,28.04-39.1,56.13-59.55,85.21-39.66-55.96-78.41-110.65-117.17-165.33-.32.1-.65.21-.97.31v243.79h-64.95Z"/>
  <path class="st3" d="M1343.78,806.35h-66.16v-340.74c-7.65-10.99-15.4-22.12-23.76-34.13,2.87,0,4.69,0,6.5,0,61.05,0,122.09-.04,183.14.02,28.23.03,55.63,4.33,81.05,17.34,33.19,16.98,52.13,44.32,57.78,80.92,3.65,23.7,1.91,47-7.39,69.3-11.92,28.58-33.71,47.13-61.64,59.13-5.68,2.44-11.59,4.35-17.88,6.69,33.6,47.09,67.07,93.99,100.94,141.45h-78.69c-30.4-43.07-61.02-86.46-91.73-129.98h-82.17v130.01ZM1343.78,617.31c2.16,0,4.01,0,5.87,0,29.45,0,58.9.16,88.34-.1,8.31-.08,16.74-.7,24.87-2.3,32.27-6.38,55.34-28.14,53.74-64.02-1.02-23.05-11.11-40.13-32.19-50.25-13.09-6.28-27.07-8.63-41.42-8.69-31.16-.14-62.32-.04-93.47-.04h-5.75v125.41Z"/>
  <path class="st3" d="M2215.63,813.05c-55.62-.53-99.42-14.38-136.69-46.22-31.79-27.16-52.19-61.4-61.16-102.14-11.03-50.1-5.15-98.2,20.55-142.92,29.08-50.62,73.07-81.33,130.26-92.59,43.85-8.64,86.73-4.59,127.35,14.55,55.18,26,90.14,69.37,103.81,128.53,13.19,57.07,3.93,110.95-29.96,159.42-29.18,41.73-69.6,67.01-119.39,77.01-13.71,2.75-27.81,3.54-34.77,4.38ZM2335.73,613.82c.26-7.19-1.64-20.11-5.05-32.81-14.75-55.07-61.37-93.35-117.01-94.84-51.25-1.38-90.36,20.32-115.17,65.38-16.63,30.2-20.17,62.88-13.33,96.55,6.47,31.85,22.1,58.37,48.1,78.19,26.4,20.12,56.46,27.82,89.39,24.59,33.53-3.28,61.35-17.67,82.82-43.64,20.92-25.3,30.01-54.85,30.25-93.41Z"/>
  <path class="st3" d="M1189.4,431.72v58.77h-211.64v97.1h187.31v59.12h-187.22v100.46h214.09v59.01h-280.52v-339.46c-8.24-11.64-16.29-23.02-24.77-35h302.76Z"/>
  <path class="st3" d="M1971.25,483.66c-14.31,16.45-28.25,32.47-42.34,48.67-6.36-5.24-12.33-10.46-18.6-15.28-18.29-14.06-38.32-24.47-61.26-28.71-61.32-11.33-117.37,19.1-139.11,77.53-18.46,49.64-13.11,97.41,19.56,139.92,26.07,33.92,61.95,47.95,104.6,45.49,33.64-1.94,61.49-16.52,86.29-38.17,3.56-3.1,7.09-6.23,10.5-9.22,14.33,14.22,28.45,28.23,43.27,42.95-8.44,7.67-16.54,15.59-25.23,22.81-32.83,27.31-70.87,40.84-113.42,42.91-32.8,1.59-64.51-2.69-94.36-16.6-55.97-26.07-91.13-69.75-105.05-129.56-12.07-51.9-5.72-102.05,21.53-148.31,29.8-50.59,74.53-80.56,132.43-90.02,40.29-6.58,79.88-3.12,117.95,12.53,23.85,9.8,44.21,24.84,63.22,43.07Z"/>
  <path class="st5" d="M696.68,471.36c.38.03.76.05,1.14.08,6.87,12.13,13.67,24.3,20.62,36.39,9.5,16.53,19.11,32.99,28.67,49.48,13.92,24.01,27.83,48.02,41.72,72.04.27.46.22,1.1.32,1.65-61.25,0-122.5,0-183.74,0-59.47,0-118.93.03-178.4-.02-1.78,0-3.55-.67-5.33-1.02,6.3-11.18,12.52-22.42,18.93-33.55,23.98-41.65,48.02-83.26,72.03-124.88l.52-.11c.38.02.76.06,1.13.12.92,2.25,1.59,4.64,2.79,6.73,11.74,20.51,23.54,40.99,35.37,61.45,13.63,23.57,27.29,47.12,40.97,70.66,3.73,6.41,7.57,12.75,11.6,19.53,1.24-1.56,2.06-2.36,2.61-3.32,10.13-17.51,20.21-35.06,30.33-52.57,9.56-16.53,19.21-33.01,28.73-49.56,9.71-16.89,19.29-33.84,28.93-50.76.36-.78.73-1.57,1.09-2.35l-.04.03Z"/>
  <path class="st5" d="M789.16,312.86c-.01-.42-.02-.84-.03-1.26-.02-.32-.02-.63,0-.95,3.09-4.69,6.42-9.24,9.24-14.08,18.2-31.22,36.33-62.49,54.4-93.78,9.46-16.38,18.77-32.84,28.17-49.29,3.59,2.46,83.22,138.98,93.03,159.36h-184.8Z"/>
  <path class="st1" d="M605.41,630.99c61.25,0,122.5,0,183.74,0-1.69,3.35-3.21,6.8-5.08,10.04-21.52,37.24-43.11,74.45-64.65,111.68-7.2,12.44-14.35,24.92-21.93,38.09-3.78-6.35-7.27-12.08-10.63-17.89-26.93-46.59-53.84-93.2-80.73-139.81-.36-.63-.48-1.4-.71-2.11Z"/>
  <path class="st6" d="M328.13,472.59c-3.63-6.83-7.09-13.77-10.94-20.48-13.95-24.34-28.03-48.6-42.06-72.89-11.94-20.68-23.89-41.36-35.82-62.04-.82-1.42-1.57-2.89-2.64-4.89,1.66-.2,2.71-.44,3.75-.44,60.09,0,120.17.03,180.26.05-2.15,3.78-4.28,7.58-6.46,11.34-25.19,43.55-50.41,87.09-75.56,130.66-3.29,5.7-6.26,11.59-9.38,17.39-.15.4-.29.8-.44,1.2-.23.07-.47.11-.72.1Z"/>
  <path class="st2" d="M328.85,472.5c.15-.4.29-.8.44-1.2,51.82.03,103.64.05,155.45.09,9.3,0,18.6.09,27.9.14-24.02,41.62-48.05,83.24-72.03,124.88-6.41,11.13-12.63,22.36-18.93,33.55-.74-.04-1.48-.08-2.23-.12-.27-.69-.45-1.44-.82-2.07-29.92-51.76-59.85-103.52-89.79-155.27Z"/>
  <path class="st3" d="M604.28,311.83c.05.74.09,1.48.14,2.22-.7.84-1.53,1.6-2.07,2.53-13.86,23.92-27.66,47.88-41.52,71.8-15.86,27.35-31.77,54.66-47.66,81.99-.79-.77-1.8-1.42-2.33-2.34-11.55-19.95-23.03-39.94-34.57-59.89-15.41-26.67-30.91-53.29-46.25-79.99-2.99-5.21-5.47-10.71-8.19-16.08,26.8-.04,53.6-.09,80.4-.12,34.02-.04,68.04-.08,102.07-.12Z"/>
  <path class="st1" d="M789.13,310.65c-.02.32-.02.63,0,.95-1.52.06-3.03.18-4.55.18-57.97,0-115.93,0-173.9,0h-5.34c2.99-5.27,5.56-9.85,8.18-14.4,14.87-25.77,29.74-51.54,44.62-77.31,12.14-21.01,24.3-42,36.42-63.01.85-1.46,1.52-3.03,2.27-4.54,4.34,7.07,8.83,14.05,12.98,21.23,26.22,45.33,52.37,90.7,78.55,136.05.18.32.5.56.75.84Z"/>
  <path class="st7" d="M328.85,472.5c29.93,51.75,59.87,103.51,89.79,155.27.37.64.55,1.38.82,2.07-1.57.39-3.14,1.11-4.71,1.11-57.94.06-115.88.05-173.83.04-1.12,0-2.23-.15-4.44-.31,3.3-5.67,6.29-10.77,9.24-15.89,6.97-12.12,13.89-24.27,20.88-36.37,8.61-14.88,17.3-29.71,25.91-44.59,7-12.1,13.87-24.28,20.89-36.37,4.83-8.33,9.82-16.57,14.73-24.85.25,0,.49-.02.72-.1Z"/>
  <path class="st8" d="M421.82,312.07c2.72,5.37,5.2,10.87,8.19,16.08,15.35,26.7,30.84,53.32,46.25,79.99,11.54,19.96,23.02,39.95,34.57,59.89.53.92,1.54,1.56,2.33,2.34-.02.35-.02.7,0,1.04l-.52.11c-9.3-.05-18.6-.14-27.9-.14-51.82-.04-103.64-.06-155.45-.09,3.12-5.8,6.09-11.69,9.38-17.39,25.15-43.57,50.37-87.11,75.56-130.66,2.18-3.77,4.3-7.56,6.46-11.34.38.06.75.12,1.13.18Z"/>
  <path class="st6" d="M513.16,471.41c-.02-.35-.02-.7,0-1.04,15.89-27.33,31.81-54.64,47.66-81.99,13.87-23.92,27.67-47.88,41.52-71.8.54-.93,1.37-1.69,2.07-2.53,1.56,1.73,3.49,3.24,4.63,5.21,15.46,26.5,30.86,53.02,46.16,79.61,13.89,24.12,27.65,48.32,41.46,72.49l.04-.03c-1.14.07-2.27.15-3.41.22-59.67,0-119.34-.01-179.01-.02-.37-.06-.75-.11-1.13-.12Z"/>
  <path class="st4" d="M695.63,473.68c-.77-.71-1.55-1.42-2.32-2.13,1.14-.07,2.27-.15,3.41-.22-.36.78-.73,1.57-1.09,2.35Z"/>
  <path class="st3" d="M987.14,987.45c2.55.68,3.91,2.21,3.91,4.59v13.6c0,1.7-.85,2.55-2.55,2.55h-34.85c-11.39,0-18.87,2.89-22.44,8.84-3.4,5.95-5.1,17.34-5.1,34.51s1.7,28.73,5.1,34.68c3.57,5.95,11.05,8.84,22.44,8.84h34.85c1.7,0,2.55.85,2.55,2.55v13.77c0,2.21-1.36,3.74-3.91,4.42-8.33,1.7-19.55,2.55-33.49,2.55-22.27,0-34.85-3.4-43.52-14.11-8.33-10.88-11.05-26.18-11.05-52.7s2.72-41.82,11.05-52.53c8.67-10.71,21.25-14.11,43.52-14.11,13.09,0,24.14.85,33.49,2.55Z"/>
  <path class="st3" d="M1087.1,1022.3c1.7,0,2.55.85,2.55,2.55v90.62c0,11.05-.85,17.68-4.25,23.97-4.42,9.18-15.81,13.26-37.4,13.26-12.24,0-22.95-.85-31.96-2.38-1.53-.17-2.38-1.19-2.38-2.72v-12.92c0-1.7.85-2.55,2.38-2.55h29.75c14.79,0,18.53-3.23,18.53-14.62v-1.02c-6.63,1.19-13.6,1.87-20.74,1.87-15.3,0-25.84-3.23-31.62-9.69-5.61-6.63-8.5-18.02-8.5-34.17v-49.64c0-1.7.85-2.55,2.55-2.55h20.23c1.7,0,2.55.85,2.55,2.55v44.88c0,11.05,1.19,18.19,3.74,21.59,2.55,3.4,8.16,5.1,16.66,5.1,6.29,0,11.22-.34,15.13-1.02v-70.56c0-1.7.85-2.55,2.55-2.55h20.23Z"/>
  <path class="st3" d="M1132.5,985.92c1.7,0,2.55.85,2.55,2.72v33.83c6.29-.68,13.26-1.02,20.91-1.02,15.47,0,25.84,3.4,31.11,10.2,5.27,6.63,7.99,19.55,7.99,38.42s-2.89,32.13-8.84,38.59c-5.78,6.46-17.51,9.69-35.36,9.69-11.39,0-23.8-1.02-37.4-3.23-2.38-.34-3.57-1.7-3.57-4.25v-122.24c0-1.87.85-2.72,2.55-2.72h20.06ZM1135.05,1043.38v52.02c4.76.85,10.2,1.19,16.32,1.19,8.16,0,13.26-1.7,15.3-5.27,2.04-3.57,3.06-10.71,3.06-21.42s-1.19-18.36-3.4-21.59c-2.21-3.23-7.65-4.93-15.98-4.93h-15.3Z"/>
  <path class="st3" d="M1285.51,1030.97c5.61,6.29,8.33,18.87,8.5,37.74v5.27c0,3.4-1.19,4.59-5.44,4.59h-53.38c.17,7.48,1.36,12.41,3.91,14.62,2.55,2.21,7.65,3.4,15.3,3.4h30.09c1.7,0,2.55.85,2.55,2.55v14.11c0,1.53-.85,2.55-2.38,2.72-7.65,1.53-18.36,2.38-32.47,2.38-17.17,0-28.56-3.23-34.17-9.69-5.61-6.46-8.5-19.38-8.5-38.76s2.89-32.47,8.5-38.76c5.61-6.46,17-9.69,34.17-9.69s27.88,3.23,33.32,9.52ZM1235.01,1062.08h33.66c-.17-14.79-4.08-18.87-16.49-18.87s-17,4.08-17.17,18.87Z"/>
  <path class="st3" d="M1363.03,1023.32c1.87.51,2.72,1.53,2.72,3.4v13.94c0,1.7-1.02,2.55-2.89,2.55h-15.98c-9.35,0-11.9,1.7-11.9,8.67v62.91c0,1.87-.85,2.72-2.55,2.72h-20.23c-1.7,0-2.55-.85-2.55-2.72v-69.37c0-8.16,2.72-14.28,6.29-17.68,6.29-5.27,14.96-6.29,24.48-6.29s17.17.68,22.61,1.87Z"/>
  <path class="st3" d="M1487.65,988.3c2.04.68,3.06,1.7,3.06,3.06v13.77c0,2.04-1.02,3.06-3.23,3.06h-40.29c-10.37,0-15.64,3.74-15.64,11.05v2.38c0,5.95,3.4,10.2,10.03,12.75l31.79,12.41c8.5,3.4,14.62,7.65,18.19,12.58s5.44,12.07,5.44,21.59v4.76c0,23.8-17.17,32.64-48.96,32.64-13.09,0-27.03-1.19-41.99-3.57-1.87-.51-2.89-1.7-2.89-3.74v-12.92c0-2.04,1.02-3.06,3.23-3.06h48.28c10.37,0,15.47-3.57,15.47-10.54v-2.21c0-7.31-3.23-10.71-12.24-14.11l-33.15-12.41c-14.28-5.44-20.23-15.13-20.23-34.68v-3.74c0-23.97,15.64-32.47,47.6-32.47,11.05,0,22.95,1.19,35.53,3.4Z"/>
  <path class="st3" d="M1588.13,1031.31c6.8,7.48,8.5,18.36,8.5,38.59s-2.89,32.47-8.5,38.93c-5.61,6.29-17.34,9.52-34.85,9.52s-29.24-3.23-34.85-9.52c-5.61-6.46-8.5-19.38-8.5-38.93s2.89-32.47,8.5-38.76c5.61-6.46,17.34-9.69,34.85-9.69s28.05,2.21,34.85,9.86ZM1538.48,1048.48c-2.21,3.4-3.23,10.54-3.23,21.42s1.02,18.02,3.23,21.59c2.21,3.4,7.14,5.1,14.79,5.1s12.58-1.7,14.79-5.1c2.21-3.57,3.4-10.71,3.4-21.59s-1.19-18.02-3.4-21.42c-2.21-3.57-7.14-5.27-14.79-5.27s-12.58,1.7-14.79,5.27Z"/>
  <path class="st3" d="M1636.75,985.92c1.7,0,2.55.85,2.55,2.55v126.32c0,1.87-.85,2.72-2.55,2.72h-20.06c-1.7,0-2.55-.85-2.55-2.72v-126.32c0-1.7.85-2.55,2.55-2.55h20.06Z"/>
  <path class="st3" d="M1740.8,1022.3c1.53,0,2.38.85,2.38,2.55v87.73c0,2.04-.51,2.38-2.38,2.89-10.03,1.87-23.63,2.89-40.8,2.89s-25.84-1.36-32.64-7.48c-6.63-6.12-8.33-15.64-8.33-33.49v-52.53c0-1.7.85-2.55,2.72-2.55h20.06c1.53,0,2.38.85,2.38,2.55v46.07c0,8.33.51,14.28,1.53,17.85,2.04,6.8,5.27,7.82,16.83,7.82h15.3v-71.75c0-1.7.85-2.55,2.55-2.55h20.4Z"/>
  <path class="st3" d="M1791.8,995.95c1.87-.51,2.72.34,2.72,2.55v24.31h15.64c1.87,0,2.89.85,2.89,2.55v13.6c0,1.7-1.02,2.55-2.89,2.55h-15.64v46.41c0,6.97,2.38,8.67,10.03,8.67h6.97c1.87,0,2.89.85,2.89,2.55v14.45c0,1.87-.85,2.89-2.72,3.23-5.1,1.02-9.86,1.53-14.45,1.53-7.31,0-10.37,0-15.98-1.53-7.99-2.21-11.22-7.48-11.9-20.4v-54.91h-10.03c-1.87,0-2.72-.85-2.72-2.55v-13.6c0-1.7.85-2.55,2.72-2.55h10.03v-18.87c0-1.53.85-2.38,2.38-2.72l20.06-5.27Z"/>
  <path class="st3" d="M1855.39,995.78c0,8.67-5.27,13.77-14.62,13.77s-14.96-5.1-14.96-13.77,5.44-13.6,14.96-13.6,14.62,4.93,14.62,13.6ZM1850.63,1022.3c1.7,0,2.55.85,2.55,2.55v89.94c0,1.87-.85,2.72-2.55,2.72h-20.06c-1.7,0-2.55-.85-2.55-2.72v-89.94c0-1.7.85-2.55,2.55-2.55h20.06Z"/>
  <path class="st3" d="M1948.89,1031.31c6.8,7.48,8.5,18.36,8.5,38.59s-2.89,32.47-8.5,38.93c-5.61,6.29-17.34,9.52-34.85,9.52s-29.24-3.23-34.85-9.52c-5.61-6.46-8.5-19.38-8.5-38.93s2.89-32.47,8.5-38.76c5.61-6.46,17.34-9.69,34.85-9.69s28.05,2.21,34.85,9.86ZM1899.25,1048.48c-2.21,3.4-3.23,10.54-3.23,21.42s1.02,18.02,3.23,21.59c2.21,3.4,7.14,5.1,14.79,5.1s12.58-1.7,14.79-5.1c2.21-3.57,3.4-10.71,3.4-21.59s-1.19-18.02-3.4-21.42c-2.21-3.57-7.14-5.27-14.79-5.27s-12.58,1.7-14.79,5.27Z"/>
  <path class="st3" d="M2050.56,1028.93c6.8,6.12,8.5,15.64,8.5,33.32v52.53c0,1.87-.85,2.72-2.72,2.72h-20.06c-1.7,0-2.55-.85-2.55-2.72v-46.07c0-12.75-.17-18.19-3.4-21.76-2.89-3.57-5.95-3.74-14.79-3.74h-15.47v71.58c0,1.87-.85,2.72-2.55,2.72h-20.23c-1.7,0-2.55-.85-2.55-2.72v-87.9c0-2.04.85-2.21,2.55-2.55,8.67-1.87,22.1-2.89,40.63-2.89,17.17,0,26.01,1.36,32.64,7.48Z"/>
  <path class="st3" d="M2142.03,1023.66c1.87.51,2.72,1.36,2.72,2.72v12.92c0,1.87-1.02,2.72-2.89,2.72h-30.6c-6.63,0-10.03,2.04-10.03,6.12v1.7c0,3.23,2.72,5.95,8.16,7.82l21.76,7.65c13.6,4.76,17.85,12.75,17.85,25.5v2.72c0,18.53-12.58,24.82-36.21,24.82-12.58,0-24.31-.51-35.19-1.7-1.87,0-2.89-.85-2.89-2.55v-13.77c0-1.7,1.02-2.55,2.89-2.55h34.85c9.01,0,11.73-1.19,11.73-5.78v-1.53c0-3.4-2.04-5.44-9.35-7.99l-20.91-7.48c-11.56-3.91-17.34-12.58-17.34-25.84v-3.23c0-17.51,12.92-24.48,38.59-24.48,9.35,0,18.36.68,26.86,2.21Z"/>
  <path class="st2" d="M2196.77,1035.52c1.06,0,1.59.53,1.59,1.7v21.08c3.92-.42,8.26-.64,13.03-.64,9.64,0,16.1,2.12,19.38,6.36,3.28,4.13,4.98,12.18,4.98,23.94s-1.8,20.02-5.51,24.05c-3.6,4.02-10.91,6.04-22.03,6.04-7.1,0-14.83-.63-23.3-2.01-1.48-.21-2.22-1.06-2.22-2.65v-76.16c0-1.17.53-1.7,1.59-1.7h12.5ZM2198.36,1071.33v32.41c2.97.53,6.36.74,10.17.74,5.08,0,8.26-1.06,9.53-3.28,1.27-2.22,1.91-6.67,1.91-13.35s-.74-11.44-2.12-13.45-4.77-3.07-9.96-3.07h-9.53Z"/>
  <path class="st2" d="M2298.14,1058.19c1.06,0,1.59.53,1.59,1.59v56.46c0,6.89-.53,11.02-2.65,14.94-2.75,5.72-9.85,8.26-23.3,8.26-7.63,0-14.3-.53-19.92-1.48-.95-.11-1.48-.74-1.48-1.69v-8.05c0-1.06.53-1.59,1.48-1.59h18.54c9.22,0,11.55-2.01,11.55-9.11v-.64c-4.13.74-8.47,1.17-12.92,1.17-9.53,0-16.1-2.01-19.7-6.04-3.5-4.13-5.3-11.23-5.3-21.29v-30.93c0-1.06.53-1.59,1.59-1.59h12.61c1.06,0,1.59.53,1.59,1.59v27.96c0,6.89.74,11.33,2.33,13.45,1.59,2.12,5.08,3.18,10.38,3.18,3.92,0,6.99-.21,9.43-.64v-43.96c0-1.06.53-1.59,1.59-1.59h12.6Z"/>
  <path class="st3" d="M2409.12,985.92c1.87,0,2.72.85,2.72,2.55v18.19c0,1.7-.85,2.55-2.72,2.55h-35.53v105.58c0,1.87-.85,2.72-2.55,2.72h-21.59c-1.7,0-2.55-.85-2.55-2.72v-105.58h-35.53c-1.7,0-2.55-.85-2.55-2.55v-18.19c0-1.7.85-2.55,2.55-2.55h97.76Z"/>
  <path class="st3" d="M2447.37,985.92c1.7,0,2.55.85,2.55,2.72v33.66c5.27-.51,11.22-.85,18.02-.85,17.17,0,25.84,1.36,32.47,7.48,6.8,6.12,8.5,15.64,8.5,33.32v52.53c0,1.87-.85,2.72-2.55,2.72h-20.23c-1.53,0-2.38-.85-2.38-2.72v-46.07c0-8.33-.51-14.11-1.53-17.51-2.04-6.97-5.27-7.99-16.83-7.99h-15.3v71.58c0,1.87-.85,2.72-2.55,2.72h-20.4c-1.53,0-2.38-.85-2.38-2.72v-126.15c0-1.87.85-2.72,2.55-2.72h20.06Z"/>
  <path class="st3" d="M2596.3,1028.59c5.78,4.76,8.67,12.07,8.67,22.1v58.83c0,2.72-1.19,4.42-3.74,5.27-10.37,2.38-23.29,3.57-38.59,3.57-14.28,0-21.42-.68-28.9-4.59-7.31-4.08-10.2-11.73-10.37-24.82.17-10.88,2.89-18.19,8.33-22.1,5.61-3.91,14.45-5.78,26.52-5.78h21.59v-6.12c0-7.82-5.27-11.73-15.98-11.73h-30.77c-1.87,0-2.38-.51-2.38-2.55v-13.94c0-1.87.51-2.21,2.38-2.72,8.67-1.7,18.87-2.55,30.77-2.55,15.81,0,26.69,2.38,32.47,7.14ZM2579.81,1077.39h-19.55c-8.84,0-11.9,2.72-11.9,10.2,0,7.99,3.57,10.37,14.45,10.37,7.31,0,12.92-.51,17-1.7v-18.87Z"/>
  <path class="st3" d="M2647.3,985.92c1.7,0,2.55.85,2.55,2.55v126.32c0,1.87-.85,2.72-2.55,2.72h-20.06c-1.7,0-2.55-.85-2.55-2.72v-126.32c0-1.7.85-2.55,2.55-2.55h20.06Z"/>
  <path class="st3" d="M2743.36,1030.97c5.61,6.29,8.33,18.87,8.5,37.74v5.27c0,3.4-1.19,4.59-5.44,4.59h-53.38c.17,7.48,1.36,12.41,3.91,14.62,2.55,2.21,7.65,3.4,15.3,3.4h30.09c1.7,0,2.55.85,2.55,2.55v14.11c0,1.53-.85,2.55-2.38,2.72-7.65,1.53-18.36,2.38-32.47,2.38-17.17,0-28.56-3.23-34.17-9.69-5.61-6.46-8.5-19.38-8.5-38.76s2.89-32.47,8.5-38.76c5.61-6.46,17-9.69,34.17-9.69s27.88,3.23,33.32,9.52ZM2692.87,1062.08h33.66c-.17-14.79-4.08-18.87-16.49-18.87s-17,4.08-17.17,18.87Z"/>
  <path class="st3" d="M2831.09,1023.66c1.87.51,2.72,1.36,2.72,2.72v12.92c0,1.87-1.02,2.72-2.89,2.72h-30.6c-6.63,0-10.03,2.04-10.03,6.12v1.7c0,3.23,2.72,5.95,8.16,7.82l21.76,7.65c13.6,4.76,17.85,12.75,17.85,25.5v2.72c0,18.53-12.58,24.82-36.21,24.82-12.58,0-24.31-.51-35.19-1.7-1.87,0-2.89-.85-2.89-2.55v-13.77c0-1.7,1.02-2.55,2.89-2.55h34.85c9.01,0,11.73-1.19,11.73-5.78v-1.53c0-3.4-2.04-5.44-9.35-7.99l-20.91-7.48c-11.56-3.91-17.34-12.58-17.34-25.84v-3.23c0-17.51,12.92-24.48,38.59-24.48,9.35,0,18.36.68,26.86,2.21Z"/>
  <rect class="st0" width="3306.76" height="1440"/>
</svg>