<?xml version="1.0" encoding="UTF-8"?>
<!-- Generator: Adobe Illustrator 26.0.3, SVG Export Plug-In . SVG Version: 6.00 Build 0)  -->
<svg version="1.1" id="Layer_1" xmlns="http://www.w3.org/2000/svg" xmlns:xlink="http://www.w3.org/1999/xlink" x="0px" y="0px" viewBox="0 0 512 512" style="" xml:space="preserve">
<style type="text/css">
	.st0{fill:#EF0005;}
</style>
<g id="_x3C_Group_x3E_">
	<path class="st0" d="M212,355.9l-24,13.9c-9.9,5.7-16,16.3-16,27.7v27.7c0,12.3,13.3,20,24,13.9l24-13.9c9.9-5.7,16-16.3,16-27.7   v-27.7C236,357.5,222.7,349.8,212,355.9z"/>
	<path class="st0" d="M276,220.4l-88,50.8c-9.9,5.7-16,16.3-16,27.7v27.7c0,12.3,13.3,20,24,13.9l88-50.8c9.9-5.7,16-16.3,16-27.7   v-27.7C300,222,286.7,214.3,276,220.4z"/>
	<path class="st0" d="M340,84.9l-152,87.8c-9.9,5.7-16,16.3-16,27.7v27.7c0,12.3,13.3,20,24,13.9l152-87.8c9.9-5.7,16-16.3,16-27.7   V98.8C364,86.5,350.7,78.8,340,84.9z"/>
</g>
</svg>