<svg fill="#0db4c7" version="1.1" viewBox="0 0 506.55 904.03" xmlns="http://www.w3.org/2000/svg"><path d="m91.486 0.060031c21.306-0.9601 53.509 9.6542 65.802 27.675 6.944 10.181 7.0117 21.942 7.0308 33.775 0.0434 24.862-1.8792 49.677-18.019 69.988-16.291 20.502-50.851 25.106-75.622 26.152-17.18 0.72553-35.726-2.2753-49.149-13.919-25.64-22.241-26.559-69.392-12.295-97.828 15.724-31.347 48.845-44.337 82.253-45.843m296.53 2.4043c28.745-4.1327 92.654 4.4512 100.42 38.237 7.7352 33.654-3.0608 75.4-6.3363 109.25-6.2709 64.802-10.846 129.94-10.846 195.09 0 26.581-2.1194 54.174 0.44168 80.636 3.0341 31.356 10.171 62.091 12.331 93.642 4.2718 62.378 6.5932 124.89 10.87 187.28 2.4124 35.195 12.561 71.405 11.587 106.65-0.74773 27.017-13.17 58.23-37.833 71.747-16.737 9.1725-38.567 11.118-57.223 13.349-20.03 2.3955-48.013 4.6164-60.198-14.912-14.864-23.822-6.0744-59.734-4.9334-85.79 2.4667-56.323 2.8064-115.9-5.1018-171.68-3.5847-25.283-8.333-74.025-36.416-82.444-29.188-8.7502-62.186-2.1635-91.038 4.4375-17.158 3.9252-34.236 12.236-38.122 31.186-6.7561 32.946 0.7285 71.079 3.8657 104.05 3.994 41.971 7.0539 88.104 1.5455 130.06-3.1544 24.024 1.4394 50.367-17.568 69.374-18.998 18.998-59.448 21.971-84.981 21.331-44.508-1.1159-65.089-30.235-62.195-72.497 6.3038-92.055 20.205-183.15 17.937-275.72-1.3693-55.892-15.569-110.21-15.569-166.47 0-35.287 2.7361-71.942 9.395-106.65 2.8195-14.695 6.713-33.001 19.491-42.391 9.7513-7.1658 22.006-7.066 33.542-7.0287 37.525 0.1193 72.11 21.66 90.226 54.622 10.755 19.569 11.219 38.071 11.219 59.827 0 10.917-2.6948 26.344 2.6735 36.274 7.2404 13.392 23.173 13.127 36.344 13.148 28.571 0.0506 69.095 0.81792 93.527-16.255 24.431-17.072 18.333-61.553 18.322-87.791-7e-3 -27.057-5.7255-53.693-7.5707-80.636-2.5781-37.648-0.68889-74.338-0.24215-111.85 0.446-37.415-0.76248-74.554 39.027-91.364 7.4511-3.1482 15.391-5.5466 23.41-6.6995z"/></svg>
