<?xml version="1.0" encoding="UTF-8"?><svg id="Ebene_1" xmlns="http://www.w3.org/2000/svg" viewBox="0 0 1435.77 632.06"><defs><style>.cls-1{fill:#fff;}.cls-2{fill:#269ad6;}.cls-3{fill:#004462;}</style></defs><rect class="cls-2" x="163.18" y="273.87" width="97.11" height="28.66"/><rect class="cls-2" x="163.18" y="327.51" width="97.11" height="28.66"/><rect class="cls-3" x="817.89" y="409.74" width="454.71" height="57.76"/><path class="cls-3" d="M467.75,223l.74,16.73c10.17-12.8,23.46-19.19,39.86-19.19,28.13,0,42.32,15.87,42.57,47.61v87.97h-22.76v-88.09c-.08-9.6-2.28-16.69-6.58-21.28-4.31-4.59-11.01-6.89-20.12-6.89-7.38,0-13.86,1.97-19.44,5.91-5.58,3.94-9.92,9.1-13.04,15.5v94.85h-22.76v-133.12h21.53Z"/><path class="cls-3" d="M596.44,356.12v-115.52h-21.04v-17.59h21.04v-13.66c0-14.27,3.81-25.3,11.44-33.09,7.63-7.79,18.41-11.69,32.36-11.69,5.25,0,10.46.69,15.62,2.08l-1.23,18.34c-3.86-.74-7.96-1.11-12.3-1.11-7.38,0-13.08,2.16-17.1,6.48-4.02,4.32-6.03,10.51-6.03,18.57v14.07h28.42v17.59h-28.42v115.52h-22.76Z"/><path class="cls-3" d="M737.06,243.42c-3.45-.57-7.18-.86-11.2-.86-14.93,0-25.06,6.36-30.39,19.07v94.49h-22.76v-133.12h22.14l.37,15.38c7.46-11.89,18.04-17.84,31.74-17.84,4.43,0,7.79.58,10.09,1.72v21.16Z"/><path class="cls-3" d="M835.23,356.12c-1.31-2.62-2.38-7.3-3.2-14.03-10.58,10.99-23.21,16.49-37.89,16.49-13.12,0-23.89-3.71-32.29-11.14-8.41-7.42-12.61-16.83-12.61-28.23,0-13.86,5.27-24.62,15.81-32.29,10.54-7.67,25.36-11.5,44.48-11.5h22.14v-10.46c0-7.95-2.38-14.29-7.13-19.01-4.76-4.72-11.77-7.07-21.04-7.07-8.12,0-14.93,2.05-20.42,6.15-5.5,4.1-8.24,9.06-8.24,14.89h-22.88c0-6.64,2.36-13.06,7.07-19.25,4.72-6.19,11.11-11.09,19.19-14.7,8.08-3.61,16.96-5.41,26.64-5.41,15.34,0,27.35,3.84,36.05,11.5,8.69,7.67,13.2,18.23,13.53,31.68v61.27c0,12.22,1.56,21.94,4.68,29.16v1.97h-23.87ZM797.46,338.77c7.14,0,13.9-1.85,20.3-5.54,6.4-3.69,11.03-8.49,13.9-14.39v-27.31h-17.84c-27.89,0-41.83,8.16-41.83,24.48,0,7.14,2.38,12.71,7.14,16.73,4.76,4.02,10.87,6.03,18.33,6.03Z"/><path class="cls-3" d="M1012.88,227.92l-8.61-.74c-11.32,0-20.79,3.67-28.42,11-7.63,7.33-12.63,17.6-15.01,30.79v87.14h-6.64v-133.12h6.64v27.68c3.61-9.27,9.02-16.61,16.24-22.02,7.22-5.41,16.28-8.12,27.19-8.12,3.85,0,6.97.46,9.35,1.38l-.74,6Z"/><path class="cls-3" d="M1127.67,356.12v-21.53c-3.94,7.38-9.68,13.23-17.22,17.53-7.55,4.31-17.1,6.46-28.67,6.46-14.52,0-25.41-4.24-32.66-12.73-7.26-8.49-10.97-20.85-11.13-37.09v-85.75h6.64v86c.16,14.11,3.36,24.79,9.6,32.05,6.23,7.26,15.34,10.89,27.31,10.89,12.71,0,23.05-2.99,31-8.98,7.96-5.99,13-14.76,15.13-26.33v-93.62h6.77v133.12h-6.77Z"/><path class="cls-3" d="M1183.03,254c4.35-10.33,10.74-18.49,19.19-24.48,8.45-5.99,17.8-8.98,28.05-8.98,14.27,0,24.87,4.04,31.8,12.12,6.93,8.08,10.44,20.28,10.52,36.6v86.86h-6.64v-87.02c-.08-14.26-3-24.81-8.74-31.65-5.74-6.84-14.85-10.26-27.31-10.26-11.48,0-21.43,4.08-29.83,12.23-8.41,8.15-14.09,18.66-17.04,31.53v85.18h-6.64v-133.12h6.64v31Z"/><rect class="cls-2" x="893.67" y="334.08" width="22.04" height="22.04"/><path class="cls-3" d="M409.27,356.12h-22.76v-135.04h22.76v135.04Z"/><rect class="cls-2" x="163.18" y="220.98" width="185.16" height="28.66"/><rect class="cls-3" x="174.48" y="233.23" width="31.81" height="4.18"/><rect class="cls-1" x="260.28" y="233.85" width="31.81" height="4.18"/><rect class="cls-1" x="218.08" y="233.54" width="31.81" height="4.18"/><rect class="cls-1" x="303.19" y="233.23" width="31.81" height="4.18"/><rect class="cls-1" x="174.48" y="286.11" width="31.81" height="4.18"/><rect class="cls-3" x="217.38" y="286.11" width="31.81" height="4.18"/><rect class="cls-3" x="174.48" y="340.45" width="31.81" height="4.18"/><rect class="cls-1" x="217.38" y="340.22" width="31.81" height="4.18"/><rect class="cls-3" x="386.43" y="170.44" width="22.87" height="22.88"/><path class="cls-1" d="M847.26,440.1c-3.65-1.05-6.3-2.34-7.96-3.87-1.66-1.53-2.49-3.41-2.49-5.66,0-2.54,1.02-4.64,3.04-6.3,2.03-1.66,4.67-2.49,7.92-2.49,2.21,0,4.19.43,5.92,1.28,1.74.86,3.08,2.04,4.03,3.54s1.43,3.15,1.43,4.94h-4.27c0-1.96-.62-3.49-1.86-4.61-1.24-1.12-2.99-1.68-5.25-1.68-2.1,0-3.73.46-4.91,1.39-1.17.92-1.76,2.21-1.76,3.85,0,1.32.56,2.43,1.67,3.34,1.11.91,3.01,1.74,5.69,2.5,2.68.75,4.78,1.59,6.29,2.49,1.51.91,2.64,1.97,3.37,3.18s1.1,2.63,1.1,4.27c0,2.61-1.02,4.71-3.06,6.28-2.04,1.57-4.76,2.36-8.17,2.36-2.21,0-4.28-.42-6.2-1.27-1.92-.85-3.4-2.01-4.44-3.49s-1.56-3.15-1.56-5.03h4.27c0,1.95.72,3.49,2.16,4.62,1.44,1.13,3.36,1.69,5.77,1.69,2.24,0,3.96-.46,5.16-1.37,1.2-.92,1.79-2.16,1.79-3.74s-.55-2.8-1.66-3.67c-1.11-.86-3.12-1.72-6.02-2.56Z"/><path class="cls-1" d="M923.52,439.57h-13.97v11.43h16.23v3.48h-20.49v-32.24h20.26v3.48h-16.01v10.39h13.97v3.48Z"/><path class="cls-1" d="M983.53,441.43h-7.57v13.04h-4.27v-32.24h10.67c3.63,0,6.43.83,8.38,2.48s2.93,4.06,2.93,7.22c0,2.01-.54,3.76-1.63,5.25s-2.59,2.61-4.53,3.34l7.57,13.69v.27h-4.56l-7-13.04ZM975.95,437.95h6.53c2.11,0,3.79-.55,5.04-1.64,1.25-1.09,1.87-2.56,1.87-4.39,0-2-.59-3.53-1.78-4.59s-2.91-1.6-5.15-1.62h-6.51v12.25Z"/><path class="cls-1" d="M1050.51,448.82l9.21-26.6h4.65l-11.96,32.24h-3.76l-11.94-32.24h4.63l9.17,26.6Z"/><path class="cls-1" d="M1113.88,454.47h-4.25v-32.24h4.25v32.24Z"/><path class="cls-1" d="M1186,444.24c-.4,3.41-1.66,6.04-3.78,7.9-2.12,1.85-4.93,2.78-8.45,2.78-3.81,0-6.86-1.37-9.16-4.1-2.3-2.73-3.44-6.38-3.44-10.96v-3.1c0-3,.53-5.63,1.61-7.91,1.07-2.27,2.59-4.02,4.55-5.24,1.96-1.22,4.24-1.83,6.82-1.83,3.42,0,6.17.96,8.24,2.87,2.07,1.91,3.27,4.56,3.61,7.94h-4.27c-.37-2.58-1.17-4.44-2.4-5.6s-2.96-1.73-5.17-1.73c-2.72,0-4.85,1-6.39,3.01s-2.31,4.87-2.31,8.58v3.12c0,3.5.73,6.29,2.19,8.36,1.46,2.07,3.51,3.1,6.13,3.1,2.36,0,4.17-.54,5.44-1.61s2.1-2.93,2.51-5.59h4.27Z"/><path class="cls-1" d="M1250.66,439.57h-13.97v11.43h16.23v3.48h-20.49v-32.24h20.26v3.48h-16.01v10.39h13.97v3.48Z"/><circle class="cls-3" cx="311.46" cy="315.37" r="40.79"/><circle class="cls-1" cx="322.05" cy="299.6" r="8.4"/><circle class="cls-1" cx="322.05" cy="331.21" r="8.4"/><circle class="cls-1" cx="296.63" cy="314.92" r="11"/><rect class="cls-1" x="299.59" y="303.07" width="22.61" height="5.8" transform="translate(-111.33 196.44) rotate(-30)"/><rect class="cls-1" x="298.91" y="321.3" width="22.61" height="5.77" transform="translate(240.92 -119.13) rotate(34.85)"/></svg>