<svg width="1024" height="1024" viewBox="0 0 1024 1024" fill="none" xmlns="http://www.w3.org/2000/svg">
<path d="M452.1 306.5H452.16C474.2 229.45 570.24 191.84 668.11 191.84C735.74 191.84 796.45 213.25 838.07 247.24C813.232 248.411 788.708 253.285 765.31 261.7C798.94 274.2 827.83 293.43 849.24 317.22C833.087 314.439 816.707 313.201 800.32 313.52C840.596 371.863 862.114 441.105 862 512C862 705.3 705.3 862 512 862C321.68 862 162 702.65 162 512C162 481.89 166 450.8 173.77 421.64C175.81 415.52 178.65 409.65 182.42 407.5C187.14 404.81 191.44 412.83 192.13 415.44C197.248 434.61 204.134 453.263 212.7 471.16C211.95 431.2 229.02 394.8 252.5 363.32C268.16 342.33 282.68 322.88 289.38 266.75C289.83 262.98 293.4 260.27 297.01 261.45C347.97 278.13 375.21 362.99 370.98 433.95C399.13 437.98 399 408.57 399 408.57C390 380.91 396 329.5 452 306.5H452.1Z" fill="url(#paint0_linear_6394_2524)"/>
<path opacity="0.9" d="M850.55 422.87C859.06 615.37 700.81 781.34 507.84 781.34C327.19 781.34 179.16 641.71 165.77 464.49C163.381 481.085 162.125 497.824 162.01 514.59C163.38 704.21 322.67 862 512.01 862C705.31 862 862.01 705.3 862.01 512C862.01 481.2 858.02 451.33 850.55 422.87Z" fill="url(#paint1_radial_6394_2524)"/>
<path style="mix-blend-mode:screen" d="M503.47 332.01C499.7 325.34 482.29 315.47 474.68 313.75C503.48 221.5 650.2 193.18 740 209.5C777.37 216.3 823.91 236.66 838.07 247.24C796.45 213.25 735.73 191.84 668.11 191.84C570.24 191.84 474.2 229.45 452.16 306.5H452C396 329.5 390 380.93 399 408.58C407.64 375.59 448.75 335.05 503.47 332.01Z" fill="url(#paint2_radial_6394_2524)"/>
<path d="M605.18 268.3C526.56 283.77 500.87 288.83 474.56 313.84C504.11 235.61 579.54 219.75 669.42 255.41C648.028 259.82 626.615 264.12 605.18 268.31V268.3Z" fill="url(#paint3_linear_6394_2524)"/>
<path d="M181 410.93C159.52 498.87 176.12 602.23 273.7 688.97C244.65 657.2 209.18 539.9 287.45 456.1C292.72 450.45 301.79 454.6 302.08 462.32C308.53 636.48 449.06 742.85 611.08 722.96C560.88 720.14 394.86 661.99 518.36 638.99C582.91 626.96 684.12 608.11 684.12 517.29C684.12 370.07 570.29 327.03 501.26 333.43C454.02 337.81 411.97 367.79 399.03 408.56C404 424.63 384.19 435.88 370.98 433.99C375.22 363.04 347.98 278.13 297.01 261.45C293.41 260.27 289.83 262.98 289.38 266.75C282.68 322.88 268.16 342.33 252.51 363.32C229.02 394.81 211.95 431.2 212.7 471.16C204.134 453.263 197.248 434.61 192.13 415.44C191.56 413.28 188.43 407.25 184.65 406.97C182.6 406.82 181.51 408.82 181 410.93Z" fill="url(#paint4_radial_6394_2524)"/>
<path style="mix-blend-mode:screen" d="M474.99 647.9C570.03 725.07 761.16 667.21 761.16 479.58C684 596.54 585.72 677.22 475 647.9H474.99Z" fill="url(#paint5_linear_6394_2524)"/>
<path style="mix-blend-mode:screen" d="M287.45 456.1C288.314 455.134 289.403 454.394 290.62 453.948C291.838 453.501 293.146 453.362 294.43 453.54C224.37 538.99 280.88 689.06 319.66 725.93C321.83 732.07 282.87 700.14 277.5 692.67C248 667.64 205.72 543.61 287.45 456.1Z" fill="url(#paint6_linear_6394_2524)"/>
<path d="M512 654.97C607.06 654.97 684.13 592.09 684.13 514.52C684.13 436.95 607.06 374.07 512 374.07C430.9 374.07 339.83 426.83 339.87 516.57C339.91 655.24 486.41 735.02 611.29 722.94C601.91 721.85 543.39 718.74 503.84 674C500.27 669.97 494.08 662.93 496.89 658.36C499.69 653.79 507.41 654.96 511.99 654.96L512 654.97Z" fill="url(#paint7_linear_6394_2524)"/>
<path opacity="0.7" d="M512 654.969C607.06 654.969 684.13 592.089 684.13 514.519C684.13 490.839 676.95 468.519 664.25 448.939L527.63 573.029C518.09 581.689 502.02 581.689 492.48 573.029L358.4 451.249C346.165 470.83 339.74 493.481 339.87 516.569C339.91 655.239 486.41 735.019 611.29 722.939L609.054 722.719C594.894 721.328 540.994 716.033 503.84 673.999C500.27 669.969 494.08 662.929 496.89 658.369C499.25 654.523 505.066 654.739 509.587 654.907C510.449 654.939 511.265 654.969 512 654.969Z" fill="url(#paint8_linear_6394_2524)"/>
<g filter="url(#filter0_f_6394_2524)">
<path fill-rule="evenodd" clip-rule="evenodd" d="M472.04 573.849C446.69 547.469 370.77 459.819 370.77 459.819L376.64 460.079L495.5 548.849C504.4 555.319 517.1 555.249 525.92 548.699L642.47 460.199L648.65 459.709C648.65 459.709 575.21 545.279 547.08 573.469C518.95 601.659 497.39 600.229 472.04 573.849Z" fill="#458FCD"/>
</g>
<path d="M358.219 451.554C358.281 451.454 358.343 451.354 358.405 451.254L492.48 573.029C502.02 581.689 518.09 581.689 527.63 573.029L649.819 462.047L664.018 448.58C635.074 404.247 577.854 374.07 512 374.07C453.202 374.07 389.164 401.803 358.405 451.254L358.4 451.249C358.338 451.349 358.276 451.449 358.214 451.549L358.219 451.554Z" fill="url(#paint9_linear_6394_2524)"/>
<path d="M358.397 451.267L491.739 582.301C504.419 590.081 517.27 589.461 529.34 580.881L665.369 450.711C661.464 444.488 657.07 438.587 652.229 433.061C608.799 471.851 575.389 501.351 529.71 540.351C512.03 555.431 506.429 555.731 488.409 540.351C448.479 506.271 420.149 479.741 385.109 446.901L371.253 433.935C366.508 439.373 362.198 445.154 358.397 451.267Z" fill="white"/>
<path d="M536.15 303.809C554.57 298.009 552.95 279.779 552.95 279.779C552.95 279.779 543.74 268.929 525.49 274.939C508.41 280.569 505.76 292.739 505.76 292.739C505.76 292.739 515.09 310.439 536.15 303.809Z" fill="white"/>
<defs>
<filter id="filter0_f_6394_2524" x="338.77" y="427.709" width="341.88" height="198.416" filterUnits="userSpaceOnUse" color-interpolation-filters="sRGB">
<feFlood flood-opacity="0" result="BackgroundImageFix"/>
<feBlend mode="normal" in="SourceGraphic" in2="BackgroundImageFix" result="shape"/>
<feGaussianBlur stdDeviation="16" result="effect1_foregroundBlur_6394_2524"/>
</filter>
<linearGradient id="paint0_linear_6394_2524" x1="283.48" y1="307.2" x2="776.88" y2="767.42" gradientUnits="userSpaceOnUse">
<stop stop-color="#1B91F3"/>
<stop offset="1" stop-color="#0B68CB"/>
</linearGradient>
<radialGradient id="paint1_radial_6394_2524" cx="0" cy="0" r="1" gradientUnits="userSpaceOnUse" gradientTransform="translate(282.57 465.55) rotate(66.5177) scale(295.96 283.519)">
<stop offset="0.53" stop-color="#0B4186" stop-opacity="0"/>
<stop offset="1" stop-color="#0B4186" stop-opacity="0.45"/>
</radialGradient>
<radialGradient id="paint2_radial_6394_2524" cx="0" cy="0" r="1" gradientUnits="userSpaceOnUse" gradientTransform="translate(521 344) rotate(-127.997) scale(63.2702 104.698)">
<stop stop-color="#EF3ACC" stop-opacity="0"/>
<stop offset="1" stop-color="#EF3ACC" stop-opacity="0.64"/>
</radialGradient>
<linearGradient id="paint3_linear_6394_2524" x1="420.77" y1="425.01" x2="598.31" y2="227.37" gradientUnits="userSpaceOnUse">
<stop stop-color="#0F5DB0"/>
<stop offset="1" stop-color="#0F5DB0" stop-opacity="0"/>
</linearGradient>
<radialGradient id="paint4_radial_6394_2524" cx="0" cy="0" r="1" gradientUnits="userSpaceOnUse" gradientTransform="translate(380 702.7) rotate(-64.2624) scale(461.716 570.355)">
<stop offset="0.02" stop-color="#094188"/>
<stop offset="0.97" stop-color="#0B4186" stop-opacity="0"/>
</radialGradient>
<linearGradient id="paint5_linear_6394_2524" x1="731.92" y1="568.11" x2="649.37" y2="770.8" gradientUnits="userSpaceOnUse">
<stop stop-color="#E247C4" stop-opacity="0"/>
<stop offset="1" stop-color="#E247C4" stop-opacity="0.64"/>
</linearGradient>
<linearGradient id="paint6_linear_6394_2524" x1="220.01" y1="386.34" x2="292.74" y2="679.06" gradientUnits="userSpaceOnUse">
<stop offset="0.1" stop-color="#EF3ACC"/>
<stop offset="1" stop-color="#EF3ACC" stop-opacity="0"/>
</linearGradient>
<linearGradient id="paint7_linear_6394_2524" x1="512" y1="425.5" x2="512" y2="721.5" gradientUnits="userSpaceOnUse">
<stop stop-color="white"/>
<stop offset="0.91" stop-color="#BEE1FE"/>
<stop offset="1" stop-color="#96CEFD"/>
</linearGradient>
<linearGradient id="paint8_linear_6394_2524" x1="517.54" y1="592.999" x2="517.54" y2="716.999" gradientUnits="userSpaceOnUse">
<stop stop-color="#BCE0FD"/>
<stop offset="1" stop-color="#88CCFC"/>
</linearGradient>
<linearGradient id="paint9_linear_6394_2524" x1="512.446" y1="425.5" x2="512.446" y2="721.5" gradientUnits="userSpaceOnUse">
<stop stop-color="white"/>
<stop offset="0.91" stop-color="#BEE1FE"/>
<stop offset="1" stop-color="#96CEFD"/>
</linearGradient>
</defs>
</svg>
