<svg width="270" height="270" viewBox="0 0 270 270" fill="none" xmlns="http://www.w3.org/2000/svg">
<path d="M76.4397 161.648C76.4397 173.327 66.899 182.868 55.2198 182.868C43.5407 182.868 33.9999 173.327 33.9999 161.648C33.9999 149.969 43.5407 140.428 55.2198 140.428H76.4397V161.648Z" fill="#E01E5A"/>
<path d="M87.1318 161.648C87.1318 149.969 96.6726 140.428 108.352 140.428C120.031 140.428 129.572 149.969 129.572 161.648V214.78C129.572 226.459 120.031 236 108.352 236C96.6726 236 87.1318 226.459 87.1318 214.78V161.648Z" fill="#E01E5A"/>
<path d="M108.352 76.4398C96.6726 76.4398 87.1318 66.899 87.1318 55.2199C87.1318 43.5407 96.6726 34 108.352 34C120.031 34 129.572 43.5407 129.572 55.2199V76.4398H108.352Z" fill="#36C5F0"/>
<path d="M108.352 87.1321C120.031 87.1321 129.572 96.6728 129.572 108.352C129.572 120.031 120.031 129.572 108.352 129.572H55.2198C43.5407 129.572 33.9999 120.031 33.9999 108.352C33.9999 96.6728 43.5407 87.1321 55.2198 87.1321H108.352Z" fill="#36C5F0"/>
<path d="M193.56 108.352C193.56 96.6728 203.101 87.1321 214.78 87.1321C226.459 87.1321 236 96.6728 236 108.352C236 120.031 226.459 129.572 214.78 129.572H193.56V108.352Z" fill="#2EB67D"/>
<path d="M182.868 108.352C182.868 120.031 173.327 129.572 161.648 129.572C149.969 129.572 140.428 120.031 140.428 108.352V55.2199C140.428 43.5407 149.969 34 161.648 34C173.327 34 182.868 43.5407 182.868 55.2199V108.352Z" fill="#2EB67D"/>
<path d="M161.648 193.56C173.327 193.56 182.868 203.101 182.868 214.78C182.868 226.459 173.327 236 161.648 236C149.969 236 140.428 226.459 140.428 214.78V193.56H161.648Z" fill="#ECB22E"/>
<path d="M161.648 182.868C149.969 182.868 140.428 173.327 140.428 161.648C140.428 149.969 149.969 140.428 161.648 140.428H214.78C226.459 140.428 236 149.969 236 161.648C236 173.327 226.459 182.868 214.78 182.868H161.648Z" fill="#ECB22E"/>
</svg>
