<svg width="1076" height="1076" viewBox="0 0 1076 1076" fill="none" xmlns="http://www.w3.org/2000/svg">
<path d="M538 138C312.7 138 138 303.1 138 526C138 642.6 185.8 743.4 263.6 813C270.1 818.8 274.1 827 274.3 835.8L276.5 907C276.66 912.239 278.105 917.358 280.707 921.908C283.309 926.458 286.988 930.299 291.422 933.093C295.856 935.888 300.909 937.551 306.136 937.936C311.363 938.32 316.605 937.415 321.4 935.3L400.8 900.3C407.5 897.3 415.1 896.8 422.2 898.7C458.7 908.7 497.5 914.1 538 914.1C763.3 914.1 938 749 938 526.1C938 303.2 763.3 138 538 138Z" fill="url(#paint0_radial_1087_14469)"/>
<path d="M297.8 639.5L415.3 453.1C419.72 446.082 425.547 440.057 432.414 435.405C439.28 430.752 447.036 427.574 455.192 426.071C463.349 424.567 471.728 424.771 479.802 426.669C487.876 428.568 495.468 432.119 502.1 437.1L595.6 507.2C599.774 510.325 604.852 512.006 610.067 511.988C615.281 511.97 620.348 510.254 624.5 507.1L750.7 411.3C767.5 398.5 789.5 418.7 778.3 436.6L660.7 622.9C656.28 629.918 650.453 635.943 643.586 640.595C636.72 645.248 628.964 648.426 620.808 649.929C612.651 651.433 604.272 651.229 596.198 649.33C588.124 647.432 580.532 643.881 573.9 638.9L480.4 568.8C476.226 565.675 471.148 563.994 465.933 564.012C460.719 564.03 455.652 565.746 451.5 568.9L325.3 664.7C308.5 677.5 286.5 657.4 297.8 639.5Z" fill="white"/>
<defs>
<radialGradient id="paint0_radial_1087_14469" cx="0" cy="0" r="1" gradientUnits="userSpaceOnUse" gradientTransform="translate(272 938) scale(880 880)">
<stop stop-color="#0099FF"/>
<stop offset="0.6" stop-color="#A033FF"/>
<stop offset="0.9" stop-color="#FF5280"/>
<stop offset="1" stop-color="#FF7061"/>
</radialGradient>
</defs>
</svg>
