<svg width="326" height="326" viewBox="0 0 326 326" fill="none" xmlns="http://www.w3.org/2000/svg">
<rect width="326" height="326" fill="#1D9BF0"/>
<path d="M260.95 112.793C261.1 114.963 261.1 117.133 261.1 119.323C261.1 186.053 210.3 263.013 117.41 263.013V262.973C89.97 263.013 63.1 255.153 40 240.333C43.99 240.813 48 241.053 52.02 241.063C74.76 241.083 96.85 233.453 114.74 219.403C93.13 218.993 74.18 204.903 67.56 184.333C75.13 185.793 82.93 185.493 90.36 183.463C66.8 178.703 49.85 158.003 49.85 133.963V133.323C56.87 137.233 64.73 139.403 72.77 139.643C50.58 124.813 43.74 95.2926 57.14 72.2126C82.78 103.763 120.61 122.943 161.22 124.973C157.15 107.433 162.71 89.0526 175.83 76.7226C196.17 57.6026 228.16 58.5826 247.28 78.9126C258.59 76.6826 269.43 72.5326 279.35 66.6526C275.58 78.3426 267.69 88.2726 257.15 94.5826C267.16 93.4026 276.94 90.7226 286.15 86.6326C279.37 96.7926 270.83 105.643 260.95 112.793Z" fill="white"/>
</svg>
