<?xml version="1.0" standalone="no"?>
<!DOCTYPE svg PUBLIC "-//W3C//DTD SVG 20010904//EN"
 "http://www.w3.org/TR/2001/REC-SVG-20010904/DTD/svg10.dtd">
<svg version="1.0" xmlns="http://www.w3.org/2000/svg"
 width="326" height="326" viewBox="0 0 2400.000000 2453.000000"
 preserveAspectRatio="xMidYMid meet">
<metadata>
Created by potrace 1.16, written by Peter Selinger 2001-2019
</metadata>
<g transform="translate(0.000000,2453.000000) scale(0.100000,-0.100000)"
fill="#000000" stroke="none">
<path d="M0 24525 c0 -2 2106 -3069 4680 -6816 2574 -3746 4680 -6812 4680
-6815 0 -2 -2106 -2452 -4680 -5444 -2574 -2992 -4680 -5442 -4680 -5445 0 -3
478 -5 1063 -4 l1062 0 4089 4755 c2249 2614 4092 4754 4095 4754 3 0 1475
-2139 3271 -4753 l3265 -4752 3578 -3 c1967 -1 3577 1 3577 4 0 3 -2185 3186
-4855 7072 -4808 6997 -4855 7066 -4837 7086 13 15 8729 10149 8900 10349 14
16 -37 17 -1050 17 l-1064 0 -3865 -4492 c-2125 -2470 -3869 -4498 -3874
-4505 -8 -11 -749 1061 -3105 4491 l-3095 4505 -3577 1 c-1968 0 -3578 -2
-3578 -5z m7490 -3540 c746 -1067 4091 -5853 7435 -10635 3343 -4782 6098
-8723 6122 -8757 l45 -63 -1620 0 -1620 0 -3075 4397 c-1690 2419 -5046 7220
-7457 10668 -2410 3449 -4393 6285 -4407 6303 l-24 32 1622 -2 1622 -3 1357
-1940z"/>
</g>
</svg>
