<svg xmlns="http://www.w3.org/2000/svg" xml:space="preserve" width="240" height="240" viewBox="0 0 63.5 63.5">
  <defs>
    <linearGradient id="a" x1="-41.412" x2="-41.412" y1="1.974" y2="65.474" gradientTransform="translate(-49.739 67.767)" gradientUnits="userSpaceOnUse">
      <stop offset="0" stop-color="#2f3544"/>
      <stop offset="1" stop-color="#121828"/>
    </linearGradient>
  </defs>
  <path fill="url(#a)" d="M-122.9 69.74h63.5v63.5h-63.5z" transform="translate(122.9 -69.74)"/>
    <g fill="#fff" fill-rule="evenodd" stroke-linejoin="round" stroke-miterlimit="2" clip-rule="evenodd">
      <path fill-rule="nonzero" d="M20.523 37.997V24.301l-2.316.2v-3.124l8.289-.715v3.123l-2.316.2v13.697zM31.494 37.29a3.94 3.94 0 0 1-2.146-.39 3.4 3.4 0 0 1-1.536-1.382c-.39-.591-.585-1.271-.585-2.064v-8.89c0-.794.195-1.507.585-2.19a4.75 4.75 0 0 1 1.536-1.646c.658-.417 1.365-.67 2.146-.738s1.487.064 2.145.368c.658.327 1.17.788 1.56 1.379.366.617.561 1.297.561 2.09v8.89c0 .793-.195 1.507-.56 2.163a4.6 4.6 0 0 1-1.561 1.649 4.47 4.47 0 0 1-2.145.762m0-3.171c.17-.015.316-.1.438-.23s.171-.255.171-.424v-9.78c0-.167-.049-.331-.17-.44s-.269-.146-.44-.131-.316.075-.438.206-.195.305-.195.473v9.78c0 .168.073.282.195.391s.268.17.439.155M40.583 36.506c-.78.067-1.463-.066-2.023-.402-.585-.31-1.024-.777-1.341-1.398-.317-.597-.463-1.282-.463-2.075v-2.354c0-.77.195-1.483.585-2.165.365-.68.877-1.23 1.536-1.67a4.7 4.7 0 0 1 2.145-.739l.658-.056V22.57c0-.168-.073-.33-.195-.44s-.292-.143-.463-.128-.317.075-.439.206-.195.305-.195.473v2.451l-3.632.314V23.74c0-.793.195-1.507.585-2.19a4.75 4.75 0 0 1 1.536-1.646 4.7 4.7 0 0 1 2.145-.737 4.2 4.2 0 0 1 2.17.365q.951.495 1.536 1.381c.365.617.56 1.297.56 2.09V35.86l-2.56.22v-.84l-.243.02q-.256.563-.805.863a2.5 2.5 0 0 1-1.097.383m.439-3.378c.17-.014.341-.101.463-.232s.195-.281.195-.45v-3.435l-.658.056c-.17.015-.317.076-.439.206s-.195.306-.195.474v2.811c0 .168.073.306.195.416s.268.169.439.154M48.336 35.597V21.9l-2.316.2v-3.123l8.289-.716v3.124l-2.316.2V35.28z"/>
      <path d="m9.279 26.297-.004-.108v-.096q0-1.177.569-2.176c.569-.999.89-1.214 1.536-1.646s1.355-.682 2.13-.749q1.185-.102 2.142.38c.957.482 1.145.783 1.524 1.383s.569 1.292.569 2.077v1.706l-3.582.31v-1.851q0-.264-.193-.44c-.193-.176-.283-.168-.46-.152q-.243.02-.436.23c-.193.21-.193.296-.193.473q0 .009.002.013s-.016 1.06-.016 2.216c0 .637.681.478.681.478l1.015-.087c1.554-.134 3.182 1.38 3.182 4.03v1.965q0 1.177-.569 2.175c-.569.998-.887 1.214-1.524 1.646s-1.352.68-2.142.75q-1.162.1-2.13-.382c-.968-.482-1.157-.78-1.536-1.381s-.57-1.292-.57-2.077V33.06l3.572-.308.035.071v1.969q0 .24.181.428c.181.188.27.181.448.166s.35-.08.46-.244c.173-.255.177-.882.19-1.005.017-.182.031-.706.031-1.863 0-.61-.643-.492-.643-.492l-1.014.088c-1.555.134-3.22-1.06-3.22-3.71 0-.81-.035-1.864-.035-1.864M9.273 41.004l42.726-3.687v3.635L9.273 44.639z"/>
    </g>
</svg>
