<svg width="72" height="72" viewBox="0 0 172 172"><path fill="white" d="M 41.00027,20.00007 C 29.64305,20.00007 20,29.64311 20,41.000331 v 89.999679 c 0,11.35721 9.64305,21.00026 21.00027,21.00026 h 82.01411 a 20.097629,20.097629 0 0 1 5.20151,0.68477 300493.07,300493.07 0 0 1 3.13986,0.84133 l 27.73005,7.43037 a 1.5275578,1.5275578 0 0 0 1.87088,-1.87088 l -7.43038,-27.73003 a 473407.38,473407.38 0 0 1 -1.36957,-5.11136 12.387874,12.387874 0 0 1 -0.15653,-3.23001 V 41.000331 c 0,-11.357221 -9.64304,-21.000261 -21.00027,-21.000261 z m 10.99984,32.000111 h 67.99998 V 120.00017 H 52.00011 Z"></path></svg>
