<svg width="403" height="415" viewBox="0 0 403 415" fill="none" xmlns="http://www.w3.org/2000/svg">
<path d="M60.9778 52.3447C60.9778 52.3447 88.1429 83.2595 93.5754 102.423C98.3209 119.162 90.3603 150.24 95.3215 173.368C97.1113 181.712 99.4221 188.371 103.947 196.489L91.7786 215.7L73.263 254.665L56.1692 308.935L49.2747 337.841L61.5286 331.462C61.6499 333.016 61.7728 334.646 61.7901 335.009C61.8279 335.786 61.7364 335.931 57.8331 341.306C55.635 344.333 53.7015 347.019 53.5362 347.271C53.3707 347.523 52.1398 352.015 50.8019 357.252L48.3683 366.771L45.8097 371.158L43.2511 375.541L45.2823 379.201C47.016 382.321 47.3688 382.848 47.6847 382.798C47.8884 382.764 50.8233 382.376 54.2081 381.935L60.3644 381.134L67.2745 384.494C74.1811 387.85 74.1862 387.853 75.173 387.763C75.7161 387.713 87.6175 386.959 101.618 386.087C115.619 385.216 128.116 384.433 129.388 384.345L131.7 384.185L136.017 381.396L140.333 378.607L157.392 373.677L174.45 368.747L180.411 367.708C181.633 367.496 182.644 367.35 183.849 367.146C184.505 367.287 185.193 367.391 185.985 367.4C201.143 367.561 204.225 365.763 212.325 365.763C220.425 365.763 223.519 367.561 238.677 367.4C239.485 367.389 240.184 367.284 240.852 367.138L249.755 368.627L256.388 370.537C260.034 371.586 267.788 373.82 273.622 375.502L284.227 378.556L288.614 381.381L293.001 384.205L321.762 386.013L350.52 387.818L357.411 384.474L364.301 381.135L370.454 381.935C373.836 382.376 376.79 382.74 377.02 382.74C377.381 382.74 377.692 382.282 379.258 379.424C380.257 377.601 381.149 375.983 381.243 375.83C381.373 375.616 380.809 374.51 378.84 371.127L376.266 366.705L373.844 357.177L371.423 347.65L367.098 341.67L362.778 335.693L363.122 331.455L375.391 337.842L368.493 308.935L351.383 254.666L332.868 215.701L319.965 195.314L319.926 195.247L295.496 154.204L295 152.556L251.372 134.044L250.622 133.97C250.622 133.97 225.648 131.267 212.325 131.267C199.001 131.267 174.04 133.97 174.04 133.97L173.29 134.044L140.528 147.946C141.152 134.584 145.47 123.192 152.348 112.591C163.19 95.8814 199.875 76.3721 199.875 76.3721L130.426 64.3563L60.9778 52.3447Z" fill="#19931F" stroke="#FDD835" stroke-width="2"/>
<g filter="url(#filter0_f_1241_14877)">
<path d="M155.417 251.293C155.417 251.293 114.065 212.999 107.544 202.727C100.384 191.45 97.4056 183.71 95.1744 173.309C90.2131 150.18 98.175 119.106 93.4296 102.367C87.997 83.2033 60.8318 52.2856 60.8318 52.2856L130.28 64.299L199.729 76.3124C199.729 76.3124 163.044 95.8239 152.202 112.533C143.233 126.357 138.593 141.512 140.859 160.649C142.668 175.923 188.502 237.653 175.64 219.403" fill="#FDD835"/>
</g>
<g filter="url(#filter1_f_1241_14877)">
<path d="M183.93 361.728C181.047 360.799 176.02 357.971 164.933 351.039C156.93 346.036 155.121 345.034 149.929 342.738C144.11 340.163 139.771 338.607 127.501 334.694L123.833 333.525L123.833 332.514C123.834 328.242 130.541 310.69 141.513 286.248C155.442 255.217 170.828 225.064 175.02 220.582C175.707 219.848 176.053 219.651 177.621 219.103C188.209 215.4 197.523 214.036 212.221 214.037C226.136 214.037 234.904 215.244 245.133 218.566C248.508 219.662 248.632 219.719 249.314 220.495C255.441 227.455 280.185 278.144 293.278 310.554C297.914 322.031 300.253 328.994 300.553 332.215C300.655 333.302 300.647 333.33 300.147 333.588C299.866 333.733 297.07 334.657 293.933 335.642C282.219 339.318 274.606 342.323 267.994 345.879C266.827 346.507 262.85 348.905 259.155 351.209C255.46 353.513 251.324 356.063 249.963 356.875C247.074 358.599 241.904 361.252 240.505 361.728C238.385 362.449 230.498 362.242 222.179 361.247C217.847 360.729 216.984 360.679 212.221 360.678C207.46 360.677 206.591 360.726 202.233 361.243C196.886 361.878 192.295 362.177 188.091 362.165C185.594 362.157 185.107 362.106 183.93 361.728Z" fill="#8BC34A"/>
</g>
<g filter="url(#filter2_f_1241_14877)">
<path d="M87.8325 333.719L78.6139 331.279L73.1552 328.083L67.6965 324.888L64.2301 325.399C60.7749 325.909 60.7573 325.914 58.7768 326.907L56.7899 327.904L56.9162 327.405C56.9857 327.131 57.9464 323.128 59.0511 318.509L61.0598 310.112L69.5369 283.242L78.014 256.372L87.1011 237.265L96.1882 218.158L102.553 208.097L108.918 198.036L119.147 191.156L129.376 184.275L130.626 184.919C132.388 185.826 140.541 190.492 143.809 192.462C153.484 198.297 158.082 202.076 170.904 214.73L175.639 219.403L174.856 220.21C172.371 222.769 166.756 232.827 158.22 250.008C140.428 285.82 124.058 324.421 123.527 331.815C123.44 333.027 123.385 333.197 123.056 333.268C122.649 333.355 97.2835 336.201 97.1396 336.176C97.091 336.168 92.9028 335.062 87.8325 333.719Z" fill="#8BC34A"/>
</g>
<g filter="url(#filter3_f_1241_14877)">
<path d="M245.572 218.318C240.38 216.572 234.507 215.225 229.212 214.565C224.63 213.994 222.165 213.85 215.049 213.74C199.428 213.498 190.31 214.62 179.388 218.129L175.988 219.222L171.168 214.461C160.876 204.297 155.601 199.672 150.17 196.05C146.052 193.303 137.08 187.976 131.213 184.793L129.666 183.954L129.676 182.244C129.681 181.304 129.79 177.791 129.918 174.436L130.15 168.338L131.965 162.327L133.781 156.317L154.124 147.688L174.468 139.059L178.716 138.636C183.798 138.13 194.17 137.265 200.289 136.838C205.661 136.463 217.717 136.414 222.739 136.748C230.322 137.251 241.788 138.208 247.576 138.821L249.963 139.074L270.28 147.697L290.597 156.32L292.407 162.355L294.216 168.391L294.405 173.756C294.509 176.707 294.643 180.198 294.703 181.514L294.811 183.907L293.865 184.414C285.98 188.646 274.589 195.547 271.013 198.258C267.014 201.29 261.881 205.943 254.385 213.332L248.372 219.259L245.572 218.318Z" fill="#8BC34A"/>
</g>
<path d="M109.724 196.778C110.635 195.067 132.59 158.369 132.63 158.491C132.662 158.586 132.037 160.8 131.243 163.412L129.797 168.161L129.524 176.035L129.251 183.909L119.641 190.354C114.355 193.899 109.943 196.829 109.836 196.866C109.729 196.903 109.679 196.863 109.724 196.778Z" fill="#43A047"/>
<path d="M304.958 190.507C299.621 186.922 295.23 183.966 295.202 183.938C295.174 183.91 295.023 180.388 294.868 176.112L294.585 168.338L293.081 163.322C292.254 160.564 291.608 158.277 291.645 158.24C291.682 158.203 296.9 166.892 303.241 177.55C309.582 188.207 314.746 196.949 314.717 196.976C314.687 197.002 310.296 194.091 304.958 190.507Z" fill="#43A047"/>
<g filter="url(#filter4_f_1241_14877)">
<path d="M313.779 334.68C306.779 333.872 301.031 333.205 301.007 333.196C300.983 333.188 300.962 332.884 300.961 332.519C300.959 331.343 300.121 328.113 298.779 324.103C290.197 298.465 256.845 228.099 249.493 220.124L248.812 219.385L254.696 213.572C265.311 203.084 269.97 199.135 276.921 194.73C281.271 191.974 288.493 187.76 293.845 184.855L294.948 184.257L305.163 191.101L315.378 197.946L321.788 208.067L328.197 218.189L337.304 237.354L346.411 256.52L354.883 283.404L363.355 310.289L365.452 319.04C366.605 323.852 367.527 327.819 367.5 327.854C367.473 327.888 366.619 327.471 365.601 326.925L363.752 325.933L360.219 325.405L356.686 324.877L351.231 328.074L345.775 331.271L336.447 333.729C331.316 335.081 326.98 336.178 326.812 336.168C326.644 336.158 320.779 335.488 313.779 334.68Z" fill="#8BC34A"/>
</g>
<g filter="url(#filter5_f_1241_14877)">
<path d="M67.1279 384.435L60.2158 381.076L54.0616 381.877C50.6768 382.318 47.7408 382.705 47.5372 382.737C47.2214 382.787 46.8689 382.26 45.1352 379.14L43.1033 375.483L45.6625 371.097L48.2216 366.711L50.6542 357.19C51.9921 351.954 53.222 347.463 53.3873 347.211C53.5526 346.958 55.4863 344.275 57.6844 341.248C61.5874 335.874 61.68 335.726 61.6429 334.949C61.6219 334.512 61.4799 332.592 61.3274 330.682C61.1748 328.773 61.076 326.986 61.1078 326.712L61.1656 326.213L64.3476 325.736L67.5296 325.259L72.9718 328.429L78.4141 331.6L87.7988 334.076L97.1835 336.553L110.287 335.084C122.9 333.671 123.414 333.627 124.01 333.908C124.35 334.068 127.204 335.01 130.352 336C141.549 339.52 148.416 342.2 155.152 345.678C156.643 346.447 161.124 349.107 165.11 351.588C169.096 354.069 173.608 356.832 175.135 357.727C178.564 359.738 182.967 361.897 184.372 362.256C186.579 362.822 194.398 362.536 202.233 361.603C206.565 361.088 207.48 361.035 212.133 361.032C216.797 361.03 217.69 361.08 222.032 361.594C227.61 362.254 231.682 362.526 235.981 362.526C238.808 362.526 239.195 362.488 240.507 362.073C243.476 361.136 247.926 358.643 259.62 351.369C267.044 346.751 269.012 345.637 272.944 343.825C278.685 341.179 284.671 338.96 294.304 335.909C297.237 334.98 299.929 334.079 300.286 333.907C300.927 333.597 301.11 333.612 314.052 335.072L327.169 336.551L336.295 334.159C341.315 332.844 345.679 331.65 345.993 331.507C346.307 331.364 348.86 329.901 351.666 328.256L356.768 325.267L359.963 325.733C361.721 325.989 363.21 326.25 363.272 326.312C363.334 326.375 363.215 328.497 363.007 331.029L362.629 335.632L366.952 341.61L371.275 347.589L373.697 357.117L376.119 366.646L378.693 371.069C380.661 374.452 381.226 375.557 381.096 375.771C381.002 375.924 380.108 377.541 379.109 379.364C377.543 382.223 377.236 382.679 376.874 382.679C376.644 382.679 373.688 382.318 370.305 381.877L364.155 381.075L357.264 384.417L350.372 387.758L321.613 385.953L292.855 384.147L288.468 381.323L284.081 378.499L273.474 375.442C267.64 373.761 259.884 371.526 256.238 370.477L249.609 368.569L239.533 366.882C227.992 364.95 219.75 363.729 215.306 363.294C212.4 363.009 212.044 363.009 209.172 363.292C203.8 363.821 192.323 365.551 180.262 367.649L174.302 368.686L157.244 373.617L140.185 378.548L135.868 381.337L131.551 384.125L129.239 384.285C127.967 384.374 115.471 385.158 101.471 386.03C87.47 386.901 75.5705 387.655 75.0274 387.704C74.0407 387.794 74.0345 387.791 67.1279 384.435Z" fill="#E4BF15"/>
</g>
<path d="M123.584 333.399L97.2353 336.369L78.5205 331.442L67.643 325.08L60.7843 326.084L56.525 328.297L60.8387 310.212L77.7875 256.44L96.0233 218.059L108.848 197.816L129.408 184.03" stroke="#33691E" stroke-width="10"/>
<path d="M175.914 219.492C170.097 221.615 120.841 326.668 123.701 333.528C124.052 334.369 145.662 339.24 159.934 348.134C171.264 355.195 182.06 362.296 185.892 362.337C200.638 362.494 203.403 360.701 212.183 360.701C220.964 360.701 223.728 362.494 238.474 362.337C242.306 362.295 253.102 355.195 264.432 348.134C278.704 339.24 300.314 334.369 300.665 333.528C303.525 326.668 254.269 221.615 248.452 219.492C234.671 214.463 224.417 213.87 212.183 213.87C199.949 213.87 189.695 214.463 175.914 219.492Z" stroke="#33691E" stroke-width="10"/>
<path d="M300.782 333.399L327.131 336.369L345.846 331.442L356.723 325.08L363.582 326.084L367.841 328.297L363.527 310.212L346.578 256.44L328.343 218.059L315.518 197.816L294.958 184.03" stroke="#33691E" stroke-width="10"/>
<path d="M248.452 219.492C248.452 219.492 262.738 204.748 270.896 198.585C278.376 192.934 294.958 184.029 294.958 184.029L294.414 168.38L290.746 156.186L249.952 138.877C249.952 138.877 224.804 136.217 212.183 136.217C199.562 136.217 174.414 138.877 174.414 138.877L133.62 156.186L129.952 168.38L129.408 184.029C129.408 184.029 145.99 192.934 153.47 198.585C161.628 204.748 175.914 219.492 175.914 219.492" stroke="#33691E" stroke-width="10"/>
<path d="M133.62 156.186L108.848 197.816" stroke="#33691E" stroke-width="10"/>
<path d="M290.746 156.186L315.518 197.816" stroke="#33691E" stroke-width="10"/>
<defs>
<filter id="filter0_f_1241_14877" x="38.1547" y="29.6085" width="184.251" height="244.362" filterUnits="userSpaceOnUse" color-interpolation-filters="sRGB">
<feFlood flood-opacity="0" result="BackgroundImageFix"/>
<feBlend mode="normal" in="SourceGraphic" in2="BackgroundImageFix" result="shape"/>
<feGaussianBlur stdDeviation="11.3386" result="effect1_foregroundBlur_1241_14877"/>
</filter>
<filter id="filter1_f_1241_14877" x="91.8329" y="182.037" width="240.772" height="212.128" filterUnits="userSpaceOnUse" color-interpolation-filters="sRGB">
<feFlood flood-opacity="0" result="BackgroundImageFix"/>
<feBlend mode="normal" in="SourceGraphic" in2="BackgroundImageFix" result="shape"/>
<feGaussianBlur stdDeviation="16" result="effect1_foregroundBlur_1241_14877"/>
</filter>
<filter id="filter2_f_1241_14877" x="24.79" y="152.275" width="182.849" height="215.901" filterUnits="userSpaceOnUse" color-interpolation-filters="sRGB">
<feFlood flood-opacity="0" result="BackgroundImageFix"/>
<feBlend mode="normal" in="SourceGraphic" in2="BackgroundImageFix" result="shape"/>
<feGaussianBlur stdDeviation="16" result="effect1_foregroundBlur_1241_14877"/>
</filter>
<filter id="filter3_f_1241_14877" x="97.6665" y="104.524" width="229.145" height="146.735" filterUnits="userSpaceOnUse" color-interpolation-filters="sRGB">
<feFlood flood-opacity="0" result="BackgroundImageFix"/>
<feBlend mode="normal" in="SourceGraphic" in2="BackgroundImageFix" result="shape"/>
<feGaussianBlur stdDeviation="16" result="effect1_foregroundBlur_1241_14877"/>
</filter>
<filter id="filter4_f_1241_14877" x="216.812" y="152.257" width="182.688" height="215.911" filterUnits="userSpaceOnUse" color-interpolation-filters="sRGB">
<feFlood flood-opacity="0" result="BackgroundImageFix"/>
<feBlend mode="normal" in="SourceGraphic" in2="BackgroundImageFix" result="shape"/>
<feGaussianBlur stdDeviation="16" result="effect1_foregroundBlur_1241_14877"/>
</filter>
<filter id="filter5_f_1241_14877" x="23.1033" y="305.259" width="378.01" height="102.499" filterUnits="userSpaceOnUse" color-interpolation-filters="sRGB">
<feFlood flood-opacity="0" result="BackgroundImageFix"/>
<feBlend mode="normal" in="SourceGraphic" in2="BackgroundImageFix" result="shape"/>
<feGaussianBlur stdDeviation="9.99998" result="effect1_foregroundBlur_1241_14877"/>
</filter>
</defs>
</svg>
