<svg width="106" height="126" viewBox="0 0 106 126" fill="none" xmlns="http://www.w3.org/2000/svg">
<path d="M10.4372 22.087L10.4377 36.0261L10.4831 36.026C10.438 36.2627 10.4093 36.504 10.3979 36.7482L10.3924 36.9874V80.0477C10.3924 81.8085 11.2948 83.4413 12.7745 84.3854L12.9798 84.5098L47.2412 104.204V118.399L6.10866 124.887C5.87457 124.937 5.6344 124.97 5.38943 124.986C2.81537 125.199 0.474651 123.393 0.062443 120.802C-0.0224943 120.268 -0.0190028 119.74 0.062093 119.234L0.0624738 80.8326L0.0475203 80.4409L0.0425159 80.0477V36.9874C0.0425159 31.5851 2.87427 26.5843 7.49426 23.7844L7.8049 23.601L10.4372 22.087ZM95.5394 35.9258L105.964 35.9268C105.98 36.1596 105.991 36.3933 105.996 36.6279L106 36.9874V80.0477C106 85.45 103.168 90.4509 98.5484 93.2508L98.2378 93.4341L60.7837 114.964C60.0263 115.4 59.2412 115.766 58.4371 116.064L58.4362 104.413L93.0629 84.5098C94.5944 83.6295 95.5634 82.0349 95.6448 80.287L95.6503 80.0477V36.9874C95.6503 36.6266 95.6124 36.2711 95.5394 35.9258ZM10.0582 94.73L10.0588 114.187L36.6192 109.998L10.0582 94.73ZM57.2748 25.724L57.5547 25.8783L79.2118 38.3277C81.9025 39.8744 83.5923 42.6919 83.6953 45.7696L83.7003 46.0682V70.967C83.7003 74.0604 82.0945 76.9262 79.469 78.5538L79.2118 78.7074L57.5547 91.1568C54.8698 92.7002 51.5827 92.7516 48.8576 91.3112L48.5778 91.1568L26.9207 78.7074C24.23 77.1607 22.5402 74.3433 22.4372 71.2656L22.4322 70.967V46.0682C22.4322 42.9748 24.0379 40.109 26.6634 38.4813L26.9207 38.3277L48.5778 25.8783C51.2627 24.335 54.5498 24.2835 57.2748 25.724ZM60.4545 1.8869L60.7837 2.07089L98.2378 23.601C98.8566 23.9567 99.4447 24.3513 99.9999 24.7806L79.5892 24.78L55.6088 10.9952C54.0805 10.1166 52.2136 10.0767 50.6544 10.8754L50.4339 10.9952L21.6322 27.551V15.652L45.259 2.07089C49.9532 -0.627541 55.7119 -0.688869 60.4545 1.8869Z" fill="#34C7B5"/>
</svg>
