<svg width="178" height="178" viewBox="0 0 178 178" fill="none" xmlns="http://www.w3.org/2000/svg">
<path d="M115.574 76.8512C115.574 72.1662 115.648 66.2982 115.541 61.6142C115.494 59.5962 115.273 57.5382 114.795 55.5802C111.374 41.5812 97.823 32.8752 83.594 35.4502C70.998 37.7292 61.621 48.9682 61.621 61.7862V75.6512V76.8212C61.146 76.8212 60.827 76.8202 60.505 76.8212H49.023C46.25 76.8212 44 79.0702 44 81.8442V138.719C44 141.492 46.25 143.742 49.023 143.742H128.474C131.249 143.742 133.498 141.492 133.498 138.719V81.8442C133.498 79.0702 131.249 76.8212 128.474 76.8212L115.574 76.8512ZM96.107 130.118H81.332C79.01 130.118 77.129 128.204 77.129 125.844C77.129 125.781 77.136 125.717 77.138 125.654C77.133 125.654 77.132 124.633 77.13 123.613C77.129 122.484 77.641 119.324 79.191 117.039C80.832 114.621 83.046 113.049 85.448 112.342C82.282 111.051 80.052 107.944 80.052 104.317C80.052 99.5282 83.932 95.6492 88.719 95.6492C93.508 95.6492 97.386 99.5282 97.386 104.317C97.386 108.036 95.042 111.208 91.749 112.437C94.081 113.19 96.286 114.75 98.022 117.144C99.643 119.379 100.307 122.487 100.307 123.614V125.657C100.301 125.719 100.307 125.782 100.307 125.846C100.308 128.204 98.427 130.118 96.107 130.118ZM105.779 68.1042C104.217 72.7152 101.259 76.4092 98.169 80.0162C95.783 82.7992 92.979 85.1412 89.993 87.2632C89.849 87.3662 89.695 87.4512 89.308 87.6902C91.089 84.6142 92.525 81.6922 92.941 78.2862C88.707 79.2882 84.714 78.8502 80.848 77.1462C73.986 74.1232 69.885 67.5282 70.585 60.0832C71.158 53.9562 74.525 49.5402 79.906 46.6882C88.573 42.0952 99.64 45.0332 104.595 53.2042C107.482 57.9622 107.527 62.9452 105.779 68.1042Z" fill="black"/>
</svg>
