<svg width="70" height="70" viewBox="0 0 70 70" fill="none" xmlns="http://www.w3.org/2000/svg">
<path d="M21.4023 29.1992V38.5977H23.8281C24.4062 38.5977 24.8164 38.7109 25.0586 38.9375C25.3086 39.1562 25.4336 39.4453 25.4336 39.8047C25.4336 40.1562 25.3086 40.4453 25.0586 40.6719C24.8164 40.8906 24.4062 41 23.8281 41H16.5742C15.9961 41 15.582 40.8906 15.332 40.6719C15.0898 40.4453 14.9688 40.1523 14.9688 39.793C14.9688 39.4414 15.0898 39.1562 15.332 38.9375C15.582 38.7109 15.9961 38.5977 16.5742 38.5977H19V29.1992H16.5742C15.9961 29.1992 15.582 29.0898 15.332 28.8711C15.0898 28.6445 14.9688 28.3516 14.9688 27.9922C14.9688 27.6328 15.0898 27.3438 15.332 27.125C15.582 26.8984 15.9961 26.7852 16.5742 26.7852L23.8281 26.7969C24.4062 26.7969 24.8164 26.9062 25.0586 27.125C25.3086 27.3438 25.4336 27.6328 25.4336 27.9922C25.4336 28.3516 25.3086 28.6445 25.0586 28.8711C24.8164 29.0898 24.4062 29.1992 23.8281 29.1992H21.4023ZM32.1367 35.5742V38.5977H33.0039C33.582 38.5977 33.9922 38.7109 34.2344 38.9375C34.4844 39.1562 34.6094 39.4453 34.6094 39.8047C34.6094 40.1562 34.4844 40.4453 34.2344 40.6719C33.9922 40.8906 33.582 41 33.0039 41H29.3594C28.7812 41 28.3672 40.8906 28.1172 40.6719C27.875 40.4453 27.7539 40.1523 27.7539 39.793C27.7539 39.4414 27.8789 39.1562 28.1289 38.9375C28.3789 38.7109 28.7891 38.5977 29.3594 38.5977H29.7344V29.1992H29.3594C28.7812 29.1992 28.3672 29.0898 28.1172 28.8711C27.875 28.6445 27.7539 28.3516 27.7539 27.9922C27.7539 27.6328 27.875 27.3438 28.1172 27.125C28.3672 26.8984 28.7812 26.7852 29.3594 26.7852L34.7969 26.7969C36.4922 26.7969 37.8047 27.2188 38.7344 28.0625C39.6719 28.8984 40.1406 29.918 40.1406 31.1211C40.1406 31.8711 39.9219 32.5547 39.4844 33.1719C39.0469 33.7812 38.3867 34.3242 37.5039 34.8008C38.0117 35.2461 38.5547 35.8164 39.1328 36.5117C39.4922 36.957 39.9766 37.6523 40.5859 38.5977C41.1953 38.5977 41.5977 38.6602 41.793 38.7852C42.1445 39.0273 42.3203 39.3672 42.3203 39.8047C42.3203 40.1562 42.1992 40.4453 41.957 40.6719C41.7148 40.8906 41.3047 41 40.7266 41H39.3555C37.4102 37.9922 35.7969 36.1836 34.5156 35.5742H32.1367ZM32.1367 33.1719H34.0117C34.707 33.1719 35.3281 33.0664 35.875 32.8555C36.6094 32.5742 37.1016 32.2773 37.3516 31.9648C37.6094 31.6523 37.7383 31.3438 37.7383 31.0391C37.7383 30.5859 37.4961 30.168 37.0117 29.7852C36.5273 29.3945 35.8203 29.1992 34.8906 29.1992H32.1367V33.1719ZM52.7969 27.4062C52.9453 27.2031 53.1055 27.0508 53.2773 26.9492C53.457 26.8477 53.6484 26.7969 53.8516 26.7969C54.2031 26.7969 54.4883 26.918 54.707 27.1602C54.9336 27.4023 55.0469 27.8125 55.0469 28.3906V30.4297C55.0469 31.0078 54.9336 31.4219 54.707 31.6719C54.4883 31.9141 54.2031 32.0352 53.8516 32.0352C53.5312 32.0352 53.2734 31.9453 53.0781 31.7656C52.8828 31.5859 52.7383 31.25 52.6445 30.7578C52.5898 30.4297 52.4805 30.1758 52.3164 29.9961C51.9961 29.6445 51.5469 29.3633 50.9688 29.1523C50.3984 28.9414 49.8242 28.8359 49.2461 28.8359C48.5273 28.8359 47.8672 28.9922 47.2656 29.3047C46.6641 29.6172 46.1328 30.125 45.6719 30.8281C45.2109 31.5312 44.9805 32.3672 44.9805 33.3359V34.8945C44.9805 36.0508 45.3984 37.0156 46.2344 37.7891C47.0781 38.5625 48.2461 38.9492 49.7383 38.9492C50.6289 38.9492 51.3828 38.8281 52 38.5859C52.3594 38.4453 52.7422 38.168 53.1484 37.7539C53.3984 37.5039 53.5938 37.3438 53.7344 37.2734C53.875 37.1953 54.0352 37.1562 54.2148 37.1562C54.5352 37.1562 54.8164 37.2773 55.0586 37.5195C55.3008 37.7617 55.4219 38.0469 55.4219 38.375C55.4219 38.7031 55.2578 39.0547 54.9297 39.4297C54.4531 39.9766 53.8398 40.4062 53.0898 40.7188C52.082 41.1406 50.9688 41.3516 49.75 41.3516C48.3281 41.3516 47.0469 41.0586 45.9062 40.4727C44.9844 40.0039 44.1992 39.2656 43.5508 38.2578C42.9023 37.2422 42.5781 36.1367 42.5781 34.9414V33.3125C42.5781 32.0625 42.8672 30.8984 43.4453 29.8203C44.0312 28.7344 44.8398 27.8984 45.8711 27.3125C46.9023 26.7266 47.9961 26.4336 49.1523 26.4336C49.8477 26.4336 50.4961 26.5156 51.0977 26.6797C51.707 26.8359 52.2734 27.0781 52.7969 27.4062Z" fill="black"/>
</svg>
