<svg width="362" height="362" viewBox="0 0 362 362" fill="none" xmlns="http://www.w3.org/2000/svg">
<path fill-rule="evenodd" clip-rule="evenodd" d="M241.013 97.5961L242.094 119.39C259.761 138.909 266.735 166.551 257.94 192.53C244.811 231.312 201.521 251.698 161.248 238.065C120.975 224.432 98.9693 181.941 112.098 143.16C120.922 117.094 143.372 99.3373 169.374 94.6361L183.422 78.0373C139.593 76.8511 98.2427 104.056 83.4478 147.76C65.2701 201.457 94.0646 259.723 147.762 277.902C201.46 296.08 259.726 267.285 277.905 213.587C292.675 169.954 276.431 123.304 241.013 97.5961Z" fill="#211F1E"/>
<path fill-rule="evenodd" clip-rule="evenodd" d="M215.841 161.902L215.098 131.436L214.501 113.905L214.098 98.7161C214.098 98.7161 214.181 91.3936 213.926 89.6724C213.873 89.3099 213.759 89.0149 213.623 88.7586L213.571 88.6499L213.513 88.5561C213.233 88.0736 212.79 87.6799 212.219 87.4861C211.635 87.2886 211.03 87.3374 210.505 87.5636L210.473 87.5774L210.291 87.6699C210.043 87.7911 209.789 87.9474 209.541 88.1874C208.293 89.3999 203.911 95.2686 203.911 95.2686L194.365 107.087L183.242 120.651L164.145 144.401C164.145 144.401 155.381 155.339 157.317 168.802C159.254 182.264 169.263 188.823 177.028 191.451C184.793 194.08 196.727 194.95 206.444 185.432C216.16 175.914 215.841 161.902 215.841 161.902Z" fill="#211F1E"/>
</svg>
