<svg width="279" height="326" viewBox="0 0 279 326" fill="none" xmlns="http://www.w3.org/2000/svg">
<path d="M42.6409 34.814L108.656 166.609" stroke="white" stroke-width="0.936377"/>
<path d="M238.342 81.3988L106.547 169.652" stroke="white" stroke-width="0.936377"/>
<path d="M224.382 275.1L109.507 167.674" stroke="white" stroke-width="0.936377"/>
<g filter="url(#filter0_d_341_12617)">
<circle cx="225.466" cy="274.059" r="22.9412" fill="white"/>
</g>
<path d="M217.6 279.645C217.072 279.645 216.62 279.457 216.244 279.081C215.867 278.705 215.679 278.252 215.679 277.724V267.157C215.679 266.629 215.867 266.176 216.244 265.8C216.62 265.424 217.072 265.236 217.6 265.236H232.971C233.499 265.236 233.951 265.424 234.328 265.8C234.704 266.176 234.892 266.629 234.892 267.157V277.724C234.892 278.252 234.704 278.705 234.328 279.081C233.951 279.457 233.499 279.645 232.971 279.645H217.6ZM217.6 277.724H232.971V267.157H217.6V277.724ZM215.679 282.527C215.407 282.527 215.179 282.435 214.995 282.25C214.811 282.067 214.719 281.839 214.719 281.566C214.719 281.294 214.811 281.066 214.995 280.882C215.179 280.698 215.407 280.606 215.679 280.606H234.892C235.164 280.606 235.392 280.698 235.576 280.882C235.76 281.066 235.852 281.294 235.852 281.566C235.852 281.839 235.76 282.067 235.576 282.25C235.392 282.435 235.164 282.527 234.892 282.527H215.679ZM217.6 277.724V267.157V277.724Z" fill="black"/>
<g filter="url(#filter1_d_341_12617)">
<circle cx="41.9412" cy="32.9412" r="22.9412" fill="white"/>
</g>
<path d="M47.8957 20.4171L36.3386 20.4055C35.0673 20.4055 34.0272 21.4457 34.0272 22.7169V43.5197C34.0272 44.791 35.0673 45.8311 36.3386 45.8311H47.8957C49.1669 45.8311 50.2071 44.791 50.2071 43.5197V22.7169C50.2071 21.4457 49.1669 20.4171 47.8957 20.4171ZM47.8957 41.2083H36.3386V25.0284H47.8957V41.2083Z" fill="black"/>
<g filter="url(#filter2_d_341_12617)">
<circle cx="236.708" cy="78.8236" r="22.9412" fill="white"/>
</g>
<path d="M244.955 78.2089C246.019 78.2089 246.881 77.3465 246.881 76.2826C246.881 75.2188 246.019 74.3564 244.955 74.3564C243.891 74.3564 243.028 75.2189 243.028 76.2828V78.2089H244.955ZM239.561 78.2089C240.625 78.2089 241.487 77.3464 241.487 76.2825V70.8889C241.487 69.8249 240.625 68.9625 239.561 68.9625C238.497 68.9625 237.634 69.8249 237.634 70.8889V76.2825C237.634 77.3464 238.497 78.2089 239.561 78.2089Z" fill="#2EB67D"/>
<path d="M228.773 79.7503C227.709 79.7503 226.847 80.6127 226.847 81.6765C226.847 82.7404 227.709 83.6028 228.773 83.6028C229.837 83.6028 230.699 82.7403 230.699 81.6764V79.7503H228.773ZM234.167 79.7503C233.103 79.7503 232.24 80.6128 232.24 81.6767V87.0703C232.24 88.1342 233.103 88.9967 234.167 88.9967C235.231 88.9967 236.093 88.1342 236.093 87.0703V81.6767C236.093 80.6128 235.231 79.7503 234.167 79.7503Z" fill="#E01E5A"/>
<path d="M237.635 87.0707C237.635 88.1345 238.497 88.9969 239.561 88.9969C240.625 88.9969 241.487 88.1344 241.487 87.0706C241.487 86.0067 240.625 85.1441 239.561 85.1441L237.635 85.1441L237.635 87.0707ZM237.635 81.6766C237.635 82.7405 238.497 83.603 239.561 83.603L244.955 83.603C246.018 83.603 246.881 82.7405 246.881 81.6766C246.881 80.6127 246.018 79.7502 244.955 79.7502L239.561 79.7502C238.497 79.7502 237.635 80.6127 237.635 81.6766Z" fill="#ECB22E"/>
<path d="M236.093 70.8886C236.093 69.8247 235.231 68.9623 234.167 68.9623C233.103 68.9623 232.241 69.8248 232.241 70.8886C232.241 71.9526 233.103 72.8151 234.167 72.8151L236.093 72.8151L236.093 70.8886ZM236.093 76.2826C236.093 75.2187 235.231 74.3562 234.167 74.3562L228.773 74.3562C227.709 74.3562 226.847 75.2187 226.847 76.2826C226.847 77.3466 227.709 78.209 228.773 78.209L234.167 78.209C235.231 78.209 236.093 77.3466 236.093 76.2826Z" fill="#36C5F0"/>
<g filter="url(#filter3_d_341_12617)">
<circle cx="106.549" cy="166.375" r="64.61" fill="white"/>
</g>
<circle cx="106.548" cy="166.375" r="34.1778" fill="#17191C"/>
<g clip-path="url(#clip0_341_12617)">
<path d="M118.51 168.084H94.5861C92.7063 168.084 91.1683 169.622 91.1683 171.502V178.337C91.1683 180.217 92.7063 181.755 94.5861 181.755H118.51C120.39 181.755 121.928 180.217 121.928 178.337V171.502C121.928 169.622 120.39 168.084 118.51 168.084ZM98.0038 178.337C96.1241 178.337 94.5861 176.799 94.5861 174.919C94.5861 173.04 96.1241 171.502 98.0038 171.502C99.8836 171.502 101.422 173.04 101.422 174.919C101.422 176.799 99.8836 178.337 98.0038 178.337ZM118.51 150.995H94.5861C92.7063 150.995 91.1683 152.533 91.1683 154.413V161.248C91.1683 163.128 92.7063 164.666 94.5861 164.666H118.51C120.39 164.666 121.928 163.128 121.928 161.248V154.413C121.928 152.533 120.39 150.995 118.51 150.995ZM98.0038 161.248C96.1241 161.248 94.5861 159.71 94.5861 157.83C94.5861 155.951 96.1241 154.413 98.0038 154.413C99.8836 154.413 101.422 155.951 101.422 157.83C101.422 159.71 99.8836 161.248 98.0038 161.248Z" fill="white"/>
</g>
<circle cx="160.619" cy="133.773" r="11.4706" fill="#333333"/>
<circle cx="160.619" cy="133.773" r="11.4706" fill="black"/>
<circle cx="160.619" cy="133.773" r="11.4706" fill="black"/>
<circle cx="160.619" cy="133.773" r="11.4706" stroke="white" stroke-width="0.936377"/>
<g clip-path="url(#clip1_341_12617)">
<path d="M163.007 136.764V133.176C163.007 132.848 162.738 132.579 162.41 132.579C162.082 132.579 161.813 132.848 161.813 133.176V136.764H160.745C160.476 136.764 160.345 137.086 160.536 137.271L162.201 138.931C162.321 139.044 162.506 139.044 162.625 138.931L164.29 137.271C164.481 137.086 164.344 136.764 164.082 136.764H163.007ZM158.62 128.61L156.954 130.275C156.763 130.46 156.894 130.783 157.163 130.783H158.231V134.37C158.231 134.699 158.5 134.967 158.828 134.967C159.157 134.967 159.425 134.699 159.425 134.37V130.783H160.494C160.763 130.783 160.894 130.46 160.703 130.275L159.037 128.61C158.924 128.496 158.733 128.496 158.62 128.61Z" fill="white"/>
</g>
<defs>
<filter id="filter0_d_341_12617" x="183.797" y="241.754" width="83.3376" height="83.3375" filterUnits="userSpaceOnUse" color-interpolation-filters="sRGB">
<feFlood flood-opacity="0" result="BackgroundImageFix"/>
<feColorMatrix in="SourceAlpha" type="matrix" values="0 0 0 0 0 0 0 0 0 0 0 0 0 0 0 0 0 0 127 0" result="hardAlpha"/>
<feOffset dy="9.36377"/>
<feGaussianBlur stdDeviation="9.36377"/>
<feComposite in2="hardAlpha" operator="out"/>
<feColorMatrix type="matrix" values="0 0 0 0 0.329412 0 0 0 0 0.321569 0 0 0 0 0.964706 0 0 0 0.12 0"/>
<feBlend mode="normal" in2="BackgroundImageFix" result="effect1_dropShadow_341_12617"/>
<feBlend mode="normal" in="SourceGraphic" in2="effect1_dropShadow_341_12617" result="shape"/>
</filter>
<filter id="filter1_d_341_12617" x="0.272453" y="0.636227" width="83.3376" height="83.3376" filterUnits="userSpaceOnUse" color-interpolation-filters="sRGB">
<feFlood flood-opacity="0" result="BackgroundImageFix"/>
<feColorMatrix in="SourceAlpha" type="matrix" values="0 0 0 0 0 0 0 0 0 0 0 0 0 0 0 0 0 0 127 0" result="hardAlpha"/>
<feOffset dy="9.36377"/>
<feGaussianBlur stdDeviation="9.36377"/>
<feComposite in2="hardAlpha" operator="out"/>
<feColorMatrix type="matrix" values="0 0 0 0 0.329412 0 0 0 0 0.321569 0 0 0 0 0.964706 0 0 0 0.12 0"/>
<feBlend mode="normal" in2="BackgroundImageFix" result="effect1_dropShadow_341_12617"/>
<feBlend mode="normal" in="SourceGraphic" in2="effect1_dropShadow_341_12617" result="shape"/>
</filter>
<filter id="filter2_d_341_12617" x="195.039" y="46.5186" width="83.3376" height="83.3376" filterUnits="userSpaceOnUse" color-interpolation-filters="sRGB">
<feFlood flood-opacity="0" result="BackgroundImageFix"/>
<feColorMatrix in="SourceAlpha" type="matrix" values="0 0 0 0 0 0 0 0 0 0 0 0 0 0 0 0 0 0 127 0" result="hardAlpha"/>
<feOffset dy="9.36377"/>
<feGaussianBlur stdDeviation="9.36377"/>
<feComposite in2="hardAlpha" operator="out"/>
<feColorMatrix type="matrix" values="0 0 0 0 0.329412 0 0 0 0 0.321569 0 0 0 0 0.964706 0 0 0 0.12 0"/>
<feBlend mode="normal" in2="BackgroundImageFix" result="effect1_dropShadow_341_12617"/>
<feBlend mode="normal" in="SourceGraphic" in2="effect1_dropShadow_341_12617" result="shape"/>
</filter>
<filter id="filter3_d_341_12617" x="23.2119" y="92.401" width="166.675" height="166.675" filterUnits="userSpaceOnUse" color-interpolation-filters="sRGB">
<feFlood flood-opacity="0" result="BackgroundImageFix"/>
<feColorMatrix in="SourceAlpha" type="matrix" values="0 0 0 0 0 0 0 0 0 0 0 0 0 0 0 0 0 0 127 0" result="hardAlpha"/>
<feOffset dy="9.36377"/>
<feGaussianBlur stdDeviation="9.36377"/>
<feComposite in2="hardAlpha" operator="out"/>
<feColorMatrix type="matrix" values="0 0 0 0 0.167 0 0 0 0 0.15 0 0 0 0 1 0 0 0 0.12 0"/>
<feBlend mode="normal" in2="BackgroundImageFix" result="effect1_dropShadow_341_12617"/>
<feBlend mode="normal" in="SourceGraphic" in2="effect1_dropShadow_341_12617" result="shape"/>
</filter>
<clipPath id="clip0_341_12617">
<rect width="41.0133" height="41.0133" fill="white" transform="translate(86.0416 145.868)"/>
</clipPath>
<clipPath id="clip1_341_12617">
<rect width="14.3266" height="14.3266" fill="white" transform="translate(153.456 126.61)"/>
</clipPath>
</defs>
</svg>
