<svg preserveAspectRatio="none" viewBox="0 0 375 480" fill="none" xmlns="http://www.w3.org/2000/svg">
<g clip-path="url(#clip0_619_13519)">
<g opacity="0.15">
<path fill-rule="evenodd" clip-rule="evenodd" d="M-311 82.5168L-311 85.1558C-300.352 78.8393 -289.153 73.4274 -276.694 71.3611C-265.466 69.5304 -253.444 71.6663 -243.711 77.2227C-236.042 81.6069 -226.08 90.1984 -222.213 106.247C-219.613 117.258 -219.083 129.35 -218.57 141.036L-218.566 141.149L-218.554 141.411L-218.554 141.416C-218.403 144.88 -218.248 148.455 -218.037 151.876C-216.983 168.786 -218.411 186.767 -222.411 206.846C-224.443 217.038 -227.089 227.279 -229.649 237.182L-229.662 237.23L-229.714 237.433C-230.8 241.635 -231.919 245.971 -232.975 250.238L-233.357 251.785C-236.097 262.807 -238.921 274.203 -237.639 284.791C-236.989 290.535 -234.65 295.337 -230.686 299.068C-224.45 304.924 -215.245 307.237 -205.953 307.237C-199.26 307.237 -192.528 306.032 -186.831 304.095C-169.872 298.431 -153.661 285.964 -137.976 273.903L-137.907 273.85C-131.677 269.059 -125.235 264.107 -118.826 259.632C-104.812 249.82 -90.5461 242.599 -75.4453 234.95L-75.319 234.885C-72.5495 233.488 -69.736 232.059 -66.8711 230.592C-62.8492 228.531 -58.7979 226.433 -54.7135 224.313C-41.1124 217.263 -27.0449 209.972 -12.768 203.468C24.6047 186.938 75.505 168.422 106.281 166.024C123.801 164.9 133.086 171.489 142.07 177.865C146.268 180.847 150.228 183.657 154.911 185.621C160.494 187.854 166.518 189.315 178.834 182.661C183.829 179.953 189.86 175.82 197.287 170.007C209.958 160.082 223.468 148.273 236.547 136.845L236.547 136.839L236.551 136.839L236.554 136.834L236.808 136.615C240.26 133.59 243.721 130.571 247.169 127.573C286.977 93.2603 331.641 48.9587 374.835 6.10772C390.13 -9.06275 404.572 -23.3874 418.459 -36.9359C439.755 -57.5237 463.986 -80.8094 482.108 -96.5954C494.931 -107.773 505.498 -115.85 515.702 -123.66L515.705 -123.66L515.871 -123.789L516.899 -124.576L516.91 -124.586L516.914 -124.586C522.291 -128.703 527.426 -132.637 532.91 -137.048C558.04 -157.352 581.687 -180.568 609.594 -212.328C631.096 -236.775 661.071 -274.369 698.683 -324.067C726.88 -361.27 752.775 -396.82 777.843 -432.738C820.854 -494.277 857.216 -550.976 885.921 -601.268C898.655 -623.59 909.09 -643.166 917.905 -660.643C919.595 -664.47 921.461 -668.121 923.326 -671.772C925.383 -675.801 927.444 -679.83 929.266 -684.095L929.405 -684.1C939.08 -704.445 946.525 -721.683 953.199 -737.137L953.316 -737.411L952.629 -738L952.629 -737.995C949.511 -731.432 946.172 -724.564 942.573 -717.353L942.599 -717.416L942.569 -717.353C943.212 -718.811 943.847 -720.252 944.472 -721.677L945.305 -723.585L946.389 -726.066C947.065 -727.622 947.763 -729.223 948.453 -730.821L949.331 -732.845L950.066 -734.547C947.579 -728.799 945.078 -723.066 942.558 -717.348C929.659 -688.121 912.722 -652.127 884.573 -602.793C855.905 -552.561 819.579 -495.92 776.613 -434.446C750.758 -397.451 724.383 -361.238 697.496 -325.839C659.918 -276.179 629.972 -238.627 608.503 -214.223C580.673 -182.549 557.093 -159.397 532.046 -139.157C526.232 -134.484 520.796 -130.325 515.041 -125.925L514.993 -125.887L514.989 -125.887C504.723 -118.034 494.105 -109.914 481.194 -98.6617C463.046 -82.8489 438.786 -59.5417 417.475 -38.9379C402.893 -24.6668 388.348 -10.3153 373.84 4.11645L373.741 4.21814C330.598 47.0102 285.997 91.2529 246.266 125.496C242.813 128.494 239.353 131.513 235.901 134.543L235.747 134.677C222.652 146.121 209.117 157.952 196.453 167.876C189.1 173.625 183.135 177.726 178.22 180.381C166.397 186.772 160.671 185.402 155.396 183.277C150.871 181.382 146.974 178.62 142.846 175.686C133.671 169.177 124.179 162.443 106.196 163.588C75.2515 166.003 24.1896 184.572 -13.2859 201.145C-27.6032 207.67 -41.6891 214.967 -55.3048 222.027C-62.1579 225.598 -69.0227 229.115 -75.8993 232.589L-75.9078 232.594C-91.1 240.281 -105.447 247.545 -119.593 257.448C-125.781 261.768 -131.977 266.522 -137.996 271.141L-137.999 271.141L-138.737 271.709C-154.34 283.71 -170.472 296.119 -187.239 301.723C-200.483 306.252 -219.432 306.712 -229.731 297.039C-233.276 293.704 -235.366 289.459 -235.939 284.39C-237.144 274.412 -234.389 263.31 -231.726 252.577L-231.34 251.035C-230.271 246.71 -229.136 242.31 -228.035 238.054L-228.022 238.006C-225.451 228.06 -222.793 217.777 -220.744 207.494C-216.685 187.126 -215.234 168.861 -216.314 151.656C-216.521 148.273 -216.673 144.88 -216.833 141.298L-216.847 140.988C-217.361 129.104 -217.897 116.824 -220.578 105.465C-223.811 92.072 -231.583 81.5266 -243.068 74.9638C-253.059 69.2574 -265.389 67.0626 -276.896 68.9469C-289.311 71.0024 -300.44 76.2966 -311 82.5168ZM-311 93.3621L-311 95.8673C-303.779 92.4521 -296.224 89.8504 -288.136 88.7745C-267.74 86.098 -242.8 97.7622 -236.714 124.597C-234.051 136.566 -233.843 149.708 -233.641 162.432L-233.64 162.534L-233.638 162.657C-233.583 166.217 -233.532 169.578 -233.426 172.94C-232.894 189.722 -234.767 207.788 -239.16 228.162C-241.279 238.011 -243.924 247.899 -246.484 257.464L-246.549 257.705L-246.55 257.711C-247.793 262.357 -249.076 267.153 -250.278 271.875L-250.521 272.833C-253.415 284.181 -256.401 295.904 -255.229 306.899C-254.649 312.702 -252.383 317.606 -248.493 321.46C-242.095 327.803 -232.288 330.292 -222.654 330.292C-217.093 330.292 -211.583 329.462 -206.83 328.055C-189.149 322.953 -172.231 309.87 -155.864 297.211L-155.744 297.12L-155.742 297.114L-155.74 297.114C-149.27 292.109 -142.58 286.938 -135.934 282.345C-122.985 273.341 -109.867 266.8 -95.9836 259.873L-95.884 259.825C-93.1954 258.487 -90.4664 257.122 -87.6823 255.719C-84.4262 254.07 -81.1455 252.395 -77.8445 250.714L-76.2739 249.911C-62.7463 242.995 -48.7559 235.843 -34.5121 229.522C-0.0300701 214.678 51.6453 196.616 83.7949 194.593C102.163 193.662 111.305 201.092 120.14 208.275L120.147 208.281L120.167 208.297C124.093 211.487 127.802 214.501 132.22 216.733C137.534 219.303 143.323 221.09 155.528 214.817C160.56 212.221 166.779 208.126 174.022 202.639C185.011 194.315 196.559 184.663 207.74 175.322L208.107 175.017C211.707 172.003 215.317 168.99 218.928 165.997C258.901 133.151 303.847 90.3001 347.321 48.8517L348.221 47.9951C363.864 33.0816 378.666 18.9764 392.818 5.74905C441.485 -39.7516 469.679 -61.0674 499.526 -83.6303L502.211 -85.6645C528.568 -105.942 553.467 -129.645 582.958 -162.507C611.074 -193.801 647.944 -240.458 673.927 -274.086C702.514 -311.021 728.742 -346.341 754.126 -382.067C797.688 -443.295 834.462 -499.806 863.424 -550.013C875.912 -571.676 886.126 -590.647 894.725 -607.552C898.982 -617.116 902.725 -625.895 906.232 -634.124L906.251 -634.165L906.258 -634.182L906.269 -634.206L906.273 -634.213L906.273 -634.215L906.276 -634.226L906.28 -634.234L906.287 -634.247L906.46 -634.655L906.464 -634.66L907.58 -633.707C916.653 -652.855 923.631 -669.091 929.897 -683.678L929.409 -684.092C925.655 -676.197 921.824 -668.38 917.916 -660.643L917.916 -660.66L917.909 -660.638C905.556 -632.776 889.186 -598.457 862.116 -551.517C833.191 -501.37 796.458 -444.922 752.933 -383.748C727.567 -348.043 701.353 -312.745 672.788 -275.831C646.824 -242.23 609.984 -195.616 581.911 -164.365C552.501 -131.588 527.668 -107.955 501.407 -87.7469L498.725 -85.7234L498.666 -85.6806C468.812 -63.1069 440.589 -41.7644 391.882 3.76846C378.071 16.68 363.647 30.4319 348.416 44.944L348.408 44.9493L346.373 46.8925L346.098 47.1548L346.094 47.1601C302.727 88.4908 257.909 131.213 218.068 163.952C214.458 166.95 210.844 169.969 207.244 172.978C195.964 182.41 184.295 192.163 173.214 200.556C166.04 205.99 159.892 210.042 154.941 212.595C143.25 218.601 137.777 216.921 132.767 214.501C128.495 212.344 124.844 209.378 120.984 206.236L120.949 206.209C111.91 198.87 102.562 191.285 83.7178 192.232C51.4065 194.267 -0.4304 212.376 -35.0189 227.268C-49.2918 233.601 -63.2862 240.758 -76.822 247.679L-76.8543 247.695L-78.2985 248.434C-81.6384 250.136 -84.958 251.833 -88.2553 253.503C-91.0357 254.906 -93.7647 256.265 -96.4533 257.604L-96.4974 257.625C-110.45 264.584 -123.636 271.157 -136.687 280.236C-143.402 284.888 -150.152 290.102 -156.679 295.15C-172.936 307.724 -189.744 320.721 -207.179 325.753C-219.825 329.484 -237.849 329.125 -247.538 319.538C-251.027 316.08 -253.062 311.723 -253.573 306.578C-254.685 296.183 -251.775 284.749 -248.961 273.689L-248.952 273.657L-248.71 272.704C-247.61 268.384 -246.439 263.995 -245.299 259.723L-245.299 259.718L-244.927 258.326C-242.356 248.728 -239.7 238.793 -237.562 228.879C-233.118 208.238 -231.219 189.914 -231.759 172.854C-231.868 169.519 -231.919 166.163 -231.974 162.62L-231.976 162.507C-232.174 149.59 -232.38 136.234 -235.123 123.901C-241.481 95.8834 -267.262 83.6785 -288.294 86.4085C-296.337 87.4738 -303.838 90.0164 -311 93.3621ZM-311 105.786L-311 108.158C-307.757 107.162 -304.44 106.381 -301.024 105.899C-290.2 104.368 -278.678 107.146 -269.414 113.506C-262.245 118.43 -253.07 127.75 -250.083 144.2C-247.861 156.694 -247.972 170.29 -248.078 183.448L-248.081 183.834C-248.106 187.056 -248.129 190.102 -248.118 193.164C-248.045 209.999 -250.3 228.157 -255.016 248.675C-257.119 257.812 -259.649 267.003 -262.099 275.9L-262.171 276.162C-263.701 281.66 -265.192 287.184 -266.641 292.73L-266.792 293.308L-266.795 293.319C-269.659 304.378 -272.907 316.915 -271.739 328.162C-271.152 334.339 -268.753 339.526 -264.632 343.579C-258.135 349.959 -248.398 352.475 -238.811 352.475C-232.975 352.475 -227.197 351.538 -222.246 349.986C-205.512 344.831 -189.589 332.407 -174.188 320.384L-174.063 320.287C-168.335 315.818 -162.41 311.198 -156.54 307.033C-142.329 296.916 -128.386 289.93 -112.233 281.847L-107.377 279.412C-104.322 277.876 -101.25 276.312 -98.158 274.744L-98.1418 274.739L-98.1301 274.733L-97.7536 274.541C-83.1131 267.111 -67.9693 259.429 -52.4656 252.818C-16.9221 238.119 32.4282 222.627 62.5467 221.144C81.8849 220.427 90.9903 228.852 99.7908 237C103.074 240.04 106.178 242.909 109.752 245.265C114.931 248.552 120.161 250.853 131.702 245.704C137.193 243.236 143.841 239.13 152.024 233.151C163.984 224.415 176.523 214.319 188.644 204.555L189.537 203.838L189.555 203.822L189.562 203.816C192.365 201.563 195.171 199.304 197.981 197.061C235.971 166.891 278.537 127.846 319.707 90.0806L319.84 89.9575C335.905 75.2207 351.078 61.3027 365.543 48.3163C411.466 7.04449 438.547 -12.6172 467.211 -33.4297L467.255 -33.4618L475.483 -39.4412C499.974 -57.6147 524.414 -80.0492 552.395 -110.058C583.468 -143.343 622.99 -192.174 650.662 -227.279C679.576 -263.888 706.139 -298.998 731.875 -334.607C762.192 -376.489 805.963 -439.537 842.348 -502.055C854.627 -523.156 864.639 -541.603 873.036 -557.994C871.276 -554.059 869.407 -549.964 867.159 -545.125L867.133 -545.077C864.617 -538.948 862.057 -532.862 859.453 -526.807C862.27 -533.381 864.79 -539.44 867.13 -545.082C856.441 -522.161 842.216 -494.202 821.643 -459.113C785.035 -396.707 740.808 -333.906 710.15 -292.222C684.163 -256.817 657.288 -221.915 627.989 -185.531C600.045 -150.763 559.983 -102.237 527.826 -68.5134C499.118 -38.3598 474.274 -16.1073 449.643 1.51489C446.051 4.03616 442.525 6.49316 439.028 8.92343L439.021 8.92874L439.013 8.93414L435.807 11.1664C408.961 29.8217 383.606 47.4438 341.903 83.3251C326.811 96.2955 310.859 110.385 293.993 125.277L292.722 126.401C253.847 160.746 213.65 196.258 177.629 223.922L169.276 230.41C155.495 241.138 141.244 252.229 128.003 261.319C120.238 266.65 113.972 270.204 108.83 272.169C98.059 276.28 93.7686 272.977 89.6225 269.787L89.4917 269.68C86.5485 267.346 83.9235 264.589 81.146 261.672L81.1283 261.656L81.1243 261.65C73.0815 253.214 63.9688 243.659 44.8245 243.525C13.1376 243.803 -38.2365 259.365 -75.0986 274.653C-89.6605 280.9 -103.806 288.078 -117.494 295.021L-117.497 295.021L-117.591 295.069L-123.622 298.131C-125.33 298.993 -127.017 299.839 -128.688 300.674C-129.439 301.049 -130.187 301.423 -130.932 301.798L-130.946 301.803C-145.386 309.03 -159.027 315.855 -172.297 325.335C-178.53 329.778 -184.785 334.719 -190.827 339.505C-206.158 351.635 -222.011 364.177 -238.635 369.214C-253.881 373.93 -270.516 371.264 -279.085 362.726C-282.916 358.91 -285.109 354.081 -285.623 348.343C-286.718 336.941 -283.236 323.922 -280.162 312.44L-279.857 311.305C-278.468 306.102 -276.981 300.802 -275.537 295.685C-273.095 286.992 -270.571 277.999 -268.401 269.038C-263.236 247.668 -260.662 229.746 -260.302 212.643C-260.215 208.473 -260.267 204.261 -260.318 200.198L-260.32 200.048L-260.321 199.957C-260.383 195.021 -260.448 189.92 -260.265 184.845C-260.041 178.636 -259.931 170.494 -261.062 162.518C-265.484 131.973 -290.042 117.772 -311 119.849L-311 122.113C-283.827 119.319 -265.8 141.063 -262.63 162.957C-261.536 170.681 -261.646 178.646 -261.859 184.727C-262.05 189.909 -261.984 195.08 -261.918 200.08L-261.912 200.53C-261.862 204.48 -261.811 208.554 -261.896 212.569C-262.256 229.441 -264.801 247.149 -269.914 268.299C-272.07 277.212 -274.586 286.178 -277.021 294.845C-278.465 299.973 -279.952 305.278 -281.348 310.502L-281.649 311.637C-284.793 323.371 -288.349 336.673 -287.203 348.637C-286.633 355.018 -284.209 360.376 -279.996 364.573C-273.4 371.141 -263.538 373.727 -253.933 373.727C-248.401 373.727 -242.962 372.87 -238.282 371.425C-221.423 366.313 -205.464 353.69 -190.03 341.475L-189.911 341.378C-183.917 336.641 -177.721 331.743 -171.555 327.353C-158.384 317.943 -144.799 311.139 -130.419 303.945L-130.381 303.923L-128.988 303.227C-127.04 302.253 -125.065 301.268 -123.064 300.256L-117.029 297.195L-116.746 297.05C-103.141 290.15 -89.0729 283.02 -74.6285 276.816C-23.9008 255.778 22.8637 245.982 44.8429 245.779C63.4495 245.907 71.9569 254.831 80.1774 263.449L80.188 263.46C83.0162 266.431 85.6865 269.23 88.7277 271.65L88.871 271.757C93.0839 275.006 97.8698 278.694 109.267 274.348C114.505 272.34 120.866 268.738 128.716 263.347C141.989 254.237 156.241 243.145 170.029 232.412L170.066 232.385C172.85 230.217 175.634 228.049 178.411 225.903C214.432 198.233 254.607 162.748 293.468 128.419L293.585 128.312L293.743 128.173C311.013 112.917 327.332 98.4956 342.744 85.2523C384.389 49.4245 409.71 31.8237 436.519 13.1898L439.175 11.343C442.863 8.77886 446.576 6.19335 450.367 3.53289C475.086 -14.1535 500.007 -36.4702 528.792 -66.6987C560.993 -100.466 601.091 -149.039 629.054 -183.834C658.372 -220.245 685.262 -255.168 711.266 -290.594C741.951 -332.326 786.225 -395.182 822.877 -457.678C835.222 -478.726 845.283 -497.226 853.675 -513.607C852.772 -511.588 851.839 -509.517 850.869 -507.402L850.693 -507.547L848.838 -502.986L848.801 -502.901C838.447 -480.621 824.552 -453.348 804.233 -418.885C767.559 -356.699 723.071 -294.283 692.215 -252.888C662.886 -213.463 632.764 -175.135 600.122 -135.71C558.723 -85.6056 525.501 -47.9203 501.384 -23.7246C473.554 4.27166 449.195 25.3893 426.926 40.8328C419.301 46.0787 412.447 50.3719 405.189 54.9166C396.903 60.0984 388.337 65.4621 378.56 72.3675C361.741 84.2512 339.968 101.761 318.94 118.923C303.583 131.599 287.256 145.484 269.993 160.162L269.986 160.168L268.623 161.329L268.326 161.581C228.349 195.583 187.035 230.715 150.434 257.4C147.606 259.493 144.656 261.709 141.632 263.984L140.249 265.028C122.912 278.084 103.273 292.875 90.5312 297.633C79.2661 301.889 74.8475 298.131 71.3104 295.118C68.4183 292.575 65.8751 289.593 63.1861 286.44L63.0976 286.338C55.0978 276.944 46.0218 266.291 25.3356 266.27C-2.24122 266.586 -50.1921 278.448 -91.2708 295.128C-106.859 301.664 -121.885 309.34 -136.419 316.77L-141.495 319.361L-146.336 321.824C-161.8 329.661 -175.151 336.438 -188.62 346.298C-194.507 350.591 -200.428 355.366 -206.155 359.985L-206.171 360.002C-221.343 372.228 -237.028 384.866 -253.536 389.759C-268.437 394.25 -284.756 391.429 -293.23 382.902C-297.16 378.946 -299.404 373.936 -299.915 367.988C-300.997 356.276 -297.429 342.968 -294.278 331.218L-294.262 331.159L-294.104 330.571C-292.495 324.575 -290.762 318.489 -289.08 312.6C-286.545 303.731 -283.926 294.561 -281.668 285.407C-276.672 265.167 -273.991 248.129 -273.22 231.786C-272.981 226.69 -272.907 221.551 -272.841 216.583L-272.83 215.823C-272.761 210.973 -272.689 205.974 -272.448 201.006C-272.055 192.976 -272.151 186.837 -272.75 181.093C-274.277 166.784 -280.437 154.285 -290.112 145.897C-296.191 140.619 -303.463 137.209 -311 135.924L-311 138.156C-293.542 141.298 -276.959 156.373 -274.288 181.425C-273.704 187.008 -273.613 193.009 -273.998 200.878C-274.255 206.156 -274.329 211.444 -274.399 216.562C-274.44 221.599 -274.565 226.631 -274.773 231.657C-275.53 247.797 -278.189 264.648 -283.14 284.695C-285.381 293.774 -287.984 302.89 -290.5 311.712L-290.523 311.792C-292.209 317.691 -293.95 323.788 -295.562 329.805L-295.72 330.394L-295.74 330.469C-298.957 342.454 -302.598 356.03 -301.458 368.277C-300.896 374.845 -298.431 380.375 -294.134 384.7C-287.456 391.424 -277.715 394.095 -268.166 394.095C-262.943 394.095 -257.778 393.292 -253.213 391.916C-236.457 386.959 -220.655 374.224 -205.376 361.902L-205.24 361.795L-205.239 361.789C-199.57 357.223 -193.712 352.502 -187.9 348.268C-174.542 338.488 -161.253 331.743 -145.873 323.933L-145.807 323.901C-144.779 323.381 -143.744 322.857 -142.701 322.327C-142.123 322.033 -141.543 321.738 -140.959 321.444L-135.883 318.853C-121.375 311.433 -106.367 303.768 -90.83 297.253C-49.8762 280.632 -2.1016 268.797 25.343 268.492C45.4526 268.518 53.9126 278.443 62.0931 288.035L62.1023 288.046C64.8644 291.29 67.4684 294.347 70.495 297.013C75.1634 300.984 79.9236 303.934 90.9315 299.78C103.84 294.957 123.556 280.108 140.957 267.003L140.98 266.987L142.038 266.19C145.175 263.829 148.231 261.533 151.15 259.37C187.887 232.589 229.341 197.329 269.428 163.23C287.19 148.113 303.969 133.842 319.722 120.834C340.724 103.699 362.476 86.1996 379.261 74.3534C388.903 67.5336 397.376 62.2235 405.563 57.1006L405.817 56.9401C413.089 52.39 419.958 48.0915 427.609 42.8134C449.959 27.3164 474.384 6.14516 502.284 -21.9207C526.445 -46.1699 559.7 -83.8872 601.135 -134.034C633.796 -173.486 663.936 -211.835 693.291 -251.282C724.177 -292.73 768.708 -355.2 805.431 -417.477C817.82 -438.482 827.821 -456.827 836.1 -473.009C834.973 -470.504 833.838 -468.004 832.695 -465.515L833.441 -467.137L834.653 -466.179C834.37 -465.462 834.084 -464.739 833.786 -464.005L833.632 -463.615C840.295 -478.025 845.386 -490.246 849.764 -500.957C845.356 -491.509 840.805 -482.2 836.115 -473.041L836.141 -473.1C840.82 -482.238 845.363 -491.525 849.76 -500.957C857.4 -517.354 863.119 -531.052 868.04 -542.914L868.055 -542.941C876.118 -560.183 882.189 -574.594 887.423 -587.023L887.331 -587.098C895.628 -604.733 902.023 -619.743 907.801 -633.299L907.808 -633.314L907.812 -633.324L907.815 -633.336L907.823 -633.354L907.826 -633.362L907.867 -633.456L907.58 -633.696C903.397 -624.876 899.11 -616.158 894.728 -607.547C882.901 -580.969 867.082 -548.219 841.081 -503.532C804.74 -441.095 761.01 -378.111 730.726 -336.266C705.007 -300.669 678.459 -265.59 649.567 -229.002C621.91 -193.924 582.433 -145.137 551.4 -111.905C523.492 -81.9763 499.129 -59.6061 474.722 -41.4967L466.502 -35.5227C437.79 -14.678 410.673 5.01034 364.657 46.3571C350.285 59.2686 335.215 73.0901 319.27 87.7146L319.245 87.7414L319.234 87.7468L318.943 88.0143C277.751 125.801 235.155 164.873 197.173 195.043C194.491 197.189 191.818 199.341 189.147 201.488L187.832 202.548L187.164 203.083L187.164 203.088C175.26 212.66 162.982 222.541 151.271 231.09C143.172 237.01 136.605 241.068 131.202 243.493C119.327 248.792 114.395 245.666 110.442 243.161C106.997 240.891 103.956 238.076 100.735 235.099L100.694 235.062C92.1032 227.107 82.3662 218.104 62.499 218.832C32.2298 220.32 -17.2857 235.854 -52.9321 250.602C-68.4872 257.234 -83.6493 264.926 -98.3082 272.367C-101.533 274.005 -104.743 275.633 -107.931 277.238L-112.78 279.663L-112.788 279.669C-128.985 287.784 -142.975 294.786 -157.274 304.967C-163.173 309.153 -169.114 313.789 -174.858 318.275L-174.978 318.366L-175.012 318.392C-190.303 330.319 -206.108 342.652 -222.595 347.727C-238.183 352.625 -255.079 350.141 -263.692 341.678C-267.42 338.022 -269.58 333.37 -270.112 327.851C-271.214 317.161 -268.18 305.443 -265.242 294.111L-265.095 293.533C-263.67 288.025 -262.127 282.426 -260.632 277.008L-260.536 276.655C-258.086 267.758 -255.558 258.567 -253.448 249.387C-248.673 228.638 -246.396 210.245 -246.469 193.158C-246.476 190.134 -246.453 187.104 -246.428 183.908L-246.428 183.903L-246.425 183.486C-246.319 170.183 -246.208 156.431 -248.482 143.638C-251.626 126.326 -261.205 116.573 -268.684 111.434C-278.211 104.898 -290.06 102.034 -301.189 103.592C-304.547 104.068 -307.812 104.823 -311 105.786ZM-311 160.923L-311 163.23C-307.621 164.916 -304.414 167.084 -301.524 169.739C-292.767 177.768 -287.21 189.508 -285.869 202.767C-284.614 215.384 -285.502 228.794 -286.361 241.769L-286.362 241.775C-286.597 245.308 -286.839 248.964 -287.023 252.47C-287.959 270.033 -291.162 288.817 -297.101 311.578C-298.864 318.28 -301.083 325.255 -303.434 332.632C-306.126 341.089 -308.848 349.659 -311 358.149L-311 364.953C-308.748 354.579 -305.373 343.948 -302.049 333.504L-301.935 333.145C-299.619 325.865 -297.429 318.981 -295.68 312.322C-289.686 289.358 -286.453 270.392 -285.506 252.631C-285.322 249.135 -285.094 245.656 -284.845 241.967C-283.978 228.874 -283.082 215.325 -284.367 202.462C-285.767 188.576 -291.566 176.318 -300.697 167.935C-303.874 165.028 -307.345 162.694 -311 160.923ZM-311 396.745L-311 400.224C-309.955 401.9 -308.78 403.393 -307.5 404.678C-300.8 411.46 -291.063 414.158 -281.587 414.158C-276.547 414.158 -271.574 413.398 -267.174 412.07C-250.356 407.108 -234.536 394.025 -219.239 381.376L-219.227 381.365C-213.236 376.409 -207.04 371.286 -200.887 366.736C-188.631 357.646 -175.746 351.008 -162.101 343.985L-157.289 341.502L-152.536 339.039C-138.212 331.598 -123.398 323.911 -107.983 317.44C-66.3128 300.524 -17.7339 289.176 10.1405 289.818C29.7149 290.589 37.7357 301.086 45.4879 311.235L45.504 311.257L45.5929 311.375C47.815 314.281 49.9212 317.033 52.288 319.538C55.8431 323.194 60.2676 327.744 71.5272 324.238C76.5445 322.664 82.9281 319.431 90.4944 314.624C101.483 307.649 113.221 299.175 124.575 290.98L124.668 290.91C127.999 288.501 131.334 286.092 134.651 283.721C169.556 259.011 208.64 226.899 246.439 195.84C265.472 180.199 283.444 165.43 300.2 152.17C319.491 137.086 341.462 120.159 358.13 109.057C366.861 103.233 374.681 98.5812 382.236 94.0847L382.6 93.8706L382.776 93.7635C390.512 89.1706 397.832 84.8186 406.1 79.2942C428.652 64.1506 453.569 43.0115 482.285 14.6779C506.842 -9.50169 541.728 -48.354 583.163 -97.6821C616.272 -137.021 646.772 -175.258 676.413 -214.603C707.667 -255.998 752.683 -318.451 789.663 -380.868C803.117 -403.597 813.677 -423.082 822.209 -440.008C825.801 -448.423 829.294 -456.934 832.688 -465.526C822.595 -443.632 808.88 -416.674 788.495 -382.243C751.57 -319.902 706.598 -257.518 675.374 -216.161C645.751 -176.848 615.269 -138.633 582.183 -99.3201C540.777 -50.0348 505.935 -11.2199 481.407 12.9168C452.758 41.1915 427.91 62.2717 405.442 77.3619C397.296 82.8059 390.049 87.1151 382.416 91.6544L382.413 91.6544L382.413 91.6598L382.005 91.9006C374.317 96.4614 366.373 101.183 357.477 107.119C340.768 118.254 318.774 135.191 299.454 150.297C282.684 163.572 264.701 178.347 245.664 193.988L245.403 194.202C207.707 225.17 168.745 257.186 133.961 281.805C131.24 283.753 128.518 285.718 125.794 287.682L123.97 288.999L123.782 289.133C112.472 297.302 100.788 305.732 89.8663 312.665C82.3881 317.413 76.1037 320.598 71.1929 322.14C60.6 325.442 56.6552 321.379 53.1842 317.804C50.868 315.352 48.777 312.617 46.5644 309.726L46.5629 309.721L46.5288 309.678L46.5236 309.672C38.933 299.732 30.3265 288.464 10.1662 287.666C-17.844 286.992 -66.6103 298.399 -108.416 315.379C-123.876 321.867 -138.698 329.559 -153.029 337L-153.069 337.021L-157.825 339.483L-162.633 341.972C-176.326 349.017 -189.262 355.676 -201.604 364.835C-207.656 369.31 -213.733 374.332 -219.618 379.192L-220.005 379.513C-235.201 392.088 -250.914 405.079 -267.497 409.972C-282.105 414.361 -298.196 411.465 -306.625 402.933C-308.44 401.091 -309.898 399.025 -311 396.745ZM-311 431.844L-311 433.975C-306.361 435.709 -301.325 436.48 -296.367 436.48C-291.489 436.48 -286.688 435.741 -282.446 434.467C-265.91 429.58 -250.506 416.503 -235.616 403.848C-230.341 399.373 -224.883 394.743 -219.487 390.567C-205.868 380.006 -192.083 372.726 -176.121 364.3L-172.308 362.282L-172.127 362.186C-156.75 354.054 -140.853 345.645 -124.151 338.793C-84.4684 323.028 -37.175 312.622 -9.14271 313.478C11.3672 314.394 19.2311 325.683 26.8305 336.598C28.7442 339.344 30.5512 341.935 32.564 344.376L32.8322 344.697L32.8392 344.708C36.3157 348.814 40.2586 353.476 50.5911 350.971C55.8545 349.686 62.8405 346.378 71.3508 341.137C83.0757 333.916 95.5673 325.207 107.655 316.781L107.846 316.647L109.428 315.545C111.828 313.875 114.227 312.199 116.624 310.545C149.637 287.896 186.348 258.835 221.855 230.721C242.222 214.592 261.465 199.363 279.264 185.916C298.198 171.795 317.86 157.368 333.4 147.503C342.16 141.925 350.028 137.503 357.616 133.237L357.62 133.237L357.624 133.237L358.145 132.942C366.156 128.456 374.435 123.815 383.507 117.959C406.048 103.329 432.24 81.6443 461.363 53.4981C484.224 31.4436 515.661 -2.64979 554.801 -47.8508C587.652 -85.6645 619.743 -124.865 651.033 -165.392C685.1 -209.437 733.954 -275.799 773.215 -341.807C788.921 -368.224 800.56 -390.096 809.578 -408.591C812.678 -414.956 815.469 -420.903 818.007 -426.513C824.534 -440.923 829.412 -453.021 833.614 -463.583C829.926 -455.607 826.124 -447.743 822.216 -439.997L822.213 -439.987C812.002 -416.219 797.295 -385.552 772.08 -343.145C732.878 -277.228 684.072 -210.925 650.034 -166.923C618.766 -126.417 586.697 -87.249 553.868 -49.462C514.758 -4.29856 483.354 29.7628 460.533 51.7744C431.476 79.8617 405.358 101.493 382.894 116.064C373.858 121.899 365.961 126.326 357.602 131.01L357.425 131.106C349.705 135.442 341.727 139.917 332.791 145.597C317.217 155.484 297.53 169.932 278.57 184.074C260.749 197.532 241.502 212.767 221.124 228.901C185.643 256.993 148.95 286.044 115.97 308.661L107.192 314.768L106.71 315.106C94.7243 323.456 82.3537 332.08 70.7595 339.216C62.3557 344.392 55.4799 347.652 50.3377 348.91C40.674 351.249 37.1663 347.101 33.7799 343.091L33.5154 342.781C31.5749 340.425 29.8009 337.883 27.924 335.185L27.8847 335.131L27.8714 335.11C20.4296 324.436 11.9939 312.338 -9.10233 311.391C-37.2705 310.534 -84.7439 320.973 -124.555 336.785C-141.365 343.68 -157.328 352.127 -172.77 360.296L-172.826 360.328L-176.638 362.341L-176.695 362.373C-192.685 370.815 -206.501 378.111 -220.193 388.731C-225.445 392.789 -230.728 397.275 -235.855 401.621L-236.372 402.06C-251.16 414.624 -266.454 427.61 -282.747 432.423C-291.243 434.981 -301.968 435.335 -311 431.844ZM-311 457.357L-311 459.348C-306.003 459.338 -301.022 458.529 -296.146 456.929C-280.242 451.661 -265.448 438.696 -251.143 426.159L-251.116 426.138C-245.658 421.352 -240.012 416.406 -234.403 411.974C-221.603 401.83 -208.553 394.791 -193.439 386.643L-190.519 385.064L-190.462 385.032C-175.516 376.96 -160.06 368.609 -143.714 361.832C-104.545 346.11 -55.4591 335.854 -27.0045 337.444C-6.69394 338.889 0.766261 350.698 7.98333 362.121L8.01565 362.17C9.95828 365.247 11.7933 368.154 13.8796 370.868L13.8851 370.874C17.1309 374.974 21.169 380.075 32.0572 377.372C36.3362 376.301 41.7722 373.946 48.2183 370.349C59.7416 363.931 72.5897 355.264 85.0236 346.881L85.1392 346.801L86.417 345.939L86.4263 345.934C89.4076 343.926 92.3698 341.93 95.2987 339.976C127.231 318.939 162.794 291.863 197.198 265.671L197.261 265.622L197.345 265.558L197.349 265.558L197.356 265.553L197.36 265.547C218.465 249.478 238.398 234.302 256.749 221.074C274.996 208.088 295.833 193.533 311.99 184.005C319.847 179.369 327.042 175.579 334.003 171.918L334.025 171.907L334.256 171.784C342.182 167.603 350.38 163.283 359.361 157.78C421.563 119.956 527.18 10.6257 634.989 -127.52C700.545 -211.134 740.151 -273.604 757.932 -303.399C776.04 -333.75 788.484 -357.641 798.114 -378.368C799.771 -381.933 801.346 -385.412 802.852 -388.806C808.766 -402.167 813.61 -414.335 818.257 -426.331L818.011 -426.518C815.473 -420.914 812.685 -414.956 809.581 -408.596C798.349 -381.082 783.94 -350.152 756.837 -304.705C715.476 -235.383 662.14 -164.884 634.023 -129.029C526.328 8.98235 420.865 118.163 358.795 155.912C349.786 161.431 341.922 165.574 333.599 169.964L333.525 170.001C326.546 173.673 319.333 177.479 311.443 182.131C295.242 191.686 274.379 206.257 256.102 219.265C237.708 232.525 217.73 247.733 196.585 263.834L196.446 263.941C162.088 290.102 126.564 317.145 94.6964 338.134C91.3393 340.377 87.9381 342.663 84.5222 344.97L84.4091 345.045C72.0006 353.417 59.1763 362.068 47.6968 368.459C41.3425 372.003 35.9983 374.331 31.8148 375.375C21.6086 377.907 18.0187 373.368 14.8574 369.369L14.8529 369.364C12.8144 366.72 10.9926 363.834 9.06427 360.778C1.99743 349.584 -6.017 336.903 -26.9347 335.415C-55.5252 333.825 -104.802 344.114 -144.107 359.878C-160.515 366.687 -175.996 375.049 -190.967 383.132L-191.025 383.164L-193.949 384.743C-209.111 392.923 -222.209 399.989 -235.101 410.202C-240.621 414.565 -246.159 419.409 -251.525 424.109L-251.869 424.409C-266.083 436.871 -280.786 449.756 -296.47 454.948C-301.236 456.543 -306.11 457.352 -311 457.357ZM-311 478.18L-311 480L-310.414 480C-295.038 474.562 -280.782 461.629 -266.987 449.119L-266.968 449.103C-261.819 444.429 -256.489 439.596 -251.207 435.26C-237.986 424.356 -224.345 416.792 -208.553 408.034L-208.549 408.034L-206.889 407.119C-191.683 398.677 -176.708 390.562 -160.661 383.994C-123.872 369.401 -76.1233 359.873 -47.1288 361.334C-25.1525 362.726 -17.6439 375.643 -10.3835 388.137L-10.3805 388.142L-10.3684 388.164C-8.86689 390.749 -7.44873 393.185 -5.89212 395.551L-5.59095 395.995C-2.47992 400.604 1.04983 405.829 10.8016 404.4C15.8079 403.655 22.4927 400.984 30.6725 396.456C41.5375 390.439 53.301 382.827 64.6855 375.466L64.857 375.354L65.9288 374.658L65.9416 374.653L65.9541 374.642C68.8264 372.784 71.6921 370.927 74.5464 369.107C105.48 349.526 139.97 324.281 173.317 299.871C195.233 283.823 215.934 268.674 234.924 255.618C265.417 234.65 286.922 223.248 307.722 212.221C316.773 207.419 326.124 202.457 336.1 196.782C361.455 182.035 391.011 158.958 423.939 128.183C449.345 104.48 482.505 69.8141 522.486 25.1592C557.159 -13.5057 589.162 -51.4319 620.342 -90.7873C648.77 -126.583 702.653 -196.997 744.184 -266.447C764.973 -301.22 778.298 -327.792 788.179 -350.291C777.443 -320.823 763.819 -287.099 731.148 -232.45C687.333 -159.156 629.664 -85.3166 599.185 -47.824C570.264 -12.1461 540.711 22.231 508.83 57.2719C466.858 103.468 429.688 141.454 401.34 167.132C369.726 195.814 341.191 217.434 316.538 231.379C304.578 238.011 293.662 243.418 283.106 248.643L283.102 248.648L282.948 248.723C263.731 258.24 243.856 268.09 216.555 285.766C195.939 299.132 173.192 315.116 149.115 332.048C115.75 355.5 81.2532 379.743 50.4258 398.318C47.2414 400.288 44.062 402.269 40.8871 404.271L40.8526 404.292C23.451 415.218 3.7381 427.594 -7.88288 429.007C-17.4282 430.212 -20.5286 425.057 -23.5291 420.068L-23.9155 419.436C-25.157 417.327 -26.325 415.154 -27.5554 412.857L-27.5646 412.841C-34.5227 399.892 -42.4082 385.214 -65.5745 383.437C-96.1485 381.51 -144.687 390.878 -180.991 405.716C-196.568 412.284 -211.234 420.491 -226.139 429.034C-242.491 438.402 -256.012 446.431 -268.794 457.485C-273.628 461.655 -278.517 466.254 -283.248 470.707L-283.364 470.814C-286.632 473.892 -289.925 476.992 -293.252 480L-290.745 480C-288.013 477.495 -285.303 474.947 -282.611 472.41C-277.862 467.935 -272.948 463.31 -268.096 459.123C-255.398 448.15 -241.926 440.142 -225.636 430.806C-210.76 422.289 -196.131 414.094 -180.613 407.558C-144.437 392.767 -96.0861 383.432 -65.648 385.348C-43.1105 387.082 -35.7535 400.776 -28.6426 414.019L-28.5321 414.222C-27.3769 416.369 -26.1865 418.58 -24.9549 420.673L-24.5693 421.315L-24.5619 421.326C-21.4858 426.433 -18.0009 432.214 -7.77271 430.918C4.06131 429.478 23.8385 417.059 41.3157 406.086L41.4307 406.016L42.4326 405.39C45.3593 403.548 48.2184 401.755 50.9621 400.074C81.7873 381.494 116.271 357.261 149.623 333.825L149.714 333.761L150.226 333.402C174.11 316.621 196.67 300.765 217.113 287.511C244.363 269.862 264.205 260.034 283.393 250.532L283.701 250.377L283.705 250.377C294.224 245.163 305.107 239.773 317.033 233.156C341.775 219.158 370.384 197.484 402.067 168.738C430.448 143.027 467.655 105.005 509.66 58.7762C541.563 23.7139 571.142 -10.6847 600.074 -46.3894C630.585 -83.9141 688.314 -157.823 732.184 -231.213C765.909 -287.634 779.404 -321.829 790.331 -352.026L789.266 -352.791C794.856 -365.681 799.341 -377.26 803.491 -388.319L802.852 -388.796C801.346 -385.396 799.771 -381.917 798.114 -378.352C787.198 -350.168 772.771 -317.311 743.119 -267.705C701.643 -198.356 647.812 -128.007 619.412 -92.2541C588.254 -52.92 556.266 -15.0207 521.623 23.6175C481.671 68.2403 448.545 102.874 423.172 126.551C390.317 157.256 360.841 180.274 335.571 194.962C325.621 200.637 316.277 205.594 307.234 210.384L307.19 210.406C286.375 221.449 264.84 232.873 234.318 253.856C215.343 266.907 194.671 282.035 172.788 298.056L172.78 298.062L172.678 298.137C139.345 322.536 104.878 347.764 73.9734 367.324C71.3663 368.995 68.7445 370.691 66.1201 372.383L66.1179 372.388L66.1095 372.394L66.105 372.394L64.2766 373.577L64.1951 373.63L64.1922 373.63C52.803 381.007 41.0255 388.635 30.1656 394.641C22.107 399.1 15.5434 401.739 10.662 402.456C1.61215 403.784 -1.52677 399.159 -4.55847 394.684L-4.57724 394.657L-4.87104 394.218C-6.39533 391.9 -7.80573 389.475 -9.29697 386.911C-16.4038 374.679 -24.4602 360.815 -47.0663 359.381C-76.1932 357.914 -124.122 367.474 -161.039 382.115C-177.149 388.704 -192.157 396.841 -207.392 405.293L-209.053 406.214C-224.898 414.999 -238.583 422.589 -251.902 433.573C-257.213 437.936 -262.553 442.781 -267.714 447.465C-281.495 459.964 -295.739 472.881 -311 478.18ZM-283.355 480L-280.906 480C-269.652 470.247 -257.965 463.031 -244.019 454.718C-228.971 445.741 -214.121 437.112 -197.887 430.249C-161.429 415.33 -111.513 406.493 -81.7761 409.694C-60.2891 412.354 -53.3387 426.352 -46.6183 439.89L-46.6145 439.895C-45.4759 442.197 -44.3006 444.569 -43.0738 446.817L-42.8902 447.138L-42.8817 447.154C-39.8533 452.566 -36.4231 458.7 -25.9944 457.539C-21.9798 457.089 -16.8891 455.451 -10.8617 452.668C1.27347 447.079 15.4435 438.461 29.1475 430.126L30.9622 429.023C33.7875 427.305 36.5849 425.603 39.3297 423.959C66.9043 407.654 97.3475 387.056 126.788 367.137L126.96 367.019C151.246 350.586 174.18 335.067 195.017 322.214C222.013 305.54 241.946 296.333 261.222 287.431C272.293 282.318 283.738 277.03 296.329 270.408C320.493 257.438 349.003 236.689 381.072 208.741C419.84 175.06 466.12 126.519 498.119 91.7293C530.651 56.4368 560.387 22.2846 589.026 -12.6707C619.765 -50.0776 677.875 -123.778 721.672 -197.114C755.559 -253.846 768.896 -288.839 778.735 -317.194L777.556 -318.007C767.75 -289.754 754.461 -254.868 720.669 -198.303C676.935 -125.063 618.88 -51.4373 588.17 -14.0625C559.55 20.866 529.835 54.9969 497.326 90.268C465.352 125.036 419.109 173.534 380.389 207.178C348.39 235.057 319.95 255.757 295.87 268.684C283.422 275.231 272.08 280.472 261.112 285.541L260.815 285.68L260.807 285.686C241.498 294.598 221.536 303.816 194.488 320.528C173.629 333.397 150.687 348.921 126.394 365.36L126.043 365.595C96.6651 385.471 66.3119 406 38.8192 422.262C36.1386 423.868 33.4159 425.528 30.6633 427.198L28.6303 428.435C14.9558 436.759 0.814787 445.355 -11.2693 450.917C-17.1939 453.653 -22.1855 455.264 -26.0936 455.703C-35.827 456.773 -38.8939 451.297 -41.8507 446.003L-42.027 445.682C-43.1682 443.594 -44.233 441.453 -45.3536 439.205L-45.3547 439.199L-45.531 438.846L-45.5333 438.841C-52.1039 425.597 -59.5497 410.593 -81.6586 407.852C-111.538 404.64 -161.656 413.51 -198.247 428.483C-214.555 435.377 -229.438 444.023 -244.523 453.021C-259.251 461.8 -271.472 469.369 -283.355 480ZM-266.935 480L-263.812 480C-262.481 479.165 -261.129 478.325 -259.754 477.468C-246.686 469.342 -231.355 460.076 -214.9 453.075C-179.467 438.45 -130.002 430.147 -99.8472 433.755C-78.0091 436.705 -71.1718 451.254 -64.5619 465.317L-64.5571 465.328L-64.3551 465.756C-63.2139 468.181 -62.0378 470.681 -60.8033 473.025L-60.7225 473.181C-59.4631 475.52 -58.1293 477.987 -56.2264 480L-53.894 480C-56.5445 477.993 -58.1481 475.016 -59.7198 472.099L-59.8006 471.96C-61.0788 469.514 -62.2615 467.003 -63.5103 464.343C-69.9748 450.585 -77.295 435.008 -99.748 431.978C-130.047 428.349 -179.709 436.689 -215.278 451.356C-231.807 458.395 -247.178 467.683 -260.283 475.836C-262.56 477.249 -264.775 478.635 -266.935 480ZM-34.3446 480L-29.5924 480C-18.4166 475.311 -5.04953 467.437 7.24985 460.189C10.5629 458.235 13.7877 456.334 16.8621 454.568C44.4058 439.044 74.8916 419.259 104.375 400.117L104.648 399.94C131.102 382.768 156.087 366.554 178.543 353.583C203.263 339.344 222.087 331.304 240.297 323.531L240.301 323.531C251.695 318.671 263.478 313.644 276.52 307.156C302.062 294.207 332.607 272.549 367.302 242.786C396.098 218.146 433.206 181.874 477.583 134.976C513.814 96.7666 547.091 59.2526 579.325 20.3147C610.325 -17.0226 668.862 -90.6268 712.618 -164.028C746.685 -221.166 759.412 -255.778 768.668 -283.726L767.514 -284.487C758.295 -256.635 745.612 -222.156 711.641 -165.184C667.943 -91.8793 609.466 -18.3503 578.495 18.9549C546.283 57.8714 513.024 95.3587 476.816 133.547C432.468 180.408 395.404 216.642 366.637 241.255C332.012 270.965 301.548 292.564 276.091 305.47C263.081 311.942 251.309 316.963 239.926 321.818L239.923 321.818L239.882 321.834C221.661 329.612 202.811 337.658 178.055 351.924C155.495 364.953 130.401 381.242 103.835 398.49C74.3663 417.621 43.8916 437.406 16.3735 452.903C13.2956 454.686 10.0633 456.586 6.75027 458.54L6.66467 458.588C-7.25522 466.784 -22.5385 475.782 -34.3446 480ZM-85.5931 480C-91.4552 468.861 -99.8791 458.663 -117.5 456.078C-148.187 452.052 -197.387 459.91 -231.946 474.363C-236.011 476.119 -239.987 478.009 -243.876 480L-240.185 480C-237.363 478.614 -234.498 477.286 -231.586 476.034C-197.163 461.634 -148.165 453.802 -117.613 457.817C-100.919 460.264 -92.859 469.38 -87.1155 480L-85.5931 480ZM3.9313 480L0.5242 480C26.2597 465.954 54.6677 448.23 82.1457 431.09L82.6332 430.785C109.435 414.072 134.746 398.292 157.574 385.792C182.007 372.41 200.78 365.049 218.939 357.93C231.772 352.898 245.039 347.695 260.08 340.431C286.302 327.493 318.837 304.817 354.171 274.846C381.586 251.635 415.4 219.319 457.555 176.039C497.307 135.276 534.151 94.5022 570.183 51.3783C623.346 -12.0444 672.145 -79.2141 704.064 -132.916C738.274 -190.455 750.351 -224.618 758.989 -252.133L760.117 -251.426C751.445 -223.81 739.321 -189.502 705.004 -131.797C673.049 -78.0256 624.194 -10.7758 570.976 52.7111C534.922 95.8618 498.06 136.657 458.282 177.447C416.098 220.753 382.251 253.107 354.806 276.344C319.402 306.375 286.783 329.104 260.484 342.08C245.41 349.36 232.121 354.574 219.269 359.611L219.178 359.648C201.081 366.746 182.36 374.085 158.022 387.414C135.081 399.978 109.612 415.866 82.6527 432.685C56.2104 449.178 28.9047 466.216 3.9313 480ZM-135.896 480C-147.796 478.475 -161.836 478.555 -176.502 480L-135.896 480ZM33.2201 480C42.4202 474.567 51.6544 469.043 60.7822 463.577L60.8571 463.534C89.602 446.33 116.749 430.083 141.072 417.67C164.013 405.973 182.106 399.496 199.612 393.233C213.099 388.41 227.049 383.416 242.993 376.087C269.7 363.551 302.433 341.528 337.668 312.408C401.531 259.937 483.009 177.619 555.612 92.2058C587.806 54.5633 648.568 -19.7795 693.893 -94.7914C729.606 -153.894 742.891 -190.289 751.926 -220.802L753.021 -220.159C743.952 -189.513 730.619 -152.984 694.8 -93.7048C649.413 -18.5965 588.588 55.8213 556.376 93.4959C483.725 178.968 402.184 261.34 338.267 313.853C302.966 343.032 270.148 365.103 243.364 377.677C227.423 385.006 213.492 389.989 200.027 394.812L199.902 394.855C182.426 401.107 164.358 407.574 141.472 419.243C117.197 431.63 90.082 447.855 61.3746 465.038L61.3236 465.071C53.0311 470.033 44.6515 475.054 36.2892 480L33.2201 480ZM67.6698 480L70.7492 480C89.9883 469.139 108.855 458.877 125.748 450.907C147.323 440.747 164.759 435.115 181.618 429.676L181.794 429.618C195.843 425.084 210.385 420.384 227.163 413.082C253.829 401.247 285.923 380.445 322.561 351.271C356.184 324.575 399.143 285.07 446.782 237.037C481.282 202.301 512.771 168.518 543.032 133.761C576.115 95.8887 638.673 20.85 685.948 -56.164C725.066 -119.892 738.935 -159.456 747.339 -189.749L746.274 -190.338C737.899 -160.173 724.089 -120.764 685.085 -57.2239C637.862 19.6991 575.366 94.6628 542.316 132.509C512.065 167.25 480.599 201.011 446.117 235.72C398.504 283.726 355.585 323.199 321.996 349.863C285.942 378.571 253.032 399.903 226.817 411.546C210.017 418.858 195.45 423.558 181.364 428.103L181.302 428.124L181.298 428.124C164.431 433.568 146.983 439.194 125.384 449.376C107.69 457.721 87.8419 468.577 67.6698 480ZM112.906 480L116.809 480C134.415 472.795 149.41 468.497 163.98 464.327L164.03 464.311C179.638 459.835 195.784 455.205 214.935 447.036C242.497 435.008 276.935 412.964 314.521 383.271C346.575 358.01 386.126 322.343 432.071 277.254C470.307 239.778 505.41 202.724 539.374 163.984C572.644 126.149 635.496 51.1588 682.624 -25.9783C721.988 -90.4126 735.251 -129.913 743.034 -160.045L741.991 -160.58C734.241 -130.571 721.029 -91.2424 681.787 -26.9954C634.718 50.0507 571.92 124.966 538.676 162.769C504.73 201.488 469.653 238.515 431.44 275.97C385.52 321.026 346.002 356.672 313.977 381.911C276.462 411.546 242.097 433.552 214.612 445.548C195.491 453.701 179.359 458.326 163.76 462.796C148.186 467.255 132.125 471.858 112.906 480ZM202.242 480L205.863 480C233.366 467.817 266.467 447.009 302.18 419.399C374.075 364.139 459.971 281.617 537.846 192.998C571.156 155.296 634.012 80.5469 680.777 3.47944C720.452 -61.9078 733.282 -102.698 740.03 -130.919L739.023 -131.401C732.309 -103.297 719.527 -62.684 679.969 2.50508C633.26 79.4816 570.459 154.167 537.181 191.831C459.351 280.397 373.513 362.86 301.669 418.082C264.565 446.763 230.307 468.09 202.242 480ZM253.781 480L256.205 480C266.934 472.907 278.067 465.071 289.504 456.554C325.132 430.094 368.474 392.639 418.316 345.243C457.129 308.388 492.863 271.698 527.551 233.092C563.388 193.33 630.832 114.496 679.851 33.1887C719.813 -33.0764 732.07 -73.9789 738.274 -102.211L737.297 -102.639C731.115 -74.5409 718.914 -33.8151 679.073 32.2519C630.104 113.463 562.723 192.232 526.912 231.957C492.246 270.542 456.534 307.21 417.736 344.049C367.926 391.418 324.622 428.841 289.023 455.28C276.891 464.316 265.105 472.581 253.781 480ZM293.989 480L296.072 480C366.913 425.865 445.739 352.438 519.29 271.96C584.074 201.477 642.739 125.084 680.241 62.3734C720.324 -4.61437 731.986 -45.6132 737.668 -73.8451L736.724 -74.2251C731.067 -46.1271 719.453 -5.30489 679.488 61.4741C642.027 124.115 583.417 200.433 518.684 270.858C444.615 351.897 365.201 425.785 293.989 480ZM330.928 480L332.78 480C352.834 463.363 374.328 444.649 397.145 423.943C440.905 384.272 481.043 344.494 519.856 302.323C585.066 231.722 643.944 155.082 681.39 92.0397C722.256 23.2802 733.356 -19.453 738.145 -45.6132L737.238 -45.9451C732.463 -19.9026 721.411 22.6432 680.667 91.194C643.268 154.167 584.442 230.737 519.283 301.273C480.496 343.418 440.376 383.18 396.634 422.83C373.307 444.001 351.365 463.09 330.928 480ZM368.239 480L369.961 480C420.726 436.03 473.102 385.203 522.284 331.818C587.604 261.308 646.42 184.62 683.653 121.407C724.673 51.8172 735.222 8.83241 739.585 -17.4509L738.711 -17.74C734.366 8.42021 723.861 51.2177 682.959 120.598C645.77 183.742 587.005 260.366 521.733 330.811C472.169 384.604 419.367 435.806 368.239 480ZM404.271 480L406.041 480C443.061 446.421 480.184 409.913 516.135 371.585C555.436 329.901 629.263 246.79 682.154 158.557C716.35 101.541 735.332 54.574 741.888 10.7648L741.051 10.5187C734.524 54.1244 715.597 100.915 681.497 157.78C628.661 245.923 554.889 328.97 515.617 370.627C479.739 408.869 441.992 445.88 404.271 480ZM440.394 480L441.86 480C465.154 457.973 488.242 435.024 510.685 411.54C550.786 369.792 626.281 286.28 681.32 196.054C718.006 135.945 738.817 84.6099 744.937 39.1199L744.136 38.9057C738.042 84.1923 717.294 135.351 680.703 195.3C625.711 285.445 550.272 368.893 510.2 410.614C487.442 434.43 464.019 457.689 440.394 480ZM476.265 480L477.613 480C490.2 467.587 502.674 454.932 514.989 442.085C555.139 400.374 630.677 316.888 685.526 226.358C722.414 165.505 743.045 113.612 748.591 67.7103L747.827 67.523C742.303 113.227 721.731 164.948 684.935 225.651C630.137 316.101 554.654 399.523 514.534 441.207C501.928 454.359 489.153 467.303 476.265 480ZM511.713 480L512.951 480C515.195 477.688 517.432 475.365 519.665 473.041C559.847 431.373 635.419 347.898 690.106 257.036C727.196 195.444 747.68 142.958 752.716 96.5845L751.993 96.4239C746.975 142.599 726.55 194.92 689.544 256.361C634.909 347.143 559.388 430.565 519.231 472.212C516.734 474.813 514.225 477.409 511.713 480ZM546.412 480L547.55 480C591.498 432.364 650.298 362.705 694.911 288.11C732.221 225.78 752.58 172.699 757.168 125.817L756.485 125.678C751.919 172.367 731.604 225.298 694.385 287.479C649.568 362.416 590.407 432.374 546.412 480ZM580.185 480L581.103 480C591.285 468.325 601.172 456.613 610.659 444.991C646.225 401.439 676.215 359.236 699.796 319.581C736.808 257.389 757.667 202.157 761.792 155.42L761.142 155.302C757.032 201.868 736.224 256.94 699.296 318.997C680.09 351.303 642.277 408.869 580.185 480ZM612.357 480L613.212 480C613.837 479.24 614.461 478.475 615.082 477.714C650.71 434.071 680.74 391.74 704.346 351.881C741.745 288.812 762.633 232.808 766.431 185.423L765.821 185.322C762.038 232.541 741.198 288.394 703.876 351.335C687.689 378.662 658.313 423.917 612.357 480ZM642.783 480L643.617 480C668.924 446.961 690.83 414.811 708.945 384.09C746.564 320.368 767.419 263.754 770.93 215.818L770.365 215.737C766.864 263.508 746.05 319.977 708.501 383.582C695.586 405.481 674.257 438.846 642.783 480ZM671.297 480L672.042 480C682.834 464.744 693.306 449.06 703.219 433.065C726.917 394.86 745.091 358.524 757.234 325.057C767.529 296.697 773.549 270.295 775.129 246.598L774.607 246.528C773.028 270.135 767.03 296.45 756.767 324.72C744.639 358.128 726.491 394.416 702.822 432.578C692.802 448.744 682.213 464.589 671.297 480ZM697.346 480L698.003 480C701.019 475.327 703.99 470.627 706.914 465.895C730.638 427.546 748.83 390.995 760.991 357.266C771.371 328.472 777.388 301.707 778.879 277.715L778.39 277.651C774.313 343.466 737.069 416.101 706.547 465.445C703.531 470.327 700.461 475.182 697.346 480ZM720.673 480L721.246 480C749.245 431.507 778.618 367.71 782.026 309.116L781.582 309.073C778.177 367.662 748.698 431.534 720.673 480ZM740.867 480L741.359 480C763.023 437.053 781.861 387.28 784.421 340.731L784.021 340.682C781.457 387.238 762.563 437.048 740.867 480ZM757.63 480L758.053 480C772.837 445.222 784.08 407.932 785.938 372.479L785.578 372.442C783.716 407.895 772.444 445.211 757.63 480ZM770.56 480L770.894 480C781.545 448.128 785.505 422.932 786.445 404.244L786.126 404.212C784.873 429.072 779.022 454.825 770.56 480ZM779.121 480L779.415 480C783.437 462.608 785.255 447.93 785.835 435.918L785.556 435.891C784.976 447.904 783.154 462.592 779.121 480ZM782.794 480L783.033 480C783.51 475.504 783.823 471.296 784.006 467.367L783.771 467.351C783.587 471.28 783.275 475.498 782.794 480ZM-311 335.544C-310.545 333.863 -310.096 332.182 -309.656 330.501C-303.937 308.602 -300.694 290.45 -299.459 273.384C-299.221 270.108 -298.945 266.693 -298.67 263.379L-298.659 263.251C-297.561 249.858 -296.425 236.004 -297.314 222.771C-298.247 209.094 -303.353 197.077 -311 188.501L-311 191.205C-304.172 199.347 -299.639 210.422 -298.787 222.969C-297.906 236.025 -299.037 249.81 -300.139 263.139L-300.189 263.754C-300.446 266.875 -300.708 270.076 -300.932 273.17C-302.152 290.011 -305.351 307.949 -311 329.607L-311 335.544ZM-311 264.413C-310.456 256.678 -310.192 248.926 -310.662 241.357C-310.739 240.088 -310.853 238.836 -311 237.599L-311 264.413ZM854.832 -516.208C856.467 -519.886 857.999 -523.413 859.453 -526.807C857.929 -523.263 856.39 -519.725 854.832 -516.208ZM854.832 -516.208C854.608 -515.7 854.384 -515.191 854.153 -514.677L853.675 -513.607L853.686 -513.617C854.068 -514.479 854.451 -515.341 854.832 -516.208Z" fill="#C4C4C4"/>
<path fill-rule="evenodd" clip-rule="evenodd" d="M-311 82.5168L-311 85.1558C-300.352 78.8393 -289.153 73.4274 -276.694 71.3611C-265.466 69.5304 -253.444 71.6663 -243.711 77.2227C-236.042 81.6069 -226.08 90.1984 -222.213 106.247C-219.613 117.258 -219.083 129.35 -218.57 141.036L-218.566 141.149L-218.554 141.411L-218.554 141.416C-218.403 144.88 -218.248 148.455 -218.037 151.876C-216.983 168.786 -218.411 186.767 -222.411 206.846C-224.443 217.038 -227.089 227.279 -229.649 237.182L-229.662 237.23L-229.714 237.433C-230.8 241.635 -231.919 245.971 -232.975 250.238L-233.357 251.785C-236.097 262.807 -238.921 274.203 -237.639 284.791C-236.989 290.535 -234.65 295.337 -230.686 299.068C-224.45 304.924 -215.245 307.237 -205.953 307.237C-199.26 307.237 -192.528 306.032 -186.831 304.095C-169.872 298.431 -153.661 285.964 -137.976 273.903L-137.907 273.85C-131.677 269.059 -125.235 264.107 -118.826 259.632C-104.812 249.82 -90.5461 242.599 -75.4453 234.95L-75.319 234.885C-72.5495 233.488 -69.736 232.059 -66.8711 230.592C-62.8492 228.531 -58.7979 226.433 -54.7135 224.313C-41.1124 217.263 -27.0449 209.972 -12.768 203.468C24.6047 186.938 75.505 168.422 106.281 166.024C123.801 164.9 133.086 171.489 142.07 177.865C146.268 180.847 150.228 183.657 154.911 185.621C160.494 187.854 166.518 189.315 178.834 182.661C183.829 179.953 189.86 175.82 197.287 170.007C209.958 160.082 223.468 148.273 236.547 136.845L236.547 136.839L236.551 136.839L236.554 136.834L236.808 136.615C240.26 133.59 243.721 130.571 247.169 127.573C286.977 93.2603 331.641 48.9587 374.835 6.10772C390.13 -9.06275 404.572 -23.3874 418.459 -36.9359C439.755 -57.5237 463.986 -80.8094 482.108 -96.5954C494.931 -107.773 505.498 -115.85 515.702 -123.66L515.705 -123.66L515.871 -123.789L516.899 -124.576L516.91 -124.586L516.914 -124.586C522.291 -128.703 527.426 -132.637 532.91 -137.048C558.04 -157.352 581.687 -180.568 609.594 -212.328C631.096 -236.775 661.071 -274.369 698.683 -324.067C726.88 -361.27 752.775 -396.82 777.843 -432.738C820.854 -494.277 857.216 -550.976 885.921 -601.268C898.655 -623.59 909.09 -643.166 917.905 -660.643C919.595 -664.47 921.461 -668.121 923.326 -671.772C925.383 -675.801 927.444 -679.83 929.266 -684.095L929.405 -684.1C939.08 -704.445 946.525 -721.683 953.199 -737.137L953.316 -737.411L952.629 -738L952.629 -737.995C949.511 -731.432 946.172 -724.564 942.573 -717.353L942.599 -717.416L942.569 -717.353C943.212 -718.811 943.847 -720.252 944.472 -721.677L945.305 -723.585L946.389 -726.066C947.065 -727.622 947.763 -729.223 948.453 -730.821L949.331 -732.845L950.066 -734.547C947.579 -728.799 945.078 -723.066 942.558 -717.348C929.659 -688.121 912.722 -652.127 884.573 -602.793C855.905 -552.561 819.579 -495.92 776.613 -434.446C750.758 -397.451 724.383 -361.238 697.496 -325.839C659.918 -276.179 629.972 -238.627 608.503 -214.223C580.673 -182.549 557.093 -159.397 532.046 -139.157C526.232 -134.484 520.796 -130.325 515.041 -125.925L514.993 -125.887L514.989 -125.887C504.723 -118.034 494.105 -109.914 481.194 -98.6617C463.046 -82.8489 438.786 -59.5417 417.475 -38.9379C402.893 -24.6668 388.348 -10.3153 373.84 4.11645L373.741 4.21814C330.598 47.0102 285.997 91.2529 246.266 125.496C242.813 128.494 239.353 131.513 235.901 134.543L235.747 134.677C222.652 146.121 209.117 157.952 196.453 167.876C189.1 173.625 183.135 177.726 178.22 180.381C166.397 186.772 160.671 185.402 155.396 183.277C150.871 181.382 146.974 178.62 142.846 175.686C133.671 169.177 124.179 162.443 106.196 163.588C75.2515 166.003 24.1896 184.572 -13.2859 201.145C-27.6032 207.67 -41.6891 214.967 -55.3048 222.027C-62.1579 225.598 -69.0227 229.115 -75.8993 232.589L-75.9078 232.594C-91.1 240.281 -105.447 247.545 -119.593 257.448C-125.781 261.768 -131.977 266.522 -137.996 271.141L-137.999 271.141L-138.737 271.709C-154.34 283.71 -170.472 296.119 -187.239 301.723C-200.483 306.252 -219.432 306.712 -229.731 297.039C-233.276 293.704 -235.366 289.459 -235.939 284.39C-237.144 274.412 -234.389 263.31 -231.726 252.577L-231.34 251.035C-230.271 246.71 -229.136 242.31 -228.035 238.054L-228.022 238.006C-225.451 228.06 -222.793 217.777 -220.744 207.494C-216.685 187.126 -215.234 168.861 -216.314 151.656C-216.521 148.273 -216.673 144.88 -216.833 141.298L-216.847 140.988C-217.361 129.104 -217.897 116.824 -220.578 105.465C-223.811 92.072 -231.583 81.5266 -243.068 74.9638C-253.059 69.2574 -265.389 67.0626 -276.896 68.9469C-289.311 71.0024 -300.44 76.2966 -311 82.5168ZM-311 93.3621L-311 95.8673C-303.779 92.4521 -296.224 89.8504 -288.136 88.7745C-267.74 86.098 -242.8 97.7622 -236.714 124.597C-234.051 136.566 -233.843 149.708 -233.641 162.432L-233.64 162.534L-233.638 162.657C-233.583 166.217 -233.532 169.578 -233.426 172.94C-232.894 189.722 -234.767 207.788 -239.16 228.162C-241.279 238.011 -243.924 247.899 -246.484 257.464L-246.549 257.705L-246.55 257.711C-247.793 262.357 -249.076 267.153 -250.278 271.875L-250.521 272.833C-253.415 284.181 -256.401 295.904 -255.229 306.899C-254.649 312.702 -252.383 317.606 -248.493 321.46C-242.095 327.803 -232.288 330.292 -222.654 330.292C-217.093 330.292 -211.583 329.462 -206.83 328.055C-189.149 322.953 -172.231 309.87 -155.864 297.211L-155.744 297.12L-155.742 297.114L-155.74 297.114C-149.27 292.109 -142.58 286.938 -135.934 282.345C-122.985 273.341 -109.867 266.8 -95.9836 259.873L-95.884 259.825C-93.1954 258.487 -90.4664 257.122 -87.6823 255.719C-84.4262 254.07 -81.1455 252.395 -77.8445 250.714L-76.2739 249.911C-62.7463 242.995 -48.7559 235.843 -34.5121 229.522C-0.0300701 214.678 51.6453 196.616 83.7949 194.593C102.163 193.662 111.305 201.092 120.14 208.275L120.147 208.281L120.167 208.297C124.093 211.487 127.802 214.501 132.22 216.733C137.534 219.303 143.323 221.09 155.528 214.817C160.56 212.221 166.779 208.126 174.022 202.639C185.011 194.315 196.559 184.663 207.74 175.322L208.107 175.017C211.707 172.003 215.317 168.99 218.928 165.997C258.901 133.151 303.847 90.3001 347.321 48.8517L348.221 47.9951C363.864 33.0816 378.666 18.9764 392.818 5.74905C441.485 -39.7516 469.679 -61.0674 499.526 -83.6303L502.211 -85.6645C528.568 -105.942 553.467 -129.645 582.958 -162.507C611.074 -193.801 647.944 -240.458 673.927 -274.086C702.514 -311.021 728.742 -346.341 754.126 -382.067C797.688 -443.295 834.462 -499.806 863.424 -550.013C875.912 -571.676 886.126 -590.647 894.725 -607.552C898.982 -617.116 902.725 -625.895 906.232 -634.124L906.251 -634.165L906.258 -634.182L906.269 -634.206L906.273 -634.213L906.273 -634.215L906.276 -634.226L906.28 -634.234L906.287 -634.247L906.46 -634.655L906.464 -634.66L907.58 -633.707C916.653 -652.855 923.631 -669.091 929.897 -683.678L929.409 -684.092C925.655 -676.197 921.824 -668.38 917.916 -660.643L917.916 -660.66L917.909 -660.638C905.556 -632.776 889.186 -598.457 862.116 -551.517C833.191 -501.37 796.458 -444.922 752.933 -383.748C727.567 -348.043 701.353 -312.745 672.788 -275.831C646.824 -242.23 609.984 -195.616 581.911 -164.365C552.501 -131.588 527.668 -107.955 501.407 -87.7469L498.725 -85.7234L498.666 -85.6806C468.812 -63.1069 440.589 -41.7644 391.882 3.76846C378.071 16.68 363.647 30.4319 348.416 44.944L348.408 44.9493L346.373 46.8925L346.098 47.1548L346.094 47.1601C302.727 88.4908 257.909 131.213 218.068 163.952C214.458 166.95 210.844 169.969 207.244 172.978C195.964 182.41 184.295 192.163 173.214 200.556C166.04 205.99 159.892 210.042 154.941 212.595C143.25 218.601 137.777 216.921 132.767 214.501C128.495 212.344 124.844 209.378 120.984 206.236L120.949 206.209C111.91 198.87 102.562 191.285 83.7178 192.232C51.4065 194.267 -0.4304 212.376 -35.0189 227.268C-49.2918 233.601 -63.2862 240.758 -76.822 247.679L-76.8543 247.695L-78.2985 248.434C-81.6384 250.136 -84.958 251.833 -88.2553 253.503C-91.0357 254.906 -93.7647 256.265 -96.4533 257.604L-96.4974 257.625C-110.45 264.584 -123.636 271.157 -136.687 280.236C-143.402 284.888 -150.152 290.102 -156.679 295.15C-172.936 307.724 -189.744 320.721 -207.179 325.753C-219.825 329.484 -237.849 329.125 -247.538 319.538C-251.027 316.08 -253.062 311.723 -253.573 306.578C-254.685 296.183 -251.775 284.749 -248.961 273.689L-248.952 273.657L-248.71 272.704C-247.61 268.384 -246.439 263.995 -245.299 259.723L-245.299 259.718L-244.927 258.326C-242.356 248.728 -239.7 238.793 -237.562 228.879C-233.118 208.238 -231.219 189.914 -231.759 172.854C-231.868 169.519 -231.919 166.163 -231.974 162.62L-231.976 162.507C-232.174 149.59 -232.38 136.234 -235.123 123.901C-241.481 95.8834 -267.262 83.6785 -288.294 86.4085C-296.337 87.4738 -303.838 90.0164 -311 93.3621ZM-311 105.786L-311 108.158C-307.757 107.162 -304.44 106.381 -301.024 105.899C-290.2 104.368 -278.678 107.146 -269.414 113.506C-262.245 118.43 -253.07 127.75 -250.083 144.2C-247.861 156.694 -247.972 170.29 -248.078 183.448L-248.081 183.834C-248.106 187.056 -248.129 190.102 -248.118 193.164C-248.045 209.999 -250.3 228.157 -255.016 248.675C-257.119 257.812 -259.649 267.003 -262.099 275.9L-262.171 276.162C-263.701 281.66 -265.192 287.184 -266.641 292.73L-266.792 293.308L-266.795 293.319C-269.659 304.378 -272.907 316.915 -271.739 328.162C-271.152 334.339 -268.753 339.526 -264.632 343.579C-258.135 349.959 -248.398 352.475 -238.811 352.475C-232.975 352.475 -227.197 351.538 -222.246 349.986C-205.512 344.831 -189.589 332.407 -174.188 320.384L-174.063 320.287C-168.335 315.818 -162.41 311.198 -156.54 307.033C-142.329 296.916 -128.386 289.93 -112.233 281.847L-107.377 279.412C-104.322 277.876 -101.25 276.312 -98.158 274.744L-98.1418 274.739L-98.1301 274.733L-97.7536 274.541C-83.1131 267.111 -67.9693 259.429 -52.4656 252.818C-16.9221 238.119 32.4282 222.627 62.5467 221.144C81.8849 220.427 90.9903 228.852 99.7908 237C103.074 240.04 106.178 242.909 109.752 245.265C114.931 248.552 120.161 250.853 131.702 245.704C137.193 243.236 143.841 239.13 152.024 233.151C163.984 224.415 176.523 214.319 188.644 204.555L189.537 203.838L189.555 203.822L189.562 203.816C192.365 201.563 195.171 199.304 197.981 197.061C235.971 166.891 278.537 127.846 319.707 90.0806L319.84 89.9575C335.905 75.2207 351.078 61.3027 365.543 48.3163C411.466 7.04449 438.547 -12.6172 467.211 -33.4297L467.255 -33.4618L475.483 -39.4412C499.974 -57.6147 524.414 -80.0492 552.395 -110.058C583.468 -143.343 622.99 -192.174 650.662 -227.279C679.576 -263.888 706.139 -298.998 731.875 -334.607C762.192 -376.489 805.963 -439.537 842.348 -502.055C854.627 -523.156 864.639 -541.603 873.036 -557.994C871.276 -554.059 869.407 -549.964 867.159 -545.125L867.133 -545.077C864.617 -538.948 862.057 -532.862 859.453 -526.807C862.27 -533.381 864.79 -539.44 867.13 -545.082C856.441 -522.161 842.216 -494.202 821.643 -459.113C785.035 -396.707 740.808 -333.906 710.15 -292.222C684.163 -256.817 657.288 -221.915 627.989 -185.531C600.045 -150.763 559.983 -102.237 527.826 -68.5134C499.118 -38.3598 474.274 -16.1073 449.643 1.51489C446.051 4.03616 442.525 6.49316 439.028 8.92343L439.021 8.92874L439.013 8.93414L435.807 11.1664C408.961 29.8217 383.606 47.4438 341.903 83.3251C326.811 96.2955 310.859 110.385 293.993 125.277L292.722 126.401C253.847 160.746 213.65 196.258 177.629 223.922L169.276 230.41C155.495 241.138 141.244 252.229 128.003 261.319C120.238 266.65 113.972 270.204 108.83 272.169C98.059 276.28 93.7686 272.977 89.6225 269.787L89.4917 269.68C86.5485 267.346 83.9235 264.589 81.146 261.672L81.1283 261.656L81.1243 261.65C73.0815 253.214 63.9688 243.659 44.8245 243.525C13.1376 243.803 -38.2365 259.365 -75.0986 274.653C-89.6605 280.9 -103.806 288.078 -117.494 295.021L-117.497 295.021L-117.591 295.069L-123.622 298.131C-125.33 298.993 -127.017 299.839 -128.688 300.674C-129.439 301.049 -130.187 301.423 -130.932 301.798L-130.946 301.803C-145.386 309.03 -159.027 315.855 -172.297 325.335C-178.53 329.778 -184.785 334.719 -190.827 339.505C-206.158 351.635 -222.011 364.177 -238.635 369.214C-253.881 373.93 -270.516 371.264 -279.085 362.726C-282.916 358.91 -285.109 354.081 -285.623 348.343C-286.718 336.941 -283.236 323.922 -280.162 312.44L-279.857 311.305C-278.468 306.102 -276.981 300.802 -275.537 295.685C-273.095 286.992 -270.571 277.999 -268.401 269.038C-263.236 247.668 -260.662 229.746 -260.302 212.643C-260.215 208.473 -260.267 204.261 -260.318 200.198L-260.32 200.048L-260.321 199.957C-260.383 195.021 -260.448 189.92 -260.265 184.845C-260.041 178.636 -259.931 170.494 -261.062 162.518C-265.484 131.973 -290.042 117.772 -311 119.849L-311 122.113C-283.827 119.319 -265.8 141.063 -262.63 162.957C-261.536 170.681 -261.646 178.646 -261.859 184.727C-262.05 189.909 -261.984 195.08 -261.918 200.08L-261.912 200.53C-261.862 204.48 -261.811 208.554 -261.896 212.569C-262.256 229.441 -264.801 247.149 -269.914 268.299C-272.07 277.212 -274.586 286.178 -277.021 294.845C-278.465 299.973 -279.952 305.278 -281.348 310.502L-281.649 311.637C-284.793 323.371 -288.349 336.673 -287.203 348.637C-286.633 355.018 -284.209 360.376 -279.996 364.573C-273.4 371.141 -263.538 373.727 -253.933 373.727C-248.401 373.727 -242.962 372.87 -238.282 371.425C-221.423 366.313 -205.464 353.69 -190.03 341.475L-189.911 341.378C-183.917 336.641 -177.721 331.743 -171.555 327.353C-158.384 317.943 -144.799 311.139 -130.419 303.945L-130.381 303.923L-128.988 303.227C-127.04 302.253 -125.065 301.268 -123.064 300.256L-117.029 297.195L-116.746 297.05C-103.141 290.15 -89.0729 283.02 -74.6285 276.816C-23.9008 255.778 22.8637 245.982 44.8429 245.779C63.4495 245.907 71.9569 254.831 80.1774 263.449L80.188 263.46C83.0162 266.431 85.6865 269.23 88.7277 271.65L88.871 271.757C93.0839 275.006 97.8698 278.694 109.267 274.348C114.505 272.34 120.866 268.738 128.716 263.347C141.989 254.237 156.241 243.145 170.029 232.412L170.066 232.385C172.85 230.217 175.634 228.049 178.411 225.903C214.432 198.233 254.607 162.748 293.468 128.419L293.585 128.312L293.743 128.173C311.013 112.917 327.332 98.4956 342.744 85.2523C384.389 49.4245 409.71 31.8237 436.519 13.1898L439.175 11.343C442.863 8.77886 446.576 6.19335 450.367 3.53289C475.086 -14.1535 500.007 -36.4702 528.792 -66.6987C560.993 -100.466 601.091 -149.039 629.054 -183.834C658.372 -220.245 685.262 -255.168 711.266 -290.594C741.951 -332.326 786.225 -395.182 822.877 -457.678C835.222 -478.726 845.283 -497.226 853.675 -513.607C852.772 -511.588 851.839 -509.517 850.869 -507.402L850.693 -507.547L848.838 -502.986L848.801 -502.901C838.447 -480.621 824.552 -453.348 804.233 -418.885C767.559 -356.699 723.071 -294.283 692.215 -252.888C662.886 -213.463 632.764 -175.135 600.122 -135.71C558.723 -85.6056 525.501 -47.9203 501.384 -23.7246C473.554 4.27166 449.195 25.3893 426.926 40.8328C419.301 46.0787 412.447 50.3719 405.189 54.9166C396.903 60.0984 388.337 65.4621 378.56 72.3675C361.741 84.2512 339.968 101.761 318.94 118.923C303.583 131.599 287.256 145.484 269.993 160.162L269.986 160.168L268.623 161.329L268.326 161.581C228.349 195.583 187.035 230.715 150.434 257.4C147.606 259.493 144.656 261.709 141.632 263.984L140.249 265.028C122.912 278.084 103.273 292.875 90.5312 297.633C79.2661 301.889 74.8475 298.131 71.3104 295.118C68.4183 292.575 65.8751 289.593 63.1861 286.44L63.0976 286.338C55.0978 276.944 46.0218 266.291 25.3356 266.27C-2.24122 266.586 -50.1921 278.448 -91.2708 295.128C-106.859 301.664 -121.885 309.34 -136.419 316.77L-141.495 319.361L-146.336 321.824C-161.8 329.661 -175.151 336.438 -188.62 346.298C-194.507 350.591 -200.428 355.366 -206.155 359.985L-206.171 360.002C-221.343 372.228 -237.028 384.866 -253.536 389.759C-268.437 394.25 -284.756 391.429 -293.23 382.902C-297.16 378.946 -299.404 373.936 -299.915 367.988C-300.997 356.276 -297.429 342.968 -294.278 331.218L-294.262 331.159L-294.104 330.571C-292.495 324.575 -290.762 318.489 -289.08 312.6C-286.545 303.731 -283.926 294.561 -281.668 285.407C-276.672 265.167 -273.991 248.129 -273.22 231.786C-272.981 226.69 -272.907 221.551 -272.841 216.583L-272.83 215.823C-272.761 210.973 -272.689 205.974 -272.448 201.006C-272.055 192.976 -272.151 186.837 -272.75 181.093C-274.277 166.784 -280.437 154.285 -290.112 145.897C-296.191 140.619 -303.463 137.209 -311 135.924L-311 138.156C-293.542 141.298 -276.959 156.373 -274.288 181.425C-273.704 187.008 -273.613 193.009 -273.998 200.878C-274.255 206.156 -274.329 211.444 -274.399 216.562C-274.44 221.599 -274.565 226.631 -274.773 231.657C-275.53 247.797 -278.189 264.648 -283.14 284.695C-285.381 293.774 -287.984 302.89 -290.5 311.712L-290.523 311.792C-292.209 317.691 -293.95 323.788 -295.562 329.805L-295.72 330.394L-295.74 330.469C-298.957 342.454 -302.598 356.03 -301.458 368.277C-300.896 374.845 -298.431 380.375 -294.134 384.7C-287.456 391.424 -277.715 394.095 -268.166 394.095C-262.943 394.095 -257.778 393.292 -253.213 391.916C-236.457 386.959 -220.655 374.224 -205.376 361.902L-205.24 361.795L-205.239 361.789C-199.57 357.223 -193.712 352.502 -187.9 348.268C-174.542 338.488 -161.253 331.743 -145.873 323.933L-145.807 323.901C-144.779 323.381 -143.744 322.857 -142.701 322.327C-142.123 322.033 -141.543 321.738 -140.959 321.444L-135.883 318.853C-121.375 311.433 -106.367 303.768 -90.83 297.253C-49.8762 280.632 -2.1016 268.797 25.343 268.492C45.4526 268.518 53.9126 278.443 62.0931 288.035L62.1023 288.046C64.8644 291.29 67.4684 294.347 70.495 297.013C75.1634 300.984 79.9236 303.934 90.9315 299.78C103.84 294.957 123.556 280.108 140.957 267.003L140.98 266.987L142.038 266.19C145.175 263.829 148.231 261.533 151.15 259.37C187.887 232.589 229.341 197.329 269.428 163.23C287.19 148.113 303.969 133.842 319.722 120.834C340.724 103.699 362.476 86.1996 379.261 74.3534C388.903 67.5336 397.376 62.2235 405.563 57.1006L405.817 56.9401C413.089 52.39 419.958 48.0915 427.609 42.8134C449.959 27.3164 474.384 6.14516 502.284 -21.9207C526.445 -46.1699 559.7 -83.8872 601.135 -134.034C633.796 -173.486 663.936 -211.835 693.291 -251.282C724.177 -292.73 768.708 -355.2 805.431 -417.477C817.82 -438.482 827.821 -456.827 836.1 -473.009C834.973 -470.504 833.838 -468.004 832.695 -465.515L833.441 -467.137L834.653 -466.179C834.37 -465.462 834.084 -464.739 833.786 -464.005L833.632 -463.615C840.295 -478.025 845.386 -490.246 849.764 -500.957C845.356 -491.509 840.805 -482.2 836.115 -473.041L836.141 -473.1C840.82 -482.238 845.363 -491.525 849.76 -500.957C857.4 -517.354 863.119 -531.052 868.04 -542.914L868.055 -542.941C876.118 -560.183 882.189 -574.594 887.423 -587.023L887.331 -587.098C895.628 -604.733 902.023 -619.743 907.801 -633.299L907.808 -633.314L907.812 -633.324L907.815 -633.336L907.823 -633.354L907.826 -633.362L907.867 -633.456L907.58 -633.696C903.397 -624.876 899.11 -616.158 894.728 -607.547C882.901 -580.969 867.082 -548.219 841.081 -503.532C804.74 -441.095 761.01 -378.111 730.726 -336.266C705.007 -300.669 678.459 -265.59 649.567 -229.002C621.91 -193.924 582.433 -145.137 551.4 -111.905C523.492 -81.9763 499.129 -59.6061 474.722 -41.4967L466.502 -35.5227C437.79 -14.678 410.673 5.01034 364.657 46.3571C350.285 59.2686 335.215 73.0901 319.27 87.7146L319.245 87.7414L319.234 87.7468L318.943 88.0143C277.751 125.801 235.155 164.873 197.173 195.043C194.491 197.189 191.818 199.341 189.147 201.488L187.832 202.548L187.164 203.083L187.164 203.088C175.26 212.66 162.982 222.541 151.271 231.09C143.172 237.01 136.605 241.068 131.202 243.493C119.327 248.792 114.395 245.666 110.442 243.161C106.997 240.891 103.956 238.076 100.735 235.099L100.694 235.062C92.1032 227.107 82.3662 218.104 62.499 218.832C32.2298 220.32 -17.2857 235.854 -52.9321 250.602C-68.4872 257.234 -83.6493 264.926 -98.3082 272.367C-101.533 274.005 -104.743 275.633 -107.931 277.238L-112.78 279.663L-112.788 279.669C-128.985 287.784 -142.975 294.786 -157.274 304.967C-163.173 309.153 -169.114 313.789 -174.858 318.275L-174.978 318.366L-175.012 318.392C-190.303 330.319 -206.108 342.652 -222.595 347.727C-238.183 352.625 -255.079 350.141 -263.692 341.678C-267.42 338.022 -269.58 333.37 -270.112 327.851C-271.214 317.161 -268.18 305.443 -265.242 294.111L-265.095 293.533C-263.67 288.025 -262.127 282.426 -260.632 277.008L-260.536 276.655C-258.086 267.758 -255.558 258.567 -253.448 249.387C-248.673 228.638 -246.396 210.245 -246.469 193.158C-246.476 190.134 -246.453 187.104 -246.428 183.908L-246.428 183.903L-246.425 183.486C-246.319 170.183 -246.208 156.431 -248.482 143.638C-251.626 126.326 -261.205 116.573 -268.684 111.434C-278.211 104.898 -290.06 102.034 -301.189 103.592C-304.547 104.068 -307.812 104.823 -311 105.786ZM-311 160.923L-311 163.23C-307.621 164.916 -304.414 167.084 -301.524 169.739C-292.767 177.768 -287.21 189.508 -285.869 202.767C-284.614 215.384 -285.502 228.794 -286.361 241.769L-286.362 241.775C-286.597 245.308 -286.839 248.964 -287.023 252.47C-287.959 270.033 -291.162 288.817 -297.101 311.578C-298.864 318.28 -301.083 325.255 -303.434 332.632C-306.126 341.089 -308.848 349.659 -311 358.149L-311 364.953C-308.748 354.579 -305.373 343.948 -302.049 333.504L-301.935 333.145C-299.619 325.865 -297.429 318.981 -295.68 312.322C-289.686 289.358 -286.453 270.392 -285.506 252.631C-285.322 249.135 -285.094 245.656 -284.845 241.967C-283.978 228.874 -283.082 215.325 -284.367 202.462C-285.767 188.576 -291.566 176.318 -300.697 167.935C-303.874 165.028 -307.345 162.694 -311 160.923ZM-311 396.745L-311 400.224C-309.955 401.9 -308.78 403.393 -307.5 404.678C-300.8 411.46 -291.063 414.158 -281.587 414.158C-276.547 414.158 -271.574 413.398 -267.174 412.07C-250.356 407.108 -234.536 394.025 -219.239 381.376L-219.227 381.365C-213.236 376.409 -207.04 371.286 -200.887 366.736C-188.631 357.646 -175.746 351.008 -162.101 343.985L-157.289 341.502L-152.536 339.039C-138.212 331.598 -123.398 323.911 -107.983 317.44C-66.3128 300.524 -17.7339 289.176 10.1405 289.818C29.7149 290.589 37.7357 301.086 45.4879 311.235L45.504 311.257L45.5929 311.375C47.815 314.281 49.9212 317.033 52.288 319.538C55.8431 323.194 60.2676 327.744 71.5272 324.238C76.5445 322.664 82.9281 319.431 90.4944 314.624C101.483 307.649 113.221 299.175 124.575 290.98L124.668 290.91C127.999 288.501 131.334 286.092 134.651 283.721C169.556 259.011 208.64 226.899 246.439 195.84C265.472 180.199 283.444 165.43 300.2 152.17C319.491 137.086 341.462 120.159 358.13 109.057C366.861 103.233 374.681 98.5812 382.236 94.0847L382.6 93.8706L382.776 93.7635C390.512 89.1706 397.832 84.8186 406.1 79.2942C428.652 64.1506 453.569 43.0115 482.285 14.6779C506.842 -9.50169 541.728 -48.354 583.163 -97.6821C616.272 -137.021 646.772 -175.258 676.413 -214.603C707.667 -255.998 752.683 -318.451 789.663 -380.868C803.117 -403.597 813.677 -423.082 822.209 -440.008C825.801 -448.423 829.294 -456.934 832.688 -465.526C822.595 -443.632 808.88 -416.674 788.495 -382.243C751.57 -319.902 706.598 -257.518 675.374 -216.161C645.751 -176.848 615.269 -138.633 582.183 -99.3201C540.777 -50.0348 505.935 -11.2199 481.407 12.9168C452.758 41.1915 427.91 62.2717 405.442 77.3619C397.296 82.8059 390.049 87.1151 382.416 91.6544L382.413 91.6544L382.413 91.6598L382.005 91.9006C374.317 96.4614 366.373 101.183 357.477 107.119C340.768 118.254 318.774 135.191 299.454 150.297C282.684 163.572 264.701 178.347 245.664 193.988L245.403 194.202C207.707 225.17 168.745 257.186 133.961 281.805C131.24 283.753 128.518 285.718 125.794 287.682L123.97 288.999L123.782 289.133C112.472 297.302 100.788 305.732 89.8663 312.665C82.3881 317.413 76.1037 320.598 71.1929 322.14C60.6 325.442 56.6552 321.379 53.1842 317.804C50.868 315.352 48.777 312.617 46.5644 309.726L46.5629 309.721L46.5288 309.678L46.5236 309.672C38.933 299.732 30.3265 288.464 10.1662 287.666C-17.844 286.992 -66.6103 298.399 -108.416 315.379C-123.876 321.867 -138.698 329.559 -153.029 337L-153.069 337.021L-157.825 339.483L-162.633 341.972C-176.326 349.017 -189.262 355.676 -201.604 364.835C-207.656 369.31 -213.733 374.332 -219.618 379.192L-220.005 379.513C-235.201 392.088 -250.914 405.079 -267.497 409.972C-282.105 414.361 -298.196 411.465 -306.625 402.933C-308.44 401.091 -309.898 399.025 -311 396.745ZM-311 431.844L-311 433.975C-306.361 435.709 -301.325 436.48 -296.367 436.48C-291.489 436.48 -286.688 435.741 -282.446 434.467C-265.91 429.58 -250.506 416.503 -235.616 403.848C-230.341 399.373 -224.883 394.743 -219.487 390.567C-205.868 380.006 -192.083 372.726 -176.121 364.3L-172.308 362.282L-172.127 362.186C-156.75 354.054 -140.853 345.645 -124.151 338.793C-84.4684 323.028 -37.175 312.622 -9.14271 313.478C11.3672 314.394 19.2311 325.683 26.8305 336.598C28.7442 339.344 30.5512 341.935 32.564 344.376L32.8322 344.697L32.8392 344.708C36.3157 348.814 40.2586 353.476 50.5911 350.971C55.8545 349.686 62.8405 346.378 71.3508 341.137C83.0757 333.916 95.5673 325.207 107.655 316.781L107.846 316.647L109.428 315.545C111.828 313.875 114.227 312.199 116.624 310.545C149.637 287.896 186.348 258.835 221.855 230.721C242.222 214.592 261.465 199.363 279.264 185.916C298.198 171.795 317.86 157.368 333.4 147.503C342.16 141.925 350.028 137.503 357.616 133.237L357.62 133.237L357.624 133.237L358.145 132.942C366.156 128.456 374.435 123.815 383.507 117.959C406.048 103.329 432.24 81.6443 461.363 53.4981C484.224 31.4436 515.661 -2.64979 554.801 -47.8508C587.652 -85.6645 619.743 -124.865 651.033 -165.392C685.1 -209.437 733.954 -275.799 773.215 -341.807C788.921 -368.224 800.56 -390.096 809.578 -408.591C812.678 -414.956 815.469 -420.903 818.007 -426.513C824.534 -440.923 829.412 -453.021 833.614 -463.583C829.926 -455.607 826.124 -447.743 822.216 -439.997L822.213 -439.987C812.002 -416.219 797.295 -385.552 772.08 -343.145C732.878 -277.228 684.072 -210.925 650.034 -166.923C618.766 -126.417 586.697 -87.249 553.868 -49.462C514.758 -4.29856 483.354 29.7628 460.533 51.7744C431.476 79.8617 405.358 101.493 382.894 116.064C373.858 121.899 365.961 126.326 357.602 131.01L357.425 131.106C349.705 135.442 341.727 139.917 332.791 145.597C317.217 155.484 297.53 169.932 278.57 184.074C260.749 197.532 241.502 212.767 221.124 228.901C185.643 256.993 148.95 286.044 115.97 308.661L107.192 314.768L106.71 315.106C94.7243 323.456 82.3537 332.08 70.7595 339.216C62.3557 344.392 55.4799 347.652 50.3377 348.91C40.674 351.249 37.1663 347.101 33.7799 343.091L33.5154 342.781C31.5749 340.425 29.8009 337.883 27.924 335.185L27.8847 335.131L27.8714 335.11C20.4296 324.436 11.9939 312.338 -9.10233 311.391C-37.2705 310.534 -84.7439 320.973 -124.555 336.785C-141.365 343.68 -157.328 352.127 -172.77 360.296L-172.826 360.328L-176.638 362.341L-176.695 362.373C-192.685 370.815 -206.501 378.111 -220.193 388.731C-225.445 392.789 -230.728 397.275 -235.855 401.621L-236.372 402.06C-251.16 414.624 -266.454 427.61 -282.747 432.423C-291.243 434.981 -301.968 435.335 -311 431.844ZM-311 457.357L-311 459.348C-306.003 459.338 -301.022 458.529 -296.146 456.929C-280.242 451.661 -265.448 438.696 -251.143 426.159L-251.116 426.138C-245.658 421.352 -240.012 416.406 -234.403 411.974C-221.603 401.83 -208.553 394.791 -193.439 386.643L-190.519 385.064L-190.462 385.032C-175.516 376.96 -160.06 368.609 -143.714 361.832C-104.545 346.11 -55.4591 335.854 -27.0045 337.444C-6.69394 338.889 0.766261 350.698 7.98333 362.121L8.01565 362.17C9.95828 365.247 11.7933 368.154 13.8796 370.868L13.8851 370.874C17.1309 374.974 21.169 380.075 32.0572 377.372C36.3362 376.301 41.7722 373.946 48.2183 370.349C59.7416 363.931 72.5897 355.264 85.0236 346.881L85.1392 346.801L86.417 345.939L86.4263 345.934C89.4076 343.926 92.3698 341.93 95.2987 339.976C127.231 318.939 162.794 291.863 197.198 265.671L197.261 265.622L197.345 265.558L197.349 265.558L197.356 265.553L197.36 265.547C218.465 249.478 238.398 234.302 256.749 221.074C274.996 208.088 295.833 193.533 311.99 184.005C319.847 179.369 327.042 175.579 334.003 171.918L334.025 171.907L334.256 171.784C342.182 167.603 350.38 163.283 359.361 157.78C421.563 119.956 527.18 10.6257 634.989 -127.52C700.545 -211.134 740.151 -273.604 757.932 -303.399C776.04 -333.75 788.484 -357.641 798.114 -378.368C799.771 -381.933 801.346 -385.412 802.852 -388.806C808.766 -402.167 813.61 -414.335 818.257 -426.331L818.011 -426.518C815.473 -420.914 812.685 -414.956 809.581 -408.596C798.349 -381.082 783.94 -350.152 756.837 -304.705C715.476 -235.383 662.14 -164.884 634.023 -129.029C526.328 8.98235 420.865 118.163 358.795 155.912C349.786 161.431 341.922 165.574 333.599 169.964L333.525 170.001C326.546 173.673 319.333 177.479 311.443 182.131C295.242 191.686 274.379 206.257 256.102 219.265C237.708 232.525 217.73 247.733 196.585 263.834L196.446 263.941C162.088 290.102 126.564 317.145 94.6964 338.134C91.3393 340.377 87.9381 342.663 84.5222 344.97L84.4091 345.045C72.0006 353.417 59.1763 362.068 47.6968 368.459C41.3425 372.003 35.9983 374.331 31.8148 375.375C21.6086 377.907 18.0187 373.368 14.8574 369.369L14.8529 369.364C12.8144 366.72 10.9926 363.834 9.06427 360.778C1.99743 349.584 -6.017 336.903 -26.9347 335.415C-55.5252 333.825 -104.802 344.114 -144.107 359.878C-160.515 366.687 -175.996 375.049 -190.967 383.132L-191.025 383.164L-193.949 384.743C-209.111 392.923 -222.209 399.989 -235.101 410.202C-240.621 414.565 -246.159 419.409 -251.525 424.109L-251.869 424.409C-266.083 436.871 -280.786 449.756 -296.47 454.948C-301.236 456.543 -306.11 457.352 -311 457.357ZM-311 478.18L-311 480L-310.414 480C-295.038 474.562 -280.782 461.629 -266.987 449.119L-266.968 449.103C-261.819 444.429 -256.489 439.596 -251.207 435.26C-237.986 424.356 -224.345 416.792 -208.553 408.034L-208.549 408.034L-206.889 407.119C-191.683 398.677 -176.708 390.562 -160.661 383.994C-123.872 369.401 -76.1233 359.873 -47.1288 361.334C-25.1525 362.726 -17.6439 375.643 -10.3835 388.137L-10.3805 388.142L-10.3684 388.164C-8.86689 390.749 -7.44873 393.185 -5.89212 395.551L-5.59095 395.995C-2.47992 400.604 1.04983 405.829 10.8016 404.4C15.8079 403.655 22.4927 400.984 30.6725 396.456C41.5375 390.439 53.301 382.827 64.6855 375.466L64.857 375.354L65.9288 374.658L65.9416 374.653L65.9541 374.642C68.8264 372.784 71.6921 370.927 74.5464 369.107C105.48 349.526 139.97 324.281 173.317 299.871C195.233 283.823 215.934 268.674 234.924 255.618C265.417 234.65 286.922 223.248 307.722 212.221C316.773 207.419 326.124 202.457 336.1 196.782C361.455 182.035 391.011 158.958 423.939 128.183C449.345 104.48 482.505 69.8141 522.486 25.1592C557.159 -13.5057 589.162 -51.4319 620.342 -90.7873C648.77 -126.583 702.653 -196.997 744.184 -266.447C764.973 -301.22 778.298 -327.792 788.179 -350.291C777.443 -320.823 763.819 -287.099 731.148 -232.45C687.333 -159.156 629.664 -85.3166 599.185 -47.824C570.264 -12.1461 540.711 22.231 508.83 57.2719C466.858 103.468 429.688 141.454 401.34 167.132C369.726 195.814 341.191 217.434 316.538 231.379C304.578 238.011 293.662 243.418 283.106 248.643L283.102 248.648L282.948 248.723C263.731 258.24 243.856 268.09 216.555 285.766C195.939 299.132 173.192 315.116 149.115 332.048C115.75 355.5 81.2532 379.743 50.4258 398.318C47.2414 400.288 44.062 402.269 40.8871 404.271L40.8526 404.292C23.451 415.218 3.7381 427.594 -7.88288 429.007C-17.4282 430.212 -20.5286 425.057 -23.5291 420.068L-23.9155 419.436C-25.157 417.327 -26.325 415.154 -27.5554 412.857L-27.5646 412.841C-34.5227 399.892 -42.4082 385.214 -65.5745 383.437C-96.1485 381.51 -144.687 390.878 -180.991 405.716C-196.568 412.284 -211.234 420.491 -226.139 429.034C-242.491 438.402 -256.012 446.431 -268.794 457.485C-273.628 461.655 -278.517 466.254 -283.248 470.707L-283.364 470.814C-286.632 473.892 -289.925 476.992 -293.252 480L-290.745 480C-288.013 477.495 -285.303 474.947 -282.611 472.41C-277.862 467.935 -272.948 463.31 -268.096 459.123C-255.398 448.15 -241.926 440.142 -225.636 430.806C-210.76 422.289 -196.131 414.094 -180.613 407.558C-144.437 392.767 -96.0861 383.432 -65.648 385.348C-43.1105 387.082 -35.7535 400.776 -28.6426 414.019L-28.5321 414.222C-27.3769 416.369 -26.1865 418.58 -24.9549 420.673L-24.5693 421.315L-24.5619 421.326C-21.4858 426.433 -18.0009 432.214 -7.77271 430.918C4.06131 429.478 23.8385 417.059 41.3157 406.086L41.4307 406.016L42.4326 405.39C45.3593 403.548 48.2184 401.755 50.9621 400.074C81.7873 381.494 116.271 357.261 149.623 333.825L149.714 333.761L150.226 333.402C174.11 316.621 196.67 300.765 217.113 287.511C244.363 269.862 264.205 260.034 283.393 250.532L283.701 250.377L283.705 250.377C294.224 245.163 305.107 239.773 317.033 233.156C341.775 219.158 370.384 197.484 402.067 168.738C430.448 143.027 467.655 105.005 509.66 58.7762C541.563 23.7139 571.142 -10.6847 600.074 -46.3894C630.585 -83.9141 688.314 -157.823 732.184 -231.213C765.909 -287.634 779.404 -321.829 790.331 -352.026L789.266 -352.791C794.856 -365.681 799.341 -377.26 803.491 -388.319L802.852 -388.796C801.346 -385.396 799.771 -381.917 798.114 -378.352C787.198 -350.168 772.771 -317.311 743.119 -267.705C701.643 -198.356 647.812 -128.007 619.412 -92.2541C588.254 -52.92 556.266 -15.0207 521.623 23.6175C481.671 68.2403 448.545 102.874 423.172 126.551C390.317 157.256 360.841 180.274 335.571 194.962C325.621 200.637 316.277 205.594 307.234 210.384L307.19 210.406C286.375 221.449 264.84 232.873 234.318 253.856C215.343 266.907 194.671 282.035 172.788 298.056L172.78 298.062L172.678 298.137C139.345 322.536 104.878 347.764 73.9734 367.324C71.3663 368.995 68.7445 370.691 66.1201 372.383L66.1179 372.388L66.1095 372.394L66.105 372.394L64.2766 373.577L64.1951 373.63L64.1922 373.63C52.803 381.007 41.0255 388.635 30.1656 394.641C22.107 399.1 15.5434 401.739 10.662 402.456C1.61215 403.784 -1.52677 399.159 -4.55847 394.684L-4.57724 394.657L-4.87104 394.218C-6.39533 391.9 -7.80573 389.475 -9.29697 386.911C-16.4038 374.679 -24.4602 360.815 -47.0663 359.381C-76.1932 357.914 -124.122 367.474 -161.039 382.115C-177.149 388.704 -192.157 396.841 -207.392 405.293L-209.053 406.214C-224.898 414.999 -238.583 422.589 -251.902 433.573C-257.213 437.936 -262.553 442.781 -267.714 447.465C-281.495 459.964 -295.739 472.881 -311 478.18ZM-283.355 480L-280.906 480C-269.652 470.247 -257.965 463.031 -244.019 454.718C-228.971 445.741 -214.121 437.112 -197.887 430.249C-161.429 415.33 -111.513 406.493 -81.7761 409.694C-60.2891 412.354 -53.3387 426.352 -46.6183 439.89L-46.6145 439.895C-45.4759 442.197 -44.3006 444.569 -43.0738 446.817L-42.8902 447.138L-42.8817 447.154C-39.8533 452.566 -36.4231 458.7 -25.9944 457.539C-21.9798 457.089 -16.8891 455.451 -10.8617 452.668C1.27347 447.079 15.4435 438.461 29.1475 430.126L30.9622 429.023C33.7875 427.305 36.5849 425.603 39.3297 423.959C66.9043 407.654 97.3475 387.056 126.788 367.137L126.96 367.019C151.246 350.586 174.18 335.067 195.017 322.214C222.013 305.54 241.946 296.333 261.222 287.431C272.293 282.318 283.738 277.03 296.329 270.408C320.493 257.438 349.003 236.689 381.072 208.741C419.84 175.06 466.12 126.519 498.119 91.7293C530.651 56.4368 560.387 22.2846 589.026 -12.6707C619.765 -50.0776 677.875 -123.778 721.672 -197.114C755.559 -253.846 768.896 -288.839 778.735 -317.194L777.556 -318.007C767.75 -289.754 754.461 -254.868 720.669 -198.303C676.935 -125.063 618.88 -51.4373 588.17 -14.0625C559.55 20.866 529.835 54.9969 497.326 90.268C465.352 125.036 419.109 173.534 380.389 207.178C348.39 235.057 319.95 255.757 295.87 268.684C283.422 275.231 272.08 280.472 261.112 285.541L260.815 285.68L260.807 285.686C241.498 294.598 221.536 303.816 194.488 320.528C173.629 333.397 150.687 348.921 126.394 365.36L126.043 365.595C96.6651 385.471 66.3119 406 38.8192 422.262C36.1386 423.868 33.4159 425.528 30.6633 427.198L28.6303 428.435C14.9558 436.759 0.814787 445.355 -11.2693 450.917C-17.1939 453.653 -22.1855 455.264 -26.0936 455.703C-35.827 456.773 -38.8939 451.297 -41.8507 446.003L-42.027 445.682C-43.1682 443.594 -44.233 441.453 -45.3536 439.205L-45.3547 439.199L-45.531 438.846L-45.5333 438.841C-52.1039 425.597 -59.5497 410.593 -81.6586 407.852C-111.538 404.64 -161.656 413.51 -198.247 428.483C-214.555 435.377 -229.438 444.023 -244.523 453.021C-259.251 461.8 -271.472 469.369 -283.355 480ZM-266.935 480L-263.812 480C-262.481 479.165 -261.129 478.325 -259.754 477.468C-246.686 469.342 -231.355 460.076 -214.9 453.075C-179.467 438.45 -130.002 430.147 -99.8472 433.755C-78.0091 436.705 -71.1718 451.254 -64.5619 465.317L-64.5571 465.328L-64.3551 465.756C-63.2139 468.181 -62.0378 470.681 -60.8033 473.025L-60.7225 473.181C-59.4631 475.52 -58.1293 477.987 -56.2264 480L-53.894 480C-56.5445 477.993 -58.1481 475.016 -59.7198 472.099L-59.8006 471.96C-61.0788 469.514 -62.2615 467.003 -63.5103 464.343C-69.9748 450.585 -77.295 435.008 -99.748 431.978C-130.047 428.349 -179.709 436.689 -215.278 451.356C-231.807 458.395 -247.178 467.683 -260.283 475.836C-262.56 477.249 -264.775 478.635 -266.935 480ZM-34.3446 480L-29.5924 480C-18.4166 475.311 -5.04953 467.437 7.24985 460.189C10.5629 458.235 13.7877 456.334 16.8621 454.568C44.4058 439.044 74.8916 419.259 104.375 400.117L104.648 399.94C131.102 382.768 156.087 366.554 178.543 353.583C203.263 339.344 222.087 331.304 240.297 323.531L240.301 323.531C251.695 318.671 263.478 313.644 276.52 307.156C302.062 294.207 332.607 272.549 367.302 242.786C396.098 218.146 433.206 181.874 477.583 134.976C513.814 96.7666 547.091 59.2526 579.325 20.3147C610.325 -17.0226 668.862 -90.6268 712.618 -164.028C746.685 -221.166 759.412 -255.778 768.668 -283.726L767.514 -284.487C758.295 -256.635 745.612 -222.156 711.641 -165.184C667.943 -91.8793 609.466 -18.3503 578.495 18.9549C546.283 57.8714 513.024 95.3587 476.816 133.547C432.468 180.408 395.404 216.642 366.637 241.255C332.012 270.965 301.548 292.564 276.091 305.47C263.081 311.942 251.309 316.963 239.926 321.818L239.923 321.818L239.882 321.834C221.661 329.612 202.811 337.658 178.055 351.924C155.495 364.953 130.401 381.242 103.835 398.49C74.3663 417.621 43.8916 437.406 16.3735 452.903C13.2956 454.686 10.0633 456.586 6.75027 458.54L6.66467 458.588C-7.25522 466.784 -22.5385 475.782 -34.3446 480ZM-85.5931 480C-91.4552 468.861 -99.8791 458.663 -117.5 456.078C-148.187 452.052 -197.387 459.91 -231.946 474.363C-236.011 476.119 -239.987 478.009 -243.876 480L-240.185 480C-237.363 478.614 -234.498 477.286 -231.586 476.034C-197.163 461.634 -148.165 453.802 -117.613 457.817C-100.919 460.264 -92.859 469.38 -87.1155 480L-85.5931 480ZM3.9313 480L0.5242 480C26.2597 465.954 54.6677 448.23 82.1457 431.09L82.6332 430.785C109.435 414.072 134.746 398.292 157.574 385.792C182.007 372.41 200.78 365.049 218.939 357.93C231.772 352.898 245.039 347.695 260.08 340.431C286.302 327.493 318.837 304.817 354.171 274.846C381.586 251.635 415.4 219.319 457.555 176.039C497.307 135.276 534.151 94.5022 570.183 51.3783C623.346 -12.0444 672.145 -79.2141 704.064 -132.916C738.274 -190.455 750.351 -224.618 758.989 -252.133L760.117 -251.426C751.445 -223.81 739.321 -189.502 705.004 -131.797C673.049 -78.0256 624.194 -10.7758 570.976 52.7111C534.922 95.8618 498.06 136.657 458.282 177.447C416.098 220.753 382.251 253.107 354.806 276.344C319.402 306.375 286.783 329.104 260.484 342.08C245.41 349.36 232.121 354.574 219.269 359.611L219.178 359.648C201.081 366.746 182.36 374.085 158.022 387.414C135.081 399.978 109.612 415.866 82.6527 432.685C56.2104 449.178 28.9047 466.216 3.9313 480ZM-135.896 480C-147.796 478.475 -161.836 478.555 -176.502 480L-135.896 480ZM33.2201 480C42.4202 474.567 51.6544 469.043 60.7822 463.577L60.8571 463.534C89.602 446.33 116.749 430.083 141.072 417.67C164.013 405.973 182.106 399.496 199.612 393.233C213.099 388.41 227.049 383.416 242.993 376.087C269.7 363.551 302.433 341.528 337.668 312.408C401.531 259.937 483.009 177.619 555.612 92.2058C587.806 54.5633 648.568 -19.7795 693.893 -94.7914C729.606 -153.894 742.891 -190.289 751.926 -220.802L753.021 -220.159C743.952 -189.513 730.619 -152.984 694.8 -93.7048C649.413 -18.5965 588.588 55.8213 556.376 93.4959C483.725 178.968 402.184 261.34 338.267 313.853C302.966 343.032 270.148 365.103 243.364 377.677C227.423 385.006 213.492 389.989 200.027 394.812L199.902 394.855C182.426 401.107 164.358 407.574 141.472 419.243C117.197 431.63 90.082 447.855 61.3746 465.038L61.3236 465.071C53.0311 470.033 44.6515 475.054 36.2892 480L33.2201 480ZM67.6698 480L70.7492 480C89.9883 469.139 108.855 458.877 125.748 450.907C147.323 440.747 164.759 435.115 181.618 429.676L181.794 429.618C195.843 425.084 210.385 420.384 227.163 413.082C253.829 401.247 285.923 380.445 322.561 351.271C356.184 324.575 399.143 285.07 446.782 237.037C481.282 202.301 512.771 168.518 543.032 133.761C576.115 95.8887 638.673 20.85 685.948 -56.164C725.066 -119.892 738.935 -159.456 747.339 -189.749L746.274 -190.338C737.899 -160.173 724.089 -120.764 685.085 -57.2239C637.862 19.6991 575.366 94.6628 542.316 132.509C512.065 167.25 480.599 201.011 446.117 235.72C398.504 283.726 355.585 323.199 321.996 349.863C285.942 378.571 253.032 399.903 226.817 411.546C210.017 418.858 195.45 423.558 181.364 428.103L181.302 428.124L181.298 428.124C164.431 433.568 146.983 439.194 125.384 449.376C107.69 457.721 87.8419 468.577 67.6698 480ZM112.906 480L116.809 480C134.415 472.795 149.41 468.497 163.98 464.327L164.03 464.311C179.638 459.835 195.784 455.205 214.935 447.036C242.497 435.008 276.935 412.964 314.521 383.271C346.575 358.01 386.126 322.343 432.071 277.254C470.307 239.778 505.41 202.724 539.374 163.984C572.644 126.149 635.496 51.1588 682.624 -25.9783C721.988 -90.4126 735.251 -129.913 743.034 -160.045L741.991 -160.58C734.241 -130.571 721.029 -91.2424 681.787 -26.9954C634.718 50.0507 571.92 124.966 538.676 162.769C504.73 201.488 469.653 238.515 431.44 275.97C385.52 321.026 346.002 356.672 313.977 381.911C276.462 411.546 242.097 433.552 214.612 445.548C195.491 453.701 179.359 458.326 163.76 462.796C148.186 467.255 132.125 471.858 112.906 480ZM202.242 480L205.863 480C233.366 467.817 266.467 447.009 302.18 419.399C374.075 364.139 459.971 281.617 537.846 192.998C571.156 155.296 634.012 80.5469 680.777 3.47944C720.452 -61.9078 733.282 -102.698 740.03 -130.919L739.023 -131.401C732.309 -103.297 719.527 -62.684 679.969 2.50508C633.26 79.4816 570.459 154.167 537.181 191.831C459.351 280.397 373.513 362.86 301.669 418.082C264.565 446.763 230.307 468.09 202.242 480ZM253.781 480L256.205 480C266.934 472.907 278.067 465.071 289.504 456.554C325.132 430.094 368.474 392.639 418.316 345.243C457.129 308.388 492.863 271.698 527.551 233.092C563.388 193.33 630.832 114.496 679.851 33.1887C719.813 -33.0764 732.07 -73.9789 738.274 -102.211L737.297 -102.639C731.115 -74.5409 718.914 -33.8151 679.073 32.2519C630.104 113.463 562.723 192.232 526.912 231.957C492.246 270.542 456.534 307.21 417.736 344.049C367.926 391.418 324.622 428.841 289.023 455.28C276.891 464.316 265.105 472.581 253.781 480ZM293.989 480L296.072 480C366.913 425.865 445.739 352.438 519.29 271.96C584.074 201.477 642.739 125.084 680.241 62.3734C720.324 -4.61437 731.986 -45.6132 737.668 -73.8451L736.724 -74.2251C731.067 -46.1271 719.453 -5.30489 679.488 61.4741C642.027 124.115 583.417 200.433 518.684 270.858C444.615 351.897 365.201 425.785 293.989 480ZM330.928 480L332.78 480C352.834 463.363 374.328 444.649 397.145 423.943C440.905 384.272 481.043 344.494 519.856 302.323C585.066 231.722 643.944 155.082 681.39 92.0397C722.256 23.2802 733.356 -19.453 738.145 -45.6132L737.238 -45.9451C732.463 -19.9026 721.411 22.6432 680.667 91.194C643.268 154.167 584.442 230.737 519.283 301.273C480.496 343.418 440.376 383.18 396.634 422.83C373.307 444.001 351.365 463.09 330.928 480ZM368.239 480L369.961 480C420.726 436.03 473.102 385.203 522.284 331.818C587.604 261.308 646.42 184.62 683.653 121.407C724.673 51.8172 735.222 8.83241 739.585 -17.4509L738.711 -17.74C734.366 8.42021 723.861 51.2177 682.959 120.598C645.77 183.742 587.005 260.366 521.733 330.811C472.169 384.604 419.367 435.806 368.239 480ZM404.271 480L406.041 480C443.061 446.421 480.184 409.913 516.135 371.585C555.436 329.901 629.263 246.79 682.154 158.557C716.35 101.541 735.332 54.574 741.888 10.7648L741.051 10.5187C734.524 54.1244 715.597 100.915 681.497 157.78C628.661 245.923 554.889 328.97 515.617 370.627C479.739 408.869 441.992 445.88 404.271 480ZM440.394 480L441.86 480C465.154 457.973 488.242 435.024 510.685 411.54C550.786 369.792 626.281 286.28 681.32 196.054C718.006 135.945 738.817 84.6099 744.937 39.1199L744.136 38.9057C738.042 84.1923 717.294 135.351 680.703 195.3C625.711 285.445 550.272 368.893 510.2 410.614C487.442 434.43 464.019 457.689 440.394 480ZM476.265 480L477.613 480C490.2 467.587 502.674 454.932 514.989 442.085C555.139 400.374 630.677 316.888 685.526 226.358C722.414 165.505 743.045 113.612 748.591 67.7103L747.827 67.523C742.303 113.227 721.731 164.948 684.935 225.651C630.137 316.101 554.654 399.523 514.534 441.207C501.928 454.359 489.153 467.303 476.265 480ZM511.713 480L512.951 480C515.195 477.688 517.432 475.365 519.665 473.041C559.847 431.373 635.419 347.898 690.106 257.036C727.196 195.444 747.68 142.958 752.716 96.5845L751.993 96.4239C746.975 142.599 726.55 194.92 689.544 256.361C634.909 347.143 559.388 430.565 519.231 472.212C516.734 474.813 514.225 477.409 511.713 480ZM546.412 480L547.55 480C591.498 432.364 650.298 362.705 694.911 288.11C732.221 225.78 752.58 172.699 757.168 125.817L756.485 125.678C751.919 172.367 731.604 225.298 694.385 287.479C649.568 362.416 590.407 432.374 546.412 480ZM580.185 480L581.103 480C591.285 468.325 601.172 456.613 610.659 444.991C646.225 401.439 676.215 359.236 699.796 319.581C736.808 257.389 757.667 202.157 761.792 155.42L761.142 155.302C757.032 201.868 736.224 256.94 699.296 318.997C680.09 351.303 642.277 408.869 580.185 480ZM612.357 480L613.212 480C613.837 479.24 614.461 478.475 615.082 477.714C650.71 434.071 680.74 391.74 704.346 351.881C741.745 288.812 762.633 232.808 766.431 185.423L765.821 185.322C762.038 232.541 741.198 288.394 703.876 351.335C687.689 378.662 658.313 423.917 612.357 480ZM642.783 480L643.617 480C668.924 446.961 690.83 414.811 708.945 384.09C746.564 320.368 767.419 263.754 770.93 215.818L770.365 215.737C766.864 263.508 746.05 319.977 708.501 383.582C695.586 405.481 674.257 438.846 642.783 480ZM671.297 480L672.042 480C682.834 464.744 693.306 449.06 703.219 433.065C726.917 394.86 745.091 358.524 757.234 325.057C767.529 296.697 773.549 270.295 775.129 246.598L774.607 246.528C773.028 270.135 767.03 296.45 756.767 324.72C744.639 358.128 726.491 394.416 702.822 432.578C692.802 448.744 682.213 464.589 671.297 480ZM697.346 480L698.003 480C701.019 475.327 703.99 470.627 706.914 465.895C730.638 427.546 748.83 390.995 760.991 357.266C771.371 328.472 777.388 301.707 778.879 277.715L778.39 277.651C774.313 343.466 737.069 416.101 706.547 465.445C703.531 470.327 700.461 475.182 697.346 480ZM720.673 480L721.246 480C749.245 431.507 778.618 367.71 782.026 309.116L781.582 309.073C778.177 367.662 748.698 431.534 720.673 480ZM740.867 480L741.359 480C763.023 437.053 781.861 387.28 784.421 340.731L784.021 340.682C781.457 387.238 762.563 437.048 740.867 480ZM757.63 480L758.053 480C772.837 445.222 784.08 407.932 785.938 372.479L785.578 372.442C783.716 407.895 772.444 445.211 757.63 480ZM770.56 480L770.894 480C781.545 448.128 785.505 422.932 786.445 404.244L786.126 404.212C784.873 429.072 779.022 454.825 770.56 480ZM779.121 480L779.415 480C783.437 462.608 785.255 447.93 785.835 435.918L785.556 435.891C784.976 447.904 783.154 462.592 779.121 480ZM782.794 480L783.033 480C783.51 475.504 783.823 471.296 784.006 467.367L783.771 467.351C783.587 471.28 783.275 475.498 782.794 480ZM-311 335.544C-310.545 333.863 -310.096 332.182 -309.656 330.501C-303.937 308.602 -300.694 290.45 -299.459 273.384C-299.221 270.108 -298.945 266.693 -298.67 263.379L-298.659 263.251C-297.561 249.858 -296.425 236.004 -297.314 222.771C-298.247 209.094 -303.353 197.077 -311 188.501L-311 191.205C-304.172 199.347 -299.639 210.422 -298.787 222.969C-297.906 236.025 -299.037 249.81 -300.139 263.139L-300.189 263.754C-300.446 266.875 -300.708 270.076 -300.932 273.17C-302.152 290.011 -305.351 307.949 -311 329.607L-311 335.544ZM-311 264.413C-310.456 256.678 -310.192 248.926 -310.662 241.357C-310.739 240.088 -310.853 238.836 -311 237.599L-311 264.413ZM854.832 -516.208C856.467 -519.886 857.999 -523.413 859.453 -526.807C857.929 -523.263 856.39 -519.725 854.832 -516.208ZM854.832 -516.208C854.608 -515.7 854.384 -515.191 854.153 -514.677L853.675 -513.607L853.686 -513.617C854.068 -514.479 854.451 -515.341 854.832 -516.208Z" fill="white"/>
</g>
</g>
<defs>
<clipPath id="clip0_619_13519">
<rect width="375" height="480" fill="white"/>
</clipPath>
</defs>
</svg>
