<svg preserveAspectRatio="none" viewBox="0 0 1280 1046" fill="none" xmlns="http://www.w3.org/2000/svg">
<g clip-path="url(#clip0_495_14455)">
<g opacity="0.15">
<path fill-rule="evenodd" clip-rule="evenodd" d="M-391 442.444L-391 446.816C-373.358 436.351 -354.804 427.384 -334.162 423.961C-315.559 420.928 -295.641 424.467 -279.514 433.673C-266.808 440.936 -250.304 455.171 -243.896 481.76C-239.589 500.004 -238.711 520.038 -237.862 539.399L-237.853 539.586L-237.834 540.02L-237.834 540.029C-237.585 545.767 -237.327 551.692 -236.977 557.359C-235.231 585.376 -237.598 615.167 -244.225 648.435C-247.591 665.321 -251.976 682.287 -256.217 698.695L-256.238 698.775L-256.325 699.112C-258.123 706.074 -259.978 713.258 -261.727 720.326L-262.359 722.889C-266.899 741.151 -271.579 760.033 -269.455 777.575C-268.378 787.092 -264.502 795.047 -257.935 801.229C-247.602 810.932 -232.352 814.763 -216.956 814.763C-205.868 814.763 -194.713 812.768 -185.275 809.557C-157.177 800.174 -130.318 779.518 -104.332 759.536L-104.217 759.447C-93.8957 751.51 -83.2218 743.306 -72.6027 735.891C-49.3842 719.635 -25.7489 707.67 -0.729752 694.997L-0.520402 694.89C4.06804 692.575 8.72951 690.207 13.4762 687.777C20.1398 684.363 26.852 680.886 33.619 677.374C56.1535 665.694 79.4608 653.614 103.115 642.838C165.035 615.451 249.367 584.773 300.357 580.8C329.384 578.937 344.768 589.855 359.652 600.418C366.608 605.358 373.169 610.014 380.928 613.269C390.178 616.967 400.158 619.389 420.563 608.364C428.839 603.877 438.832 597.03 451.136 587.398C472.131 570.955 494.514 551.39 516.184 532.455L516.184 532.446L516.19 532.446L516.196 532.437L516.616 532.074C522.336 527.063 528.069 522.061 533.783 517.094C599.737 460.244 673.736 386.844 745.301 315.848C770.641 290.714 794.569 266.98 817.578 244.533C852.862 210.423 893.008 171.843 923.033 145.688C944.278 127.17 961.785 113.787 978.691 100.847L978.697 100.847L978.971 100.634L980.675 99.3303L980.693 99.3127L980.699 99.3127C989.608 92.4924 998.116 85.9737 1007.2 78.6656C1048.84 45.0257 1088.02 6.56084 1134.25 -46.0587C1169.88 -86.5632 1219.54 -148.85 1281.86 -231.189C1328.57 -292.829 1371.48 -351.728 1413.01 -411.238C1484.27 -513.196 1544.52 -607.136 1592.07 -690.46C1613.17 -727.443 1630.46 -759.877 1645.07 -788.834C1647.87 -795.175 1650.96 -801.224 1654.05 -807.271C1657.46 -813.948 1660.87 -820.623 1663.89 -827.689L1664.12 -827.698C1680.15 -861.405 1692.48 -889.965 1703.54 -915.569L1703.74 -916.024L1702.6 -917L1702.6 -916.991C1697.43 -906.118 1691.9 -894.739 1685.94 -882.792L1685.98 -882.895L1685.93 -882.792C1687 -885.207 1688.05 -887.594 1689.08 -889.955L1690.46 -893.117L1692.26 -897.228C1693.38 -899.805 1694.54 -902.458 1695.68 -905.106L1697.13 -908.458L1698.35 -911.279C1694.23 -901.756 1690.09 -892.257 1685.91 -882.783C1664.54 -834.359 1636.48 -774.724 1589.84 -692.988C1542.34 -609.761 1482.16 -515.919 1410.97 -414.067C1368.14 -352.774 1324.44 -292.776 1279.89 -234.125C1217.63 -151.848 1168.02 -89.632 1132.45 -49.1984C1086.34 3.27922 1047.27 41.6377 1005.77 75.1713C996.138 82.9139 987.131 89.8051 977.596 97.0954L977.516 97.1574L977.51 97.1574C960.501 110.168 942.909 123.622 921.518 142.265C891.45 168.464 851.255 207.079 815.947 241.216C791.788 264.861 767.69 288.638 743.652 312.549L743.488 312.718C672.008 383.616 598.112 456.918 532.286 513.653C526.566 518.619 520.833 523.621 515.113 528.641L514.857 528.863C493.163 547.825 470.738 567.425 449.755 583.868C437.572 593.394 427.689 600.187 419.547 604.586C399.958 615.176 390.47 612.905 381.732 609.384C374.234 606.245 367.778 601.668 360.938 596.808C345.737 586.024 330.01 574.866 300.217 576.764C248.947 580.764 164.347 611.531 102.257 638.989C78.5358 649.8 55.1981 661.889 32.6393 673.587C21.2851 679.502 9.91127 685.329 -1.48192 691.085L-1.4959 691.094C-26.6666 703.83 -50.4376 715.865 -73.8745 732.273C-84.1273 739.43 -94.3917 747.306 -104.365 754.96L-104.369 754.96L-105.592 755.9C-131.443 775.784 -158.171 796.342 -185.95 805.628C-207.895 813.131 -239.29 813.894 -256.353 797.868C-262.226 792.342 -265.688 785.309 -266.638 776.91C-268.634 760.379 -264.07 741.984 -259.658 724.202L-259.019 721.648C-257.248 714.482 -255.367 707.191 -253.542 700.141L-253.521 700.061C-249.262 683.582 -244.858 666.545 -241.462 649.508C-234.738 615.761 -232.334 585.5 -234.123 556.995C-234.466 551.39 -234.717 545.767 -234.982 539.834L-235.005 539.32C-235.857 519.631 -236.746 499.285 -241.188 480.465C-246.543 458.275 -259.42 440.803 -278.449 429.93C-295.002 420.476 -315.431 416.839 -334.497 419.961C-355.065 423.367 -373.504 432.138 -391 442.444ZM-391 460.412L-391 464.563C-379.036 458.905 -366.518 454.594 -353.118 452.812C-319.325 448.377 -278.005 467.703 -267.922 512.163C-263.51 531.994 -263.165 553.767 -262.831 574.849L-262.828 575.017L-262.825 575.221C-262.735 581.119 -262.65 586.689 -262.475 592.259C-261.593 620.063 -264.696 649.995 -271.975 683.751C-275.486 700.07 -279.867 716.451 -284.109 732.299L-284.216 732.698L-284.218 732.707C-286.277 740.406 -288.404 748.352 -290.395 756.175L-290.797 757.762C-295.592 776.565 -300.54 795.987 -298.598 814.204C-297.637 823.818 -293.882 831.942 -287.438 838.328C-276.837 848.838 -260.589 852.962 -244.626 852.962C-235.413 852.962 -226.285 851.587 -218.41 849.254C-189.115 840.802 -161.085 819.127 -133.968 798.151L-133.769 798.001L-133.767 797.992L-133.763 797.992C-123.044 789.699 -111.959 781.132 -100.949 773.522C-79.4938 758.605 -57.7608 747.767 -34.7578 736.29L-34.5929 736.211C-30.1383 733.993 -25.6169 731.732 -21.0041 729.408C-15.6093 726.676 -10.1738 723.901 -4.70479 721.116L-2.10261 719.785C20.3101 708.327 43.4896 696.478 67.089 686.003C124.219 661.41 209.836 631.486 263.102 628.133C293.534 626.59 308.681 638.9 323.319 650.802L323.33 650.811L323.364 650.838C329.868 656.124 336.013 661.117 343.332 664.815C352.138 669.073 361.729 672.035 381.951 661.64C390.288 657.339 400.59 650.554 412.591 641.463C430.799 627.672 449.931 611.681 468.456 596.205L469.064 595.7C475.028 590.706 481.01 585.713 486.992 580.755C553.22 526.335 627.688 455.339 699.715 386.667L701.206 385.248C727.124 360.539 751.649 337.169 775.096 315.254C855.728 239.868 902.44 204.552 951.891 167.169L956.339 163.799C1000.01 130.203 1041.26 90.9315 1090.12 36.4849C1136.71 -15.3631 1197.79 -92.665 1240.84 -148.38C1288.2 -209.576 1331.66 -268.093 1373.72 -327.285C1445.89 -428.728 1506.82 -522.357 1554.8 -605.539C1575.49 -641.432 1592.42 -672.864 1606.66 -700.872C1613.71 -716.717 1619.92 -731.262 1625.73 -744.897L1625.76 -744.965L1625.77 -744.993L1625.79 -745.033L1625.79 -745.044L1625.79 -745.047L1625.8 -745.065L1625.81 -745.079L1625.82 -745.101L1626.1 -745.776L1626.11 -745.785L1627.96 -744.206C1642.99 -775.93 1654.55 -802.83 1664.94 -826.998L1664.13 -827.684C1657.91 -814.604 1651.56 -801.653 1645.09 -788.834L1645.09 -788.861L1645.07 -788.826C1624.61 -742.663 1597.48 -685.804 1552.63 -608.032C1504.71 -524.947 1443.85 -431.424 1371.74 -330.069C1329.71 -270.913 1286.28 -212.432 1238.95 -151.271C1195.94 -95.6007 1134.9 -18.3696 1088.39 33.4074C1039.66 87.7121 998.517 126.868 955.006 160.349L950.564 163.701L950.467 163.772C901.004 201.172 854.243 236.533 773.544 311.973C750.663 333.365 726.765 356.149 701.529 380.193L701.516 380.201L698.145 383.421L697.689 383.856L697.683 383.864C625.832 452.342 551.577 523.125 485.568 577.368C479.586 582.334 473.598 587.336 467.634 592.321C448.946 607.948 429.612 624.107 411.252 638.013C399.367 647.015 389.18 653.729 380.977 657.96C361.607 667.911 352.54 665.126 344.239 661.117C337.162 657.543 331.113 652.63 324.717 647.423L324.659 647.379C309.683 635.22 294.195 622.652 262.974 624.222C209.44 627.592 123.556 657.596 66.2493 682.27C42.6018 692.762 19.4156 704.619 -3.01054 716.087L-3.0641 716.114L-5.45692 717.337C-10.9904 720.158 -16.4905 722.969 -21.9534 725.736C-26.5601 728.06 -31.0816 730.313 -35.5361 732.53L-35.6091 732.566C-58.7254 744.095 -80.5728 754.986 -102.196 770.028C-113.32 777.735 -124.506 786.373 -135.319 794.737C-162.254 815.57 -190.101 837.104 -218.988 845.441C-239.941 851.622 -269.802 851.028 -285.855 835.144C-291.637 829.414 -295.008 822.195 -295.854 813.672C-297.696 796.449 -292.876 777.505 -288.212 759.181L-288.198 759.128L-287.797 757.549C-285.975 750.392 -284.035 743.12 -282.145 736.042L-282.145 736.033L-281.529 733.727C-277.269 717.825 -272.869 701.364 -269.327 684.939C-261.964 650.74 -258.818 620.382 -259.712 592.116C-259.893 586.591 -259.978 581.03 -260.069 575.159L-260.071 574.973C-260.4 553.572 -260.741 531.444 -265.287 511.01C-275.821 464.59 -318.534 444.369 -353.38 448.892C-366.707 450.657 -379.133 454.869 -391 460.412ZM-391 480.997L-391 484.926C-385.627 483.277 -380.131 481.982 -374.472 481.184C-356.538 478.647 -337.448 483.25 -322.1 493.786C-310.222 501.946 -295.02 517.387 -290.073 544.641C-286.391 565.341 -286.574 587.868 -286.75 609.668L-286.755 610.307C-286.796 615.646 -286.835 620.692 -286.817 625.765C-286.695 653.658 -290.432 683.742 -298.245 717.737C-301.729 732.876 -305.922 748.104 -309.98 762.844L-310.1 763.279C-312.635 772.387 -315.104 781.54 -317.506 790.728L-317.755 791.686L-317.761 791.704C-322.506 810.027 -327.887 830.798 -325.953 849.432C-324.979 859.667 -321.005 868.261 -314.177 874.975C-303.412 885.546 -287.279 889.715 -271.396 889.715C-261.727 889.715 -252.154 888.163 -243.951 885.591C-216.226 877.05 -189.845 856.465 -164.329 836.545L-164.12 836.386C-154.631 828.98 -144.814 821.326 -135.088 814.426C-111.544 797.664 -88.4432 786.09 -61.6793 772.698L-53.6343 768.662C-48.5724 766.117 -43.4831 763.527 -38.3604 760.928L-38.3336 760.92L-38.3141 760.911L-37.6904 760.592C-13.4337 748.281 11.6566 735.554 37.3433 724.601C96.2323 700.247 177.997 674.58 227.897 672.124C259.937 670.935 275.023 684.895 289.604 698.393C295.044 703.431 300.187 708.185 306.108 712.087C314.688 717.533 323.354 721.346 342.474 712.814C351.572 708.726 362.587 701.923 376.145 692.017C395.959 677.542 416.735 660.816 436.817 644.639L438.296 643.45L438.326 643.423L438.339 643.415C442.982 639.681 447.631 635.938 452.287 632.222C515.228 582.237 585.753 517.546 653.965 454.976L654.184 454.772C680.802 430.356 705.941 407.296 729.905 385.78C805.992 317.4 850.86 284.825 898.351 250.342L898.424 250.289L912.055 240.382C952.633 210.272 993.126 173.102 1039.48 123.383C1090.97 68.2358 1156.45 -12.6671 1202.3 -70.8298C1250.2 -131.485 1294.21 -189.656 1336.85 -248.652C1387.08 -318.043 1459.6 -422.502 1519.88 -526.083C1540.23 -561.044 1556.82 -591.606 1570.73 -618.763C1567.81 -612.244 1564.71 -605.46 1560.99 -597.442L1560.95 -597.362C1556.78 -587.207 1552.54 -577.123 1548.22 -567.093C1552.89 -577.984 1557.07 -588.023 1560.94 -597.371C1543.23 -559.394 1519.66 -513.072 1485.58 -454.936C1424.93 -351.541 1351.65 -247.491 1300.86 -178.428C1257.8 -119.769 1213.27 -61.9431 1164.73 -1.66072C1118.43 55.9432 1052.06 136.34 998.779 192.215C951.215 242.174 910.053 279.042 869.244 308.239C863.292 312.416 857.45 316.487 851.657 320.513L851.645 320.522L851.633 320.531L846.32 324.23C801.841 355.138 759.833 384.334 690.739 443.783C665.734 465.273 639.305 488.616 611.361 513.289L609.255 515.152C544.846 572.055 478.247 630.892 418.567 676.726L404.729 687.476C381.896 705.249 358.284 723.626 336.346 738.685C323.482 747.519 313.1 753.407 304.58 756.662C286.735 763.474 279.626 758.002 272.757 752.716L272.54 752.538C267.664 748.671 263.315 744.104 258.713 739.27L258.684 739.244L258.677 739.235C245.352 725.257 230.254 709.426 198.535 709.205C146.036 709.666 60.9184 735.448 -0.155287 760.778C-24.2817 771.128 -47.718 783.021 -70.3967 794.524L-70.401 794.524L-70.558 794.604L-80.5503 799.677C-83.38 801.105 -86.1751 802.506 -88.9433 803.89C-90.1866 804.511 -91.4268 805.131 -92.6604 805.752L-92.6835 805.761C-116.609 817.734 -139.209 829.042 -161.195 844.749C-171.522 852.11 -181.885 860.296 -191.896 868.225C-217.297 888.322 -243.561 909.102 -271.104 917.448C-296.365 925.261 -323.926 920.845 -338.123 906.699C-344.471 900.375 -348.104 892.375 -348.956 882.868C-350.769 863.977 -345 842.408 -339.906 823.384L-339.401 821.503C-337.101 812.883 -334.636 804.103 -332.245 795.624C-328.198 781.221 -324.017 766.321 -320.421 751.474C-311.865 716.069 -307.599 686.376 -307.002 658.04C-306.858 651.131 -306.945 644.151 -307.03 637.419L-307.033 637.171L-307.035 637.02C-307.138 628.843 -307.244 620.391 -306.942 611.983C-306.57 601.695 -306.388 588.205 -308.262 574.991C-315.589 524.384 -356.276 500.855 -391 504.296L-391 508.048C-345.98 503.418 -316.112 539.444 -310.861 575.718C-309.047 588.516 -309.23 601.713 -309.583 611.788C-309.899 620.373 -309.79 628.94 -309.68 637.224L-309.671 637.969C-309.588 644.514 -309.503 651.264 -309.644 657.915C-310.24 685.87 -314.457 715.209 -322.928 750.25C-326.5 765.017 -330.669 779.873 -334.703 794.232C-337.095 802.728 -339.56 811.517 -341.872 820.173L-342.371 822.053C-347.58 841.494 -353.471 863.533 -351.572 883.356C-350.629 893.927 -346.613 902.805 -339.633 909.759C-328.703 920.641 -312.364 924.924 -296.45 924.924C-287.286 924.924 -278.273 923.506 -270.52 921.111C-242.588 912.641 -216.146 891.728 -190.575 871.489L-190.378 871.329C-180.448 863.48 -170.182 855.365 -159.966 848.093C-138.144 832.501 -115.637 821.228 -91.8114 809.309L-91.7475 809.273L-89.4399 808.12C-86.2122 806.506 -82.9407 804.874 -79.6253 803.198L-69.6269 798.125L-69.1571 797.885C-46.6165 786.453 -23.308 774.64 0.623675 764.361C84.67 729.506 162.15 713.275 198.565 712.938C229.393 713.151 243.488 727.936 257.108 742.215L257.126 742.233C261.812 747.155 266.236 751.793 271.274 755.802L271.512 755.979C278.492 761.363 286.421 767.474 305.304 760.272C313.982 756.946 324.522 750.978 337.527 742.046C359.519 726.952 383.132 708.575 405.976 690.793L406.037 690.748C410.65 687.156 415.263 683.564 419.863 680.008C479.543 634.164 546.106 575.372 610.49 518.495L610.685 518.318L610.947 518.087C639.56 492.811 666.598 468.918 692.133 446.976C761.13 387.616 803.083 358.455 847.501 327.582L851.9 324.522C858.01 320.274 864.163 315.99 870.443 311.582C911.398 282.279 952.688 245.305 1000.38 195.222C1053.73 139.276 1120.17 58.7991 1166.49 1.1508C1215.07 -59.1759 1259.62 -117.037 1302.71 -175.732C1353.54 -244.874 1426.9 -349.014 1487.62 -452.559C1508.08 -487.432 1524.75 -518.083 1538.65 -545.222C1537.15 -541.878 1535.61 -538.446 1534 -534.942L1533.71 -535.182L1530.64 -527.626L1530.58 -527.484C1513.42 -490.571 1490.4 -445.384 1456.73 -388.285C1395.97 -285.255 1322.26 -181.842 1271.14 -113.259C1222.55 -47.9388 1172.64 15.563 1118.56 80.8829C1049.97 163.896 994.927 226.334 954.97 266.422C908.86 312.806 868.502 347.794 831.606 373.381C818.972 382.073 807.617 389.186 795.592 396.716C781.863 405.301 767.672 414.187 751.472 425.628C723.607 445.318 687.532 474.328 652.693 502.762C627.25 523.763 600.2 546.77 571.598 571.088L571.586 571.097L569.328 573.022L568.835 573.439C502.601 629.774 434.152 687.981 373.51 732.193C368.824 735.661 363.937 739.332 358.928 743.102L356.635 744.831C327.912 766.463 295.373 790.968 274.262 798.852C255.598 805.903 248.278 799.677 242.417 794.684C237.626 790.471 233.412 785.531 228.957 780.307L228.81 780.139C215.556 764.573 200.519 746.924 166.245 746.889C120.556 747.412 41.1102 767.066 -26.9496 794.701C-52.7763 805.53 -77.6719 818.248 -101.752 830.559L-110.162 834.851L-118.183 838.931C-143.803 851.915 -165.923 863.143 -188.239 879.48C-197.994 886.593 -207.803 894.504 -217.291 902.158L-217.318 902.185C-242.455 922.441 -268.442 943.381 -295.793 951.487C-320.482 958.928 -347.519 954.254 -361.559 940.126C-368.07 933.572 -371.788 925.27 -372.634 915.417C-374.426 896.012 -368.515 873.963 -363.294 854.496L-363.269 854.399L-363.007 853.423C-360.341 843.49 -357.469 833.406 -354.682 823.65C-350.483 808.954 -346.144 793.761 -342.402 778.596C-334.125 745.062 -329.683 716.832 -328.405 689.755C-328.009 681.312 -327.888 672.798 -327.778 664.567L-327.76 663.308C-327.645 655.273 -327.526 646.989 -327.127 638.758C-326.476 625.455 -326.634 615.282 -327.626 605.766C-330.158 582.059 -340.363 561.35 -356.392 547.452C-366.463 538.708 -378.513 533.058 -391 530.93L-391 534.628C-362.076 539.834 -334.6 564.809 -330.176 606.316C-329.208 615.566 -329.056 625.508 -329.695 638.546C-330.121 647.29 -330.243 656.053 -330.358 664.532C-330.427 672.877 -330.634 681.214 -330.979 689.542C-332.233 716.282 -336.639 744.202 -344.842 777.416C-348.555 792.458 -352.866 807.562 -357.035 822.178L-357.074 822.311C-359.867 832.084 -362.751 842.186 -365.423 852.154L-365.684 853.13L-365.717 853.254C-371.046 873.112 -377.079 895.604 -375.19 915.896C-374.259 926.778 -370.176 935.94 -363.056 943.106C-351.992 954.245 -335.854 958.671 -320.031 958.671C-311.378 958.671 -302.822 957.341 -295.257 955.061C-267.496 946.849 -241.316 925.749 -216 905.333L-215.775 905.156L-215.774 905.147C-206.382 897.581 -196.675 889.759 -187.046 882.744C-164.914 866.54 -142.897 855.365 -117.415 842.425L-117.306 842.372C-115.603 841.512 -113.888 840.643 -112.159 839.765C-111.202 839.277 -110.241 838.789 -109.274 838.301L-100.864 834.009C-76.826 821.716 -51.9608 809.016 -26.2193 798.222C41.6336 770.684 120.787 751.075 166.258 750.57C199.576 750.614 213.592 767.057 227.146 782.95L227.161 782.968C231.737 788.342 236.052 793.407 241.066 797.823C248.801 804.404 256.688 809.291 274.926 802.409C296.313 794.418 328.979 769.815 357.809 748.104L357.846 748.077L359.599 746.756C364.796 742.845 369.86 739.04 374.697 735.457C435.564 691.085 504.244 632.666 570.661 576.17C600.09 551.124 627.888 527.48 653.989 505.928C688.786 477.538 724.824 448.546 752.634 428.919C768.609 417.62 782.648 408.822 796.212 400.334L796.632 400.068C808.681 392.529 820.061 385.408 832.737 376.663C869.767 350.987 910.236 315.91 956.461 269.41C996.491 229.234 1051.59 166.743 1120.24 83.6589C1174.35 18.2946 1224.29 -45.2428 1272.92 -110.598C1324.1 -179.27 1397.88 -282.771 1458.72 -385.953C1479.24 -420.755 1495.82 -451.149 1509.53 -477.959C1507.66 -473.809 1505.78 -469.667 1503.89 -465.543L1505.13 -468.23L1507.13 -466.643C1506.67 -465.454 1506.19 -464.257 1505.7 -463.042L1505.44 -462.395C1516.48 -486.27 1524.92 -506.518 1532.17 -524.264C1524.87 -508.611 1517.33 -493.187 1509.56 -478.013L1509.6 -478.11C1517.35 -493.25 1524.88 -508.637 1532.16 -524.264C1544.82 -551.43 1554.3 -574.126 1562.45 -593.779L1562.48 -593.824C1575.83 -622.391 1585.89 -646.266 1594.56 -666.86L1594.41 -666.984C1608.16 -696.201 1618.75 -721.069 1628.33 -743.529L1628.34 -743.554L1628.34 -743.571L1628.35 -743.591L1628.36 -743.62L1628.37 -743.634L1628.44 -743.789L1627.96 -744.188C1621.03 -729.575 1613.93 -715.131 1606.67 -700.863C1587.07 -656.829 1560.86 -602.568 1517.78 -528.53C1457.57 -425.083 1385.12 -320.73 1334.95 -251.402C1292.34 -192.423 1248.35 -134.305 1200.48 -73.6856C1154.66 -15.5673 1089.25 65.2646 1037.84 120.323C991.598 169.909 951.233 206.973 910.795 236.976L897.176 246.874C849.606 281.41 804.677 314.03 728.439 382.534C704.626 403.926 679.657 426.826 653.24 451.056L653.198 451.1L653.18 451.109L652.699 451.552C584.451 514.158 513.877 578.893 450.948 628.878C446.505 632.435 442.075 636 437.651 639.557L435.472 641.313L434.365 642.2L434.365 642.209C414.642 658.066 394.299 674.438 374.898 688.602C361.479 698.411 350.598 705.134 341.647 709.151C321.972 717.932 313.8 712.752 307.252 708.601C301.543 704.841 296.505 700.176 291.169 695.245L291.101 695.183C276.867 682.003 260.735 667.086 227.818 668.292C177.668 670.758 95.6299 696.495 36.5705 720.929C10.7986 731.918 -14.3222 744.663 -38.6093 756.991C-43.9523 759.705 -49.271 762.401 -54.5531 765.061L-62.586 769.079L-62.5994 769.088C-89.4357 782.533 -112.613 794.134 -136.305 811.003C-146.078 817.938 -155.922 825.619 -165.439 833.051L-165.637 833.202L-165.693 833.246C-191.027 853.006 -217.213 873.44 -244.529 881.848C-270.356 889.963 -298.349 885.848 -312.619 871.826C-318.796 865.768 -322.374 858.061 -323.257 848.917C-325.082 831.206 -320.056 811.792 -315.187 793.016L-314.944 792.058C-312.583 782.932 -310.027 773.655 -307.55 764.68L-307.39 764.095C-303.332 749.354 -299.142 734.126 -295.647 718.916C-287.736 684.54 -283.963 654.066 -284.085 625.756C-284.096 620.746 -284.058 615.726 -284.017 610.431L-284.017 610.422L-284.012 609.73C-283.835 587.691 -283.653 564.907 -287.419 543.71C-292.629 515.028 -308.499 498.868 -320.889 490.354C-336.675 479.525 -356.307 474.78 -374.746 477.361C-380.308 478.15 -385.718 479.401 -391 480.997ZM-391 572.348L-391 576.17C-385.401 578.964 -380.089 582.556 -375.3 586.955C-360.792 600.258 -351.584 619.708 -349.363 641.676C-347.283 662.581 -348.754 684.797 -350.178 706.296L-350.179 706.304C-350.568 712.158 -350.97 718.215 -351.274 724.025C-352.826 753.124 -358.132 784.245 -367.973 821.956C-370.894 833.06 -374.569 844.616 -378.464 856.837C-382.925 870.85 -387.434 885.05 -391 899.116L-391 910.388C-387.27 893.2 -381.677 875.586 -376.17 858.283L-375.982 857.689C-372.144 845.627 -368.515 834.222 -365.618 823.189C-355.686 785.141 -350.331 753.718 -348.761 724.291C-348.457 718.499 -348.079 712.735 -347.665 706.624C-346.229 684.93 -344.744 662.483 -346.874 641.171C-349.193 618.165 -358.802 597.855 -373.93 583.966C-379.194 579.15 -384.945 575.283 -391 572.348ZM-391 963.061L-391 968.826C-389.268 971.602 -387.322 974.076 -385.201 976.205C-374.101 987.442 -357.968 991.912 -342.268 991.912C-333.918 991.912 -325.679 990.652 -318.388 988.453C-290.524 980.231 -264.314 958.555 -238.968 937.598L-238.949 937.581C-229.023 929.368 -218.757 920.88 -208.564 913.342C-188.257 898.282 -166.909 887.285 -144.302 875.649L-136.33 871.533L-128.455 867.453C-104.722 855.126 -80.179 842.39 -54.6383 831.667C14.4012 803.641 94.8874 784.839 141.07 785.903C173.501 787.18 186.79 804.573 199.634 821.388L199.661 821.424L199.808 821.619C203.49 826.435 206.979 830.993 210.901 835.144C216.791 841.201 224.121 848.74 242.776 842.931C251.089 840.323 261.666 834.966 274.202 827.002C292.408 815.446 311.855 801.406 330.666 787.828L330.821 787.713C336.34 783.722 341.866 779.731 347.361 775.802C405.191 734.863 469.946 681.658 532.572 630.2C564.107 604.285 593.883 579.815 621.645 557.847C653.606 532.854 690.009 504.81 717.625 486.416C732.09 476.767 745.046 469.06 757.563 461.61L758.166 461.255L758.458 461.078C771.274 453.468 783.402 446.258 797.101 437.105C834.465 412.014 875.749 376.991 923.325 330.047C964.013 289.986 1021.81 225.615 1090.46 143.888C1145.32 78.7098 1195.85 15.3589 1244.96 -49.828C1296.74 -118.412 1371.32 -221.886 1432.59 -325.298C1454.88 -362.956 1472.38 -395.239 1486.52 -423.282C1492.47 -437.224 1498.26 -451.326 1503.88 -465.561C1487.16 -429.287 1464.43 -384.623 1430.66 -327.577C1369.48 -224.289 1294.97 -120.931 1243.24 -52.4089C1194.16 12.7248 1143.66 76.0403 1088.84 141.174C1020.24 222.831 962.51 287.14 921.871 327.13C874.404 373.976 833.236 408.902 796.011 433.903C782.514 442.923 770.507 450.062 757.862 457.583L757.856 457.583L757.856 457.592L757.18 457.991C744.443 465.547 731.28 473.37 716.541 483.206C688.859 501.653 652.419 529.715 620.409 554.743C592.623 576.738 562.829 601.216 531.288 627.131L530.856 627.486C468.401 678.793 403.848 731.838 346.217 772.627C341.71 775.855 337.199 779.11 332.687 782.365L329.664 784.546L329.352 784.768C310.615 798.302 291.256 812.271 273.161 823.756C260.771 831.623 250.359 836.9 242.223 839.454C224.672 844.926 218.136 838.195 212.385 832.27C208.548 828.208 205.084 823.676 201.418 818.887L201.415 818.878L201.359 818.807L201.35 818.798C188.774 802.329 174.515 783.66 141.113 782.338C94.7049 781.221 13.9083 800.12 -55.3565 828.253C-80.9708 839.002 -105.528 851.747 -129.271 864.075L-129.337 864.11L-137.218 868.19L-145.184 872.314C-167.871 883.985 -189.304 895.018 -209.751 910.193C-219.779 917.607 -229.847 925.927 -239.598 933.98L-240.239 934.512C-265.414 955.345 -291.448 976.87 -318.924 984.976C-343.126 992.249 -369.786 987.451 -383.752 973.313C-386.758 970.263 -389.174 966.839 -391 963.061ZM-391 1021.21L-391 1024.74C-383.314 1027.62 -374.971 1028.9 -366.756 1028.9C-358.674 1028.9 -350.72 1027.67 -343.692 1025.56C-316.295 1017.46 -290.772 995.796 -266.102 974.83C-257.363 967.416 -248.32 959.744 -239.381 952.826C-216.816 935.328 -193.977 923.266 -167.53 909.306L-161.213 905.963L-160.914 905.803C-135.436 892.331 -109.098 878.398 -81.4266 867.046C-15.6793 840.926 62.6771 823.685 109.121 825.104C143.103 826.621 156.132 845.325 168.722 863.409C171.893 867.959 174.887 872.252 178.222 876.296L178.666 876.828L178.678 876.846C184.437 883.648 190.97 891.373 208.089 887.222C216.81 885.094 228.384 879.613 242.484 870.93C261.91 858.966 282.606 844.536 302.633 830.576L302.949 830.355L305.57 828.528C309.547 825.761 313.522 822.985 317.494 820.244C372.19 782.719 433.014 734.57 491.842 687.99C525.586 661.268 557.468 636.036 586.958 613.757C618.328 590.36 650.904 566.459 676.651 550.113C691.165 540.872 704.2 533.546 716.773 526.477L716.779 526.477L716.785 526.477L717.649 525.99C730.921 518.557 744.638 510.868 759.669 501.165C797.016 476.926 840.411 440.998 888.663 394.365C926.538 357.825 978.624 301.339 1043.47 226.449C1097.9 163.799 1151.07 98.8514 1202.91 31.7045C1259.35 -41.2694 1340.29 -151.218 1405.34 -260.581C1431.36 -304.349 1450.65 -340.588 1465.59 -371.23C1470.72 -381.775 1475.35 -391.629 1479.55 -400.924C1490.37 -424.799 1498.45 -444.843 1505.41 -462.341C1499.3 -449.126 1493 -436.098 1486.53 -423.264L1486.52 -423.247C1469.6 -383.869 1445.24 -333.058 1403.46 -262.798C1338.51 -153.586 1257.65 -43.7351 1201.25 29.1678C1149.45 96.2792 1096.32 161.174 1041.92 223.78C977.127 298.607 925.096 355.04 887.287 391.51C839.145 438.045 795.871 473.884 758.653 498.026C743.683 507.693 730.599 515.027 716.748 522.788L716.456 522.947C703.665 530.131 690.447 537.546 675.641 546.956C649.839 563.337 617.221 587.274 585.808 610.706C556.281 633.002 524.393 658.243 490.631 684.975C431.845 731.519 371.052 779.651 316.41 817.122L301.866 827.242L301.067 827.801C281.21 841.636 260.714 855.924 241.504 867.746C227.581 876.323 216.189 881.724 207.669 883.808C191.658 887.684 185.847 880.81 180.236 874.167L179.798 873.653C176.583 869.751 173.644 865.538 170.534 861.068L170.469 860.979L170.447 860.944C158.117 843.259 144.141 823.215 109.188 821.645C62.5189 820.226 -16.1357 837.521 -82.096 863.72C-109.946 875.143 -136.394 889.138 -161.979 902.672L-162.071 902.726L-168.388 906.06L-168.481 906.113C-194.974 920.1 -217.865 932.188 -240.549 949.784C-249.251 956.507 -258.004 963.939 -266.499 971.141L-267.356 971.868C-291.856 992.683 -317.196 1014.2 -344.191 1022.17C-358.266 1026.41 -376.036 1027 -391 1021.21ZM-391 1063.48L-391 1066.78C-382.721 1066.77 -374.468 1065.43 -366.39 1062.77C-340.039 1054.05 -315.529 1032.57 -291.828 1011.8L-291.783 1011.76C-282.74 1003.83 -273.386 995.637 -264.094 988.293C-242.886 971.486 -221.264 959.824 -196.223 946.325L-191.385 943.709L-191.291 943.656C-166.528 930.281 -140.92 916.446 -113.838 905.218C-48.9424 879.169 32.3837 862.176 79.5277 864.81C113.178 867.205 125.539 886.77 137.496 905.697L137.55 905.776C140.768 910.876 143.808 915.692 147.265 920.188L147.274 920.197C152.652 926.991 159.342 935.443 177.382 930.964C184.471 929.19 193.478 925.288 204.158 919.328C223.25 908.694 244.537 894.335 265.137 880.446L265.329 880.314L267.446 878.886L267.461 878.877C272.401 875.551 277.309 872.243 282.161 869.006C335.066 834.151 393.989 789.291 450.99 745.895L451.094 745.816L451.234 745.709L451.24 745.709L451.252 745.7L451.258 745.691C486.225 719.067 519.251 693.923 549.654 672.008C579.886 650.492 614.409 626.377 641.179 610.591C654.196 602.91 666.117 596.631 677.649 590.565L677.686 590.547L678.069 590.343C691.202 583.416 704.784 576.259 719.663 567.142C822.721 504.473 997.708 323.334 1176.33 94.4524C1284.94 -44.0809 1350.56 -147.582 1380.02 -196.946C1410.02 -247.233 1430.64 -286.816 1446.6 -321.156C1449.34 -327.063 1451.95 -332.828 1454.45 -338.451C1464.24 -360.588 1472.27 -380.747 1479.97 -400.622L1479.56 -400.933C1475.36 -391.647 1470.74 -381.775 1465.59 -371.239C1446.99 -325.653 1423.11 -274.408 1378.21 -199.11C1309.68 -84.2574 1221.31 32.547 1174.73 91.9513C996.296 320.611 821.564 501.502 718.726 564.046C703.799 573.19 690.77 580.055 676.98 587.327L676.858 587.389C665.296 593.474 653.344 599.779 640.272 607.486C613.429 623.318 578.864 647.459 548.583 669.011C518.107 690.979 485.008 716.176 449.974 742.854L449.743 743.031C392.818 786.373 333.962 831.179 281.163 865.955C275.601 869.671 269.966 873.458 264.307 877.28L264.119 877.405C243.561 891.276 222.313 905.608 203.294 916.197C192.766 922.069 183.912 925.927 176.98 927.656C160.071 931.851 154.123 924.33 148.885 917.705L148.878 917.696C145.5 913.315 142.482 908.535 139.287 903.47C127.578 884.925 114.3 863.915 79.6434 861.449C32.2742 858.815 -49.3684 875.861 -114.489 901.98C-141.674 913.262 -167.323 927.115 -192.128 940.507L-192.225 940.56L-197.069 943.177C-222.189 956.728 -243.89 968.436 -265.25 985.358C-274.396 992.586 -283.57 1000.61 -292.461 1008.4L-293.03 1008.9C-316.581 1029.54 -340.941 1050.89 -366.926 1059.49C-374.822 1062.14 -382.898 1063.48 -391 1063.48ZM-391 1097.98L-391 1101L-390.029 1101C-364.554 1091.99 -340.934 1070.56 -318.078 1049.83L-318.048 1049.81C-309.516 1042.07 -300.686 1034.06 -291.935 1026.87C-270.029 1008.81 -247.429 996.275 -221.265 981.766L-221.258 981.766L-218.508 980.249C-193.314 966.263 -168.503 952.817 -141.916 941.935C-80.9641 917.758 -1.85307 901.972 46.1855 904.393C82.5961 906.699 95.0366 928.099 107.066 948.8L107.071 948.809L107.091 948.844C109.578 953.128 111.928 957.163 114.507 961.083L115.006 961.819C120.16 969.456 126.008 978.112 142.165 975.744C150.46 974.511 161.535 970.085 175.088 962.582C193.089 952.613 212.579 940.002 231.441 927.807L231.725 927.62L233.501 926.468L233.522 926.459L233.543 926.441C238.302 923.363 243.05 920.286 247.779 917.27C299.03 884.828 356.173 843.002 411.423 802.559C447.735 775.97 482.032 750.871 513.494 729.24C564.016 694.5 599.646 675.609 634.108 657.339C649.102 649.383 664.596 641.162 681.124 631.761C723.132 607.327 772.102 569.093 826.658 518.105C868.751 478.833 923.691 421.398 989.931 347.413C1047.38 283.352 1100.4 220.516 1152.06 155.311C1199.16 96.0044 1288.43 -20.6579 1357.24 -135.724C1391.69 -193.337 1413.76 -237.362 1430.13 -274.638C1412.35 -225.815 1389.78 -169.94 1335.65 -79.3972C1263.05 42.0367 1167.5 164.375 1117.01 226.493C1069.09 285.605 1020.13 342.562 967.305 400.618C897.766 477.157 836.182 540.091 789.214 582.636C736.837 630.155 689.559 665.977 648.713 689.081C628.899 700.069 610.813 709.027 593.323 717.683L593.317 717.692L593.062 717.816C561.222 733.585 528.294 749.904 483.061 779.19C448.903 801.335 411.216 827.818 371.326 855.871C316.045 894.726 258.891 934.893 207.815 965.668C202.539 968.932 197.272 972.214 192.011 975.531L191.954 975.566C163.123 993.668 130.462 1014.17 111.209 1016.51C95.3938 1018.51 90.2571 1009.97 85.2859 1001.7L84.6456 1000.66C82.5887 997.162 80.6536 993.561 78.6149 989.757L78.5997 989.73C67.0714 968.276 54.0066 943.957 15.6244 941.013C-35.031 937.82 -115.45 953.34 -175.599 977.925C-201.408 988.807 -225.707 1002.4 -250.402 1016.56C-277.494 1032.08 -299.895 1045.38 -321.072 1063.7C-329.082 1070.61 -337.181 1078.22 -345.02 1085.6L-345.213 1085.78C-350.627 1090.88 -356.082 1096.02 -361.594 1101L-357.441 1101C-352.914 1096.85 -348.426 1092.63 -343.965 1088.42C-336.097 1081.01 -327.955 1073.35 -319.916 1066.41C-298.878 1048.23 -276.557 1034.96 -249.568 1019.49C-224.922 1005.38 -200.683 991.805 -174.972 980.976C-115.037 956.471 -34.9276 941.004 15.5026 944.179C52.843 947.052 65.0322 969.739 76.8136 991.681L76.9968 992.018C78.9107 995.575 80.883 999.237 82.9235 1002.71L83.5624 1003.77L83.5746 1003.79C88.6712 1012.25 94.445 1021.83 111.391 1019.68C130.998 1017.29 163.765 996.719 192.721 978.537L192.912 978.422L194.572 977.384C199.421 974.334 204.158 971.362 208.704 968.577C259.775 937.793 316.909 897.643 372.167 858.815L372.317 858.709L373.165 858.115C412.737 830.31 450.114 804.04 483.986 782.081C529.134 752.84 562.007 736.556 593.798 720.814L594.309 720.557L594.315 720.557C611.744 711.919 629.775 702.987 649.535 692.025C690.526 668.833 737.926 632.923 790.419 585.296C837.441 542.699 899.087 479.702 968.68 403.11C1021.54 345.018 1070.54 288.026 1118.48 228.87C1169.03 166.699 1264.68 44.2452 1337.36 -77.3484C1393.24 -170.827 1415.6 -227.482 1433.7 -277.512L1431.94 -278.78C1441.2 -300.137 1448.63 -319.32 1455.5 -337.644L1454.45 -338.433C1451.95 -332.801 1449.34 -327.036 1446.6 -321.13C1428.51 -274.435 1404.61 -219.997 1355.48 -137.808C1286.76 -22.9107 1197.57 93.6453 1150.52 152.881C1098.9 218.05 1045.9 280.842 988.501 344.859C922.309 418.79 867.424 476.173 825.386 515.4C770.952 566.272 722.116 604.409 680.248 628.745C663.762 638.146 648.281 646.359 633.299 654.297L633.226 654.332C598.739 672.629 563.06 691.555 512.49 726.322C481.052 747.944 446.804 773.008 410.546 799.553L410.534 799.562L410.364 799.686C355.138 840.111 298.032 881.91 246.829 914.317C242.51 917.084 238.166 919.896 233.818 922.698L233.814 922.707L233.8 922.716L233.793 922.716L230.764 924.676L230.629 924.765L230.624 924.765C211.754 936.986 192.241 949.624 174.248 959.575C160.896 966.963 150.022 971.336 141.934 972.524C126.94 974.724 121.74 967.061 116.717 959.647L116.686 959.602L116.199 958.875C113.673 955.035 111.336 951.017 108.866 946.769C97.091 926.503 83.7432 903.533 46.289 901.156C-1.96873 898.726 -81.3779 914.565 -142.543 938.822C-169.234 949.74 -194.099 963.221 -219.341 977.225L-222.092 978.75C-248.345 993.304 -271.019 1005.88 -293.085 1024.08C-301.885 1031.31 -310.733 1039.33 -319.283 1047.09C-342.116 1067.8 -365.715 1089.2 -391 1097.98ZM-345.197 1101L-341.141 1101C-322.495 1084.84 -303.13 1072.89 -280.026 1059.11C-255.093 1044.24 -230.49 1029.94 -203.592 1018.57C-143.188 993.854 -60.4865 979.211 -11.2186 984.515C24.3813 988.923 35.8968 1012.12 47.0314 1034.54L47.0375 1034.55C48.924 1038.37 50.8713 1042.3 52.9038 1046.02L53.2081 1046.55L53.2221 1046.58C58.2396 1055.55 63.9228 1065.71 81.2013 1063.79C87.8527 1063.04 96.287 1060.33 106.273 1055.72C126.379 1046.46 149.856 1032.18 172.561 1018.37L175.568 1016.54C180.249 1013.69 184.883 1010.87 189.431 1008.15C235.117 981.136 285.556 947.008 334.333 914.007L334.618 913.812C374.855 886.584 412.853 860.873 447.376 839.578C492.104 811.951 525.129 796.697 557.066 781.948C575.407 773.478 594.37 764.716 615.231 753.745C655.267 732.255 702.502 697.879 755.635 651.574C819.867 595.771 896.543 515.347 949.56 457.707C1003.46 399.234 1052.73 342.65 1100.17 284.736C1151.1 222.76 1247.38 100.652 1319.95 -20.8531C1376.09 -114.846 1398.19 -172.823 1414.49 -219.802L1412.54 -221.15C1396.29 -174.339 1374.27 -116.54 1318.28 -22.822C1245.82 98.5232 1149.64 220.507 1098.76 282.43C1051.34 340.3 1002.11 396.849 948.245 455.286C895.271 512.89 818.655 593.243 754.503 648.984C701.486 695.174 654.366 729.47 614.47 750.889C593.846 761.735 575.054 770.418 556.883 778.817L556.39 779.048L556.378 779.057C524.387 793.824 491.312 809.096 446.499 836.785C411.94 858.106 373.93 883.826 333.681 911.062L333.099 911.452C284.425 944.383 234.136 978.395 188.585 1005.34C184.144 1008 179.633 1010.75 175.073 1013.52L171.704 1015.57C149.048 1029.36 125.619 1043.6 105.598 1052.81C95.782 1057.35 87.5119 1060.02 81.037 1060.74C64.9105 1062.52 59.8291 1053.44 54.9303 1044.67L54.6382 1044.14C52.7474 1040.68 50.9832 1037.13 49.1266 1033.41L49.1248 1033.4L48.8327 1032.82L48.829 1032.81C37.9427 1010.86 25.6063 986.005 -11.0239 981.464C-60.5291 976.143 -143.565 990.839 -204.189 1015.65C-231.208 1027.07 -255.866 1041.39 -280.859 1056.3C-305.261 1070.85 -325.51 1083.39 -345.197 1101ZM-317.992 1101L-312.818 1101C-310.614 1099.62 -308.373 1098.22 -306.096 1096.81C-284.444 1083.34 -259.043 1067.99 -231.78 1056.39C-173.074 1032.16 -91.1207 1018.4 -41.1591 1024.38C-4.97739 1029.27 6.35068 1053.37 17.3021 1076.67L17.31 1076.69L17.6447 1077.4C19.5355 1081.42 21.484 1085.56 23.5293 1089.44L23.6632 1089.7C25.7499 1093.58 27.9596 1097.67 31.1125 1101L34.9767 1101C30.5854 1097.67 27.9285 1092.74 25.3245 1087.91L25.1907 1087.68C23.0729 1083.63 21.1134 1079.47 19.0443 1075.06C8.33392 1052.27 -3.79438 1026.46 -40.9948 1021.44C-91.1937 1015.42 -173.475 1029.24 -232.407 1053.54C-259.791 1065.2 -285.259 1080.59 -306.972 1094.1C-310.744 1096.44 -314.413 1098.74 -317.992 1101ZM67.3666 1101L75.24 1101C93.7562 1093.23 115.903 1080.18 136.281 1068.18C141.77 1064.94 147.113 1061.79 152.206 1058.86C197.841 1033.14 248.351 1000.36 297.199 968.648L297.651 968.356C341.481 939.904 382.876 913.04 420.082 891.551C461.037 867.959 492.225 854.638 522.397 841.76L522.403 841.76C541.28 833.707 560.802 825.379 582.412 814.63C624.73 793.176 675.337 757.292 732.82 707.981C780.53 667.157 842.011 607.061 915.536 529.36C975.563 466.053 1030.7 403.899 1084.1 339.387C1135.46 277.526 1232.45 155.577 1304.94 33.9659C1361.39 -60.7015 1382.47 -118.048 1397.81 -164.353L1395.9 -165.612C1380.62 -119.467 1359.61 -62.3419 1303.33 32.0505C1230.93 153.502 1134.04 275.326 1082.73 337.134C1029.36 401.611 974.255 463.721 914.264 526.992C840.788 604.631 779.38 664.665 731.719 705.444C674.351 754.667 623.878 790.453 581.7 811.836C560.145 822.559 540.641 830.878 521.783 838.922L521.776 838.922L521.709 838.949C491.519 851.835 460.289 865.165 419.273 888.801C381.896 910.388 340.32 937.377 296.304 965.952C247.48 997.65 196.989 1030.43 151.397 1056.11C146.297 1059.06 140.942 1062.21 135.453 1065.44L135.311 1065.52C112.249 1079.1 86.9271 1094.01 67.3666 1101ZM-17.5427 1101C-27.2551 1082.54 -41.212 1065.65 -70.4058 1061.36C-121.25 1054.7 -202.765 1067.71 -260.023 1091.66C-266.757 1094.57 -273.344 1097.7 -279.788 1101L-273.673 1101C-268.997 1098.7 -264.25 1096.5 -259.426 1094.43C-202.393 1070.57 -121.213 1057.6 -70.5945 1064.25C-42.9348 1068.3 -29.5809 1083.4 -20.0651 1101L-17.5427 1101ZM130.783 1101L125.138 1101C167.777 1077.73 214.843 1048.36 260.369 1019.96L261.177 1019.46C305.582 991.77 347.517 965.624 385.34 944.915C425.821 922.743 456.924 910.548 487.01 898.752C508.273 890.415 530.253 881.795 555.173 869.759C598.617 848.323 652.523 810.754 711.065 761.097C756.487 722.641 812.509 669.099 882.352 597.393C948.215 529.856 1009.26 462.302 1068.96 390.853C1157.04 285.774 1237.89 174.486 1290.77 85.5125C1347.45 -9.82003 1367.46 -66.4218 1381.77 -112.008L1383.64 -110.837C1369.27 -65.0825 1349.19 -8.2413 1292.33 87.3662C1239.39 176.455 1158.44 287.875 1070.27 393.061C1010.54 464.554 949.463 532.145 883.557 599.726C813.666 671.476 757.588 725.08 712.117 763.58C653.46 813.335 599.415 850.993 555.843 872.491C530.868 884.553 508.851 893.191 487.558 901.537L487.406 901.599C457.423 913.359 426.405 925.519 386.083 947.602C348.073 968.418 305.877 994.741 261.209 1022.61C217.399 1049.93 172.159 1078.16 130.783 1101ZM-100.886 1101C-120.601 1098.47 -143.863 1098.61 -168.161 1101L-100.886 1101ZM179.309 1101C194.551 1092 209.851 1082.85 224.974 1073.79L225.098 1073.72C272.723 1045.21 317.7 1018.3 357.998 997.73C396.008 978.351 425.985 967.619 454.988 957.243C477.334 949.252 500.447 940.977 526.864 928.836C571.111 908.065 625.345 871.577 683.723 823.33C789.531 736.397 924.524 600.01 1044.82 458.497C1098.15 396.13 1198.83 272.958 1273.92 148.677C1333.09 50.7549 1355.1 -9.54513 1370.07 -60.0982L1371.88 -59.034C1356.86 -8.25924 1334.77 52.2626 1275.42 150.478C1200.23 274.918 1099.45 398.214 1046.08 460.634C925.711 602.245 790.614 738.721 684.715 825.725C626.227 874.07 571.854 910.637 527.478 931.47C501.067 943.611 477.985 951.868 455.676 959.859L455.469 959.93C426.515 970.289 396.58 981.003 358.662 1000.34C318.442 1020.86 273.518 1047.74 225.956 1076.21L225.871 1076.26C212.132 1084.49 198.248 1092.81 184.394 1101L179.309 1101ZM236.385 1101L241.487 1101C273.363 1083 304.622 1066 332.61 1052.8C368.356 1035.96 397.244 1026.63 425.176 1017.62L425.468 1017.53C448.745 1010.01 472.837 1002.23 500.635 990.129C544.816 970.52 597.991 936.055 658.693 887.719C714.399 843.49 785.575 778.037 864.503 698.455C921.664 640.905 973.835 584.933 1023.97 527.346C1078.78 464.599 1182.43 340.273 1260.76 212.676C1325.57 107.091 1348.55 41.5401 1362.47 -8.64938L1360.71 -9.62496C1346.83 40.3516 1323.95 105.645 1259.33 210.92C1181.09 338.367 1077.54 462.568 1022.79 525.271C972.666 582.831 920.532 638.767 863.402 696.274C784.516 775.81 713.407 841.21 657.756 885.387C598.021 932.951 543.495 968.294 500.063 987.584C472.229 999.699 448.094 1007.49 424.756 1015.02L424.652 1015.05L424.646 1015.05C396.701 1024.07 367.793 1033.39 332.007 1050.26C302.691 1064.09 269.807 1082.07 236.385 1101ZM311.333 1101L317.8 1101C346.969 1089.06 371.814 1081.94 395.953 1075.03L396.036 1075.01C421.896 1067.59 448.647 1059.92 480.377 1046.38C526.042 1026.46 583.1 989.934 645.372 940.738C698.48 898.885 764.008 839.791 840.131 765.088C903.481 702.996 961.64 641.605 1017.91 577.421C1073.03 514.735 1177.17 390.489 1255.25 262.688C1320.47 155.932 1342.44 90.4879 1355.34 40.5645L1353.61 39.6775C1340.77 89.3969 1318.88 154.557 1253.86 261.003C1175.88 388.654 1071.83 512.775 1016.76 575.407C960.514 639.557 902.398 700.903 839.084 762.959C763.004 837.61 697.531 896.668 644.471 938.485C582.315 987.584 525.379 1024.04 479.841 1043.92C448.161 1057.43 421.433 1065.09 395.588 1072.5C369.786 1079.88 343.175 1087.51 311.333 1101ZM459.346 1101L465.346 1101C510.914 1080.81 565.756 1046.34 624.925 1000.59C744.042 909.04 886.356 772.316 1015.38 625.49C1070.57 563.026 1174.71 439.18 1252.19 311.494C1317.92 203.159 1339.18 135.578 1350.36 88.8205L1348.69 88.0223C1337.57 134.584 1316.39 201.873 1250.85 309.879C1173.46 437.415 1069.41 561.155 1014.28 623.557C885.328 770.294 743.111 906.921 624.079 998.413C562.604 1045.93 505.845 1081.27 459.346 1101ZM544.737 1101L548.753 1101C566.529 1089.25 584.974 1076.26 603.924 1062.15C662.953 1018.31 734.761 956.258 817.341 877.733C881.646 816.67 940.852 755.882 998.323 691.919C1057.7 626.04 1169.44 495.427 1250.66 360.716C1316.87 250.928 1337.17 183.16 1347.45 136.385L1345.83 135.675C1335.59 182.228 1315.38 249.704 1249.37 359.164C1168.23 493.715 1056.6 624.222 997.264 690.039C939.829 753.966 880.66 814.719 816.38 875.755C733.855 954.236 662.107 1016.24 603.127 1060.04C583.026 1075.01 563.498 1088.71 544.737 1101ZM611.354 1101L614.805 1101C732.175 1011.31 862.775 889.652 984.636 756.316C1091.97 639.539 1189.17 512.97 1251.3 409.07C1317.71 298.084 1337.03 230.156 1346.45 183.381L1344.88 182.752C1335.51 229.305 1316.27 296.94 1250.05 407.58C1187.99 511.365 1090.88 637.809 983.632 754.489C860.913 888.757 729.339 1011.18 611.354 1101ZM672.556 1101L675.623 1101C708.849 1073.44 744.462 1042.43 782.264 1008.12C854.767 942.396 921.269 876.491 985.574 806.621C1093.61 689.649 1191.16 562.671 1253.21 458.222C1320.91 344.3 1339.3 273.499 1347.24 230.156L1345.74 229.606C1337.82 272.754 1319.51 343.245 1252.01 456.82C1190.05 561.155 1092.58 688.017 984.624 804.883C920.362 874.708 853.89 940.587 781.419 1006.28C742.77 1041.36 706.415 1072.98 672.556 1101ZM734.372 1101L737.226 1101C821.333 1028.15 908.112 943.939 989.596 855.489C1097.82 738.667 1195.27 611.611 1256.95 506.877C1324.92 391.58 1342.39 320.363 1349.62 276.816L1348.18 276.337C1340.98 319.68 1323.57 390.587 1255.8 505.538C1194.19 610.156 1096.83 737.106 988.683 853.822C906.566 942.946 819.081 1027.78 734.372 1101ZM794.07 1101L797.004 1101C858.339 1045.36 919.845 984.879 979.409 921.377C1044.52 852.314 1166.84 714.615 1254.47 568.428C1311.13 473.964 1342.58 396.148 1353.44 323.564L1352.05 323.156C1341.24 395.403 1309.88 472.926 1253.38 567.142C1165.84 713.178 1043.62 850.771 978.551 919.789C919.108 983.149 856.568 1044.47 794.07 1101ZM853.921 1101L856.349 1101C894.943 1064.5 933.196 1026.48 970.378 987.575C1036.82 918.406 1161.9 780.041 1253.09 630.555C1313.87 530.965 1348.35 445.912 1358.49 370.543L1357.16 370.188C1347.07 445.22 1312.69 529.981 1252.07 629.304C1160.96 778.657 1035.97 916.916 969.575 986.04C931.869 1025.5 893.062 1064.03 853.921 1101ZM913.351 1101L915.585 1101C936.439 1080.43 957.106 1059.47 977.51 1038.18C1044.03 969.074 1169.18 830.754 1260.06 680.762C1321.17 579.939 1355.36 493.964 1364.55 417.912L1363.28 417.602C1354.13 493.325 1320.04 579.017 1259.08 679.591C1168.29 829.45 1043.23 967.664 976.756 1036.73C955.87 1058.52 934.705 1079.96 913.351 1101ZM972.082 1101L974.133 1101C977.851 1097.17 981.557 1093.32 985.257 1089.47C1051.83 1020.43 1177.04 882.132 1267.65 731.59C1329.1 629.543 1363.04 542.583 1371.38 465.752L1370.18 465.485C1361.87 541.989 1328.03 628.674 1266.72 730.472C1176.19 880.881 1051.07 1019.1 984.539 1088.1C980.401 1092.41 976.245 1096.71 972.082 1101ZM1029.57 1101L1031.46 1101C1104.27 1022.08 1201.69 906.663 1275.61 783.074C1337.42 679.804 1371.15 591.859 1378.76 514.185L1377.62 513.954C1370.06 591.309 1336.4 679.006 1274.74 782.028C1200.48 906.184 1102.46 1022.09 1029.57 1101ZM1085.53 1101L1087.05 1101C1103.92 1081.66 1120.3 1062.25 1136.02 1043C1194.94 970.839 1244.63 900.916 1283.7 835.215C1345.02 732.175 1379.58 640.665 1386.42 563.23L1385.34 563.035C1378.53 640.186 1344.06 731.43 1282.87 834.248C1251.05 887.772 1188.4 983.149 1085.53 1101ZM1138.83 1101L1140.25 1101C1141.28 1099.74 1142.32 1098.47 1143.35 1097.21C1202.37 1024.9 1252.13 954.769 1291.24 888.73C1353.2 784.236 1387.81 691.449 1394.1 612.941L1393.09 612.772C1386.82 691.005 1352.3 783.544 1290.46 887.825C1263.64 933.101 1214.97 1008.08 1138.83 1101ZM1189.24 1101L1190.62 1101C1232.55 1046.26 1268.85 992.994 1298.86 942.095C1361.19 836.519 1395.74 742.72 1401.56 663.299L1400.62 663.166C1394.82 742.312 1360.33 835.871 1298.12 941.252C1276.73 977.535 1241.39 1032.82 1189.24 1101ZM1236.48 1101L1237.72 1101C1255.6 1075.72 1272.95 1049.74 1289.37 1023.24C1328.64 959.939 1358.75 899.736 1378.86 844.288C1395.92 797.3 1405.9 753.558 1408.51 714.295L1407.65 714.18C1405.03 753.292 1395.09 796.892 1378.09 843.729C1358 899.08 1327.93 959.203 1288.71 1022.43C1272.11 1049.21 1254.57 1075.47 1236.48 1101ZM1279.64 1101L1280.73 1101C1285.73 1093.26 1290.65 1085.47 1295.49 1077.63C1334.8 1014.09 1364.94 953.536 1385.09 897.652C1402.29 849.946 1412.26 805.601 1414.73 765.851L1413.92 765.744C1407.16 874.788 1345.46 995.131 1294.89 1076.89C1289.89 1084.97 1284.8 1093.02 1279.64 1101ZM1318.29 1101L1319.24 1101C1365.63 1020.66 1414.29 914.956 1419.94 817.876L1419.21 817.805C1413.56 914.876 1364.72 1020.7 1318.29 1101ZM1351.75 1101L1352.56 1101C1388.46 1029.84 1419.67 947.381 1423.91 870.256L1423.25 870.176C1419 947.31 1387.69 1029.84 1351.75 1101ZM1379.52 1101L1380.22 1101C1404.72 1043.38 1423.34 981.597 1426.42 922.858L1425.83 922.796C1422.74 981.535 1404.06 1043.36 1379.52 1101ZM1400.94 1101L1401.5 1101C1419.14 1048.19 1425.7 1006.45 1427.26 975.486L1426.73 975.433C1424.66 1016.62 1414.96 1059.29 1400.94 1101ZM1415.13 1101L1415.61 1101C1422.28 1072.18 1425.29 1047.87 1426.25 1027.96L1425.79 1027.92C1424.83 1047.82 1421.81 1072.16 1415.13 1101ZM1421.21 1101L1421.61 1101C1422.4 1093.55 1422.92 1086.58 1423.22 1080.07L1422.83 1080.04C1422.53 1086.55 1422.01 1093.54 1421.21 1101ZM-391 861.662C-390.245 858.877 -389.503 856.092 -388.773 853.307C-379.298 817.025 -373.924 786.95 -371.879 758.676C-371.484 753.248 -371.028 747.589 -370.571 742.1L-370.553 741.887C-368.733 719.697 -366.852 696.744 -368.326 674.82C-369.871 652.16 -378.33 632.249 -391 618.041L-391 622.519C-379.687 636.009 -372.178 654.359 -370.766 675.148C-369.305 696.779 -371.18 719.617 -373.005 741.701L-373.089 742.72C-373.513 747.891 -373.949 753.195 -374.32 758.321C-376.34 786.223 -381.641 815.943 -391 851.826L-391 861.662ZM-391 743.811C-390.099 730.996 -389.661 718.153 -390.44 705.613C-390.568 703.511 -390.757 701.435 -391 699.387L-391 743.811ZM1540.57 -549.532C1543.28 -555.625 1545.81 -561.47 1548.22 -567.093C1545.7 -561.221 1543.15 -555.359 1540.57 -549.532ZM1540.57 -549.532C1540.2 -548.689 1539.83 -547.847 1539.44 -546.996L1538.65 -545.222L1538.67 -545.239C1539.3 -546.667 1539.93 -548.095 1540.57 -549.532Z" fill="#C4C4C4"/>
<path fill-rule="evenodd" clip-rule="evenodd" d="M-391 442.444L-391 446.816C-373.358 436.351 -354.804 427.384 -334.162 423.961C-315.559 420.928 -295.641 424.467 -279.514 433.673C-266.808 440.936 -250.304 455.171 -243.896 481.76C-239.589 500.004 -238.711 520.038 -237.862 539.399L-237.853 539.586L-237.834 540.02L-237.834 540.029C-237.585 545.767 -237.327 551.692 -236.977 557.359C-235.231 585.376 -237.598 615.167 -244.225 648.435C-247.591 665.321 -251.976 682.287 -256.217 698.695L-256.238 698.775L-256.325 699.112C-258.123 706.074 -259.978 713.258 -261.727 720.326L-262.359 722.889C-266.899 741.151 -271.579 760.033 -269.455 777.575C-268.378 787.092 -264.502 795.047 -257.935 801.229C-247.602 810.932 -232.352 814.763 -216.956 814.763C-205.868 814.763 -194.713 812.768 -185.275 809.557C-157.177 800.174 -130.318 779.518 -104.332 759.536L-104.217 759.447C-93.8957 751.51 -83.2218 743.306 -72.6027 735.891C-49.3842 719.635 -25.7489 707.67 -0.729752 694.997L-0.520402 694.89C4.06804 692.575 8.72951 690.207 13.4762 687.777C20.1398 684.363 26.852 680.886 33.619 677.374C56.1535 665.694 79.4608 653.614 103.115 642.838C165.035 615.451 249.367 584.773 300.357 580.8C329.384 578.937 344.768 589.855 359.652 600.418C366.608 605.358 373.169 610.014 380.928 613.269C390.178 616.967 400.158 619.389 420.563 608.364C428.839 603.877 438.832 597.03 451.136 587.398C472.131 570.955 494.514 551.39 516.184 532.455L516.184 532.446L516.19 532.446L516.196 532.437L516.616 532.074C522.336 527.063 528.069 522.061 533.783 517.094C599.737 460.244 673.736 386.844 745.301 315.848C770.641 290.714 794.569 266.98 817.578 244.533C852.862 210.423 893.008 171.843 923.033 145.688C944.278 127.17 961.785 113.787 978.691 100.847L978.697 100.847L978.971 100.634L980.675 99.3303L980.693 99.3127L980.699 99.3127C989.608 92.4924 998.116 85.9737 1007.2 78.6656C1048.84 45.0257 1088.02 6.56084 1134.25 -46.0587C1169.88 -86.5632 1219.54 -148.85 1281.86 -231.189C1328.57 -292.829 1371.48 -351.728 1413.01 -411.238C1484.27 -513.196 1544.52 -607.136 1592.07 -690.46C1613.17 -727.443 1630.46 -759.877 1645.07 -788.834C1647.87 -795.175 1650.96 -801.224 1654.05 -807.271C1657.46 -813.948 1660.87 -820.623 1663.89 -827.689L1664.12 -827.698C1680.15 -861.405 1692.48 -889.965 1703.54 -915.569L1703.74 -916.024L1702.6 -917L1702.6 -916.991C1697.43 -906.118 1691.9 -894.739 1685.94 -882.792L1685.98 -882.895L1685.93 -882.792C1687 -885.207 1688.05 -887.594 1689.08 -889.955L1690.46 -893.117L1692.26 -897.228C1693.38 -899.805 1694.54 -902.458 1695.68 -905.106L1697.13 -908.458L1698.35 -911.279C1694.23 -901.756 1690.09 -892.257 1685.91 -882.783C1664.54 -834.359 1636.48 -774.724 1589.84 -692.988C1542.34 -609.761 1482.16 -515.919 1410.97 -414.067C1368.14 -352.774 1324.44 -292.776 1279.89 -234.125C1217.63 -151.848 1168.02 -89.632 1132.45 -49.1984C1086.34 3.27922 1047.27 41.6377 1005.77 75.1713C996.138 82.9139 987.131 89.8051 977.596 97.0954L977.516 97.1574L977.51 97.1574C960.501 110.168 942.909 123.622 921.518 142.265C891.45 168.464 851.255 207.079 815.947 241.216C791.788 264.861 767.69 288.638 743.652 312.549L743.488 312.718C672.008 383.616 598.112 456.918 532.286 513.653C526.566 518.619 520.833 523.621 515.113 528.641L514.857 528.863C493.163 547.825 470.738 567.425 449.755 583.868C437.572 593.394 427.689 600.187 419.547 604.586C399.958 615.176 390.47 612.905 381.732 609.384C374.234 606.245 367.778 601.668 360.938 596.808C345.737 586.024 330.01 574.866 300.217 576.764C248.947 580.764 164.347 611.531 102.257 638.989C78.5358 649.8 55.1981 661.889 32.6393 673.587C21.2851 679.502 9.91127 685.329 -1.48192 691.085L-1.4959 691.094C-26.6666 703.83 -50.4376 715.865 -73.8745 732.273C-84.1273 739.43 -94.3917 747.306 -104.365 754.96L-104.369 754.96L-105.592 755.9C-131.443 775.784 -158.171 796.342 -185.95 805.628C-207.895 813.131 -239.29 813.894 -256.353 797.868C-262.226 792.342 -265.688 785.309 -266.638 776.91C-268.634 760.379 -264.07 741.984 -259.658 724.202L-259.019 721.648C-257.248 714.482 -255.367 707.191 -253.542 700.141L-253.521 700.061C-249.262 683.582 -244.858 666.545 -241.462 649.508C-234.738 615.761 -232.334 585.5 -234.123 556.995C-234.466 551.39 -234.717 545.767 -234.982 539.834L-235.005 539.32C-235.857 519.631 -236.746 499.285 -241.188 480.465C-246.543 458.275 -259.42 440.803 -278.449 429.93C-295.002 420.476 -315.431 416.839 -334.497 419.961C-355.065 423.367 -373.504 432.138 -391 442.444ZM-391 460.412L-391 464.563C-379.036 458.905 -366.518 454.594 -353.118 452.812C-319.325 448.377 -278.005 467.703 -267.922 512.163C-263.51 531.994 -263.165 553.767 -262.831 574.849L-262.828 575.017L-262.825 575.221C-262.735 581.119 -262.65 586.689 -262.475 592.259C-261.593 620.063 -264.696 649.995 -271.975 683.751C-275.486 700.07 -279.867 716.451 -284.109 732.299L-284.216 732.698L-284.218 732.707C-286.277 740.406 -288.404 748.352 -290.395 756.175L-290.797 757.762C-295.592 776.565 -300.54 795.987 -298.598 814.204C-297.637 823.818 -293.882 831.942 -287.438 838.328C-276.837 848.838 -260.589 852.962 -244.626 852.962C-235.413 852.962 -226.285 851.587 -218.41 849.254C-189.115 840.802 -161.085 819.127 -133.968 798.151L-133.769 798.001L-133.767 797.992L-133.763 797.992C-123.044 789.699 -111.959 781.132 -100.949 773.522C-79.4938 758.605 -57.7608 747.767 -34.7578 736.29L-34.5929 736.211C-30.1383 733.993 -25.6169 731.732 -21.0041 729.408C-15.6093 726.676 -10.1738 723.901 -4.70479 721.116L-2.10261 719.785C20.3101 708.327 43.4896 696.478 67.089 686.003C124.219 661.41 209.836 631.486 263.102 628.133C293.534 626.59 308.681 638.9 323.319 650.802L323.33 650.811L323.364 650.838C329.868 656.124 336.013 661.117 343.332 664.815C352.138 669.073 361.729 672.035 381.951 661.64C390.288 657.339 400.59 650.554 412.591 641.463C430.799 627.672 449.931 611.681 468.456 596.205L469.064 595.7C475.028 590.706 481.01 585.713 486.992 580.755C553.22 526.335 627.688 455.339 699.715 386.667L701.206 385.248C727.124 360.539 751.649 337.169 775.096 315.254C855.728 239.868 902.44 204.552 951.891 167.169L956.339 163.799C1000.01 130.203 1041.26 90.9315 1090.12 36.4849C1136.71 -15.3631 1197.79 -92.665 1240.84 -148.38C1288.2 -209.576 1331.66 -268.093 1373.72 -327.285C1445.89 -428.728 1506.82 -522.357 1554.8 -605.539C1575.49 -641.432 1592.42 -672.864 1606.66 -700.872C1613.71 -716.717 1619.92 -731.262 1625.73 -744.897L1625.76 -744.965L1625.77 -744.993L1625.79 -745.033L1625.79 -745.044L1625.79 -745.047L1625.8 -745.065L1625.81 -745.079L1625.82 -745.101L1626.1 -745.776L1626.11 -745.785L1627.96 -744.206C1642.99 -775.93 1654.55 -802.83 1664.94 -826.998L1664.13 -827.684C1657.91 -814.604 1651.56 -801.653 1645.09 -788.834L1645.09 -788.861L1645.07 -788.826C1624.61 -742.663 1597.48 -685.804 1552.63 -608.032C1504.71 -524.947 1443.85 -431.424 1371.74 -330.069C1329.71 -270.913 1286.28 -212.432 1238.95 -151.271C1195.94 -95.6007 1134.9 -18.3696 1088.39 33.4074C1039.66 87.7121 998.517 126.868 955.006 160.349L950.564 163.701L950.467 163.772C901.004 201.172 854.243 236.533 773.544 311.973C750.663 333.365 726.765 356.149 701.529 380.193L701.516 380.201L698.145 383.421L697.689 383.856L697.683 383.864C625.832 452.342 551.577 523.125 485.568 577.368C479.586 582.334 473.598 587.336 467.634 592.321C448.946 607.948 429.612 624.107 411.252 638.013C399.367 647.015 389.18 653.729 380.977 657.96C361.607 667.911 352.54 665.126 344.239 661.117C337.162 657.543 331.113 652.63 324.717 647.423L324.659 647.379C309.683 635.22 294.195 622.652 262.974 624.222C209.44 627.592 123.556 657.596 66.2493 682.27C42.6018 692.762 19.4156 704.619 -3.01054 716.087L-3.0641 716.114L-5.45692 717.337C-10.9904 720.158 -16.4905 722.969 -21.9534 725.736C-26.5601 728.06 -31.0816 730.313 -35.5361 732.53L-35.6091 732.566C-58.7254 744.095 -80.5728 754.986 -102.196 770.028C-113.32 777.735 -124.506 786.373 -135.319 794.737C-162.254 815.57 -190.101 837.104 -218.988 845.441C-239.941 851.622 -269.802 851.028 -285.855 835.144C-291.637 829.414 -295.008 822.195 -295.854 813.672C-297.696 796.449 -292.876 777.505 -288.212 759.181L-288.198 759.128L-287.797 757.549C-285.975 750.392 -284.035 743.12 -282.145 736.042L-282.145 736.033L-281.529 733.727C-277.269 717.825 -272.869 701.364 -269.327 684.939C-261.964 650.74 -258.818 620.382 -259.712 592.116C-259.893 586.591 -259.978 581.03 -260.069 575.159L-260.071 574.973C-260.4 553.572 -260.741 531.444 -265.287 511.01C-275.821 464.59 -318.534 444.369 -353.38 448.892C-366.707 450.657 -379.133 454.869 -391 460.412ZM-391 480.997L-391 484.926C-385.627 483.277 -380.131 481.982 -374.472 481.184C-356.538 478.647 -337.448 483.25 -322.1 493.786C-310.222 501.946 -295.02 517.387 -290.073 544.641C-286.391 565.341 -286.574 587.868 -286.75 609.668L-286.755 610.307C-286.796 615.646 -286.835 620.692 -286.817 625.765C-286.695 653.658 -290.432 683.742 -298.245 717.737C-301.729 732.876 -305.922 748.104 -309.98 762.844L-310.1 763.279C-312.635 772.387 -315.104 781.54 -317.506 790.728L-317.755 791.686L-317.761 791.704C-322.506 810.027 -327.887 830.798 -325.953 849.432C-324.979 859.667 -321.005 868.261 -314.177 874.975C-303.412 885.546 -287.279 889.715 -271.396 889.715C-261.727 889.715 -252.154 888.163 -243.951 885.591C-216.226 877.05 -189.845 856.465 -164.329 836.545L-164.12 836.386C-154.631 828.98 -144.814 821.326 -135.088 814.426C-111.544 797.664 -88.4432 786.09 -61.6793 772.698L-53.6343 768.662C-48.5724 766.117 -43.4831 763.527 -38.3604 760.928L-38.3336 760.92L-38.3141 760.911L-37.6904 760.592C-13.4337 748.281 11.6566 735.554 37.3433 724.601C96.2323 700.247 177.997 674.58 227.897 672.124C259.937 670.935 275.023 684.895 289.604 698.393C295.044 703.431 300.187 708.185 306.108 712.087C314.688 717.533 323.354 721.346 342.474 712.814C351.572 708.726 362.587 701.923 376.145 692.017C395.959 677.542 416.735 660.816 436.817 644.639L438.296 643.45L438.326 643.423L438.339 643.415C442.982 639.681 447.631 635.938 452.287 632.222C515.228 582.237 585.753 517.546 653.965 454.976L654.184 454.772C680.802 430.356 705.941 407.296 729.905 385.78C805.992 317.4 850.86 284.825 898.351 250.342L898.424 250.289L912.055 240.382C952.633 210.272 993.126 173.102 1039.48 123.383C1090.97 68.2358 1156.45 -12.6671 1202.3 -70.8298C1250.2 -131.485 1294.21 -189.656 1336.85 -248.652C1387.08 -318.043 1459.6 -422.502 1519.88 -526.083C1540.23 -561.044 1556.82 -591.606 1570.73 -618.763C1567.81 -612.244 1564.71 -605.46 1560.99 -597.442L1560.95 -597.362C1556.78 -587.207 1552.54 -577.123 1548.22 -567.093C1552.89 -577.984 1557.07 -588.023 1560.94 -597.371C1543.23 -559.394 1519.66 -513.072 1485.58 -454.936C1424.93 -351.541 1351.65 -247.491 1300.86 -178.428C1257.8 -119.769 1213.27 -61.9431 1164.73 -1.66072C1118.43 55.9432 1052.06 136.34 998.779 192.215C951.215 242.174 910.053 279.042 869.244 308.239C863.292 312.416 857.45 316.487 851.657 320.513L851.645 320.522L851.633 320.531L846.32 324.23C801.841 355.138 759.833 384.334 690.739 443.783C665.734 465.273 639.305 488.616 611.361 513.289L609.255 515.152C544.846 572.055 478.247 630.892 418.567 676.726L404.729 687.476C381.896 705.249 358.284 723.626 336.346 738.685C323.482 747.519 313.1 753.407 304.58 756.662C286.735 763.474 279.626 758.002 272.757 752.716L272.54 752.538C267.664 748.671 263.315 744.104 258.713 739.27L258.684 739.244L258.677 739.235C245.352 725.257 230.254 709.426 198.535 709.205C146.036 709.666 60.9184 735.448 -0.155287 760.778C-24.2817 771.128 -47.718 783.021 -70.3967 794.524L-70.401 794.524L-70.558 794.604L-80.5503 799.677C-83.38 801.105 -86.1751 802.506 -88.9433 803.89C-90.1866 804.511 -91.4268 805.131 -92.6604 805.752L-92.6835 805.761C-116.609 817.734 -139.209 829.042 -161.195 844.749C-171.522 852.11 -181.885 860.296 -191.896 868.225C-217.297 888.322 -243.561 909.102 -271.104 917.448C-296.365 925.261 -323.926 920.845 -338.123 906.699C-344.471 900.375 -348.104 892.375 -348.956 882.868C-350.769 863.977 -345 842.408 -339.906 823.384L-339.401 821.503C-337.101 812.883 -334.636 804.103 -332.245 795.624C-328.198 781.221 -324.017 766.321 -320.421 751.474C-311.865 716.069 -307.599 686.376 -307.002 658.04C-306.858 651.131 -306.945 644.151 -307.03 637.419L-307.033 637.171L-307.035 637.02C-307.138 628.843 -307.244 620.391 -306.942 611.983C-306.57 601.695 -306.388 588.205 -308.262 574.991C-315.589 524.384 -356.276 500.855 -391 504.296L-391 508.048C-345.98 503.418 -316.112 539.444 -310.861 575.718C-309.047 588.516 -309.23 601.713 -309.583 611.788C-309.899 620.373 -309.79 628.94 -309.68 637.224L-309.671 637.969C-309.588 644.514 -309.503 651.264 -309.644 657.915C-310.24 685.87 -314.457 715.209 -322.928 750.25C-326.5 765.017 -330.669 779.873 -334.703 794.232C-337.095 802.728 -339.56 811.517 -341.872 820.173L-342.371 822.053C-347.58 841.494 -353.471 863.533 -351.572 883.356C-350.629 893.927 -346.613 902.805 -339.633 909.759C-328.703 920.641 -312.364 924.924 -296.45 924.924C-287.286 924.924 -278.273 923.506 -270.52 921.111C-242.588 912.641 -216.146 891.728 -190.575 871.489L-190.378 871.329C-180.448 863.48 -170.182 855.365 -159.966 848.093C-138.144 832.501 -115.637 821.228 -91.8114 809.309L-91.7475 809.273L-89.4399 808.12C-86.2122 806.506 -82.9407 804.874 -79.6253 803.198L-69.6269 798.125L-69.1571 797.885C-46.6165 786.453 -23.308 774.64 0.623675 764.361C84.67 729.506 162.15 713.275 198.565 712.938C229.393 713.151 243.488 727.936 257.108 742.215L257.126 742.233C261.812 747.155 266.236 751.793 271.274 755.802L271.512 755.979C278.492 761.363 286.421 767.474 305.304 760.272C313.982 756.946 324.522 750.978 337.527 742.046C359.519 726.952 383.132 708.575 405.976 690.793L406.037 690.748C410.65 687.156 415.263 683.564 419.863 680.008C479.543 634.164 546.106 575.372 610.49 518.495L610.685 518.318L610.947 518.087C639.56 492.811 666.598 468.918 692.133 446.976C761.13 387.616 803.083 358.455 847.501 327.582L851.9 324.522C858.01 320.274 864.163 315.99 870.443 311.582C911.398 282.279 952.688 245.305 1000.38 195.222C1053.73 139.276 1120.17 58.7991 1166.49 1.1508C1215.07 -59.1759 1259.62 -117.037 1302.71 -175.732C1353.54 -244.874 1426.9 -349.014 1487.62 -452.559C1508.08 -487.432 1524.75 -518.083 1538.65 -545.222C1537.15 -541.878 1535.61 -538.446 1534 -534.942L1533.71 -535.182L1530.64 -527.626L1530.58 -527.484C1513.42 -490.571 1490.4 -445.384 1456.73 -388.285C1395.97 -285.255 1322.26 -181.842 1271.14 -113.259C1222.55 -47.9388 1172.64 15.563 1118.56 80.8829C1049.97 163.896 994.927 226.334 954.97 266.422C908.86 312.806 868.502 347.794 831.606 373.381C818.972 382.073 807.617 389.186 795.592 396.716C781.863 405.301 767.672 414.187 751.472 425.628C723.607 445.318 687.532 474.328 652.693 502.762C627.25 523.763 600.2 546.77 571.598 571.088L571.586 571.097L569.328 573.022L568.835 573.439C502.601 629.774 434.152 687.981 373.51 732.193C368.824 735.661 363.937 739.332 358.928 743.102L356.635 744.831C327.912 766.463 295.373 790.968 274.262 798.852C255.598 805.903 248.278 799.677 242.417 794.684C237.626 790.471 233.412 785.531 228.957 780.307L228.81 780.139C215.556 764.573 200.519 746.924 166.245 746.889C120.556 747.412 41.1102 767.066 -26.9496 794.701C-52.7763 805.53 -77.6719 818.248 -101.752 830.559L-110.162 834.851L-118.183 838.931C-143.803 851.915 -165.923 863.143 -188.239 879.48C-197.994 886.593 -207.803 894.504 -217.291 902.158L-217.318 902.185C-242.455 922.441 -268.442 943.381 -295.793 951.487C-320.482 958.928 -347.519 954.254 -361.559 940.126C-368.07 933.572 -371.788 925.27 -372.634 915.417C-374.426 896.012 -368.515 873.963 -363.294 854.496L-363.269 854.399L-363.007 853.423C-360.341 843.49 -357.469 833.406 -354.682 823.65C-350.483 808.954 -346.144 793.761 -342.402 778.596C-334.125 745.062 -329.683 716.832 -328.405 689.755C-328.009 681.312 -327.888 672.798 -327.778 664.567L-327.76 663.308C-327.645 655.273 -327.526 646.989 -327.127 638.758C-326.476 625.455 -326.634 615.282 -327.626 605.766C-330.158 582.059 -340.363 561.35 -356.392 547.452C-366.463 538.708 -378.513 533.058 -391 530.93L-391 534.628C-362.076 539.834 -334.6 564.809 -330.176 606.316C-329.208 615.566 -329.056 625.508 -329.695 638.546C-330.121 647.29 -330.243 656.053 -330.358 664.532C-330.427 672.877 -330.634 681.214 -330.979 689.542C-332.233 716.282 -336.639 744.202 -344.842 777.416C-348.555 792.458 -352.866 807.562 -357.035 822.178L-357.074 822.311C-359.867 832.084 -362.751 842.186 -365.423 852.154L-365.684 853.13L-365.717 853.254C-371.046 873.112 -377.079 895.604 -375.19 915.896C-374.259 926.778 -370.176 935.94 -363.056 943.106C-351.992 954.245 -335.854 958.671 -320.031 958.671C-311.378 958.671 -302.822 957.341 -295.257 955.061C-267.496 946.849 -241.316 925.749 -216 905.333L-215.775 905.156L-215.774 905.147C-206.382 897.581 -196.675 889.759 -187.046 882.744C-164.914 866.54 -142.897 855.365 -117.415 842.425L-117.306 842.372C-115.603 841.512 -113.888 840.643 -112.159 839.765C-111.202 839.277 -110.241 838.789 -109.274 838.301L-100.864 834.009C-76.826 821.716 -51.9608 809.016 -26.2193 798.222C41.6336 770.684 120.787 751.075 166.258 750.57C199.576 750.614 213.592 767.057 227.146 782.95L227.161 782.968C231.737 788.342 236.052 793.407 241.066 797.823C248.801 804.404 256.688 809.291 274.926 802.409C296.313 794.418 328.979 769.815 357.809 748.104L357.846 748.077L359.599 746.756C364.796 742.845 369.86 739.04 374.697 735.457C435.564 691.085 504.244 632.666 570.661 576.17C600.09 551.124 627.888 527.48 653.989 505.928C688.786 477.538 724.824 448.546 752.634 428.919C768.609 417.62 782.648 408.822 796.212 400.334L796.632 400.068C808.681 392.529 820.061 385.408 832.737 376.663C869.767 350.987 910.236 315.91 956.461 269.41C996.491 229.234 1051.59 166.743 1120.24 83.6589C1174.35 18.2946 1224.29 -45.2428 1272.92 -110.598C1324.1 -179.27 1397.88 -282.771 1458.72 -385.953C1479.24 -420.755 1495.82 -451.149 1509.53 -477.959C1507.66 -473.809 1505.78 -469.667 1503.89 -465.543L1505.13 -468.23L1507.13 -466.643C1506.67 -465.454 1506.19 -464.257 1505.7 -463.042L1505.44 -462.395C1516.48 -486.27 1524.92 -506.518 1532.17 -524.264C1524.87 -508.611 1517.33 -493.187 1509.56 -478.013L1509.6 -478.11C1517.35 -493.25 1524.88 -508.637 1532.16 -524.264C1544.82 -551.43 1554.3 -574.126 1562.45 -593.779L1562.48 -593.824C1575.83 -622.391 1585.89 -646.266 1594.56 -666.86L1594.41 -666.984C1608.16 -696.201 1618.75 -721.069 1628.33 -743.529L1628.34 -743.554L1628.34 -743.571L1628.35 -743.591L1628.36 -743.62L1628.37 -743.634L1628.44 -743.789L1627.96 -744.188C1621.03 -729.575 1613.93 -715.131 1606.67 -700.863C1587.07 -656.829 1560.86 -602.568 1517.78 -528.53C1457.57 -425.083 1385.12 -320.73 1334.95 -251.402C1292.34 -192.423 1248.35 -134.305 1200.48 -73.6856C1154.66 -15.5673 1089.25 65.2646 1037.84 120.323C991.598 169.909 951.233 206.973 910.795 236.976L897.176 246.874C849.606 281.41 804.677 314.03 728.439 382.534C704.626 403.926 679.657 426.826 653.24 451.056L653.198 451.1L653.18 451.109L652.699 451.552C584.451 514.158 513.877 578.893 450.948 628.878C446.505 632.435 442.075 636 437.651 639.557L435.472 641.313L434.365 642.2L434.365 642.209C414.642 658.066 394.299 674.438 374.898 688.602C361.479 698.411 350.598 705.134 341.647 709.151C321.972 717.932 313.8 712.752 307.252 708.601C301.543 704.841 296.505 700.176 291.169 695.245L291.101 695.183C276.867 682.003 260.735 667.086 227.818 668.292C177.668 670.758 95.6299 696.495 36.5705 720.929C10.7986 731.918 -14.3222 744.663 -38.6093 756.991C-43.9523 759.705 -49.271 762.401 -54.5531 765.061L-62.586 769.079L-62.5994 769.088C-89.4357 782.533 -112.613 794.134 -136.305 811.003C-146.078 817.938 -155.922 825.619 -165.439 833.051L-165.637 833.202L-165.693 833.246C-191.027 853.006 -217.213 873.44 -244.529 881.848C-270.356 889.963 -298.349 885.848 -312.619 871.826C-318.796 865.768 -322.374 858.061 -323.257 848.917C-325.082 831.206 -320.056 811.792 -315.187 793.016L-314.944 792.058C-312.583 782.932 -310.027 773.655 -307.55 764.68L-307.39 764.095C-303.332 749.354 -299.142 734.126 -295.647 718.916C-287.736 684.54 -283.963 654.066 -284.085 625.756C-284.096 620.746 -284.058 615.726 -284.017 610.431L-284.017 610.422L-284.012 609.73C-283.835 587.691 -283.653 564.907 -287.419 543.71C-292.629 515.028 -308.499 498.868 -320.889 490.354C-336.675 479.525 -356.307 474.78 -374.746 477.361C-380.308 478.15 -385.718 479.401 -391 480.997ZM-391 572.348L-391 576.17C-385.401 578.964 -380.089 582.556 -375.3 586.955C-360.792 600.258 -351.584 619.708 -349.363 641.676C-347.283 662.581 -348.754 684.797 -350.178 706.296L-350.179 706.304C-350.568 712.158 -350.97 718.215 -351.274 724.025C-352.826 753.124 -358.132 784.245 -367.973 821.956C-370.894 833.06 -374.569 844.616 -378.464 856.837C-382.925 870.85 -387.434 885.05 -391 899.116L-391 910.388C-387.27 893.2 -381.677 875.586 -376.17 858.283L-375.982 857.689C-372.144 845.627 -368.515 834.222 -365.618 823.189C-355.686 785.141 -350.331 753.718 -348.761 724.291C-348.457 718.499 -348.079 712.735 -347.665 706.624C-346.229 684.93 -344.744 662.483 -346.874 641.171C-349.193 618.165 -358.802 597.855 -373.93 583.966C-379.194 579.15 -384.945 575.283 -391 572.348ZM-391 963.061L-391 968.826C-389.268 971.602 -387.322 974.076 -385.201 976.205C-374.101 987.442 -357.968 991.912 -342.268 991.912C-333.918 991.912 -325.679 990.652 -318.388 988.453C-290.524 980.231 -264.314 958.555 -238.968 937.598L-238.949 937.581C-229.023 929.368 -218.757 920.88 -208.564 913.342C-188.257 898.282 -166.909 887.285 -144.302 875.649L-136.33 871.533L-128.455 867.453C-104.722 855.126 -80.179 842.39 -54.6383 831.667C14.4012 803.641 94.8874 784.839 141.07 785.903C173.501 787.18 186.79 804.573 199.634 821.388L199.661 821.424L199.808 821.619C203.49 826.435 206.979 830.993 210.901 835.144C216.791 841.201 224.121 848.74 242.776 842.931C251.089 840.323 261.666 834.966 274.202 827.002C292.408 815.446 311.855 801.406 330.666 787.828L330.821 787.713C336.34 783.722 341.866 779.731 347.361 775.802C405.191 734.863 469.946 681.658 532.572 630.2C564.107 604.285 593.883 579.815 621.645 557.847C653.606 532.854 690.009 504.81 717.625 486.416C732.09 476.767 745.046 469.06 757.563 461.61L758.166 461.255L758.458 461.078C771.274 453.468 783.402 446.258 797.101 437.105C834.465 412.014 875.749 376.991 923.325 330.047C964.013 289.986 1021.81 225.615 1090.46 143.888C1145.32 78.7098 1195.85 15.3589 1244.96 -49.828C1296.74 -118.412 1371.32 -221.886 1432.59 -325.298C1454.88 -362.956 1472.38 -395.239 1486.52 -423.282C1492.47 -437.224 1498.26 -451.326 1503.88 -465.561C1487.16 -429.287 1464.43 -384.623 1430.66 -327.577C1369.48 -224.289 1294.97 -120.931 1243.24 -52.4089C1194.16 12.7248 1143.66 76.0403 1088.84 141.174C1020.24 222.831 962.51 287.14 921.871 327.13C874.404 373.976 833.236 408.902 796.011 433.903C782.514 442.923 770.507 450.062 757.862 457.583L757.856 457.583L757.856 457.592L757.18 457.991C744.443 465.547 731.28 473.37 716.541 483.206C688.859 501.653 652.419 529.715 620.409 554.743C592.623 576.738 562.829 601.216 531.288 627.131L530.856 627.486C468.401 678.793 403.848 731.838 346.217 772.627C341.71 775.855 337.199 779.11 332.687 782.365L329.664 784.546L329.352 784.768C310.615 798.302 291.256 812.271 273.161 823.756C260.771 831.623 250.359 836.9 242.223 839.454C224.672 844.926 218.136 838.195 212.385 832.27C208.548 828.208 205.084 823.676 201.418 818.887L201.415 818.878L201.359 818.807L201.35 818.798C188.774 802.329 174.515 783.66 141.113 782.338C94.7049 781.221 13.9083 800.12 -55.3565 828.253C-80.9708 839.002 -105.528 851.747 -129.271 864.075L-129.337 864.11L-137.218 868.19L-145.184 872.314C-167.871 883.985 -189.304 895.018 -209.751 910.193C-219.779 917.607 -229.847 925.927 -239.598 933.98L-240.239 934.512C-265.414 955.345 -291.448 976.87 -318.924 984.976C-343.126 992.249 -369.786 987.451 -383.752 973.313C-386.758 970.263 -389.174 966.839 -391 963.061ZM-391 1021.21L-391 1024.74C-383.314 1027.62 -374.971 1028.9 -366.756 1028.9C-358.674 1028.9 -350.72 1027.67 -343.692 1025.56C-316.295 1017.46 -290.772 995.796 -266.102 974.83C-257.363 967.416 -248.32 959.744 -239.381 952.826C-216.816 935.328 -193.977 923.266 -167.53 909.306L-161.213 905.963L-160.914 905.803C-135.436 892.331 -109.098 878.398 -81.4266 867.046C-15.6793 840.926 62.6771 823.685 109.121 825.104C143.103 826.621 156.132 845.325 168.722 863.409C171.893 867.959 174.887 872.252 178.222 876.296L178.666 876.828L178.678 876.846C184.437 883.648 190.97 891.373 208.089 887.222C216.81 885.094 228.384 879.613 242.484 870.93C261.91 858.966 282.606 844.536 302.633 830.576L302.949 830.355L305.57 828.528C309.547 825.761 313.522 822.985 317.494 820.244C372.19 782.719 433.014 734.57 491.842 687.99C525.586 661.268 557.468 636.036 586.958 613.757C618.328 590.36 650.904 566.459 676.651 550.113C691.165 540.872 704.2 533.546 716.773 526.477L716.779 526.477L716.785 526.477L717.649 525.99C730.921 518.557 744.638 510.868 759.669 501.165C797.016 476.926 840.411 440.998 888.663 394.365C926.538 357.825 978.624 301.339 1043.47 226.449C1097.9 163.799 1151.07 98.8514 1202.91 31.7045C1259.35 -41.2694 1340.29 -151.218 1405.34 -260.581C1431.36 -304.349 1450.65 -340.588 1465.59 -371.23C1470.72 -381.775 1475.35 -391.629 1479.55 -400.924C1490.37 -424.799 1498.45 -444.843 1505.41 -462.341C1499.3 -449.126 1493 -436.098 1486.53 -423.264L1486.52 -423.247C1469.6 -383.869 1445.24 -333.058 1403.46 -262.798C1338.51 -153.586 1257.65 -43.7351 1201.25 29.1678C1149.45 96.2792 1096.32 161.174 1041.92 223.78C977.127 298.607 925.096 355.04 887.287 391.51C839.145 438.045 795.871 473.884 758.653 498.026C743.683 507.693 730.599 515.027 716.748 522.788L716.456 522.947C703.665 530.131 690.447 537.546 675.641 546.956C649.839 563.337 617.221 587.274 585.808 610.706C556.281 633.002 524.393 658.243 490.631 684.975C431.845 731.519 371.052 779.651 316.41 817.122L301.866 827.242L301.067 827.801C281.21 841.636 260.714 855.924 241.504 867.746C227.581 876.323 216.189 881.724 207.669 883.808C191.658 887.684 185.847 880.81 180.236 874.167L179.798 873.653C176.583 869.751 173.644 865.538 170.534 861.068L170.469 860.979L170.447 860.944C158.117 843.259 144.141 823.215 109.188 821.645C62.5189 820.226 -16.1357 837.521 -82.096 863.72C-109.946 875.143 -136.394 889.138 -161.979 902.672L-162.071 902.726L-168.388 906.06L-168.481 906.113C-194.974 920.1 -217.865 932.188 -240.549 949.784C-249.251 956.507 -258.004 963.939 -266.499 971.141L-267.356 971.868C-291.856 992.683 -317.196 1014.2 -344.191 1022.17C-358.266 1026.41 -376.036 1027 -391 1021.21ZM-391 1063.48L-391 1066.78C-382.721 1066.77 -374.468 1065.43 -366.39 1062.77C-340.039 1054.05 -315.529 1032.57 -291.828 1011.8L-291.783 1011.76C-282.74 1003.83 -273.386 995.637 -264.094 988.293C-242.886 971.486 -221.264 959.824 -196.223 946.325L-191.385 943.709L-191.291 943.656C-166.528 930.281 -140.92 916.446 -113.838 905.218C-48.9424 879.169 32.3837 862.176 79.5277 864.81C113.178 867.205 125.539 886.77 137.496 905.697L137.55 905.776C140.768 910.876 143.808 915.692 147.265 920.188L147.274 920.197C152.652 926.991 159.342 935.443 177.382 930.964C184.471 929.19 193.478 925.288 204.158 919.328C223.25 908.694 244.537 894.335 265.137 880.446L265.329 880.314L267.446 878.886L267.461 878.877C272.401 875.551 277.309 872.243 282.161 869.006C335.066 834.151 393.989 789.291 450.99 745.895L451.094 745.816L451.234 745.709L451.24 745.709L451.252 745.7L451.258 745.691C486.225 719.067 519.251 693.923 549.654 672.008C579.886 650.492 614.409 626.377 641.179 610.591C654.196 602.91 666.117 596.631 677.649 590.565L677.686 590.547L678.069 590.343C691.202 583.416 704.784 576.259 719.663 567.142C822.721 504.473 997.708 323.334 1176.33 94.4524C1284.94 -44.0809 1350.56 -147.582 1380.02 -196.946C1410.02 -247.233 1430.64 -286.816 1446.6 -321.156C1449.34 -327.063 1451.95 -332.828 1454.45 -338.451C1464.24 -360.588 1472.27 -380.747 1479.97 -400.622L1479.56 -400.933C1475.36 -391.647 1470.74 -381.775 1465.59 -371.239C1446.99 -325.653 1423.11 -274.408 1378.21 -199.11C1309.68 -84.2574 1221.31 32.547 1174.73 91.9513C996.296 320.611 821.564 501.502 718.726 564.046C703.799 573.19 690.77 580.055 676.98 587.327L676.858 587.389C665.296 593.474 653.344 599.779 640.272 607.486C613.429 623.318 578.864 647.459 548.583 669.011C518.107 690.979 485.008 716.176 449.974 742.854L449.743 743.031C392.818 786.373 333.962 831.179 281.163 865.955C275.601 869.671 269.966 873.458 264.307 877.28L264.119 877.405C243.561 891.276 222.313 905.608 203.294 916.197C192.766 922.069 183.912 925.927 176.98 927.656C160.071 931.851 154.123 924.33 148.885 917.705L148.878 917.696C145.5 913.315 142.482 908.535 139.287 903.47C127.578 884.925 114.3 863.915 79.6434 861.449C32.2742 858.815 -49.3684 875.861 -114.489 901.98C-141.674 913.262 -167.323 927.115 -192.128 940.507L-192.225 940.56L-197.069 943.177C-222.189 956.728 -243.89 968.436 -265.25 985.358C-274.396 992.586 -283.57 1000.61 -292.461 1008.4L-293.03 1008.9C-316.581 1029.54 -340.941 1050.89 -366.926 1059.49C-374.822 1062.14 -382.898 1063.48 -391 1063.48ZM-391 1097.98L-391 1101L-390.029 1101C-364.554 1091.99 -340.934 1070.56 -318.078 1049.83L-318.048 1049.81C-309.516 1042.07 -300.686 1034.06 -291.935 1026.87C-270.029 1008.81 -247.429 996.275 -221.265 981.766L-221.258 981.766L-218.508 980.249C-193.314 966.263 -168.503 952.817 -141.916 941.935C-80.9641 917.758 -1.85307 901.972 46.1855 904.393C82.5961 906.699 95.0366 928.099 107.066 948.8L107.071 948.809L107.091 948.844C109.578 953.128 111.928 957.163 114.507 961.083L115.006 961.819C120.16 969.456 126.008 978.112 142.165 975.744C150.46 974.511 161.535 970.085 175.088 962.582C193.089 952.613 212.579 940.002 231.441 927.807L231.725 927.62L233.501 926.468L233.522 926.459L233.543 926.441C238.302 923.363 243.05 920.286 247.779 917.27C299.03 884.828 356.173 843.002 411.423 802.559C447.735 775.97 482.032 750.871 513.494 729.24C564.016 694.5 599.646 675.609 634.108 657.339C649.102 649.383 664.596 641.162 681.124 631.761C723.132 607.327 772.102 569.093 826.658 518.105C868.751 478.833 923.691 421.398 989.931 347.413C1047.38 283.352 1100.4 220.516 1152.06 155.311C1199.16 96.0044 1288.43 -20.6579 1357.24 -135.724C1391.69 -193.337 1413.76 -237.362 1430.13 -274.638C1412.35 -225.815 1389.78 -169.94 1335.65 -79.3972C1263.05 42.0367 1167.5 164.375 1117.01 226.493C1069.09 285.605 1020.13 342.562 967.305 400.618C897.766 477.157 836.182 540.091 789.214 582.636C736.837 630.155 689.559 665.977 648.713 689.081C628.899 700.069 610.813 709.027 593.323 717.683L593.317 717.692L593.062 717.816C561.222 733.585 528.294 749.904 483.061 779.19C448.903 801.335 411.216 827.818 371.326 855.871C316.045 894.726 258.891 934.893 207.815 965.668C202.539 968.932 197.272 972.214 192.011 975.531L191.954 975.566C163.123 993.668 130.462 1014.17 111.209 1016.51C95.3938 1018.51 90.2571 1009.97 85.2859 1001.7L84.6456 1000.66C82.5887 997.162 80.6536 993.561 78.6149 989.757L78.5997 989.73C67.0714 968.276 54.0066 943.957 15.6244 941.013C-35.031 937.82 -115.45 953.34 -175.599 977.925C-201.408 988.807 -225.707 1002.4 -250.402 1016.56C-277.494 1032.08 -299.895 1045.38 -321.072 1063.7C-329.082 1070.61 -337.181 1078.22 -345.02 1085.6L-345.213 1085.78C-350.627 1090.88 -356.082 1096.02 -361.594 1101L-357.441 1101C-352.914 1096.85 -348.426 1092.63 -343.965 1088.42C-336.097 1081.01 -327.955 1073.35 -319.916 1066.41C-298.878 1048.23 -276.557 1034.96 -249.568 1019.49C-224.922 1005.38 -200.683 991.805 -174.972 980.976C-115.037 956.471 -34.9276 941.004 15.5026 944.179C52.843 947.052 65.0322 969.739 76.8136 991.681L76.9968 992.018C78.9107 995.575 80.883 999.237 82.9235 1002.71L83.5624 1003.77L83.5746 1003.79C88.6712 1012.25 94.445 1021.83 111.391 1019.68C130.998 1017.29 163.765 996.719 192.721 978.537L192.912 978.422L194.572 977.384C199.421 974.334 204.158 971.362 208.704 968.577C259.775 937.793 316.909 897.643 372.167 858.815L372.317 858.709L373.165 858.115C412.737 830.31 450.114 804.04 483.986 782.081C529.134 752.84 562.007 736.556 593.798 720.814L594.309 720.557L594.315 720.557C611.744 711.919 629.775 702.987 649.535 692.025C690.526 668.833 737.926 632.923 790.419 585.296C837.441 542.699 899.087 479.702 968.68 403.11C1021.54 345.018 1070.54 288.026 1118.48 228.87C1169.03 166.699 1264.68 44.2452 1337.36 -77.3484C1393.24 -170.827 1415.6 -227.482 1433.7 -277.512L1431.94 -278.78C1441.2 -300.137 1448.63 -319.32 1455.5 -337.644L1454.45 -338.433C1451.95 -332.801 1449.34 -327.036 1446.6 -321.13C1428.51 -274.435 1404.61 -219.997 1355.48 -137.808C1286.76 -22.9107 1197.57 93.6453 1150.52 152.881C1098.9 218.05 1045.9 280.842 988.501 344.859C922.309 418.79 867.424 476.173 825.386 515.4C770.952 566.272 722.116 604.409 680.248 628.745C663.762 638.146 648.281 646.359 633.299 654.297L633.226 654.332C598.739 672.629 563.06 691.555 512.49 726.322C481.052 747.944 446.804 773.008 410.546 799.553L410.534 799.562L410.364 799.686C355.138 840.111 298.032 881.91 246.829 914.317C242.51 917.084 238.166 919.896 233.818 922.698L233.814 922.707L233.8 922.716L233.793 922.716L230.764 924.676L230.629 924.765L230.624 924.765C211.754 936.986 192.241 949.624 174.248 959.575C160.896 966.963 150.022 971.336 141.934 972.524C126.94 974.724 121.74 967.061 116.717 959.647L116.686 959.602L116.199 958.875C113.673 955.035 111.336 951.017 108.866 946.769C97.091 926.503 83.7432 903.533 46.289 901.156C-1.96873 898.726 -81.3779 914.565 -142.543 938.822C-169.234 949.74 -194.099 963.221 -219.341 977.225L-222.092 978.75C-248.345 993.304 -271.019 1005.88 -293.085 1024.08C-301.885 1031.31 -310.733 1039.33 -319.283 1047.09C-342.116 1067.8 -365.715 1089.2 -391 1097.98ZM-345.197 1101L-341.141 1101C-322.495 1084.84 -303.13 1072.89 -280.026 1059.11C-255.093 1044.24 -230.49 1029.94 -203.592 1018.57C-143.188 993.854 -60.4865 979.211 -11.2186 984.515C24.3813 988.923 35.8968 1012.12 47.0314 1034.54L47.0375 1034.55C48.924 1038.37 50.8713 1042.3 52.9038 1046.02L53.2081 1046.55L53.2221 1046.58C58.2396 1055.55 63.9228 1065.71 81.2013 1063.79C87.8527 1063.04 96.287 1060.33 106.273 1055.72C126.379 1046.46 149.856 1032.18 172.561 1018.37L175.568 1016.54C180.249 1013.69 184.883 1010.87 189.431 1008.15C235.117 981.136 285.556 947.008 334.333 914.007L334.618 913.812C374.855 886.584 412.853 860.873 447.376 839.578C492.104 811.951 525.129 796.697 557.066 781.948C575.407 773.478 594.37 764.716 615.231 753.745C655.267 732.255 702.502 697.879 755.635 651.574C819.867 595.771 896.543 515.347 949.56 457.707C1003.46 399.234 1052.73 342.65 1100.17 284.736C1151.1 222.76 1247.38 100.652 1319.95 -20.8531C1376.09 -114.846 1398.19 -172.823 1414.49 -219.802L1412.54 -221.15C1396.29 -174.339 1374.27 -116.54 1318.28 -22.822C1245.82 98.5232 1149.64 220.507 1098.76 282.43C1051.34 340.3 1002.11 396.849 948.245 455.286C895.271 512.89 818.655 593.243 754.503 648.984C701.486 695.174 654.366 729.47 614.47 750.889C593.846 761.735 575.054 770.418 556.883 778.817L556.39 779.048L556.378 779.057C524.387 793.824 491.312 809.096 446.499 836.785C411.94 858.106 373.93 883.826 333.681 911.062L333.099 911.452C284.425 944.383 234.136 978.395 188.585 1005.34C184.144 1008 179.633 1010.75 175.073 1013.52L171.704 1015.57C149.048 1029.36 125.619 1043.6 105.598 1052.81C95.782 1057.35 87.5119 1060.02 81.037 1060.74C64.9105 1062.52 59.8291 1053.44 54.9303 1044.67L54.6382 1044.14C52.7474 1040.68 50.9832 1037.13 49.1266 1033.41L49.1248 1033.4L48.8327 1032.82L48.829 1032.81C37.9427 1010.86 25.6063 986.005 -11.0239 981.464C-60.5291 976.143 -143.565 990.839 -204.189 1015.65C-231.208 1027.07 -255.866 1041.39 -280.859 1056.3C-305.261 1070.85 -325.51 1083.39 -345.197 1101ZM-317.992 1101L-312.818 1101C-310.614 1099.62 -308.373 1098.22 -306.096 1096.81C-284.444 1083.34 -259.043 1067.99 -231.78 1056.39C-173.074 1032.16 -91.1207 1018.4 -41.1591 1024.38C-4.97739 1029.27 6.35068 1053.37 17.3021 1076.67L17.31 1076.69L17.6447 1077.4C19.5355 1081.42 21.484 1085.56 23.5293 1089.44L23.6632 1089.7C25.7499 1093.58 27.9596 1097.67 31.1125 1101L34.9767 1101C30.5854 1097.67 27.9285 1092.74 25.3245 1087.91L25.1907 1087.68C23.0729 1083.63 21.1134 1079.47 19.0443 1075.06C8.33392 1052.27 -3.79438 1026.46 -40.9948 1021.44C-91.1937 1015.42 -173.475 1029.24 -232.407 1053.54C-259.791 1065.2 -285.259 1080.59 -306.972 1094.1C-310.744 1096.44 -314.413 1098.74 -317.992 1101ZM67.3666 1101L75.24 1101C93.7562 1093.23 115.903 1080.18 136.281 1068.18C141.77 1064.94 147.113 1061.79 152.206 1058.86C197.841 1033.14 248.351 1000.36 297.199 968.648L297.651 968.356C341.481 939.904 382.876 913.04 420.082 891.551C461.037 867.959 492.225 854.638 522.397 841.76L522.403 841.76C541.28 833.707 560.802 825.379 582.412 814.63C624.73 793.176 675.337 757.292 732.82 707.981C780.53 667.157 842.011 607.061 915.536 529.36C975.563 466.053 1030.7 403.899 1084.1 339.387C1135.46 277.526 1232.45 155.577 1304.94 33.9659C1361.39 -60.7015 1382.47 -118.048 1397.81 -164.353L1395.9 -165.612C1380.62 -119.467 1359.61 -62.3419 1303.33 32.0505C1230.93 153.502 1134.04 275.326 1082.73 337.134C1029.36 401.611 974.255 463.721 914.264 526.992C840.788 604.631 779.38 664.665 731.719 705.444C674.351 754.667 623.878 790.453 581.7 811.836C560.145 822.559 540.641 830.878 521.783 838.922L521.776 838.922L521.709 838.949C491.519 851.835 460.289 865.165 419.273 888.801C381.896 910.388 340.32 937.377 296.304 965.952C247.48 997.65 196.989 1030.43 151.397 1056.11C146.297 1059.06 140.942 1062.21 135.453 1065.44L135.311 1065.52C112.249 1079.1 86.9271 1094.01 67.3666 1101ZM-17.5427 1101C-27.2551 1082.54 -41.212 1065.65 -70.4058 1061.36C-121.25 1054.7 -202.765 1067.71 -260.023 1091.66C-266.757 1094.57 -273.344 1097.7 -279.788 1101L-273.673 1101C-268.997 1098.7 -264.25 1096.5 -259.426 1094.43C-202.393 1070.57 -121.213 1057.6 -70.5945 1064.25C-42.9348 1068.3 -29.5809 1083.4 -20.0651 1101L-17.5427 1101ZM130.783 1101L125.138 1101C167.777 1077.73 214.843 1048.36 260.369 1019.96L261.177 1019.46C305.582 991.77 347.517 965.624 385.34 944.915C425.821 922.743 456.924 910.548 487.01 898.752C508.273 890.415 530.253 881.795 555.173 869.759C598.617 848.323 652.523 810.754 711.065 761.097C756.487 722.641 812.509 669.099 882.352 597.393C948.215 529.856 1009.26 462.302 1068.96 390.853C1157.04 285.774 1237.89 174.486 1290.77 85.5125C1347.45 -9.82003 1367.46 -66.4218 1381.77 -112.008L1383.64 -110.837C1369.27 -65.0825 1349.19 -8.2413 1292.33 87.3662C1239.39 176.455 1158.44 287.875 1070.27 393.061C1010.54 464.554 949.463 532.145 883.557 599.726C813.666 671.476 757.588 725.08 712.117 763.58C653.46 813.335 599.415 850.993 555.843 872.491C530.868 884.553 508.851 893.191 487.558 901.537L487.406 901.599C457.423 913.359 426.405 925.519 386.083 947.602C348.073 968.418 305.877 994.741 261.209 1022.61C217.399 1049.93 172.159 1078.16 130.783 1101ZM-100.886 1101C-120.601 1098.47 -143.863 1098.61 -168.161 1101L-100.886 1101ZM179.309 1101C194.551 1092 209.851 1082.85 224.974 1073.79L225.098 1073.72C272.723 1045.21 317.7 1018.3 357.998 997.73C396.008 978.351 425.985 967.619 454.988 957.243C477.334 949.252 500.447 940.977 526.864 928.836C571.111 908.065 625.345 871.577 683.723 823.33C789.531 736.397 924.524 600.01 1044.82 458.497C1098.15 396.13 1198.83 272.958 1273.92 148.677C1333.09 50.7549 1355.1 -9.54513 1370.07 -60.0982L1371.88 -59.034C1356.86 -8.25924 1334.77 52.2626 1275.42 150.478C1200.23 274.918 1099.45 398.214 1046.08 460.634C925.711 602.245 790.614 738.721 684.715 825.725C626.227 874.07 571.854 910.637 527.478 931.47C501.067 943.611 477.985 951.868 455.676 959.859L455.469 959.93C426.515 970.289 396.58 981.003 358.662 1000.34C318.442 1020.86 273.518 1047.74 225.956 1076.21L225.871 1076.26C212.132 1084.49 198.248 1092.81 184.394 1101L179.309 1101ZM236.385 1101L241.487 1101C273.363 1083 304.622 1066 332.61 1052.8C368.356 1035.96 397.244 1026.63 425.176 1017.62L425.468 1017.53C448.745 1010.01 472.837 1002.23 500.635 990.129C544.816 970.52 597.991 936.055 658.693 887.719C714.399 843.49 785.575 778.037 864.503 698.455C921.664 640.905 973.835 584.933 1023.97 527.346C1078.78 464.599 1182.43 340.273 1260.76 212.676C1325.57 107.091 1348.55 41.5401 1362.47 -8.64938L1360.71 -9.62496C1346.83 40.3516 1323.95 105.645 1259.33 210.92C1181.09 338.367 1077.54 462.568 1022.79 525.271C972.666 582.831 920.532 638.767 863.402 696.274C784.516 775.81 713.407 841.21 657.756 885.387C598.021 932.951 543.495 968.294 500.063 987.584C472.229 999.699 448.094 1007.49 424.756 1015.02L424.652 1015.05L424.646 1015.05C396.701 1024.07 367.793 1033.39 332.007 1050.26C302.691 1064.09 269.807 1082.07 236.385 1101ZM311.333 1101L317.8 1101C346.969 1089.06 371.814 1081.94 395.953 1075.03L396.036 1075.01C421.896 1067.59 448.647 1059.92 480.377 1046.38C526.042 1026.46 583.1 989.934 645.372 940.738C698.48 898.885 764.008 839.791 840.131 765.088C903.481 702.996 961.64 641.605 1017.91 577.421C1073.03 514.735 1177.17 390.489 1255.25 262.688C1320.47 155.932 1342.44 90.4879 1355.34 40.5645L1353.61 39.6775C1340.77 89.3969 1318.88 154.557 1253.86 261.003C1175.88 388.654 1071.83 512.775 1016.76 575.407C960.514 639.557 902.398 700.903 839.084 762.959C763.004 837.61 697.531 896.668 644.471 938.485C582.315 987.584 525.379 1024.04 479.841 1043.92C448.161 1057.43 421.433 1065.09 395.588 1072.5C369.786 1079.88 343.175 1087.51 311.333 1101ZM459.346 1101L465.346 1101C510.914 1080.81 565.756 1046.34 624.925 1000.59C744.042 909.04 886.356 772.316 1015.38 625.49C1070.57 563.026 1174.71 439.18 1252.19 311.494C1317.92 203.159 1339.18 135.578 1350.36 88.8205L1348.69 88.0223C1337.57 134.584 1316.39 201.873 1250.85 309.879C1173.46 437.415 1069.41 561.155 1014.28 623.557C885.328 770.294 743.111 906.921 624.079 998.413C562.604 1045.93 505.845 1081.27 459.346 1101ZM544.737 1101L548.753 1101C566.529 1089.25 584.974 1076.26 603.924 1062.15C662.953 1018.31 734.761 956.258 817.341 877.733C881.646 816.67 940.852 755.882 998.323 691.919C1057.7 626.04 1169.44 495.427 1250.66 360.716C1316.87 250.928 1337.17 183.16 1347.45 136.385L1345.83 135.675C1335.59 182.228 1315.38 249.704 1249.37 359.164C1168.23 493.715 1056.6 624.222 997.264 690.039C939.829 753.966 880.66 814.719 816.38 875.755C733.855 954.236 662.107 1016.24 603.127 1060.04C583.026 1075.01 563.498 1088.71 544.737 1101ZM611.354 1101L614.805 1101C732.175 1011.31 862.775 889.652 984.636 756.316C1091.97 639.539 1189.17 512.97 1251.3 409.07C1317.71 298.084 1337.03 230.156 1346.45 183.381L1344.88 182.752C1335.51 229.305 1316.27 296.94 1250.05 407.58C1187.99 511.365 1090.88 637.809 983.632 754.489C860.913 888.757 729.339 1011.18 611.354 1101ZM672.556 1101L675.623 1101C708.849 1073.44 744.462 1042.43 782.264 1008.12C854.767 942.396 921.269 876.491 985.574 806.621C1093.61 689.649 1191.16 562.671 1253.21 458.222C1320.91 344.3 1339.3 273.499 1347.24 230.156L1345.74 229.606C1337.82 272.754 1319.51 343.245 1252.01 456.82C1190.05 561.155 1092.58 688.017 984.624 804.883C920.362 874.708 853.89 940.587 781.419 1006.28C742.77 1041.36 706.415 1072.98 672.556 1101ZM734.372 1101L737.226 1101C821.333 1028.15 908.112 943.939 989.596 855.489C1097.82 738.667 1195.27 611.611 1256.95 506.877C1324.92 391.58 1342.39 320.363 1349.62 276.816L1348.18 276.337C1340.98 319.68 1323.57 390.587 1255.8 505.538C1194.19 610.156 1096.83 737.106 988.683 853.822C906.566 942.946 819.081 1027.78 734.372 1101ZM794.07 1101L797.004 1101C858.339 1045.36 919.845 984.879 979.409 921.377C1044.52 852.314 1166.84 714.615 1254.47 568.428C1311.13 473.964 1342.58 396.148 1353.44 323.564L1352.05 323.156C1341.24 395.403 1309.88 472.926 1253.38 567.142C1165.84 713.178 1043.62 850.771 978.551 919.789C919.108 983.149 856.568 1044.47 794.07 1101ZM853.921 1101L856.349 1101C894.943 1064.5 933.196 1026.48 970.378 987.575C1036.82 918.406 1161.9 780.041 1253.09 630.555C1313.87 530.965 1348.35 445.912 1358.49 370.543L1357.16 370.188C1347.07 445.22 1312.69 529.981 1252.07 629.304C1160.96 778.657 1035.97 916.916 969.575 986.04C931.869 1025.5 893.062 1064.03 853.921 1101ZM913.351 1101L915.585 1101C936.439 1080.43 957.106 1059.47 977.51 1038.18C1044.03 969.074 1169.18 830.754 1260.06 680.762C1321.17 579.939 1355.36 493.964 1364.55 417.912L1363.28 417.602C1354.13 493.325 1320.04 579.017 1259.08 679.591C1168.29 829.45 1043.23 967.664 976.756 1036.73C955.87 1058.52 934.705 1079.96 913.351 1101ZM972.082 1101L974.133 1101C977.851 1097.17 981.557 1093.32 985.257 1089.47C1051.83 1020.43 1177.04 882.132 1267.65 731.59C1329.1 629.543 1363.04 542.583 1371.38 465.752L1370.18 465.485C1361.87 541.989 1328.03 628.674 1266.72 730.472C1176.19 880.881 1051.07 1019.1 984.539 1088.1C980.401 1092.41 976.245 1096.71 972.082 1101ZM1029.57 1101L1031.46 1101C1104.27 1022.08 1201.69 906.663 1275.61 783.074C1337.42 679.804 1371.15 591.859 1378.76 514.185L1377.62 513.954C1370.06 591.309 1336.4 679.006 1274.74 782.028C1200.48 906.184 1102.46 1022.09 1029.57 1101ZM1085.53 1101L1087.05 1101C1103.92 1081.66 1120.3 1062.25 1136.02 1043C1194.94 970.839 1244.63 900.916 1283.7 835.215C1345.02 732.175 1379.58 640.665 1386.42 563.23L1385.34 563.035C1378.53 640.186 1344.06 731.43 1282.87 834.248C1251.05 887.772 1188.4 983.149 1085.53 1101ZM1138.83 1101L1140.25 1101C1141.28 1099.74 1142.32 1098.47 1143.35 1097.21C1202.37 1024.9 1252.13 954.769 1291.24 888.73C1353.2 784.236 1387.81 691.449 1394.1 612.941L1393.09 612.772C1386.82 691.005 1352.3 783.544 1290.46 887.825C1263.64 933.101 1214.97 1008.08 1138.83 1101ZM1189.24 1101L1190.62 1101C1232.55 1046.26 1268.85 992.994 1298.86 942.095C1361.19 836.519 1395.74 742.72 1401.56 663.299L1400.62 663.166C1394.82 742.312 1360.33 835.871 1298.12 941.252C1276.73 977.535 1241.39 1032.82 1189.24 1101ZM1236.48 1101L1237.72 1101C1255.6 1075.72 1272.95 1049.74 1289.37 1023.24C1328.64 959.939 1358.75 899.736 1378.86 844.288C1395.92 797.3 1405.9 753.558 1408.51 714.295L1407.65 714.18C1405.03 753.292 1395.09 796.892 1378.09 843.729C1358 899.08 1327.93 959.203 1288.71 1022.43C1272.11 1049.21 1254.57 1075.47 1236.48 1101ZM1279.64 1101L1280.73 1101C1285.73 1093.26 1290.65 1085.47 1295.49 1077.63C1334.8 1014.09 1364.94 953.536 1385.09 897.652C1402.29 849.946 1412.26 805.601 1414.73 765.851L1413.92 765.744C1407.16 874.788 1345.46 995.131 1294.89 1076.89C1289.89 1084.97 1284.8 1093.02 1279.64 1101ZM1318.29 1101L1319.24 1101C1365.63 1020.66 1414.29 914.956 1419.94 817.876L1419.21 817.805C1413.56 914.876 1364.72 1020.7 1318.29 1101ZM1351.75 1101L1352.56 1101C1388.46 1029.84 1419.67 947.381 1423.91 870.256L1423.25 870.176C1419 947.31 1387.69 1029.84 1351.75 1101ZM1379.52 1101L1380.22 1101C1404.72 1043.38 1423.34 981.597 1426.42 922.858L1425.83 922.796C1422.74 981.535 1404.06 1043.36 1379.52 1101ZM1400.94 1101L1401.5 1101C1419.14 1048.19 1425.7 1006.45 1427.26 975.486L1426.73 975.433C1424.66 1016.62 1414.96 1059.29 1400.94 1101ZM1415.13 1101L1415.61 1101C1422.28 1072.18 1425.29 1047.87 1426.25 1027.96L1425.79 1027.92C1424.83 1047.82 1421.81 1072.16 1415.13 1101ZM1421.21 1101L1421.61 1101C1422.4 1093.55 1422.92 1086.58 1423.22 1080.07L1422.83 1080.04C1422.53 1086.55 1422.01 1093.54 1421.21 1101ZM-391 861.662C-390.245 858.877 -389.503 856.092 -388.773 853.307C-379.298 817.025 -373.924 786.95 -371.879 758.676C-371.484 753.248 -371.028 747.589 -370.571 742.1L-370.553 741.887C-368.733 719.697 -366.852 696.744 -368.326 674.82C-369.871 652.16 -378.33 632.249 -391 618.041L-391 622.519C-379.687 636.009 -372.178 654.359 -370.766 675.148C-369.305 696.779 -371.18 719.617 -373.005 741.701L-373.089 742.72C-373.513 747.891 -373.949 753.195 -374.32 758.321C-376.34 786.223 -381.641 815.943 -391 851.826L-391 861.662ZM-391 743.811C-390.099 730.996 -389.661 718.153 -390.44 705.613C-390.568 703.511 -390.757 701.435 -391 699.387L-391 743.811ZM1540.57 -549.532C1543.28 -555.625 1545.81 -561.47 1548.22 -567.093C1545.7 -561.221 1543.15 -555.359 1540.57 -549.532ZM1540.57 -549.532C1540.2 -548.689 1539.83 -547.847 1539.44 -546.996L1538.65 -545.222L1538.67 -545.239C1539.3 -546.667 1539.93 -548.095 1540.57 -549.532Z" fill="white"/>
</g>
</g>
<defs>
<clipPath id="clip0_495_14455">
<rect width="1280" height="1046" fill="white"/>
</clipPath>
</defs>
</svg>
