<svg viewBox="0 0 703 434" fill="none" xmlns="http://www.w3.org/2000/svg">
<rect width="703" height="433.592" rx="19.049" fill="white"/>
<rect x="13.6055" y="14.5135" width="149.671" height="404.565" rx="19.049" fill="black"/>
<path d="M37.2961 48.3711H34.8406L32.0192 44.3777L31.1077 45.3141V48.3711H29.2288V39.231H31.1077V42.995L34.636 39.231H37.1039L33.3586 42.995L37.2961 48.3711ZM38.4867 42.3439C38.9538 41.7486 39.7558 41.4509 40.8926 41.4509C41.6326 41.4509 42.2899 41.5977 42.8645 41.8912C43.4391 42.1847 43.7264 42.7386 43.7264 43.553V46.6535C43.7264 46.8684 43.7305 47.1289 43.7388 47.4348C43.7512 47.6663 43.7864 47.8234 43.8442 47.906C43.9021 47.9887 43.9889 48.0569 44.1047 48.1107V48.3711H42.1824C42.1287 48.2347 42.0915 48.1065 42.0708 47.9866C42.0501 47.8668 42.0336 47.7303 42.0212 47.5774C41.7773 47.842 41.4962 48.0673 41.1779 48.2533C40.7975 48.4724 40.3676 48.5819 39.8881 48.5819C39.2763 48.5819 38.7699 48.4083 38.3689 48.0611C37.972 47.7097 37.7736 47.2136 37.7736 46.5728C37.7736 45.7419 38.094 45.1404 38.7347 44.7684C39.0861 44.5658 39.6028 44.4211 40.2849 44.3343L40.8864 44.2599C41.213 44.2186 41.4466 44.1669 41.5871 44.1049C41.8393 43.9974 41.9654 43.83 41.9654 43.6026C41.9654 43.3257 41.8682 43.1355 41.6739 43.0322C41.4838 42.9247 41.2027 42.8709 40.8306 42.8709C40.4131 42.8709 40.1175 42.9743 39.9439 43.181C39.8199 43.3339 39.7372 43.5406 39.6959 43.8011H37.9906C38.0278 43.2099 38.1932 42.7242 38.4867 42.3439ZM39.8013 47.0937C39.9666 47.2301 40.1692 47.2983 40.409 47.2983C40.7893 47.2983 41.1386 47.1867 41.4569 46.9635C41.7793 46.7403 41.9468 46.3331 41.9592 45.7419V45.0846C41.8476 45.1549 41.7339 45.2128 41.6181 45.2583C41.5065 45.2996 41.3515 45.3389 41.1531 45.3761L40.7562 45.4505C40.3841 45.5166 40.1175 45.5972 39.9563 45.6923C39.6835 45.8535 39.547 46.1036 39.547 46.4426C39.547 46.7444 39.6318 46.9614 39.8013 47.0937ZM48.0484 46.5976L49.4436 41.6122H51.3225L49.0033 48.2595C48.5569 49.541 48.2034 50.3347 47.943 50.6406C47.6826 50.9507 47.1617 51.1057 46.3804 51.1057C46.2233 51.1057 46.0972 51.1036 46.0021 51.0995C45.907 51.0995 45.7644 51.0933 45.5743 51.0809V49.6671L45.7975 49.6795C45.9711 49.6877 46.1365 49.6815 46.2936 49.6609C46.4507 49.6402 46.5829 49.5927 46.6904 49.5183C46.7938 49.448 46.8888 49.3012 46.9757 49.078C47.0666 48.8548 47.1038 48.7183 47.0873 48.6687L44.6069 41.6122H46.5726L48.0484 46.5976ZM52.6246 42.3439C53.0918 41.7486 53.8937 41.4509 55.0306 41.4509C55.7705 41.4509 56.4278 41.5977 57.0024 41.8912C57.5771 42.1847 57.8644 42.7386 57.8644 43.553V46.6535C57.8644 46.8684 57.8685 47.1289 57.8768 47.4348C57.8892 47.6663 57.9243 47.8234 57.9822 47.906C58.0401 47.9887 58.1269 48.0569 58.2426 48.1107V48.3711H56.3203C56.2666 48.2347 56.2294 48.1065 56.2087 47.9866C56.1881 47.8668 56.1715 47.7303 56.1591 47.5774C55.9152 47.842 55.6341 48.0673 55.3158 48.2533C54.9355 48.4724 54.5056 48.5819 54.026 48.5819C53.4142 48.5819 52.9078 48.4083 52.5068 48.0611C52.11 47.7097 51.9115 47.2136 51.9115 46.5728C51.9115 45.7419 52.2319 45.1404 52.8727 44.7684C53.2241 44.5658 53.7408 44.4211 54.4229 44.3343L55.0244 44.2599C55.3509 44.2186 55.5845 44.1669 55.7251 44.1049C55.9772 43.9974 56.1033 43.83 56.1033 43.6026C56.1033 43.3257 56.0062 43.1355 55.8119 43.0322C55.6217 42.9247 55.3406 42.8709 54.9686 42.8709C54.551 42.8709 54.2555 42.9743 54.0818 43.181C53.9578 43.3339 53.8751 43.5406 53.8338 43.8011H52.1286C52.1658 43.2099 52.3311 42.7242 52.6246 42.3439ZM53.9392 47.0937C54.1046 47.2301 54.3071 47.2983 54.5469 47.2983C54.9272 47.2983 55.2765 47.1867 55.5948 46.9635C55.9173 46.7403 56.0847 46.3331 56.0971 45.7419V45.0846C55.9855 45.1549 55.8718 45.2128 55.7561 45.2583C55.6445 45.2996 55.4894 45.3389 55.291 45.3761L54.8942 45.4505C54.5221 45.5166 54.2555 45.5972 54.0942 45.6923C53.8214 45.8535 53.685 46.1036 53.685 46.4426C53.685 46.7444 53.7697 46.9614 53.9392 47.0937ZM65.6402 48.3711H63.5071L61.8887 45.4815L61.157 46.2442V48.3711H59.4208V39.262H61.157V44.1855L63.3583 41.6432H65.5472L63.1847 44.2289L65.6402 48.3711ZM75.8903 44.0367H74.0796C74.0465 43.7845 73.9618 43.5572 73.8254 43.3546C73.6269 43.0818 73.319 42.9453 72.9014 42.9453C72.3062 42.9453 71.899 43.2409 71.6799 43.8321C71.5641 44.1462 71.5062 44.5638 71.5062 45.0846C71.5062 45.5807 71.5641 45.9796 71.6799 46.2814C71.8907 46.8436 72.2876 47.1247 72.8704 47.1247C73.2838 47.1247 73.5773 47.0131 73.751 46.7899C73.9246 46.5666 74.03 46.2773 74.0672 45.9218H75.8717C75.8303 46.4592 75.636 46.9676 75.2888 47.4472C74.7348 48.2202 73.9142 48.6067 72.827 48.6067C71.7398 48.6067 70.9399 48.2843 70.4273 47.6394C69.9147 46.9945 69.6584 46.1574 69.6584 45.128C69.6584 43.9664 69.9416 43.0632 70.5079 42.4183C71.0743 41.7734 71.8556 41.4509 72.8518 41.4509C73.6993 41.4509 74.3917 41.6411 74.9291 42.0214C75.4707 42.4017 75.791 43.0735 75.8903 44.0367ZM77.149 39.231H78.9163V48.3711H77.149V39.231ZM84.9807 47.4162C84.9642 47.4368 84.9228 47.4988 84.8567 47.6022C84.7905 47.7055 84.712 47.7965 84.6211 47.875C84.3441 48.1231 84.0754 48.2925 83.8149 48.3835C83.5586 48.4744 83.2569 48.5199 82.9096 48.5199C81.9092 48.5199 81.2354 48.1603 80.8881 47.441C80.6938 47.0441 80.5967 46.4592 80.5967 45.6861V41.6122H82.4074V45.6861C82.4074 46.0706 82.4528 46.3599 82.5438 46.5542C82.705 46.8974 83.0212 47.0689 83.4925 47.0689C84.0961 47.0689 84.5094 46.825 84.7327 46.3372C84.8484 46.0726 84.9063 45.7233 84.9063 45.2893V41.6122H86.6983V48.3711H84.9807V47.4162ZM92.0807 48.5509C91.5226 48.5509 91.0741 48.4393 90.7351 48.2161C90.5325 48.0838 90.3134 47.8523 90.0778 47.5216V48.3711H88.3478V39.2434H90.1088V42.4927C90.332 42.1785 90.578 41.9387 90.8467 41.7734C91.165 41.5667 91.5702 41.4633 92.0621 41.4633C92.9509 41.4633 93.6454 41.7837 94.1456 42.4245C94.6499 43.0652 94.9021 43.892 94.9021 44.9048C94.9021 45.9548 94.654 46.825 94.158 47.5154C93.6619 48.2057 92.9695 48.5509 92.0807 48.5509ZM93.048 45.0908C93.048 44.6113 92.986 44.2145 92.862 43.9003C92.6264 43.305 92.1923 43.0074 91.5598 43.0074C90.9191 43.0074 90.4788 43.2988 90.239 43.8817C90.115 44.1917 90.053 44.5927 90.053 45.0846C90.053 45.6634 90.1812 46.1429 90.4375 46.5232C90.6938 46.9036 91.0844 47.0937 91.6094 47.0937C92.0642 47.0937 92.4176 46.9098 92.6698 46.5418C92.9219 46.1739 93.048 45.6903 93.048 45.0908Z" fill="white"/>
<g clip-path="url(#clip0_1_169)">
<path fill-rule="evenodd" clip-rule="evenodd" d="M136.443 42.0502C136.797 41.696 137.373 41.6951 137.728 42.0482L142.232 46.5235L146.722 42.0336C147.076 41.6794 147.652 41.6784 148.007 42.0315C148.363 42.3846 148.363 42.958 148.009 43.3123L142.878 48.4436C142.524 48.7978 141.948 48.7988 141.593 48.4457L136.445 43.331C136.09 42.9779 136.089 42.4045 136.443 42.0502Z" fill="white"/>
</g>
<rect x="28.2266" y="77" width="22" height="22" rx="7.25677" fill="white"/>
<path d="M62.32 88.3004L61.1348 84.8509L59.8751 88.3004H62.32ZM60.582 83.6922H61.7779L64.6108 91.5H63.4521L62.6602 89.1614H59.5721L58.7271 91.5H57.6428L60.582 83.6922ZM65.4452 85.8076H66.3541V86.6155C66.6234 86.2824 66.9086 86.0432 67.2098 85.898C67.511 85.7527 67.8459 85.6801 68.2144 85.6801C69.0222 85.6801 69.5679 85.9617 69.8514 86.5251C70.0073 86.8334 70.0852 87.2746 70.0852 87.8486V91.5H69.1126V87.9124C69.1126 87.5651 69.0612 87.2852 68.9585 87.0726C68.7884 86.7183 68.4801 86.5411 68.0337 86.5411C67.8069 86.5411 67.6209 86.5641 67.4756 86.6102C67.2134 86.6881 66.983 86.844 66.7846 87.0779C66.6252 87.2657 66.5206 87.4606 66.471 87.6626C66.425 87.861 66.4019 88.1462 66.4019 88.5183V91.5H65.4452V85.8076ZM71.5044 85.8076H72.4132V86.6155C72.6825 86.2824 72.9678 86.0432 73.2689 85.898C73.5701 85.7527 73.905 85.6801 74.2735 85.6801C75.0814 85.6801 75.627 85.9617 75.9105 86.5251C76.0664 86.8334 76.1444 87.2746 76.1444 87.8486V91.5H75.1717V87.9124C75.1717 87.5651 75.1203 87.2852 75.0176 87.0726C74.8475 86.7183 74.5392 86.5411 74.0928 86.5411C73.866 86.5411 73.68 86.5641 73.5347 86.6102C73.2725 86.6881 73.0422 86.844 72.8437 87.0779C72.6843 87.2657 72.5798 87.4606 72.5302 87.6626C72.4841 87.861 72.4611 88.1462 72.4611 88.5183V91.5H71.5044V85.8076ZM79.8224 90.8835C80.4566 90.8835 80.8907 90.6443 81.1245 90.1659C81.362 89.684 81.4807 89.149 81.4807 88.5608C81.4807 88.0293 81.3956 87.597 81.2255 87.2639C80.9562 86.7395 80.4921 86.4773 79.833 86.4773C79.2483 86.4773 78.8231 86.7005 78.5574 87.147C78.2916 87.5935 78.1588 88.132 78.1588 88.7628C78.1588 89.3687 78.2916 89.8736 78.5574 90.2775C78.8231 90.6815 79.2448 90.8835 79.8224 90.8835ZM79.8596 85.6428C80.593 85.6428 81.2131 85.8873 81.7198 86.3763C82.2265 86.8653 82.4799 87.5846 82.4799 88.5342C82.4799 89.4519 82.2566 90.2102 81.8102 90.809C81.3637 91.4079 80.671 91.7073 79.732 91.7073C78.9489 91.7073 78.3271 91.4433 77.8664 90.9153C77.4058 90.3838 77.1755 89.6716 77.1755 88.7787C77.1755 87.822 77.4182 87.0602 77.9036 86.4933C78.3891 85.9263 79.0411 85.6428 79.8596 85.6428ZM84.5793 85.8076V89.5866C84.5793 89.8771 84.6254 90.1146 84.7175 90.2988C84.8876 90.639 85.2047 90.809 85.6689 90.809C86.335 90.809 86.7886 90.5114 87.0295 89.9161C87.1606 89.5972 87.2262 89.1596 87.2262 88.6033V85.8076H88.1829V91.5H87.2793L87.29 90.6602C87.166 90.8764 87.0118 91.0589 86.8276 91.2077C86.4626 91.5053 86.0197 91.6541 85.4988 91.6541C84.6874 91.6541 84.1346 91.3831 83.8405 90.8409C83.6811 90.5504 83.6013 90.1624 83.6013 89.6769V85.8076H84.5793ZM89.6817 85.8076H90.5906V86.6155C90.8599 86.2824 91.1451 86.0432 91.4463 85.898C91.7475 85.7527 92.0823 85.6801 92.4509 85.6801C93.2587 85.6801 93.8044 85.9617 94.0879 86.5251C94.2438 86.8334 94.3217 87.2746 94.3217 87.8486V91.5H93.3491V87.9124C93.3491 87.5651 93.2977 87.2852 93.195 87.0726C93.0249 86.7183 92.7166 86.5411 92.2701 86.5411C92.0434 86.5411 91.8573 86.5641 91.7121 86.6102C91.4499 86.6881 91.2195 86.844 91.0211 87.0779C90.8617 87.2657 90.7571 87.4606 90.7075 87.6626C90.6615 87.861 90.6384 88.1462 90.6384 88.5183V91.5H89.6817V85.8076ZM97.936 85.6428C98.5773 85.6428 99.0982 85.7988 99.4986 86.1106C99.9025 86.4224 100.145 86.9592 100.227 87.721H99.2966C99.2399 87.3702 99.1106 87.0797 98.9086 86.8494C98.7066 86.6155 98.3824 86.4986 97.936 86.4986C97.3265 86.4986 96.8907 86.7962 96.6285 87.3915C96.4584 87.7777 96.3733 88.2543 96.3733 88.8212C96.3733 89.3917 96.4938 89.8718 96.7348 90.2616C96.9757 90.6514 97.3548 90.8463 97.8722 90.8463C98.269 90.8463 98.5826 90.7258 98.8129 90.4848C99.0468 90.2403 99.208 89.9073 99.2966 89.4856H100.227C100.12 90.2403 99.8547 90.7931 99.4295 91.1439C99.0043 91.4911 98.4604 91.6648 97.7978 91.6648C97.0537 91.6648 96.4602 91.3937 96.0172 90.8516C95.5743 90.3059 95.3529 89.6256 95.3529 88.8106C95.3529 87.8114 95.5956 87.0336 96.081 86.4773C96.5665 85.921 97.1848 85.6428 97.936 85.6428ZM103.554 85.6801C103.958 85.6801 104.349 85.7757 104.729 85.9671C105.108 86.1549 105.396 86.3994 105.595 86.7005C105.786 86.9875 105.914 87.3224 105.978 87.7051C106.034 87.9673 106.063 88.3854 106.063 88.9594H101.89C101.908 89.537 102.044 90.0012 102.3 90.352C102.555 90.6992 102.95 90.8728 103.485 90.8728C103.984 90.8728 104.383 90.7081 104.681 90.3785C104.851 90.1872 104.971 89.9657 105.042 89.7142H105.983C105.958 89.9232 105.875 90.1571 105.733 90.4157C105.595 90.6709 105.439 90.8799 105.265 91.0429C104.975 91.3264 104.615 91.5177 104.186 91.6169C103.956 91.6736 103.696 91.702 103.405 91.702C102.696 91.702 102.096 91.4451 101.603 90.9313C101.111 90.414 100.865 89.6911 100.865 88.7628C100.865 87.8486 101.113 87.1063 101.609 86.5358C102.105 85.9653 102.753 85.6801 103.554 85.6801ZM105.079 88.1994C105.04 87.7848 104.95 87.4535 104.808 87.2055C104.546 86.7448 104.108 86.5145 103.495 86.5145C103.056 86.5145 102.688 86.674 102.39 86.9929C102.092 87.3082 101.935 87.7104 101.917 88.1994H105.079ZM107.243 85.8076H108.189V86.6155C108.415 86.3356 108.621 86.1318 108.805 86.0043C109.121 85.7881 109.478 85.6801 109.879 85.6801C110.332 85.6801 110.697 85.7917 110.974 86.0149C111.13 86.1425 111.271 86.3303 111.399 86.5783C111.611 86.2736 111.861 86.0486 112.148 85.9033C112.435 85.7545 112.758 85.6801 113.116 85.6801C113.881 85.6801 114.402 85.9564 114.678 86.5092C114.827 86.8068 114.901 87.2072 114.901 87.7104V91.5H113.908V87.5456C113.908 87.1665 113.812 86.9061 113.621 86.7643C113.433 86.6226 113.202 86.5517 112.93 86.5517C112.554 86.5517 112.23 86.6775 111.957 86.9291C111.688 87.1807 111.553 87.6005 111.553 88.1887V91.5H110.58V87.7848C110.58 87.3986 110.534 87.1169 110.442 86.9397C110.297 86.674 110.026 86.5411 109.629 86.5411C109.268 86.5411 108.938 86.681 108.64 86.961C108.346 87.2409 108.199 87.7476 108.199 88.4811V91.5H107.243V85.8076ZM118.68 85.6801C119.084 85.6801 119.476 85.7757 119.855 85.9671C120.234 86.1549 120.523 86.3994 120.721 86.7005C120.913 86.9875 121.04 87.3224 121.104 87.7051C121.161 87.9673 121.189 88.3854 121.189 88.9594H117.017C117.035 89.537 117.171 90.0012 117.426 90.352C117.681 90.6992 118.076 90.8728 118.611 90.8728C119.111 90.8728 119.51 90.7081 119.807 90.3785C119.977 90.1872 120.098 89.9657 120.169 89.7142H121.109C121.085 89.9232 121.001 90.1571 120.86 90.4157C120.721 90.6709 120.566 90.8799 120.392 91.0429C120.101 91.3264 119.742 91.5177 119.313 91.6169C119.083 91.6736 118.822 91.702 118.532 91.702C117.823 91.702 117.222 91.4451 116.73 90.9313C116.237 90.414 115.991 89.6911 115.991 88.7628C115.991 87.8486 116.239 87.1063 116.735 86.5358C117.231 85.9653 117.88 85.6801 118.68 85.6801ZM120.206 88.1994C120.167 87.7848 120.077 87.4535 119.935 87.2055C119.673 86.7448 119.235 86.5145 118.622 86.5145C118.183 86.5145 117.814 86.674 117.516 86.9929C117.219 87.3082 117.061 87.7104 117.043 88.1994H120.206ZM122.369 85.8076H123.278V86.6155C123.547 86.2824 123.833 86.0432 124.134 85.898C124.435 85.7527 124.77 85.6801 125.138 85.6801C125.946 85.6801 126.492 85.9617 126.775 86.5251C126.931 86.8334 127.009 87.2746 127.009 87.8486V91.5H126.036V87.9124C126.036 87.5651 125.985 87.2852 125.882 87.0726C125.712 86.7183 125.404 86.5411 124.958 86.5411C124.731 86.5411 124.545 86.5641 124.399 86.6102C124.137 86.6881 123.907 86.844 123.708 87.0779C123.549 87.2657 123.445 87.4606 123.395 87.6626C123.349 87.861 123.326 88.1462 123.326 88.5183V91.5H122.369V85.8076ZM128.62 84.2184H129.587V85.8076H130.496V86.5889H129.587V90.3041C129.587 90.5025 129.654 90.6354 129.789 90.7027C129.863 90.7417 129.987 90.7612 130.161 90.7612C130.207 90.7612 130.257 90.7612 130.31 90.7612C130.363 90.7577 130.425 90.7524 130.496 90.7453V91.5C130.386 91.5319 130.271 91.5549 130.15 91.5691C130.033 91.5833 129.906 91.5904 129.768 91.5904C129.321 91.5904 129.018 91.477 128.859 91.2502C128.699 91.0199 128.62 90.7222 128.62 90.3573V86.5889H127.849V85.8076H128.62V84.2184ZM132.026 89.7142C132.055 90.0331 132.135 90.2775 132.266 90.4476C132.507 90.7559 132.925 90.91 133.52 90.91C133.874 90.91 134.186 90.8339 134.455 90.6815C134.725 90.5256 134.859 90.2864 134.859 89.964C134.859 89.7195 134.751 89.5334 134.535 89.4059C134.397 89.3279 134.124 89.2376 133.717 89.1348L132.957 88.9435C132.471 88.823 132.113 88.6884 131.883 88.5395C131.472 88.2809 131.266 87.923 131.266 87.4659C131.266 86.9273 131.46 86.4915 131.846 86.1584C132.236 85.8253 132.758 85.6588 133.414 85.6588C134.271 85.6588 134.89 85.9104 135.269 86.4135C135.506 86.7324 135.621 87.0761 135.614 87.4446H134.711C134.693 87.2285 134.617 87.0318 134.482 86.8547C134.262 86.6031 133.881 86.4773 133.339 86.4773C132.978 86.4773 132.703 86.5464 132.515 86.6846C132.331 86.8228 132.239 87.0053 132.239 87.232C132.239 87.4801 132.361 87.6785 132.606 87.8273C132.748 87.9159 132.957 87.9939 133.233 88.0612L133.865 88.2153C134.553 88.3819 135.014 88.5431 135.247 88.699C135.619 88.9435 135.805 89.3279 135.805 89.8523C135.805 90.359 135.612 90.7966 135.226 91.1652C134.843 91.5337 134.259 91.7179 133.472 91.7179C132.625 91.7179 132.025 91.5266 131.67 91.1439C131.32 90.7577 131.132 90.2811 131.107 89.7142H132.026Z" fill="white"/>
<rect x="28.2266" y="117" width="22" height="22" rx="7.25677" fill="white"/>
<path d="M61.6025 123.48C62.5911 123.48 63.3582 123.74 63.9039 124.261C64.4496 124.782 64.7525 125.374 64.8127 126.036H63.7816C63.6647 125.533 63.4308 125.134 63.0801 124.84C62.7328 124.546 62.2438 124.399 61.6131 124.399C60.8442 124.399 60.2223 124.67 59.7475 125.212C59.2763 125.751 59.0406 126.578 59.0406 127.694C59.0406 128.609 59.2532 129.351 59.6784 129.921C60.1072 130.488 60.745 130.772 61.5918 130.772C62.3714 130.772 62.9649 130.472 63.3724 129.874C63.5885 129.558 63.7497 129.144 63.856 128.63H64.8872C64.795 129.452 64.4903 130.141 63.973 130.697C63.3529 131.367 62.5167 131.702 61.4643 131.702C60.5572 131.702 59.7954 131.427 59.1788 130.878C58.3674 130.152 57.9617 129.03 57.9617 127.514C57.9617 126.362 58.2664 125.418 58.8759 124.681C59.5349 123.88 60.4438 123.48 61.6025 123.48ZM66.0511 123.666H67.0079V126.578C67.2346 126.291 67.4384 126.089 67.6191 125.972C67.9274 125.77 68.3118 125.669 68.7724 125.669C69.598 125.669 70.1579 125.958 70.452 126.536C70.6114 126.851 70.6912 127.289 70.6912 127.849V131.5H69.7079V127.912C69.7079 127.494 69.6547 127.188 69.5484 126.993C69.3748 126.681 69.0488 126.525 68.5705 126.525C68.1736 126.525 67.814 126.662 67.4915 126.934C67.1691 127.207 67.0079 127.723 67.0079 128.481V131.5H66.0511V123.666ZM72.1103 125.834H73.0829V131.5H72.1103V125.834ZM72.1103 123.692H73.0829V124.777H72.1103V123.692ZM74.7253 124.218H75.6926V125.808H76.6015V126.589H75.6926V130.304C75.6926 130.503 75.7599 130.635 75.8946 130.703C75.969 130.742 76.093 130.761 76.2666 130.761C76.3127 130.761 76.3623 130.761 76.4154 130.761C76.4686 130.758 76.5306 130.752 76.6015 130.745V131.5C76.4916 131.532 76.3765 131.555 76.256 131.569C76.1391 131.583 76.0115 131.59 75.8733 131.59C75.4268 131.59 75.1239 131.477 74.9644 131.25C74.805 131.02 74.7253 130.722 74.7253 130.357V126.589H73.9546V125.808H74.7253V124.218ZM82.7881 125.643C83.4295 125.643 83.9504 125.799 84.3508 126.111C84.7547 126.422 84.9974 126.959 85.0789 127.721H84.1488C84.0921 127.37 83.9628 127.08 83.7608 126.849C83.5588 126.615 83.2346 126.499 82.7881 126.499C82.1787 126.499 81.7429 126.796 81.4807 127.391C81.3106 127.778 81.2255 128.254 81.2255 128.821C81.2255 129.392 81.346 129.872 81.587 130.262C81.8279 130.651 82.207 130.846 82.7244 130.846C83.1212 130.846 83.4348 130.726 83.6651 130.485C83.899 130.24 84.0602 129.907 84.1488 129.486H85.0789C84.9726 130.24 84.7069 130.793 84.2817 131.144C83.8565 131.491 83.3126 131.665 82.65 131.665C81.9059 131.665 81.3123 131.394 80.8694 130.852C80.4265 130.306 80.205 129.626 80.205 128.811C80.205 127.811 80.4478 127.034 80.9332 126.477C81.4186 125.921 82.037 125.643 82.7881 125.643ZM86.0356 123.666H86.9923V126.578C87.2191 126.291 87.4228 126.089 87.6036 125.972C87.9118 125.77 88.2963 125.669 88.7569 125.669C89.5825 125.669 90.1424 125.958 90.4365 126.536C90.5959 126.851 90.6756 127.289 90.6756 127.849V131.5H89.6924V127.912C89.6924 127.494 89.6392 127.188 89.5329 126.993C89.3593 126.681 89.0333 126.525 88.5549 126.525C88.1581 126.525 87.7984 126.662 87.476 126.934C87.1536 127.207 86.9923 127.723 86.9923 128.481V131.5H86.0356V123.666ZM92.8282 129.985C92.8282 130.262 92.9292 130.48 93.1312 130.639C93.3331 130.798 93.5723 130.878 93.8487 130.878C94.1853 130.878 94.5113 130.8 94.8267 130.644C95.3582 130.386 95.6239 129.962 95.6239 129.374V128.603C95.507 128.678 95.3564 128.74 95.1721 128.789C94.9879 128.839 94.8072 128.874 94.63 128.896L94.0507 128.97C93.7034 129.016 93.443 129.089 93.2694 129.188C92.9753 129.355 92.8282 129.62 92.8282 129.985ZM95.1456 128.051C95.3653 128.022 95.5123 127.93 95.5867 127.774C95.6292 127.689 95.6505 127.567 95.6505 127.407C95.6505 127.081 95.5336 126.846 95.2997 126.701C95.0694 126.552 94.7381 126.477 94.3058 126.477C93.8062 126.477 93.4518 126.612 93.2428 126.881C93.1259 127.03 93.0497 127.252 93.0142 127.546H92.1213C92.139 126.844 92.3658 126.357 92.8016 126.084C93.241 125.808 93.7495 125.669 94.3271 125.669C94.9967 125.669 95.5406 125.797 95.9588 126.052C96.3733 126.307 96.5806 126.704 96.5806 127.243V130.522C96.5806 130.621 96.6001 130.701 96.6391 130.761C96.6816 130.821 96.7684 130.852 96.8995 130.852C96.942 130.852 96.9899 130.85 97.043 130.846C97.0962 130.839 97.1529 130.83 97.2131 130.82V131.527C97.0643 131.569 96.9509 131.596 96.8729 131.606C96.795 131.617 96.6887 131.622 96.554 131.622C96.2245 131.622 95.9853 131.505 95.8365 131.271C95.7586 131.147 95.7036 130.972 95.6718 130.745C95.4769 131 95.1969 131.222 94.832 131.41C94.467 131.597 94.0648 131.691 93.6255 131.691C93.0975 131.691 92.6652 131.532 92.3286 131.213C91.9955 130.891 91.829 130.488 91.829 130.006C91.829 129.479 91.9938 129.069 92.3233 128.779C92.6528 128.488 93.0851 128.309 93.6202 128.242L95.1456 128.051ZM98.3452 124.218H99.3125V125.808H100.221V126.589H99.3125V130.304C99.3125 130.503 99.3799 130.635 99.5145 130.703C99.5889 130.742 99.7129 130.761 99.8866 130.761C99.9326 130.761 99.9822 130.761 100.035 130.761C100.089 130.758 100.151 130.752 100.221 130.745V131.5C100.112 131.532 99.9964 131.555 99.8759 131.569C99.759 131.583 99.6314 131.59 99.4933 131.59C99.0468 131.59 98.7438 131.477 98.5844 131.25C98.4249 131.02 98.3452 130.722 98.3452 130.357V126.589H97.5745V125.808H98.3452V124.218Z" fill="white"/>
<rect x="28.2266" y="157" width="22" height="22" rx="7.25677" fill="white"/>
<path d="M59.0034 168.981C59.0282 169.424 59.1328 169.783 59.317 170.06C59.6678 170.577 60.2861 170.836 61.172 170.836C61.5688 170.836 61.9302 170.779 62.2562 170.666C62.8869 170.446 63.2023 170.053 63.2023 169.486C63.2023 169.06 63.0694 168.757 62.8037 168.577C62.5344 168.4 62.1127 168.245 61.5387 168.114L60.481 167.875C59.7901 167.719 59.3011 167.547 59.0141 167.36C58.518 167.034 58.27 166.546 58.27 165.898C58.27 165.196 58.5127 164.621 58.9981 164.171C59.4836 163.721 60.171 163.496 61.0603 163.496C61.8789 163.496 62.5734 163.694 63.1438 164.091C63.7179 164.484 64.0049 165.115 64.0049 165.983H63.011C62.9578 165.565 62.8444 165.244 62.6708 165.021C62.3484 164.614 61.8009 164.41 61.0285 164.41C60.4048 164.41 59.9566 164.541 59.6838 164.803C59.4109 165.065 59.2745 165.37 59.2745 165.717C59.2745 166.1 59.4339 166.38 59.7529 166.557C59.9619 166.67 60.4349 166.812 61.172 166.982L62.2669 167.232C62.7948 167.353 63.2023 167.517 63.4893 167.726C63.9854 168.091 64.2334 168.621 64.2334 169.316C64.2334 170.18 63.9181 170.798 63.2873 171.17C62.6602 171.543 61.9302 171.729 61.0976 171.729C60.1267 171.729 59.3666 171.481 58.8174 170.984C58.2682 170.492 57.9989 169.824 58.0095 168.981H59.0034ZM66.4019 165.808V169.587C66.4019 169.877 66.448 170.115 66.5401 170.299C66.7102 170.639 67.0273 170.809 67.4915 170.809C68.1577 170.809 68.6112 170.511 68.8522 169.916C68.9833 169.597 69.0488 169.16 69.0488 168.603V165.808H70.0055V171.5H69.102L69.1126 170.66C68.9886 170.876 68.8344 171.059 68.6502 171.208C68.2852 171.505 67.8423 171.654 67.3214 171.654C66.51 171.654 65.9573 171.383 65.6632 170.841C65.5037 170.55 65.424 170.162 65.424 169.677V165.808H66.4019ZM71.5044 165.808H72.4504V166.615C72.6772 166.336 72.8827 166.132 73.067 166.004C73.3823 165.788 73.7402 165.68 74.1406 165.68C74.5942 165.68 74.9591 165.792 75.2355 166.015C75.3914 166.142 75.5331 166.33 75.6607 166.578C75.8733 166.274 76.1231 166.049 76.4101 165.903C76.6971 165.754 77.0196 165.68 77.3775 165.68C78.1428 165.68 78.6637 165.956 78.9401 166.509C79.0889 166.807 79.1633 167.207 79.1633 167.71V171.5H78.1694V167.546C78.1694 167.166 78.0737 166.906 77.8824 166.764C77.6946 166.623 77.4643 166.552 77.1914 166.552C76.8158 166.552 76.4916 166.678 76.2188 166.929C75.9495 167.181 75.8148 167.601 75.8148 168.189V171.5H74.8422V167.785C74.8422 167.399 74.7961 167.117 74.704 166.94C74.5587 166.674 74.2877 166.541 73.8908 166.541C73.5294 166.541 73.1999 166.681 72.9022 166.961C72.6081 167.241 72.4611 167.748 72.4611 168.481V171.5H71.5044V165.808ZM80.5718 165.808H81.5179V166.615C81.7446 166.336 81.9501 166.132 82.1344 166.004C82.4498 165.788 82.8076 165.68 83.208 165.68C83.6616 165.68 84.0265 165.792 84.3029 166.015C84.4588 166.142 84.6006 166.33 84.7281 166.578C84.9407 166.274 85.1905 166.049 85.4775 165.903C85.7646 165.754 86.087 165.68 86.4449 165.68C87.2102 165.68 87.7311 165.956 88.0075 166.509C88.1563 166.807 88.2307 167.207 88.2307 167.71V171.5H87.2368V167.546C87.2368 167.166 87.1411 166.906 86.9498 166.764C86.762 166.623 86.5317 166.552 86.2589 166.552C85.8833 166.552 85.559 166.678 85.2862 166.929C85.0169 167.181 84.8823 167.601 84.8823 168.189V171.5H83.9096V167.785C83.9096 167.399 83.8636 167.117 83.7714 166.94C83.6261 166.674 83.3551 166.541 82.9582 166.541C82.5968 166.541 82.2673 166.681 81.9696 166.961C81.6755 167.241 81.5285 167.748 81.5285 168.481V171.5H80.5718V165.808ZM92.0097 165.68C92.4136 165.68 92.8052 165.776 93.1843 165.967C93.5635 166.155 93.8522 166.399 94.0507 166.701C94.242 166.988 94.3696 167.322 94.4334 167.705C94.49 167.967 94.5184 168.385 94.5184 168.959H90.3461C90.3638 169.537 90.5002 170.001 90.7554 170.352C91.0105 170.699 91.4056 170.873 91.9406 170.873C92.4402 170.873 92.8388 170.708 93.1365 170.379C93.3066 170.187 93.427 169.966 93.4979 169.714H94.4387C94.4139 169.923 94.3306 170.157 94.1889 170.416C94.0507 170.671 93.8948 170.88 93.7211 171.043C93.4306 171.326 93.0709 171.518 92.6422 171.617C92.4119 171.674 92.1514 171.702 91.8609 171.702C91.1522 171.702 90.5516 171.445 90.0591 170.931C89.5666 170.414 89.3203 169.691 89.3203 168.763C89.3203 167.849 89.5683 167.106 90.0644 166.536C90.5605 165.965 91.2089 165.68 92.0097 165.68ZM93.5351 168.199C93.4961 167.785 93.4058 167.453 93.2641 167.205C93.0018 166.745 92.5642 166.515 91.9512 166.515C91.5119 166.515 91.1434 166.674 90.8457 166.993C90.5481 167.308 90.3904 167.71 90.3727 168.199H93.5351ZM95.7249 165.808H96.6338V166.791C96.7082 166.6 96.8907 166.367 97.1812 166.095C97.4718 165.818 97.8066 165.68 98.1858 165.68C98.2035 165.68 98.2336 165.682 98.2761 165.685C98.3186 165.689 98.3913 165.696 98.494 165.707V166.716C98.4373 166.706 98.3842 166.699 98.3346 166.695C98.2885 166.692 98.2371 166.69 98.1804 166.69C97.6985 166.69 97.3283 166.846 97.0696 167.158C96.8109 167.466 96.6816 167.822 96.6816 168.226V171.5H95.7249V165.808ZM102.544 164.218H103.511V165.808H104.42V166.589H103.511V170.304C103.511 170.503 103.579 170.635 103.713 170.703C103.788 170.742 103.912 170.761 104.085 170.761C104.131 170.761 104.181 170.761 104.234 170.761C104.287 170.758 104.349 170.752 104.42 170.745V171.5C104.31 171.532 104.195 171.555 104.075 171.569C103.958 171.583 103.83 171.59 103.692 171.59C103.246 171.59 102.943 171.477 102.783 171.25C102.624 171.02 102.544 170.722 102.544 170.357V166.589H101.773V165.808H102.544V164.218ZM105.409 165.808H106.318V166.791C106.392 166.6 106.575 166.367 106.865 166.095C107.156 165.818 107.491 165.68 107.87 165.68C107.887 165.68 107.918 165.682 107.96 165.685C108.003 165.689 108.075 165.696 108.178 165.707V166.716C108.121 166.706 108.068 166.699 108.019 166.695C107.972 166.692 107.921 166.69 107.864 166.69C107.383 166.69 107.012 166.846 106.754 167.158C106.495 167.466 106.366 167.822 106.366 168.226V171.5H105.409V165.808ZM109.007 165.834H109.98V171.5H109.007V165.834ZM109.007 163.692H109.98V164.777H109.007V163.692ZM113.833 170.857C114.28 170.857 114.65 170.671 114.944 170.299C115.242 169.923 115.39 169.363 115.39 168.619C115.39 168.166 115.325 167.776 115.194 167.45C114.946 166.823 114.492 166.509 113.833 166.509C113.171 166.509 112.717 166.84 112.473 167.503C112.341 167.857 112.276 168.307 112.276 168.853C112.276 169.292 112.341 169.666 112.473 169.975C112.721 170.563 113.174 170.857 113.833 170.857ZM111.356 165.834H112.287V166.589C112.478 166.33 112.687 166.13 112.914 165.988C113.236 165.776 113.615 165.669 114.051 165.669C114.696 165.669 115.243 165.917 115.693 166.414C116.143 166.906 116.368 167.611 116.368 168.529C116.368 169.769 116.044 170.655 115.396 171.186C114.985 171.523 114.506 171.691 113.961 171.691C113.532 171.691 113.172 171.597 112.882 171.41C112.712 171.303 112.522 171.121 112.313 170.862V173.77H111.356V165.834Z" fill="white"/>
<rect x="28.2266" y="197" width="22" height="22" rx="7.25677" fill="white"/>
<path d="M59.0034 208.981C59.0282 209.424 59.1328 209.783 59.317 210.06C59.6678 210.577 60.2861 210.836 61.172 210.836C61.5688 210.836 61.9302 210.779 62.2562 210.666C62.8869 210.446 63.2023 210.053 63.2023 209.486C63.2023 209.06 63.0694 208.757 62.8037 208.577C62.5344 208.4 62.1127 208.245 61.5387 208.114L60.481 207.875C59.7901 207.719 59.3011 207.547 59.0141 207.36C58.518 207.034 58.27 206.546 58.27 205.898C58.27 205.196 58.5127 204.621 58.9981 204.171C59.4836 203.721 60.171 203.496 61.0603 203.496C61.8789 203.496 62.5734 203.694 63.1438 204.091C63.7179 204.484 64.0049 205.115 64.0049 205.983H63.011C62.9578 205.565 62.8444 205.244 62.6708 205.021C62.3484 204.614 61.8009 204.41 61.0285 204.41C60.4048 204.41 59.9566 204.541 59.6838 204.803C59.4109 205.065 59.2745 205.37 59.2745 205.717C59.2745 206.1 59.4339 206.38 59.7529 206.557C59.9619 206.67 60.4349 206.812 61.172 206.982L62.2669 207.232C62.7948 207.353 63.2023 207.517 63.4893 207.726C63.9854 208.091 64.2334 208.621 64.2334 209.316C64.2334 210.18 63.9181 210.798 63.2873 211.17C62.6602 211.543 61.9302 211.729 61.0976 211.729C60.1267 211.729 59.3666 211.481 58.8174 210.984C58.2682 210.492 57.9989 209.824 58.0095 208.981H59.0034ZM67.8476 210.857C68.2941 210.857 68.6644 210.671 68.9585 210.299C69.2561 209.923 69.4049 209.363 69.4049 208.619C69.4049 208.166 69.3394 207.776 69.2083 207.45C68.9602 206.823 68.5067 206.509 67.8476 206.509C67.185 206.509 66.7315 206.84 66.487 207.503C66.3559 207.857 66.2903 208.307 66.2903 208.853C66.2903 209.292 66.3559 209.666 66.487 209.975C66.735 210.563 67.1886 210.857 67.8476 210.857ZM65.3708 205.834H66.301V206.589C66.4923 206.33 66.7014 206.13 66.9281 205.988C67.2506 205.776 67.6297 205.669 68.0655 205.669C68.7104 205.669 69.2579 205.917 69.7079 206.414C70.1579 206.906 70.3829 207.611 70.3829 208.529C70.3829 209.769 70.0587 210.655 69.4102 211.186C68.9992 211.523 68.5209 211.691 67.9752 211.691C67.5464 211.691 67.1868 211.597 66.8962 211.41C66.7262 211.303 66.5366 211.121 66.3275 210.862V213.77H65.3708V205.834ZM73.7632 210.883C74.3975 210.883 74.8316 210.644 75.0654 210.166C75.3028 209.684 75.4215 209.149 75.4215 208.561C75.4215 208.029 75.3365 207.597 75.1664 207.264C74.8971 206.74 74.4329 206.477 73.7739 206.477C73.1892 206.477 72.764 206.701 72.4983 207.147C72.2325 207.593 72.0996 208.132 72.0996 208.763C72.0996 209.369 72.2325 209.874 72.4983 210.278C72.764 210.681 73.1857 210.883 73.7632 210.883ZM73.8004 205.643C74.5339 205.643 75.154 205.887 75.6607 206.376C76.1674 206.865 76.4208 207.585 76.4208 208.534C76.4208 209.452 76.1975 210.21 75.7511 210.809C75.3046 211.408 74.6119 211.707 73.6729 211.707C72.8898 211.707 72.268 211.443 71.8073 210.915C71.3467 210.384 71.1164 209.672 71.1164 208.779C71.1164 207.822 71.3591 207.06 71.8445 206.493C72.33 205.926 72.9819 205.643 73.8004 205.643ZM77.5635 205.808H78.4724V206.615C78.7416 206.282 79.0269 206.043 79.3281 205.898C79.6293 205.753 79.9641 205.68 80.3326 205.68C81.1405 205.68 81.6862 205.962 81.9696 206.525C82.1255 206.833 82.2035 207.275 82.2035 207.849V211.5H81.2308V207.912C81.2308 207.565 81.1795 207.285 81.0767 207.073C80.9066 206.718 80.5984 206.541 80.1519 206.541C79.9251 206.541 79.7391 206.564 79.5938 206.61C79.3316 206.688 79.1013 206.844 78.9029 207.078C78.7434 207.266 78.6389 207.461 78.5893 207.663C78.5432 207.861 78.5202 208.146 78.5202 208.518V211.5H77.5635V205.808ZM84.1913 209.714C84.2197 210.033 84.2994 210.278 84.4305 210.448C84.6714 210.756 85.0896 210.91 85.6848 210.91C86.0392 210.91 86.351 210.834 86.6203 210.681C86.8896 210.526 87.0242 210.286 87.0242 209.964C87.0242 209.719 86.9161 209.533 86.7 209.406C86.5618 209.328 86.289 209.238 85.8815 209.135L85.1214 208.943C84.636 208.823 84.2781 208.688 84.0478 208.54C83.6368 208.281 83.4313 207.923 83.4313 207.466C83.4313 206.927 83.6244 206.491 84.0106 206.158C84.4004 205.825 84.923 205.659 85.5785 205.659C86.436 205.659 87.0543 205.91 87.4335 206.414C87.6709 206.732 87.786 207.076 87.779 207.445H86.8754C86.8577 207.228 86.7815 207.032 86.6469 206.855C86.4272 206.603 86.0463 206.477 85.5041 206.477C85.1427 206.477 84.8681 206.546 84.6803 206.685C84.496 206.823 84.4039 207.005 84.4039 207.232C84.4039 207.48 84.5262 207.679 84.7706 207.827C84.9124 207.916 85.1214 207.994 85.3978 208.061L86.0303 208.215C86.7177 208.382 87.1784 208.543 87.4122 208.699C87.7843 208.943 87.9703 209.328 87.9703 209.852C87.9703 210.359 87.7772 210.797 87.391 211.165C87.0083 211.534 86.4236 211.718 85.637 211.718C84.7901 211.718 84.1895 211.527 83.8352 211.144C83.4844 210.758 83.2966 210.281 83.2718 209.714H84.1913ZM91.3241 210.883C91.9583 210.883 92.3924 210.644 92.6262 210.166C92.8637 209.684 92.9824 209.149 92.9824 208.561C92.9824 208.029 92.8973 207.597 92.7272 207.264C92.4579 206.74 91.9938 206.477 91.3347 206.477C90.75 206.477 90.3248 206.701 90.0591 207.147C89.7933 207.593 89.6605 208.132 89.6605 208.763C89.6605 209.369 89.7933 209.874 90.0591 210.278C90.3248 210.681 90.7465 210.883 91.3241 210.883ZM91.3613 205.643C92.0947 205.643 92.7148 205.887 93.2215 206.376C93.7282 206.865 93.9816 207.585 93.9816 208.534C93.9816 209.452 93.7583 210.21 93.3119 210.809C92.8654 211.408 92.1727 211.707 91.2337 211.707C90.4506 211.707 89.8288 211.443 89.3681 210.915C88.9075 210.384 88.6772 209.672 88.6772 208.779C88.6772 207.822 88.9199 207.06 89.4053 206.493C89.8908 205.926 90.5428 205.643 91.3613 205.643ZM95.1509 205.808H96.0598V206.791C96.1342 206.6 96.3166 206.367 96.6072 206.095C96.8978 205.818 97.2326 205.68 97.6117 205.68C97.6295 205.68 97.6596 205.682 97.7021 205.685C97.7446 205.689 97.8173 205.696 97.92 205.707V206.716C97.8633 206.706 97.8102 206.699 97.7606 206.695C97.7145 206.692 97.6631 206.69 97.6064 206.69C97.1245 206.69 96.7542 206.846 96.4956 207.158C96.2369 207.466 96.1076 207.822 96.1076 208.226V211.5H95.1509V205.808ZM99.3179 209.714C99.3462 210.033 99.4259 210.278 99.557 210.448C99.798 210.756 100.216 210.91 100.811 210.91C101.166 210.91 101.478 210.834 101.747 210.681C102.016 210.526 102.151 210.286 102.151 209.964C102.151 209.719 102.043 209.533 101.827 209.406C101.688 209.328 101.416 209.238 101.008 209.135L100.248 208.943C99.7625 208.823 99.4047 208.688 99.1744 208.54C98.7633 208.281 98.5578 207.923 98.5578 207.466C98.5578 206.927 98.7509 206.491 99.1371 206.158C99.5269 205.825 100.05 205.659 100.705 205.659C101.563 205.659 102.181 205.91 102.56 206.414C102.797 206.732 102.913 207.076 102.905 207.445H102.002C101.984 207.228 101.908 207.032 101.773 206.855C101.554 206.603 101.173 206.477 100.631 206.477C100.269 206.477 99.9946 206.546 99.8068 206.685C99.6226 206.823 99.5305 207.005 99.5305 207.232C99.5305 207.48 99.6527 207.679 99.8972 207.827C100.039 207.916 100.248 207.994 100.524 208.061L101.157 208.215C101.844 208.382 102.305 208.543 102.539 208.699C102.911 208.943 103.097 209.328 103.097 209.852C103.097 210.359 102.904 210.797 102.518 211.165C102.135 211.534 101.55 211.718 100.764 211.718C99.9167 211.718 99.3161 211.527 98.9618 211.144C98.611 210.758 98.4232 210.281 98.3984 209.714H99.3179Z" fill="white"/>
<rect x="28.2266" y="237" width="22" height="22" rx="7.25677" fill="white"/>
<path d="M58.828 243.692L60.3003 250.044L62.0649 243.692H63.2129L64.9775 250.044L66.4498 243.692H67.6085L65.5569 251.5H64.446L62.6442 245.026L60.8318 251.5H59.721L57.68 243.692H58.828ZM70.6433 245.68C71.0473 245.68 71.4388 245.776 71.8179 245.967C72.1971 246.155 72.4859 246.399 72.6843 246.701C72.8756 246.988 73.0032 247.322 73.067 247.705C73.1237 247.967 73.152 248.385 73.152 248.959H68.9797C68.9974 249.537 69.1339 250.001 69.389 250.352C69.6441 250.699 70.0392 250.873 70.5742 250.873C71.0738 250.873 71.4725 250.708 71.7701 250.379C71.9402 250.187 72.0607 249.966 72.1315 249.714H73.0723C73.0475 249.923 72.9642 250.157 72.8225 250.416C72.6843 250.671 72.5284 250.88 72.3548 251.043C72.0642 251.326 71.7046 251.518 71.2758 251.617C71.0455 251.674 70.7851 251.702 70.4945 251.702C69.7858 251.702 69.1852 251.445 68.6927 250.931C68.2002 250.414 67.9539 249.691 67.9539 248.763C67.9539 247.849 68.202 247.106 68.698 246.536C69.1941 245.965 69.8425 245.68 70.6433 245.68ZM72.1687 248.199C72.1298 247.785 72.0394 247.453 71.8977 247.205C71.6355 246.745 71.1979 246.515 70.5849 246.515C70.1455 246.515 69.777 246.674 69.4793 246.993C69.1817 247.308 69.024 247.71 69.0063 248.199H72.1687ZM75.0654 249.985C75.0654 250.262 75.1664 250.48 75.3684 250.639C75.5703 250.798 75.8095 250.878 76.0859 250.878C76.4225 250.878 76.7485 250.8 77.0639 250.644C77.5954 250.386 77.8611 249.962 77.8611 249.374V248.603C77.7442 248.678 77.5936 248.74 77.4093 248.789C77.2251 248.839 77.0444 248.874 76.8672 248.896L76.2879 248.97C75.9406 249.016 75.6802 249.089 75.5066 249.188C75.2125 249.355 75.0654 249.62 75.0654 249.985ZM77.3828 248.051C77.6025 248.022 77.7495 247.93 77.8239 247.774C77.8664 247.689 77.8877 247.567 77.8877 247.407C77.8877 247.081 77.7708 246.846 77.5369 246.701C77.3066 246.552 76.9753 246.477 76.543 246.477C76.0434 246.477 75.6891 246.612 75.48 246.881C75.3631 247.03 75.2869 247.252 75.2514 247.546H74.3585C74.3762 246.844 74.603 246.357 75.0388 246.084C75.4782 245.808 75.9867 245.669 76.5643 245.669C77.234 245.669 77.7779 245.797 78.196 246.052C78.6105 246.307 78.8178 246.704 78.8178 247.243V250.522C78.8178 250.621 78.8373 250.701 78.8763 250.761C78.9188 250.821 79.0056 250.852 79.1367 250.852C79.1792 250.852 79.2271 250.85 79.2802 250.846C79.3334 250.839 79.3901 250.83 79.4503 250.82V251.527C79.3015 251.569 79.1881 251.596 79.1102 251.606C79.0322 251.617 78.9259 251.622 78.7913 251.622C78.4617 251.622 78.2225 251.505 78.0737 251.271C77.9958 251.147 77.9408 250.972 77.909 250.745C77.7141 251 77.4341 251.222 77.0692 251.41C76.7042 251.597 76.3021 251.691 75.8627 251.691C75.3347 251.691 74.9024 251.532 74.5658 251.213C74.2327 250.891 74.0662 250.488 74.0662 250.006C74.0662 249.479 74.231 249.069 74.5605 248.779C74.89 248.488 75.3223 248.309 75.8574 248.242L77.3828 248.051ZM80.5824 244.218H81.5497V245.808H82.4586V246.589H81.5497V250.304C81.5497 250.503 81.6171 250.635 81.7517 250.703C81.8261 250.742 81.9501 250.761 82.1238 250.761C82.1698 250.761 82.2194 250.761 82.2726 250.761C82.3257 250.758 82.3877 250.752 82.4586 250.745V251.5C82.3488 251.532 82.2336 251.555 82.1131 251.569C81.9962 251.583 81.8686 251.59 81.7305 251.59C81.284 251.59 80.981 251.477 80.8216 251.25C80.6621 251.02 80.5824 250.722 80.5824 250.357V246.589H79.8117V245.808H80.5824V244.218ZM83.4206 243.666H84.3773V246.578C84.6041 246.291 84.8079 246.089 84.9886 245.972C85.2968 245.77 85.6813 245.669 86.1419 245.669C86.9675 245.669 87.5274 245.958 87.8215 246.536C87.9809 246.851 88.0606 247.289 88.0606 247.849V251.5H87.0774V247.912C87.0774 247.494 87.0242 247.188 86.9179 246.993C86.7443 246.681 86.4183 246.525 85.94 246.525C85.5431 246.525 85.1834 246.662 84.861 246.934C84.5386 247.207 84.3773 247.723 84.3773 248.481V251.5H83.4206V243.666ZM91.8503 245.68C92.2542 245.68 92.6457 245.776 93.0249 245.967C93.404 246.155 93.6928 246.399 93.8912 246.701C94.0826 246.988 94.2101 247.322 94.2739 247.705C94.3306 247.967 94.3589 248.385 94.3589 248.959H90.1867C90.2044 249.537 90.3408 250.001 90.5959 250.352C90.851 250.699 91.2461 250.873 91.7812 250.873C92.2808 250.873 92.6794 250.708 92.977 250.379C93.1471 250.187 93.2676 249.966 93.3385 249.714H94.2792C94.2544 249.923 94.1711 250.157 94.0294 250.416C93.8912 250.671 93.7353 250.88 93.5617 251.043C93.2711 251.326 92.9115 251.518 92.4827 251.617C92.2524 251.674 91.992 251.702 91.7014 251.702C90.9928 251.702 90.3922 251.445 89.8996 250.931C89.4071 250.414 89.1609 249.691 89.1609 248.763C89.1609 247.849 89.4089 247.106 89.905 246.536C90.401 245.965 91.0495 245.68 91.8503 245.68ZM93.3757 248.199C93.3367 247.785 93.2463 247.453 93.1046 247.205C92.8424 246.745 92.4048 246.515 91.7918 246.515C91.3524 246.515 90.9839 246.674 90.6863 246.993C90.3886 247.308 90.2309 247.71 90.2132 248.199H93.3757ZM95.5655 245.808H96.4743V246.791C96.5487 246.6 96.7312 246.367 97.0218 246.095C97.3123 245.818 97.6472 245.68 98.0263 245.68C98.044 245.68 98.0741 245.682 98.1167 245.685C98.1592 245.689 98.2318 245.696 98.3346 245.707V246.716C98.2779 246.706 98.2247 246.699 98.1751 246.695C98.1291 246.692 98.0777 246.69 98.021 246.69C97.5391 246.69 97.1688 246.846 96.9102 247.158C96.6515 247.466 96.5222 247.822 96.5222 248.226V251.5H95.5655V245.808Z" fill="white"/>
<rect x="185.047" y="29.0271" width="179.605" height="9.07097" rx="4.53548" fill="#BBBBBB"/>
<circle cx="204.097" cy="78.9175" r="16.3277" fill="#D9D9D9"/>
<rect x="227.682" y="68.9394" width="72.5677" height="9.07097" rx="4.53548" fill="#BBBBBB"/>
<rect x="227.682" y="89.8026" width="239.474" height="9.07097" rx="4.53548" fill="#DBDBDB"/>
<circle cx="204.097" cy="136.972" r="16.3277" fill="#D9D9D9"/>
<rect x="227.682" y="126.994" width="72.5677" height="9.07097" rx="4.53548" fill="#BBBBBB"/>
<rect x="227.682" y="147.857" width="239.474" height="9.07097" rx="4.53548" fill="#DBDBDB"/>
<rect x="227.682" y="168.72" width="317.484" height="9.07097" rx="4.53548" fill="#DBDBDB"/>
<circle cx="204.097" cy="215.889" r="16.3277" fill="#D9D9D9"/>
<rect x="227.682" y="205.911" width="72.5677" height="9.07097" rx="4.53548" fill="#BBBBBB"/>
<rect x="227.682" y="226.774" width="126.994" height="9.07097" rx="4.53548" fill="#DBDBDB"/>
<rect x="227.682" y="247.637" width="170.534" height="9.07097" rx="4.53548" fill="#DBDBDB"/>
<rect x="227.682" y="268.501" width="170.534" height="9.07097" rx="4.53548" fill="#DBDBDB"/>
<circle cx="204.097" cy="315.67" r="16.3277" fill="#D9D9D9"/>
<rect x="227.682" y="305.692" width="72.5677" height="9.07097" rx="4.53548" fill="#BBBBBB"/>
<rect x="227.682" y="326.555" width="126.994" height="9.07097" rx="4.53548" fill="#DBDBDB"/>
<rect x="227.682" y="347.418" width="170.534" height="9.07097" rx="4.53548" fill="#DBDBDB"/>
<rect x="185.047" y="377.352" width="491.646" height="41.7265" rx="5.44258" fill="black"/>
<defs>
<clipPath id="clip0_1_169">
<rect width="14.5135" height="14.5135" fill="white" transform="translate(134.895 37.1853)"/>
</clipPath>
</defs>
</svg>
