<svg width="322" height="324" viewBox="0 0 322 324" fill="none" xmlns="http://www.w3.org/2000/svg">
<path d="M123.001 200L256.001 71.0001" stroke="white" stroke-width="0.8"/>
<path d="M237.867 86.8698L317.885 91.8092" stroke="white" stroke-width="0.493936"/>
<path d="M276.885 17.7188L238.235 86.1289" stroke="white" stroke-width="0.493936"/>
<path d="M191.807 25.3748L237.619 84.2767" stroke="white" stroke-width="0.493936"/>
<g filter="url(#filter0_d_590_12171)">
<circle cx="318.008" cy="90.204" r="12.1014" fill="white"/>
</g>
<g clip-path="url(#clip0_590_12171)">
<path d="M313.859 93.1509C313.58 93.1509 313.342 93.0518 313.144 92.8535C312.945 92.6548 312.846 92.4162 312.846 92.1375V86.5634C312.846 86.2847 312.945 86.0461 313.144 85.8474C313.342 85.6491 313.58 85.55 313.859 85.55H321.967C322.245 85.55 322.484 85.6491 322.683 85.8474C322.881 86.0461 322.98 86.2847 322.98 86.5634V92.1375C322.98 92.4162 322.881 92.6548 322.683 92.8535C322.484 93.0518 322.245 93.1509 321.967 93.1509H313.859ZM313.859 92.1375H321.967V86.5634H313.859V92.1375ZM312.846 94.6711C312.702 94.6711 312.582 94.6225 312.485 94.5252C312.388 94.4282 312.339 94.308 312.339 94.1644C312.339 94.0208 312.388 93.9005 312.485 93.8036C312.582 93.7063 312.702 93.6577 312.846 93.6577H322.98C323.124 93.6577 323.244 93.7063 323.341 93.8036C323.438 93.9005 323.487 94.0208 323.487 94.1644C323.487 94.308 323.438 94.4282 323.341 94.5252C323.244 94.6225 323.124 94.6711 322.98 94.6711H312.846ZM313.859 92.1375V86.5634V92.1375Z" fill="black"/>
</g>
<g filter="url(#filter1_d_590_12171)">
<circle cx="193.038" cy="22.0408" r="12.1014" fill="white"/>
</g>
<path d="M188.888 24.9877C188.61 24.9877 188.371 24.8886 188.173 24.6903C187.974 24.4916 187.875 24.253 187.875 23.9743V18.4002C187.875 18.1215 187.974 17.8829 188.173 17.6842C188.371 17.4859 188.61 17.3868 188.888 17.3868H196.996C197.275 17.3868 197.513 17.4859 197.712 17.6842C197.91 17.8829 198.009 18.1215 198.009 18.4002V23.9743C198.009 24.253 197.91 24.4916 197.712 24.6903C197.513 24.8886 197.275 24.9877 196.996 24.9877H188.888ZM188.888 23.9743H196.996V18.4002H188.888V23.9743ZM187.875 26.5079C187.731 26.5079 187.611 26.4593 187.514 26.362C187.417 26.265 187.368 26.1447 187.368 26.0012C187.368 25.8576 187.417 25.7373 187.514 25.6404C187.611 25.5431 187.731 25.4944 187.875 25.4944H198.009C198.153 25.4944 198.273 25.5431 198.37 25.6404C198.467 25.7373 198.516 25.8576 198.516 26.0012C198.516 26.1447 198.467 26.265 198.37 26.362C198.273 26.4593 198.153 26.5079 198.009 26.5079H187.875ZM188.888 23.9743V18.4002V23.9743Z" fill="black"/>
<g filter="url(#filter2_d_590_12171)">
<circle cx="277.012" cy="17.1014" r="12.1014" fill="white"/>
</g>
<path d="M280.153 10.495L274.056 10.489C273.386 10.489 272.837 11.0376 272.837 11.7082V22.6816C272.837 23.3522 273.386 23.9009 274.056 23.9009H280.153C280.823 23.9009 281.372 23.3522 281.372 22.6816V11.7082C281.372 11.0376 280.823 10.495 280.153 10.495ZM280.153 21.4623H274.056V12.9275H280.153V21.4623Z" fill="black"/>
<g filter="url(#filter3_d_590_12171)">
<circle cx="237.495" cy="86.2525" r="34.0816" fill="white"/>
</g>
<circle cx="237.494" cy="86.2525" r="18.0287" fill="#17191C"/>
<path d="M243.804 87.1539H231.184C230.193 87.1539 229.381 87.9652 229.381 88.9568V92.5625C229.381 93.5541 230.193 94.3654 231.184 94.3654H243.804C244.796 94.3654 245.607 93.5541 245.607 92.5625V88.9568C245.607 87.9652 244.796 87.1539 243.804 87.1539ZM232.987 92.5625C231.996 92.5625 231.184 91.7512 231.184 90.7596C231.184 89.7681 231.996 88.9568 232.987 88.9568C233.979 88.9568 234.79 89.7681 234.79 90.7596C234.79 91.7512 233.979 92.5625 232.987 92.5625ZM243.804 78.1396H231.184C230.193 78.1396 229.381 78.9509 229.381 79.9425V83.5482C229.381 84.5398 230.193 85.3511 231.184 85.3511H243.804C244.796 85.3511 245.607 84.5398 245.607 83.5482V79.9425C245.607 78.9509 244.796 78.1396 243.804 78.1396ZM232.987 83.5482C231.996 83.5482 231.184 82.7369 231.184 81.7453C231.184 80.7537 231.996 79.9425 232.987 79.9425C233.979 79.9425 234.79 80.7537 234.79 81.7453C234.79 82.7369 233.979 83.5482 232.987 83.5482Z" fill="white"/>
<path d="M30.2674 186.905L136.954 181.213" stroke="white" stroke-width="0.650529"/>
<path d="M57.7498 254.723L135.325 181.213" stroke="white" stroke-width="0.650529"/>
<path d="M144.274 289.526L136.142 183.653" stroke="white" stroke-width="0.650529"/>
<g filter="url(#filter4_d_590_12171)">
<circle cx="29.9393" cy="186.255" r="15.938" fill="white"/>
</g>
<g clip-path="url(#clip1_590_12171)">
<path d="M24.4745 190.136C24.1075 190.136 23.7934 190.005 23.5322 189.744C23.2706 189.482 23.1398 189.168 23.1398 188.801V181.46C23.1398 181.093 23.2706 180.778 23.5322 180.517C23.7934 180.256 24.1075 180.125 24.4745 180.125H35.1526C35.5197 180.125 35.834 180.256 36.0956 180.517C36.3568 180.778 36.4874 181.093 36.4874 181.46V188.801C36.4874 189.168 36.3568 189.482 36.0956 189.744C35.834 190.005 35.5197 190.136 35.1526 190.136H24.4745ZM24.4745 188.801H35.1526V181.46H24.4745V188.801ZM23.1398 192.138C22.9507 192.138 22.7923 192.074 22.6646 191.946C22.5365 191.818 22.4724 191.66 22.4724 191.471C22.4724 191.281 22.5365 191.123 22.6646 190.995C22.7923 190.867 22.9507 190.803 23.1398 190.803H36.4874C36.6764 190.803 36.8348 190.867 36.9625 190.995C37.0907 191.123 37.1547 191.281 37.1547 191.471C37.1547 191.66 37.0907 191.818 36.9625 191.946C36.8348 192.074 36.6764 192.138 36.4874 192.138H23.1398ZM24.4745 188.801V181.46V188.801Z" fill="black"/>
</g>
<g filter="url(#filter5_d_590_12171)">
<circle cx="135.977" cy="181.051" r="44.8865" fill="white"/>
</g>
<circle cx="135.976" cy="181.05" r="23.7443" fill="#17191C"/>
<g clip-path="url(#clip2_590_12171)">
<path d="M144.287 182.238H127.666C126.36 182.238 125.291 183.306 125.291 184.612V189.361C125.291 190.667 126.36 191.735 127.666 191.735H144.287C145.593 191.735 146.661 190.667 146.661 189.361V184.612C146.661 183.306 145.593 182.238 144.287 182.238ZM130.04 189.361C128.734 189.361 127.666 188.292 127.666 186.986C127.666 185.681 128.734 184.612 130.04 184.612C131.346 184.612 132.415 185.681 132.415 186.986C132.415 188.292 131.346 189.361 130.04 189.361ZM144.287 170.365H127.666C126.36 170.365 125.291 171.434 125.291 172.74V177.489C125.291 178.795 126.36 179.863 127.666 179.863H144.287C145.593 179.863 146.661 178.795 146.661 177.489V172.74C146.661 171.434 145.593 170.365 144.287 170.365ZM130.04 177.489C128.734 177.489 127.666 176.42 127.666 175.114C127.666 173.808 128.734 172.74 130.04 172.74C131.346 172.74 132.415 173.808 132.415 175.114C132.415 176.42 131.346 177.489 130.04 177.489Z" fill="white"/>
</g>
<g filter="url(#filter6_d_590_12171)">
<circle cx="57.2603" cy="253.584" r="15.938" fill="white"/>
</g>
<g clip-path="url(#clip3_590_12171)">
<path d="M61.3965 244.883L53.3674 244.875C52.4842 244.875 51.7616 245.598 51.7616 246.481V260.933C51.7616 261.817 52.4842 262.539 53.3674 262.539H61.3965C62.2797 262.539 63.0023 261.817 63.0023 260.933V246.481C63.0023 245.598 62.2797 244.883 61.3965 244.883ZM61.3965 259.328H53.3674V248.087H61.3965V259.328Z" fill="black"/>
</g>
<g filter="url(#filter7_d_590_12171)">
<circle cx="143.783" cy="288.062" r="15.938" fill="white"/>
</g>
<g clip-path="url(#clip4_590_12171)">
<path d="M147.919 279.362L139.89 279.354C139.007 279.354 138.285 280.076 138.285 280.96V295.412C138.285 296.295 139.007 297.018 139.89 297.018H147.919C148.803 297.018 149.525 296.295 149.525 295.412V280.96C149.525 280.076 148.803 279.362 147.919 279.362ZM147.919 293.806H139.89V282.565H147.919V293.806Z" fill="black"/>
</g>
<defs>
<filter id="filter0_d_590_12171" x="296.028" y="73.1632" width="43.9603" height="43.9603" filterUnits="userSpaceOnUse" color-interpolation-filters="sRGB">
<feFlood flood-opacity="0" result="BackgroundImageFix"/>
<feColorMatrix in="SourceAlpha" type="matrix" values="0 0 0 0 0 0 0 0 0 0 0 0 0 0 0 0 0 0 127 0" result="hardAlpha"/>
<feOffset dy="4.93936"/>
<feGaussianBlur stdDeviation="4.93936"/>
<feComposite in2="hardAlpha" operator="out"/>
<feColorMatrix type="matrix" values="0 0 0 0 0.329412 0 0 0 0 0.321569 0 0 0 0 0.964706 0 0 0 0.12 0"/>
<feBlend mode="normal" in2="BackgroundImageFix" result="effect1_dropShadow_590_12171"/>
<feBlend mode="normal" in="SourceGraphic" in2="effect1_dropShadow_590_12171" result="shape"/>
</filter>
<filter id="filter1_d_590_12171" x="171.057" y="4.99997" width="43.9603" height="43.9603" filterUnits="userSpaceOnUse" color-interpolation-filters="sRGB">
<feFlood flood-opacity="0" result="BackgroundImageFix"/>
<feColorMatrix in="SourceAlpha" type="matrix" values="0 0 0 0 0 0 0 0 0 0 0 0 0 0 0 0 0 0 127 0" result="hardAlpha"/>
<feOffset dy="4.93936"/>
<feGaussianBlur stdDeviation="4.93936"/>
<feComposite in2="hardAlpha" operator="out"/>
<feColorMatrix type="matrix" values="0 0 0 0 0.329412 0 0 0 0 0.321569 0 0 0 0 0.964706 0 0 0 0.12 0"/>
<feBlend mode="normal" in2="BackgroundImageFix" result="effect1_dropShadow_590_12171"/>
<feBlend mode="normal" in="SourceGraphic" in2="effect1_dropShadow_590_12171" result="shape"/>
</filter>
<filter id="filter2_d_590_12171" x="255.031" y="0.0606413" width="43.9603" height="43.9603" filterUnits="userSpaceOnUse" color-interpolation-filters="sRGB">
<feFlood flood-opacity="0" result="BackgroundImageFix"/>
<feColorMatrix in="SourceAlpha" type="matrix" values="0 0 0 0 0 0 0 0 0 0 0 0 0 0 0 0 0 0 127 0" result="hardAlpha"/>
<feOffset dy="4.93936"/>
<feGaussianBlur stdDeviation="4.93936"/>
<feComposite in2="hardAlpha" operator="out"/>
<feColorMatrix type="matrix" values="0 0 0 0 0.329412 0 0 0 0 0.321569 0 0 0 0 0.964706 0 0 0 0.12 0"/>
<feBlend mode="normal" in2="BackgroundImageFix" result="effect1_dropShadow_590_12171"/>
<feBlend mode="normal" in="SourceGraphic" in2="effect1_dropShadow_590_12171" result="shape"/>
</filter>
<filter id="filter3_d_590_12171" x="193.534" y="47.2315" width="87.9205" height="87.9206" filterUnits="userSpaceOnUse" color-interpolation-filters="sRGB">
<feFlood flood-opacity="0" result="BackgroundImageFix"/>
<feColorMatrix in="SourceAlpha" type="matrix" values="0 0 0 0 0 0 0 0 0 0 0 0 0 0 0 0 0 0 127 0" result="hardAlpha"/>
<feOffset dy="4.93936"/>
<feGaussianBlur stdDeviation="4.93936"/>
<feComposite in2="hardAlpha" operator="out"/>
<feColorMatrix type="matrix" values="0 0 0 0 0.167 0 0 0 0 0.15 0 0 0 0 1 0 0 0 0.12 0"/>
<feBlend mode="normal" in2="BackgroundImageFix" result="effect1_dropShadow_590_12171"/>
<feBlend mode="normal" in="SourceGraphic" in2="effect1_dropShadow_590_12171" result="shape"/>
</filter>
<filter id="filter4_d_590_12171" x="0.99076" y="163.811" width="57.8971" height="57.8971" filterUnits="userSpaceOnUse" color-interpolation-filters="sRGB">
<feFlood flood-opacity="0" result="BackgroundImageFix"/>
<feColorMatrix in="SourceAlpha" type="matrix" values="0 0 0 0 0 0 0 0 0 0 0 0 0 0 0 0 0 0 127 0" result="hardAlpha"/>
<feOffset dy="6.50529"/>
<feGaussianBlur stdDeviation="6.50529"/>
<feComposite in2="hardAlpha" operator="out"/>
<feColorMatrix type="matrix" values="0 0 0 0 0.329412 0 0 0 0 0.321569 0 0 0 0 0.964706 0 0 0 0.12 0"/>
<feBlend mode="normal" in2="BackgroundImageFix" result="effect1_dropShadow_590_12171"/>
<feBlend mode="normal" in="SourceGraphic" in2="effect1_dropShadow_590_12171" result="shape"/>
</filter>
<filter id="filter5_d_590_12171" x="78.0802" y="129.659" width="115.794" height="115.794" filterUnits="userSpaceOnUse" color-interpolation-filters="sRGB">
<feFlood flood-opacity="0" result="BackgroundImageFix"/>
<feColorMatrix in="SourceAlpha" type="matrix" values="0 0 0 0 0 0 0 0 0 0 0 0 0 0 0 0 0 0 127 0" result="hardAlpha"/>
<feOffset dy="6.50529"/>
<feGaussianBlur stdDeviation="6.50529"/>
<feComposite in2="hardAlpha" operator="out"/>
<feColorMatrix type="matrix" values="0 0 0 0 0.167 0 0 0 0 0.15 0 0 0 0 1 0 0 0 0.12 0"/>
<feBlend mode="normal" in2="BackgroundImageFix" result="effect1_dropShadow_590_12171"/>
<feBlend mode="normal" in="SourceGraphic" in2="effect1_dropShadow_590_12171" result="shape"/>
</filter>
<filter id="filter6_d_590_12171" x="28.3117" y="231.141" width="57.8971" height="57.8971" filterUnits="userSpaceOnUse" color-interpolation-filters="sRGB">
<feFlood flood-opacity="0" result="BackgroundImageFix"/>
<feColorMatrix in="SourceAlpha" type="matrix" values="0 0 0 0 0 0 0 0 0 0 0 0 0 0 0 0 0 0 127 0" result="hardAlpha"/>
<feOffset dy="6.50529"/>
<feGaussianBlur stdDeviation="6.50529"/>
<feComposite in2="hardAlpha" operator="out"/>
<feColorMatrix type="matrix" values="0 0 0 0 0.329412 0 0 0 0 0.321569 0 0 0 0 0.964706 0 0 0 0.12 0"/>
<feBlend mode="normal" in2="BackgroundImageFix" result="effect1_dropShadow_590_12171"/>
<feBlend mode="normal" in="SourceGraphic" in2="effect1_dropShadow_590_12171" result="shape"/>
</filter>
<filter id="filter7_d_590_12171" x="114.834" y="265.619" width="57.8971" height="57.8971" filterUnits="userSpaceOnUse" color-interpolation-filters="sRGB">
<feFlood flood-opacity="0" result="BackgroundImageFix"/>
<feColorMatrix in="SourceAlpha" type="matrix" values="0 0 0 0 0 0 0 0 0 0 0 0 0 0 0 0 0 0 127 0" result="hardAlpha"/>
<feOffset dy="6.50529"/>
<feGaussianBlur stdDeviation="6.50529"/>
<feComposite in2="hardAlpha" operator="out"/>
<feColorMatrix type="matrix" values="0 0 0 0 0.329412 0 0 0 0 0.321569 0 0 0 0 0.964706 0 0 0 0.12 0"/>
<feBlend mode="normal" in2="BackgroundImageFix" result="effect1_dropShadow_590_12171"/>
<feBlend mode="normal" in="SourceGraphic" in2="effect1_dropShadow_590_12171" result="shape"/>
</filter>
<clipPath id="clip0_590_12171">
<rect width="12.1615" height="12.1615" fill="white" transform="translate(311.832 84.0298)"/>
</clipPath>
<clipPath id="clip1_590_12171">
<rect width="16.0171" height="16.0171" fill="white" transform="translate(21.8051 178.123)"/>
</clipPath>
<clipPath id="clip2_590_12171">
<rect width="28.4932" height="28.4932" fill="white" transform="translate(121.73 166.804)"/>
</clipPath>
<clipPath id="clip3_590_12171">
<rect width="19.2697" height="19.2697" fill="white" transform="translate(47.7471 244.072)"/>
</clipPath>
<clipPath id="clip4_590_12171">
<rect width="19.2697" height="19.2697" fill="white" transform="translate(134.27 278.551)"/>
</clipPath>
</defs>
</svg>
