<?xml version="1.0" encoding="UTF-8"?>
<svg fill="none" preserveAspectRatio="none" version="1.1" viewBox="0 0 1280 1021" xmlns="http://www.w3.org/2000/svg"><g clip-path="url(#e)"><g opacity=".5"><mask id="d" x="401" y="-208" width="1391" height="1326" style="mask-type:alpha" maskUnits="userSpaceOnUse"><path d="m1791 105.51-691.54-313.51-697.87 1011.5 691.54 313.51 697.87-1011.5z" fill="url(#b)"/></mask><g clip-rule="evenodd" fill="#fff" fill-opacity=".3" fill-rule="evenodd" mask="url(#d)"><path d="m1077 1143.3 2.5-3.72c-6.36-6.51-12.68-13.06-18.94-19.66-7.84-8.19-15.71-16.33-23.37-24.24l-1.86-1.93-0.04-0.03v-0.01c-75.046-77.56-139.86-144.54-165.12-230.13-28.162-96.472-9.309-160.08 16.238-227.42 29.029-75.115 46.247-148.29 51.178-217.51 7.283-105.1-10.235-220.48-30.251-329.52-9.202-49.507-20.581-93.562-30.494-130.13-5.24-19.243-9.337-37.995-1.995-55.935 5.703-13.95 12.635-27.67 19.338-40.933l0.018-0.036c7.862-15.557 15.992-31.644 22.586-48.831 14.834-38.516 27.453-77.902 40.134-118.22 1.782-5.617 3.697-11.43 5.564-17.1l0.54-1.637 0.022-0.067c6.246-18.967 12.614-38.303 16.655-56.766l-3.862-1.759c-3.987 18.769-10.52 38.591-16.924 58.011-2.043 6.194-4.152 12.596-6.12 18.782-12.664 40.266-25.252 79.585-40.051 117.99-6.522 16.99-14.596 32.98-22.415 48.442l-3e-3 5e-3c-6.747 13.355-13.721 27.159-19.494 41.271-7.783 19.02-3.583 38.394 1.819 58.215 9.9 36.504 21.252 80.485 30.442 129.88 19.974 108.82 37.455 223.96 30.206 328.67-4.905 68.841-22.04 141.66-50.939 216.42-25.788 67.99-44.814 132.2-16.356 229.68 11.658 39.484 32.236 77.447 64.774 119.46 29.011 37.454 64.042 73.664 101.14 112l0.17 0.18c8.19 8.45 16.64 17.19 25.06 25.97 6.52 6.88 13.14 13.75 19.86 20.61zm-73.39-1512.9c-3 11.79-6.545 23.755-10.049 35.576-1.946 6.492-3.848 12.99-5.707 19.494-12.498 44.434-23.927 84.405-37.22 123.67-5.9 17.514-13.34 34.322-20.535 50.575l-3e-3 6e-3 -0.097 0.219-0.017 0.038c-6.676 15.078-13.577 30.663-19.068 46.456-7.322 21.043-1.037 42.919 3.556 58.904v8e-4l0.013 0.046c14.365 50.116 25.859 97.245 35.143 144.08 21.763 111 41.065 228.23 35.005 333.52-4.101 69.284-20.42 141.94-49.885 222.14-11.744 32.621-23.556 67.83-27.681 108-4.462 43.453 0.834 87.76 16.181 135.46 26.696 82.321 90.704 151.6 161.89 222.65l2.53-3.75c-70.56-70.46-133.87-139.19-160.24-220.49-32.907-102.28-14.295-169.74 11.426-241.18 29.598-80.548 45.988-153.56 50.11-223.21 6.083-105.68-13.256-223.16-35.058-334.38-9.301-46.925-20.815-94.144-35.205-144.35-5.807-20.158-10.08-38.352-3.663-56.808 5.443-15.64 12.316-31.162 18.964-46.173l0.036-0.08 3e-3 -8e-3c7.252-16.383 14.75-33.321 20.732-51.064 13.32-39.348 24.768-79.377 37.276-123.86 1.857-6.487 3.753-12.968 5.689-19.445 3.378-11.379 6.788-22.895 9.728-34.283zm28.08 12.789c-1.07 4.127-2.16 8.244-3.24 12.347-1.75 6.566-3.47 13.137-5.14 19.711l-0.1 0.395c-10.92 43.683-22.21 88.837-35.291 132.59-5.202 17.477-11.767 34.476-18.116 50.914l-3e-3 7e-3 -0.011 0.029-0.04 0.103c-5.968 15.459-12.133 31.432-17.026 47.501-6.797 22.306-0.302 43.652 5.433 62.488 13.936 45.904 25.908 92.637 36.599 142.86 23.125 109.79 47.385 236.41 42.385 349.82-2.04 44.804-9.48 117.67-50.336 232.7-11.986 34.477-23.48 72.201-26.448 114.36-3.255 46.239 4.051 93.188 22.329 143.54 15.373 42.056 40.095 82.408 77.775 127 10.77 12.74 22.15 25.29 34.03 37.8l2.57-3.82c-11.36-11.94-22.35-24.17-32.97-36.67-37.44-44.29-61.97-84.334-77.21-126.03-18.119-49.898-25.36-96.399-22.139-142.15 2.934-41.726 14.347-79.149 26.235-113.36 19.644-55.319 46.274-139.75 50.554-233.79 5.02-113.81-19.28-240.69-42.454-350.68-10.713-50.324-22.71-97.144-36.669-143.13l-0.011-0.037c-5.589-18.361-11.923-39.17-5.451-60.389 4.865-15.965 11.019-31.9 16.971-47.314l0.014-0.035 1e-3 -3e-3c6.378-16.519 12.974-33.599 18.222-51.22 13.127-43.913 24.447-89.199 35.387-132.98l0.05-0.169c1.42-5.651 2.95-11.442 4.45-17.109v-6e-3l0.67-2.558c0.97-3.634 1.93-7.28 2.88-10.933zm29.13 13.261c-0.99 4.242-1.97 8.491-2.91 12.691l-0.98 4.403c-9.13 41.373-18.57 84.144-29.31 125.8-4.59 17.871-10.47 35.497-16.16 52.544-5.79 17.36-11.782 35.311-16.287 53.235-5.625 22.362 0.868 42.82 7.147 62.605l0.02 0.0466c14.42 45.556 27.5 94.797 39.98 150.52 27.06 122.09 53.02 251.03 47.47 367.58-4.35 88.581-28.43 168.9-51.43 235.81-10.78 32.023-22.09 70.77-24.26 115.35-2.24 46.165 5.58 93.022 23.93 143.25 14.45 39.347 36.76 77.297 69.4 117.84l2.69-3.98c-31.85-39.76-53.67-77.03-67.85-115.61-41.26-112.96-21.46-191.49 0.34-256.21 23.07-67.157 47.25-147.82 51.62-236.87 5.58-116.97-20.43-246.18-47.54-368.49-12.51-55.817-25.61-105.14-40.06-150.79v-0.0022c-6.15-19.344-12.499-39.351-7.125-60.719 4.465-17.778 10.435-35.654 16.205-52.94v-1e-3c5.71-17.112 11.62-34.812 16.24-52.82 10.77-41.719 20.21-84.532 29.34-125.94l0.97-4.395c0.82-3.662 1.68-7.374 2.54-11.089zm30.51 13.891c-7.63 39.666-15.53 80.519-24.42 120.54-3.84 17.431-8.83 34.822-13.66 51.643v0.011l-0.01 0.015c-5.33 18.588-10.85 37.813-14.75 56.896-4.58 22.348 2.23 42.863 8.82 62.701l0.01 0.0336 0.61 1.8303c14.37 43.433 27.56 91.88 42.76 157.07 30.43 131.74 57.3 259.8 51.94 378.4-4.22 91.019-29.16 171.76-52.2 240.32-10.33 31.4-22.35 73.625-23.62 121.78-1.29 48.94 8.34 98.382 29.44 151.14 8.04 20.05 18.03 39.31 29.62 57.99l2.85-4.24c-11-17.94-20.52-36.42-28.22-55.61-20.93-52.336-30.47-101.33-29.2-149.79 1.26-47.659 13.18-89.522 23.42-120.66 23.12-68.798 48.15-149.86 52.4-241.37 5.38-119.05-21.54-247.37-52.02-379.35-15.23-65.296-28.44-113.83-42.85-157.36l-0.61-1.8393c-6.45-19.42-13.13-39.5-8.74-60.91 3.87-18.919 9.36-38.046 14.67-56.548l0.01-0.046c4.85-16.888 9.85-34.359 13.74-51.915 8.76-39.475 16.57-79.737 24.1-118.88zm31.8 14.481c-5.13 30.76-10.47 62.028-16.28 92.877-3.17 16.918-7.34 33.971-11.38 50.457-4.87 19.913-9.9 40.512-13.16 60.842-3.52 21.979 3.32 41.891 9.92 61.146v0.0013l0.01 0.0226 1.01 2.9443c18.09 52.995 32.61 110.26 44.43 159.28l0.01 0.037v1e-3l0.01 4e-3c27.58 115.47 61.91 259.16 57.21 388.8-3.44 91.989-27.94 172.09-52.74 246.27-10.5 32.128-22.72 75.304-23.99 124.46-1.27 49.533 8.4 99.683 29.57 153.32 1.06 2.68 2.16 5.35 3.29 8.02l3.14-4.66c-0.72-1.74-1.43-3.48-2.12-5.23-21.01-53.202-30.6-102.91-29.33-151.96 0.66-25.561 3.96-62.685 23.79-123.33 24.88-74.44 49.47-154.86 52.94-247.36 4.72-130.15-29.68-274.12-57.32-389.79-11.84-49.104-26.39-106.46-44.52-159.59l-1.01-2.948c-6.48-18.86-13.18-38.369-9.79-59.458 3.22-20.169 8.24-40.69 13.09-60.525l0.1-0.427c4.01-16.411 8.16-33.366 11.32-50.252 5.69-30.237 10.94-60.885 15.98-91.05zm32.15 14.638c-2.69 18.602-5.46 37.304-8.37 55.865-2.69 17.28-6.29 34.806-9.77 51.757l-0.01 0.034c-4.5 21.889-9.15 44.53-11.84 66.77-2.59 21.379 4.14 40.55 10.66 59.085l1.41 4.0312c16.55 47.58 30.13 98.725 45.4 160.88l0.52 2.1401c30.39 124.69 64.82 266.01 60.91 396.17-3.08 98.861-32.31 186.5-55.8 256.94v8e-3l-0.01 0.025c-16.06 49.34-23.29 89.687-23.43 130.82-0.12 34.691 5.04 69.549 15.64 105.41l3.43-5.085c-9.82-34.315-14.59-67.703-14.48-100.93 0.14-40.714 7.3-80.685 23.24-129.6l0.02-0.071v-3e-3c23.56-70.67 52.88-158.61 55.97-258.02 3.94-130.64-30.56-272.21-60.99-397.11l-0.53-2.1418c-15.3-62.251-28.9-113.48-45.49-161.18l-1.42-4.0418-0.01-0.0386c-6.38-18.156-12.97-36.921-10.48-57.446 2.68-22.091 7.32-44.662 11.8-66.482l0.04-0.152c3.48-16.952 7.08-34.473 9.77-51.8 2.8-17.904 5.48-35.936 8.08-53.887zm35.21 16.03c-0.98 8.027-1.97 16.055-2.99 24.083-1.96 15.559-4.65 31.479-7.25 46.874l-0.04 0.216c-3.82 22.593-7.77 45.957-9.51 68.732-1.57 20.433 4.99 38.548 11.33 56.072v0.0014l0.02 0.0327 1.4 3.8959c18.53 51.614 33.13 107.74 47.68 165.51l2.3 9.199 0.01 0.0636c32.08 128.43 68.42 273.98 63.24 407.57-3.84 95.7-32.16 180.13-57.15 254.64l-0.01 0.016c-15.77 48.074-23.23 89.533-23.46 130.48-0.09 16.534 0.97 32.931 3.16 49.108l3.99-5.931c-1.75-14.44-2.59-29.052-2.51-43.773 0.23-40.529 7.62-81.609 23.25-129.25 25.08-74.766 53.5-159.5 57.36-255.77 5.2-134.13-31.22-279.97-63.35-408.64l-2.3-9.2043c-14.58-57.86-29.2-114.08-47.78-165.83-0.46-1.3059-0.94-2.6063-1.41-3.9067v-0.0017c-6.51-17.976-12.66-34.955-11.16-54.624 1.73-22.6 5.67-45.874 9.48-68.377l0.09-0.546c2.59-15.342 5.27-31.175 7.22-46.702 0.94-7.32 1.85-14.64 2.75-21.96zm39.39 17.937c-0.94 7.853-1.94 15.7-2.94 23.42l-0.04 0.267v0.022c-3.25 25.202-6.6 51.254-7.31 76.45-0.55 19.603 6.07 36.872 12.47 53.566 0.9 2.337 1.8 4.682 2.68 7.035 19.13 51.104 33.59 106.77 48.9 165.7l3.93 15.234c69.928 237.56 84.157 446.1 11.38 665.78l-0.02 0.054c-1.56 4.69-3.11 9.368-4.65 14.038-10.98 33.981-17.65 65.175-20.39 95.75l5.47-8.125c3.09-27.781 9.47-56.237 19.4-87.001 1.55-4.674 3.1-9.346 4.65-14.018 89.292-222.87 44.13-452.82-11.26-667.97v-0.0261l-3.86-14.974-0.07-0.2694-0.03-0.1165v-0.0086c-15.33-58.973-29.8-114.68-48.98-165.92-0.81-2.182-1.65-4.36-2.48-6.531v-5e-3l-0.21-0.526c-6.57-17.128-12.77-33.307-12.24-52.192 0.7-25.102 4.07-51.155 7.33-76.353 0.91-7.01 1.82-14.132 2.69-21.272zm43.61 19.852c-1.44 18.602-2.44 37.299-1.97 55.441 0.49 18.382 7.1 34.488 13.49 50.066v3e-3c1.21 2.947 2.46 5.99 3.65 9.004 74.719 812.85 335.17 847.74 4.49-1.944-1.2-3.024-2.43-6.04-3.67-9.047l-0.01-0.033c-6.56-15.982-12.75-31.074-13.2-48.783-0.45-17.194 0.44-34.936 1.77-52.635zm52.32 23.824c0.09 1.348 0.18 2.697 0.29 4.034 167.75 409.54 62.728 593.01 4.78-0.973l-0.05-0.778z"/><path d="m1077 1143.3 2.5-3.72c-6.36-6.51-12.68-13.06-18.94-19.66-7.84-8.19-15.71-16.33-23.37-24.24l-1.86-1.93-0.04-0.03v-0.01c-75.046-77.56-139.86-144.54-165.12-230.13-28.162-96.472-9.309-160.08 16.238-227.42 29.029-75.115 46.247-148.29 51.178-217.51 7.283-105.1-10.235-220.48-30.251-329.52-9.202-49.507-20.581-93.562-30.494-130.13-5.24-19.243-9.337-37.995-1.995-55.935 5.703-13.95 12.635-27.67 19.338-40.933l0.018-0.036c71.37-220.56 101.12-208.86-3.871-1.158l-3e-3 5e-3c-6.747 13.355-13.721 27.159-19.494 41.271-7.783 19.02-3.583 38.394 1.819 58.215 9.9 36.504 21.252 80.485 30.442 129.88 19.974 108.82 37.455 223.96 30.206 328.67-4.905 68.841-22.04 141.66-50.939 216.42-25.788 67.99-44.814 132.2-16.356 229.68 11.658 39.484 32.236 77.447 64.774 119.46 29.011 37.454 64.042 73.664 101.14 112l0.17 0.18c8.19 8.45 16.64 17.19 25.06 25.97 6.52 6.88 13.14 13.75 19.86 20.61zm-146.9-1283.6-3e-3 6e-3 -0.097 0.219-0.017 0.038c-6.676 15.078-13.577 30.663-19.068 46.456-7.322 21.043-1.037 42.919 3.556 58.904v8e-4l0.013 0.046c14.365 50.116 25.859 97.245 35.143 144.08 21.763 111 41.065 228.23 35.005 333.52-4.101 69.284-20.42 141.94-49.885 222.14-11.744 32.621-23.556 67.83-27.681 108-4.462 43.453 0.834 87.76 16.181 135.46 26.696 82.321 90.704 151.6 161.89 222.65l2.53-3.75c-70.56-70.46-133.87-139.19-160.24-220.49-32.907-102.28-14.295-169.74 11.426-241.18 29.598-80.548 45.988-153.56 50.11-223.21 6.083-105.68-13.256-223.16-35.058-334.38-9.301-46.925-20.815-94.144-35.205-144.35-5.807-20.158-10.08-38.352-3.663-56.808 5.443-15.64 12.316-31.162 18.964-46.173l0.036-0.08 3e-3 -8e-3c61.929-214.8 83.322-198.3-3.946-1.1zm39.704-0.57-3e-3 7e-3 -0.011 0.029-0.04 0.103c-5.968 15.459-12.133 31.432-17.026 47.501-6.797 22.306-0.302 43.652 5.433 62.488 13.936 45.904 25.908 92.637 36.599 142.86 23.125 109.79 47.385 236.41 42.385 349.82-2.04 44.804-9.48 117.67-50.336 232.7-11.986 34.477-23.48 72.201-26.448 114.36-3.255 46.239 4.051 93.188 22.329 143.54 15.373 42.056 40.095 82.408 77.775 127 10.77 12.74 22.15 25.29 34.03 37.8l2.57-3.82c-11.36-11.94-22.35-24.17-32.97-36.67-37.44-44.29-61.97-84.334-77.21-126.03-18.119-49.898-25.36-96.399-22.139-142.15 2.934-41.726 14.347-79.149 26.235-113.36 19.644-55.319 46.274-139.75 50.554-233.79 5.02-113.81-19.28-240.69-42.454-350.68-10.713-50.324-22.71-97.144-36.669-143.13l-0.011-0.037c-5.589-18.361-11.923-39.17-5.451-60.389 4.865-15.965 11.019-31.9 16.971-47.314l0.014-0.035 1e-3 -3e-3c53.547-206.81 69.188-190.68-4.128-0.797zm41.657-7.255c-5.79 17.36-11.782 35.311-16.287 53.235-5.625 22.362 0.868 42.82 7.147 62.605l0.02 0.0466c14.42 45.556 27.5 94.797 39.98 150.52 27.06 122.09 53.02 251.03 47.47 367.58-4.35 88.581-28.43 168.9-51.43 235.81-10.78 32.023-22.09 70.77-24.26 115.35-2.24 46.165 5.58 93.022 23.93 143.25 14.45 39.347 36.76 77.297 69.4 117.84l2.69-3.98c-31.85-39.76-53.67-77.03-67.85-115.61-41.26-112.96-21.46-191.49 0.34-256.21 23.07-67.157 47.25-147.82 51.62-236.87 5.58-116.97-20.43-246.18-47.54-368.49-12.51-55.817-25.61-105.14-40.06-150.79v-0.0022c-6.15-19.344-12.499-39.351-7.125-60.719 4.465-17.778 10.435-35.654 16.205-52.94v-1e-3c43.841-190.91 53.544-173.81-4.25-0.61zm41.79-9.369v0.011l-0.01 0.015c-5.33 18.588-10.85 37.813-14.75 56.896-4.58 22.348 2.23 42.863 8.82 62.701l0.01 0.0336 0.61 1.8303c14.37 43.433 27.56 91.88 42.76 157.07 30.43 131.74 57.3 259.8 51.94 378.4-4.22 91.019-29.16 171.76-52.2 240.32-10.33 31.4-22.35 73.625-23.62 121.78-1.29 48.94 8.34 98.382 29.44 151.14 8.04 20.05 18.03 39.31 29.62 57.99l2.85-4.24c-11-17.94-20.52-36.42-28.22-55.61-20.93-52.336-30.47-101.33-29.2-149.79 1.26-47.659 13.18-89.522 23.42-120.66 23.12-68.798 48.15-149.86 52.4-241.37 5.38-119.05-21.54-247.37-52.02-379.35-15.23-65.296-28.44-113.83-42.85-157.36l-0.61-1.8393c-6.45-19.42-13.13-39.5-8.74-60.91 3.87-18.919 9.36-38.046 14.67-56.548l0.01-0.046c33.787-163.62 37.974-147.86-4.33-0.479zm29.06 46.477c-3.52 21.979 3.32 41.891 9.92 61.146v0.0013l0.01 0.0226 1.01 2.9443c18.09 52.995 32.61 110.26 44.43 159.28l0.01 0.037v1e-3l0.01 4e-3c27.58 115.47 61.91 259.16 57.21 388.8-3.44 91.989-27.94 172.09-52.74 246.27-10.5 32.128-22.72 75.304-23.99 124.46-1.27 49.533 8.4 99.683 29.57 153.32 1.06 2.68 2.16 5.35 3.29 8.02l3.14-4.66c-0.72-1.74-1.43-3.48-2.12-5.23-21.01-53.202-30.6-102.91-29.33-151.96 0.66-25.561 3.96-62.685 23.79-123.33 24.88-74.44 49.47-154.86 52.94-247.36 4.72-130.15-29.68-274.12-57.32-389.79-11.84-49.104-26.39-106.46-44.52-159.59l-1.01-2.948c-6.48-18.86-13.18-38.369-9.79-59.458 43.032-176.79 26.118-187.32-4.51 0.02zm42.98-15.112c-2.59 21.379 4.14 40.55 10.66 59.085l1.41 4.0312c16.55 47.58 30.13 98.725 45.4 160.88l0.52 2.1401c30.39 124.69 64.82 266.01 60.91 396.17-3.08 98.861-32.31 186.5-55.8 256.94v8e-3l-0.01 0.025c-16.06 49.34-23.29 89.687-23.43 130.82-0.12 34.691 5.04 69.549 15.64 105.41l3.43-5.085c-9.82-34.315-14.59-67.703-14.48-100.93 0.14-40.714 7.3-80.685 23.24-129.6l0.02-0.071v-3e-3c23.56-70.67 52.88-158.61 55.97-258.02 3.94-130.64-30.56-272.21-60.99-397.11l-0.53-2.1418c-15.3-62.251-28.9-113.48-45.49-161.18l-1.42-4.0418-0.01-0.0386c-6.38-18.156-12.97-36.921-10.48-57.446 31.108-153.76 12.755-139.34-4.56 0.165zm45.41-18.491c-1.57 20.433 4.99 38.548 11.33 56.072v0.0014l0.02 0.0327 1.4 3.8959c18.53 51.614 33.13 107.74 47.68 165.51l2.3 9.199 0.01 0.0636c32.08 128.43 68.42 273.98 63.24 407.57-3.84 95.7-32.16 180.13-57.15 254.64l-0.01 0.016c-15.77 48.074-23.23 89.533-23.46 130.48-0.09 16.534 0.97 32.931 3.16 49.108l3.99-5.931c-1.75-14.44-2.59-29.052-2.51-43.773 0.23-40.529 7.62-81.609 23.25-129.25 25.08-74.766 53.5-159.5 57.36-255.77 5.2-134.13-31.22-279.97-63.35-408.64l-2.3-9.2043c-14.58-57.86-29.2-114.08-47.78-165.83-0.46-1.3059-0.94-2.6063-1.41-3.9067v-0.0017c-6.51-17.976-12.66-34.955-11.16-54.624 22.936-130.55 4.8779-118.41-4.61 0.336zm48.89-21.809c-0.55 19.603 6.07 36.872 12.47 53.566 0.9 2.337 1.8 4.682 2.68 7.035 19.13 51.104 33.59 106.77 48.9 165.7l3.93 15.234c69.928 237.56 84.157 446.1 11.38 665.78l-0.02 0.054c-1.56 4.69-3.11 9.368-4.65 14.038-10.98 33.981-17.65 65.175-20.39 95.75l5.47-8.125c3.09-27.781 9.47-56.237 19.4-87.001 1.55-4.674 3.1-9.346 4.65-14.018 89.292-222.87 44.13-452.82-11.26-667.97v-0.0261l-3.86-14.974-0.07-0.2694-0.03-0.1165v-0.0086c-15.33-58.973-29.8-114.68-48.98-165.92-0.81-2.182-1.65-4.36-2.48-6.531v-5e-3l-0.21-0.526c-6.57-17.128-12.77-33.307-12.24-52.192 18.21-128.52-1.4813-99.742-4.69 0.526zm117.79 192.72v0.0038l0.02 0.0809 2.98 11.075c1.22 4.5599 2.44 9.1363 3.67 13.731l1.44 5.3861 0.02 0.0866c-30.11 758.03 201.13 740.02 4.6-1.6574-1.67-6.2169-3.32-12.397-4.96-18.549l-0.15-0.5701-2.99-11.077c-83.957-256.58-68.769-236.97-4.63 1.4896z"/></g></g><g opacity=".73"><mask id="c" x="-143" y="-150" width="1597" height="1208" style="mask-type:alpha" maskUnits="userSpaceOnUse"><path d="m1454-149.62h-1597v1207.3h1597v-1207.3z" fill="url(#a)"/></mask><g clip-rule="evenodd" fill="#fff" fill-opacity=".3" fill-rule="evenodd" mask="url(#c)"><path d="m378.59-272.96h-2.938c7.033 12.253 13.058 25.141 15.358 39.479 2.039 12.921-0.339 26.756-6.526 37.957-4.881 8.825-14.446 20.289-32.313 24.739-12.259 2.992-25.722 3.602-38.732 4.192l-0.125 6e-3 -0.292 0.013h-6e-3c-3.856 0.173-7.837 0.352-11.645 0.595-18.827 1.213-38.845-0.431-61.2-5.034-11.347-2.338-22.748-5.384-33.773-8.329l-0.054-0.015-0.226-0.06c-4.679-1.249-9.506-2.538-14.256-3.752l-1.722-0.44c-12.271-3.153-24.959-6.403-36.747-4.928-6.395 0.748-11.741 3.44-15.895 8.001-6.52 7.177-9.094 17.77-9.094 28.464 0 7.701 1.341 15.449 3.498 22.005 6.305 19.516 20.185 38.172 33.613 56.221l0.059 0.0803c5.334 7.1687 10.847 14.583 15.829 21.958 10.924 16.127 18.964 32.544 27.48 49.922l0.072 0.14544c1.555 3.187 3.146 6.4248 4.779 9.7217 2.295 4.6284 4.631 9.2906 6.991 13.991 7.849 15.652 15.966 31.841 23.207 48.271 18.403 43.008 39.018 101.58 41.688 137 1.251 20.161-6.085 30.847-13.183 41.185-3.32 4.831-6.448 9.389-8.636 14.778-2.485 6.425-4.112 13.357 3.296 27.529 3.016 5.749 7.616 12.69 14.089 21.236 11.049 14.583 24.196 30.129 36.92 45.181h6e-3v4e-3l6e-3 4e-3 0.244 0.292c3.367 3.973 6.729 7.955 10.066 11.924 38.201 45.811 87.523 97.209 135.23 146.92 16.889 17.6 32.837 34.22 47.921 50.202 22.921 24.507 48.846 52.392 66.421 73.247 12.444 14.756 21.437 26.917 30.132 38.659v4e-3l0.143 0.19 0.876 1.184 0.012 0.012v5e-3c4.583 6.188 8.963 12.097 13.874 18.408 22.605 28.92 48.452 56.132 83.811 88.248 27.217 24.744 69.072 59.239 124.4 102.52 41.419 32.449 80.997 62.249 120.99 91.097 68.515 49.5 131.64 91.34 187.62 124.37 24.85 14.66 46.65 26.67 66.11 36.81 4.26 1.95 8.32 4.09 12.39 6.24 4.48 2.37 8.97 4.74 13.72 6.84v0.16c22.65 11.13 41.84 19.7 59.05 27.38l0.3 0.13 0.66-0.79h-0.01c-7.3-3.59-14.95-7.43-22.98-11.57l0.07 0.03-0.07-0.03c1.63 0.74 3.23 1.47 4.82 2.19l2.12 0.95 2.76 1.25c1.74 0.78 3.52 1.58 5.3 2.38l2.25 1.01 1.9 0.84c-6.4-2.86-12.79-5.74-19.15-8.64-32.54-14.84-72.61-34.33-127.54-66.73-55.92-32.99-118.98-74.79-187.42-124.24-41.187-29.753-81.504-60.106-120.92-91.046-55.288-43.245-97.095-77.707-124.26-102.41-35.263-32.026-61.039-59.163-83.572-87.986-5.203-6.691-9.834-12.947-14.732-19.57l-0.042-0.055v-4e-3c-8.743-11.814-17.784-24.034-30.311-38.891-17.605-20.885-43.553-48.804-66.492-73.328-15.888-16.78-31.866-33.519-47.933-50.215l-0.114-0.114c-47.641-49.648-96.898-100.98-135.02-146.7-3.337-3.973-6.698-7.955-10.072-11.928l-0.149-0.177c-12.741-15.069-25.912-30.645-36.961-45.219-6.401-8.462-10.966-15.327-13.922-20.982-7.116-13.607-5.59-20.196-3.224-26.266 2.109-5.207 5.185-9.692 8.45-14.443 7.247-10.558 14.745-21.482 13.469-42.176-2.688-35.611-23.362-94.372-41.813-137.5-7.265-16.476-15.388-32.686-23.248-48.355-3.975-7.8865-7.891-15.786-11.759-23.7l-6e-3 -0.0097c-8.558-17.483-16.645-33.994-27.67-50.273-4.81-7.1214-10.102-14.251-15.245-21.178v-0.0029l-0.632-0.8496c-13.361-17.956-27.176-36.52-33.416-55.816-5.042-15.242-5.554-37.048 5.215-48.9 3.713-4.079 8.439-6.484 14.083-7.143 11.108-1.387 23.469 1.783 35.418 4.847l1.716 0.445c4.816 1.23 9.714 2.536 14.452 3.804l0.054 0.014c11.073 2.959 22.522 6.017 33.97 8.376 22.677 4.671 43.011 6.34 62.165 5.098 3.767-0.239 7.545-0.413 11.532-0.597l0.346-0.016c13.23-0.592 26.902-1.209 39.548-4.295 14.911-3.719 26.652-12.663 33.958-25.881 6.353-11.497 8.797-25.686 6.699-38.929-2.288-14.287-8.182-27.094-15.108-39.246zm-12.074 0h-2.789c3.802 8.31 6.699 17.004 7.897 26.312 2.979 23.472-10.007 52.172-39.882 59.176-13.326 3.064-27.957 3.304-42.123 3.536l-0.114 2e-3 -0.137 2e-3c-3.963 0.062-7.706 0.122-11.448 0.243-18.684 0.613-38.798-1.543-61.48-6.598-10.966-2.439-21.973-5.482-32.623-8.429l-0.268-0.074-6e-3 -1e-3c-5.173-1.431-10.513-2.908-15.77-4.291l-1.067-0.279c-12.634-3.331-25.686-6.767-37.927-5.419-6.46 0.668-11.919 3.276-16.21 7.752-7.062 7.364-9.833 18.649-9.833 29.736 0 6.4 0.923 12.74 2.491 18.209 5.679 20.349 20.245 39.817 34.339 58.652l0.102 0.1386 6e-3 0.0013v3e-3c5.572 7.4451 11.329 15.144 16.442 22.792 10.024 14.902 17.307 29.998 25.019 45.975l0.054 0.1145c1.489 3.0941 3.009 6.2346 4.571 9.4386 1.835 3.7471 3.7 7.5225 5.572 11.321l0.894 1.8074c7.7 15.568 15.662 31.668 22.7 48.059 16.526 39.682 36.634 99.149 38.887 136.15 1.037 21.137-7.235 31.658-15.233 41.826l-6e-3 7e-3 -0.018 0.024c-3.552 4.518-6.907 8.786-9.392 13.87-2.861 6.116-4.851 12.777 2.133 26.823 2.891 5.791 7.45 12.947 13.559 21.282 9.267 12.647 20.012 25.936 30.412 38.803l0.339 0.422c3.356 4.143 6.711 8.298 10.042 12.453 36.569 46.001 84.276 97.725 130.42 147.75l0.953 1.036c16.604 18.002 32.308 35.036 47.034 51.322 50.657 56.006 74.388 88.451 99.508 122.8l2.265 3.09c22.575 30.331 48.965 58.985 85.551 92.923 34.84 32.356 86.785 74.785 124.22 104.69 41.122 32.897 80.444 63.081 120.22 92.293 68.166 50.133 131.08 92.453 186.98 125.78 24.12 14.37 45.24 26.12 64.06 36.02 10.65 4.9 20.42 9.2 29.58 13.24l0.05 0.02 0.04 0.02 0.01 0.01h0.03l0.01 0.01 0.45 0.2 0.01 0.01-1.06 1.28c21.32 10.44 39.39 18.47 55.63 25.68l0.46-0.56c-8.79-4.32-17.49-8.73-26.1-13.22h0.02l-0.03-0.01c-31.02-14.22-69.23-33.06-121.49-64.21-55.83-33.29-118.67-75.56-186.78-125.65-39.751-29.19-79.049-59.357-120.15-92.229-37.409-29.88-89.305-72.275-124.1-104.58-36.491-33.844-62.803-62.422-85.301-92.644l-2.252-3.086-0.048-0.067c-25.132-34.356-48.893-66.835-99.586-122.89-14.375-15.893-29.685-32.492-45.842-50.021l-6e-3 -8e-3 -2.163-2.342-0.292-0.317-6e-3 -4e-3c-46.015-49.907-93.579-101.48-130.03-147.33-3.337-4.155-6.699-8.315-10.048-12.457-10.501-12.98-21.359-26.409-30.704-39.162-6.049-8.255-10.561-15.33-13.403-21.028-6.687-13.454-4.816-19.752-2.122-25.518 2.402-4.915 5.703-9.117 9.202-13.559l0.029-0.041c8.171-10.402 16.616-21.16 15.561-42.845-2.265-37.184-22.426-96.837-39.006-136.64-7.05-16.425-15.018-32.53-22.724-48.107l-0.018-0.0372-0.822-1.662c-1.896-3.8435-3.785-7.6638-5.644-11.458-1.562-3.1997-3.075-6.3403-4.565-9.4343l-0.024-0.0507c-7.748-16.056-15.066-31.231-25.174-46.25-5.179-7.7267-10.983-15.496-16.603-23.007-13.999-18.708-28.47-38.05-34.072-58.115-4.154-14.553-3.754-35.294 6.92-46.445 3.849-4.015 8.701-6.357 14.428-6.944 11.573-1.28 24.303 2.068 36.616 5.307l0.036 0.01 1.061 0.279c4.809 1.265 9.696 2.613 14.452 3.925h6e-3l1.549 0.429c10.686 2.958 21.747 6.014 32.784 8.474 22.981 5.115 43.381 7.3 62.374 6.679 3.713-0.126 7.45-0.185 11.395-0.248l0.125-2e-3c14.381-0.228 29.25-0.464 42.981-3.622 31.193-7.317 44.781-36.985 41.742-61.188-1.186-9.257-4.017-17.888-7.742-26.13zm-13.832 0h-2.64c1.108 3.732 1.978 7.549 2.515 11.48 1.704 12.456-1.389 25.716-8.469 36.376-5.483 8.251-15.859 18.81-34.173 22.246-13.91 2.557-29.047 2.431-43.696 2.308l-0.429-3e-3c-3.588-0.029-6.979-0.056-10.388-0.044-18.743 0.085-38.958-2.51-61.802-7.938-10.173-2.419-20.405-5.331-30.31-8.15l-0.292-0.083c-6.121-1.761-12.271-3.476-18.446-5.145l-0.643-0.173-0.012-4e-3c-12.313-3.296-26.27-7.033-38.792-5.689-6.8771 0.676-12.652 3.436-17.164 8.179-7.1039 7.477-9.9049 18.682-9.9049 29.714 0 6.717 1.0429 13.366 2.7712 19.063 5.7392 19.258 19.571 37.581 32.957 55.304l0.107 0.145c4.976 6.591 10.12 13.41 14.756 20.166 11.264 16.354 19.041 32.399 28.04 50.988l2.712 5.5879c1.71 3.5159 3.451 7.0508 5.197 10.609l6e-3 0.0186 6e-3 0.0135 0.214 0.4333c8.272 16.848 16.825 34.276 24.185 52.117 16.365 40.903 33.612 97.695 35.263 132.35 0.799 22.255-8.582 32.733-17.652 42.861-3.386 3.779-6.58 7.35-9.202 11.463-3.659 5.96-6.222 11.979-0.489 25.26 2.747 6.319 7.319 13.969 13.975 23.387 9.727 13.762 20.967 28.193 31.837 42.141l0.799 1.028 0.017 0.021 6e-3 8e-3c2.509 3.225 5.024 6.455 7.522 9.688 33.588 43.718 77.058 92.703 119.1 140.08l0.137 0.152c16.407 18.488 31.903 35.95 46.361 52.595 45.949 52.848 67.839 84.013 91.01 117l0.035 0.051 6.657 9.468c20.233 28.185 45.21 56.31 78.62 88.51 37.057 35.759 91.421 81.24 130.5 113.08 40.758 33.274 79.848 63.842 119.49 93.46 46.629 34.888 116.82 85.259 186.43 127.13 23.49 14.13 44.03 25.65 62.27 35.32-4.38-2.03-8.93-4.18-14.32-6.77l-0.06-0.03c-6.82-2.89-13.6-5.84-20.34-8.83 7.32 3.24 14.07 6.14 20.35 8.83-25.52-12.3-56.65-28.67-95.712-52.34-69.478-42.134-139.4-93.029-185.8-128.31-39.418-29.905-78.275-60.833-118.78-94.55-38.708-32.158-92.733-78.26-130.28-115.27-33.57-33.037-58.345-61.628-77.964-89.973-2.807-4.134-5.542-8.192-8.248-12.216l-0.012-0.016-2.485-3.691c-20.77-30.894-40.389-60.072-80.337-108.06-14.44-17.368-30.126-35.725-46.705-55.135l-1.252-1.463c-38.237-44.737-77.774-90.995-108.57-132.45l-7.223-9.612c-11.943-15.859-24.292-32.259-34.411-47.497-5.936-8.935-9.893-16.146-12.08-22.064-4.577-12.395-0.9-17.333 2.651-22.104l0.12-0.15c2.598-3.387 5.667-6.408 8.915-9.605l0.018-0.02 6e-3 -4e-3c9.393-9.256 20.031-19.743 20.18-41.774-0.31-36.465-17.635-95.586-34.656-138.01-6.955-16.758-14.947-33.036-22.676-48.788v-3e-3l-0.054-0.109-3.409-6.9405c-0.959-1.9655-1.901-3.9069-2.831-5.8297-0.417-0.8635-0.834-1.725-1.251-2.5818l-6e-3 -0.016c-8.046-16.618-15.644-32.316-26.199-47.587-4.946-7.173-10.447-14.371-15.775-21.324-13.505-17.643-27.468-35.886-33.076-55.017-5.2505-17.545-2.2827-36.689 7.2229-46.55 4.2493-4.409 9.6249-6.932 16.014-7.524 12.694-1.259 27.188 2.748 39.972 6.285l1.263 0.351c5.793 1.598 11.693 3.31 17.391 4.971 9.678 2.811 19.69 5.715 29.667 8.213 23.791 5.943 43.744 8.906 62.785 9.32 4.643 0.1 9.333 0.04 13.856-0.019l0.167-2e-3 0.101-1e-3c5.495-0.072 11.175-0.146 16.824 0.064 6.914 0.258 15.978 0.385 24.858-0.917 34.006-5.089 49.817-33.35 47.505-57.468h-2.521c3.111 31.27-21.097 52.015-45.472 55.663-8.6 1.26-17.468 1.133-24.238 0.888-5.769-0.22-11.526-0.144-17.093-0.068l-0.5 7e-3c-4.399 0.057-8.934 0.116-13.404 0.019-18.784-0.415-38.499-3.344-62.046-9.228-9.922-2.481-19.905-5.376-29.554-8.179-5.709-1.661-11.615-3.373-17.432-4.979l-1.263-0.346c-13.064-3.619-27.873-7.71-41.193-6.391-7.104 0.655-13.07 3.444-17.742 8.293-7.3125 7.591-10.191 18.94-10.191 29.993 0 6.366 0.9535 12.626 2.5626 18.011 5.6914 19.401 19.744 37.767 33.344 55.528l0.1073 0.137c5.2743 6.897 10.727 14.028 15.614 21.124 10.477 15.157 18.052 30.79 26.062 47.339l0.024 0.0444 0.775 1.6028c1.084 2.2419 2.181 4.5143 3.307 6.8171l3.409 6.9447 0.161 0.3263c7.682 15.656 15.62 31.846 22.528 48.468 23.421 58.377 34.327 112.19 34.554 137.49-0.143 21.412-10.078 31.203-19.673 40.663l-0.012 0.012c-3.308 3.255-6.425 6.328-9.118 9.827l-0.12 0.165c-3.617 4.848-7.723 10.356-2.884 23.472 2.235 6.027 6.246 13.348 12.247 22.381 10.143 15.275 22.492 31.677 34.441 47.543l0.03 0.043c2.413 3.204 4.827 6.408 7.217 9.603 30.805 41.453 70.312 87.686 108.53 132.41l0.12 0.136 0.154 0.181c16.985 19.875 33.041 38.655 47.785 56.391 39.888 47.924 59.483 77.064 80.229 107.92l2.056 3.056c2.855 4.244 5.733 8.518 8.695 12.88 19.691 28.446 44.537 57.126 78.191 90.251 37.594 37.057 91.672 83.202 130.41 115.38 40.538 33.738 79.419 64.683 118.86 94.609 46.461 35.311 116.44 86.262 186.02 128.45 23.429 14.2 44.029 25.78 62.269 35.44-2.25-1.04-4.56-2.12-6.91-3.23l0.16-0.2-5.08-2.14-0.09-0.04c-24.81-11.92-55.171-27.91-93.539-51.29-69.233-42.205-138.72-93.401-184.81-128.91-43.893-33.752-86.564-68.416-130.46-105.98-55.783-47.641-97.739-85.873-124.68-113.63-31.169-32.027-54.68-60.06-71.874-85.687-5.84-8.775-10.62-16.662-15.68-25.015-5.769-9.535-11.74-19.392-19.428-30.644-13.231-19.355-32.725-44.412-51.831-68.61-14.113-17.673-29.572-36.461-45.914-56.327l-5e-3 -9e-3 -1.294-1.568-0.28-0.342c-37.856-46.005-76.969-93.549-106.68-135.67-2.33-3.254-4.797-6.649-7.33-10.128l-1.162-1.593c-14.536-19.95-31.003-42.551-36.301-57.214-4.738-12.964-0.554-18.049 2.801-22.119 2.831-3.328 6.151-6.255 9.661-9.35l0.113-0.101c10.46-9.207 22.319-19.651 22.343-43.457-0.352-31.735-13.558-86.916-32.128-134.19-7.277-17.939-15.823-35.231-24.095-51.956l-2.885-5.8415-2.741-5.5709c-8.725-17.795-16.27-33.16-27.248-48.66-4.7796-6.775-10.096-13.589-15.239-20.179l-0.018-0.019c-13.612-17.459-27.683-35.51-33.13-54.507-5.0002-17.148-1.8594-35.928 7.6344-45.68 4.4041-4.522 9.9823-7.105 16.604-7.693 13.04-1.244 27.856 2.861 40.936 6.488l0.066 0.018 0.656 0.181c6.674 1.852 13.451 3.847 20.006 5.783 9.875 2.916 20.084 5.93 30.275 8.529 22.534 5.749 41.503 8.835 59.698 9.722 5.674 0.275 11.395 0.359 16.926 0.436l0.846 0.012c5.399 0.08 10.966 0.163 16.496 0.44 8.94 0.452 15.775 0.342 22.17-0.347 15.93-1.758 29.846-8.847 39.185-19.98 5.876-6.996 9.672-15.365 11.103-24.038h-2.485c-3.499 20.09-20.281 39.174-48.172 42.247-6.216 0.672-12.897 0.778-21.658 0.334-5.876-0.296-11.764-0.38-17.462-0.461-5.608-0.047-11.21-0.191-16.806-0.431-17.968-0.87-36.729-3.931-59.048-9.629-10.108-2.578-20.257-5.573-30.079-8.468l-0.089-0.027c-6.567-1.941-13.355-3.944-20.054-5.8l-0.656-0.181-0.083-0.023c-13.344-3.702-28.458-7.892-42.093-6.58-7.3125 0.647-13.469 3.483-18.284 8.429-7.4853 7.684-10.459 18.894-10.459 29.883 0 6.011 0.8938 11.954 2.4255 17.208 5.5186 19.283 19.697 37.467 33.416 55.05l0.1192 0.157h6e-3c5.0836 6.524 10.34 13.266 15.054 19.955 10.888 15.372 18.397 30.664 27.093 48.364l0.035 0.0752c0.578 1.1835 1.162 2.3743 1.752 3.5751 0.328 0.6649 0.656 1.3327 0.984 2.0043l2.884 5.8416c8.26 16.696 16.795 33.967 24.048 51.846 18.504 47.129 31.681 102.11 32.021 133.69-0.03 23.142-11.079 32.877-21.759 42.292l-0.012 0.01c-3.611 3.179-7.014 6.175-9.982 9.658-4.422 5.373-7.706 10.851-3.081 23.519 5.369 14.855 21.901 37.544 36.491 57.568l0.017 0.027 0.888 1.217c2.629 3.61 5.185 7.127 7.593 10.487 29.816 42.277 69.072 89.981 107.04 136.11 16.83 20.441 32.718 39.749 47.2 57.878 19.077 24.169 38.559 49.2 51.748 68.517 7.593 11.096 13.504 20.847 19.208 30.269l0.179 0.291c5.065 8.369 9.851 16.274 15.727 25.078 17.253 25.72 40.824 53.829 72.07 85.936 26.998 27.804 68.989 66.074 124.82 113.76 43.922 37.586 86.617 72.271 130.53 106.05 46.146 35.544 115.7 86.79 185.03 129.05 23.385 14.25 43.809 25.76 61.825 35.29-2.789-1.3-5.572-2.6-8.343-3.92l1.805 0.86-1.066 1.4c-0.799-0.33-1.603-0.66-2.42-1l-0.435-0.18c16.04 7.67 29.65 13.53 41.57 18.57-10.51-5.08-20.88-10.31-31.075-15.71l0.066 0.03c10.169 5.38 20.509 10.61 31.009 15.67 18.26 8.79 33.51 15.37 46.72 21.04l0.03 0.02c19.19 9.27 35.24 16.26 49.07 22.28l0.09-0.1c19.63 9.55 36.34 16.91 51.43 23.55l0.02 0.01 0.01 0.01h0.02l0.01 0.01h0.01l0.11 0.05 0.27-0.33c-9.82-4.81-19.53-9.75-29.12-14.79-29.59-13.61-66.05-31.81-115.8-61.74-69.512-41.82-139.63-92.142-186.22-126.99-39.632-29.597-78.686-60.148-119.42-93.396-39.054-31.829-93.37-77.259-130.37-112.97-33.32-32.116-58.226-60.153-78.387-88.24l-6.651-9.46c-23.207-33.041-45.127-64.248-91.159-117.2-14.375-16.54-29.763-33.882-46.044-52.231l-0.03-0.03-6e-3 -0.012-0.298-0.334c-42.069-47.404-85.569-96.423-119.16-140.13-2.389-3.085-4.785-6.163-7.175-9.235l-1.18-1.514-0.596-0.769h-6e-3c-10.656-13.699-21.658-27.829-31.175-41.305-6.591-9.32-11.109-16.878-13.809-23.095-5.9-13.666-2.419-19.342 0.37-23.89 2.527-3.966 5.662-7.465 8.975-11.172l0.042-0.046c8.856-9.887 18.88-21.092 18.07-43.955-1.657-34.834-18.952-91.816-35.371-132.84-7.384-17.901-15.948-35.349-24.232-52.218-1.824-3.7112-3.635-7.4054-5.423-11.074l-2.7-5.5795-6e-3 -0.0093c-9.035-18.64-16.83-34.739-28.165-51.195-4.661-6.7881-9.822-13.625-14.816-20.236l-0.101-0.137-0.03-0.039c-13.278-17.597-27.009-35.785-32.659-54.758-5.4531-17.939-2.6878-37.382 6.7344-47.294 4.0705-4.291 9.2495-6.776 15.394-7.389 11.902-1.268 24.947 2.223 37.564 5.605l0.644 0.169c6.132 1.64 12.366 3.415 18.397 5.136l0.393 0.111c9.905 2.819 20.138 5.728 30.359 8.156 23.099 5.495 43.577 8.116 62.6 8.031 3.367-8e-3 6.741 0.019 10.298 0.047h6e-3l0.465 4e-3c14.81 0.123 30.12 0.249 44.364-2.367 19.274-3.618 30.132-14.642 35.853-23.248 7.277-10.964 10.465-24.6 8.731-37.407-0.53-3.864-1.371-7.621-2.443-11.29zm-61.385 0h-2.568c-1.878 3.889-4.291 7.579-7.247 10.905-8.94 10.077-22.009 16.472-36.772 18.015-14.046 1.445-28.975 0.423-43.422-0.566h-6e-3c-3.933-0.271-8.003-0.55-11.907-0.761-19.554-1.078-40.466-4.764-65.806-11.599-7.462-2.029-15.227-4.582-23.44-7.287-9.4162-3.098-18.958-6.23-28.41-8.707h-7.5747c11.55 2.591 23.386 6.475 35.013 10.301l0.3992 0.13c8.1051 2.666 15.769 5.186 23.183 7.199 25.567 6.898 46.682 10.618 66.456 11.708 3.892 0.212 7.766 0.474 11.872 0.761 14.577 0.998 29.661 2.029 43.982 0.55 15.46-1.611 29.107-8.285 38.44-18.793 3.236-3.656 5.835-7.65 7.807-11.856zm-262.55 0h-3.8738c-1.8653 1.203-3.5281 2.555-4.9584 4.028-7.5509 7.71-10.555 18.915-10.555 29.82 0 5.8 0.84633 11.523 2.3243 16.587 5.5246 19.353 20.09 37.559 34.173 55.163l0.0118 0.014c5.5187 6.894 11.222 14.025 16.288 21.105 10.12 14.104 17.51 28.932 25.328 44.635l2.7653 5.5372 2.7415 5.4695c8.2836 16.485 16.842 33.532 24.048 51.272 18.832 47.954 31.467 103.86 30.752 135.94-0.859 22.526-12.546 31.756-23.845 40.677l-0.024 0.019-0.131 0.102c-3.236 2.557-6.299 4.981-9.088 7.705-4.071 4.091-9.137 9.183-5.233 22.14 1.752 5.774 5.352 13.12 10.703 21.828 7.766 12.645 17.2 26.153 26.324 39.219l0.078 0.107c2.682 3.834 5.363 7.672 8.003 11.489 27.51 40.167 63.262 85.145 97.84 128.64 17.414 21.903 33.857 42.585 48.619 61.868 16.795 22.2 35.639 47.485 47.999 66.666 6.485 10.047 11.663 19.046 16.67 27.741l0.238 0.418 0.119 0.203c5.114 8.902 9.959 17.326 16.109 26.841 16.86 25.952 40.395 54.627 71.939 87.673 26.92 28.261 70.175 68.407 125.09 116.09 43.797 38.101 86.367 73.201 130.17 107.31 46.087 35.966 115.62 87.77 185.11 130.33 25.304 15.478 46.997 27.638 65.842 37.458 9.369 4.13 18.844 8.15 28.41 12.06-24.375-11.62-54.388-27.4-92.721-50.862-69.406-42.493-138.86-94.246-184.9-130.18-43.768-34.089-86.314-69.168-130.08-107.24-54.87-47.649-98.084-87.745-124.96-115.97-31.479-32.97-54.948-61.564-71.748-87.42-6.061-9.375-10.859-17.715-15.913-26.498v-4e-3h-6e-3l-0.268-0.469c-5.077-8.847-10.334-17.99-16.943-28.227-12.396-19.228-31.253-44.539-48.071-66.772-14.78-19.3-31.229-39.994-48.643-61.902l-0.238-0.3c-34.477-43.38-70.121-88.217-97.53-128.25-2.169-3.13-4.356-6.264-6.544-9.397l-1.466-2.1-0.149-0.217c-9.094-13.014-18.481-26.461-26.198-39.029-5.287-8.606-8.833-15.838-10.549-21.49-3.677-12.19 0.846-16.729 4.827-20.724 2.73-2.665 5.775-5.072 8.993-7.618l6e-3 -2e-3 0.048-0.039 6e-3 -6e-3c11.067-8.735 23.612-18.639 24.5-41.84 0.751-32.234-11.949-88.354-30.853-136.46-7.223-17.791-15.787-34.848-24.071-51.34l-0.0239-0.0461-5.5126-11.007c-7.8429-15.758-15.257-30.645-25.454-44.847-4.9823-6.965-10.572-13.959-15.984-20.731l-0.3576-0.445c-13.999-17.487-28.463-35.569-33.91-54.653-4.8869-16.811-1.6627-35.328 7.837-45.029 2.0501-2.088 4.3506-3.766 6.8894-5.034zm-39.078 0h-2.372c-1.9309 5.338-2.789 11.133-2.789 16.84 0 5.613 0.8225 11.137 2.2409 16.019 5.4411 19.03 20.001 36.757 34.089 53.893 4.9823 6.069 10.137 12.351 14.786 18.56 11.758 15.673 19.864 31.536 29.244 49.906l2.2467 4.388 0.1073 0.208c9.0528 17.696 18.415 35.99 26.044 55.21 17.552 45.667 29.136 100.09 28.184 132.35-1.019 23.603-13.588 32.652-25.74 41.398-3.0573 2.202-5.9418 4.281-8.6594 6.598l-0.3576 0.308-0.012 8e-3c-4.571 4.001-9.7618 8.539-6.9727 20.429 1.4303 6.057 5.1134 14.097 10.948 23.89 8.0396 13.493 17.736 27.868 27.117 41.778l0.149 0.22 1.227 1.821c1.86 2.762 3.725 5.523 5.567 8.281 25.215 37.991 57.57 80.239 88.87 121.1 17.957 23.437 34.912 45.582 49.883 66.065 15.721 21.79 31.782 44.416 42.766 62.3 6.21 10.081 11.133 19.135 15.883 27.867v9e-3l0.327 0.6c4.995 9.219 10.162 18.746 16.681 29.186 16.288 25.941 40.431 56.082 71.767 89.597 24.554 26.308 62.511 62.485 112.83 107.53 42.099 37.804 85.742 74.735 130.86 110.74 49.036 39.204 122.92 95.425 196.41 140.61 29.411 18.074 53.762 31.466 74.353 41.846 7.086 3.57 13.707 6.78 19.953 9.7 16.043 7.51 29.512 13.12 41.27 17.96-8.88-4.24-17.634-8.62-26.258-13.12h-0.012c-26.461-11.75-60.604-28.67-107.82-57.692-73.387-45.113-147.2-101.28-196.19-140.45-45.097-35.983-88.704-72.887-130.77-110.67-50.282-45.007-88.203-81.147-112.71-107.41-31.271-33.439-55.354-63.496-71.576-89.348-6.496-10.398-11.424-19.485-16.639-29.106l-0.107-0.202c-4.828-8.885-9.81-18.066-16.133-28.35-11.008-17.922-27.093-40.578-42.838-62.397-14.983-20.508-31.944-42.657-49.906-66.108-31.277-40.831-63.62-83.057-88.8-121.01l-6.799-10.102-0.376-0.555c-9.297-13.793-18.898-28.029-26.842-41.371-5.763-9.671-9.3923-17.584-10.793-23.502-2.6044-11.12 2.0142-15.157 6.478-19.054l0.3457-0.305c2.6223-2.233 5.4531-4.274 8.4568-6.434l0.0595-0.045 0.0238-0.016c11.883-8.564 25.352-18.271 26.407-42.549 0.954-32.416-10.668-87.048-28.273-132.86-7.6761-19.344-17.08-37.714-26.175-55.485l-0.0359-0.064-2.2407-4.388-0.0358-0.065c-9.3984-18.401-17.522-34.301-29.345-50.057-4.5175-6.044-9.5116-12.123-14.351-18.024l-0.4887-0.595c-13.987-17.017-28.445-34.618-33.803-53.368-2.8487-9.777-3.2421-22.119 0.6436-32.513zm-28.404 0h-2.217c0.0119 5.75 0.9118 11.483 2.6937 17.093 5.8643 18.303 20.299 35.327 34.256 51.79l0.02382 0.031c5.3279 6.281 10.835 12.778 15.769 19.233 11.294 14.73 19.13 29.748 28.201 47.142l1.758 3.36 0.0359 0.065c8.9871 17.2 18.284 34.986 25.829 53.798 17.504 45.075 28.922 101.56 27.152 134.31-1.6091 23.373-14.756 31.958-27.474 40.264l-0.0537 0.0372c-3.4268 2.2356-6.6628 4.3473-9.6844 6.7484l-6e-3 6e-3c-4.5651 3.735-10.245 8.382-7.235 20.912 1.192 4.925 3.8143 11.18 7.8192 18.599 7.1456 13.26 16.794 28.046 26.127 42.355l0.0894 0.133 0.9595 1.47 6e-3 0.011c2.2349 3.431 4.4577 6.84 6.633 10.21 23.422 36.747 53.566 77.674 82.727 117.27l0.053 0.072 0.072 0.097v4e-3l6e-3 8e-3 6e-3 5e-3c17.891 24.287 34.786 47.226 49.512 68.344 14.459 20.999 30.663 44.977 41.271 63.571 5.161 9.042 9.381 17.322 13.457 25.332l0.012 0.025 0.137 0.267c4.655 9.121 9.464 18.555 15.591 28.89 42.11 71.582 163.83 193.12 317.63 317.19 93.09 75.441 162.64 121.02 195.81 141.48 33.792 20.839 60.39 35.159 83.465 46.244 3.97 1.9 7.843 3.72 11.622 5.45 14.875 6.81 28.421 12.38 41.777 17.73l0.209-0.29c-6.24-2.92-12.873-6.12-19.953-9.7-30.633-12.92-65.068-29.504-115.66-60.693-77.178-47.599-155.67-108.98-195.58-141.33-153.65-123.94-275.2-245.3-317.23-316.73-6.144-10.368-10.757-19.418-15.644-28.996l-0.041-0.085c-4.089-8.031-8.326-16.332-13.505-25.411-10.638-18.645-26.86-42.653-41.342-63.686-14.762-21.168-31.694-44.158-49.62-68.492l-0.12-0.161c-29.124-39.538-59.232-80.419-82.6-117.09-2.4971-3.863-5.042-7.777-7.6106-11.708l-0.0835-0.13c-9.3209-14.28-18.952-29.038-26.068-42.249-3.9453-7.312-6.5377-13.462-7.6998-18.277-2.8189-11.745 2.2347-15.876 6.6866-19.514l6e-3 -5e-3c2.9441-2.346 6.1564-4.4426 9.5593-6.6616 12.462-8.1325 26.58-17.356 28.237-41.427 1.7701-32.902-9.6844-89.609-27.236-134.84-7.5806-18.882-16.89-36.697-25.889-53.926l-0.0358-0.067-1.758-3.365c-9.1064-17.448-16.973-32.521-28.344-47.358-4.8571-6.352-10.251-12.724-15.483-18.9l-0.33374-0.395c-13.874-16.358-28.219-33.278-34-51.327-1.776-5.485-2.6758-11.094-2.6818-16.721zm-23.183 0h-2.0263v0.674c6.055 17.694 20.454 34.101 34.381 49.976l0.0178 0.021c5.2028 5.926 10.584 12.059 15.412 18.138 12.14 15.215 20.561 30.912 30.311 49.086v4e-3l1.019 1.911c9.3984 17.499 18.433 34.732 25.746 53.199 16.246 42.336 26.854 97.285 25.227 130.65-1.5495 25.29-15.93 33.931-29.84 42.286l-6e-3 0.0034-0.0238 0.014c-2.8785 1.7279-5.5902 3.3599-8.2244 5.1512l-0.4947 0.3466c-5.1312 3.5802-10.948 7.6422-9.3567 18.864 0.8284 5.7613 3.8023 13.454 8.8442 22.867 6.6987 12.503 15.173 26.041 23.368 39.142l0.1251 0.197 0.7746 1.234 6e-3 0.014 0.012 0.015c2.068 3.305 4.136 6.603 6.1623 9.888 21.8 35.598 49.906 75.288 77.082 113.66 17.867 25.221 34.733 49.044 49.269 70.897 23.344 35.091 36.038 59.839 48.315 83.776 5.346 10.415 10.87 21.176 17.187 32.656 16.419 29.178 42.111 63.192 76.374 101.08 26.389 29.238 64.984 67.398 114.7 113.41 43.047 39.901 85.271 76.73 129.09 112.61 39.853 32.716 118.25 94.724 195.57 142.52 38.714 23.924 68.298 39.259 93.346 50.629-32.808-12.355-70.354-28.032-131.2-65.63-81.6-50.422-163.81-116.79-205.55-151.86-39.721-33.282-77.994-67.292-117.01-103.98-51.432-48.3-93.721-91.075-122.31-123.7-31.932-36.381-56.003-69.219-71.528-97.59-7.384-13.762-13.403-26.325-19.22-38.473l-6e-3 -4e-3 -0.083-0.177c-10.596-22.115-21.562-44.987-41.241-76.405-14.881-23.725-32.677-49.902-51.527-77.609-26.11-38.397-53.101-78.095-73.781-113.57-2.1932-3.665-4.3982-7.324-6.6271-10.977l-0.0239-0.04c-12.164-20.025-25.942-42.711-27.516-56.084-1.3409-10.985 4.3983-14.553 9.9527-18.006l0.70312-0.4447c2.3481-1.4287 4.7678-2.7728 7.3244-4.1888l0.0179-0.0106c14.416-8.0074 30.758-17.082 32.736-43.742 2.1454-35.184-8.2839-91.042-24.804-132.82-7.3125-17.926-16.449-34.804-25.96-51.956-10.429-18.818-19.369-34.377-31.676-49.086-4.6426-5.564-9.7619-11.19-14.72-16.634l-0.1191-0.134c-3.4268-3.761-6.8775-7.55-10.227-11.379v2.886c2.7891 3.144 5.6259 6.261 8.4508 9.359 4.9823 5.465 10.131 11.121 14.792 16.705 12.217 14.612 21.133 30.116 31.527 48.862 9.4818 17.119 18.606 33.954 25.883 51.813 16.467 41.63 26.86 97.272 24.727 132.3-1.9309 25.936-17.176 34.402-31.92 42.585l-0.22644 0.1273c-2.3898 1.3293-4.8511 2.6992-7.1813 4.1165l-0.71513 0.4438-0.012 0.0085c-5.6855 3.54-12.122 7.5504-10.68 19.321 1.6032 13.618 15.43 36.378 27.647 56.49l0.0775 0.132 0.6971 1.153c2.0501 3.368 4.0467 6.659 5.918 9.816 20.686 35.473 47.665 75.157 73.757 113.54l0.0715 0.105 0.3992 0.589c18.683 27.486 36.336 53.447 51.092 76.974 19.649 31.359 30.591 54.192 41.169 76.273l0.173 0.355v4e-3c5.805 12.106 11.806 24.63 19.173 38.355 15.584 28.472 39.715 61.395 71.718 97.856 28.624 32.66 70.956 75.478 122.42 123.82 39.036 36.714 77.333 70.753 117.08 104.05 41.777 35.112 124.06 101.55 205.77 152.03 62.815 38.811 100.88 54.34 134.5 66.915l0.852-1.226c14.351 6.434 27.242 11.595 39.554 16.375l0.531-0.74c-3.785-1.73-7.658-3.55-11.627-5.45-31.378-12.564-67.958-29.167-123.19-63.291-77.207-47.729-155.53-109.68-195.33-142.36-43.791-35.856-85.986-72.668-129-112.54-49.68-45.976-88.239-84.098-114.6-113.3-34.184-37.809-59.811-71.729-76.164-100.81-6.318-11.451-11.836-22.204-17.17-32.61l-0.024-0.051c-12.295-23.954-25.013-48.736-48.374-83.861-14.53-21.836-31.372-45.624-49.209-70.808l-6e-3 -8e-3 -0.084-0.119c-27.164-38.358-55.252-78.023-77.028-113.59-1.8594-3-3.7487-6.017-5.6319-9.037l-6e-3 -3e-3 -6e-3 -9e-3v-6e-3l-1.317-2.104-0.0596-0.093v-4e-3c-8.2124-13.106-16.705-26.66-23.392-39.157-4.9644-9.274-7.9027-16.827-8.7013-22.445-1.478-10.414 3.6711-14.027 8.6534-17.516l0.0299-0.0216 0.4886-0.3381c2.5806-1.7541 5.2804-3.3773 8.1351-5.0933 13.618-8.1786 29.053-17.45 30.65-43.465 1.633-33.519-9.0109-88.675-25.311-131.16-7.3363-18.539-16.395-35.81-25.805-53.343l-1.025-1.911c-9.7798-18.234-18.231-33.984-30.46-49.31-4.8572-6.112-10.251-12.258-15.465-18.197-13.916-15.859-28.296-32.251-34.196-49.813zm-2.0263 31.814v2.817c10.858 12.951 18.892 26.402 28.147 42.45 9.9944 17.317 19.601 34.406 27.242 53.089 16.61 41.956 26.449 99.398 22.885 133.62-2.9619 24.727-18.546 32.726-33.618 40.459l-6e-3 0.0043c-2.5626 1.3103-5.2028 2.6629-7.7058 4.0746l-0.3576 0.2114-0.018 0.0097c-6.0252 3.4851-12.855 7.4325-11.562 19.434 0.5006 4.6199 2.3241 10.478 5.4232 17.415 6.2218 13.965 15.817 30.272 25.096 46.042l1.2278 2.088c1.913 3.252 3.8081 6.471 5.6378 9.63 18.153 31.732 41.086 66.766 63.262 100.65l0.131 0.198c18.296 27.948 35.573 54.34 49.883 78.319 18.564 31.067 28.815 54.006 38.725 76.189 5.692 12.74 11.58 25.911 18.952 40.4 14.44 27.809 37.54 60.617 68.656 97.522 37.498 44.614 91.54 97.873 130.27 134.7 39.292 37.437 77.314 71.658 116.23 104.61 41.646 35.375 123.7 102.25 205.35 152.65 63.161 38.997 102.12 54.344 133.69 65.668l0.906-1.357c-31.455-11.285-70.294-26.578-133.27-65.465-81.54-50.329-163.51-117.14-205.12-152.48-38.887-32.936-76.886-67.131-116.15-104.54-38.708-36.795-92.703-90.011-130.16-134.57-31.038-36.825-54.084-69.553-68.477-97.264-7.288-14.325-13.123-27.378-18.767-39.999l-0.155-0.342-6e-3 -9e-3c-9.923-22.22-20.185-45.193-38.791-76.32-14.327-24.004-31.61-50.405-49.912-78.361l-0.262-0.405c-22.128-33.807-44.984-68.738-63.089-100.38-1.7879-3.085-3.6354-6.218-5.4948-9.386l-1.3768-2.339c-9.2673-15.737-18.838-32.01-25.03-45.916-3.0454-6.8179-4.8393-12.562-5.328-17.06-1.1919-11.201 4.9049-14.731 10.799-18.133l0.3576-0.2029c2.3242-1.3133 4.708-2.5387 7.2111-3.8283l6e-3 -0.0012 0.3932-0.2029 6e-3 -0.0026c14.744-7.5614 31.449-16.13 34.5-41.573 3.5758-34.385-6.2994-92.061-22.969-134.17-7.676-18.768-17.301-35.895-27.319-53.254-9.7738-16.949-18.201-31.014-30.037-44.688zm0 18.896v3.593c0.9297 1.532 1.8653 3.088 2.8189 4.67 9.0467 15.039 19.363 32.682 27.158 51.618 16.282 40.776 25.525 97.699 21.508 132.4-3.2838 25.131-19.482 32.999-35.138 40.606l-0.012 0.0055-0.4767 0.2325c-2.6997 1.3133-5.4829 2.6667-8.0932 4.0873l-0.173 0.093c-2.6043 1.4494-5.3517 2.9842-7.5925 5.1741v2.6841c2.2349-3.0501 5.5485-4.8956 8.7965-6.7043l0.155-0.0929c2.7236-1.4709 5.5185-2.832 8.4804-4.2692 15.316-7.4392 32.659-15.863 36.032-41.702 4.0406-34.867-5.2445-92.018-21.574-132.95-7.8369-19.021-18.177-36.71-27.254-51.792-1.5733-2.62-3.117-5.168-4.6367-7.654zm0 267.66v5.4687c5.2207 12.861 13.987 28.244 22.057 42.398 2.1753 3.8126 4.2911 7.5237 6.2578 11.062 17.283 31.697 39.31 66.78 60.622 100.71l0.1966 0.314c19.119 30.444 37.17 59.196 51.611 85.039 15.853 28.446 24.804 50.109 33.458 71.066v4e-3c5.411 13.112 11.007 26.671 18.23 41.681 14.417 29.393 38.529 64.544 71.665 104.47 27.432 33.139 67.815 75.843 120.03 126.91 42.54 41.693 84.305 79.988 127.66 117.08 41.568 35.675 123.51 103.04 205.23 153.39 63.613 39.204 102.15 53.85 133.26 64.501l0.846-1.327c-31.008-10.609-69.395-25.205-132.82-64.299-81.612-50.287-163.47-117.58-205.01-153.22-43.326-37.069-85.062-75.344-127.58-117.01-52.171-51.035-92.512-93.688-119.91-126.79-33.077-39.846-57.124-74.904-71.493-104.2-7.205-14.971-12.795-28.518-18.2-41.617v-5e-3l-0.018-0.046c-8.66-20.969-17.617-42.662-33.5-71.151-14.506-25.961-32.641-54.839-51.843-85.412-21.3-33.912-43.327-68.982-60.58-100.65-1.9846-3.542-4.1003-7.262-6.2756-11.075l-0.0537-0.0985c-9.1242-16.019-19.142-33.607-23.839-47.193zm0-58.976c12.402-6.746 23.755-16.44 26.634-36.718 4.4817-35.315-4.267-91.934-20.358-131.7-1.9548-4.678-4.0586-9.253-6.2756-13.729v4.248c1.5435 3.248 3.0215 6.545 4.4161 9.896 16.032 39.614 24.751 96 20.281 131.16-2.7236 19.212-12.873 28.487-24.697 35.097zm0 103.02v-3.9208c15.638 29.616 35.371 62.308 54.453 93.93l0.33974 0.561c18.606 30.843 36.175 59.97 50.091 86.241 14.899 28.117 23.094 49.721 31.02 70.618 5.6021 14.769 11.395 30.036 19.482 47.345 14.404 30.176 39.65 67.617 73.018 108.28 25.841 31.549 61.819 70.461 110 118.97 45.383 45.747 90.778 88.146 138.79 129.61 70.61 61.179 145.39 117.34 205.18 154.07 64.06 39.369 102.1 53.267 132.73 63.209l-0.787 1.297c-30.746-9.979-68.941-23.932-133.19-63.424-59.864-36.773-134.74-92.995-205.42-154.24-48.041-41.491-93.46-83.912-138.87-129.69-48.214-48.546-84.234-87.496-110.1-119.08-33.434-40.743-58.738-78.281-73.185-108.55-8.1051-17.347-13.91-32.639-19.518-47.429l-0.0417-0.106c-7.9025-20.826-16.073-42.37-30.913-70.377-13.987-26.401-31.676-55.71-50.401-86.735-18.362-30.429-37.331-61.852-52.677-90.592zm0-160.91c1.6985-13.694 1.6091-29.851 0-46.729zm0 194.62c6.0491 10.587 12.199 21.214 18.284 31.718l0.0476 0.086c19.154 33.079 37.242 64.32 51.063 92.31 13.022 26.401 20.233 47.223 27.206 67.368 5.3696 15.521 10.93 31.574 19.089 49.923 13.958 30.734 38.476 68.403 70.896 108.95 58.416 73.493 150.06 167.26 245.16 250.81 41.909 37.048 124.68 106.97 208.19 159.13 65.801 41.098 106.32 56.386 140.29 66.784l-0.715 1.26c-34.119-10.436-74.788-25.78-140.79-67-83.62-52.231-166.47-122.23-208.42-159.3-95.158-83.607-186.86-177.44-245.33-251-32.487-40.624-57.058-78.391-71.058-109.21-8.1588-18.345-13.707-34.377-19.077-49.873l-0.0477-0.143c-6.9609-20.112-14.16-40.903-27.152-67.241-13.791-27.936-31.854-59.139-50.985-92.175l-0.0358-0.059c-5.5246-9.543-11.115-19.186-16.622-28.809zm0 39.644v3.544c12.092 22.14 23.517 43.852 32.391 63.292 11.312 24.828 17.581 44.893 23.636 64.294l0.06547 0.203c5.0478 16.168 10.281 32.902 18.41 52.21 13.177 30.687 36.336 67.621 68.816 109.78 29.72 38.693 73.703 88.13 127.18 142.95 38.672 39.703 76.283 75.94 114.98 110.76 42.164 38.071 125.71 110.06 211.45 164.47 70.95 45.016 115 60.977 148.72 70.648l0.655-1.226c-33.582-9.637-77.457-25.53-148.2-70.415-85.64-54.344-169.1-126.26-211.23-164.3-38.678-34.813-76.266-71.024-114.91-110.71-53.446-54.792-97.393-104.18-127.08-142.84-31.962-41.49-55.711-79.363-68.673-109.53-8.1409-19.334-13.373-36.097-18.433-52.307l-0.02383-0.072v-4e-3c-6.0609-19.411-12.325-39.49-23.66-64.346-9.2911-20.362-21.377-43.203-34.095-66.417zm0 52.058v4.491c8.0217 20.261 12.807 37.517 17.45 54.284l0.0179 0.058c4.9822 17.961 10.137 36.542 19.232 58.581 13.391 31.718 37.933 71.349 70.992 114.6 28.124 36.887 67.833 82.402 118.03 135.28 41.723 44.001 82.976 84.397 126.11 123.48 42.123 38.287 125.61 110.62 211.49 164.85 71.736 45.299 115.71 60.562 149.26 69.519l0.596-1.2c-33.41-8.919-77.196-24.123-148.72-69.282-85.777-54.168-169.18-126.43-211.27-164.69-43.106-39.065-84.329-79.431-126.03-123.41-50.162-52.844-89.848-98.321-117.95-135.18-32.993-43.173-57.493-82.719-70.848-114.35-9.0766-22.005-14.226-40.569-19.202-58.52-4.9644-17.922-10.09-36.405-19.154-58.522zm0 102.81v4.168c13.564 31.651 36.73 69.743 67.469 110.84 61.522 82.737 153.4 181.59 252.06 271.2 41.974 38.334 125.2 110.67 211 164.48 72.797 45.658 118.21 60.423 149.63 68.188l0.536-1.159c-31.288-7.726-76.504-22.436-149.08-67.959-85.7-53.753-168.85-126.02-210.78-164.32-98.603-89.566-190.41-188.35-251.89-271.02-31.932-42.7-55.675-82.123-68.935-114.42zm0 59.311v2.79c7.8965 12.347 16.622 25.158 26.103 38.321 29.459 41 71.158 90.877 123.93 148.24 41.032 44.665 81.88 85.788 124.86 125.71 44.268 41.241 132.04 118.85 222.56 175.27 73.774 45.988 119.31 60.093 150.74 67.232l0.477-1.124c-31.282-7.114-76.623-21.156-150.18-67.004-90.414-56.353-178.11-133.89-222.34-175.11-42.958-39.893-83.781-80.99-124.8-125.64-52.737-57.32-94.401-107.16-123.84-148.12-10.06-13.961-19.262-27.525-27.522-40.557zm0 46.272v2.396c60.27 81.523 142.02 172.24 231.62 256.88 78.471 74.554 163.52 142.06 233.34 185.22 74.579 46.127 120.22 59.548 151.66 66.087l0.423-1.087c-31.282-6.509-76.73-19.874-151.08-65.867-69.74-43.109-154.71-110.56-233.11-185.05-90.224-85.239-172.48-176.63-232.84-258.58zm0 42.509v2.13c18.523 23.079 39.358 47.814 62.409 74.072 44.167 50.358 88.453 96.549 135.4 141.21 78.602 75.044 163.93 142.8 234.11 185.89 76.552 47.028 124.13 59.801 153.25 65.313l0.369-1.044c-28.993-5.495-76.361-18.213-152.68-65.102-70.11-43.037-155.36-110.74-233.89-185.72-46.921-44.636-91.189-90.805-135.33-141.14-23.57-26.845-44.823-52.096-63.649-75.614zm0 42.936v1.983c48.953 58.419 105.54 118.69 164.98 175.29 78.501 75.171 163.88 142.86 234.26 185.7 77.476 47.205 125.33 59.345 154.59 64.366l0.322-1.006c-29.125-5-76.772-17.089-154.02-64.159-70.3-42.797-155.61-110.42-234.04-185.54-59.888-57.037-116.89-117.8-166.1-176.64zm0 41.466v2.037c37.385 42.603 78.03 85.323 120.7 126.7 46.407 45.227 138.94 130.19 237.17 191.05 63.477 39.352 115.77 61.196 164.54 68.741l0.274-0.963c-48.548-7.511-100.64-29.292-163.95-68.534-98.132-60.804-190.59-145.7-236.97-190.89-42.576-41.288-83.781-84.727-121.77-128.14zm0 41.571v1.686c24.524 26.807 50.073 53.377 76.218 79.203 46.479 46.149 139.46 133.03 239.91 196.37 66.921 42.217 124.07 66.167 174.72 73.209l0.239-0.922c-50.419-7.012-107.38-30.89-174.12-72.998-100.36-63.284-193.27-150.1-239.72-196.21-26.515-26.189-52.409-53.144-77.249-80.331zm0 41.279v1.551c13.82 14.486 27.909 28.84 42.212 43.013 46.438 46.204 139.38 133.13 240.17 196.25 67.75 42.451 125.52 66.193 176.63 72.575l0.208-0.879c-50.883-6.357-108.46-30.032-176.05-72.376-100.7-63.06-193.58-149.93-239.98-196.1-14.643-14.507-29.053-29.208-43.19-44.04zm0 40.794v1.424c2.5746 2.583 5.161 5.157 7.7475 7.727 46.39 46.241 139.33 133.21 240.48 196.14 68.571 42.683 127.01 66.256 178.63 72.051l0.179-0.833c-51.408-5.774-109.66-29.279-178.06-71.864-101.07-62.875-193.94-149.78-240.31-196-2.8964-2.874-5.7867-5.761-8.6712-8.652zm0 39.93v1.311c53.035 50.574 130.59 118.24 213.64 169.58 69.394 42.936 128.49 66.366 180.68 71.645l0.155-0.786c-51.981-5.254-110.91-28.633-180.14-71.463-83.43-51.576-161.32-119.66-214.34-170.29zm0 38.866v1.057c12.998 11.717 26.038 23.096 38.976 34.014 48.488 40.928 95.474 75.44 139.62 102.58 69.239 42.594 130.73 66.598 182.76 71.345l0.131-0.749c-51.843-4.729-113.16-28.674-182.25-71.171-35.966-22.102-100.06-65.618-179.25-137.07zm0 37.023v0.985c0.8463 0.719 1.6985 1.437 2.5448 2.152 48.589 41 95.718 75.559 140.09 102.72 70.217 43.038 132.57 67.076 185.32 71.446l0.113-0.702c-52.57-4.353-114.75-28.336-184.83-71.285-30.424-18.628-80.807-52.434-143.25-105.32zm0 35.016v0.959c36.783 29.123 72.577 54.332 106.78 75.179 70.944 43.291 133.97 67.291 187.34 71.332l0.089-0.651c-53.184-4.028-116.05-27.982-186.86-71.193-24.381-14.861-61.528-39.407-107.35-75.626zm0 32.813v0.858c16.985 12.418 34.447 24.469 52.254 35.877 42.534 27.272 82.988 48.186 120.25 62.16 31.574 11.848 60.967 18.776 87.351 20.593l0.077-0.6c-26.282-1.817-55.58-8.72-87.053-20.53-37.194-13.957-77.594-34.842-120.08-62.079-17.998-11.531-35.639-23.717-52.797-36.279zm0 29.976v0.757c5.2028 3.47 10.435 6.89 15.704 10.254 42.695 27.302 83.388 48.237 120.94 62.232 32.057 11.945 61.855 18.869 88.566 20.585l0.072-0.562c-73.274-4.692-154.14-47.552-209.08-82.677-5.4352-3.471-10.841-7.004-16.204-10.589zm0 26.845v0.659c53.989 32.222 125.02 66.024 190.25 69.946l0.048-0.511c-65.229-3.918-136.34-37.843-190.3-70.094zm0 23.239v0.567c47.814 24.93 103.23 46.609 155.05 49.555l0.0537-0.46c-51.831-2.951-107.29-24.694-155.11-49.662zm0 19.292v0.486c38.72 17.013 80.235 29.951 119.71 32.09l0.0416-0.414c-39.471-2.143-81.016-15.115-119.75-32.162zm0 14.878v0.385c35.484 12.258 63.536 16.814 84.341 17.896l0.0356-0.368c-27.677-1.441-56.348-8.174-84.377-17.913zm0 9.853v0.338c19.363 4.628 35.704 6.721 49.078 7.389l0.0299-0.322c-13.374-0.668-29.727-2.764-49.108-7.405zm0 4.227v0.275c5.0061 0.549 9.6903 0.908 14.065 1.12l0.018-0.271c-4.3744-0.211-9.0706-0.571-14.083-1.124zm160.83-1258.7c1.8713 0.524 3.743 1.04 5.614 1.547 24.381 6.581 44.59 10.313 63.59 11.734 3.647 0.274 7.449 0.591 11.138 0.908l0.143 0.013c14.911 1.264 30.335 2.571 45.067 1.547 15.227-1.074 28.607-6.949 38.154-15.749h-3.01c-9.064 7.858-21.395 13.073-35.364 14.054-14.536 1.015-29.882-0.287-44.722-1.555l-0.685-0.058c-3.474-0.295-7.038-0.598-10.483-0.855-18.749-1.404-38.72-5.085-62.833-11.586zm79.192 0c8.612 0.625 17.241 0.93 25.668 0.389 1.413-0.089 2.807-0.22 4.184-0.389zm869.08 1341.6c4.1 1.88 8.03 3.64 11.8 5.32-3.94-1.76-7.88-3.53-11.8-5.32zm0 0c-0.56-0.26-1.13-0.52-1.7-0.78l-1.19-0.55 0.01 0.01z"/><path d="m181.4-51.809c10.924 16.127 18.964 32.544 27.48 49.922l0.072 0.14544c1.555 3.187 3.146 6.4248 4.779 9.7217 2.295 4.6284 4.631 9.2906 6.991 13.991 7.849 15.652 15.966 31.841 23.207 48.271 18.403 43.008 39.018 101.58 41.688 137 1.251 20.161-6.085 30.847-13.183 41.185-3.32 4.831-6.448 9.389-8.636 14.778-2.485 6.425-4.112 13.357 3.296 27.529 3.016 5.749 7.616 12.69 14.089 21.236 11.049 14.583 24.196 30.129 36.92 45.181h6e-3v4e-3l6e-3 4e-3 0.244 0.292c3.367 3.973 6.729 7.955 10.066 11.924 38.201 45.811 87.523 97.209 135.23 146.92 16.889 17.6 32.837 34.22 47.921 50.202 22.921 24.507 48.846 52.392 66.421 73.247 12.444 14.756 21.437 26.917 30.132 38.659v4e-3l0.143 0.19 0.876 1.184 0.012 0.012v5e-3c4.583 6.188 8.963 12.097 13.874 18.408 22.605 28.92 48.452 56.132 83.811 88.248 27.217 24.744 69.072 59.239 124.4 102.52 41.419 32.449 80.997 62.249 120.99 91.097 68.515 49.5 131.64 91.34 187.62 124.37 24.85 14.66 46.65 26.67 66.11 36.81 4.26 1.95 8.32 4.09 12.39 6.24 4.48 2.37 8.97 4.74 13.72 6.84v0.16c22.65 11.13 41.84 19.7 59.05 27.38l0.3 0.13 0.66-0.79h-0.01c-7.3-3.59-14.95-7.43-22.98-11.57l0.07 0.03-0.07-0.03c1.63 0.74 3.23 1.47 4.82 2.19l2.12 0.95 2.76 1.25c1.74 0.78 3.52 1.58 5.3 2.38l2.25 1.01 1.9 0.84c-6.4-2.86-12.79-5.74-19.15-8.64-32.54-14.84-72.61-34.33-127.54-66.73-55.92-32.99-118.98-74.79-187.42-124.24-41.187-29.753-81.504-60.106-120.92-91.046-55.288-43.245-97.095-77.707-124.26-102.41-35.263-32.026-61.039-59.163-83.572-87.986-5.203-6.691-9.834-12.947-14.732-19.57l-0.042-0.055v-4e-3c-8.743-11.814-17.784-24.034-30.311-38.891-17.605-20.885-43.553-48.804-66.492-73.328-15.888-16.78-31.866-33.519-47.933-50.215l-0.114-0.114c-47.641-49.648-96.898-100.98-135.02-146.7-3.337-3.973-6.698-7.955-10.072-11.928l-0.149-0.177c-12.741-15.069-25.912-30.645-36.961-45.219-6.401-8.462-10.966-15.327-13.922-20.982-7.116-13.607-5.59-20.196-3.224-26.266 2.109-5.207 5.185-9.692 8.45-14.443 7.247-10.558 14.745-21.482 13.469-42.176-2.688-35.611-23.362-94.372-41.813-137.5-7.265-16.476-15.388-32.686-23.248-48.355-3.975-7.8865-7.891-15.786-11.759-23.7l-6e-3 -0.0097c-8.558-17.483-16.645-33.994-27.67-50.273 185.79-246.09-53.525-74.479-2.432 0.8835zm-0.268 26.286 0.054 0.1145c1.489 3.0941 3.009 6.2346 4.571 9.4386 1.835 3.7471 3.7 7.5225 5.572 11.321l0.894 1.8074c7.7 15.568 15.662 31.668 22.7 48.059 16.526 39.682 36.634 99.149 38.887 136.15 1.037 21.137-7.235 31.658-15.233 41.826l-6e-3 7e-3 -0.018 0.024c-3.552 4.518-6.907 8.786-9.392 13.87-2.861 6.116-4.851 12.777 2.133 26.823 2.891 5.791 7.45 12.947 13.559 21.282 9.267 12.647 20.012 25.936 30.412 38.803l0.339 0.422c3.356 4.143 6.711 8.298 10.042 12.453 36.569 46.001 84.276 97.725 130.42 147.75l0.953 1.036c16.604 18.002 32.308 35.036 47.034 51.322 50.657 56.006 74.388 88.451 99.508 122.8l2.265 3.09c22.575 30.331 48.965 58.985 85.551 92.923 34.84 32.356 86.785 74.785 124.22 104.69 41.122 32.897 80.444 63.081 120.22 92.293 68.166 50.133 131.08 92.453 186.98 125.78 24.12 14.37 45.24 26.12 64.06 36.02 10.65 4.9 20.42 9.2 29.58 13.24l0.05 0.02 0.04 0.02 0.01 0.01h0.03l0.01 0.01 0.45 0.2 0.01 0.01-1.06 1.28c21.32 10.44 39.39 18.47 55.63 25.68l0.46-0.56c-8.79-4.32-17.49-8.73-26.1-13.22h0.02l-0.03-0.01c-31.02-14.22-69.23-33.06-121.49-64.21-55.83-33.29-118.67-75.56-186.78-125.65-39.751-29.19-79.049-59.357-120.15-92.229-37.409-29.88-89.305-72.275-124.1-104.58-36.491-33.844-62.803-62.422-85.301-92.644l-2.252-3.086-0.048-0.067c-25.132-34.356-48.893-66.835-99.586-122.89-14.375-15.893-29.685-32.492-45.842-50.021l-6e-3 -8e-3 -2.163-2.342-0.292-0.317-6e-3 -4e-3c-46.015-49.907-93.579-101.48-130.03-147.33-3.337-4.155-6.699-8.315-10.048-12.457-10.501-12.98-21.359-26.409-30.704-39.162-6.049-8.255-10.561-15.33-13.403-21.028-6.687-13.454-4.816-19.752-2.122-25.518 2.402-4.915 5.703-9.117 9.202-13.559l0.029-0.041c8.171-10.402 16.616-21.16 15.561-42.845-2.265-37.184-22.426-96.837-39.006-136.64-7.05-16.425-15.018-32.53-22.724-48.107l-0.018-0.0372-0.822-1.662c-1.896-3.8435-3.785-7.6638-5.644-11.458-1.562-3.1997-3.075-6.3403-4.565-9.4343l-0.024-0.0507c53.304-229.91-93.242-187.31-2.503 0.5913zm-24.465-18.699 2.712 5.5879c1.71 3.5159 3.451 7.0508 5.197 10.609l6e-3 0.0186 6e-3 0.0135 0.214 0.4333c8.272 16.848 16.825 34.276 24.185 52.117 16.365 40.903 33.612 97.695 35.263 132.35 0.799 22.255-8.582 32.733-17.652 42.861-3.386 3.779-6.58 7.35-9.202 11.463-3.659 5.96-6.222 11.979-0.489 25.26 2.747 6.319 7.319 13.969 13.975 23.387 9.727 13.762 20.967 28.193 31.837 42.141l0.799 1.028 0.017 0.021 6e-3 8e-3c2.509 3.225 5.024 6.455 7.522 9.688 33.588 43.718 77.058 92.703 119.1 140.08l0.137 0.152c16.407 18.488 31.903 35.95 46.361 52.595 45.949 52.848 67.839 84.013 91.01 117l0.035 0.051 6.657 9.468c20.233 28.185 45.21 56.31 78.62 88.51 37.057 35.759 91.421 81.24 130.5 113.08 40.758 33.274 79.848 63.842 119.49 93.46 46.629 34.888 116.82 85.259 186.43 127.13 23.49 14.13 44.03 25.65 62.27 35.32-4.38-2.03-8.93-4.18-14.32-6.77l-0.06-0.03c-6.82-2.89-13.6-5.84-20.34-8.83 7.32 3.24 14.07 6.14 20.35 8.83-25.52-12.3-56.65-28.67-95.712-52.34-69.478-42.134-139.4-93.029-185.8-128.31-39.418-29.905-78.275-60.833-118.78-94.55-38.708-32.158-92.733-78.26-130.28-115.27-33.57-33.037-58.345-61.628-77.964-89.973-2.807-4.134-5.542-8.192-8.248-12.216l-0.012-0.016-2.485-3.691c-20.77-30.894-40.389-60.072-80.337-108.06-14.44-17.368-30.126-35.725-46.705-55.135l-1.252-1.463c-38.237-44.737-77.774-90.995-108.57-132.45l-7.223-9.612c-11.943-15.859-24.292-32.259-34.411-47.497-5.936-8.935-9.893-16.146-12.08-22.064-4.577-12.395-0.9-17.333 2.651-22.104l0.12-0.15c2.598-3.387 5.667-6.408 8.915-9.605l0.018-0.02 6e-3 -4e-3c9.393-9.256 20.031-19.743 20.18-41.774-0.31-36.465-17.635-95.586-34.656-138.01-6.955-16.758-14.947-33.036-22.676-48.788v-3e-3l-0.054-0.109-3.409-6.9405c-0.959-1.9655-1.901-3.9069-2.831-5.8297-0.417-0.8635-0.834-1.725-1.251-2.5818l-6e-3 -0.016c251.55-295.08-96.927-194.61-2.384 0.6057l0.024 0.0444 0.775 1.6028c1.084 2.2419 2.181 4.5143 3.307 6.8171l3.409 6.9447 0.161 0.3263c7.682 15.656 15.62 31.846 22.528 48.468 23.421 58.377 34.327 112.19 34.554 137.49-0.143 21.412-10.078 31.203-19.673 40.663l-0.012 0.012c-3.308 3.255-6.425 6.328-9.118 9.827l-0.12 0.165c-3.617 4.848-7.723 10.356-2.884 23.472 2.235 6.027 6.246 13.348 12.247 22.381 10.143 15.275 22.492 31.677 34.441 47.543l0.03 0.043c2.413 3.204 4.827 6.408 7.217 9.603 30.805 41.453 70.312 87.686 108.53 132.41l0.12 0.136 0.154 0.181c16.985 19.875 33.041 38.655 47.785 56.391 39.888 47.924 59.483 77.064 80.229 107.92l2.056 3.056c2.855 4.244 5.733 8.518 8.695 12.88 19.691 28.446 44.537 57.126 78.191 90.251 37.594 37.057 91.672 83.202 130.41 115.38 40.538 33.738 79.419 64.683 118.86 94.609 46.461 35.311 116.44 86.262 186.02 128.45 23.429 14.2 44.029 25.78 62.269 35.44-2.25-1.04-4.56-2.12-6.91-3.23l0.16-0.2-5.08-2.14-0.09-0.04c-24.81-11.92-55.171-27.91-93.539-51.29-69.233-42.205-138.72-93.401-184.81-128.91-43.893-33.752-86.564-68.416-130.46-105.98-55.783-47.641-97.739-85.873-124.68-113.63-31.169-32.027-54.68-60.06-71.874-85.687-5.84-8.775-10.62-16.662-15.68-25.015-5.769-9.535-11.74-19.392-19.428-30.644-13.231-19.355-32.725-44.412-51.831-68.61-14.113-17.673-29.572-36.461-45.914-56.327l-5e-3 -9e-3 -1.294-1.568-0.28-0.342c-37.856-46.005-76.969-93.549-106.68-135.67-2.33-3.254-4.797-6.649-7.33-10.128l-1.162-1.593c-14.536-19.95-31.003-42.551-36.301-57.214-4.738-12.964-0.554-18.049 2.801-22.119 2.831-3.328 6.151-6.255 9.661-9.35l0.113-0.101c10.46-9.207 22.319-19.651 22.343-43.457-0.352-31.735-13.558-86.916-32.128-134.19-7.277-17.939-15.823-35.231-24.095-51.956l-2.885-5.8415-2.741-5.5709c244.11-290.92-99.593-197.31-2.348 0.5334l0.035 0.0752c0.578 1.1835 1.162 2.3743 1.752 3.5751 0.328 0.6649 0.656 1.3327 0.984 2.0043l2.884 5.8416c8.26 16.696 16.795 33.967 24.048 51.846 18.504 47.129 31.681 102.11 32.021 133.69-0.03 23.142-11.079 32.877-21.759 42.292l-0.012 0.01c-3.611 3.179-7.014 6.175-9.982 9.658-4.422 5.373-7.706 10.851-3.081 23.519 5.369 14.855 21.901 37.544 36.491 57.568l0.017 0.027 0.888 1.217c2.629 3.61 5.185 7.127 7.593 10.487 29.816 42.277 69.072 89.981 107.04 136.11 16.83 20.441 32.718 39.749 47.2 57.878 19.077 24.169 38.559 49.2 51.748 68.517 7.593 11.096 13.504 20.847 19.208 30.269l0.179 0.291c5.065 8.369 9.851 16.274 15.727 25.078 17.253 25.72 40.824 53.829 72.07 85.936 26.998 27.804 68.989 66.074 124.82 113.76 43.922 37.586 86.617 72.271 130.53 106.05 46.146 35.544 115.7 86.79 185.03 129.05 23.385 14.25 43.809 25.76 61.825 35.29-2.789-1.3-5.572-2.6-8.343-3.92l1.805 0.86-1.066 1.4c-0.799-0.33-1.603-0.66-2.42-1l-0.435-0.18c16.04 7.67 29.65 13.53 41.57 18.57-10.51-5.08-20.88-10.31-31.075-15.71l0.066 0.03c10.169 5.38 20.509 10.61 31.009 15.67 18.26 8.79 33.51 15.37 46.72 21.04l0.03 0.02c19.19 9.27 35.24 16.26 49.07 22.28l0.09-0.1c19.63 9.55 36.34 16.91 51.43 23.55l0.02 0.01 0.01 0.01h0.02l0.01 0.01h0.01l0.11 0.05 0.27-0.33c-9.82-4.81-19.53-9.75-29.12-14.79-29.59-13.61-66.05-31.81-115.8-61.74-69.512-41.82-139.63-92.142-186.22-126.99-39.632-29.597-78.686-60.148-119.42-93.396-39.054-31.829-93.37-77.259-130.37-112.97-33.32-32.116-58.226-60.153-78.387-88.24l-6.651-9.46c-23.207-33.041-45.127-64.248-91.159-117.2-14.375-16.54-29.763-33.882-46.044-52.231l-0.03-0.03-6e-3 -0.012-0.298-0.334c-42.069-47.404-85.569-96.423-119.16-140.13-2.389-3.085-4.785-6.163-7.175-9.235l-1.18-1.514-0.596-0.769h-6e-3c-10.656-13.699-21.658-27.829-31.175-41.305-6.591-9.32-11.109-16.878-13.809-23.095-5.9-13.666-2.419-19.342 0.37-23.89 2.527-3.966 5.662-7.465 8.975-11.172l0.042-0.046c8.856-9.887 18.88-21.092 18.07-43.955-1.657-34.834-18.952-91.816-35.371-132.84-7.384-17.901-15.948-35.349-24.232-52.218-1.824-3.7112-3.635-7.4054-5.423-11.074l-2.7-5.5795-6e-3 -0.0093c206.58-241.28-88.497-177.07-2.426 0.6391zm-69.179-57.388 2.7653 5.5372 2.7415 5.4695c8.2836 16.485 16.842 33.532 24.048 51.272 18.832 47.954 31.467 103.86 30.752 135.94-0.859 22.526-12.546 31.756-23.845 40.677l-0.024 0.019-0.131 0.102c-3.236 2.557-6.299 4.981-9.088 7.705-4.071 4.091-9.137 9.183-5.233 22.14 1.752 5.774 5.352 13.12 10.703 21.828 7.766 12.645 17.2 26.153 26.324 39.219l0.078 0.107c2.682 3.834 5.363 7.672 8.003 11.489 27.51 40.167 63.262 85.145 97.84 128.64 17.414 21.903 33.857 42.585 48.619 61.868 16.795 22.2 35.639 47.485 47.999 66.666 6.485 10.047 11.663 19.046 16.67 27.741l0.238 0.418 0.119 0.203c5.114 8.902 9.959 17.326 16.109 26.841 16.86 25.952 40.395 54.627 71.939 87.673 26.92 28.261 70.175 68.407 125.09 116.09 43.797 38.101 86.367 73.201 130.17 107.31 46.087 35.966 115.62 87.77 185.11 130.33 25.304 15.478 46.997 27.638 65.842 37.458 9.369 4.13 18.844 8.15 28.41 12.06-24.375-11.62-54.388-27.4-92.721-50.862-69.406-42.493-138.86-94.246-184.9-130.18-43.768-34.089-86.314-69.168-130.08-107.24-54.87-47.649-98.084-87.745-124.96-115.97-31.479-32.97-54.948-61.564-71.748-87.42-6.061-9.375-10.859-17.715-15.913-26.498v-4e-3h-6e-3l-0.268-0.469c-5.077-8.847-10.334-17.99-16.943-28.227-12.396-19.228-31.253-44.539-48.071-66.772-14.78-19.3-31.229-39.994-48.643-61.902l-0.238-0.3c-34.477-43.38-70.121-88.217-97.53-128.25-2.169-3.13-4.356-6.264-6.544-9.397l-1.466-2.1-0.149-0.217c-9.094-13.014-18.481-26.461-26.198-39.029-5.287-8.606-8.833-15.838-10.549-21.49-3.677-12.19 0.846-16.729 4.827-20.724 2.73-2.665 5.775-5.072 8.993-7.618l6e-3 -2e-3 0.048-0.039 6e-3 -6e-3c11.067-8.735 23.612-18.639 24.5-41.84 0.751-32.234-11.949-88.354-30.853-136.46-7.223-17.791-15.787-34.848-24.071-51.34l-0.0239-0.0461-5.5126-11.007c-92.866-192.38-96.702-188.99-2.2409 0.613zm5.7809 43.672c17.552 45.667 29.136 100.09 28.184 132.35-1.019 23.603-13.588 32.652-25.74 41.398-3.0573 2.202-5.9418 4.281-8.6594 6.598l-0.3576 0.308-0.012 8e-3c-4.571 4.001-9.7618 8.539-6.9727 20.429 1.4303 6.057 5.1134 14.097 10.948 23.89 8.0396 13.493 17.736 27.868 27.117 41.778l0.149 0.22 1.227 1.821c1.86 2.762 3.725 5.523 5.567 8.281 25.215 37.991 57.57 80.239 88.87 121.1 17.957 23.437 34.912 45.582 49.883 66.065 15.721 21.79 31.782 44.416 42.766 62.3 6.21 10.081 11.133 19.135 15.883 27.867v9e-3l0.327 0.6c4.995 9.219 10.162 18.746 16.681 29.186 16.288 25.941 40.431 56.082 71.767 89.597 24.554 26.308 62.511 62.485 112.83 107.53 42.099 37.804 85.742 74.735 130.86 110.74 49.036 39.204 122.92 95.425 196.41 140.61 29.411 18.074 53.762 31.466 74.353 41.846 7.086 3.57 13.707 6.78 19.953 9.7 16.043 7.51 29.512 13.12 41.27 17.96-8.88-4.24-17.634-8.62-26.258-13.12h-0.012c-26.461-11.75-60.604-28.67-107.82-57.692-73.387-45.113-147.2-101.28-196.19-140.45-45.097-35.983-88.704-72.887-130.77-110.67-50.282-45.007-88.203-81.147-112.71-107.41-31.271-33.439-55.354-63.496-71.576-89.348-6.496-10.398-11.424-19.485-16.639-29.106l-0.107-0.202c-4.828-8.885-9.81-18.066-16.133-28.35-11.008-17.922-27.093-40.578-42.838-62.397-14.983-20.508-31.944-42.657-49.906-66.108-31.277-40.831-63.62-83.057-88.8-121.01l-6.799-10.102-0.376-0.555c-9.297-13.793-18.898-28.029-26.842-41.371-5.763-9.671-9.3923-17.584-10.793-23.502-2.6044-11.12 2.0142-15.157 6.478-19.054l0.3457-0.305c2.6223-2.233 5.4531-4.274 8.4568-6.434l0.0595-0.045 0.0238-0.016c11.883-8.564 25.352-18.271 26.407-42.549 0.954-32.416-10.668-87.048-28.273-132.86-136.58-210.62-103.24-251.47-2.2349 0.4649zm-25.65-22.512c17.504 45.075 28.922 101.56 27.152 134.31-1.6091 23.373-14.756 31.958-27.474 40.264l-0.0537 0.0372c-3.4268 2.2356-6.6628 4.3473-9.6844 6.7484l-6e-3 6e-3c-4.5651 3.735-10.245 8.382-7.235 20.912 1.192 4.925 3.8143 11.18 7.8192 18.599 7.1456 13.26 16.794 28.046 26.127 42.355l0.0894 0.133 0.9595 1.47 6e-3 0.011c2.2349 3.431 4.4577 6.84 6.633 10.21 23.422 36.747 53.566 77.674 82.727 117.27l0.053 0.072 0.072 0.097v4e-3l6e-3 8e-3 6e-3 5e-3c17.891 24.287 34.786 47.226 49.512 68.344 14.459 20.999 30.663 44.977 41.271 63.571 5.161 9.042 9.381 17.322 13.457 25.332l0.012 0.025 0.137 0.267c4.655 9.121 9.464 18.555 15.591 28.89 42.11 71.582 163.83 193.12 317.63 317.19 93.09 75.441 162.64 121.02 195.81 141.48 33.792 20.839 60.39 35.159 83.465 46.244 3.97 1.9 7.843 3.72 11.622 5.45 14.875 6.81 28.421 12.38 41.777 17.73l0.209-0.29c-6.24-2.92-12.873-6.12-19.953-9.7-30.633-12.92-65.068-29.504-115.66-60.693-77.178-47.599-155.67-108.98-195.58-141.33-153.65-123.94-275.2-245.3-317.23-316.73-6.144-10.368-10.757-19.418-15.644-28.996l-0.041-0.085c-4.089-8.031-8.326-16.332-13.505-25.411-10.638-18.645-26.86-42.653-41.342-63.686-14.762-21.168-31.694-44.158-49.62-68.492l-0.12-0.161c-29.124-39.538-59.232-80.419-82.6-117.09-2.4971-3.863-5.042-7.777-7.6106-11.708l-0.0835-0.13c-9.3209-14.28-18.952-29.038-26.068-42.249-3.9453-7.312-6.5377-13.462-7.6998-18.277-2.8189-11.745 2.2347-15.876 6.6866-19.514l6e-3 -5e-3c2.9441-2.346 6.1564-4.4426 9.5593-6.6616 12.462-8.1325 26.58-17.356 28.237-41.427 1.7701-32.902-9.6844-89.609-27.236-134.84-138.93-199.37-89.48-214.94-2.1752 0.4522zm-24.673-19.503c16.246 42.336 26.854 97.285 25.227 130.65-1.5495 25.29-15.93 33.931-29.84 42.286l-6e-3 0.0034-0.0238 0.014c-2.8785 1.7279-5.5902 3.3599-8.2244 5.1512l-0.4947 0.3466c-5.1312 3.5802-10.948 7.6422-9.3567 18.864 0.8284 5.7613 3.8023 13.454 8.8442 22.867 6.6987 12.503 15.173 26.041 23.368 39.142l0.1251 0.197 0.7746 1.234 6e-3 0.014 0.012 0.015c2.068 3.305 4.136 6.603 6.1623 9.888 21.8 35.598 49.906 75.288 77.082 113.66 17.867 25.221 34.733 49.044 49.269 70.897 23.344 35.091 36.038 59.839 48.315 83.776 5.346 10.415 10.87 21.176 17.187 32.656 16.419 29.178 42.111 63.192 76.374 101.08 26.389 29.238 64.984 67.398 114.7 113.41 43.047 39.901 85.271 76.73 129.09 112.61 39.853 32.716 118.25 94.724 195.57 142.52 38.714 23.924 68.298 39.259 93.346 50.629-32.808-12.355-70.354-28.032-131.2-65.63-81.6-50.422-163.81-116.79-205.55-151.86-39.721-33.282-77.994-67.292-117.01-103.98-51.432-48.3-93.721-91.075-122.31-123.7-31.932-36.381-56.003-69.219-71.528-97.59-7.384-13.762-13.403-26.325-19.22-38.473l-6e-3 -4e-3 -0.083-0.177c-10.596-22.115-21.562-44.987-41.241-76.405-14.881-23.725-32.677-49.902-51.527-77.609-26.11-38.397-53.101-78.095-73.781-113.57-2.1932-3.665-4.3982-7.324-6.6271-10.977l-0.0239-0.04c-12.164-20.025-25.942-42.711-27.516-56.084-1.3409-10.985 4.3983-14.553 9.9527-18.006l0.70312-0.4447c2.3481-1.4287 4.7678-2.7728 7.3244-4.1888l0.0179-0.0106c14.416-8.0074 30.758-17.082 32.736-43.742 16.362-329.55 10.756-277.12-2.1276-0.08457-1.9309 25.936-17.176 34.402-31.92 42.585l-0.22644 0.1273c-2.3898 1.3293-4.8511 2.6992-7.1813 4.1165l-0.71513 0.4438-0.012 0.0085c-5.6855 3.54-12.122 7.5504-10.68 19.321 1.6032 13.618 15.43 36.378 27.647 56.49l0.0775 0.132 0.6971 1.153c2.0501 3.368 4.0467 6.659 5.918 9.816 20.686 35.473 47.665 75.157 73.757 113.54l0.0715 0.105 0.3992 0.589c18.683 27.486 36.336 53.447 51.092 76.974 19.649 31.359 30.591 54.192 41.169 76.273l0.173 0.355v4e-3c5.805 12.106 11.806 24.63 19.173 38.355 15.584 28.472 39.715 61.395 71.718 97.856 28.624 32.66 70.956 75.478 122.42 123.82 39.036 36.714 77.333 70.753 117.08 104.05 41.777 35.112 124.06 101.55 205.77 152.03 62.815 38.811 100.88 54.34 134.5 66.915l0.852-1.226c14.351 6.434 27.242 11.595 39.554 16.375l0.531-0.74c-3.785-1.73-7.658-3.55-11.627-5.45-31.378-12.564-67.958-29.167-123.19-63.291-77.207-47.729-155.53-109.68-195.33-142.36-43.791-35.856-85.986-72.668-129-112.54-49.68-45.976-88.239-84.098-114.6-113.3-34.184-37.809-59.811-71.729-76.164-100.81-6.318-11.451-11.836-22.204-17.17-32.61l-0.024-0.051c-12.295-23.954-25.013-48.736-48.374-83.861-14.53-21.836-31.372-45.624-49.209-70.808l-6e-3 -8e-3 -0.084-0.119c-27.164-38.358-55.252-78.023-77.028-113.59-1.8594-3-3.7487-6.017-5.6319-9.037l-6e-3 -3e-3 -6e-3 -9e-3v-6e-3l-1.317-2.104-0.0596-0.093v-4e-3c-8.2124-13.106-16.705-26.66-23.392-39.157-4.9644-9.274-7.9027-16.827-8.7013-22.445-1.478-10.414 3.6711-14.027 8.6534-17.516l0.0299-0.0216 0.4886-0.3381c2.5806-1.7541 5.2804-3.3773 8.1351-5.0933 13.618-8.1786 29.053-17.45 30.65-43.465 1.633-33.519-9.0109-88.675-25.311-131.16-143.61-192.98-77.975-189.07-2.0919 0.4349zm-28.612 90.78c-2.9619 24.727-18.546 32.726-33.618 40.459l-6e-3 0.0043c-2.5626 1.3103-5.2028 2.6629-7.7058 4.0746l-0.3576 0.2114-0.018 0.0097c-6.0252 3.4851-12.855 7.4325-11.562 19.434 0.5006 4.6199 2.3241 10.478 5.4232 17.415 6.2218 13.965 15.817 30.272 25.096 46.042l1.2278 2.088c1.913 3.252 3.8081 6.471 5.6378 9.63 18.153 31.732 41.086 66.766 63.262 100.65l0.131 0.198c18.296 27.948 35.573 54.34 49.883 78.319 18.564 31.067 28.815 54.006 38.725 76.189 5.692 12.74 11.58 25.911 18.952 40.4 14.44 27.809 37.54 60.617 68.656 97.522 37.498 44.614 91.54 97.873 130.27 134.7 39.292 37.437 77.314 71.658 116.23 104.61 41.646 35.375 123.7 102.25 205.35 152.65 63.161 38.997 102.12 54.344 133.69 65.668l0.906-1.357c-31.455-11.285-70.294-26.578-133.27-65.465-81.54-50.329-163.51-117.14-205.12-152.48-38.887-32.936-76.886-67.131-116.15-104.54-38.708-36.795-92.703-90.011-130.16-134.57-31.038-36.825-54.084-69.553-68.477-97.264-7.288-14.325-13.123-27.378-18.767-39.999l-0.155-0.342-6e-3 -9e-3c-9.923-22.22-20.185-45.193-38.791-76.32-14.327-24.004-31.61-50.405-49.912-78.361l-0.262-0.405c-22.128-33.807-44.984-68.738-63.089-100.38-1.7879-3.085-3.6354-6.218-5.4948-9.386l-1.3768-2.339c-9.2673-15.737-18.838-32.01-25.03-45.916-3.0454-6.8179-4.8393-12.562-5.328-17.06-1.1919-11.201 4.9049-14.731 10.799-18.133l0.3576-0.2029c2.3242-1.3133 4.708-2.5387 7.2111-3.8283l6e-3 -0.0012 0.3932-0.2029 6e-3 -0.0026c14.744-7.5614 31.449-16.13 34.5-41.573-149.49-292.18 19.455-246.45-2.0501-0.13525zm-26.789-20.796c-3.2838 25.131-19.482 32.999-35.138 40.606l-0.012 0.0055-0.4767 0.2325c-2.6997 1.3133-5.4829 2.6667-8.0932 4.0873l-0.173 0.093c-2.6043 1.4494-5.3517 2.9842-7.5925 5.1741v2.6841c2.2349-3.0501 5.5485-4.8956 8.7965-6.7043l0.155-0.0929c2.7236-1.4709 5.5185-2.832 8.4804-4.2692 15.316-7.4392 32.659-15.863 36.032-41.702-116.63-263.94 18.123-202.94-1.9786-0.1141zm-51.486 75.38v5.4687c5.2207 12.861 13.987 28.244 22.057 42.398 2.1753 3.8126 4.2911 7.5237 6.2578 11.062 17.283 31.697 39.31 66.78 60.622 100.71l0.1966 0.314c19.119 30.444 37.17 59.196 51.611 85.039 15.853 28.446 24.804 50.109 33.458 71.066v4e-3c5.411 13.112 11.007 26.671 18.23 41.681 14.417 29.393 38.529 64.544 71.665 104.47 27.432 33.139 67.815 75.843 120.03 126.91 42.54 41.693 84.305 79.988 127.66 117.08 41.568 35.675 123.51 103.04 205.23 153.39 63.613 39.204 102.15 53.85 133.26 64.501l0.846-1.327c-31.008-10.609-69.395-25.205-132.82-64.299-81.612-50.287-163.47-117.58-205.01-153.22-43.326-37.069-85.062-75.344-127.58-117.01-52.171-51.035-92.512-93.688-119.91-126.79-33.077-39.846-57.124-74.904-71.493-104.2-7.205-14.971-12.795-28.518-18.2-41.617v-5e-3l-0.018-0.046c-8.66-20.969-17.617-42.662-33.5-71.151-14.506-25.961-32.641-54.839-51.843-85.412-21.3-33.912-43.327-68.982-60.58-100.65-1.9846-3.542-4.1003-7.262-6.2756-11.075l-0.0537-0.0985c-9.1242-16.019-19.142-33.607-23.839-47.193zm0-58.976c12.402-6.746 23.755-16.44 26.634-36.718-63.905-194.98 15.546-158.17-1.9368-0.131-2.7236 19.212-12.873 28.487-24.697 35.097zm0 103.02v-3.9208c15.638 29.616 35.371 62.308 54.453 93.93l0.33974 0.561c18.606 30.843 36.175 59.97 50.091 86.241 14.899 28.117 23.094 49.721 31.02 70.618 5.6021 14.769 11.395 30.036 19.482 47.345 14.404 30.176 39.65 67.617 73.018 108.28 25.841 31.549 61.819 70.461 110 118.97 45.383 45.747 90.778 88.146 138.79 129.61 70.61 61.179 145.39 117.34 205.18 154.07 64.06 39.369 102.1 53.267 132.73 63.209l-0.787 1.297c-30.746-9.979-68.941-23.932-133.19-63.424-59.864-36.773-134.74-92.995-205.42-154.24-48.041-41.491-93.46-83.912-138.87-129.69-48.214-48.546-84.234-87.496-110.1-119.08-33.434-40.743-58.738-78.281-73.185-108.55-8.1051-17.347-13.91-32.639-19.518-47.429l-0.0417-0.106c-7.9025-20.826-16.073-42.37-30.913-70.377-13.987-26.401-31.676-55.71-50.401-86.735-18.362-30.429-37.331-61.852-52.677-90.592zm0-160.91c42.628 47.636 21.314 23.818 0 0zm0 194.62c6.0491 10.587 12.199 21.214 18.284 31.718l0.0476 0.086c19.154 33.079 37.242 64.32 51.063 92.31 13.022 26.401 20.233 47.223 27.206 67.368 5.3696 15.521 10.93 31.574 19.089 49.923 13.958 30.734 38.476 68.403 70.896 108.95 58.416 73.493 150.06 167.26 245.16 250.81 41.909 37.048 124.68 106.97 208.19 159.13 65.801 41.098 106.32 56.386 140.29 66.784l-0.715 1.26c-34.119-10.436-74.788-25.78-140.79-67-83.62-52.231-166.47-122.23-208.42-159.3-95.158-83.607-186.86-177.44-245.33-251-32.487-40.624-57.058-78.391-71.058-109.21-8.1588-18.345-13.707-34.377-19.077-49.873l-0.0477-0.143c-6.9609-20.112-14.16-40.903-27.152-67.241-13.791-27.936-31.854-59.139-50.985-92.175l-0.0358-0.059c-5.5246-9.543-11.115-19.186-16.622-28.809zm0 39.644v3.544c12.092 22.14 23.517 43.852 32.391 63.292 11.312 24.828 17.581 44.893 23.636 64.294l0.06547 0.203c5.0478 16.168 10.281 32.902 18.41 52.21 13.177 30.687 36.336 67.621 68.816 109.78 29.72 38.693 73.703 88.13 127.18 142.95 38.672 39.703 76.283 75.94 114.98 110.76 42.164 38.071 125.71 110.06 211.45 164.47 70.95 45.016 115 60.977 148.72 70.648l0.655-1.226c-33.582-9.637-77.457-25.53-148.2-70.415-85.64-54.344-169.1-126.26-211.23-164.3-38.678-34.813-76.266-71.024-114.91-110.71-53.446-54.792-97.393-104.18-127.08-142.84-31.962-41.49-55.711-79.363-68.673-109.53-8.1409-19.334-13.373-36.097-18.433-52.307l-0.02383-0.072v-4e-3c-6.0609-19.411-12.325-39.49-23.66-64.346-9.2911-20.362-21.377-43.203-34.095-66.417zm0 52.058v4.491c8.0217 20.261 12.807 37.517 17.45 54.284l0.0179 0.058c4.9822 17.961 10.137 36.542 19.232 58.581 13.391 31.718 37.933 71.349 70.992 114.6 28.124 36.887 67.833 82.402 118.03 135.28 41.723 44.001 82.976 84.397 126.11 123.48 42.123 38.287 125.61 110.62 211.49 164.85 71.736 45.299 115.71 60.562 149.26 69.519l0.596-1.2c-33.41-8.919-77.196-24.123-148.72-69.282-85.777-54.168-169.18-126.43-211.27-164.69-43.106-39.065-84.329-79.431-126.03-123.41-50.162-52.844-89.848-98.321-117.95-135.18-32.993-43.173-57.493-82.719-70.848-114.35-9.0766-22.005-14.226-40.569-19.202-58.52-4.9644-17.922-10.09-36.405-19.154-58.522zm0 102.81v4.168c13.564 31.651 36.73 69.743 67.469 110.84 61.522 82.737 153.4 181.59 252.06 271.2 41.974 38.334 125.2 110.67 211 164.48 72.797 45.658 118.21 60.423 149.63 68.188l0.536-1.159c-31.288-7.726-76.504-22.436-149.08-67.959-85.7-53.753-168.85-126.02-210.78-164.32-98.603-89.566-190.41-188.35-251.89-271.02-31.932-42.7-55.675-82.123-68.935-114.42zm0 59.311v2.79c7.8965 12.347 16.622 25.158 26.103 38.321 29.459 41 71.158 90.877 123.93 148.24 41.032 44.665 81.88 85.788 124.86 125.71 44.268 41.241 132.04 118.85 222.56 175.27 73.774 45.988 119.31 60.093 150.74 67.232l0.477-1.124c-31.282-7.114-76.623-21.156-150.18-67.004-90.414-56.353-178.11-133.89-222.34-175.11-42.958-39.893-83.781-80.99-124.8-125.64-52.737-57.32-94.401-107.16-123.84-148.12-10.06-13.961-19.262-27.525-27.522-40.557zm0 46.272v2.396c60.27 81.523 142.02 172.24 231.62 256.88 78.471 74.554 163.52 142.06 233.34 185.22 74.579 46.127 120.22 59.548 151.66 66.087l0.423-1.087c-31.282-6.509-76.73-19.874-151.08-65.867-69.74-43.109-154.71-110.56-233.11-185.05-90.224-85.239-172.48-176.63-232.84-258.58zm0 42.509v2.13c18.523 23.079 39.358 47.814 62.409 74.072 44.167 50.358 88.453 96.549 135.4 141.21 78.602 75.044 163.93 142.8 234.11 185.89 76.552 47.028 124.13 59.801 153.25 65.313l0.369-1.044c-28.993-5.495-76.361-18.213-152.68-65.102-70.11-43.037-155.36-110.74-233.89-185.72-46.921-44.636-91.189-90.805-135.33-141.14-23.57-26.845-44.823-52.096-63.649-75.614zm0 42.936v1.983c48.953 58.419 105.54 118.69 164.98 175.29 78.501 75.171 163.88 142.86 234.26 185.7 77.476 47.205 125.33 59.345 154.59 64.366l0.322-1.006c-29.125-5-76.772-17.089-154.02-64.159-70.3-42.797-155.61-110.42-234.04-185.54-59.888-57.037-116.89-117.8-166.1-176.64zm0 41.466v2.037c37.385 42.603 78.03 85.323 120.7 126.7 46.407 45.227 138.94 130.19 237.17 191.05 63.477 39.352 115.77 61.196 164.54 68.741l0.274-0.963c-48.548-7.511-100.64-29.292-163.95-68.534-98.132-60.804-190.59-145.7-236.97-190.89-42.576-41.288-83.781-84.727-121.77-128.14zm0 41.571v1.686c24.524 26.807 50.073 53.377 76.218 79.203 46.479 46.149 139.46 133.03 239.91 196.37 66.921 42.217 124.07 66.167 174.72 73.209l0.239-0.922c-50.419-7.012-107.38-30.89-174.12-72.998-100.36-63.284-193.27-150.1-239.72-196.21-26.515-26.189-52.409-53.144-77.249-80.331zm0 41.279v1.551c13.82 14.486 27.909 28.84 42.212 43.013 46.438 46.204 139.38 133.13 240.17 196.25 67.75 42.451 125.52 66.193 176.63 72.575l0.208-0.879c-50.883-6.357-108.46-30.032-176.05-72.376-100.7-63.06-193.58-149.93-239.98-196.1-14.643-14.507-29.053-29.208-43.19-44.04zm0 40.794v1.424c2.5746 2.583 5.161 5.157 7.7475 7.727 46.39 46.241 139.33 133.21 240.48 196.14 68.571 42.683 127.01 66.256 178.63 72.051l0.179-0.833c-51.408-5.774-109.66-29.279-178.06-71.864-101.07-62.875-193.94-149.78-240.31-196-2.8964-2.874-5.7867-5.761-8.6712-8.652zm0 39.93v1.311c53.035 50.574 130.59 118.24 213.64 169.58 69.394 42.936 128.49 66.366 180.68 71.645l0.155-0.786c-51.981-5.254-110.91-28.633-180.14-71.463-83.43-51.576-161.32-119.66-214.34-170.29zm0 38.866v1.057c12.998 11.717 26.038 23.096 38.976 34.014 48.488 40.928 95.474 75.44 139.62 102.58 69.239 42.594 130.73 66.598 182.76 71.345l0.131-0.749c-51.843-4.729-113.16-28.674-182.25-71.171-35.966-22.102-100.06-65.618-179.25-137.07zm0 37.023v0.985c0.8463 0.719 1.6985 1.437 2.5448 2.152 48.589 41 95.718 75.559 140.09 102.72 70.217 43.038 132.57 67.076 185.32 71.446l0.113-0.702c-52.57-4.353-114.75-28.336-184.83-71.285-30.424-18.628-80.807-52.434-143.25-105.32zm0 35.016v0.959c36.783 29.123 72.577 54.332 106.78 75.179 70.944 43.291 133.97 67.291 187.34 71.332l0.089-0.651c-53.184-4.028-116.05-27.982-186.86-71.193-24.381-14.861-61.528-39.407-107.35-75.626zm0 32.813v0.858c16.985 12.418 34.447 24.469 52.254 35.877 42.534 27.272 82.988 48.186 120.25 62.16 31.574 11.848 60.967 18.776 87.351 20.593l0.077-0.6c-26.282-1.817-55.58-8.72-87.053-20.53-37.194-13.957-77.594-34.842-120.08-62.079-17.998-11.531-35.639-23.717-52.797-36.279zm0 29.976v0.757c5.2028 3.47 10.435 6.89 15.704 10.254 42.695 27.302 83.388 48.237 120.94 62.232 32.057 11.945 61.855 18.869 88.566 20.585l0.072-0.562c-73.274-4.692-154.14-47.552-209.08-82.677-5.4352-3.471-10.841-7.004-16.204-10.589zm0 26.845v0.659c53.989 32.222 125.02 66.024 190.25 69.946l0.048-0.511c-65.229-3.918-136.34-37.843-190.3-70.094zm0 23.239v0.567c47.814 24.93 103.23 46.609 155.05 49.555l0.0537-0.46c-51.831-2.951-107.29-24.694-155.11-49.662zm0 19.292v0.486c38.72 17.013 80.235 29.951 119.71 32.09l0.0416-0.414c-39.471-2.143-81.016-15.115-119.75-32.162zm0 14.878v0.385c35.484 12.258 63.536 16.814 84.341 17.896l0.0356-0.368c-27.677-1.441-56.348-8.174-84.377-17.913zm0 9.853v0.338c19.363 4.628 35.704 6.721 49.078 7.389l0.0299-0.322c-13.374-0.668-29.727-2.764-49.108-7.405zm0 4.227v0.275c5.0061 0.549 9.6903 0.908 14.065 1.12l0.018-0.271c-4.3744-0.211-9.0706-0.571-14.083-1.124zm1109.1 82.902c4.1 1.88 8.03 3.64 11.8 5.32-3.94-1.76-7.88-3.53-11.8-5.32zm0 0c-0.56-0.26-1.13-0.52-1.7-0.78l-1.19-0.55 0.01 0.01z"/></g></g></g><defs><linearGradient id="b" x1="1641.2" x2="784.47" y1="220.37" y2="621.42" gradientUnits="userSpaceOnUse"><stop stop-color="#C4C4C4" offset="0"/><stop stop-color="#C4C4C4" stop-opacity="0" offset="1"/></linearGradient><linearGradient id="a" x1="-80.484" x2="604.89" y1="-144.51" y2="823.22" gradientUnits="userSpaceOnUse"><stop stop-color="#C4C4C4" offset="0"/><stop stop-color="#C4C4C4" stop-opacity="0" offset=".98397"/></linearGradient><clipPath id="e"><rect width="1280" height="1021" fill="#fff"/></clipPath></defs></svg>
