<svg fill="none" preserveAspectRatio="none" version="1.1" viewBox="0 0 375 839" xmlns="http://www.w3.org/2000/svg"><g clip-path="url(#e)"><g opacity=".73"><mask id="d" x="-316" y="-143" width="1631" height="1233" style="" maskUnits="userSpaceOnUse"><path d="m1315-143h-1631v1233h1631v-1233z" fill="url(#b)"/></mask><g mask="url(#d)"><path d="m15.29-43.11s19.37 33.24 28.06 50.98l0.073 0.1485c1.588 3.255 3.214 6.561 4.881 9.928 2.343 4.727 4.729 9.488 7.139 14.29 8.016 15.98 16.31 32.52 23.7 49.3 18.79 43.92 39.85 103.7 42.57 139.9 1.278 20.59-6.214 31.5-13.46 42.06-3.39 4.934-6.585 9.588-8.819 15.09-2.538 6.561-4.2 13.64 3.366 28.11 3.08 5.871 7.778 12.96 14.39 21.69 11.28 14.89 24.71 30.77 37.7 46.14h6e-3v4e-3l6e-3 4e-3 0.249 0.298c3.439 4.058 6.872 8.124 10.28 12.18 39.01 46.78 89.38 99.27 138.1 150 17.25 17.98 33.54 34.95 48.94 51.27 23.41 25.03 49.88 53.5 67.83 74.8 12.71 15.07 30.77 39.48 30.77 39.48v4e-3l0.146 0.195 2.428-0.976-0.042-0.056v-4e-3s-18.16-24.54-30.96-39.72c-17.98-21.33-44.48-49.84-67.9-74.89-16.23-17.14-32.54-34.23-48.95-51.28l-0.116-0.116c-48.65-50.7-98.96-103.1-137.9-149.8-3.409-4.058-6.841-8.124-10.29-12.18l-0.152-0.181c-13.01-15.39-26.46-31.3-37.75-46.18-6.536-8.642-11.2-15.65-14.22-21.43-7.267-13.9-5.709-20.62-3.293-26.82 2.155-5.318 5.295-9.898 8.631-14.75 7.4-10.78 15.06-21.94 13.76-43.07-2.745-36.37-23.86-96.38-42.7-140.4-7.419-16.83-15.71-33.38-23.74-49.38-4.06-8.054-8.058-16.12-12.01-24.2l-6e-3 -0.00989c-8.74-17.85-28.26-51.34-28.26-51.34zm-0.2738 26.84 0.0548 0.117s3.074 6.367 4.668 9.639c1.875 3.827 3.78 7.682 5.691 11.56l0.913 1.846c7.864 15.9 15.99 32.34 23.18 49.08 16.88 40.52 37.41 101.3 39.71 139 1.059 21.59-7.389 32.33-15.56 42.72l-0.0062 7e-3 -0.0182 0.025c-3.627 4.614-7.054 8.972-9.592 14.16-2.922 6.246-4.954 13.05 2.179 27.39 2.952 5.914 7.608 13.22 13.85 21.73 9.464 12.92 20.44 26.49 31.06 39.63l0.347 0.432c3.427 4.23 6.853 8.473 10.26 12.72 37.34 46.98 86.07 99.8 133.2 150.9l0.974 1.058c16.96 18.38 32.99 35.78 48.03 52.41 51.73 57.2 75.97 90.33 101.6 125.4l2.313 3.155 2.368-0.945-2.301-3.152-0.049-0.069c-25.67-35.09-49.93-68.26-101.7-125.5-14.68-16.23-30.32-33.18-46.82-51.08l-6e-3 -9e-3 -2.209-2.392-0.298-0.323-6e-3 -5e-3c-46.99-50.97-95.57-103.6-132.8-150.5-3.409-4.244-6.841-8.491-10.26-12.72-10.72-13.26-21.81-26.97-31.36-39.99-6.178-8.43-10.78-15.66-13.69-21.48-6.829-13.74-4.918-20.17-2.167-26.06 2.453-5.02 5.824-9.311 9.397-13.85l0.0305-0.042c8.344-10.62 16.97-21.61 15.89-43.76-2.313-37.97-22.9-98.9-39.83-139.5-7.2-16.77-15.34-33.22-23.21-49.13l-0.0182-0.03799-0.8399-1.697c-1.936-3.925-3.865-7.827-5.764-11.7-1.595-3.268-4.662-9.635-4.662-9.635l-0.0243-0.0518zm-22.22-13.39s3.691 7.541 5.539 11.31c8.448 17.21 17.18 35 24.7 53.22 16.71 41.77 34.33 99.77 36.01 135.2 0.8156 22.73-8.764 33.43-18.03 43.77-3.457 3.859-6.719 7.507-9.397 11.71-3.737 6.087-6.354 12.23-0.4991 25.8 2.806 6.453 7.474 14.27 14.27 23.88 9.933 14.06 21.41 28.79 32.51 43.04l0.8156 1.049 0.0182 0.021 0.0061 9e-3c2.562 3.294 5.131 6.592 7.681 9.894 34.3 44.65 78.7 94.67 121.6 143.1l0.14 0.156c16.76 18.88 32.58 36.71 47.34 53.71 46.92 53.97 69.28 85.8 92.94 119.5l0.036 0.052 6.799 9.67c20.66 28.78 46.17 57.51 80.29 90.39 37.84 36.52 133.3 115.5 133.3 115.5l-47.47-26.65s-94.7-79.92-133-117.7c-34.28-33.74-59.58-62.94-79.62-91.88-2.867-4.222-5.661-8.366-8.424-12.48l-0.012-0.018-2.538-3.768c-21.21-31.55-41.25-61.35-82.04-110.4-14.75-17.74-30.77-36.48-47.7-56.31l-1.278-1.493c-39.05-45.69-79.43-92.93-110.9-135.3l-7.376-9.816c-12.2-16.2-24.81-32.94-35.14-48.51-6.062-9.126-10.1-16.49-12.34-22.53-4.674-12.66-0.9192-17.7 2.708-22.57l0.1218-0.154c2.654-3.459 5.788-6.544 9.105-9.808l0.0182-0.021 0.0062-4e-3c9.592-9.453 20.46-20.16 20.61-42.66-0.3165-37.24-18.01-97.62-35.39-140.9-7.103-17.11-23.16-49.83-23.16-49.83v-0.0031l-2.307 0.8823s15.95 32.52 23.01 49.5c23.92 59.62 35.06 114.6 35.29 140.4-0.1461 21.87-10.29 31.87-20.09 41.53l-0.0122 0.012c-3.378 3.324-6.561 6.462-9.312 10.04l-0.1216 0.168c-3.694 4.951-7.888 10.58-2.946 23.97 2.282 6.156 6.378 13.63 12.51 22.86 10.36 15.6 22.97 32.35 35.17 48.55l0.0304 0.043c2.465 3.272 4.93 6.544 7.37 9.808 31.46 42.33 71.81 89.55 110.8 135.2l0.121 0.138 0.159 0.186c17.35 20.3 33.74 39.48 48.8 57.59 40.74 48.94 60.75 78.7 81.93 110.2l2.1 3.121c2.915 4.334 5.855 8.698 8.88 13.15 20.11 29.05 45.48 58.34 79.85 92.17 38.39 37.84 133.2 117.8 133.2 117.8l78.51 74.23s-88.4-69.87-133.2-108.2c-56.97-48.65-99.82-87.7-127.3-116-31.83-32.71-55.84-61.34-73.4-87.51-5.965-8.961-10.85-17.02-16.01-25.55-5.892-9.738-11.99-19.8-19.84-31.3-13.51-19.77-33.42-45.36-52.93-70.07-14.41-18.05-30.2-37.24-46.89-57.52l-6e-3 -8e-3 -1.321-1.602-0.286-0.349c-38.66-46.98-78.6-95.54-108.9-138.6-2.38-3.324-4.9-6.791-7.486-10.34l-1.187-1.626c-14.84-20.37-31.66-43.46-37.07-58.43-4.839-13.24-0.566-18.43 2.861-22.59 2.891-3.399 6.281-6.388 9.866-9.548l0.1157-0.104c10.68-9.402 22.79-20.07 22.82-44.38-0.3591-32.41-13.85-88.76-32.81-137-7.431-18.32-24.61-53.06-24.61-53.06l-2.368 0.6303s17.15 34.69 24.56 52.95c18.9 48.13 32.35 104.3 32.7 136.5-0.03043 23.63-11.31 33.58-22.22 43.19l-0.0121 0.011c-3.688 3.246-7.164 6.307-10.19 9.864-4.516 5.486-7.87 11.08-3.147 24.02 5.484 15.17 22.37 38.34 37.27 58.79l0.01819 0.026 0.9068 1.244c2.684 3.686 5.295 7.278 7.754 10.71 30.45 43.18 70.54 91.89 109.3 139 17.19 20.88 33.41 40.59 48.2 59.11 19.48 24.68 39.38 50.25 52.85 69.97 7.754 11.33 13.79 21.29 19.62 30.91l0.183 0.298c5.173 8.547 10.06 16.62 16.06 25.61 17.62 26.27 41.69 54.97 73.6 87.76 27.57 28.4 70.46 67.48 127.5 116.2 44.86 38.38 133.3 108.3 133.3 108.3l-25.33-51.39s-95.35-78.9-133.1-115.4c-34.03-32.8-59.46-61.43-80.05-90.12l-6.792-9.661c-23.7-33.74-46.09-65.61-93.1-119.7-14.68-16.89-30.4-34.6-47.02-53.34l-0.031-0.03-6e-3 -0.013-0.304-0.341c-42.96-48.41-87.39-98.47-121.7-143.1-2.441-3.151-4.887-6.294-7.328-9.432l-1.205-1.545-0.6085-0.786h-0.0062c-10.88-13.99-22.12-28.42-31.84-42.18-6.731-9.518-11.34-17.24-14.1-23.59-6.026-13.96-2.471-19.75 0.3773-24.4 2.581-4.05 5.782-7.624 9.166-11.41l0.0427-0.048c9.044-10.1 19.28-21.54 18.45-44.89-1.692-35.57-19.35-93.77-36.12-135.7-7.541-18.28-16.29-36.1-24.75-53.33-1.862-3.79-5.539-11.31-5.539-11.31zm-13.15 272.6 0.0791 0.109s5.478 7.835 8.174 11.73c28.09 41.02 64.61 86.96 99.92 131.4 17.78 22.37 34.58 43.49 49.65 63.18 17.15 22.67 36.4 48.49 49.02 68.08 6.622 10.26 11.91 19.45 17.02 28.33l0.244 0.428 0.121 0.207c5.222 9.091 10.17 17.69 16.45 27.41 17.22 26.5 41.25 55.79 73.47 89.54 27.49 28.86 71.67 69.86 127.8 118.6 44.73 38.91 88.2 74.76 132.9 109.6 291.7 186.1 265.2 203.7 1.771-1.222-44.7-34.81-88.15-70.64-132.8-109.5-56.04-48.66-100.2-89.61-127.6-118.4-32.15-33.67-56.12-62.87-73.27-89.28-6.19-9.574-11.09-18.09-16.25-27.06v-4e-3h-6e-3l-0.274-0.48c-5.185-9.034-10.55-18.37-17.3-28.83-12.66-19.64-31.92-45.48-49.09-68.19-15.09-19.71-31.89-40.84-49.68-63.22l-0.2434-0.307c-35.21-44.3-71.61-90.09-99.6-131-2.215-3.197-6.683-9.597-6.683-9.597l-1.497-2.144-0.1522-0.221zm-29.34-19.89 0.1522 0.225 1.254 1.859s3.804 5.641 5.685 8.458c25.75 38.8 58.79 81.94 90.76 123.7 18.34 23.94 35.65 46.55 50.94 67.47 16.06 22.25 32.46 45.36 43.68 63.62 6.342 10.3 11.37 19.54 16.22 28.46v8e-3l0.335 0.613c5.1 9.415 10.38 19.14 17.04 29.81 16.63 26.49 41.29 57.27 73.29 91.5 25.08 26.87 63.84 63.81 115.2 109.8 42.99 38.61 87.56 76.32 133.6 113.1 50.08 40.04 200.6 143.6 200.6 143.6l1.521-1.34s-150.3-103.4-200.4-143.4c-46.06-36.75-90.59-74.44-133.6-113-51.35-45.96-90.08-82.87-115.1-109.7-31.94-34.15-56.53-64.84-73.1-91.25-6.634-10.62-11.67-19.9-16.99-29.72l-0.11-0.207c-4.93-9.073-10.02-18.45-16.48-28.95-11.24-18.3-27.67-41.44-43.75-63.72-15.3-20.94-32.62-43.56-50.97-67.51-31.94-41.7-64.97-84.82-90.69-123.6l-6.944-10.32-0.3835-0.566zm-34.22-26.6 0.0912 0.136 0.98 1.502 0.0061 0.011s4.552 6.985 6.774 10.43c23.92 37.53 54.7 79.32 84.48 119.8l0.05481 0.074 0.073 0.099v4e-3l0.00612 9e-3 0.00613 4e-3c18.27 24.8 35.53 48.23 50.56 69.8 14.77 21.45 31.31 45.93 42.15 64.92 5.271 9.233 9.58 17.69 13.74 25.87l0.012 0.026 0.14 0.272c4.754 9.315 9.665 18.95 15.92 29.5 43.01 73.1 167.3 197.2 324.4 323.9 95.07 77.04 200 144.5 200 144.5l1.485-1.287s-159-111.3-199.7-144.3c-156.9-126.6-281.1-250.5-324-323.5-6.275-10.59-10.98-19.83-15.98-29.61l-0.043-0.086c-4.175-8.202-8.502-16.68-13.79-25.95-10.86-19.04-27.43-43.56-42.22-65.04-15.08-21.62-32.37-45.1-50.67-69.95l-0.1217-0.164c-29.74-40.38-60.49-82.13-84.36-119.6-2.55-3.945-7.772-11.96-7.772-11.96l-0.0852-0.133zm-25.27-12.31s50.97 76.89 78.72 116.1c18.25 25.76 35.47 50.09 50.32 72.4 23.84 35.84 36.8 61.11 49.34 85.56 5.459 10.64 11.1 21.63 17.55 33.35 16.77 29.8 43.01 64.53 78 103.2 26.95 29.86 66.36 68.83 117.1 115.8 43.96 40.75 87.08 78.36 131.8 115 40.7 33.41 120.8 96.74 199.7 145.5 151.8 80.15 27.64 25.34-38.65-15.32-83.33-51.49-167.3-119.3-209.9-155.1-40.56-33.99-79.65-68.72-119.5-106.2-52.52-49.33-95.71-93.01-124.9-126.3-32.61-37.15-57.19-70.69-73.05-99.66-7.541-14.06-13.69-26.88-19.63-39.29l-0.0061-5e-3 -0.0852-0.181c-10.82-22.58-22.02-45.94-42.12-78.03-184.1-292.3-125.4-195.5-1.984 0.656 20.07 32.03 31.24 55.34 42.04 77.9l0.1764 0.362v4e-3c5.928 12.36 12.06 25.15 19.58 39.17 15.92 29.08 40.56 62.7 73.24 99.94 29.23 33.36 72.46 77.08 125 126.4 39.87 37.5 78.98 72.26 119.6 106.3 42.66 35.86 126.7 103.7 210.1 155.3 122.5 61.53 239.7 120.5 41.49 12.85-78.85-48.74-158.8-112-199.5-145.4-44.72-36.62-87.81-74.21-131.7-114.9-50.74-46.95-90.11-85.88-117-115.7-34.91-38.61-61.08-73.25-77.78-103-6.451-11.69-12.09-22.68-17.53-33.3l-0.0243-0.052c-12.56-24.46-25.54-49.77-49.4-85.64-14.84-22.3-32.04-46.6-50.25-72.31l-0.0061-9e-3 -0.0853-0.121c-27.74-39.17-78.67-116-78.67-116zm92.86 219.4s11.83 26.46 19.35 41.26c14.75 28.4 38.34 61.9 70.11 99.59 38.3 45.56 93.49 99.95 133 137.6 40.13 38.23 78.96 73.18 118.7 106.8 42.53 36.13 126.3 104.4 209.7 155.9 197.2 89.71 118 70.22 1.351-1.179-83.27-51.4-167-119.6-209.5-155.7-39.71-33.64-78.52-68.56-118.6-106.8-39.53-37.58-94.67-91.92-132.9-137.4-31.7-37.61-55.23-71.03-69.93-99.33-7.444-14.63-13.4-27.96-19.17-40.85l-0.1583-0.35-0.0061-9e-3zm-41.05-24.59v4e-3s11.24 27.24 18.62 42.57c14.72 30.02 39.35 65.92 73.19 106.7 28.02 33.84 69.26 77.45 122.6 129.6 43.44 42.58 86.1 81.69 130.4 119.6 42.45 36.43 126.1 105.2 209.6 156.7 64.96 40.04 136.1 65.87 136.1 65.87l0.865-1.355s-70.87-25.74-135.6-65.66c-83.35-51.36-166.9-120.1-209.4-156.5-44.25-37.86-86.87-76.94-130.3-119.5-53.28-52.12-94.48-95.68-122.5-129.5-33.78-40.69-58.34-76.5-73.01-106.4-7.358-15.29-18.59-42.5-18.59-42.5v-4e-3l-0.0182-0.048zm-19.21 23.25s40.49 69.05 74.57 110.6c26.39 32.22 63.13 71.96 112.3 121.5 46.35 46.72 92.71 90.02 141.7 132.4 72.11 62.48 148.5 119.8 209.5 157.3 65.42 40.2 135.5 64.55 135.5 64.55l-0.803 1.325s-70.41-24.44-136-64.77c-61.14-37.56-137.6-94.97-209.8-157.5-49.06-42.37-95.44-85.69-141.8-132.4-49.24-49.58-86.02-89.36-112.4-121.6-34.14-41.61-74.74-110.9-74.74-110.9zm-40.54-20.08s39.29 69.86 72.4 111.3c59.66 75.05 153.3 170.8 250.4 256.1 42.8 37.84 127.3 109.2 212.6 162.5 67.2 41.97 143.3 68.2 143.3 68.2l-0.731 1.286s-76.38-26.33-143.8-68.42c-85.4-53.34-170-124.8-212.8-162.7-97.18-85.38-190.8-181.2-250.5-256.3-33.18-41.49-72.57-111.5-72.57-111.5zm-42.06-18.6s37.11 69.06 70.28 112.1c30.35 39.51 75.27 90 129.9 146 39.49 40.55 77.9 77.55 117.4 113.1 43.06 38.88 128.4 112.4 215.9 168 72.46 45.97 151.9 72.15 151.9 72.15l0.67-1.252s-79.1-26.07-151.3-71.91c-87.46-55.5-172.7-128.9-215.7-167.8-39.5-35.55-77.89-72.53-117.4-113.1-54.58-55.96-99.46-106.4-129.8-145.9-32.64-42.37-70.13-111.9-70.13-111.9zm33.9 102.7s69.27 84.15 120.5 138.2c42.61 44.94 84.74 86.19 128.8 126.1 43.02 39.1 128.3 113 216 168.4 73.26 46.26 152.4 71 152.4 71l0.609-1.225s-78.84-24.64-151.9-70.76c-87.6-55.32-172.8-129.1-215.8-168.2-44.02-39.9-86.12-81.12-128.7-126-51.23-53.97-120.5-138-120.5-138zm-110-132v4.256s37.51 71.22 68.9 113.2c62.83 84.5 156.7 185.4 257.4 277 42.87 39.15 127.9 113 215.5 168 74.34 46.63 152.8 69.64 152.8 69.64l0.547-1.182s-78.13-22.91-152.2-69.4c-87.52-54.9-172.4-128.7-215.3-167.8-100.7-91.47-194.5-192.4-257.2-276.8-32.61-43.61-70.4-116.9-70.4-116.9zm26.66 102.6s72.67 92.81 126.6 151.4c41.9 45.61 83.62 87.61 127.5 128.4 45.21 42.12 134.8 121.4 227.3 179 75.34 46.97 153.9 68.66 153.9 68.66l0.487-1.148s-78.25-21.6-153.4-68.43c-92.34-57.55-181.9-136.7-227.1-178.8-43.87-40.74-85.56-82.71-127.4-128.3-53.86-58.54-126.5-151.3-126.5-151.3zm-26.66 5.271v2.448s145 175.9 236.5 262.3c80.14 76.14 167 145.1 238.3 189.2 76.16 47.11 154.9 67.49 154.9 67.49l0.432-1.11s-78.36-20.3-154.3-67.27c-71.22-44.03-158-112.9-238.1-189-92.14-87.05-237.8-264.1-237.8-264.1zm63.74 121.2s90.33 98.6 138.3 144.2c80.27 76.64 167.4 145.8 239.1 189.8 78.18 48.03 156.5 66.7 156.5 66.7l0.378-1.066s-77.98-18.6-155.9-66.49c-71.6-43.95-158.7-113.1-238.9-189.7-47.92-45.58-138.2-144.1-138.2-144.1zm-63.74-33.97v2.025s107.8 121.2 168.5 179c80.17 76.77 167.4 145.9 239.2 189.6 79.12 48.21 157.9 65.73 157.9 65.73l0.329-1.027s-78.4-17.45-157.3-65.52c-71.79-43.71-158.9-112.8-239-189.5-61.16-58.25-169.6-180.4-169.6-180.4zm0 42.35v2.081s79.69 87.14 123.3 129.4c47.39 46.19 141.9 133 242.2 195.1 64.82 40.19 168 70.2 168 70.2l0.28-0.984s-102.8-29.92-167.4-69.99c-100.2-62.1-194.6-148.8-242-194.9-43.48-42.17-124.4-130.9-124.4-130.9zm0 42.45v1.723s51.14 54.51 77.84 80.89c47.47 47.13 142.4 135.9 245 200.5 68.34 43.12 178.4 74.76 178.4 74.76l0.244-0.942s-109.7-31.55-177.8-74.55c-102.5-64.63-197.4-153.3-244.8-200.4-27.08-26.75-78.89-82.04-78.89-82.04z" clip-rule="evenodd" fill="#fff" fill-opacity=".6" fill-rule="evenodd"/></g></g><g opacity=".5"><mask id="c" x="-106" y="-169" width="811" height="773" style="" maskUnits="userSpaceOnUse"><path d="m704.6 29.6-340.3-198.6-470.2 574.4 340.3 198.6 470.2-574.4z" fill="url(#a)"/></mask><g mask="url(#c)"><path d="m201.3 622.3 1.743-2.079c-3.117-3.853-6.199-7.729-9.246-11.63-3.825-4.839-7.674-9.658-11.41-14.34l-0.91-1.138-0.02-0.022-1e-3 -3e-3c-36.67-45.88-68.34-85.51-75.76-135-8.186-55.79 7.905-91.84 28.15-129.9 22.89-42.44 38.83-84 47.39-123.5 12.88-60.03 12.37-126.4 9.907-189.3-1.186-28.53-6.737-75.11-6.737-75.11l-2.523 0.7359s5.54 46.5 6.728 74.96c2.461 62.7 2.968 129-9.863 188.8-8.515 39.32-24.38 80.68-47.16 122.9-20.44 38.42-36.68 74.81-28.4 131.2 3.426 22.84 12.1 44.98 27.3 69.67 13.56 22.02 30.68 43.44 48.8 66.12l0.083 0.105c3.999 5 8.131 10.17 12.24 15.36 3.174 4.071 6.409 8.132 9.7 12.19zm7.024-711.5s-4.148 24.55-2.834 33.8v4e-4l4e-3 0.0266c4.099 28.98 6.797 56.19 8.251 83.18 3.308 63.98 4.687 131.5-7.509 191.7-8.09 39.59-23.47 80.87-47.03 126.2-9.444 18.45-19.14 38.38-24.84 61.3-6.159 24.79-6.786 50.26-1.922 77.88 8.514 47.66 39.53 88.58 74.53 130.7l1.758-2.097c-34.68-41.73-65.34-82.33-73.75-129.4-10.43-59.21 5.843-97.47 26.52-137.9 23.66-45.54 39.12-87.02 47.25-126.8 12.24-60.39 10.86-128 7.549-192.1-1.456-27.05-4.158-54.31-8.265-83.34-1.666-11.66 2.599-32.6 2.599-32.6zm23.98 1.023s-3.787 24.99-2.053 35.89c4.202 26.56 7.208 53.55 9.189 82.52 4.192 63.32 7.637 136.3-4.623 201.1-4.879 25.61-15.18 67.18-48.16 132.2-9.736 19.5-19.46 40.88-24.65 64.96-5.697 26.41-5.388 53.44 0.939 82.62 5.346 24.38 16.2 47.97 34.14 74.24 5.13 7.505 10.63 14.92 16.41 22.31l1.793-2.138c-5.535-7.06-10.83-14.28-15.89-21.64-17.83-26.09-28.6-49.5-33.9-73.68-6.273-28.93-6.581-55.69-0.945-81.82 5.139-23.83 14.79-45.04 24.45-64.39 15.86-31.29 38.14-79.11 48.38-132.9 12.3-65.07 8.854-138.2 4.653-201.6-1.985-29.02-4.998-56.07-9.206-82.67l-4e-3 -0.0215c-1.689-10.62 1.869-34.68 1.869-34.68zm24.51-0.1163s-3.046 24.53-1.078 35.99l4e-3 0.027c4.513 26.37 7.947 54.82 10.5 86.97 5.435 70.43 9.666 144.8-3.17 211.4-9.832 50.63-30.31 96.15-49.05 134-8.841 18.12-18.55 40.09-23.48 65.57-5.112 26.39-4.499 53.37 1.88 82.49 5.04 22.81 14.71 44.98 30.1 68.83l1.87-2.229c-15-23.39-24.44-45.16-29.39-67.52-14.34-65.49 3.532-110.1 21.4-146.7 18.81-38 39.37-83.7 49.25-134.6 12.88-66.86 8.647-141.4 3.201-211.9-2.558-32.2-5.998-60.71-10.52-87.13v-0.0013c-1.926-11.2 0.936-34.91 0.936-34.91zm25.22 33.67 4e-3 0.0194 0.2 1.06c4.657 25.15 8.219 53.15 11.55 90.77 6.567 76.03 11.4 149.9-1.5 217.7-9.961 52.03-30.96 97.77-49.87 136.6-8.531 17.78-18.93 41.72-23.64 69.26-4.794 28-3.356 56.49 4.39 87.12 2.958 11.64 7.1 22.86 12.21 33.79l1.992-2.373c-4.835-10.49-8.768-21.26-11.6-32.39-7.686-30.38-9.111-58.62-4.368-86.34 4.671-27.26 14.98-51 23.43-68.62 18.97-38.94 40.06-84.86 50.07-137.2 12.94-68.06 8.109-142.1 1.529-218.2-3.339-37.69-6.906-65.73-11.58-90.94l-0.199-1.065zm26.79-5.988v7e-4l3e-3 0.0131 0.336 1.706c5.997 30.7 9.596 63.77 12.33 92.07l3e-3 0.0213-1e-3 7e-4 1e-3 0.0024c6.281 66.66 14.1 149.6 0.668 223.7-9.593 52.6-30.29 97.98-50.67 140-8.689 18.19-19.28 42.67-24.08 70.79-4.834 28.34-3.432 57.24 4.285 88.37 0.387 1.556 0.797 3.107 1.229 4.657l2.186-2.606c-0.272-1.01-0.535-2.02-0.788-3.035-7.656-30.88-9.047-59.52-4.26-87.59 2.495-14.62 7.463-35.81 23.87-70.15 20.45-42.13 41.23-87.7 50.88-140.6 13.48-74.43 5.649-157.5-0.647-224.3-2.733-28.35-6.34-61.48-12.35-92.25l-0.335-1.708zm26.52-8.973 0.476 2.336c5.565 27.57 9.124 57.12 12.75 93.01l0.121 1.236c7.126 71.99 15.2 153.6 2.175 228-9.951 56.54-33.99 106.1-53.3 146l-3e-3 4e-3 -7e-3 0.015c-13.31 27.93-20.8 50.89-24.28 74.44-2.937 19.86-2.863 39.92 0.258 60.66l2.386-2.844c-2.795-19.84-2.771-39.05 0.043-58.07 3.45-23.31 10.87-46.05 24.07-73.75l0.019-0.04 2e-3 -2e-3c19.38-40 43.49-89.78 53.5-146.6 13.07-74.73 4.985-156.5-2.153-228.6l-0.123-1.237c-3.634-35.94-7.201-65.55-12.78-93.18l-0.478-2.342-4e-3 -0.0223zm42.96 91.89 5e-3 0.0368s16.61 158.2 2.572 234.6c-10.13 54.72-33.38 102.5-53.9 144.7l-5e-3 9e-3c-13.04 27.22-20.75 50.81-24.28 74.25-1.416 9.465-2.166 18.87-2.25 28.18l2.783-3.318c0.192-8.302 0.919-16.68 2.18-25.11 3.487-23.2 11.13-46.58 24.05-73.55 20.59-42.32 43.92-90.27 54.11-145.3 14.09-76.69-2.552-235.2-2.552-235.2zm32.33-7.515s18.1 160.3 4.265 238c-9.666 53.97-31.62 99.43-52.84 143.4l-0.014 0.031c-1.286 2.655-2.562 5.302-3.835 7.946-9.115 19.24-15.53 36.97-19.63 54.42l3.811-4.544c4.075-15.85 10.09-32.01 18.34-49.43 1.275-2.645 2.552-5.29 3.829-7.935 21.32-44.14 43.35-89.77 53.07-144.1 13.9-78.05-4.244-238.6-4.244-238.6l-2e-3 -0.0152z" clip-rule="evenodd" fill="#fff" fill-opacity=".6" fill-rule="evenodd"/></g></g></g><defs><linearGradient id="b" x1="-252.2" x2="447.8" y1="-137.8" y2="850.5" gradientUnits="userSpaceOnUse"><stop stop-color="#C4C4C4" offset="0"/><stop stop-color="#C4C4C4" stop-opacity="0" offset=".984"/></linearGradient><linearGradient id="a" x1="613.4" x2="95.64" y1="93.22" y2="228.4" gradientUnits="userSpaceOnUse"><stop stop-color="#C4C4C4" offset="0"/><stop stop-color="#C4C4C4" stop-opacity="0" offset="1"/></linearGradient><clipPath id="e"><rect width="375" height="839" fill="#fff"/></clipPath></defs></svg>