<svg width="266" height="271" viewBox="0 0 266 271" fill="none" xmlns="http://www.w3.org/2000/svg">
<path d="M39.6682 76.9226L188.025 69.5494" stroke="white" stroke-width="0.893718"/>
<path d="M185.347 71.7836L177.75 221.705" stroke="white" stroke-width="0.893718"/>
<g filter="url(#filter0_d_341_12587)">
<circle cx="39.8961" cy="77.8161" r="21.8961" fill="white"/>
</g>
<path d="M32.3887 83.1483C31.8844 83.1483 31.4529 82.9689 31.0941 82.6101C30.7347 82.2506 30.555 81.8188 30.555 81.3145V71.229C30.555 70.7247 30.7347 70.2929 31.0941 69.9335C31.4529 69.5747 31.8844 69.3953 32.3887 69.3953H47.0586C47.5629 69.3953 47.9947 69.5747 48.3541 69.9335C48.7129 70.2929 48.8923 70.7247 48.8923 71.229V81.3145C48.8923 81.8188 48.7129 82.2506 48.3541 82.6101C47.9947 82.9689 47.5629 83.1483 47.0586 83.1483H32.3887ZM32.3887 81.3145H47.0586V71.229H32.3887V81.3145ZM30.555 85.8989C30.2952 85.8989 30.0776 85.8108 29.9022 85.6348C29.7261 85.4594 29.6381 85.2418 29.6381 84.982C29.6381 84.7222 29.7261 84.5046 29.9022 84.3292C30.0776 84.1531 30.2952 84.0651 30.555 84.0651H48.8923C49.1521 84.0651 49.3697 84.1531 49.5451 84.3292C49.7212 84.5046 49.8092 84.7222 49.8092 84.982C49.8092 85.2418 49.7212 85.4594 49.5451 85.6348C49.3697 85.8108 49.1521 85.8989 48.8923 85.8989H30.555ZM32.3887 81.3145V71.229V81.3145Z" fill="black"/>
<g filter="url(#filter1_d_341_12587)">
<circle cx="177.978" cy="221.705" r="21.8961" fill="white"/>
</g>
<path d="M170.471 227.037C169.966 227.037 169.535 226.858 169.176 226.499C168.817 226.139 168.637 225.707 168.637 225.203V215.118C168.637 214.613 168.817 214.182 169.176 213.822C169.535 213.463 169.966 213.284 170.471 213.284H185.14C185.645 213.284 186.077 213.463 186.436 213.822C186.795 214.182 186.974 214.613 186.974 215.118V225.203C186.974 225.707 186.795 226.139 186.436 226.499C186.077 226.858 185.645 227.037 185.14 227.037H170.471ZM170.471 225.203H185.14V215.118H170.471V225.203ZM168.637 229.788C168.377 229.788 168.159 229.7 167.984 229.523C167.808 229.348 167.72 229.13 167.72 228.871C167.72 228.611 167.808 228.393 167.984 228.218C168.159 228.042 168.377 227.954 168.637 227.954H186.974C187.234 227.954 187.452 228.042 187.627 228.218C187.803 228.393 187.891 228.611 187.891 228.871C187.891 229.13 187.803 229.348 187.627 229.523C187.452 229.7 187.234 229.788 186.974 229.788H168.637ZM170.471 225.203V215.118V225.203Z" fill="black"/>
<g filter="url(#filter2_d_341_12587)">
<circle cx="185.572" cy="70.6665" r="61.6665" fill="white"/>
</g>
<circle cx="185.571" cy="70.6665" r="32.6207" fill="#17191C"/>
<path d="M196.988 72.2975H174.154C172.36 72.2975 170.892 73.7655 170.892 75.5596V82.0837C170.892 83.8779 172.36 85.3458 174.154 85.3458H196.988C198.782 85.3458 200.25 83.8779 200.25 82.0837V75.5596C200.25 73.7655 198.782 72.2975 196.988 72.2975ZM177.416 82.0837C175.622 82.0837 174.154 80.6158 174.154 78.8217C174.154 77.0275 175.622 75.5596 177.416 75.5596C179.21 75.5596 180.678 77.0275 180.678 78.8217C180.678 80.6158 179.21 82.0837 177.416 82.0837ZM196.988 55.9872H174.154C172.36 55.9872 170.892 57.4551 170.892 59.2493V65.7734C170.892 67.5675 172.36 69.0355 174.154 69.0355H196.988C198.782 69.0355 200.25 67.5675 200.25 65.7734V59.2493C200.25 57.4551 198.782 55.9872 196.988 55.9872ZM177.416 65.7734C175.622 65.7734 174.154 64.3055 174.154 62.5113C174.154 60.7172 175.622 59.2493 177.416 59.2493C179.21 59.2493 180.678 60.7172 180.678 62.5113C180.678 64.3055 179.21 65.7734 177.416 65.7734Z" fill="white"/>
<defs>
<filter id="filter0_d_341_12587" x="0.125637" y="46.9829" width="79.5409" height="79.541" filterUnits="userSpaceOnUse" color-interpolation-filters="sRGB">
<feFlood flood-opacity="0" result="BackgroundImageFix"/>
<feColorMatrix in="SourceAlpha" type="matrix" values="0 0 0 0 0 0 0 0 0 0 0 0 0 0 0 0 0 0 127 0" result="hardAlpha"/>
<feOffset dy="8.93718"/>
<feGaussianBlur stdDeviation="8.93718"/>
<feComposite in2="hardAlpha" operator="out"/>
<feColorMatrix type="matrix" values="0 0 0 0 0.329412 0 0 0 0 0.321569 0 0 0 0 0.964706 0 0 0 0.12 0"/>
<feBlend mode="normal" in2="BackgroundImageFix" result="effect1_dropShadow_341_12587"/>
<feBlend mode="normal" in="SourceGraphic" in2="effect1_dropShadow_341_12587" result="shape"/>
</filter>
<filter id="filter1_d_341_12587" x="138.207" y="190.872" width="79.5409" height="79.541" filterUnits="userSpaceOnUse" color-interpolation-filters="sRGB">
<feFlood flood-opacity="0" result="BackgroundImageFix"/>
<feColorMatrix in="SourceAlpha" type="matrix" values="0 0 0 0 0 0 0 0 0 0 0 0 0 0 0 0 0 0 127 0" result="hardAlpha"/>
<feOffset dy="8.93718"/>
<feGaussianBlur stdDeviation="8.93718"/>
<feComposite in2="hardAlpha" operator="out"/>
<feColorMatrix type="matrix" values="0 0 0 0 0.329412 0 0 0 0 0.321569 0 0 0 0 0.964706 0 0 0 0.12 0"/>
<feBlend mode="normal" in2="BackgroundImageFix" result="effect1_dropShadow_341_12587"/>
<feBlend mode="normal" in="SourceGraphic" in2="effect1_dropShadow_341_12587" result="shape"/>
</filter>
<filter id="filter2_d_341_12587" x="106.031" y="0.0628185" width="159.082" height="159.082" filterUnits="userSpaceOnUse" color-interpolation-filters="sRGB">
<feFlood flood-opacity="0" result="BackgroundImageFix"/>
<feColorMatrix in="SourceAlpha" type="matrix" values="0 0 0 0 0 0 0 0 0 0 0 0 0 0 0 0 0 0 127 0" result="hardAlpha"/>
<feOffset dy="8.93718"/>
<feGaussianBlur stdDeviation="8.93718"/>
<feComposite in2="hardAlpha" operator="out"/>
<feColorMatrix type="matrix" values="0 0 0 0 0.167 0 0 0 0 0.15 0 0 0 0 1 0 0 0 0.12 0"/>
<feBlend mode="normal" in2="BackgroundImageFix" result="effect1_dropShadow_341_12587"/>
<feBlend mode="normal" in="SourceGraphic" in2="effect1_dropShadow_341_12587" result="shape"/>
</filter>
</defs>
</svg>
