<svg preserveAspectRatio="none" viewBox="0 0 375 241" fill="none" xmlns="http://www.w3.org/2000/svg">
<g clip-path="url(#clip0_619_12379)">
<g opacity="0.1" clip-path="url(#clip1_619_12379)">
<path fill-rule="evenodd" clip-rule="evenodd" d="M697.532 -7.32164L697.492 -4.76706C684.666 -11.086 671.158 -16.5398 656.07 -18.7792C642.472 -20.767 627.85 -18.9302 615.952 -13.7385C606.578 -9.64187 594.357 -1.51644 589.418 13.9442C586.095 24.5532 585.266 36.2485 584.465 47.5505L584.457 47.6593L584.439 47.913L584.439 47.9181C584.203 51.2678 583.96 54.7263 583.651 58.0334C582.113 74.3823 583.571 91.8153 588.118 111.329C590.427 121.234 593.482 131.198 596.437 140.833L596.452 140.88L596.512 141.078C597.765 145.166 599.057 149.385 600.273 153.535L600.713 155.04C603.869 165.762 607.123 176.848 605.405 187.073C604.528 192.62 601.615 197.224 596.748 200.759C589.09 206.308 577.884 208.37 566.606 208.192C558.485 208.063 550.333 206.768 543.449 204.783C522.954 198.975 503.471 186.595 484.622 174.619L484.538 174.566C477.052 169.809 469.309 164.892 461.599 160.437C444.742 150.67 427.541 143.406 409.332 135.711L409.179 135.647C405.84 134.241 402.447 132.803 398.993 131.329C394.143 129.256 389.259 127.147 384.335 125.017C367.937 117.931 350.976 110.604 333.749 104.034C288.648 87.3147 227.159 68.4136 189.847 65.5012C168.602 64.0766 157.233 70.2771 146.233 76.276C141.092 79.0817 136.243 81.7261 130.529 83.5379C123.72 85.5915 116.387 86.8904 101.543 80.2129C95.5225 77.495 88.2665 73.3789 79.3425 67.6089C64.1161 57.7586 47.9024 46.0683 32.2043 34.7541L32.2044 34.7488L32.2 34.7487L32.1956 34.7436L31.8915 34.5262C27.7478 31.5322 23.5949 28.5432 19.4553 25.5752C-28.3295 -8.40426 -81.854 -52.1461 -133.618 -94.4556C-151.946 -109.434 -169.254 -123.578 -185.9 -136.96C-211.429 -157.298 -240.479 -180.304 -262.23 -195.933C-277.62 -206.999 -290.321 -215.021 -302.584 -222.777L-302.588 -222.777L-302.787 -222.904L-304.023 -223.686L-304.036 -223.696L-304.041 -223.696C-310.503 -227.784 -316.675 -231.692 -323.262 -236.067C-353.449 -256.204 -381.791 -279.131 -415.173 -310.41C-440.892 -334.488 -476.694 -371.455 -521.578 -420.285C-555.228 -456.84 -586.109 -491.749 -615.981 -527C-667.236 -587.396 -710.496 -642.979 -744.561 -692.213C-759.674 -714.066 -772.038 -733.215 -782.468 -750.303C-784.46 -754.04 -786.668 -757.61 -788.877 -761.179C-791.311 -765.12 -793.75 -769.059 -795.895 -773.223L-796.065 -773.231C-807.494 -793.11 -816.266 -809.939 -824.128 -825.027L-824.267 -825.295L-823.424 -825.852L-823.424 -825.847C-819.74 -819.434 -815.794 -812.721 -811.536 -805.673L-811.566 -805.733L-811.531 -805.672C-812.289 -807.096 -813.038 -808.502 -813.774 -809.894L-814.757 -811.757L-816.034 -814.18C-816.83 -815.698 -817.652 -817.262 -818.466 -818.822L-819.5 -820.798L-820.366 -822.46C-817.436 -816.848 -814.488 -811.251 -811.518 -805.667C-796.311 -777.127 -776.309 -741.96 -742.902 -693.664C-708.881 -644.488 -665.664 -588.962 -614.462 -528.63C-583.652 -492.322 -552.197 -456.761 -520.111 -421.978C-475.267 -373.185 -439.5 -336.26 -413.82 -312.224C-380.53 -281.029 -352.268 -258.165 -322.182 -238.092C-315.198 -233.456 -308.664 -229.326 -301.747 -224.956L-301.689 -224.919L-301.685 -224.919C-289.347 -217.12 -276.584 -209.055 -261.089 -197.915C-239.306 -182.26 -210.222 -159.233 -184.675 -138.879C-167.197 -124.784 -149.765 -110.613 -132.379 -96.364L-132.26 -96.2637C-80.5582 -54.0123 -27.1086 -10.3286 20.5836 23.582C24.7278 26.5501 28.8804 29.5391 33.0241 32.5383L33.2093 32.6708C48.9249 44.0009 65.1696 55.7125 80.387 65.5626C89.2229 71.269 96.399 75.3528 102.323 78.0173C116.573 84.4314 123.543 83.2148 129.977 81.2589C135.498 79.5114 140.269 76.9125 145.324 74.1522C156.559 68.0273 168.181 61.691 189.987 63.1452C227.504 66.0763 289.188 85.0323 334.414 101.795C351.689 108.386 368.672 115.719 385.087 122.816C393.349 126.403 401.627 129.94 409.919 133.435L409.929 133.44C428.248 141.173 445.549 148.48 462.564 158.338C470.008 162.638 477.454 167.359 484.688 171.946L484.691 171.946L485.578 172.51C504.33 184.427 523.717 196.748 543.98 202.495C559.984 207.133 582.973 207.943 595.62 198.777C599.973 195.617 602.574 191.548 603.347 186.652C604.962 177.016 601.789 166.216 598.722 155.776L598.277 154.276C597.046 150.068 595.736 145.787 594.464 141.647L594.45 141.6C591.482 131.923 588.414 121.917 586.084 111.924C581.471 92.1293 579.99 74.4213 581.564 57.7878C581.867 54.5169 582.103 51.2346 582.352 47.7711L582.373 47.4708C583.18 35.9772 584.018 24.1005 587.446 13.1563C591.574 0.253594 601.168 -9.80521 615.207 -15.9375C627.419 -21.2694 642.416 -23.1573 656.352 -21.1123C671.387 -18.8841 684.812 -13.5456 697.532 -7.32164ZM697.366 3.17658L697.328 5.60169C688.617 2.15708 679.488 -0.506418 669.689 -1.70325C644.977 -4.68576 614.532 6.12639 606.735 31.9857C603.32 43.521 602.866 56.2383 602.427 68.5514L602.423 68.6499L602.419 68.769C602.298 72.2138 602.184 75.467 602.005 78.7191C601.102 94.9537 603.098 112.478 608.118 132.284C610.539 141.859 613.597 151.481 616.557 160.79L616.632 161.024L616.633 161.029C618.07 165.551 619.555 170.219 620.941 174.812L621.22 175.744C624.559 186.785 628.003 198.191 626.413 208.811C625.62 214.417 622.795 219.12 618.015 222.776C610.153 228.794 598.213 231.015 586.521 230.83C579.773 230.723 573.099 229.814 567.353 228.36C545.972 223.083 525.642 210.093 505.973 197.524L505.828 197.434L505.827 197.429L505.824 197.429C498.049 192.459 490.009 187.325 482.014 182.752C466.437 173.787 450.618 167.204 433.875 160.232L433.755 160.183C430.512 158.836 427.221 157.462 423.864 156.051C419.938 154.393 415.982 152.708 412.002 151.017L410.108 150.21C393.797 143.255 376.928 136.064 359.739 129.671C318.119 114.64 255.683 96.1641 216.698 93.588C194.421 92.3337 183.213 99.3504 172.38 106.135L172.373 106.14L172.347 106.155C167.534 109.168 162.987 112.014 157.591 114.09C151.102 116.475 144.05 118.095 129.333 111.787C123.266 109.178 115.783 105.094 107.076 99.6437C93.8671 91.3751 80.0006 81.8105 66.5751 72.5537L66.1341 72.2513C61.8119 69.2648 57.4763 66.2782 53.1404 63.3123C5.13262 30.7494 -48.7574 -11.5937 -100.881 -52.5508L-101.96 -53.3972C-120.716 -68.134 -138.464 -82.0722 -155.436 -95.1481C-213.801 -140.128 -247.69 -161.303 -283.566 -183.717L-286.793 -185.738C-318.47 -205.872 -348.324 -229.295 -383.61 -261.672C-417.253 -292.505 -461.282 -338.377 -492.3 -371.428C-526.427 -407.731 -557.717 -442.424 -587.975 -477.494C-639.903 -537.6 -683.666 -593.01 -718.044 -642.166C-732.868 -663.376 -744.974 -681.936 -755.15 -698.465C-760.17 -707.805 -764.577 -716.375 -768.708 -724.408L-768.73 -724.448L-768.738 -724.465L-768.751 -724.489L-768.756 -724.495L-768.756 -724.497L-768.76 -724.507L-768.764 -724.516L-768.773 -724.528L-768.976 -724.926L-768.981 -724.931L-770.35 -724.03C-781.067 -742.74 -789.288 -758.59 -796.669 -772.831L-796.069 -773.222C-791.635 -765.508 -787.105 -757.868 -782.481 -750.303L-782.481 -750.319L-782.472 -750.298C-767.908 -723.09 -748.567 -689.555 -716.434 -643.597C-682.1 -594.498 -638.385 -539.151 -586.501 -479.098C-556.264 -444.049 -524.992 -409.377 -490.891 -373.095C-459.896 -340.071 -415.901 -294.24 -382.311 -263.45C-347.122 -231.158 -317.347 -207.803 -285.785 -187.738L-282.562 -185.728L-282.492 -185.685C-246.607 -163.26 -212.683 -142.059 -154.269 -97.0473C-137.707 -84.2837 -120.413 -70.6948 -102.15 -56.3545L-102.141 -56.3492L-99.7014 -54.4292L-99.371 -54.17L-99.3667 -54.1647C-47.3702 -13.3236 6.36582 28.8926 54.2148 61.3493C58.5506 64.3205 62.8905 67.3123 67.2128 70.2936C80.7573 79.6405 94.7694 89.3057 108.089 97.6435C116.711 103.041 124.111 107.081 130.081 109.648C144.177 115.687 150.844 114.165 156.961 111.919C162.178 109.912 166.655 107.112 171.388 104.144L171.43 104.119C182.513 97.1884 193.974 90.0254 216.828 91.3044C256.009 93.8939 318.64 112.419 360.388 127.499C377.613 133.903 394.487 141.1 410.807 148.06L410.846 148.076L412.588 148.819C416.615 150.531 420.618 152.237 424.593 153.917C427.946 155.328 431.237 156.697 434.48 158.044L434.533 158.065C451.359 165.07 467.261 171.686 482.96 180.725C491.037 185.357 499.15 190.533 506.994 195.545C526.53 208.029 546.729 220.933 567.811 226.139C583.101 229.993 604.98 229.992 616.886 220.898C621.173 217.617 623.709 213.439 624.408 208.469C625.916 198.427 622.561 187.303 619.314 176.543L619.304 176.512L619.025 175.585C617.757 171.382 616.403 167.111 615.084 162.954L615.084 162.949L614.654 161.594C611.681 152.254 608.61 142.586 606.168 132.948C601.09 112.882 599.066 95.1081 599.983 78.6041C600.166 75.378 600.28 72.1301 600.4 68.7008L600.404 68.5919C600.843 56.0922 601.297 43.1677 604.816 31.2816C612.961 4.28233 644.435 -7.03704 669.917 -3.99049C679.662 -2.80488 688.725 -0.199526 697.366 3.17658ZM697.176 15.2035L697.14 17.4989C693.219 16.4729 689.206 15.6526 685.068 15.1207C671.955 13.4309 657.929 15.899 646.59 21.8771C637.814 26.5066 626.536 35.3518 622.66 51.218C619.772 63.2696 619.697 76.4334 619.625 89.1722L619.623 89.5454C619.603 92.6653 619.585 95.6142 619.525 98.5779C619.178 114.873 621.637 132.493 627.046 152.445C629.458 161.331 632.388 170.277 635.225 178.936L635.309 179.191C637.081 184.542 638.805 189.918 640.48 195.314L640.653 195.877L640.657 195.887C643.964 206.648 647.713 218.846 646.124 229.71C645.316 235.679 642.326 240.654 637.262 244.497C629.279 250.549 617.424 252.798 605.79 252.614C598.707 252.502 591.71 251.484 585.725 249.886C565.496 244.575 546.363 232.242 527.856 220.308L527.705 220.212C520.823 215.776 513.703 211.19 506.643 207.046C489.552 196.979 472.738 189.95 453.258 181.815L447.402 179.364C443.718 177.818 440.014 176.246 436.286 174.668L436.266 174.663L436.252 174.657L435.798 174.464C418.145 166.99 399.884 159.264 381.17 152.567C338.26 137.655 278.607 121.711 242.078 119.698C218.62 118.632 207.441 126.613 196.636 134.331C192.604 137.211 188.794 139.929 184.421 142.14C178.085 145.222 171.703 147.35 157.776 142.144C151.15 139.649 143.145 135.547 133.305 129.602C118.925 120.916 103.862 110.902 89.3019 101.218L88.2297 100.506L88.2076 100.491L88.1988 100.485C84.8323 98.25 81.4613 96.0094 78.0857 93.7842C32.4439 63.8503 -18.6158 25.2372 -68.0014 -12.1107L-68.1601 -12.2324C-87.4314 -26.8063 -105.632 -40.5703 -122.987 -53.419C-178.087 -94.2522 -210.65 -113.805 -245.118 -134.502L-245.171 -134.534L-255.064 -140.48C-284.509 -158.542 -313.825 -180.728 -347.322 -210.314C-384.523 -243.131 -431.738 -291.158 -464.783 -325.672C-499.311 -361.665 -531.01 -396.162 -561.699 -431.125C-597.849 -472.25 -650.003 -534.121 -693.202 -595.338C-707.78 -616 -719.649 -634.048 -729.587 -650.076C-727.513 -646.234 -725.306 -642.234 -722.652 -637.506L-722.622 -637.459C-719.662 -631.478 -716.649 -625.537 -713.581 -619.626C-716.899 -626.044 -719.864 -631.958 -722.617 -637.464C-709.997 -615.071 -693.162 -587.733 -668.733 -553.372C-625.261 -492.26 -572.55 -430.618 -535.982 -389.679C-504.987 -354.908 -472.906 -320.607 -437.906 -284.824C-404.526 -250.632 -356.651 -202.89 -318.143 -169.627C-283.765 -139.887 -253.955 -117.869 -224.333 -100.338C-220.012 -97.8284 -215.771 -95.3823 -211.564 -92.9626L-211.556 -92.9573L-211.547 -92.9519L-207.69 -90.7295C-175.395 -72.1556 -144.895 -54.6104 -94.8345 -19.0763C-76.7174 -6.23107 -57.5744 7.7136 -37.3337 22.4531L-35.8085 23.5658C10.8435 57.5584 59.0823 92.7061 102.373 120.177L112.41 126.618C128.97 137.267 146.096 148.277 162.026 157.33C171.367 162.64 178.917 166.201 185.127 168.201C198.136 172.388 203.394 169.273 208.474 166.264L208.634 166.163C212.242 163.96 215.47 161.342 218.885 158.572L218.907 158.556L218.912 158.551C228.802 150.539 240.007 141.465 263.242 141.703C301.693 142.581 363.802 158.631 408.303 174.138C425.879 180.464 442.936 187.685 459.441 194.668L459.444 194.668L459.559 194.717L466.831 197.796C468.891 198.664 470.925 199.515 472.94 200.355C473.845 200.732 474.747 201.109 475.645 201.486L475.662 201.492C493.077 208.765 509.526 215.633 525.485 225.065C532.981 229.485 540.497 234.388 547.756 239.137C566.176 251.173 585.222 263.618 605.32 268.814C623.751 273.671 643.979 271.41 654.509 263.31C659.217 259.689 661.952 255.057 662.664 249.512C664.167 238.496 660.141 225.827 656.586 214.653L656.233 213.549C654.628 208.485 652.904 203.327 651.23 198.345C648.399 189.883 645.475 181.13 642.978 172.414C637.038 151.629 634.187 134.231 634.013 117.668C633.971 113.63 634.099 109.553 634.223 105.621L634.228 105.476L634.23 105.388C634.381 100.612 634.538 95.6745 634.394 90.7587C634.217 84.7435 634.208 76.8599 635.703 69.1609C641.538 39.6786 671.558 26.403 696.961 28.816L696.926 31.0079C663.992 27.7812 641.782 48.4834 637.6 69.6159C636.153 77.0722 636.165 84.7847 636.33 90.6753C636.483 95.6949 636.323 100.699 636.166 105.538L636.153 105.973C636.032 109.796 635.907 113.738 635.948 117.626C636.127 133.966 638.944 151.156 644.825 171.728C647.305 180.397 650.221 189.125 653.044 197.561C654.717 202.552 656.441 207.716 658.055 212.8L658.403 213.905C662.039 225.323 666.15 238.268 664.576 249.827C663.788 255.993 660.764 261.134 655.587 265.115C647.48 271.347 635.472 273.66 623.816 273.476C617.103 273.369 610.515 272.436 604.858 270.947C584.476 265.675 565.302 253.15 546.759 241.028L546.616 240.933C539.414 236.232 531.97 231.372 524.554 227.004C508.714 217.642 492.332 210.795 474.991 203.554L474.944 203.533L473.264 202.833C470.915 201.852 468.534 200.861 466.121 199.843L458.844 196.763L458.502 196.618C442.097 189.677 425.134 182.505 407.699 176.222C346.459 154.884 289.856 144.503 263.186 143.884C240.603 143.651 230.142 152.126 220.034 160.31L220.02 160.321C216.543 163.142 213.259 165.801 209.531 168.085L209.356 168.186C204.193 171.25 198.329 174.728 184.564 170.302C178.238 168.258 170.573 164.649 161.13 159.28C145.161 150.206 128.034 139.196 111.466 128.541L111.422 128.515C108.076 126.363 104.73 124.211 101.393 122.079C58.1026 94.6031 9.89008 59.4818 -36.7444 25.505L-36.8853 25.3991L-37.0748 25.2613C-57.8003 10.1616 -77.3841 -4.11135 -95.8848 -17.227C-145.875 -52.7082 -176.335 -70.2321 -208.585 -88.7846L-211.78 -90.6233C-216.216 -93.1762 -220.683 -95.7503 -225.242 -98.3984C-254.97 -115.994 -284.872 -138.075 -319.343 -167.889C-357.904 -201.194 -405.823 -248.983 -439.225 -283.202C-474.247 -319.011 -506.345 -353.333 -537.362 -388.125C-573.96 -429.112 -626.728 -490.806 -670.252 -552.007C-684.911 -572.619 -696.837 -590.72 -706.772 -606.737C-705.706 -604.766 -704.606 -602.743 -703.461 -600.678L-703.245 -600.814L-701.064 -596.364L-701.021 -596.28C-688.796 -574.515 -672.351 -547.847 -648.22 -514.097C-604.665 -453.196 -551.631 -391.922 -514.818 -351.259C-479.829 -312.532 -443.86 -274.852 -404.85 -236.062C-355.377 -186.766 -315.636 -149.648 -286.739 -125.764C-253.394 -98.1285 -224.155 -77.2187 -197.366 -61.8417C-188.192 -56.6172 -179.94 -52.3298 -171.202 -47.7911C-161.225 -42.616 -150.913 -37.2594 -139.153 -30.3872C-118.924 -18.5607 -92.7678 -1.19314 -67.5115 15.8234C-49.0689 28.3887 -29.4681 42.1437 -8.74267 56.6836L-8.7339 56.6889L-7.09791 57.8395L-6.74072 58.0888C41.2538 91.771 90.8536 126.572 134.864 153.106C138.264 155.186 141.81 157.388 145.444 159.649L147.107 160.686C167.947 173.657 191.555 188.351 206.945 193.202C220.551 197.538 225.971 193.986 230.309 191.136C233.858 188.73 236.99 185.893 240.302 182.892L240.411 182.796C250.263 173.855 261.441 163.718 286.546 164.094C320.008 164.93 378.018 177.333 427.615 194.268C446.433 200.895 464.551 208.614 482.075 216.085L488.196 218.691L494.033 221.167C512.679 229.05 528.778 235.867 544.973 245.67C552.053 249.939 559.165 254.675 566.043 259.257L566.063 259.272C584.288 271.399 603.13 283.934 623.089 288.987C641.104 293.621 660.952 291.204 671.366 283.112C676.196 279.358 678.997 274.551 679.707 268.804C681.199 257.487 677.074 244.536 673.429 233.102L673.411 233.045L673.229 232.472C671.368 226.637 669.357 220.712 667.406 214.98C664.466 206.345 661.428 197.419 658.827 188.514C653.075 168.826 650.082 152.281 649.396 136.446C649.185 131.509 649.174 126.533 649.17 121.723L649.168 120.987C649.158 116.291 649.148 111.45 648.932 106.636C648.578 98.8562 648.788 92.9145 649.602 87.366C651.676 73.5445 659.342 61.5633 671.212 53.6293C678.67 48.6368 687.548 45.4757 696.714 44.3768L696.68 46.5376C675.446 49.2441 655.089 63.5175 651.465 87.7169C650.671 93.1102 650.467 98.9172 650.815 106.542C651.046 111.656 651.054 116.777 651.06 121.732C651.034 126.609 651.108 131.482 651.284 136.352C651.955 151.989 654.924 168.353 660.626 187.853C663.206 196.685 666.225 205.559 669.143 214.147L669.17 214.225C671.126 219.968 673.145 225.903 675.01 231.759L675.193 232.332L675.216 232.405C678.935 244.068 683.146 257.279 681.575 269.113C680.792 275.46 677.717 280.766 672.435 284.87C664.228 291.25 652.366 293.649 640.777 293.465C634.438 293.365 628.183 292.489 622.664 291.069C602.405 285.949 583.424 273.318 565.069 261.097L564.906 260.99L564.905 260.985C558.095 256.456 551.057 251.774 544.069 247.563C528.008 237.84 511.984 231.055 493.438 223.2L493.36 223.167C492.119 222.645 490.872 222.118 489.614 221.585C488.917 221.288 488.217 220.992 487.513 220.696L481.393 218.091C463.899 210.63 445.803 202.922 427.048 196.317C377.602 179.441 319.804 167.067 286.503 166.245C262.097 165.884 251.678 175.329 241.604 184.458L241.593 184.468C238.191 187.555 234.984 190.464 231.27 192.986C225.544 196.741 219.721 199.505 206.426 195.273C190.834 190.356 167.134 175.603 146.218 162.584L146.19 162.568L144.919 161.776C141.148 159.43 137.474 157.149 133.964 154.999C89.7907 128.369 40.0235 93.4412 -8.10327 59.6636C-29.4281 44.6892 -49.5713 30.5525 -68.4902 17.6583C-93.7157 0.668196 -119.845 -16.6888 -140.034 -28.4783C-151.631 -35.265 -161.833 -40.568 -171.69 -45.6841L-171.995 -45.8444C-180.751 -50.3886 -189.021 -54.6815 -198.225 -59.9376C-225.112 -75.368 -254.43 -96.3309 -287.859 -124.035C-316.809 -147.972 -356.589 -185.121 -406.106 -234.459C-445.138 -273.276 -481.129 -310.977 -516.149 -349.725C-552.997 -390.441 -606.083 -451.767 -649.695 -512.757C-664.408 -533.328 -676.265 -551.278 -686.064 -567.101C-684.734 -564.655 -683.395 -562.213 -682.047 -559.781L-682.927 -561.366L-684.413 -560.462C-684.08 -559.762 -683.744 -559.057 -683.394 -558.341L-683.213 -557.96C-691.078 -572.037 -697.069 -583.965 -702.218 -594.418C-697.014 -585.187 -691.634 -576.089 -686.082 -567.133L-686.112 -567.19C-691.651 -576.125 -697.023 -585.203 -702.214 -594.418C-711.234 -610.436 -717.965 -623.806 -723.756 -635.383L-723.773 -635.409C-733.294 -652.255 -740.441 -666.321 -746.603 -678.453L-746.49 -678.524C-756.289 -695.754 -763.82 -710.406 -770.624 -723.639L-770.633 -723.654L-770.637 -723.664L-770.641 -723.676L-770.65 -723.693L-770.654 -723.701L-770.702 -723.792L-770.351 -724.02C-765.408 -715.402 -760.34 -706.88 -755.154 -698.46C-741.208 -672.506 -722.511 -640.5 -691.641 -596.743C-648.495 -535.605 -596.389 -473.797 -560.278 -432.71C-529.612 -397.757 -497.93 -363.291 -463.428 -327.319C-430.4 -292.832 -383.239 -244.847 -346.086 -212.083C-312.677 -182.576 -283.453 -160.454 -254.11 -142.455L-244.226 -136.514C-209.701 -115.785 -177.093 -96.206 -121.883 -55.2985C-104.638 -42.5241 -86.5606 -28.8554 -67.4347 -14.3926L-67.4039 -14.3662L-67.3907 -14.3608L-67.0427 -14.0962C-17.6307 23.2728 33.4644 61.9124 79.0973 91.8462C82.3183 93.9756 85.5304 96.11 88.7381 98.2391L90.3177 99.2905L91.1208 99.8214L91.1207 99.8267C105.421 109.32 120.17 119.122 134.25 127.622C143.988 133.508 151.896 137.562 158.416 140.013C172.746 145.371 178.78 142.44 183.615 140.09C187.831 137.96 191.565 135.292 195.519 132.473L195.569 132.438C206.117 124.903 218.072 116.374 242.171 117.46C278.883 119.482 338.736 135.47 381.77 150.43C400.546 157.149 418.829 164.887 436.505 172.371C440.393 174.018 444.264 175.655 448.109 177.271L453.955 179.711L453.965 179.717C473.498 187.883 490.368 194.93 507.566 205.06C514.66 209.225 521.8 213.827 528.702 218.279L528.846 218.37L528.886 218.396C547.26 230.235 566.252 242.477 586.183 247.706C605.026 252.747 625.568 250.667 636.15 242.64C640.731 239.172 643.423 234.711 644.154 229.379C645.655 219.052 642.152 207.651 638.76 196.624L638.591 196.062C636.945 190.702 635.159 185.253 633.428 179.98L633.316 179.636C630.48 170.977 627.552 162.032 625.132 153.104C619.655 132.928 617.173 115.08 617.524 98.541C617.579 95.6135 617.597 92.6802 617.616 89.5862L617.616 89.581L617.619 89.1768C617.693 76.2981 617.77 62.984 620.725 50.6432C624.806 33.9458 636.581 24.6885 645.735 19.8576C657.398 13.7137 671.821 11.169 685.304 12.8906C689.37 13.4162 693.322 14.2095 697.176 15.2035ZM696.331 68.5757L696.296 70.809C692.169 72.3764 688.245 74.4133 684.696 76.928C673.946 84.5325 667.022 95.7895 665.192 108.599C663.475 120.788 664.348 133.786 665.192 146.363L665.192 146.368C665.423 149.792 665.662 153.336 665.831 156.734C666.698 173.753 670.298 191.997 677.157 214.144C679.194 220.666 681.779 227.46 684.519 234.646C687.657 242.885 690.829 251.233 693.311 259.492L693.206 266.078C690.633 255.993 686.699 245.637 682.825 235.464L682.693 235.114C679.994 228.023 677.441 221.317 675.42 214.837C668.497 192.492 664.865 174.071 663.987 156.86C663.818 153.473 663.595 150.1 663.348 146.525C662.497 133.834 661.617 120.702 663.374 108.275C665.285 94.8601 672.511 83.1052 683.721 75.1659C687.621 72.4132 691.869 70.2207 696.331 68.5757ZM692.72 296.853L692.666 300.221C691.372 301.823 689.924 303.246 688.35 304.465C680.116 310.902 668.258 313.326 656.757 313.145C650.642 313.048 644.618 312.216 639.298 310.847C618.964 305.72 599.966 292.752 581.594 280.214L581.58 280.204C574.386 275.29 566.945 270.212 559.548 265.69C544.813 256.656 529.277 249.983 512.825 242.922L507.024 240.426L501.294 237.951C484.024 230.473 466.164 222.748 447.555 216.187C397.244 199.012 338.463 187.094 304.626 187.181C280.858 187.551 270.964 197.558 261.4 207.234L261.38 207.255L261.271 207.367C258.529 210.138 255.931 212.761 253.021 215.14C248.65 218.611 243.211 222.931 229.6 219.321C223.535 217.701 215.838 214.449 206.729 209.65C193.5 202.687 179.385 194.259 165.732 186.108L165.62 186.039C161.614 183.643 157.603 181.247 153.614 178.888C111.633 154.299 64.6931 122.463 19.2968 91.6723C-3.56238 76.1657 -25.1467 61.5241 -45.2787 48.3671C-68.4584 33.3945 -94.8639 16.5879 -114.922 5.52084C-125.428 -0.284559 -134.847 -4.93766 -143.947 -9.43543L-144.385 -9.64964L-144.597 -9.75668C-153.915 -14.3512 -162.732 -18.7045 -172.681 -24.2109C-199.818 -39.3031 -229.734 -60.2444 -264.148 -88.2228C-293.581 -112.1 -335.323 -150.38 -384.852 -198.925C-424.43 -237.642 -460.859 -275.241 -496.228 -313.896C-533.523 -354.566 -587.198 -415.886 -631.12 -477.016C-647.099 -499.276 -659.616 -518.34 -669.712 -534.889C-673.942 -543.104 -678.051 -551.41 -682.038 -559.792C-670.124 -538.404 -653.893 -512.046 -629.681 -478.325C-585.825 -417.269 -532.203 -356.018 -494.943 -315.384C-459.596 -276.76 -423.188 -239.182 -383.637 -200.492C-334.143 -151.988 -292.454 -113.746 -263.056 -89.9107C-228.721 -61.9905 -198.889 -41.1076 -171.853 -26.0688C-162.05 -20.6425 -153.321 -16.3321 -144.128 -11.7914L-144.124 -11.7913L-144.124 -11.7862L-143.633 -11.5452C-134.373 -6.9827 -124.804 -2.25979 -114.099 3.65762C-93.9922 14.7565 -67.5601 31.574 -44.3451 46.5679C-24.1956 59.7407 -2.59798 74.3877 20.2656 89.8944L20.5788 90.1066C65.8517 120.807 112.645 152.547 154.482 177.046C157.753 178.984 161.027 180.938 164.302 182.892L166.496 184.202L166.723 184.335C180.322 192.46 194.373 200.845 207.521 207.766C216.524 212.505 224.102 215.709 230.038 217.296C242.843 220.696 247.692 216.839 251.96 213.445C254.808 211.116 257.387 208.508 260.117 205.752L260.119 205.747L260.161 205.706L260.167 205.701C269.531 196.224 280.149 185.482 304.627 185.097C338.63 184.982 397.638 196.961 448.113 214.2C466.776 220.777 484.645 228.508 501.923 235.986L501.971 236.008L507.706 238.482L513.503 240.984C530.012 248.066 545.609 254.761 560.446 263.864C567.723 268.312 575.021 273.289 582.089 278.107L582.554 278.426C600.802 290.889 619.672 303.767 639.722 308.822C657.383 313.351 676.955 310.857 687.316 302.759C689.546 301.011 691.347 299.039 692.72 296.853ZM692.182 330.83L692.149 332.892C686.493 334.482 680.37 335.131 674.352 335.036C668.433 334.943 662.618 334.135 657.489 332.821C637.496 327.772 619.002 314.817 601.125 302.282C594.793 297.848 588.24 293.261 581.756 289.116C565.389 278.631 548.772 271.319 529.528 262.856L524.933 260.83L524.715 260.733C506.177 252.567 487.014 244.121 466.85 237.167C418.933 221.145 361.698 210.164 327.665 210.454C302.76 210.947 293.044 221.724 283.654 232.144C281.29 234.765 279.057 237.238 276.577 239.563L276.247 239.868L276.238 239.879C271.956 243.786 267.099 248.224 254.599 245.6C248.231 244.256 239.803 240.919 229.555 235.683C215.437 228.468 200.411 219.797 185.871 211.409L185.641 211.276L183.738 210.178C180.851 208.515 177.965 206.847 175.081 205.2C135.364 182.642 91.2564 153.805 48.5965 125.909C24.1267 109.905 1.00726 94.7934 -20.3878 81.435C-43.1499 67.4019 -66.7898 53.0596 -85.4984 43.2111C-96.0441 37.6436 -105.524 33.2123 -114.668 28.9367L-114.673 28.9366L-114.677 28.9366L-115.306 28.6416C-124.959 24.1455 -134.935 19.4939 -145.855 13.6509C-172.987 -0.943721 -204.441 -22.438 -239.353 -50.2429C-266.759 -72.0308 -304.388 -105.637 -351.195 -150.143C-390.484 -187.378 -428.828 -225.94 -466.181 -265.772C-506.85 -309.062 -565.122 -374.239 -611.757 -438.889C-630.413 -464.762 -644.204 -486.159 -654.864 -504.235C-658.528 -510.455 -661.825 -516.266 -664.819 -521.745C-672.519 -535.82 -678.254 -547.624 -683.191 -557.928C-678.838 -550.137 -674.345 -542.452 -669.721 -534.879L-669.717 -534.868C-657.689 -511.665 -640.311 -481.696 -610.359 -440.162C-563.794 -375.601 -505.579 -310.483 -464.945 -267.235C-427.619 -227.424 -389.3 -188.894 -350.038 -151.685C-303.266 -107.216 -265.677 -73.6411 -238.319 -51.8955C-203.486 -24.1488 -172.12 -2.70783 -145.082 11.8283C-134.206 17.6499 -124.69 22.0868 -114.616 26.7814L-114.404 26.8781C-105.101 31.2235 -95.4874 35.7087 -84.7293 41.3781C-65.981 51.2479 -42.3102 65.6115 -19.5172 79.6658C1.90439 93.035 25.0284 108.152 49.5114 124.161C92.1405 152.036 136.226 180.862 175.903 203.388L186.463 209.469L187.043 209.805C201.461 218.119 216.341 226.704 230.302 233.834C240.422 239.006 248.716 242.294 254.938 243.61C266.629 246.06 270.95 242.112 275.121 238.296L275.447 238C277.838 235.758 280.03 233.33 282.349 230.755L282.397 230.704L282.414 230.683C291.609 220.494 302.031 208.945 327.648 208.433C361.845 208.145 419.299 219.161 467.371 235.232C487.665 242.229 506.908 250.712 525.524 258.916L525.591 258.948L530.187 260.97L530.255 261.002C549.531 269.481 566.187 276.809 582.64 287.352C588.951 291.381 595.294 295.825 601.45 300.131L602.071 300.565C619.824 313.011 638.186 325.876 657.886 330.847C668.157 333.487 681.167 334.035 692.182 330.83ZM691.791 355.526L691.761 357.454C685.696 357.347 679.664 356.469 673.772 354.826C654.55 349.422 636.796 336.588 619.627 324.177L619.594 324.156C613.044 319.419 606.268 314.522 599.53 310.124C584.151 300.059 568.421 292.994 550.203 284.818L546.684 283.233L546.616 283.201C528.601 275.1 509.972 266.719 490.238 259.845C442.944 243.874 383.531 233.003 348.975 233.996C324.304 235.005 315.069 246.293 306.136 257.212L306.096 257.258C303.691 260.2 301.42 262.979 298.846 265.566L298.84 265.571C294.838 269.478 289.859 274.339 276.687 271.513C271.51 270.394 264.949 268.01 257.181 264.404C243.295 257.97 227.836 249.334 212.874 240.98L212.735 240.9L211.198 240.042L211.187 240.036C207.599 238.036 204.035 236.046 200.51 234.099C162.081 213.121 119.336 186.229 77.9843 160.214L77.9093 160.166L77.8077 160.102L77.8032 160.102L77.7944 160.097L77.7901 160.092C52.4235 144.131 28.4651 129.058 6.39806 115.901C-15.5479 102.98 -40.6123 88.4905 -60.0749 78.9567C-69.5384 74.3185 -78.2125 70.5116 -86.6034 66.8336L-86.63 66.8228L-86.9089 66.6992C-96.4642 62.5 -106.347 58.1609 -117.161 52.6616C-192.07 14.8529 -318.57 -93.0075 -447.29 -228.803C-525.567 -311.001 -572.675 -372.233 -593.798 -401.416C-615.308 -431.144 -630.045 -454.51 -641.415 -474.758C-643.37 -478.241 -645.229 -481.64 -647.005 -484.954C-653.977 -498.001 -659.67 -509.872 -665.125 -521.574L-664.823 -521.75C-661.829 -516.276 -658.537 -510.455 -654.868 -504.24C-641.658 -477.39 -624.645 -447.173 -592.449 -402.659C-543.315 -334.761 -479.668 -265.493 -446.095 -230.246C-317.511 -94.5819 -191.195 13.1304 -116.446 50.8641C-105.597 56.3795 -96.1166 60.5411 -86.0832 64.95L-85.9946 64.9877C-77.5816 68.6764 -68.8854 72.4991 -59.3819 77.1536C-39.8663 86.7141 -14.771 101.22 7.21021 114.162C29.3303 127.351 53.3417 142.456 78.7568 158.448L78.9245 158.555C120.22 184.538 162.917 211.398 201.27 232.328C205.309 234.563 209.402 236.841 213.512 239.14L213.648 239.215C228.579 247.557 244.01 256.177 257.843 262.585C265.5 266.137 271.95 268.494 277.011 269.585C289.359 272.232 293.785 267.906 297.683 264.096L297.688 264.091C300.203 261.571 302.458 258.813 304.845 255.891C313.592 245.191 323.513 233.07 348.921 232.031C383.642 231.041 443.287 241.946 490.745 257.961C510.553 264.868 529.212 273.259 547.258 281.371L547.328 281.403L550.852 282.988C569.127 291.197 584.914 298.288 600.404 308.423C607.036 312.752 613.682 317.547 620.122 322.2L620.535 322.497C637.594 334.833 655.24 347.588 674.194 352.915C679.954 354.551 685.857 355.427 691.791 355.526ZM691.472 375.683L691.444 377.445L690.733 377.434C672.157 371.874 655.053 359.081 638.503 346.706L638.481 346.69C632.303 342.068 625.91 337.286 619.566 332.988C603.688 322.178 587.25 314.595 568.219 305.814L568.214 305.814L566.213 304.896C547.888 296.433 529.839 288.289 510.465 281.623C466.043 266.791 408.241 256.651 373.031 257.509C346.34 258.434 337.03 270.793 328.027 282.748L328.024 282.753L328.008 282.774C326.147 285.248 324.388 287.578 322.463 289.839L322.091 290.263C318.245 294.665 313.881 299.655 302.068 298.084C296.004 297.267 287.932 294.553 278.075 290.012C264.981 283.979 250.822 276.385 237.119 269.041L236.912 268.929L235.622 268.235L235.607 268.23L235.592 268.219C232.134 266.366 228.685 264.513 225.249 262.696C188.008 243.147 146.539 218.048 106.443 193.779C80.091 177.823 55.2007 162.761 32.3554 149.758C-4.32955 128.876 -30.2535 117.426 -55.3274 106.352C-66.2371 101.53 -77.5098 96.5468 -89.5295 90.8626C-120.074 76.1 -155.59 53.1938 -195.08 22.7716C-225.549 -0.661117 -265.26 -34.8549 -313.096 -78.8488C-354.583 -116.942 -392.84 -154.27 -430.077 -192.965C-464.03 -228.161 -528.342 -297.357 -577.679 -365.382C-602.376 -399.442 -618.141 -425.42 -629.787 -447.389C-617.209 -418.657 -601.193 -385.751 -562.381 -332.223C-510.33 -260.433 -441.474 -187.848 -405.06 -150.97C-370.508 -115.878 -335.169 -82.0333 -297.015 -47.5013C-246.787 -1.97671 -202.259 35.5068 -168.249 60.9081C-130.323 89.279 -96.0239 110.756 -66.3188 124.728C-51.9068 131.378 -38.742 136.821 -26.0111 142.081L-26.0068 142.086L-25.8208 142.162C-2.64492 151.744 21.3238 161.66 54.1856 179.295C79.0008 192.629 106.361 208.539 135.321 225.391C175.453 248.733 216.947 272.864 254.074 291.436C257.908 293.404 261.736 295.383 265.559 297.382L265.6 297.403C286.551 308.313 310.285 320.672 324.367 322.263C335.932 323.612 339.774 318.682 343.491 313.91L343.97 313.306C345.509 311.288 346.96 309.207 348.488 307.007L348.5 306.992C357.142 294.591 366.937 280.534 395.078 279.258C432.212 277.98 490.974 287.98 534.805 303.041C553.608 309.698 571.281 317.924 589.239 326.48C608.94 335.862 625.225 343.894 640.568 354.84C646.371 358.969 652.234 363.514 657.907 367.917L658.047 368.022C661.965 371.065 665.914 374.128 669.905 377.104L666.863 377.056C663.586 374.578 660.337 372.06 657.109 369.552C651.414 365.129 645.52 360.558 639.696 356.412C624.455 345.546 608.227 337.535 588.601 328.185C570.679 319.656 553.05 311.441 534.317 304.816C490.642 289.805 432.107 279.839 395.138 281.11C367.76 282.356 358.622 295.47 349.79 308.153L349.653 308.348C348.218 310.403 346.739 312.52 345.213 314.523L344.735 315.137L344.726 315.147C340.914 320.032 336.596 325.561 324.204 324.111C309.864 322.49 286.053 310.088 265.011 299.13L264.872 299.06L263.666 298.435C260.142 296.596 256.7 294.805 253.396 293.126C216.272 274.548 174.794 250.428 134.677 227.102L134.568 227.038L133.952 226.681C105.224 209.977 78.0887 194.196 53.4813 180.973C20.6815 163.365 -3.24739 153.471 -26.3878 143.905L-26.7599 143.749L-26.7642 143.749C-39.4506 138.5 -52.5756 133.072 -66.9478 126.439C-96.759 112.413 -131.146 90.8831 -169.156 62.4486C-203.206 37.0157 -247.778 -0.504802 -298.045 -46.0611C-336.226 -80.6142 -371.595 -114.48 -406.16 -149.598C-442.614 -186.508 -511.54 -259.161 -563.657 -331.046C-603.721 -386.309 -619.574 -419.669 -632.373 -449.109L-631.068 -449.83C-637.655 -462.415 -642.92 -473.709 -647.788 -484.494L-647.005 -484.943C-645.23 -481.624 -643.371 -478.226 -641.415 -474.743C-628.599 -447.251 -611.593 -415.169 -576.368 -366.58C-527.096 -298.654 -462.844 -229.521 -428.927 -194.367C-391.716 -155.693 -353.476 -118.392 -312.025 -80.3246C-264.224 -36.3623 -224.553 -2.2002 -194.123 21.2059C-154.721 51.5594 -119.302 74.407 -88.8597 89.111C-76.8713 94.7947 -65.6074 99.7724 -54.7064 104.584L-54.6533 104.605C-29.5619 115.695 -3.60252 127.166 33.1178 148.065C55.9453 161.062 80.8004 176.103 107.113 192.032L107.122 192.038L107.245 192.112C147.323 216.371 188.766 241.454 225.972 260.982C229.11 262.648 232.266 264.341 235.425 266.029L235.427 266.035L235.438 266.04L235.443 266.04L237.644 267.22L237.742 267.274L237.745 267.274C251.454 274.633 265.63 282.243 278.718 288.265C288.429 292.737 296.354 295.417 302.267 296.205C313.23 297.664 317.11 293.248 320.858 288.974L320.881 288.948L321.244 288.529C323.13 286.315 324.878 283.994 326.727 281.541C335.54 269.837 345.529 256.571 372.985 255.616C408.356 254.756 466.375 264.931 510.953 279.812C530.403 286.5 548.491 294.664 566.852 303.139L568.852 304.062C587.947 312.869 604.44 320.48 620.434 331.369C626.813 335.694 633.22 340.486 639.411 345.119C655.944 357.483 673.033 370.26 691.472 375.683ZM657.894 376.914L654.923 376.867C641.415 367.21 627.341 360 610.545 351.685C592.42 342.707 574.53 334.068 554.933 327.114C510.917 311.972 450.475 302.458 414.338 304.986C388.221 307.149 379.572 320.566 371.209 333.541L371.204 333.546C369.787 335.753 368.324 338.026 366.801 340.178L366.573 340.486L366.563 340.501C362.805 345.682 358.548 351.554 345.909 350.23C341.044 349.717 334.891 348.034 327.619 345.224C312.978 339.581 295.913 330.966 279.41 322.635L277.224 321.533C273.822 319.815 270.453 318.114 267.147 316.47C233.933 300.157 197.303 279.633 161.879 259.786L161.673 259.669C132.451 243.295 104.856 227.832 79.766 214.991C47.2589 198.331 23.2091 189.036 -0.0474673 180.048C-13.4041 174.887 -27.2127 169.548 -42.3915 162.896C-71.5187 149.877 -105.8 129.245 -144.29 101.575C-190.823 68.2271 -246.244 20.3501 -284.545 -13.9406C-323.484 -48.7286 -359.049 -82.3593 -393.269 -116.746C-430 -153.547 -499.394 -226.005 -551.422 -297.836C-591.677 -353.403 -607.327 -387.532 -618.834 -415.169L-617.391 -415.934C-605.922 -388.396 -590.329 -354.372 -550.186 -298.967C-498.233 -227.23 -428.905 -154.846 -392.209 -118.077C-358.011 -83.7164 -322.473 -50.1068 -283.56 -15.34C-245.29 18.9295 -189.913 66.7643 -143.437 100.075C-105.03 127.676 -70.8332 148.26 -41.8079 161.236C-26.8017 167.813 -13.1172 173.104 0.115247 178.221L0.474154 178.362L0.48292 178.367C23.7794 187.366 47.8647 196.672 80.4337 213.369C105.551 226.226 133.154 241.694 162.384 258.074L162.807 258.308C198.155 278.112 234.677 298.567 267.793 314.837C271.021 316.443 274.3 318.102 277.615 319.771L280.063 321.007C296.531 329.328 313.561 337.921 328.141 343.537C335.289 346.299 341.322 347.954 346.058 348.454C357.854 349.677 361.66 344.435 365.329 339.367L365.548 339.06C366.965 337.061 368.29 335.009 369.684 332.854L369.686 332.849L369.905 332.51L369.908 332.505C378.085 319.811 387.351 305.43 414.224 303.201C450.535 300.666 511.221 310.215 555.397 325.411C575.083 332.398 593.012 341.052 611.181 350.052C628.921 358.833 643.637 366.395 657.894 376.914ZM637.967 376.599L634.178 376.539C632.575 375.705 630.948 374.865 629.292 374.01C613.557 365.893 595.093 356.629 575.231 349.535C532.454 334.698 472.552 325.712 435.9 328.625C409.353 331.061 400.832 345.014 392.595 358.499L392.589 358.51L392.338 358.92C390.915 361.246 389.45 363.643 387.916 365.889L387.815 366.038C386.251 368.278 384.595 370.641 382.255 372.553L379.424 372.508C382.671 370.616 384.663 367.765 386.615 364.972L386.715 364.838C388.304 362.495 389.778 360.087 391.334 357.536C399.39 344.343 408.512 329.405 435.807 326.903C472.633 323.971 532.775 332.998 575.716 347.879C595.667 355.011 614.18 364.296 629.959 372.44C632.701 373.851 635.367 375.236 637.967 376.599ZM355.699 372.133L349.932 372.041C336.441 367.288 320.339 359.409 305.524 352.156C301.533 350.201 297.649 348.3 293.945 346.531C260.756 330.975 224.062 311.238 188.575 292.141L188.246 291.965C156.404 274.834 126.332 258.659 99.2774 245.672C69.4966 231.414 46.7751 223.27 24.7939 215.396L24.7894 215.396C11.0367 210.472 -3.18587 205.38 -18.9151 198.849C-49.7142 185.824 -86.4509 164.272 -128.1 134.796C-162.67 110.391 -207.148 74.5668 -260.285 28.3172C-303.669 -9.36588 -343.479 -46.3187 -382.002 -84.6298C-419.051 -121.368 -488.963 -193.741 -540.94 -265.634C-581.408 -321.598 -596.324 -355.348 -607.128 -382.579L-605.717 -383.293C-594.956 -356.155 -580.092 -322.536 -539.737 -266.734C-487.829 -194.936 -417.988 -122.636 -380.973 -85.9301C-342.477 -47.6401 -302.689 -10.7135 -259.332 26.9485C-206.23 73.1612 -161.804 108.948 -127.27 133.326C-85.7046 162.75 -49.0649 184.243 -18.3677 197.225C-2.67841 203.74 11.5309 208.827 25.2703 213.745L25.2748 213.745L25.3236 213.761C47.3181 221.64 70.0707 229.791 99.8956 244.075C127.074 257.121 157.278 273.371 189.255 290.577C224.724 309.662 261.405 329.399 294.563 344.929C298.271 346.713 302.165 348.615 306.156 350.57L306.259 350.618C323.026 358.819 341.436 367.823 355.699 372.133ZM417.894 373.117C425.178 362.446 435.558 352.737 456.981 350.572C494.285 347.265 553.873 355.816 595.592 370.471C600.498 372.248 605.294 374.154 609.984 376.156L605.504 376.085C602.101 374.689 598.644 373.349 595.13 372.08C553.575 357.48 494.232 348.959 457.093 352.258C436.795 354.306 426.874 362.976 419.741 373.146L417.894 373.117ZM309.248 371.398L313.383 371.463C282.366 357.372 248.162 339.67 215.077 322.55L214.49 322.245C182.22 305.553 151.745 289.791 124.232 277.254C94.7857 263.83 72.1161 256.345 50.1874 249.104C34.69 243.987 18.6691 238.695 0.527003 231.375C-31.0969 218.347 -70.234 195.772 -112.656 166.081C-145.571 143.087 -186.112 111.155 -236.608 68.4511C-284.227 28.2286 -328.315 -11.9483 -371.383 -54.3845C-434.929 -116.799 -493.122 -182.757 -531.036 -235.353C-571.671 -291.709 -585.804 -325.011 -595.867 -351.811L-597.246 -351.148C-587.145 -324.249 -572.956 -290.806 -532.194 -234.288C-494.237 -181.624 -435.978 -115.587 -372.366 -53.1095C-329.272 -10.647 -285.162 29.5511 -237.512 69.7999C-186.981 112.53 -146.4 144.499 -113.45 167.52C-70.9443 197.269 -31.7055 219.898 0.0113954 232.963C18.1934 240.3 34.2408 245.602 49.7604 250.725L49.8713 250.763C71.7246 257.981 94.3321 265.445 123.663 278.815C151.312 291.417 181.977 307.286 214.437 324.084C246.275 340.557 279.152 357.575 309.248 371.398ZM478.941 374.083C493.405 372.834 510.443 373.182 528.219 374.862L478.941 374.083ZM273.704 370.835C262.622 365.399 251.5 359.874 240.506 354.408L240.416 354.365C205.795 337.159 173.099 320.911 143.771 308.428C116.109 296.665 94.2504 290.048 73.102 283.649C56.8079 278.721 39.9548 273.619 20.7171 266.219C-11.5013 253.57 -50.8891 231.624 -93.2038 202.758C-169.903 150.741 -267.522 69.491 -354.325 -14.5834C-392.819 -51.6397 -465.42 -124.771 -519.277 -198.253C-561.712 -256.151 -577.277 -291.637 -587.775 -321.346L-589.113 -320.745C-578.577 -290.906 -562.956 -255.289 -520.394 -197.219C-466.463 -123.642 -393.787 -50.437 -355.272 -13.3492C-268.412 70.783 -170.718 152.086 -93.9526 204.146C-51.5586 233.07 -12.0688 255.064 20.2426 267.751C39.4759 275.151 56.3068 280.242 72.5741 285.17L72.7249 285.213C93.8379 291.601 115.665 298.208 143.261 309.944C172.531 322.4 205.189 338.627 239.765 355.811L239.826 355.844C249.814 360.806 259.906 365.828 269.979 370.776L273.704 370.835ZM231.896 370.174L228.159 370.115C204.977 359.231 182.238 348.936 161.859 340.896C135.831 330.646 114.758 324.86 94.381 319.272L94.168 319.212C77.1875 314.553 59.6123 309.724 39.3623 302.334C7.18223 290.365 -31.4488 269.612 -75.4653 240.668C-115.86 214.181 -167.39 175.115 -224.468 127.704C-265.805 93.4172 -303.502 60.1105 -339.695 25.8842C-379.263 -11.412 -454.034 -85.2512 -510.227 -160.709C-556.723 -223.149 -572.948 -261.714 -582.683 -291.199L-581.382 -291.748C-571.681 -262.388 -555.524 -223.975 -509.163 -161.718C-453.031 -86.3497 -378.335 -12.5842 -338.806 24.6855C-302.627 58.896 -264.956 92.1815 -223.641 126.442C-166.594 173.827 -115.113 212.861 -74.7573 239.316C-31.4423 267.798 8.17009 289.08 39.8049 300.853C60.0814 308.254 77.6878 313.084 94.7127 317.753L94.7882 317.775L94.7926 317.775C115.179 323.369 136.267 329.15 162.324 339.421C183.67 347.839 207.59 358.728 231.896 370.174ZM176.998 369.305L172.261 369.23C151.006 361.917 132.873 357.468 115.255 353.152L115.195 353.136C96.3217 348.504 76.7975 343.712 53.6812 335.437C20.4165 323.264 -21.0393 301.264 -66.198 271.799C-104.712 246.731 -152.164 211.445 -207.232 166.917C-253.06 129.905 -295.093 93.3633 -335.718 55.2107C-375.515 17.9471 -450.642 -55.8511 -506.655 -131.425C-553.439 -194.554 -568.93 -233.045 -577.914 -262.362L-576.64 -262.861C-567.694 -233.663 -552.263 -195.339 -505.623 -132.394C-449.68 -56.9087 -374.618 16.8159 -334.852 54.0479C-294.249 92.1794 -252.247 128.695 -206.445 165.686C-151.408 210.182 -103.996 245.447 -65.5175 270.493C-20.4426 299.9 20.9247 321.862 54.0963 334.002C77.1771 342.261 96.6835 347.048 115.546 351.674C134.377 356.29 153.799 361.055 176.998 369.305ZM68.5814 367.59L64.1863 367.52C30.9953 355.198 -8.85692 334.421 -51.7742 307.008C-138.179 252.136 -241.158 170.605 -334.308 83.3251C-374.156 46.1904 -449.292 -27.3747 -504.864 -102.874C-552.012 -166.932 -566.958 -206.663 -574.714 -234.111L-573.485 -234.558C-565.767 -207.225 -550.877 -167.665 -503.869 -103.802C-448.362 -28.3915 -373.291 45.1105 -333.483 82.2084C-240.386 169.435 -137.477 250.908 -51.1345 305.743C-6.54418 334.219 34.7041 355.521 68.5814 367.59ZM6.03392 366.6L3.09203 366.553C-9.81968 359.482 -23.2103 351.682 -36.9605 343.218C-79.7929 316.92 -131.818 279.831 -191.58 232.995C-238.118 196.573 -280.923 160.371 -322.428 122.334C-365.311 83.156 -445.952 5.54915 -504.196 -74.0979C-551.678 -139.01 -565.927 -178.84 -573.023 -206.287L-571.831 -206.683C-564.759 -179.365 -550.575 -139.708 -503.236 -74.9898C-445.053 4.56299 -364.487 82.1065 -321.635 121.248C-280.156 159.264 -237.378 195.445 -190.857 231.85C-131.135 278.66 -79.154 315.718 -36.357 341.994C-21.7723 350.974 -7.59486 359.201 6.03392 366.6ZM-42.7622 365.828L-45.2896 365.788C-130.432 312.024 -224.97 239.433 -312.998 160.118C-390.54 90.6453 -460.565 15.57 -505.115 -45.8544C-552.734 -111.469 -566.258 -151.38 -572.722 -178.818L-571.571 -179.167C-565.136 -151.86 -551.667 -112.12 -504.188 -46.7105C-459.685 14.6458 -389.726 89.6476 -312.246 159.062C-223.597 238.931 -128.354 311.98 -42.7622 365.828ZM-87.5913 365.119L-89.8378 365.083C-113.921 348.593 -139.719 330.065 -167.092 309.584C-219.591 270.341 -267.693 231.065 -314.15 189.498C-392.207 119.903 -462.486 44.5854 -506.965 -17.1593C-555.506 -84.5037 -568.322 -126.083 -573.734 -151.498L-572.628 -151.802C-567.232 -126.501 -554.471 -85.1041 -506.074 -17.964C-461.652 43.7124 -391.434 118.962 -313.438 188.493C-267.013 230.034 -218.933 269.295 -166.456 308.516C-138.47 329.458 -112.134 348.357 -87.5913 365.119ZM-132.87 364.402L-134.961 364.369C-195.894 320.831 -258.68 270.625 -317.548 218.003C-395.74 148.494 -465.943 73.1309 -510.161 11.2245C-558.876 -56.926 -571.019 -98.7382 -575.912 -124.264L-574.847 -124.527C-569.975 -99.1208 -557.882 -57.4909 -509.306 10.4554C-465.141 72.2936 -394.999 147.594 -316.864 217.039C-257.538 270.062 -194.242 320.64 -132.87 364.402ZM-176.598 363.71L-178.747 363.676C-223.16 330.46 -267.652 294.408 -310.695 256.616C-357.752 215.511 -446.074 133.641 -508.911 47.2147C-549.537 -8.63285 -571.854 -54.4622 -579.139 -96.9956L-578.12 -97.2178C-570.866 -54.8819 -548.613 -9.22467 -508.101 46.476C-445.33 132.813 -357.073 214.62 -310.052 255.698C-267.097 293.406 -221.854 329.957 -176.598 363.71ZM-220.438 363.017L-222.216 362.989C-250.148 341.218 -277.817 318.561 -304.692 295.397C-352.72 254.215 -443.06 171.924 -508.473 83.5289C-552.074 24.6385 -576.544 -25.4542 -583.273 -69.6063L-582.298 -69.7982C-575.597 -25.8435 -551.2 24.077 -507.713 82.8102C-442.356 171.127 -352.082 253.354 -304.09 294.51C-276.836 318.001 -248.767 340.965 -220.438 363.017ZM-263.97 362.328L-265.605 362.302C-280.691 350.044 -295.635 337.555 -310.384 324.882C-358.47 283.735 -448.864 201.469 -514.041 112.782C-557.876 53.1676 -582.119 2.53939 -588.147 -42.0007L-587.216 -42.1674C-581.212 2.18058 -557.038 52.6418 -513.313 112.11C-448.197 200.718 -357.869 282.92 -309.818 324.041C-294.721 337.014 -279.417 349.789 -263.97 362.328ZM-306.989 361.647L-308.491 361.623C-311.179 359.342 -313.858 357.05 -316.533 354.758C-364.659 313.652 -455.094 231.396 -520.07 142.391C-564.138 82.0573 -588.194 30.8568 -593.595 -14.1295L-592.714 -14.2711C-587.332 30.5231 -563.346 81.5619 -519.378 141.749C-454.463 230.675 -364.09 312.878 -315.994 353.963C-313.003 356.53 -309.998 359.091 -306.989 361.647ZM-349.099 360.981L-350.481 360.959C-403.085 314.003 -473.378 245.443 -526.376 172.379C-570.701 111.326 -594.595 59.5527 -599.445 14.0827L-598.614 13.9611C-593.788 59.2441 -569.944 110.871 -525.729 171.777C-472.486 245.178 -401.761 314.034 -349.099 360.981ZM-390.085 360.332L-391.2 360.315C-403.377 348.818 -415.197 337.29 -426.533 325.858C-469.028 283.017 -504.777 241.588 -532.787 202.749C-576.752 141.836 -601.22 87.9702 -605.51 42.649L-604.719 42.5475C-600.445 87.7026 -576.036 141.412 -532.171 202.193C-509.358 233.834 -464.35 290.285 -390.085 360.332ZM-429.129 359.715L-430.167 359.698C-430.913 358.95 -431.659 358.197 -432.401 357.45C-474.97 314.519 -510.766 272.965 -538.804 233.928C-583.224 172.158 -607.716 117.546 -611.599 71.6037L-610.858 71.5169C-606.99 117.298 -582.554 171.765 -538.225 233.408C-519 260.172 -484.042 304.543 -429.129 359.715ZM-466.054 359.13L-467.066 359.114C-497.272 326.647 -523.364 295.104 -544.878 265.018C-589.556 202.612 -613.998 147.409 -617.525 100.939L-616.838 100.872C-613.322 147.182 -588.926 202.244 -544.331 264.535C-528.994 285.981 -503.62 318.689 -466.054 359.13ZM-500.658 358.583L-501.563 358.569C-514.425 343.593 -526.893 328.21 -538.679 312.536C-566.854 275.099 -588.353 239.576 -602.577 206.947C-614.637 179.296 -621.538 153.624 -623.092 130.654L-622.458 130.596C-620.903 153.478 -614.027 179.067 -602.005 206.629C-587.799 239.201 -566.33 274.677 -538.19 312.072C-526.278 327.914 -513.669 343.455 -500.658 358.583ZM-532.271 358.083L-533.068 358.07C-536.656 353.488 -540.191 348.882 -543.666 344.245C-571.87 306.667 -593.388 270.937 -607.63 238.053C-619.786 209.981 -626.677 183.957 -628.12 160.703L-627.526 160.651C-623.586 224.439 -579.499 295.465 -543.213 343.817C-539.629 348.6 -535.977 353.359 -532.271 358.083ZM-560.58 357.635L-561.275 357.624C-594.512 310.145 -629.181 247.824 -632.42 191.039L-631.88 191.006C-628.646 247.786 -593.848 310.181 -560.58 357.635ZM-585.087 357.247L-585.685 357.238C-611.317 315.248 -633.417 266.706 -635.811 221.597L-635.324 221.558C-632.926 266.673 -610.76 315.252 -585.087 357.247ZM-605.431 356.925L-605.944 356.917C-623.353 322.967 -636.426 286.655 -638.138 252.301L-637.701 252.271C-635.984 286.626 -622.875 322.964 -605.431 356.925ZM-621.122 356.677L-621.527 356.67C-633.966 325.614 -638.385 301.147 -639.24 283.039L-638.852 283.015C-637.712 307.103 -631.006 332.144 -621.122 356.677ZM-631.512 356.512L-631.869 356.507C-636.483 339.594 -638.465 325.351 -638.985 313.712L-638.646 313.691C-638.126 325.33 -636.14 339.584 -631.512 356.512ZM-635.969 356.442L-636.259 356.437C-636.77 352.075 -637.084 347.997 -637.247 344.19L-636.961 344.179C-636.799 347.986 -636.484 352.075 -635.969 356.442ZM693.657 237.61C693.13 235.974 692.612 234.338 692.103 232.703C685.498 211.394 681.84 193.761 680.604 177.218C680.364 174.042 680.082 170.731 679.798 167.518L679.787 167.393C678.659 154.407 677.493 140.975 678.776 128.183C680.117 114.961 686.497 103.426 695.909 95.272L695.868 97.8889C687.456 105.639 681.786 116.273 680.56 128.403C679.29 141.024 680.452 154.389 681.585 167.313L681.637 167.91C681.9 170.936 682.17 174.039 682.394 177.039C683.616 193.364 687.224 210.789 693.748 231.863L693.657 237.61ZM694.746 168.755C694.205 161.257 694.003 153.748 694.689 146.43C694.802 145.204 694.96 143.993 695.157 142.799L694.746 168.755ZM-708.136 -609.278C-710.063 -612.869 -711.868 -616.313 -713.581 -619.626C-711.786 -616.167 -709.972 -612.712 -708.136 -609.278ZM-708.136 -609.278C-707.872 -608.781 -707.608 -608.285 -707.335 -607.783L-706.772 -606.737L-706.785 -606.748C-707.235 -607.589 -707.686 -608.431 -708.136 -609.278Z" fill="#C4C4C4"/>
<path fill-rule="evenodd" clip-rule="evenodd" d="M697.532 -7.32164L697.492 -4.76706C684.666 -11.086 671.158 -16.5398 656.07 -18.7792C642.472 -20.767 627.85 -18.9302 615.952 -13.7385C606.578 -9.64187 594.357 -1.51644 589.418 13.9442C586.095 24.5532 585.266 36.2485 584.465 47.5505L584.457 47.6593L584.439 47.913L584.439 47.9181C584.203 51.2678 583.96 54.7263 583.651 58.0334C582.113 74.3823 583.571 91.8153 588.118 111.329C590.427 121.234 593.482 131.198 596.437 140.833L596.452 140.88L596.512 141.078C597.765 145.166 599.057 149.385 600.273 153.535L600.713 155.04C603.869 165.762 607.123 176.848 605.405 187.073C604.528 192.62 601.615 197.224 596.748 200.759C589.09 206.308 577.884 208.37 566.606 208.192C558.485 208.063 550.333 206.768 543.449 204.783C522.954 198.975 503.471 186.595 484.622 174.619L484.538 174.566C477.052 169.809 469.309 164.892 461.599 160.437C444.742 150.67 427.541 143.406 409.332 135.711L409.179 135.647C405.84 134.241 402.447 132.803 398.993 131.329C394.143 129.256 389.259 127.147 384.335 125.017C367.937 117.931 350.976 110.604 333.749 104.034C288.648 87.3147 227.159 68.4136 189.847 65.5012C168.602 64.0766 157.233 70.2771 146.233 76.276C141.092 79.0817 136.243 81.7261 130.529 83.5379C123.72 85.5915 116.387 86.8904 101.543 80.2129C95.5225 77.495 88.2665 73.3789 79.3425 67.6089C64.1161 57.7586 47.9024 46.0683 32.2043 34.7541L32.2044 34.7488L32.2 34.7487L32.1956 34.7436L31.8915 34.5262C27.7478 31.5322 23.5949 28.5432 19.4553 25.5752C-28.3295 -8.40426 -81.854 -52.1461 -133.618 -94.4556C-151.946 -109.434 -169.254 -123.578 -185.9 -136.96C-211.429 -157.298 -240.479 -180.304 -262.23 -195.933C-277.62 -206.999 -290.321 -215.021 -302.584 -222.777L-302.588 -222.777L-302.787 -222.904L-304.023 -223.686L-304.036 -223.696L-304.041 -223.696C-310.503 -227.784 -316.675 -231.692 -323.262 -236.067C-353.449 -256.204 -381.791 -279.131 -415.173 -310.41C-440.892 -334.488 -476.694 -371.455 -521.578 -420.285C-555.228 -456.84 -586.109 -491.749 -615.981 -527C-667.236 -587.396 -710.496 -642.979 -744.561 -692.213C-759.674 -714.066 -772.038 -733.215 -782.468 -750.303C-784.46 -754.04 -786.668 -757.61 -788.877 -761.179C-791.311 -765.12 -793.75 -769.059 -795.895 -773.223L-796.065 -773.231C-807.494 -793.11 -816.266 -809.939 -824.128 -825.027L-824.267 -825.295L-823.424 -825.852L-823.424 -825.847C-819.74 -819.434 -815.794 -812.721 -811.536 -805.673L-811.566 -805.733L-811.531 -805.672C-812.289 -807.096 -813.038 -808.502 -813.774 -809.894L-814.757 -811.757L-816.034 -814.18C-816.83 -815.698 -817.652 -817.262 -818.466 -818.822L-819.5 -820.798L-820.366 -822.46C-817.436 -816.848 -814.488 -811.251 -811.518 -805.667C-796.311 -777.127 -776.309 -741.96 -742.902 -693.664C-708.881 -644.488 -665.664 -588.962 -614.462 -528.63C-583.652 -492.322 -552.197 -456.761 -520.111 -421.978C-475.267 -373.185 -439.5 -336.26 -413.82 -312.224C-380.53 -281.029 -352.268 -258.165 -322.182 -238.092C-315.198 -233.456 -308.664 -229.326 -301.747 -224.956L-301.689 -224.919L-301.685 -224.919C-289.347 -217.12 -276.584 -209.055 -261.089 -197.915C-239.306 -182.26 -210.222 -159.233 -184.675 -138.879C-167.197 -124.784 -149.765 -110.613 -132.379 -96.364L-132.26 -96.2637C-80.5582 -54.0123 -27.1086 -10.3286 20.5836 23.582C24.7278 26.5501 28.8804 29.5391 33.0241 32.5383L33.2093 32.6708C48.9249 44.0009 65.1696 55.7125 80.387 65.5626C89.2229 71.269 96.399 75.3528 102.323 78.0173C116.573 84.4314 123.543 83.2148 129.977 81.2589C135.498 79.5114 140.269 76.9125 145.324 74.1522C156.559 68.0273 168.181 61.691 189.987 63.1452C227.504 66.0763 289.188 85.0323 334.414 101.795C351.689 108.386 368.672 115.719 385.087 122.816C393.349 126.403 401.627 129.94 409.919 133.435L409.929 133.44C428.248 141.173 445.549 148.48 462.564 158.338C470.008 162.638 477.454 167.359 484.688 171.946L484.691 171.946L485.578 172.51C504.33 184.427 523.717 196.748 543.98 202.495C559.984 207.133 582.973 207.943 595.62 198.777C599.973 195.617 602.574 191.548 603.347 186.652C604.962 177.016 601.789 166.216 598.722 155.776L598.277 154.276C597.046 150.068 595.736 145.787 594.464 141.647L594.45 141.6C591.482 131.923 588.414 121.917 586.084 111.924C581.471 92.1293 579.99 74.4213 581.564 57.7878C581.867 54.5169 582.103 51.2346 582.352 47.7711L582.373 47.4708C583.18 35.9772 584.018 24.1005 587.446 13.1563C591.574 0.253594 601.168 -9.80521 615.207 -15.9375C627.419 -21.2694 642.416 -23.1573 656.352 -21.1123C671.387 -18.8841 684.812 -13.5456 697.532 -7.32164ZM697.366 3.17658L697.328 5.60169C688.617 2.15708 679.488 -0.506418 669.689 -1.70325C644.977 -4.68576 614.532 6.12639 606.735 31.9857C603.32 43.521 602.866 56.2383 602.427 68.5514L602.423 68.6499L602.419 68.769C602.298 72.2138 602.184 75.467 602.005 78.7191C601.102 94.9537 603.098 112.478 608.118 132.284C610.539 141.859 613.597 151.481 616.557 160.79L616.632 161.024L616.633 161.029C618.07 165.551 619.555 170.219 620.941 174.812L621.22 175.744C624.559 186.785 628.003 198.191 626.413 208.811C625.62 214.417 622.795 219.12 618.015 222.776C610.153 228.794 598.213 231.015 586.521 230.83C579.773 230.723 573.099 229.814 567.353 228.36C545.972 223.083 525.642 210.093 505.973 197.524L505.828 197.434L505.827 197.429L505.824 197.429C498.049 192.459 490.009 187.325 482.014 182.752C466.437 173.787 450.618 167.204 433.875 160.232L433.755 160.183C430.512 158.836 427.221 157.462 423.864 156.051C419.938 154.393 415.982 152.708 412.002 151.017L410.108 150.21C393.797 143.255 376.928 136.064 359.739 129.671C318.119 114.64 255.683 96.1641 216.698 93.588C194.421 92.3337 183.213 99.3504 172.38 106.135L172.373 106.14L172.347 106.155C167.534 109.168 162.987 112.014 157.591 114.09C151.102 116.475 144.05 118.095 129.333 111.787C123.266 109.178 115.783 105.094 107.076 99.6437C93.8671 91.3751 80.0006 81.8105 66.5751 72.5537L66.1341 72.2513C61.8119 69.2648 57.4763 66.2782 53.1404 63.3123C5.13262 30.7494 -48.7574 -11.5937 -100.881 -52.5508L-101.96 -53.3972C-120.716 -68.134 -138.464 -82.0722 -155.436 -95.1481C-213.801 -140.128 -247.69 -161.303 -283.566 -183.717L-286.793 -185.738C-318.47 -205.872 -348.324 -229.295 -383.61 -261.672C-417.253 -292.505 -461.282 -338.377 -492.3 -371.428C-526.427 -407.731 -557.717 -442.424 -587.975 -477.494C-639.903 -537.6 -683.666 -593.01 -718.044 -642.166C-732.868 -663.376 -744.974 -681.936 -755.15 -698.465C-760.17 -707.805 -764.577 -716.375 -768.708 -724.408L-768.73 -724.448L-768.738 -724.465L-768.751 -724.489L-768.756 -724.495L-768.756 -724.497L-768.76 -724.507L-768.764 -724.516L-768.773 -724.528L-768.976 -724.926L-768.981 -724.931L-770.35 -724.03C-781.067 -742.74 -789.288 -758.59 -796.669 -772.831L-796.069 -773.222C-791.635 -765.508 -787.105 -757.868 -782.481 -750.303L-782.481 -750.319L-782.472 -750.298C-767.908 -723.09 -748.567 -689.555 -716.434 -643.597C-682.1 -594.498 -638.385 -539.151 -586.501 -479.098C-556.264 -444.049 -524.992 -409.377 -490.891 -373.095C-459.896 -340.071 -415.901 -294.24 -382.311 -263.45C-347.122 -231.158 -317.347 -207.803 -285.785 -187.738L-282.562 -185.728L-282.492 -185.685C-246.607 -163.26 -212.683 -142.059 -154.269 -97.0473C-137.707 -84.2837 -120.413 -70.6948 -102.15 -56.3545L-102.141 -56.3492L-99.7014 -54.4292L-99.371 -54.17L-99.3667 -54.1647C-47.3702 -13.3236 6.36582 28.8926 54.2148 61.3493C58.5506 64.3205 62.8905 67.3123 67.2128 70.2936C80.7573 79.6405 94.7694 89.3057 108.089 97.6435C116.711 103.041 124.111 107.081 130.081 109.648C144.177 115.687 150.844 114.165 156.961 111.919C162.178 109.912 166.655 107.112 171.388 104.144L171.43 104.119C182.513 97.1884 193.974 90.0254 216.828 91.3044C256.009 93.8939 318.64 112.419 360.388 127.499C377.613 133.903 394.487 141.1 410.807 148.06L410.846 148.076L412.588 148.819C416.615 150.531 420.618 152.237 424.593 153.917C427.946 155.328 431.237 156.697 434.48 158.044L434.533 158.065C451.359 165.07 467.261 171.686 482.96 180.725C491.037 185.357 499.15 190.533 506.994 195.545C526.53 208.029 546.729 220.933 567.811 226.139C583.101 229.993 604.98 229.992 616.886 220.898C621.173 217.617 623.709 213.439 624.408 208.469C625.916 198.427 622.561 187.303 619.314 176.543L619.304 176.512L619.025 175.585C617.757 171.382 616.403 167.111 615.084 162.954L615.084 162.949L614.654 161.594C611.681 152.254 608.61 142.586 606.168 132.948C601.09 112.882 599.066 95.1081 599.983 78.6041C600.166 75.378 600.28 72.1301 600.4 68.7008L600.404 68.5919C600.843 56.0922 601.297 43.1677 604.816 31.2816C612.961 4.28233 644.435 -7.03704 669.917 -3.99049C679.662 -2.80488 688.725 -0.199526 697.366 3.17658ZM697.176 15.2035L697.14 17.4989C693.219 16.4729 689.206 15.6526 685.068 15.1207C671.955 13.4309 657.929 15.899 646.59 21.8771C637.814 26.5066 626.536 35.3518 622.66 51.218C619.772 63.2696 619.697 76.4334 619.625 89.1722L619.623 89.5454C619.603 92.6653 619.585 95.6142 619.525 98.5779C619.178 114.873 621.637 132.493 627.046 152.445C629.458 161.331 632.388 170.277 635.225 178.936L635.309 179.191C637.081 184.542 638.805 189.918 640.48 195.314L640.653 195.877L640.657 195.887C643.964 206.648 647.713 218.846 646.124 229.71C645.316 235.679 642.326 240.654 637.262 244.497C629.279 250.549 617.424 252.798 605.79 252.614C598.707 252.502 591.71 251.484 585.725 249.886C565.496 244.575 546.363 232.242 527.856 220.308L527.705 220.212C520.823 215.776 513.703 211.19 506.643 207.046C489.552 196.979 472.738 189.95 453.258 181.815L447.402 179.364C443.718 177.818 440.014 176.246 436.286 174.668L436.266 174.663L436.252 174.657L435.798 174.464C418.145 166.99 399.884 159.264 381.17 152.567C338.26 137.655 278.607 121.711 242.078 119.698C218.62 118.632 207.441 126.613 196.636 134.331C192.604 137.211 188.794 139.929 184.421 142.14C178.085 145.222 171.703 147.35 157.776 142.144C151.15 139.649 143.145 135.547 133.305 129.602C118.925 120.916 103.862 110.902 89.3019 101.218L88.2297 100.506L88.2076 100.491L88.1988 100.485C84.8323 98.25 81.4613 96.0094 78.0857 93.7842C32.4439 63.8503 -18.6158 25.2372 -68.0014 -12.1107L-68.1601 -12.2324C-87.4314 -26.8063 -105.632 -40.5703 -122.987 -53.419C-178.087 -94.2522 -210.65 -113.805 -245.118 -134.502L-245.171 -134.534L-255.064 -140.48C-284.509 -158.542 -313.825 -180.728 -347.322 -210.314C-384.523 -243.131 -431.738 -291.158 -464.783 -325.672C-499.311 -361.665 -531.01 -396.162 -561.699 -431.125C-597.849 -472.25 -650.003 -534.121 -693.202 -595.338C-707.78 -616 -719.649 -634.048 -729.587 -650.076C-727.513 -646.234 -725.306 -642.234 -722.652 -637.506L-722.622 -637.459C-719.662 -631.478 -716.649 -625.537 -713.581 -619.626C-716.899 -626.044 -719.864 -631.958 -722.617 -637.464C-709.997 -615.071 -693.162 -587.733 -668.733 -553.372C-625.261 -492.26 -572.55 -430.618 -535.982 -389.679C-504.987 -354.908 -472.906 -320.607 -437.906 -284.824C-404.526 -250.632 -356.651 -202.89 -318.143 -169.627C-283.765 -139.887 -253.955 -117.869 -224.333 -100.338C-220.012 -97.8284 -215.771 -95.3823 -211.564 -92.9626L-211.556 -92.9573L-211.547 -92.9519L-207.69 -90.7295C-175.395 -72.1556 -144.895 -54.6104 -94.8345 -19.0763C-76.7174 -6.23107 -57.5744 7.7136 -37.3337 22.4531L-35.8085 23.5658C10.8435 57.5584 59.0823 92.7061 102.373 120.177L112.41 126.618C128.97 137.267 146.096 148.277 162.026 157.33C171.367 162.64 178.917 166.201 185.127 168.201C198.136 172.388 203.394 169.273 208.474 166.264L208.634 166.163C212.242 163.96 215.47 161.342 218.885 158.572L218.907 158.556L218.912 158.551C228.802 150.539 240.007 141.465 263.242 141.703C301.693 142.581 363.802 158.631 408.303 174.138C425.879 180.464 442.936 187.685 459.441 194.668L459.444 194.668L459.559 194.717L466.831 197.796C468.891 198.664 470.925 199.515 472.94 200.355C473.845 200.732 474.747 201.109 475.645 201.486L475.662 201.492C493.077 208.765 509.526 215.633 525.485 225.065C532.981 229.485 540.497 234.388 547.756 239.137C566.176 251.173 585.222 263.618 605.32 268.814C623.751 273.671 643.979 271.41 654.509 263.31C659.217 259.689 661.952 255.057 662.664 249.512C664.167 238.496 660.141 225.827 656.586 214.653L656.233 213.549C654.628 208.485 652.904 203.327 651.23 198.345C648.399 189.883 645.475 181.13 642.978 172.414C637.038 151.629 634.187 134.231 634.013 117.668C633.971 113.63 634.099 109.553 634.223 105.621L634.228 105.476L634.23 105.388C634.381 100.612 634.538 95.6745 634.394 90.7587C634.217 84.7435 634.208 76.8599 635.703 69.1609C641.538 39.6786 671.558 26.403 696.961 28.816L696.926 31.0079C663.992 27.7812 641.782 48.4834 637.6 69.6159C636.153 77.0722 636.165 84.7847 636.33 90.6753C636.483 95.6949 636.323 100.699 636.166 105.538L636.153 105.973C636.032 109.796 635.907 113.738 635.948 117.626C636.127 133.966 638.944 151.156 644.825 171.728C647.305 180.397 650.221 189.125 653.044 197.561C654.717 202.552 656.441 207.716 658.055 212.8L658.403 213.905C662.039 225.323 666.15 238.268 664.576 249.827C663.788 255.993 660.764 261.134 655.587 265.115C647.48 271.347 635.472 273.66 623.816 273.476C617.103 273.369 610.515 272.436 604.858 270.947C584.476 265.675 565.302 253.15 546.759 241.028L546.616 240.933C539.414 236.232 531.97 231.372 524.554 227.004C508.714 217.642 492.332 210.795 474.991 203.554L474.944 203.533L473.264 202.833C470.915 201.852 468.534 200.861 466.121 199.843L458.844 196.763L458.502 196.618C442.097 189.677 425.134 182.505 407.699 176.222C346.459 154.884 289.856 144.503 263.186 143.884C240.603 143.651 230.142 152.126 220.034 160.31L220.02 160.321C216.543 163.142 213.259 165.801 209.531 168.085L209.356 168.186C204.193 171.25 198.329 174.728 184.564 170.302C178.238 168.258 170.573 164.649 161.13 159.28C145.161 150.206 128.034 139.196 111.466 128.541L111.422 128.515C108.076 126.363 104.73 124.211 101.393 122.079C58.1026 94.6031 9.89008 59.4818 -36.7444 25.505L-36.8853 25.3991L-37.0748 25.2613C-57.8003 10.1616 -77.3841 -4.11135 -95.8848 -17.227C-145.875 -52.7082 -176.335 -70.2321 -208.585 -88.7846L-211.78 -90.6233C-216.216 -93.1762 -220.683 -95.7503 -225.242 -98.3984C-254.97 -115.994 -284.872 -138.075 -319.343 -167.889C-357.904 -201.194 -405.823 -248.983 -439.225 -283.202C-474.247 -319.011 -506.345 -353.333 -537.362 -388.125C-573.96 -429.112 -626.728 -490.806 -670.252 -552.007C-684.911 -572.619 -696.837 -590.72 -706.772 -606.737C-705.706 -604.766 -704.606 -602.743 -703.461 -600.678L-703.245 -600.814L-701.064 -596.364L-701.021 -596.28C-688.796 -574.515 -672.351 -547.847 -648.22 -514.097C-604.665 -453.196 -551.631 -391.922 -514.818 -351.259C-479.829 -312.532 -443.86 -274.852 -404.85 -236.062C-355.377 -186.766 -315.636 -149.648 -286.739 -125.764C-253.394 -98.1285 -224.155 -77.2187 -197.366 -61.8417C-188.192 -56.6172 -179.94 -52.3298 -171.202 -47.7911C-161.225 -42.616 -150.913 -37.2594 -139.153 -30.3872C-118.924 -18.5607 -92.7678 -1.19314 -67.5115 15.8234C-49.0689 28.3887 -29.4681 42.1437 -8.74267 56.6836L-8.7339 56.6889L-7.09791 57.8395L-6.74072 58.0888C41.2538 91.771 90.8536 126.572 134.864 153.106C138.264 155.186 141.81 157.388 145.444 159.649L147.107 160.686C167.947 173.657 191.555 188.351 206.945 193.202C220.551 197.538 225.971 193.986 230.309 191.136C233.858 188.73 236.99 185.893 240.302 182.892L240.411 182.796C250.263 173.855 261.441 163.718 286.546 164.094C320.008 164.93 378.018 177.333 427.615 194.268C446.433 200.895 464.551 208.614 482.075 216.085L488.196 218.691L494.033 221.167C512.679 229.05 528.778 235.867 544.973 245.67C552.053 249.939 559.165 254.675 566.043 259.257L566.063 259.272C584.288 271.399 603.13 283.934 623.089 288.987C641.104 293.621 660.952 291.204 671.366 283.112C676.196 279.358 678.997 274.551 679.707 268.804C681.199 257.487 677.074 244.536 673.429 233.102L673.411 233.045L673.229 232.472C671.368 226.637 669.357 220.712 667.406 214.98C664.466 206.345 661.428 197.419 658.827 188.514C653.075 168.826 650.082 152.281 649.396 136.446C649.185 131.509 649.174 126.533 649.17 121.723L649.168 120.987C649.158 116.291 649.148 111.45 648.932 106.636C648.578 98.8562 648.788 92.9145 649.602 87.366C651.676 73.5445 659.342 61.5633 671.212 53.6293C678.67 48.6368 687.548 45.4757 696.714 44.3768L696.68 46.5376C675.446 49.2441 655.089 63.5175 651.465 87.7169C650.671 93.1102 650.467 98.9172 650.815 106.542C651.046 111.656 651.054 116.777 651.06 121.732C651.034 126.609 651.108 131.482 651.284 136.352C651.955 151.989 654.924 168.353 660.626 187.853C663.206 196.685 666.225 205.559 669.143 214.147L669.17 214.225C671.126 219.968 673.145 225.903 675.01 231.759L675.193 232.332L675.216 232.405C678.935 244.068 683.146 257.279 681.575 269.113C680.792 275.46 677.717 280.766 672.435 284.87C664.228 291.25 652.366 293.649 640.777 293.465C634.438 293.365 628.183 292.489 622.664 291.069C602.405 285.949 583.424 273.318 565.069 261.097L564.906 260.99L564.905 260.985C558.095 256.456 551.057 251.774 544.069 247.563C528.008 237.84 511.984 231.055 493.438 223.2L493.36 223.167C492.119 222.645 490.872 222.118 489.614 221.585C488.917 221.288 488.217 220.992 487.513 220.696L481.393 218.091C463.899 210.63 445.803 202.922 427.048 196.317C377.602 179.441 319.804 167.067 286.503 166.245C262.097 165.884 251.678 175.329 241.604 184.458L241.593 184.468C238.191 187.555 234.984 190.464 231.27 192.986C225.544 196.741 219.721 199.505 206.426 195.273C190.834 190.356 167.134 175.603 146.218 162.584L146.19 162.568L144.919 161.776C141.148 159.43 137.474 157.149 133.964 154.999C89.7907 128.369 40.0235 93.4412 -8.10327 59.6636C-29.4281 44.6892 -49.5713 30.5525 -68.4902 17.6583C-93.7157 0.668196 -119.845 -16.6888 -140.034 -28.4783C-151.631 -35.265 -161.833 -40.568 -171.69 -45.6841L-171.995 -45.8444C-180.751 -50.3886 -189.021 -54.6815 -198.225 -59.9376C-225.112 -75.368 -254.43 -96.3309 -287.859 -124.035C-316.809 -147.972 -356.589 -185.121 -406.106 -234.459C-445.138 -273.276 -481.129 -310.977 -516.149 -349.725C-552.997 -390.441 -606.083 -451.767 -649.695 -512.757C-664.408 -533.328 -676.265 -551.278 -686.064 -567.101C-684.734 -564.655 -683.395 -562.213 -682.047 -559.781L-682.927 -561.366L-684.413 -560.462C-684.08 -559.762 -683.744 -559.057 -683.394 -558.341L-683.213 -557.96C-691.078 -572.037 -697.069 -583.965 -702.218 -594.418C-697.014 -585.187 -691.634 -576.089 -686.082 -567.133L-686.112 -567.19C-691.651 -576.125 -697.023 -585.203 -702.214 -594.418C-711.234 -610.436 -717.965 -623.806 -723.756 -635.383L-723.773 -635.409C-733.294 -652.255 -740.441 -666.321 -746.603 -678.453L-746.49 -678.524C-756.289 -695.754 -763.82 -710.406 -770.624 -723.639L-770.633 -723.654L-770.637 -723.664L-770.641 -723.676L-770.65 -723.693L-770.654 -723.701L-770.702 -723.792L-770.351 -724.02C-765.408 -715.402 -760.34 -706.88 -755.154 -698.46C-741.208 -672.506 -722.511 -640.5 -691.641 -596.743C-648.495 -535.605 -596.389 -473.797 -560.278 -432.71C-529.612 -397.757 -497.93 -363.291 -463.428 -327.319C-430.4 -292.832 -383.239 -244.847 -346.086 -212.083C-312.677 -182.576 -283.453 -160.454 -254.11 -142.455L-244.226 -136.514C-209.701 -115.785 -177.093 -96.206 -121.883 -55.2985C-104.638 -42.5241 -86.5606 -28.8554 -67.4347 -14.3926L-67.4039 -14.3662L-67.3907 -14.3608L-67.0427 -14.0962C-17.6307 23.2728 33.4644 61.9124 79.0973 91.8462C82.3183 93.9756 85.5304 96.11 88.7381 98.2391L90.3177 99.2905L91.1208 99.8214L91.1207 99.8267C105.421 109.32 120.17 119.122 134.25 127.622C143.988 133.508 151.896 137.562 158.416 140.013C172.746 145.371 178.78 142.44 183.615 140.09C187.831 137.96 191.565 135.292 195.519 132.473L195.569 132.438C206.117 124.903 218.072 116.374 242.171 117.46C278.883 119.482 338.736 135.47 381.77 150.43C400.546 157.149 418.829 164.887 436.505 172.371C440.393 174.018 444.264 175.655 448.109 177.271L453.955 179.711L453.965 179.717C473.498 187.883 490.368 194.93 507.566 205.06C514.66 209.225 521.8 213.827 528.702 218.279L528.846 218.37L528.886 218.396C547.26 230.235 566.252 242.477 586.183 247.706C605.026 252.747 625.568 250.667 636.15 242.64C640.731 239.172 643.423 234.711 644.154 229.379C645.655 219.052 642.152 207.651 638.76 196.624L638.591 196.062C636.945 190.702 635.159 185.253 633.428 179.98L633.316 179.636C630.48 170.977 627.552 162.032 625.132 153.104C619.655 132.928 617.173 115.08 617.524 98.541C617.579 95.6135 617.597 92.6802 617.616 89.5862L617.616 89.581L617.619 89.1768C617.693 76.2981 617.77 62.984 620.725 50.6432C624.806 33.9458 636.581 24.6885 645.735 19.8576C657.398 13.7137 671.821 11.169 685.304 12.8906C689.37 13.4162 693.322 14.2095 697.176 15.2035ZM696.331 68.5757L696.296 70.809C692.169 72.3764 688.245 74.4133 684.696 76.928C673.946 84.5325 667.022 95.7895 665.192 108.599C663.475 120.788 664.348 133.786 665.192 146.363L665.192 146.368C665.423 149.792 665.662 153.336 665.831 156.734C666.698 173.753 670.298 191.997 677.157 214.144C679.194 220.666 681.779 227.46 684.519 234.646C687.657 242.885 690.829 251.233 693.311 259.492L693.206 266.078C690.633 255.993 686.699 245.637 682.825 235.464L682.693 235.114C679.994 228.023 677.441 221.317 675.42 214.837C668.497 192.492 664.865 174.071 663.987 156.86C663.818 153.473 663.595 150.1 663.348 146.525C662.497 133.834 661.617 120.702 663.374 108.275C665.285 94.8601 672.511 83.1052 683.721 75.1659C687.621 72.4132 691.869 70.2207 696.331 68.5757ZM692.72 296.853L692.666 300.221C691.372 301.823 689.924 303.246 688.35 304.465C680.116 310.902 668.258 313.326 656.757 313.145C650.642 313.048 644.618 312.216 639.298 310.847C618.964 305.72 599.966 292.752 581.594 280.214L581.58 280.204C574.386 275.29 566.945 270.212 559.548 265.69C544.813 256.656 529.277 249.983 512.825 242.922L507.024 240.426L501.294 237.951C484.024 230.473 466.164 222.748 447.555 216.187C397.244 199.012 338.463 187.094 304.626 187.181C280.858 187.551 270.964 197.558 261.4 207.234L261.38 207.255L261.271 207.367C258.529 210.138 255.931 212.761 253.021 215.14C248.65 218.611 243.211 222.931 229.6 219.321C223.535 217.701 215.838 214.449 206.729 209.65C193.5 202.687 179.385 194.259 165.732 186.108L165.62 186.039C161.614 183.643 157.603 181.247 153.614 178.888C111.633 154.299 64.6931 122.463 19.2968 91.6723C-3.56238 76.1657 -25.1467 61.5241 -45.2787 48.3671C-68.4584 33.3945 -94.8639 16.5879 -114.922 5.52084C-125.428 -0.284559 -134.847 -4.93766 -143.947 -9.43543L-144.385 -9.64964L-144.597 -9.75668C-153.915 -14.3512 -162.732 -18.7045 -172.681 -24.2109C-199.818 -39.3031 -229.734 -60.2444 -264.148 -88.2228C-293.581 -112.1 -335.323 -150.38 -384.852 -198.925C-424.43 -237.642 -460.859 -275.241 -496.228 -313.896C-533.523 -354.566 -587.198 -415.886 -631.12 -477.016C-647.099 -499.276 -659.616 -518.34 -669.712 -534.889C-673.942 -543.104 -678.051 -551.41 -682.038 -559.792C-670.124 -538.404 -653.893 -512.046 -629.681 -478.325C-585.825 -417.269 -532.203 -356.018 -494.943 -315.384C-459.596 -276.76 -423.188 -239.182 -383.637 -200.492C-334.143 -151.988 -292.454 -113.746 -263.056 -89.9107C-228.721 -61.9905 -198.889 -41.1076 -171.853 -26.0688C-162.05 -20.6425 -153.321 -16.3321 -144.128 -11.7914L-144.124 -11.7913L-144.124 -11.7862L-143.633 -11.5452C-134.373 -6.9827 -124.804 -2.25979 -114.099 3.65762C-93.9922 14.7565 -67.5601 31.574 -44.3451 46.5679C-24.1956 59.7407 -2.59798 74.3877 20.2656 89.8944L20.5788 90.1066C65.8517 120.807 112.645 152.547 154.482 177.046C157.753 178.984 161.027 180.938 164.302 182.892L166.496 184.202L166.723 184.335C180.322 192.46 194.373 200.845 207.521 207.766C216.524 212.505 224.102 215.709 230.038 217.296C242.843 220.696 247.692 216.839 251.96 213.445C254.808 211.116 257.387 208.508 260.117 205.752L260.119 205.747L260.161 205.706L260.167 205.701C269.531 196.224 280.149 185.482 304.627 185.097C338.63 184.982 397.638 196.961 448.113 214.2C466.776 220.777 484.645 228.508 501.923 235.986L501.971 236.008L507.706 238.482L513.503 240.984C530.012 248.066 545.609 254.761 560.446 263.864C567.723 268.312 575.021 273.289 582.089 278.107L582.554 278.426C600.802 290.889 619.672 303.767 639.722 308.822C657.383 313.351 676.955 310.857 687.316 302.759C689.546 301.011 691.347 299.039 692.72 296.853ZM692.182 330.83L692.149 332.892C686.493 334.482 680.37 335.131 674.352 335.036C668.433 334.943 662.618 334.135 657.489 332.821C637.496 327.772 619.002 314.817 601.125 302.282C594.793 297.848 588.24 293.261 581.756 289.116C565.389 278.631 548.772 271.319 529.528 262.856L524.933 260.83L524.715 260.733C506.177 252.567 487.014 244.121 466.85 237.167C418.933 221.145 361.698 210.164 327.665 210.454C302.76 210.947 293.044 221.724 283.654 232.144C281.29 234.765 279.057 237.238 276.577 239.563L276.247 239.868L276.238 239.879C271.956 243.786 267.099 248.224 254.599 245.6C248.231 244.256 239.803 240.919 229.555 235.683C215.437 228.468 200.411 219.797 185.871 211.409L185.641 211.276L183.738 210.178C180.851 208.515 177.965 206.847 175.081 205.2C135.364 182.642 91.2564 153.805 48.5965 125.909C24.1267 109.905 1.00726 94.7934 -20.3878 81.435C-43.1499 67.4019 -66.7898 53.0596 -85.4984 43.2111C-96.0441 37.6436 -105.524 33.2123 -114.668 28.9367L-114.673 28.9366L-114.677 28.9366L-115.306 28.6416C-124.959 24.1455 -134.935 19.4939 -145.855 13.6509C-172.987 -0.943721 -204.441 -22.438 -239.353 -50.2429C-266.759 -72.0308 -304.388 -105.637 -351.195 -150.143C-390.484 -187.378 -428.828 -225.94 -466.181 -265.772C-506.85 -309.062 -565.122 -374.239 -611.757 -438.889C-630.413 -464.762 -644.204 -486.159 -654.864 -504.235C-658.528 -510.455 -661.825 -516.266 -664.819 -521.745C-672.519 -535.82 -678.254 -547.624 -683.191 -557.928C-678.838 -550.137 -674.345 -542.452 -669.721 -534.879L-669.717 -534.868C-657.689 -511.665 -640.311 -481.696 -610.359 -440.162C-563.794 -375.601 -505.579 -310.483 -464.945 -267.235C-427.619 -227.424 -389.3 -188.894 -350.038 -151.685C-303.266 -107.216 -265.677 -73.6411 -238.319 -51.8955C-203.486 -24.1488 -172.12 -2.70783 -145.082 11.8283C-134.206 17.6499 -124.69 22.0868 -114.616 26.7814L-114.404 26.8781C-105.101 31.2235 -95.4874 35.7087 -84.7293 41.3781C-65.981 51.2479 -42.3102 65.6115 -19.5172 79.6658C1.90439 93.035 25.0284 108.152 49.5114 124.161C92.1405 152.036 136.226 180.862 175.903 203.388L186.463 209.469L187.043 209.805C201.461 218.119 216.341 226.704 230.302 233.834C240.422 239.006 248.716 242.294 254.938 243.61C266.629 246.06 270.95 242.112 275.121 238.296L275.447 238C277.838 235.758 280.03 233.33 282.349 230.755L282.397 230.704L282.414 230.683C291.609 220.494 302.031 208.945 327.648 208.433C361.845 208.145 419.299 219.161 467.371 235.232C487.665 242.229 506.908 250.712 525.524 258.916L525.591 258.948L530.187 260.97L530.255 261.002C549.531 269.481 566.187 276.809 582.64 287.352C588.951 291.381 595.294 295.825 601.45 300.131L602.071 300.565C619.824 313.011 638.186 325.876 657.886 330.847C668.157 333.487 681.167 334.035 692.182 330.83ZM691.791 355.526L691.761 357.454C685.696 357.347 679.664 356.469 673.772 354.826C654.55 349.422 636.796 336.588 619.627 324.177L619.594 324.156C613.044 319.419 606.268 314.522 599.53 310.124C584.151 300.059 568.421 292.994 550.203 284.818L546.684 283.233L546.616 283.201C528.601 275.1 509.972 266.719 490.238 259.845C442.944 243.874 383.531 233.003 348.975 233.996C324.304 235.005 315.069 246.293 306.136 257.212L306.096 257.258C303.691 260.2 301.42 262.979 298.846 265.566L298.84 265.571C294.838 269.478 289.859 274.339 276.687 271.513C271.51 270.394 264.949 268.01 257.181 264.404C243.295 257.97 227.836 249.334 212.874 240.98L212.735 240.9L211.198 240.042L211.187 240.036C207.599 238.036 204.035 236.046 200.51 234.099C162.081 213.121 119.336 186.229 77.9843 160.214L77.9093 160.166L77.8077 160.102L77.8032 160.102L77.7944 160.097L77.7901 160.092C52.4235 144.131 28.4651 129.058 6.39806 115.901C-15.5479 102.98 -40.6123 88.4905 -60.0749 78.9567C-69.5384 74.3185 -78.2125 70.5116 -86.6034 66.8336L-86.63 66.8228L-86.9089 66.6992C-96.4642 62.5 -106.347 58.1609 -117.161 52.6616C-192.07 14.8529 -318.57 -93.0075 -447.29 -228.803C-525.567 -311.001 -572.675 -372.233 -593.798 -401.416C-615.308 -431.144 -630.045 -454.51 -641.415 -474.758C-643.37 -478.241 -645.229 -481.64 -647.005 -484.954C-653.977 -498.001 -659.67 -509.872 -665.125 -521.574L-664.823 -521.75C-661.829 -516.276 -658.537 -510.455 -654.868 -504.24C-641.658 -477.39 -624.645 -447.173 -592.449 -402.659C-543.315 -334.761 -479.668 -265.493 -446.095 -230.246C-317.511 -94.5819 -191.195 13.1304 -116.446 50.8641C-105.597 56.3795 -96.1166 60.5411 -86.0832 64.95L-85.9946 64.9877C-77.5816 68.6764 -68.8854 72.4991 -59.3819 77.1536C-39.8663 86.7141 -14.771 101.22 7.21021 114.162C29.3303 127.351 53.3417 142.456 78.7568 158.448L78.9245 158.555C120.22 184.538 162.917 211.398 201.27 232.328C205.309 234.563 209.402 236.841 213.512 239.14L213.648 239.215C228.579 247.557 244.01 256.177 257.843 262.585C265.5 266.137 271.95 268.494 277.011 269.585C289.359 272.232 293.785 267.906 297.683 264.096L297.688 264.091C300.203 261.571 302.458 258.813 304.845 255.891C313.592 245.191 323.513 233.07 348.921 232.031C383.642 231.041 443.287 241.946 490.745 257.961C510.553 264.868 529.212 273.259 547.258 281.371L547.328 281.403L550.852 282.988C569.127 291.197 584.914 298.288 600.404 308.423C607.036 312.752 613.682 317.547 620.122 322.2L620.535 322.497C637.594 334.833 655.24 347.588 674.194 352.915C679.954 354.551 685.857 355.427 691.791 355.526ZM691.472 375.683L691.444 377.445L690.733 377.434C672.157 371.874 655.053 359.081 638.503 346.706L638.481 346.69C632.303 342.068 625.91 337.286 619.566 332.988C603.688 322.178 587.25 314.595 568.219 305.814L568.214 305.814L566.213 304.896C547.888 296.433 529.839 288.289 510.465 281.623C466.043 266.791 408.241 256.651 373.031 257.509C346.34 258.434 337.03 270.793 328.027 282.748L328.024 282.753L328.008 282.774C326.147 285.248 324.388 287.578 322.463 289.839L322.091 290.263C318.245 294.665 313.881 299.655 302.068 298.084C296.004 297.267 287.932 294.553 278.075 290.012C264.981 283.979 250.822 276.385 237.119 269.041L236.912 268.929L235.622 268.235L235.607 268.23L235.592 268.219C232.134 266.366 228.685 264.513 225.249 262.696C188.008 243.147 146.539 218.048 106.443 193.779C80.091 177.823 55.2007 162.761 32.3554 149.758C-4.32955 128.876 -30.2535 117.426 -55.3274 106.352C-66.2371 101.53 -77.5098 96.5468 -89.5295 90.8626C-120.074 76.1 -155.59 53.1938 -195.08 22.7716C-225.549 -0.661117 -265.26 -34.8549 -313.096 -78.8488C-354.583 -116.942 -392.84 -154.27 -430.077 -192.965C-464.03 -228.161 -528.342 -297.357 -577.679 -365.382C-602.376 -399.442 -618.141 -425.42 -629.787 -447.389C-617.209 -418.657 -601.193 -385.751 -562.381 -332.223C-510.33 -260.433 -441.474 -187.848 -405.06 -150.97C-370.508 -115.878 -335.169 -82.0333 -297.015 -47.5013C-246.787 -1.97671 -202.259 35.5068 -168.249 60.9081C-130.323 89.279 -96.0239 110.756 -66.3188 124.728C-51.9068 131.378 -38.742 136.821 -26.0111 142.081L-26.0068 142.086L-25.8208 142.162C-2.64492 151.744 21.3238 161.66 54.1856 179.295C79.0008 192.629 106.361 208.539 135.321 225.391C175.453 248.733 216.947 272.864 254.074 291.436C257.908 293.404 261.736 295.383 265.559 297.382L265.6 297.403C286.551 308.313 310.285 320.672 324.367 322.263C335.932 323.612 339.774 318.682 343.491 313.91L343.97 313.306C345.509 311.288 346.96 309.207 348.488 307.007L348.5 306.992C357.142 294.591 366.937 280.534 395.078 279.258C432.212 277.98 490.974 287.98 534.805 303.041C553.608 309.698 571.281 317.924 589.239 326.48C608.94 335.862 625.225 343.894 640.568 354.84C646.371 358.969 652.234 363.514 657.907 367.917L658.047 368.022C661.965 371.065 665.914 374.128 669.905 377.104L666.863 377.056C663.586 374.578 660.337 372.06 657.109 369.552C651.414 365.129 645.52 360.558 639.696 356.412C624.455 345.546 608.227 337.535 588.601 328.185C570.679 319.656 553.05 311.441 534.317 304.816C490.642 289.805 432.107 279.839 395.138 281.11C367.76 282.356 358.622 295.47 349.79 308.153L349.653 308.348C348.218 310.403 346.739 312.52 345.213 314.523L344.735 315.137L344.726 315.147C340.914 320.032 336.596 325.561 324.204 324.111C309.864 322.49 286.053 310.088 265.011 299.13L264.872 299.06L263.666 298.435C260.142 296.596 256.7 294.805 253.396 293.126C216.272 274.548 174.794 250.428 134.677 227.102L134.568 227.038L133.952 226.681C105.224 209.977 78.0887 194.196 53.4813 180.973C20.6815 163.365 -3.24739 153.471 -26.3878 143.905L-26.7599 143.749L-26.7642 143.749C-39.4506 138.5 -52.5756 133.072 -66.9478 126.439C-96.759 112.413 -131.146 90.8831 -169.156 62.4486C-203.206 37.0157 -247.778 -0.504802 -298.045 -46.0611C-336.226 -80.6142 -371.595 -114.48 -406.16 -149.598C-442.614 -186.508 -511.54 -259.161 -563.657 -331.046C-603.721 -386.309 -619.574 -419.669 -632.373 -449.109L-631.068 -449.83C-637.655 -462.415 -642.92 -473.709 -647.788 -484.494L-647.005 -484.943C-645.23 -481.624 -643.371 -478.226 -641.415 -474.743C-628.599 -447.251 -611.593 -415.169 -576.368 -366.58C-527.096 -298.654 -462.844 -229.521 -428.927 -194.367C-391.716 -155.693 -353.476 -118.392 -312.025 -80.3246C-264.224 -36.3623 -224.553 -2.2002 -194.123 21.2059C-154.721 51.5594 -119.302 74.407 -88.8597 89.111C-76.8713 94.7947 -65.6074 99.7724 -54.7064 104.584L-54.6533 104.605C-29.5619 115.695 -3.60252 127.166 33.1178 148.065C55.9453 161.062 80.8004 176.103 107.113 192.032L107.122 192.038L107.245 192.112C147.323 216.371 188.766 241.454 225.972 260.982C229.11 262.648 232.266 264.341 235.425 266.029L235.427 266.035L235.438 266.04L235.443 266.04L237.644 267.22L237.742 267.274L237.745 267.274C251.454 274.633 265.63 282.243 278.718 288.265C288.429 292.737 296.354 295.417 302.267 296.205C313.23 297.664 317.11 293.248 320.858 288.974L320.881 288.948L321.244 288.529C323.13 286.315 324.878 283.994 326.727 281.541C335.54 269.837 345.529 256.571 372.985 255.616C408.356 254.756 466.375 264.931 510.953 279.812C530.403 286.5 548.491 294.664 566.852 303.139L568.852 304.062C587.947 312.869 604.44 320.48 620.434 331.369C626.813 335.694 633.22 340.486 639.411 345.119C655.944 357.483 673.033 370.26 691.472 375.683ZM657.894 376.914L654.923 376.867C641.415 367.21 627.341 360 610.545 351.685C592.42 342.707 574.53 334.068 554.933 327.114C510.917 311.972 450.475 302.458 414.338 304.986C388.221 307.149 379.572 320.566 371.209 333.541L371.204 333.546C369.787 335.753 368.324 338.026 366.801 340.178L366.573 340.486L366.563 340.501C362.805 345.682 358.548 351.554 345.909 350.23C341.044 349.717 334.891 348.034 327.619 345.224C312.978 339.581 295.913 330.966 279.41 322.635L277.224 321.533C273.822 319.815 270.453 318.114 267.147 316.47C233.933 300.157 197.303 279.633 161.879 259.786L161.673 259.669C132.451 243.295 104.856 227.832 79.766 214.991C47.2589 198.331 23.2091 189.036 -0.0474673 180.048C-13.4041 174.887 -27.2127 169.548 -42.3915 162.896C-71.5187 149.877 -105.8 129.245 -144.29 101.575C-190.823 68.2271 -246.244 20.3501 -284.545 -13.9406C-323.484 -48.7286 -359.049 -82.3593 -393.269 -116.746C-430 -153.547 -499.394 -226.005 -551.422 -297.836C-591.677 -353.403 -607.327 -387.532 -618.834 -415.169L-617.391 -415.934C-605.922 -388.396 -590.329 -354.372 -550.186 -298.967C-498.233 -227.23 -428.905 -154.846 -392.209 -118.077C-358.011 -83.7164 -322.473 -50.1068 -283.56 -15.34C-245.29 18.9295 -189.913 66.7643 -143.437 100.075C-105.03 127.676 -70.8332 148.26 -41.8079 161.236C-26.8017 167.813 -13.1172 173.104 0.115247 178.221L0.474154 178.362L0.48292 178.367C23.7794 187.366 47.8647 196.672 80.4337 213.369C105.551 226.226 133.154 241.694 162.384 258.074L162.807 258.308C198.155 278.112 234.677 298.567 267.793 314.837C271.021 316.443 274.3 318.102 277.615 319.771L280.063 321.007C296.531 329.328 313.561 337.921 328.141 343.537C335.289 346.299 341.322 347.954 346.058 348.454C357.854 349.677 361.66 344.435 365.329 339.367L365.548 339.06C366.965 337.061 368.29 335.009 369.684 332.854L369.686 332.849L369.905 332.51L369.908 332.505C378.085 319.811 387.351 305.43 414.224 303.201C450.535 300.666 511.221 310.215 555.397 325.411C575.083 332.398 593.012 341.052 611.181 350.052C628.921 358.833 643.637 366.395 657.894 376.914ZM637.967 376.599L634.178 376.539C632.575 375.705 630.948 374.865 629.292 374.01C613.557 365.893 595.093 356.629 575.231 349.535C532.454 334.698 472.552 325.712 435.9 328.625C409.353 331.061 400.832 345.014 392.595 358.499L392.589 358.51L392.338 358.92C390.915 361.246 389.45 363.643 387.916 365.889L387.815 366.038C386.251 368.278 384.595 370.641 382.255 372.553L379.424 372.508C382.671 370.616 384.663 367.765 386.615 364.972L386.715 364.838C388.304 362.495 389.778 360.087 391.334 357.536C399.39 344.343 408.512 329.405 435.807 326.903C472.633 323.971 532.775 332.998 575.716 347.879C595.667 355.011 614.18 364.296 629.959 372.44C632.701 373.851 635.367 375.236 637.967 376.599ZM355.699 372.133L349.932 372.041C336.441 367.288 320.339 359.409 305.524 352.156C301.533 350.201 297.649 348.3 293.945 346.531C260.756 330.975 224.062 311.238 188.575 292.141L188.246 291.965C156.404 274.834 126.332 258.659 99.2774 245.672C69.4966 231.414 46.7751 223.27 24.7939 215.396L24.7894 215.396C11.0367 210.472 -3.18587 205.38 -18.9151 198.849C-49.7142 185.824 -86.4509 164.272 -128.1 134.796C-162.67 110.391 -207.148 74.5668 -260.285 28.3172C-303.669 -9.36588 -343.479 -46.3187 -382.002 -84.6298C-419.051 -121.368 -488.963 -193.741 -540.94 -265.634C-581.408 -321.598 -596.324 -355.348 -607.128 -382.579L-605.717 -383.293C-594.956 -356.155 -580.092 -322.536 -539.737 -266.734C-487.829 -194.936 -417.988 -122.636 -380.973 -85.9301C-342.477 -47.6401 -302.689 -10.7135 -259.332 26.9485C-206.23 73.1612 -161.804 108.948 -127.27 133.326C-85.7046 162.75 -49.0649 184.243 -18.3677 197.225C-2.67841 203.74 11.5309 208.827 25.2703 213.745L25.2748 213.745L25.3236 213.761C47.3181 221.64 70.0707 229.791 99.8956 244.075C127.074 257.121 157.278 273.371 189.255 290.577C224.724 309.662 261.405 329.399 294.563 344.929C298.271 346.713 302.165 348.615 306.156 350.57L306.259 350.618C323.026 358.819 341.436 367.823 355.699 372.133ZM417.894 373.117C425.178 362.446 435.558 352.737 456.981 350.572C494.285 347.265 553.873 355.816 595.592 370.471C600.498 372.248 605.294 374.154 609.984 376.156L605.504 376.085C602.101 374.689 598.644 373.349 595.13 372.08C553.575 357.48 494.232 348.959 457.093 352.258C436.795 354.306 426.874 362.976 419.741 373.146L417.894 373.117ZM309.248 371.398L313.383 371.463C282.366 357.372 248.162 339.67 215.077 322.55L214.49 322.245C182.22 305.553 151.745 289.791 124.232 277.254C94.7857 263.83 72.1161 256.345 50.1874 249.104C34.69 243.987 18.6691 238.695 0.527003 231.375C-31.0969 218.347 -70.234 195.772 -112.656 166.081C-145.571 143.087 -186.112 111.155 -236.608 68.4511C-284.227 28.2286 -328.315 -11.9483 -371.383 -54.3845C-434.929 -116.799 -493.122 -182.757 -531.036 -235.353C-571.671 -291.709 -585.804 -325.011 -595.867 -351.811L-597.246 -351.148C-587.145 -324.249 -572.956 -290.806 -532.194 -234.288C-494.237 -181.624 -435.978 -115.587 -372.366 -53.1095C-329.272 -10.647 -285.162 29.5511 -237.512 69.7999C-186.981 112.53 -146.4 144.499 -113.45 167.52C-70.9443 197.269 -31.7055 219.898 0.0113954 232.963C18.1934 240.3 34.2408 245.602 49.7604 250.725L49.8713 250.763C71.7246 257.981 94.3321 265.445 123.663 278.815C151.312 291.417 181.977 307.286 214.437 324.084C246.275 340.557 279.152 357.575 309.248 371.398ZM478.941 374.083C493.405 372.834 510.443 373.182 528.219 374.862L478.941 374.083ZM273.704 370.835C262.622 365.399 251.5 359.874 240.506 354.408L240.416 354.365C205.795 337.159 173.099 320.911 143.771 308.428C116.109 296.665 94.2504 290.048 73.102 283.649C56.8079 278.721 39.9548 273.619 20.7171 266.219C-11.5013 253.57 -50.8891 231.624 -93.2038 202.758C-169.903 150.741 -267.522 69.491 -354.325 -14.5834C-392.819 -51.6397 -465.42 -124.771 -519.277 -198.253C-561.712 -256.151 -577.277 -291.637 -587.775 -321.346L-589.113 -320.745C-578.577 -290.906 -562.956 -255.289 -520.394 -197.219C-466.463 -123.642 -393.787 -50.437 -355.272 -13.3492C-268.412 70.783 -170.718 152.086 -93.9526 204.146C-51.5586 233.07 -12.0688 255.064 20.2426 267.751C39.4759 275.151 56.3068 280.242 72.5741 285.17L72.7249 285.213C93.8379 291.601 115.665 298.208 143.261 309.944C172.531 322.4 205.189 338.627 239.765 355.811L239.826 355.844C249.814 360.806 259.906 365.828 269.979 370.776L273.704 370.835ZM231.896 370.174L228.159 370.115C204.977 359.231 182.238 348.936 161.859 340.896C135.831 330.646 114.758 324.86 94.381 319.272L94.168 319.212C77.1875 314.553 59.6123 309.724 39.3623 302.334C7.18223 290.365 -31.4488 269.612 -75.4653 240.668C-115.86 214.181 -167.39 175.115 -224.468 127.704C-265.805 93.4172 -303.502 60.1105 -339.695 25.8842C-379.263 -11.412 -454.034 -85.2512 -510.227 -160.709C-556.723 -223.149 -572.948 -261.714 -582.683 -291.199L-581.382 -291.748C-571.681 -262.388 -555.524 -223.975 -509.163 -161.718C-453.031 -86.3497 -378.335 -12.5842 -338.806 24.6855C-302.627 58.896 -264.956 92.1815 -223.641 126.442C-166.594 173.827 -115.113 212.861 -74.7573 239.316C-31.4423 267.798 8.17009 289.08 39.8049 300.853C60.0814 308.254 77.6878 313.084 94.7127 317.753L94.7882 317.775L94.7926 317.775C115.179 323.369 136.267 329.15 162.324 339.421C183.67 347.839 207.59 358.728 231.896 370.174ZM176.998 369.305L172.261 369.23C151.006 361.917 132.873 357.468 115.255 353.152L115.195 353.136C96.3217 348.504 76.7975 343.712 53.6812 335.437C20.4165 323.264 -21.0393 301.264 -66.198 271.799C-104.712 246.731 -152.164 211.445 -207.232 166.917C-253.06 129.905 -295.093 93.3633 -335.718 55.2107C-375.515 17.9471 -450.642 -55.8511 -506.655 -131.425C-553.439 -194.554 -568.93 -233.045 -577.914 -262.362L-576.64 -262.861C-567.694 -233.663 -552.263 -195.339 -505.623 -132.394C-449.68 -56.9087 -374.618 16.8159 -334.852 54.0479C-294.249 92.1794 -252.247 128.695 -206.445 165.686C-151.408 210.182 -103.996 245.447 -65.5175 270.493C-20.4426 299.9 20.9247 321.862 54.0963 334.002C77.1771 342.261 96.6835 347.048 115.546 351.674C134.377 356.29 153.799 361.055 176.998 369.305ZM68.5814 367.59L64.1863 367.52C30.9953 355.198 -8.85692 334.421 -51.7742 307.008C-138.179 252.136 -241.158 170.605 -334.308 83.3251C-374.156 46.1904 -449.292 -27.3747 -504.864 -102.874C-552.012 -166.932 -566.958 -206.663 -574.714 -234.111L-573.485 -234.558C-565.767 -207.225 -550.877 -167.665 -503.869 -103.802C-448.362 -28.3915 -373.291 45.1105 -333.483 82.2084C-240.386 169.435 -137.477 250.908 -51.1345 305.743C-6.54418 334.219 34.7041 355.521 68.5814 367.59ZM6.03392 366.6L3.09203 366.553C-9.81968 359.482 -23.2103 351.682 -36.9605 343.218C-79.7929 316.92 -131.818 279.831 -191.58 232.995C-238.118 196.573 -280.923 160.371 -322.428 122.334C-365.311 83.156 -445.952 5.54915 -504.196 -74.0979C-551.678 -139.01 -565.927 -178.84 -573.023 -206.287L-571.831 -206.683C-564.759 -179.365 -550.575 -139.708 -503.236 -74.9898C-445.053 4.56299 -364.487 82.1065 -321.635 121.248C-280.156 159.264 -237.378 195.445 -190.857 231.85C-131.135 278.66 -79.154 315.718 -36.357 341.994C-21.7723 350.974 -7.59486 359.201 6.03392 366.6ZM-42.7622 365.828L-45.2896 365.788C-130.432 312.024 -224.97 239.433 -312.998 160.118C-390.54 90.6453 -460.565 15.57 -505.115 -45.8544C-552.734 -111.469 -566.258 -151.38 -572.722 -178.818L-571.571 -179.167C-565.136 -151.86 -551.667 -112.12 -504.188 -46.7105C-459.685 14.6458 -389.726 89.6476 -312.246 159.062C-223.597 238.931 -128.354 311.98 -42.7622 365.828ZM-87.5913 365.119L-89.8378 365.083C-113.921 348.593 -139.719 330.065 -167.092 309.584C-219.591 270.341 -267.693 231.065 -314.15 189.498C-392.207 119.903 -462.486 44.5854 -506.965 -17.1593C-555.506 -84.5037 -568.322 -126.083 -573.734 -151.498L-572.628 -151.802C-567.232 -126.501 -554.471 -85.1041 -506.074 -17.964C-461.652 43.7124 -391.434 118.962 -313.438 188.493C-267.013 230.034 -218.933 269.295 -166.456 308.516C-138.47 329.458 -112.134 348.357 -87.5913 365.119ZM-132.87 364.402L-134.961 364.369C-195.894 320.831 -258.68 270.625 -317.548 218.003C-395.74 148.494 -465.943 73.1309 -510.161 11.2245C-558.876 -56.926 -571.019 -98.7382 -575.912 -124.264L-574.847 -124.527C-569.975 -99.1208 -557.882 -57.4909 -509.306 10.4554C-465.141 72.2936 -394.999 147.594 -316.864 217.039C-257.538 270.062 -194.242 320.64 -132.87 364.402ZM-176.598 363.71L-178.747 363.676C-223.16 330.46 -267.652 294.408 -310.695 256.616C-357.752 215.511 -446.074 133.641 -508.911 47.2147C-549.537 -8.63285 -571.854 -54.4622 -579.139 -96.9956L-578.12 -97.2178C-570.866 -54.8819 -548.613 -9.22467 -508.101 46.476C-445.33 132.813 -357.073 214.62 -310.052 255.698C-267.097 293.406 -221.854 329.957 -176.598 363.71ZM-220.438 363.017L-222.216 362.989C-250.148 341.218 -277.817 318.561 -304.692 295.397C-352.72 254.215 -443.06 171.924 -508.473 83.5289C-552.074 24.6385 -576.544 -25.4542 -583.273 -69.6063L-582.298 -69.7982C-575.597 -25.8435 -551.2 24.077 -507.713 82.8102C-442.356 171.127 -352.082 253.354 -304.09 294.51C-276.836 318.001 -248.767 340.965 -220.438 363.017ZM-263.97 362.328L-265.605 362.302C-280.691 350.044 -295.635 337.555 -310.384 324.882C-358.47 283.735 -448.864 201.469 -514.041 112.782C-557.876 53.1676 -582.119 2.53939 -588.147 -42.0007L-587.216 -42.1674C-581.212 2.18058 -557.038 52.6418 -513.313 112.11C-448.197 200.718 -357.869 282.92 -309.818 324.041C-294.721 337.014 -279.417 349.789 -263.97 362.328ZM-306.989 361.647L-308.491 361.623C-311.179 359.342 -313.858 357.05 -316.533 354.758C-364.659 313.652 -455.094 231.396 -520.07 142.391C-564.138 82.0573 -588.194 30.8568 -593.595 -14.1295L-592.714 -14.2711C-587.332 30.5231 -563.346 81.5619 -519.378 141.749C-454.463 230.675 -364.09 312.878 -315.994 353.963C-313.003 356.53 -309.998 359.091 -306.989 361.647ZM-349.099 360.981L-350.481 360.959C-403.085 314.003 -473.378 245.443 -526.376 172.379C-570.701 111.326 -594.595 59.5527 -599.445 14.0827L-598.614 13.9611C-593.788 59.2441 -569.944 110.871 -525.729 171.777C-472.486 245.178 -401.761 314.034 -349.099 360.981ZM-390.085 360.332L-391.2 360.315C-403.377 348.818 -415.197 337.29 -426.533 325.858C-469.028 283.017 -504.777 241.588 -532.787 202.749C-576.752 141.836 -601.22 87.9702 -605.51 42.649L-604.719 42.5475C-600.445 87.7026 -576.036 141.412 -532.171 202.193C-509.358 233.834 -464.35 290.285 -390.085 360.332ZM-429.129 359.715L-430.167 359.698C-430.913 358.95 -431.659 358.197 -432.401 357.45C-474.97 314.519 -510.766 272.965 -538.804 233.928C-583.224 172.158 -607.716 117.546 -611.599 71.6037L-610.858 71.5169C-606.99 117.298 -582.554 171.765 -538.225 233.408C-519 260.172 -484.042 304.543 -429.129 359.715ZM-466.054 359.13L-467.066 359.114C-497.272 326.647 -523.364 295.104 -544.878 265.018C-589.556 202.612 -613.998 147.409 -617.525 100.939L-616.838 100.872C-613.322 147.182 -588.926 202.244 -544.331 264.535C-528.994 285.981 -503.62 318.689 -466.054 359.13ZM-500.658 358.583L-501.563 358.569C-514.425 343.593 -526.893 328.21 -538.679 312.536C-566.854 275.099 -588.353 239.576 -602.577 206.947C-614.637 179.296 -621.538 153.624 -623.092 130.654L-622.458 130.596C-620.903 153.478 -614.027 179.067 -602.005 206.629C-587.799 239.201 -566.33 274.677 -538.19 312.072C-526.278 327.914 -513.669 343.455 -500.658 358.583ZM-532.271 358.083L-533.068 358.07C-536.656 353.488 -540.191 348.882 -543.666 344.245C-571.87 306.667 -593.388 270.937 -607.63 238.053C-619.786 209.981 -626.677 183.957 -628.12 160.703L-627.526 160.651C-623.586 224.439 -579.499 295.465 -543.213 343.817C-539.629 348.6 -535.977 353.359 -532.271 358.083ZM-560.58 357.635L-561.275 357.624C-594.512 310.145 -629.181 247.824 -632.42 191.039L-631.88 191.006C-628.646 247.786 -593.848 310.181 -560.58 357.635ZM-585.087 357.247L-585.685 357.238C-611.317 315.248 -633.417 266.706 -635.811 221.597L-635.324 221.558C-632.926 266.673 -610.76 315.252 -585.087 357.247ZM-605.431 356.925L-605.944 356.917C-623.353 322.967 -636.426 286.655 -638.138 252.301L-637.701 252.271C-635.984 286.626 -622.875 322.964 -605.431 356.925ZM-621.122 356.677L-621.527 356.67C-633.966 325.614 -638.385 301.147 -639.24 283.039L-638.852 283.015C-637.712 307.103 -631.006 332.144 -621.122 356.677ZM-631.512 356.512L-631.869 356.507C-636.483 339.594 -638.465 325.351 -638.985 313.712L-638.646 313.691C-638.126 325.33 -636.14 339.584 -631.512 356.512ZM-635.969 356.442L-636.259 356.437C-636.77 352.075 -637.084 347.997 -637.247 344.19L-636.961 344.179C-636.799 347.986 -636.484 352.075 -635.969 356.442ZM693.657 237.61C693.13 235.974 692.612 234.338 692.103 232.703C685.498 211.394 681.84 193.761 680.604 177.218C680.364 174.042 680.082 170.731 679.798 167.518L679.787 167.393C678.659 154.407 677.493 140.975 678.776 128.183C680.117 114.961 686.497 103.426 695.909 95.272L695.868 97.8889C687.456 105.639 681.786 116.273 680.56 128.403C679.29 141.024 680.452 154.389 681.585 167.313L681.637 167.91C681.9 170.936 682.17 174.039 682.394 177.039C683.616 193.364 687.224 210.789 693.748 231.863L693.657 237.61ZM694.746 168.755C694.205 161.257 694.003 153.748 694.689 146.43C694.802 145.204 694.96 143.993 695.157 142.799L694.746 168.755ZM-708.136 -609.278C-710.063 -612.869 -711.868 -616.313 -713.581 -619.626C-711.786 -616.167 -709.972 -612.712 -708.136 -609.278ZM-708.136 -609.278C-707.872 -608.781 -707.608 -608.285 -707.335 -607.783L-706.772 -606.737L-706.785 -606.748C-707.235 -607.589 -707.686 -608.431 -708.136 -609.278Z" fill="black"/>
</g>
</g>
<defs>
<clipPath id="clip0_619_12379">
<rect width="375" height="241" fill="white"/>
</clipPath>
<clipPath id="clip1_619_12379">
<rect width="605.743" height="472.187" fill="white" transform="matrix(-0.999875 -0.0158206 -0.0158206 0.999875 499.138 -231.417)"/>
</clipPath>
</defs>
</svg>
