<svg preserveAspectRatio="none" viewBox="0 0 1280 866" fill="none" xmlns="http://www.w3.org/2000/svg">
<g clip-path="url(#clip0_495_14294)">
<g opacity="0.1" clip-path="url(#clip1_495_14294)">
<path fill-rule="evenodd" clip-rule="evenodd" d="M1299.85 448.715L1299.78 453.009C1278.22 442.389 1255.52 433.224 1230.17 429.46C1207.31 426.119 1182.74 429.206 1162.74 437.931C1146.99 444.816 1126.45 458.472 1118.15 484.454C1112.57 502.284 1111.17 521.939 1109.83 540.933L1109.81 541.115L1109.78 541.542L1109.78 541.55C1109.39 547.18 1108.98 552.992 1108.46 558.55C1105.87 586.026 1108.33 615.323 1115.97 648.117C1119.85 664.764 1124.98 681.508 1129.95 697.701L1129.97 697.78L1130.07 698.113C1132.18 704.984 1134.35 712.074 1136.39 719.048L1137.13 721.577C1142.44 739.596 1147.91 758.227 1145.02 775.411C1143.54 784.734 1138.65 792.47 1130.47 798.412C1117.6 807.738 1098.77 811.203 1079.81 810.903C1066.17 810.687 1052.47 808.51 1040.9 805.174C1006.45 795.413 973.711 774.608 942.033 754.482L941.893 754.393C929.311 746.398 916.299 738.135 903.342 730.648C875.013 714.233 846.104 702.025 815.502 689.094L815.246 688.985C809.634 686.623 803.932 684.207 798.127 681.728C789.977 678.246 781.768 674.701 773.493 671.121C745.934 659.213 717.431 646.898 688.48 635.857C612.683 607.76 509.347 575.995 446.64 571.1C410.937 568.706 391.829 579.126 373.343 589.208C364.703 593.923 356.554 598.367 346.952 601.412C335.508 604.863 323.185 607.046 298.238 595.824C288.12 591.257 275.926 584.339 260.928 574.642C235.339 558.088 208.091 538.442 181.709 519.427L181.709 519.418L181.702 519.418L181.694 519.409L181.183 519.044C174.219 514.013 167.24 508.989 160.283 504.001C79.977 446.896 -9.97535 373.384 -96.9685 302.28C-127.771 277.107 -156.858 253.337 -184.833 230.848C-227.737 196.668 -276.557 158.005 -313.112 131.739C-338.976 113.142 -360.32 99.6604 -380.93 86.6256L-380.937 86.6255L-381.271 86.4111L-383.348 85.0979L-383.371 85.0802L-383.378 85.0801C-394.239 78.2098 -404.611 71.6434 -415.681 64.2907C-466.413 30.4489 -514.044 -8.08245 -570.144 -60.6498C-613.368 -101.115 -673.536 -163.241 -748.966 -245.303C-805.518 -306.736 -857.416 -365.404 -907.619 -424.647C-993.757 -526.146 -1066.46 -619.559 -1123.71 -702.3C-1149.11 -739.025 -1169.88 -771.208 -1187.41 -799.925C-1190.76 -806.206 -1194.47 -812.205 -1198.18 -818.204C-1202.28 -824.826 -1206.37 -831.447 -1209.98 -838.443L-1210.26 -838.457C-1229.47 -871.865 -1244.21 -900.149 -1257.43 -925.504L-1257.66 -925.955L-1256.24 -926.891L-1256.24 -926.882C-1250.05 -916.105 -1243.42 -904.824 -1236.26 -892.978L-1236.32 -893.08L-1236.26 -892.978C-1237.53 -895.37 -1238.79 -897.734 -1240.03 -900.072L-1241.68 -903.204L-1243.82 -907.276C-1245.16 -909.827 -1246.54 -912.455 -1247.91 -915.077L-1249.65 -918.397L-1251.1 -921.191C-1246.18 -911.76 -1241.23 -902.352 -1236.23 -892.969C-1210.68 -845.005 -1177.06 -785.903 -1120.92 -704.738C-1063.74 -622.094 -991.115 -528.778 -905.066 -427.385C-853.287 -366.367 -800.425 -306.604 -746.501 -248.148C-671.137 -166.147 -611.028 -104.092 -567.871 -63.6975C-511.925 -11.272 -464.428 27.1529 -413.867 60.8875C-402.128 68.6776 -391.149 75.6194 -379.523 82.9634L-379.427 83.0258L-379.419 83.0259C-358.683 96.1324 -337.236 109.686 -311.194 128.407C-274.587 154.717 -225.708 193.417 -182.774 227.623C-153.401 251.31 -124.106 275.127 -94.8872 299.072L-94.6876 299.241C-7.79772 370.248 82.0288 443.662 162.179 500.652C169.144 505.64 176.123 510.663 183.087 515.703L183.398 515.926C209.809 534.967 237.11 554.649 262.684 571.203C277.533 580.793 289.593 587.657 299.548 592.134C323.498 602.914 335.212 600.869 346.024 597.582C355.302 594.645 363.321 590.278 371.816 585.639C390.696 575.345 410.229 564.697 446.875 567.141C509.926 572.067 613.59 603.924 689.596 632.094C718.629 643.172 747.169 655.496 774.757 667.422C788.643 673.451 802.553 679.394 816.489 685.268L816.506 685.277C847.293 698.272 876.368 710.552 904.964 727.119C917.474 734.347 929.987 742.28 942.144 749.989L942.15 749.99L943.641 750.936C975.154 770.964 1007.74 791.671 1041.79 801.33C1068.69 809.124 1107.32 810.485 1128.57 795.081C1135.89 789.77 1140.26 782.932 1141.56 774.703C1144.27 758.51 1138.94 740.36 1133.79 722.814L1133.04 720.293C1130.97 713.222 1128.77 706.027 1126.63 699.069L1126.61 698.99C1121.62 682.727 1116.46 665.912 1112.55 649.117C1104.8 615.851 1102.31 586.091 1104.95 558.137C1105.46 552.64 1105.86 547.124 1106.28 541.303L1106.31 540.799C1107.67 521.483 1109.08 501.523 1114.84 483.13C1121.78 461.446 1137.9 444.542 1161.49 434.236C1182.01 425.275 1207.22 422.102 1230.64 425.539C1255.91 429.284 1278.47 438.256 1299.85 448.715ZM1299.57 466.359L1299.5 470.434C1284.86 464.645 1269.52 460.169 1253.05 458.158C1211.52 453.145 1160.36 471.316 1147.25 514.775C1141.52 534.161 1140.75 555.533 1140.01 576.226L1140.01 576.392L1140 576.592C1139.8 582.381 1139.61 587.848 1139.31 593.314C1137.79 620.597 1141.14 650.049 1149.58 683.334C1153.65 699.426 1158.79 715.596 1163.76 731.241L1163.89 731.634L1163.89 731.643C1166.3 739.242 1168.8 747.086 1171.13 754.806L1171.6 756.373C1177.21 774.928 1183 794.095 1180.32 811.944C1178.99 821.366 1174.24 829.269 1166.21 835.414C1153 845.527 1132.93 849.26 1113.28 848.949C1101.94 848.769 1090.73 847.242 1081.07 844.798C1045.14 835.928 1010.97 814.099 977.916 792.976L977.672 792.824L977.67 792.815L977.665 792.815C964.599 784.464 951.087 775.836 937.651 768.149C911.472 753.084 884.887 742.019 856.749 730.302L856.547 730.221C851.098 727.957 845.567 725.648 839.925 723.277C833.326 720.49 826.678 717.658 819.989 714.817L816.807 713.46C789.395 701.772 761.045 689.686 732.157 678.942C662.212 653.681 557.284 622.632 491.765 618.302C454.328 616.194 435.491 627.987 417.286 639.388L417.273 639.397L417.23 639.422C409.141 644.486 401.5 649.269 392.432 652.757C381.526 656.766 369.674 659.488 344.942 648.888C334.746 644.502 322.169 637.639 307.538 628.479C285.338 614.583 262.034 598.509 239.472 582.952L238.731 582.444C231.467 577.425 224.18 572.406 216.894 567.421C136.213 512.697 45.6462 441.536 -41.9524 372.704L-43.7658 371.282C-75.2868 346.515 -105.113 323.091 -133.636 301.116C-231.723 225.524 -288.677 189.938 -348.969 152.269L-354.393 148.873C-407.627 115.035 -457.8 75.671 -517.101 21.2587C-573.64 -30.5578 -647.636 -107.65 -699.762 -163.194C-757.116 -224.205 -809.701 -282.509 -860.553 -341.448C-947.822 -442.46 -1021.37 -535.581 -1079.14 -618.191C-1104.06 -653.837 -1124.4 -685.029 -1141.5 -712.808C-1149.94 -728.504 -1157.35 -742.906 -1164.29 -756.407L-1164.33 -756.474L-1164.34 -756.502L-1164.36 -756.542L-1164.37 -756.552L-1164.37 -756.556L-1164.38 -756.573L-1164.38 -756.588L-1164.4 -756.609L-1164.74 -757.277L-1164.75 -757.286L-1167.05 -755.772C-1185.06 -787.214 -1198.87 -813.852 -1211.28 -837.785L-1210.27 -838.443C-1202.82 -825.479 -1195.21 -812.638 -1187.44 -799.926L-1187.44 -799.952L-1187.42 -799.917C-1162.95 -754.191 -1130.44 -697.834 -1076.44 -620.596C-1018.74 -538.083 -945.271 -445.067 -858.075 -344.144C-807.26 -285.24 -754.704 -226.971 -697.395 -165.997C-645.305 -110.496 -571.368 -33.4748 -514.918 18.2706C-455.78 72.5411 -405.74 111.79 -352.699 145.511L-347.282 148.89L-347.163 148.961C-286.856 186.648 -229.843 222.279 -131.675 297.924C-103.84 319.374 -74.7767 342.212 -44.0843 366.312L-44.0693 366.321L-39.9694 369.547L-39.414 369.983L-39.4069 369.992C47.9775 438.629 138.285 509.577 218.699 564.123C225.986 569.116 233.28 574.144 240.543 579.154C263.306 594.862 286.855 611.106 309.239 625.118C323.73 634.188 336.166 640.979 346.198 645.293C369.888 655.441 381.093 652.883 391.373 649.108C400.141 645.737 407.664 641.03 415.618 636.043L415.689 636.001C434.314 624.353 453.575 612.315 491.983 614.465C557.831 618.816 663.088 649.95 733.249 675.292C762.196 686.055 790.554 698.15 817.982 709.847L818.047 709.874L820.974 711.122C827.742 713.999 834.469 716.867 841.151 719.69C846.785 722.062 852.316 724.362 857.765 726.625L857.855 726.662C886.132 738.433 912.856 749.552 939.241 764.743C952.815 772.527 966.45 781.227 979.632 789.649C1012.46 810.63 1046.41 832.316 1081.84 841.065C1107.54 847.543 1144.3 847.541 1164.31 832.257C1171.52 826.744 1175.78 819.721 1176.95 811.369C1179.49 794.493 1173.85 775.798 1168.39 757.716L1168.38 757.663L1167.91 756.105C1165.78 749.042 1163.5 741.863 1161.29 734.877L1161.29 734.868L1160.56 732.592C1155.57 716.895 1150.41 700.647 1146.3 684.45C1137.77 650.727 1134.37 620.857 1135.91 593.121C1136.21 587.699 1136.41 582.241 1136.61 576.477L1136.62 576.294C1137.35 555.287 1138.12 533.567 1144.03 513.591C1157.72 468.217 1210.61 449.194 1253.44 454.314C1269.81 456.306 1285.05 460.685 1299.57 466.359ZM1299.25 486.571L1299.19 490.428C1292.6 488.704 1285.85 487.326 1278.9 486.432C1256.86 483.592 1233.29 487.74 1214.23 497.786C1199.48 505.567 1180.53 520.432 1174.02 547.096C1169.16 567.35 1169.04 589.473 1168.92 610.881L1168.91 611.508C1168.88 616.752 1168.85 621.707 1168.75 626.688C1168.17 654.074 1172.3 683.685 1181.39 717.217C1185.44 732.15 1190.37 747.184 1195.13 761.736L1195.27 762.165C1198.25 771.158 1201.15 780.193 1203.96 789.262L1204.26 790.207L1204.26 790.225C1209.82 808.309 1216.12 828.808 1213.45 847.067C1212.09 857.098 1207.07 865.459 1198.56 871.918C1185.14 882.089 1165.22 885.867 1145.67 885.558C1133.76 885.369 1122 883.659 1111.95 880.974C1077.95 872.048 1045.79 851.322 1014.69 831.266L1014.44 831.105C1002.87 823.649 990.906 815.942 979.041 808.977C950.318 792.06 922.062 780.246 889.323 766.575L879.483 762.456C873.291 759.858 867.066 757.216 860.801 754.565L860.768 754.555L860.744 754.546L859.981 754.221C830.313 741.661 799.624 728.676 768.174 717.421C696.061 692.36 595.808 665.566 534.418 662.182C494.996 660.391 476.208 673.804 458.05 686.774C451.274 691.614 444.87 696.182 437.521 699.898C426.874 705.078 416.147 708.654 392.742 699.904C381.607 695.712 368.153 688.818 351.617 678.827C327.45 664.229 302.135 647.4 277.666 631.125L275.864 629.929L275.827 629.903L275.812 629.894C270.154 626.137 264.489 622.372 258.816 618.632C182.112 568.326 96.3015 503.433 13.305 440.667L13.0384 440.463C-19.3486 415.97 -49.9363 392.838 -79.1023 371.245C-171.702 302.622 -226.428 269.762 -284.354 234.979L-284.443 234.925L-301.069 224.932C-350.553 194.577 -399.821 157.292 -456.117 107.569C-518.635 52.4181 -597.983 -28.2952 -653.518 -86.2977C-711.547 -146.787 -764.819 -204.763 -816.393 -263.521C-877.147 -332.634 -964.797 -436.614 -1037.39 -539.493C-1061.89 -574.218 -1081.84 -604.55 -1098.54 -631.486C-1095.06 -625.028 -1091.35 -618.306 -1086.89 -610.361L-1086.84 -610.282C-1081.86 -600.23 -1076.8 -590.246 -1071.64 -580.312C-1077.22 -591.097 -1082.2 -601.036 -1086.83 -610.29C-1065.62 -572.656 -1037.33 -526.713 -996.272 -468.966C-923.214 -366.263 -834.629 -262.669 -773.174 -193.867C-721.085 -135.431 -667.17 -77.7857 -608.35 -17.6494C-552.252 39.8132 -471.795 120.047 -407.078 175.948C-349.303 225.929 -299.205 262.931 -249.423 292.394C-242.162 296.612 -235.033 300.722 -227.964 304.789L-227.949 304.798L-227.935 304.807L-221.452 308.542C-167.179 339.757 -115.921 369.243 -31.7902 428.961C-1.34286 450.548 30.8285 473.983 64.8446 498.754L67.4078 500.624C145.81 557.752 226.88 616.82 299.633 662.987L316.501 673.811C344.332 691.708 373.112 710.212 399.884 725.426C415.583 734.35 428.272 740.334 438.709 743.696C460.571 750.732 469.406 745.497 477.944 740.441L478.214 740.271C484.277 736.569 489.701 732.169 495.441 727.512L495.478 727.487L495.486 727.478C512.107 714.013 530.938 698.763 569.987 699.163C634.606 700.639 738.985 727.612 813.773 753.672C843.312 764.305 871.977 776.439 899.715 788.176L899.721 788.176L899.913 788.257L912.134 793.433C915.596 794.89 919.014 796.321 922.401 797.733C923.922 798.367 925.439 799.001 926.947 799.634L926.976 799.643C956.242 811.866 983.887 823.409 1010.71 839.26C1023.31 846.689 1035.94 854.929 1048.14 862.909C1079.09 883.137 1111.1 904.052 1144.88 912.783C1175.85 920.947 1209.85 917.147 1227.54 903.534C1235.45 897.449 1240.05 889.664 1241.25 880.346C1243.77 861.832 1237.01 840.541 1231.03 821.762L1230.44 819.906C1227.74 811.397 1224.84 802.728 1222.03 794.356C1217.27 780.135 1212.36 765.423 1208.16 750.775C1198.18 715.845 1193.39 686.606 1193.1 658.771C1193.03 651.985 1193.24 645.133 1193.45 638.525L1193.46 638.281L1193.46 638.133C1193.72 630.106 1193.98 621.809 1193.74 613.547C1193.44 603.438 1193.42 590.189 1195.94 577.25C1205.74 527.703 1256.19 505.392 1298.89 509.448L1298.83 513.131C1243.48 507.709 1206.15 542.5 1199.12 578.015C1196.69 590.546 1196.71 603.508 1196.99 613.407C1197.25 621.843 1196.98 630.253 1196.72 638.385L1196.69 639.116C1196.49 645.541 1196.28 652.167 1196.35 658.701C1196.65 686.161 1201.38 715.051 1211.27 749.622C1215.44 764.191 1220.34 778.859 1225.08 793.037C1227.89 801.426 1230.79 810.104 1233.5 818.648L1234.09 820.504C1240.2 839.694 1247.11 861.449 1244.46 880.875C1243.14 891.237 1238.05 899.876 1229.35 906.568C1215.73 917.04 1195.55 920.928 1175.96 920.618C1164.68 920.44 1153.61 918.871 1144.1 916.368C1109.85 907.508 1077.62 886.459 1046.46 866.088L1046.22 865.927C1034.12 858.027 1021.61 849.859 1009.14 842.519C982.522 826.785 954.991 815.278 925.847 803.11L925.769 803.074L922.946 801.897C918.998 800.249 914.996 798.583 910.941 796.872L898.712 791.697L898.137 791.452C870.568 779.788 842.058 767.735 812.758 757.175C709.839 721.314 614.714 703.869 569.892 702.829C531.94 702.437 514.359 716.68 497.371 730.435L497.349 730.452C491.504 735.194 485.986 739.662 479.721 743.5L479.426 743.67C470.75 748.82 460.894 754.665 437.761 747.226C427.131 743.792 414.248 737.726 398.379 728.703C371.541 713.453 342.759 694.949 314.915 677.044L314.84 676.999C309.217 673.383 303.595 669.766 297.987 666.184C225.233 620.008 144.208 560.984 65.8351 503.883L65.5981 503.705L65.2797 503.474C30.4489 478.098 -2.46324 454.111 -33.5553 432.069C-117.568 372.44 -168.759 342.989 -222.958 311.81L-228.326 308.72C-235.781 304.43 -243.288 300.104 -250.951 295.654C-300.911 266.083 -351.164 228.974 -409.094 178.869C-473.9 122.897 -554.431 42.5836 -610.566 -14.9232C-669.423 -75.1036 -723.367 -132.785 -775.493 -191.256C-837 -260.137 -925.681 -363.819 -998.826 -466.672C-1023.46 -501.312 -1043.5 -531.733 -1060.2 -558.651C-1058.41 -555.339 -1056.56 -551.939 -1054.64 -548.467L-1054.27 -548.697L-1050.61 -541.218L-1050.54 -541.077C-1029.99 -504.499 -1002.35 -459.681 -961.8 -402.961C-888.601 -300.612 -799.475 -197.637 -737.607 -129.299C-678.805 -64.2157 -618.356 -0.891671 -552.797 64.2989C-469.653 147.145 -402.866 209.524 -354.302 249.664C-298.262 296.107 -249.124 331.248 -204.102 357.09C-188.686 365.87 -174.818 373.076 -160.132 380.703C-143.365 389.4 -126.034 398.403 -106.27 409.952C-72.2741 429.827 -28.317 459.015 14.1282 487.613C45.1226 508.73 78.0635 531.846 112.894 556.281L112.909 556.29L115.658 558.224L116.259 558.643C196.917 615.249 280.274 673.735 354.236 718.327C359.951 721.823 365.91 725.524 372.018 729.323L374.813 731.065C409.835 752.865 449.51 777.56 475.374 785.713C498.24 792.999 507.349 787.028 514.64 782.24C520.604 778.197 525.868 773.428 531.433 768.386L531.617 768.223C548.174 753.198 566.959 736.161 609.15 736.794C665.386 738.198 762.877 759.043 846.229 787.504C877.854 798.64 908.303 811.612 937.754 824.169L948.04 828.547L957.85 832.709C989.186 845.957 1016.24 857.413 1043.46 873.889C1055.36 881.063 1067.31 889.022 1078.87 896.722L1078.9 896.749C1109.53 917.128 1141.2 938.195 1174.74 946.687C1205.01 954.474 1238.37 950.411 1255.87 936.812C1263.99 930.504 1268.7 922.425 1269.89 912.767C1272.4 893.748 1265.46 871.983 1259.34 852.767L1259.31 852.671L1259 851.707C1255.88 841.902 1252.5 831.945 1249.22 822.311C1244.28 807.8 1239.17 792.798 1234.8 777.834C1225.13 744.746 1220.1 716.941 1218.95 690.329C1218.59 682.031 1218.58 673.669 1218.57 665.585L1218.57 664.348C1218.55 656.456 1218.53 648.32 1218.17 640.231C1217.57 627.156 1217.93 617.17 1219.3 607.846C1222.78 584.618 1235.67 564.482 1255.61 551.148C1268.15 542.758 1283.07 537.446 1298.47 535.599L1298.41 539.23C1262.73 543.779 1228.52 567.766 1222.43 608.435C1221.09 617.499 1220.75 627.258 1221.33 640.072C1221.72 648.667 1221.74 657.273 1221.75 665.601C1221.7 673.797 1221.83 681.986 1222.12 690.17C1223.25 716.45 1228.24 743.95 1237.82 776.723C1242.16 791.565 1247.23 806.479 1252.14 820.912L1252.18 821.043C1255.47 830.694 1258.86 840.669 1262 850.509L1262.3 851.472L1262.34 851.595C1268.59 871.197 1275.67 893.399 1273.03 913.287C1271.71 923.954 1266.54 932.87 1257.67 939.767C1243.88 950.49 1223.94 954.521 1204.46 954.213C1193.81 954.044 1183.3 952.571 1174.02 950.186C1139.98 941.581 1108.08 920.354 1077.23 899.814L1076.96 899.636L1076.96 899.627C1065.51 892.016 1053.68 884.146 1041.94 877.07C1014.95 860.729 988.018 849.327 956.85 836.126L956.718 836.071C954.634 835.193 952.537 834.307 950.422 833.411C949.251 832.913 948.075 832.415 946.893 831.918L936.607 827.539C907.207 815.001 876.796 802.046 845.276 790.947C762.177 762.586 665.044 741.79 609.078 740.408C568.063 739.802 550.553 755.675 533.622 771.016L533.603 771.033C527.886 776.221 522.496 781.11 516.255 785.349C506.631 791.66 496.847 796.305 474.502 789.192C448.299 780.929 408.47 756.135 373.318 734.256L373.272 734.229L371.134 732.897C364.797 728.956 358.624 725.121 352.725 721.509C278.488 676.755 194.85 618.056 113.969 561.29C78.1305 536.124 44.2783 512.366 12.4835 490.696C-29.91 462.143 -73.8223 432.973 -107.752 413.16C-127.241 401.754 -144.386 392.842 -160.952 384.244L-161.465 383.975C-176.181 376.338 -190.078 369.123 -205.547 360.29C-250.731 334.358 -300.003 299.128 -356.183 252.57C-404.836 212.341 -471.69 149.909 -554.907 66.9918C-620.504 1.75716 -680.989 -61.6022 -739.843 -126.722C-801.769 -195.147 -890.984 -298.211 -964.278 -400.709C-989.005 -435.281 -1008.93 -465.447 -1025.4 -492.04C-1023.16 -487.928 -1020.91 -483.824 -1018.65 -479.738L-1020.13 -482.401L-1022.62 -480.881C-1022.07 -479.705 -1021.5 -478.52 -1020.91 -477.317L-1020.61 -476.677C-1033.83 -500.335 -1043.89 -520.38 -1052.55 -537.947C-1043.8 -522.434 -1034.76 -507.144 -1025.43 -492.092L-1025.48 -492.189C-1034.79 -507.205 -1043.82 -522.461 -1052.54 -537.947C-1067.7 -564.867 -1079.01 -587.336 -1088.74 -606.793L-1088.77 -606.837C-1104.77 -635.147 -1116.78 -658.786 -1127.14 -679.176L-1126.95 -679.295C-1143.42 -708.25 -1156.07 -732.875 -1167.51 -755.114L-1167.52 -755.139L-1167.53 -755.156L-1167.54 -755.176L-1167.55 -755.205L-1167.56 -755.218L-1167.64 -755.372L-1167.05 -755.754C-1158.74 -741.271 -1150.23 -726.95 -1141.51 -712.799C-1118.07 -669.181 -1086.65 -615.392 -1034.77 -541.856C-962.262 -439.108 -874.693 -335.234 -814.005 -266.184C-762.468 -207.443 -709.225 -149.521 -651.241 -89.0665C-595.736 -31.108 -516.477 49.5341 -454.039 104.597C-397.892 154.186 -348.778 191.365 -299.466 221.613L-282.854 231.597C-224.832 266.434 -170.032 299.338 -77.2466 368.086C-48.2659 389.555 -17.8853 412.526 14.2575 436.832L14.3091 436.876L14.3314 436.886L14.9163 437.33C97.9572 500.132 183.827 565.069 260.516 615.375C265.93 618.954 271.328 622.541 276.719 626.119L279.373 627.886L280.723 628.778L280.723 628.787C304.755 644.742 329.542 661.213 353.206 675.499C369.571 685.391 382.861 692.204 393.818 696.323C417.901 705.328 428.042 700.401 436.167 696.453C443.253 692.872 449.527 688.39 456.173 683.652L456.257 683.592C473.983 670.929 494.074 656.596 534.575 658.421C596.272 661.819 696.86 688.688 769.183 713.83C800.737 725.122 831.463 738.125 861.168 750.703C867.703 753.472 874.209 756.223 880.67 758.938L890.496 763.04L890.512 763.048C923.339 776.773 951.69 788.615 980.593 805.64C992.514 812.64 1004.51 820.373 1016.11 827.856L1016.36 828.008L1016.42 828.053C1047.3 847.948 1079.22 868.523 1112.71 877.31C1144.38 885.781 1178.9 882.286 1196.69 868.796C1204.39 862.968 1208.91 855.471 1210.14 846.509C1212.66 829.154 1206.78 809.994 1201.08 791.463L1200.79 790.518C1198.03 781.511 1195.02 772.353 1192.11 763.491L1191.93 762.913C1187.16 748.361 1182.24 733.327 1178.17 718.324C1168.97 684.417 1164.8 654.421 1165.39 626.626C1165.48 621.706 1165.51 616.777 1165.54 611.577L1165.54 611.568L1165.55 610.889C1165.67 589.245 1165.8 566.87 1170.77 546.13C1177.62 518.069 1197.41 502.511 1212.8 494.392C1232.4 484.067 1256.64 479.79 1279.3 482.684C1286.13 483.567 1292.77 484.9 1299.25 486.571ZM1297.83 576.267L1297.77 580.02C1290.83 582.654 1284.24 586.078 1278.27 590.304C1260.21 603.084 1248.57 622.002 1245.5 643.529C1242.61 664.015 1244.08 685.858 1245.5 706.994L1245.5 707.003C1245.88 712.758 1246.29 718.714 1246.57 724.424C1248.03 753.026 1254.08 783.687 1265.6 820.907C1269.03 831.867 1273.37 843.285 1277.98 855.361C1283.25 869.207 1288.58 883.237 1292.75 897.118L1292.58 908.187C1288.25 891.237 1281.64 873.833 1275.13 856.736L1274.91 856.149C1270.37 844.231 1266.08 832.961 1262.69 822.071C1251.05 784.519 1244.95 753.561 1243.47 724.636C1243.19 718.944 1242.81 713.276 1242.4 707.268C1240.97 685.939 1239.49 663.869 1242.44 642.984C1245.65 620.44 1257.8 600.685 1276.64 587.343C1283.19 582.716 1290.33 579.032 1297.83 576.267ZM1291.76 959.906L1291.67 965.566C1289.49 968.258 1287.06 970.65 1284.41 972.698C1270.58 983.516 1250.65 987.591 1231.32 987.285C1221.04 987.122 1210.92 985.725 1201.98 983.423C1167.81 974.808 1135.88 953.014 1105 931.943L1104.98 931.925C1092.89 923.668 1080.38 915.134 1067.95 907.533C1043.19 892.351 1017.08 881.137 989.432 869.271L979.682 865.075L970.052 860.916C941.028 848.349 911.014 835.365 879.74 824.339C795.188 795.476 696.402 775.447 639.535 775.592C599.592 776.215 582.964 793.033 566.891 809.294L566.858 809.328L566.674 809.517C562.067 814.174 557.7 818.582 552.809 822.581C545.464 828.414 536.323 835.674 513.449 829.606C503.256 826.884 490.32 821.418 475.012 813.354C452.779 801.652 429.058 787.488 406.113 773.789L405.924 773.673C399.192 769.647 392.452 765.621 385.748 761.656C315.196 720.331 236.309 666.829 160.017 615.083C121.6 589.023 85.3258 564.416 51.4924 542.305C12.537 517.142 -31.8395 488.897 -65.5486 470.298C-83.2052 460.542 -99.0341 452.722 -114.328 445.163L-115.064 444.803L-115.421 444.623C-131.079 436.902 -145.897 429.586 -162.617 420.332C-208.223 394.968 -258.499 359.775 -316.336 312.754C-365.799 272.626 -435.951 208.295 -519.189 126.71C-585.702 61.644 -646.924 -1.54411 -706.365 -66.5072C-769.042 -134.858 -859.246 -237.911 -933.061 -340.644C-959.916 -378.054 -980.951 -410.093 -997.918 -437.904C-1005.03 -451.71 -1011.93 -465.669 -1018.63 -479.755C-998.611 -443.812 -971.333 -399.514 -930.643 -342.844C-856.939 -240.235 -766.823 -137.296 -704.205 -69.0078C-644.801 -4.09759 -583.615 59.0552 -517.147 124.077C-433.967 205.591 -363.905 269.86 -314.5 309.918C-256.797 356.84 -206.662 391.935 -161.227 417.209C-144.751 426.329 -130.082 433.573 -114.632 441.204L-114.625 441.204L-114.625 441.212L-113.8 441.617C-98.238 449.285 -82.1561 457.222 -64.1653 467.167C-30.3746 485.82 14.0466 514.083 53.0613 539.281C86.9243 561.419 123.221 586.035 161.645 612.095L162.171 612.451C238.256 664.046 316.896 717.388 387.206 758.56C392.704 761.818 398.207 765.102 403.71 768.386L407.397 770.587L407.778 770.81C430.633 784.464 454.247 798.557 476.343 810.187C491.473 818.153 504.209 823.537 514.185 826.204C535.704 831.918 543.854 825.436 551.025 819.731C555.812 815.817 560.148 811.435 564.735 806.804L564.738 806.795L564.809 806.726L564.819 806.718C580.556 790.791 598.4 772.738 639.538 772.091C696.683 771.898 795.849 792.029 880.677 821.001C912.041 832.054 942.073 845.047 971.109 857.614L971.19 857.65L980.828 861.809L990.57 866.014C1018.32 877.916 1044.53 889.166 1069.46 904.465C1081.69 911.94 1093.96 920.305 1105.83 928.402L1106.62 928.937C1137.28 949.883 1169 971.526 1202.69 980.02C1232.37 987.632 1265.27 983.44 1282.68 969.831C1286.43 966.894 1289.45 963.58 1291.76 959.906ZM1290.85 1017.01L1290.8 1020.47C1281.29 1023.14 1271 1024.24 1260.89 1024.08C1250.94 1023.92 1241.17 1022.56 1232.55 1020.35C1198.95 1011.87 1167.87 990.096 1137.83 969.029C1127.18 961.578 1116.17 953.87 1105.27 946.903C1077.77 929.282 1049.84 916.994 1017.5 902.771L1009.78 899.365L1009.41 899.203C978.259 885.479 946.054 871.285 912.166 859.599C831.638 832.672 735.449 814.217 678.254 814.706C636.4 815.533 620.071 833.645 604.291 851.156C600.317 855.562 596.565 859.719 592.397 863.625L591.842 864.138L591.827 864.156C584.631 870.723 576.469 878.18 555.46 873.772C544.759 871.512 530.596 865.904 513.373 857.104C489.646 844.978 464.393 830.407 439.958 816.31L439.571 816.086L436.373 814.241C431.522 811.447 426.671 808.643 421.825 805.875C355.077 767.965 280.951 719.502 209.257 672.62C168.134 645.724 129.28 620.328 93.3236 597.878C55.0701 574.294 15.3411 550.191 -16.1001 533.64C-33.8229 524.283 -49.7552 516.836 -65.1221 509.651L-65.1298 509.65L-65.1373 509.65L-66.1934 509.155C-82.4162 501.598 -99.182 493.781 -117.534 483.961C-163.131 459.434 -215.992 423.311 -274.665 376.583C-320.723 339.967 -383.962 283.488 -462.625 208.692C-528.652 146.116 -593.094 81.3088 -655.868 14.368C-724.215 -58.3839 -822.147 -167.918 -900.521 -276.568C-931.873 -320.051 -955.05 -356.009 -972.964 -386.387C-979.123 -396.841 -984.663 -406.606 -989.695 -415.815C-1002.64 -439.468 -1012.27 -459.307 -1020.57 -476.624C-1013.26 -463.529 -1005.7 -450.614 -997.933 -437.887L-997.926 -437.87C-977.712 -398.875 -948.507 -348.51 -898.172 -278.709C-819.915 -170.209 -722.079 -60.7717 -653.791 11.9095C-591.061 78.8148 -526.664 143.569 -460.68 206.101C-382.077 280.835 -318.904 337.26 -272.928 373.805C-214.388 420.436 -161.675 456.469 -116.234 480.898C-97.9563 490.682 -81.9643 498.139 -65.035 506.028L-64.6779 506.191C-49.043 513.494 -32.8874 521.031 -14.8075 530.559C16.7005 547.146 56.4812 571.286 94.7867 594.905C130.787 617.373 169.649 642.778 210.795 669.683C282.437 716.529 356.525 764.974 423.207 802.831L440.953 813.05L441.928 813.615C466.158 827.586 491.166 842.015 514.629 853.997C531.635 862.689 545.575 868.214 556.03 870.427C575.679 874.544 582.94 867.909 589.95 861.495L590.498 860.999C594.516 857.23 598.2 853.15 602.097 848.822L602.179 848.736L602.206 848.702C617.659 831.578 635.175 812.169 678.226 811.308C735.698 810.824 832.252 829.337 913.042 856.346C947.148 868.105 979.487 882.362 1010.77 896.15L1010.89 896.204L1018.61 899.601L1018.72 899.655C1051.12 913.904 1079.11 926.22 1106.76 943.939C1117.37 950.709 1128.03 958.177 1138.37 965.414L1139.42 966.145C1169.25 987.061 1200.11 1008.68 1233.22 1017.04C1250.48 1021.47 1272.34 1022.39 1290.85 1017.01ZM1290.2 1058.51L1290.15 1061.75C1279.96 1061.57 1269.82 1060.1 1259.91 1057.33C1227.61 1048.25 1197.77 1026.68 1168.92 1005.83L1168.87 1005.79C1157.86 997.829 1146.47 989.601 1135.15 982.209C1109.3 965.294 1082.86 953.421 1052.25 939.679L1046.33 937.016L1046.22 936.962C1015.94 923.347 984.636 909.263 951.471 897.711C871.99 870.871 772.142 852.601 714.067 854.269C672.606 855.965 657.087 874.935 642.073 893.286L642.006 893.363C637.965 898.308 634.147 902.978 629.822 907.325L629.811 907.334C623.086 913.9 614.719 922.068 592.581 917.319C583.882 915.44 572.855 911.432 559.801 905.372C536.464 894.559 510.483 880.046 485.34 866.007L485.106 865.873L482.522 864.43L482.503 864.42C476.474 861.059 470.484 857.715 464.561 854.442C399.976 819.188 328.14 773.993 258.646 730.273L258.52 730.192L258.349 730.085L258.342 730.085L258.327 730.076L258.319 730.067C215.689 703.243 175.425 677.912 138.339 655.801C101.457 634.086 59.3347 609.736 26.6263 593.713C10.722 585.918 -3.85556 579.521 -17.9571 573.339L-18.0019 573.321L-18.4706 573.113C-34.529 566.056 -51.138 558.764 -69.3123 549.522C-195.202 485.982 -407.796 304.713 -624.121 76.4974C-755.671 -61.6429 -834.841 -164.548 -870.339 -213.592C-906.489 -263.553 -931.254 -302.82 -950.362 -336.85C-953.649 -342.703 -956.773 -348.414 -959.757 -353.984C-971.474 -375.911 -981.042 -395.861 -990.209 -415.527L-989.702 -415.824C-984.67 -406.624 -979.138 -396.842 -972.972 -386.396C-950.772 -341.272 -922.18 -290.491 -868.073 -215.682C-785.499 -101.574 -678.534 14.8368 -622.112 74.0729C-406.016 302.068 -193.732 483.087 -68.1107 546.501C-49.8769 555.77 -33.9448 562.764 -17.0828 570.174L-16.9339 570.237C-2.79523 576.436 11.8195 582.861 27.7908 590.683C60.5884 606.75 102.763 631.128 139.704 652.879C176.879 675.043 217.232 700.428 259.944 727.305L260.226 727.484C329.627 771.151 401.382 816.292 465.837 851.465C472.626 855.223 479.504 859.051 486.411 862.914L486.64 863.04C511.732 877.06 537.665 891.547 560.913 902.315C573.782 908.285 584.622 912.246 593.127 914.079C613.878 918.527 621.316 911.259 627.867 904.855L627.876 904.847C632.102 900.611 635.892 895.976 639.903 891.065C654.604 873.084 671.276 852.713 713.977 850.967C772.329 849.303 872.566 867.631 952.323 894.545C985.612 906.152 1016.97 920.254 1047.3 933.887L1047.42 933.941L1053.34 936.604C1084.05 950.4 1110.58 962.318 1136.61 979.349C1147.76 986.625 1158.93 994.684 1169.75 1002.5L1170.45 1003C1199.12 1023.73 1228.77 1045.17 1260.63 1054.12C1270.3 1056.87 1280.22 1058.34 1290.2 1058.51ZM1289.66 1092.39L1289.62 1095.35L1288.42 1095.33C1257.2 1085.98 1228.46 1064.48 1200.64 1043.69L1200.61 1043.66C1190.22 1035.89 1179.48 1027.86 1168.82 1020.63C1142.13 1002.47 1114.51 989.722 1082.52 974.966L1082.52 974.965L1079.15 973.423C1048.36 959.199 1018.03 945.514 985.465 934.311C910.809 909.385 813.669 892.343 754.496 893.784C709.639 895.339 693.993 916.11 678.863 936.201L678.857 936.21L678.832 936.244C675.703 940.402 672.748 944.319 669.512 948.118L668.886 948.831C662.423 956.228 655.089 964.614 635.237 961.974C625.046 960.602 611.481 956.041 594.914 948.409C572.909 938.271 549.113 925.508 526.084 913.166L525.737 912.978L523.569 911.811L523.543 911.802L523.518 911.784C517.707 908.67 511.911 905.555 506.136 902.502C443.549 869.649 373.857 827.467 306.473 786.681C262.186 759.866 220.356 734.553 181.963 712.701C120.311 677.606 76.7435 658.363 34.6048 639.753C16.2702 631.649 -2.67463 623.275 -22.8746 613.722C-74.2066 588.912 -133.894 550.417 -200.26 499.29C-251.467 459.909 -318.205 402.444 -398.597 328.508C-468.318 264.489 -532.612 201.757 -595.192 136.727C-652.252 77.5766 -760.335 -38.7121 -843.25 -153.035C-884.755 -210.275 -911.249 -253.934 -930.821 -290.854C-909.683 -242.568 -882.767 -187.265 -817.539 -97.3073C-730.064 23.3417 -614.345 145.326 -553.149 207.303C-495.082 266.278 -435.693 323.156 -371.571 381.19C-287.159 457.698 -212.326 520.692 -155.17 563.381C-91.4315 611.061 -33.789 647.155 16.1328 670.636C40.3533 681.811 62.4779 690.959 83.8731 699.799L83.8805 699.808L84.1931 699.935C123.142 716.038 163.423 732.703 218.65 762.339C260.354 784.749 306.335 811.486 355.004 839.808C422.45 879.036 492.183 919.59 554.579 950.802C561.023 954.11 567.456 957.435 573.88 960.794L573.95 960.83C609.16 979.165 649.046 999.935 672.711 1002.61C692.148 1004.88 698.604 996.59 704.852 988.571L705.657 987.556C708.243 984.165 710.681 980.667 713.25 976.971L713.269 976.945C727.793 956.104 744.254 932.48 791.548 930.337C853.954 928.188 952.709 944.994 1026.37 970.305C1057.97 981.493 1087.67 995.316 1117.85 1009.7C1150.96 1025.46 1178.33 1038.96 1204.11 1057.36C1213.87 1064.3 1223.72 1071.94 1233.25 1079.33L1233.49 1079.51C1240.07 1084.62 1246.71 1089.77 1253.42 1094.77L1248.3 1094.69C1242.8 1090.53 1237.34 1086.3 1231.91 1082.08C1222.34 1074.65 1212.44 1066.97 1202.65 1060C1177.03 1041.74 1149.76 1028.28 1116.78 1012.56C1086.66 998.227 1057.03 984.423 1025.55 973.289C952.151 948.06 853.777 931.312 791.649 933.448C745.638 935.542 730.281 957.581 715.437 978.896L715.206 979.223C712.795 982.678 710.31 986.236 707.745 989.601L706.942 990.634L706.926 990.651C700.521 998.859 693.265 1008.15 672.437 1005.71C648.339 1002.99 608.322 982.148 572.959 963.732L572.726 963.615L570.699 962.564C564.777 959.474 558.993 956.464 553.44 953.641C491.049 922.42 421.342 881.884 353.923 842.683L353.739 842.575L352.705 841.976C304.424 813.904 258.821 787.382 217.467 765.16C162.344 735.569 122.129 718.94 83.2401 702.864L82.6148 702.601L82.6075 702.601C61.287 693.78 39.2293 684.659 15.0758 673.511C-35.0245 649.94 -92.8154 613.756 -156.694 565.97C-213.917 523.228 -288.824 460.172 -373.303 383.611C-437.469 325.541 -496.91 268.627 -554.998 209.608C-616.262 147.578 -732.098 25.4785 -819.684 -95.329C-887.015 -188.204 -913.658 -244.268 -935.167 -293.745L-932.975 -294.956C-944.044 -316.106 -952.893 -335.087 -961.073 -353.212L-959.758 -353.967C-956.774 -348.388 -953.649 -342.677 -950.363 -336.824C-928.824 -290.622 -900.245 -236.704 -841.046 -155.047C-758.24 -40.8915 -650.26 75.2912 -593.259 134.371C-530.724 199.365 -466.459 262.053 -396.797 326.028C-316.464 399.91 -249.792 457.322 -198.653 496.658C-132.434 547.67 -72.9102 586.067 -21.7491 610.778C-1.60152 620.33 17.3284 628.696 35.6483 636.782L35.7376 636.818C77.9058 655.455 121.533 674.733 183.244 709.855C221.608 731.699 263.379 756.975 307.599 783.746L307.613 783.755L307.821 783.88C375.176 824.649 444.823 866.803 507.351 899.621C512.625 902.422 517.928 905.267 523.237 908.104L523.242 908.113L523.259 908.122L523.268 908.122L526.966 910.105L527.131 910.195L527.137 910.195C550.176 922.563 574 935.352 595.995 945.473C612.316 952.988 625.634 957.493 635.572 958.817C653.995 961.269 660.516 953.846 666.814 946.664L666.853 946.621L667.464 945.916C670.632 942.195 673.571 938.295 676.679 934.172C691.488 914.503 708.276 892.208 754.419 890.604C813.862 889.158 911.368 906.257 986.285 931.266C1018.97 942.506 1049.37 956.227 1080.23 970.469L1083.59 972.021C1115.68 986.823 1143.4 999.613 1170.28 1017.91C1181 1025.18 1191.76 1033.23 1202.17 1041.02C1229.95 1061.8 1258.67 1083.27 1289.66 1092.39ZM1233.23 1094.45L1228.24 1094.38C1205.54 1078.15 1181.88 1066.03 1153.66 1052.06C1123.2 1036.97 1093.13 1022.45 1060.2 1010.76C986.224 985.314 884.647 969.326 823.916 973.574C780.024 977.209 765.488 999.757 751.433 1021.56L751.425 1021.57C749.044 1025.28 746.586 1029.1 744.026 1032.72L743.643 1033.23L743.625 1033.26C737.309 1041.97 730.156 1051.84 708.916 1049.61C700.739 1048.75 690.399 1045.92 678.178 1041.2C653.571 1031.71 624.893 1017.24 597.158 1003.23L593.485 1001.38C587.767 998.495 582.105 995.636 576.55 992.874C520.73 965.458 459.17 930.966 399.638 897.612L399.291 897.415C350.182 869.896 303.807 843.911 261.64 822.329C207.009 794.332 166.592 778.71 127.507 763.606C105.06 754.932 81.8538 745.959 56.3445 734.781C7.39393 712.9 -50.2184 678.227 -114.904 631.725C-193.107 575.681 -286.246 495.22 -350.614 437.592C-416.055 379.128 -475.824 322.609 -533.333 264.819C-595.064 202.973 -711.685 81.2006 -799.122 -39.5175C-866.775 -132.902 -893.075 -190.259 -912.414 -236.705L-909.988 -237.991C-890.714 -191.711 -864.509 -134.53 -797.046 -41.4184C-709.734 79.1409 -593.223 200.789 -531.552 262.582C-474.08 320.328 -414.354 376.811 -348.958 435.24C-284.642 492.833 -191.577 573.223 -113.471 629.204C-48.9252 675.59 8.546 710.183 57.3254 731.991C82.5444 743.043 105.542 751.935 127.781 760.536L128.384 760.772L128.398 760.781C167.55 775.903 208.027 791.543 262.762 819.604C304.973 841.212 351.364 867.206 400.487 894.734L401.198 895.128C460.603 928.41 521.981 962.786 577.635 990.129C583.06 992.828 588.571 995.616 594.142 998.422L598.256 1000.5C625.932 1014.48 654.551 1028.92 679.054 1038.36C691.067 1043 701.206 1045.79 709.165 1046.63C728.989 1048.68 735.385 1039.87 741.552 1031.35L741.92 1030.84C744.301 1027.48 746.528 1024.03 748.871 1020.41L748.874 1020.4L749.242 1019.83L749.247 1019.82C762.989 998.489 778.561 974.32 823.723 970.575C884.747 966.314 986.736 982.361 1060.98 1007.9C1094.06 1019.64 1124.19 1034.19 1154.73 1049.31C1184.54 1064.07 1209.27 1076.78 1233.23 1094.45ZM1199.74 1093.92L1193.37 1093.82C1190.68 1092.42 1187.95 1091.01 1185.16 1089.57C1158.72 1075.93 1127.69 1060.36 1094.31 1048.44C1022.42 1023.51 921.748 1008.4 860.153 1013.3C815.538 1017.39 801.218 1040.84 787.375 1063.51L787.365 1063.52L786.942 1064.21C784.552 1068.12 782.089 1072.15 779.511 1075.93L779.342 1076.18C776.713 1079.94 773.93 1083.91 769.997 1087.13L765.24 1087.05C770.697 1083.87 774.044 1079.08 777.325 1074.38L777.493 1074.16C780.163 1070.22 782.64 1066.18 785.256 1061.89C798.794 1039.72 814.125 1014.61 859.996 1010.41C921.885 1005.48 1022.96 1020.65 1095.13 1045.66C1128.65 1057.64 1159.77 1073.25 1186.28 1086.94C1190.89 1089.31 1195.37 1091.63 1199.74 1093.92ZM725.368 1086.42L715.676 1086.27C693.003 1078.28 665.943 1065.04 641.045 1052.85C634.338 1049.56 627.81 1046.37 621.585 1043.39C565.808 1017.25 504.141 984.08 444.502 951.987L443.95 951.691C390.437 922.901 339.898 895.717 294.431 873.892C244.382 849.93 206.196 836.243 169.255 823.01L169.247 823.01C146.135 814.735 122.233 806.178 95.7986 795.203C44.0383 773.313 -17.7008 737.093 -87.6964 687.555C-145.793 646.541 -220.542 586.336 -309.844 508.609C-382.753 445.28 -449.658 383.178 -514.398 318.793C-576.662 257.052 -694.154 135.422 -781.507 14.6011C-849.517 -79.4514 -874.583 -136.17 -892.742 -181.935L-890.37 -183.135C-872.284 -137.528 -847.304 -81.0277 -779.485 12.7518C-692.249 133.414 -574.875 254.92 -512.67 316.608C-447.974 380.957 -381.106 443.015 -308.241 506.309C-218.999 583.973 -144.338 644.116 -86.3011 685.086C-16.4465 734.535 45.1294 770.656 96.7185 792.473C123.086 803.422 146.966 811.97 170.056 820.236L170.063 820.236L170.145 820.263C207.109 833.505 245.346 847.202 295.47 871.208C341.145 893.133 391.906 920.442 445.645 949.358C505.254 981.432 566.899 1014.6 622.624 1040.7C628.856 1043.7 635.4 1046.9 642.106 1050.18L642.28 1050.26C670.459 1064.04 701.398 1079.18 725.368 1086.42ZM829.891 1088.07C842.134 1070.14 859.577 1053.82 895.581 1050.18C958.273 1044.63 1058.42 1059 1128.53 1083.63C1136.77 1086.61 1144.83 1089.82 1152.71 1093.18L1145.19 1093.06C1139.47 1090.72 1133.66 1088.46 1127.75 1086.33C1057.91 1061.79 958.183 1047.47 895.768 1053.02C861.657 1056.46 844.983 1071.03 832.996 1088.12L829.891 1088.07ZM647.303 1085.18L654.252 1085.29C602.125 1061.61 544.642 1031.86 489.041 1003.09L488.055 1002.58C433.823 974.527 382.607 948.038 336.369 926.967C286.882 904.408 248.784 891.828 211.931 879.66C185.886 871.06 158.962 862.167 128.473 849.864C75.3261 827.97 9.55297 790.031 -61.7406 740.133C-117.057 701.489 -185.189 647.825 -270.051 576.058C-350.079 508.461 -424.174 440.94 -496.552 369.623C-603.347 264.73 -701.145 153.883 -764.861 65.4904C-833.153 -29.2199 -856.905 -85.1866 -873.816 -130.226L-876.134 -129.113C-859.158 -83.9069 -835.313 -27.7036 -766.808 67.2801C-703.019 155.787 -605.11 266.767 -498.204 371.765C-425.782 443.127 -351.65 510.683 -271.571 578.325C-186.649 650.137 -118.451 703.862 -63.0751 742.551C8.35937 792.547 74.3033 830.576 127.606 852.533C158.162 864.863 185.131 873.774 211.213 882.384L211.4 882.447C248.126 894.579 286.12 907.122 335.413 929.591C381.879 950.77 433.414 977.439 487.967 1005.67C541.472 1033.35 596.724 1061.95 647.303 1085.18ZM932.486 1089.7C956.795 1087.6 985.427 1088.18 1015.3 1091.01L932.486 1089.7ZM587.568 1084.24C568.944 1075.1 550.253 1065.82 531.777 1056.63L531.625 1056.56C473.442 1027.64 418.493 1000.34 369.206 979.358C322.717 959.59 285.982 948.469 250.441 937.715C223.057 929.434 194.734 920.859 162.404 908.422C108.258 887.166 42.0636 850.283 -29.0496 801.772C-157.948 714.352 -322.006 577.805 -467.885 436.512C-532.577 374.235 -654.589 251.333 -745.1 127.839C-816.415 30.5379 -842.574 -29.0991 -860.217 -79.0284L-862.466 -78.0187C-844.759 -27.8706 -818.506 31.9856 -746.978 129.578C-656.343 253.23 -534.204 376.257 -469.477 438.586C-323.501 579.977 -159.318 716.613 -30.308 804.104C40.9386 852.713 107.304 889.677 161.606 910.997C193.929 923.433 222.215 931.99 249.554 940.271L249.807 940.344C285.289 951.08 321.972 962.183 368.349 981.905C417.54 1002.84 472.424 1030.11 530.531 1058.99L530.634 1059.04C547.419 1067.38 564.38 1075.82 581.308 1084.14L587.568 1084.24ZM517.307 1083.13L511.026 1083.03C472.067 1064.74 433.852 1047.43 399.604 1033.92C355.862 1016.7 320.446 1006.97 286.202 997.582L285.844 997.481C257.307 989.652 227.77 981.536 193.738 969.117C139.657 949.002 74.7347 914.126 0.761235 865.483C-67.1258 820.969 -153.726 755.315 -249.65 675.637C-319.12 618.015 -382.473 562.041 -443.298 504.521C-509.796 441.841 -635.454 317.749 -729.891 190.936C-808.031 86 -835.299 21.1889 -851.659 -28.363L-849.472 -29.2866C-833.169 20.0554 -806.016 84.6122 -728.103 189.239C-633.769 315.902 -508.236 439.871 -441.805 502.506C-381.002 560 -317.694 615.939 -248.26 673.516C-152.388 753.15 -65.8694 818.75 1.95111 863.211C74.7455 911.077 141.317 946.842 194.482 966.629C228.559 979.066 258.148 987.182 286.759 995.03L286.886 995.067L286.894 995.067C321.154 1004.47 356.595 1014.18 400.385 1031.44C436.259 1045.59 476.459 1063.89 517.307 1083.13ZM425.046 1081.67L417.085 1081.54C381.364 1069.25 350.891 1061.77 321.283 1054.52L321.181 1054.49C289.463 1046.71 256.651 1038.66 217.803 1024.75C161.898 1004.29 92.2286 967.319 16.3358 917.801C-48.3895 875.671 -128.136 816.371 -220.683 741.538C-297.701 679.337 -368.341 617.925 -436.615 553.806C-503.496 491.182 -629.754 367.158 -723.888 240.149C-802.512 134.056 -828.546 69.3693 -843.644 20.0987L-841.503 19.2614C-826.469 68.3306 -800.536 132.737 -722.154 238.522C-628.138 365.38 -501.989 489.281 -435.16 551.852C-366.923 615.935 -296.335 677.303 -219.361 739.468C-126.867 814.249 -47.1865 873.513 17.4794 915.606C93.2315 965.026 162.752 1001.94 218.5 1022.34C257.289 1036.22 290.071 1044.26 321.771 1052.04C353.419 1059.79 386.058 1067.8 425.046 1081.67ZM242.843 1078.78L235.457 1078.67C179.677 1057.96 112.702 1023.04 40.5762 976.972C-104.634 884.755 -277.698 747.735 -434.245 601.055C-501.212 538.647 -627.484 415.015 -720.878 288.131C-800.115 180.478 -825.232 113.706 -838.266 67.5778L-836.201 66.8266C-823.231 112.762 -798.207 179.245 -719.205 286.572C-625.921 413.306 -499.76 536.832 -432.859 599.178C-276.401 745.77 -103.455 882.692 41.6513 974.846C116.589 1022.7 185.91 1058.5 242.843 1078.78ZM137.727 1077.12L132.783 1077.04C111.084 1065.16 88.58 1052.05 65.4717 1037.83C-6.51158 993.63 -93.9432 931.299 -194.378 852.587C-272.589 791.377 -344.526 730.537 -414.279 666.613C-486.347 600.77 -621.871 470.346 -719.755 336.492C-799.554 227.402 -823.499 160.466 -835.425 114.338L-833.421 113.672C-821.536 159.582 -797.699 226.229 -718.143 334.994C-620.361 468.689 -484.963 599.007 -412.946 664.787C-343.238 728.676 -271.345 789.481 -193.164 850.664C-92.7958 929.331 -5.43792 991.609 66.486 1035.77C90.9968 1050.86 114.823 1064.69 137.727 1077.12ZM55.7216 1075.82L51.474 1075.76C-91.6148 985.403 -250.493 863.406 -398.432 730.111C-528.747 613.357 -646.43 487.187 -721.3 383.958C-801.327 273.688 -824.056 206.614 -834.919 160.503L-832.984 159.915C-822.171 205.808 -799.534 272.593 -719.742 382.519C-644.951 485.633 -527.379 611.68 -397.168 728.336C-248.187 862.563 -88.1218 985.327 55.7216 1075.82ZM-19.6173 1074.63L-23.3928 1074.57C-63.8663 1046.86 -107.223 1015.72 -153.225 981.301C-241.454 915.351 -322.294 849.344 -400.367 779.487C-531.548 662.527 -649.659 535.949 -724.409 432.183C-805.986 319.005 -827.524 249.128 -836.619 206.415L-834.76 205.905C-825.692 248.425 -804.246 317.996 -722.911 430.83C-648.257 534.482 -530.249 660.945 -399.172 777.798C-321.15 847.611 -240.347 913.591 -152.155 979.506C-105.124 1014.7 -60.8629 1046.46 -19.6173 1074.63ZM-95.7125 1073.43L-99.2259 1073.37C-201.63 1000.2 -307.145 915.827 -406.078 827.391C-537.486 710.577 -655.468 583.922 -729.779 479.884C-811.649 365.351 -832.058 295.083 -840.281 252.184L-838.49 251.742C-830.302 294.44 -809.979 364.402 -728.343 478.591C-654.12 582.515 -536.241 709.063 -404.929 825.772C-305.227 914.882 -198.852 999.881 -95.7125 1073.43ZM-169.201 1072.26L-172.812 1072.21C-247.451 1016.39 -322.224 955.796 -394.562 892.284C-473.644 823.204 -622.077 685.615 -727.679 540.368C-795.954 446.512 -833.46 369.492 -845.704 298.011L-843.99 297.638C-831.8 368.787 -794.402 445.517 -726.318 539.127C-620.826 684.224 -472.504 821.706 -393.481 890.742C-321.291 954.112 -245.257 1015.54 -169.201 1072.26ZM-242.877 1071.1L-245.866 1071.05C-292.808 1034.47 -339.307 996.387 -384.473 957.459C-465.187 888.249 -617.011 749.953 -726.944 601.397C-800.218 502.427 -841.342 418.242 -852.651 344.041L-851.013 343.718C-839.751 417.588 -798.75 501.483 -725.666 600.189C-615.828 748.613 -464.115 886.802 -383.46 955.968C-337.658 995.446 -290.485 1034.04 -242.877 1071.1ZM-316.036 1069.94L-318.785 1069.9C-344.137 1049.3 -369.252 1028.31 -394.039 1007.01C-474.851 937.859 -626.766 799.606 -736.301 650.56C-809.969 550.372 -850.711 465.288 -860.841 390.434L-859.278 390.154C-849.188 464.685 -808.561 549.489 -735.077 649.429C-625.644 798.343 -473.841 936.49 -393.087 1005.6C-367.716 1027.4 -341.995 1048.87 -316.036 1069.94ZM-388.333 1068.8L-390.857 1068.76C-395.375 1064.92 -399.877 1061.07 -404.372 1057.22C-485.253 988.137 -637.235 849.9 -746.433 700.319C-820.493 598.924 -860.92 512.877 -869.997 437.274L-868.517 437.036C-859.473 512.317 -819.161 598.091 -745.269 699.24C-636.175 848.689 -484.296 986.837 -403.467 1055.88C-398.44 1060.2 -393.39 1064.5 -388.333 1068.8ZM-459.102 1067.68L-461.424 1067.64C-549.83 988.727 -667.963 873.508 -757.031 750.717C-831.522 648.112 -871.679 561.103 -879.829 484.687L-878.432 484.483C-870.322 560.585 -830.251 647.348 -755.943 749.706C-666.465 873.061 -547.605 988.78 -459.102 1067.68ZM-527.983 1066.59L-529.856 1066.56C-550.321 1047.24 -570.186 1027.86 -589.236 1008.65C-660.652 936.653 -720.732 867.028 -767.804 801.756C-841.692 699.387 -882.812 608.861 -890.022 532.695L-888.693 532.525C-881.509 608.411 -840.489 698.675 -766.77 800.822C-728.431 853.997 -652.791 948.867 -527.983 1066.59ZM-593.599 1065.55L-595.344 1065.52C-596.598 1064.27 -597.852 1063 -599.098 1061.74C-670.639 989.594 -730.797 919.759 -777.917 854.155C-852.569 750.346 -893.729 658.565 -900.256 581.356L-899.01 581.21C-892.509 658.149 -851.442 749.684 -776.944 853.282C-744.634 898.26 -685.885 972.829 -593.599 1065.55ZM-655.655 1064.57L-657.356 1064.54C-708.119 1009.98 -751.969 956.967 -788.125 906.405C-863.209 801.526 -904.287 708.754 -910.215 630.657L-909.059 630.544C-903.15 708.371 -862.151 800.907 -787.206 905.592C-761.43 941.635 -718.788 996.602 -655.655 1064.57ZM-713.809 1063.65L-715.33 1063.62C-736.946 1038.46 -757.9 1012.6 -777.707 986.262C-825.057 923.346 -861.188 863.647 -885.092 808.81C-905.36 762.341 -916.958 719.197 -919.569 680.594L-918.504 680.498C-915.89 718.953 -904.335 761.957 -884.132 808.277C-860.256 863.017 -824.176 922.637 -776.885 985.483C-756.866 1012.11 -735.676 1038.22 -713.809 1063.65ZM-766.937 1062.81L-768.277 1062.79C-774.307 1055.09 -780.247 1047.34 -786.088 1039.55C-833.487 976.399 -869.65 916.351 -893.585 861.087C-914.013 813.91 -925.595 770.174 -928.019 731.095L-927.021 731.007C-920.4 838.208 -846.309 957.573 -785.327 1038.83C-779.303 1046.87 -773.165 1054.87 -766.937 1062.81ZM-814.513 1062.05L-815.682 1062.04C-871.539 982.243 -929.803 877.509 -935.247 782.077L-934.34 782.022C-928.903 877.445 -870.423 982.304 -814.513 1062.05ZM-855.7 1061.4L-856.704 1061.39C-899.781 990.82 -936.922 909.242 -940.945 833.431L-940.127 833.366C-936.097 909.185 -898.844 990.826 -855.7 1061.4ZM-889.889 1060.86L-890.751 1060.85C-920.008 1003.79 -941.978 942.767 -944.856 885.032L-944.121 884.983C-941.236 942.718 -919.206 1003.79 -889.889 1060.86ZM-916.258 1060.44L-916.94 1060.43C-937.844 1008.24 -945.271 967.122 -946.708 936.691L-946.055 936.649C-944.14 977.131 -932.87 1019.22 -916.258 1060.44ZM-933.72 1060.17L-934.32 1060.16C-942.075 1031.74 -945.405 1007.8 -946.279 988.238L-945.709 988.204C-944.835 1007.76 -941.497 1031.72 -933.72 1060.17ZM-941.211 1060.05L-941.698 1060.04C-942.556 1052.71 -943.085 1045.86 -943.358 1039.46L-942.878 1039.44C-942.605 1045.84 -942.077 1052.71 -941.211 1060.05ZM1293.33 860.343C1292.45 857.594 1291.58 854.845 1290.72 852.096C1279.62 816.286 1273.47 786.651 1271.4 758.849C1270.99 753.512 1270.52 747.947 1270.04 742.547L1270.02 742.338C1268.13 720.514 1266.17 697.94 1268.32 676.442C1270.58 654.222 1281.3 634.837 1297.12 621.132L1297.05 625.53C1282.91 638.555 1273.38 656.427 1271.32 676.812C1269.19 698.023 1271.14 720.483 1273.05 742.203L1273.13 743.206C1273.58 748.291 1274.03 753.507 1274.41 758.548C1276.46 785.984 1282.52 815.269 1293.49 850.685L1293.33 860.343ZM1295.16 744.626C1294.25 732.025 1293.92 719.407 1295.07 707.108C1295.26 705.047 1295.52 703.013 1295.85 701.006L1295.16 744.626ZM-1062.49 -562.921C-1065.73 -568.956 -1068.77 -574.744 -1071.64 -580.312C-1068.63 -574.498 -1065.58 -568.692 -1062.49 -562.921ZM-1062.49 -562.921C-1062.05 -562.086 -1061.61 -561.252 -1061.15 -560.408L-1060.2 -558.651L-1060.22 -558.669C-1060.98 -560.083 -1061.74 -561.498 -1062.49 -562.921Z" fill="#C4C4C4"/>
<path fill-rule="evenodd" clip-rule="evenodd" d="M1299.85 448.715L1299.78 453.009C1278.22 442.389 1255.52 433.224 1230.17 429.46C1207.31 426.119 1182.74 429.206 1162.74 437.931C1146.99 444.816 1126.45 458.472 1118.15 484.454C1112.57 502.284 1111.17 521.939 1109.83 540.933L1109.81 541.115L1109.78 541.542L1109.78 541.55C1109.39 547.18 1108.98 552.992 1108.46 558.55C1105.87 586.026 1108.33 615.323 1115.97 648.117C1119.85 664.764 1124.98 681.508 1129.95 697.701L1129.97 697.78L1130.07 698.113C1132.18 704.984 1134.35 712.074 1136.39 719.048L1137.13 721.577C1142.44 739.596 1147.91 758.227 1145.02 775.411C1143.54 784.734 1138.65 792.47 1130.47 798.412C1117.6 807.738 1098.77 811.203 1079.81 810.903C1066.17 810.687 1052.47 808.51 1040.9 805.174C1006.45 795.413 973.711 774.608 942.033 754.482L941.893 754.393C929.311 746.398 916.299 738.135 903.342 730.648C875.013 714.233 846.104 702.025 815.502 689.094L815.246 688.985C809.634 686.623 803.932 684.207 798.127 681.728C789.977 678.246 781.768 674.701 773.493 671.121C745.934 659.213 717.431 646.898 688.48 635.857C612.683 607.76 509.347 575.995 446.64 571.1C410.937 568.706 391.829 579.126 373.343 589.208C364.703 593.923 356.554 598.367 346.952 601.412C335.508 604.863 323.185 607.046 298.238 595.824C288.12 591.257 275.926 584.339 260.928 574.642C235.339 558.088 208.091 538.442 181.709 519.427L181.709 519.418L181.702 519.418L181.694 519.409L181.183 519.044C174.219 514.013 167.24 508.989 160.283 504.001C79.977 446.896 -9.97535 373.384 -96.9685 302.28C-127.771 277.107 -156.858 253.337 -184.833 230.848C-227.737 196.668 -276.557 158.005 -313.112 131.739C-338.976 113.142 -360.32 99.6604 -380.93 86.6256L-380.937 86.6255L-381.271 86.4111L-383.348 85.0979L-383.371 85.0802L-383.378 85.0801C-394.239 78.2098 -404.611 71.6434 -415.681 64.2907C-466.413 30.4489 -514.044 -8.08245 -570.144 -60.6498C-613.368 -101.115 -673.536 -163.241 -748.966 -245.303C-805.518 -306.736 -857.416 -365.404 -907.619 -424.647C-993.757 -526.146 -1066.46 -619.559 -1123.71 -702.3C-1149.11 -739.025 -1169.88 -771.208 -1187.41 -799.925C-1190.76 -806.206 -1194.47 -812.205 -1198.18 -818.204C-1202.28 -824.826 -1206.37 -831.447 -1209.98 -838.443L-1210.26 -838.457C-1229.47 -871.865 -1244.21 -900.149 -1257.43 -925.504L-1257.66 -925.955L-1256.24 -926.891L-1256.24 -926.882C-1250.05 -916.105 -1243.42 -904.824 -1236.26 -892.978L-1236.32 -893.08L-1236.26 -892.978C-1237.53 -895.37 -1238.79 -897.734 -1240.03 -900.072L-1241.68 -903.204L-1243.82 -907.276C-1245.16 -909.827 -1246.54 -912.455 -1247.91 -915.077L-1249.65 -918.397L-1251.1 -921.191C-1246.18 -911.76 -1241.23 -902.352 -1236.23 -892.969C-1210.68 -845.005 -1177.06 -785.903 -1120.92 -704.738C-1063.74 -622.094 -991.115 -528.778 -905.066 -427.385C-853.287 -366.367 -800.425 -306.604 -746.501 -248.148C-671.137 -166.147 -611.028 -104.092 -567.871 -63.6975C-511.925 -11.272 -464.428 27.1529 -413.867 60.8875C-402.128 68.6776 -391.149 75.6194 -379.523 82.9634L-379.427 83.0258L-379.419 83.0259C-358.683 96.1324 -337.236 109.686 -311.194 128.407C-274.587 154.717 -225.708 193.417 -182.774 227.623C-153.401 251.31 -124.106 275.127 -94.8872 299.072L-94.6876 299.241C-7.79772 370.248 82.0288 443.662 162.179 500.652C169.144 505.64 176.123 510.663 183.087 515.703L183.398 515.926C209.809 534.967 237.11 554.649 262.684 571.203C277.533 580.793 289.593 587.657 299.548 592.134C323.498 602.914 335.212 600.869 346.024 597.582C355.302 594.645 363.321 590.278 371.816 585.639C390.696 575.345 410.229 564.697 446.875 567.141C509.926 572.067 613.59 603.924 689.596 632.094C718.629 643.172 747.169 655.496 774.757 667.422C788.643 673.451 802.553 679.394 816.489 685.268L816.506 685.277C847.293 698.272 876.368 710.552 904.964 727.119C917.474 734.347 929.987 742.28 942.144 749.989L942.15 749.99L943.641 750.936C975.154 770.964 1007.74 791.671 1041.79 801.33C1068.69 809.124 1107.32 810.485 1128.57 795.081C1135.89 789.77 1140.26 782.932 1141.56 774.703C1144.27 758.51 1138.94 740.36 1133.79 722.814L1133.04 720.293C1130.97 713.222 1128.77 706.027 1126.63 699.069L1126.61 698.99C1121.62 682.727 1116.46 665.912 1112.55 649.117C1104.8 615.851 1102.31 586.091 1104.95 558.137C1105.46 552.64 1105.86 547.124 1106.28 541.303L1106.31 540.799C1107.67 521.483 1109.08 501.523 1114.84 483.13C1121.78 461.446 1137.9 444.542 1161.49 434.236C1182.01 425.275 1207.22 422.102 1230.64 425.539C1255.91 429.284 1278.47 438.256 1299.85 448.715ZM1299.57 466.359L1299.5 470.434C1284.86 464.645 1269.52 460.169 1253.05 458.158C1211.52 453.145 1160.36 471.316 1147.25 514.775C1141.52 534.161 1140.75 555.533 1140.01 576.226L1140.01 576.392L1140 576.592C1139.8 582.381 1139.61 587.848 1139.31 593.314C1137.79 620.597 1141.14 650.049 1149.58 683.334C1153.65 699.426 1158.79 715.596 1163.76 731.241L1163.89 731.634L1163.89 731.643C1166.3 739.242 1168.8 747.086 1171.13 754.806L1171.6 756.373C1177.21 774.928 1183 794.095 1180.32 811.944C1178.99 821.366 1174.24 829.269 1166.21 835.414C1153 845.527 1132.93 849.26 1113.28 848.949C1101.94 848.769 1090.73 847.242 1081.07 844.798C1045.14 835.928 1010.97 814.099 977.916 792.976L977.672 792.824L977.67 792.815L977.665 792.815C964.599 784.464 951.087 775.836 937.651 768.149C911.472 753.084 884.887 742.019 856.749 730.302L856.547 730.221C851.098 727.957 845.567 725.648 839.925 723.277C833.326 720.49 826.678 717.658 819.989 714.817L816.807 713.46C789.395 701.772 761.045 689.686 732.157 678.942C662.212 653.681 557.284 622.632 491.765 618.302C454.328 616.194 435.491 627.987 417.286 639.388L417.273 639.397L417.23 639.422C409.141 644.486 401.5 649.269 392.432 652.757C381.526 656.766 369.674 659.488 344.942 648.888C334.746 644.502 322.169 637.639 307.538 628.479C285.338 614.583 262.034 598.509 239.472 582.952L238.731 582.444C231.467 577.425 224.18 572.406 216.894 567.421C136.213 512.697 45.6462 441.536 -41.9524 372.704L-43.7658 371.282C-75.2868 346.515 -105.113 323.091 -133.636 301.116C-231.723 225.524 -288.677 189.938 -348.969 152.269L-354.393 148.873C-407.627 115.035 -457.8 75.671 -517.101 21.2587C-573.64 -30.5578 -647.636 -107.65 -699.762 -163.194C-757.116 -224.205 -809.701 -282.509 -860.553 -341.448C-947.822 -442.46 -1021.37 -535.581 -1079.14 -618.191C-1104.06 -653.837 -1124.4 -685.029 -1141.5 -712.808C-1149.94 -728.504 -1157.35 -742.906 -1164.29 -756.407L-1164.33 -756.474L-1164.34 -756.502L-1164.36 -756.542L-1164.37 -756.552L-1164.37 -756.556L-1164.38 -756.573L-1164.38 -756.588L-1164.4 -756.609L-1164.74 -757.277L-1164.75 -757.286L-1167.05 -755.772C-1185.06 -787.214 -1198.87 -813.852 -1211.28 -837.785L-1210.27 -838.443C-1202.82 -825.479 -1195.21 -812.638 -1187.44 -799.926L-1187.44 -799.952L-1187.42 -799.917C-1162.95 -754.191 -1130.44 -697.834 -1076.44 -620.596C-1018.74 -538.083 -945.271 -445.067 -858.075 -344.144C-807.26 -285.24 -754.704 -226.971 -697.395 -165.997C-645.305 -110.496 -571.368 -33.4748 -514.918 18.2706C-455.78 72.5411 -405.74 111.79 -352.699 145.511L-347.282 148.89L-347.163 148.961C-286.856 186.648 -229.843 222.279 -131.675 297.924C-103.84 319.374 -74.7767 342.212 -44.0843 366.312L-44.0693 366.321L-39.9694 369.547L-39.414 369.983L-39.4069 369.992C47.9775 438.629 138.285 509.577 218.699 564.123C225.986 569.116 233.28 574.144 240.543 579.154C263.306 594.862 286.855 611.106 309.239 625.118C323.73 634.188 336.166 640.979 346.198 645.293C369.888 655.441 381.093 652.883 391.373 649.108C400.141 645.737 407.664 641.03 415.618 636.043L415.689 636.001C434.314 624.353 453.575 612.315 491.983 614.465C557.831 618.816 663.088 649.95 733.249 675.292C762.196 686.055 790.554 698.15 817.982 709.847L818.047 709.874L820.974 711.122C827.742 713.999 834.469 716.867 841.151 719.69C846.785 722.062 852.316 724.362 857.765 726.625L857.855 726.662C886.132 738.433 912.856 749.552 939.241 764.743C952.815 772.527 966.45 781.227 979.632 789.649C1012.46 810.63 1046.41 832.316 1081.84 841.065C1107.54 847.543 1144.3 847.541 1164.31 832.257C1171.52 826.744 1175.78 819.721 1176.95 811.369C1179.49 794.493 1173.85 775.798 1168.39 757.716L1168.38 757.663L1167.91 756.105C1165.78 749.042 1163.5 741.863 1161.29 734.877L1161.29 734.868L1160.56 732.592C1155.57 716.895 1150.41 700.647 1146.3 684.45C1137.77 650.727 1134.37 620.857 1135.91 593.121C1136.21 587.699 1136.41 582.241 1136.61 576.477L1136.62 576.294C1137.35 555.287 1138.12 533.567 1144.03 513.591C1157.72 468.217 1210.61 449.194 1253.44 454.314C1269.81 456.306 1285.05 460.685 1299.57 466.359ZM1299.25 486.571L1299.19 490.428C1292.6 488.704 1285.85 487.326 1278.9 486.432C1256.86 483.592 1233.29 487.74 1214.23 497.786C1199.48 505.567 1180.53 520.432 1174.02 547.096C1169.16 567.35 1169.04 589.473 1168.92 610.881L1168.91 611.508C1168.88 616.752 1168.85 621.707 1168.75 626.688C1168.17 654.074 1172.3 683.685 1181.39 717.217C1185.44 732.15 1190.37 747.184 1195.13 761.736L1195.27 762.165C1198.25 771.158 1201.15 780.193 1203.96 789.262L1204.26 790.207L1204.26 790.225C1209.82 808.309 1216.12 828.808 1213.45 847.067C1212.09 857.098 1207.07 865.459 1198.56 871.918C1185.14 882.089 1165.22 885.867 1145.67 885.558C1133.76 885.369 1122 883.659 1111.95 880.974C1077.95 872.048 1045.79 851.322 1014.69 831.266L1014.44 831.105C1002.87 823.649 990.906 815.942 979.041 808.977C950.318 792.06 922.062 780.246 889.323 766.575L879.483 762.456C873.291 759.858 867.066 757.216 860.801 754.565L860.768 754.555L860.744 754.546L859.981 754.221C830.313 741.661 799.624 728.676 768.174 717.421C696.061 692.36 595.808 665.566 534.418 662.182C494.996 660.391 476.208 673.804 458.05 686.774C451.274 691.614 444.87 696.182 437.521 699.898C426.874 705.078 416.147 708.654 392.742 699.904C381.607 695.712 368.153 688.818 351.617 678.827C327.45 664.229 302.135 647.4 277.666 631.125L275.864 629.929L275.827 629.903L275.812 629.894C270.154 626.137 264.489 622.372 258.816 618.632C182.112 568.326 96.3015 503.433 13.305 440.667L13.0384 440.463C-19.3486 415.97 -49.9363 392.838 -79.1023 371.245C-171.702 302.622 -226.428 269.762 -284.354 234.979L-284.443 234.925L-301.069 224.932C-350.553 194.577 -399.821 157.292 -456.117 107.569C-518.635 52.4181 -597.983 -28.2952 -653.518 -86.2977C-711.547 -146.787 -764.819 -204.763 -816.393 -263.521C-877.147 -332.634 -964.797 -436.614 -1037.39 -539.493C-1061.89 -574.218 -1081.84 -604.55 -1098.54 -631.486C-1095.06 -625.028 -1091.35 -618.306 -1086.89 -610.361L-1086.84 -610.282C-1081.86 -600.23 -1076.8 -590.246 -1071.64 -580.312C-1077.22 -591.097 -1082.2 -601.036 -1086.83 -610.29C-1065.62 -572.656 -1037.33 -526.713 -996.272 -468.966C-923.214 -366.263 -834.629 -262.669 -773.174 -193.867C-721.085 -135.431 -667.17 -77.7857 -608.35 -17.6494C-552.252 39.8132 -471.795 120.047 -407.078 175.948C-349.303 225.929 -299.205 262.931 -249.423 292.394C-242.162 296.612 -235.033 300.722 -227.964 304.789L-227.949 304.798L-227.935 304.807L-221.452 308.542C-167.179 339.757 -115.921 369.243 -31.7902 428.961C-1.34286 450.548 30.8285 473.983 64.8446 498.754L67.4078 500.624C145.81 557.752 226.88 616.82 299.633 662.987L316.501 673.811C344.332 691.708 373.112 710.212 399.884 725.426C415.583 734.35 428.272 740.334 438.709 743.696C460.571 750.732 469.406 745.497 477.944 740.441L478.214 740.271C484.277 736.569 489.701 732.169 495.441 727.512L495.478 727.487L495.486 727.478C512.107 714.013 530.938 698.763 569.987 699.163C634.606 700.639 738.985 727.612 813.773 753.672C843.312 764.305 871.977 776.439 899.715 788.176L899.721 788.176L899.913 788.257L912.134 793.433C915.596 794.89 919.014 796.321 922.401 797.733C923.922 798.367 925.439 799.001 926.947 799.634L926.976 799.643C956.242 811.866 983.887 823.409 1010.71 839.26C1023.31 846.689 1035.94 854.929 1048.14 862.909C1079.09 883.137 1111.1 904.052 1144.88 912.783C1175.85 920.947 1209.85 917.147 1227.54 903.534C1235.45 897.449 1240.05 889.664 1241.25 880.346C1243.77 861.832 1237.01 840.541 1231.03 821.762L1230.44 819.906C1227.74 811.397 1224.84 802.728 1222.03 794.356C1217.27 780.135 1212.36 765.423 1208.16 750.775C1198.18 715.845 1193.39 686.606 1193.1 658.771C1193.03 651.985 1193.24 645.133 1193.45 638.525L1193.46 638.281L1193.46 638.133C1193.72 630.106 1193.98 621.809 1193.74 613.547C1193.44 603.438 1193.42 590.189 1195.94 577.25C1205.74 527.703 1256.19 505.392 1298.89 509.448L1298.83 513.131C1243.48 507.709 1206.15 542.5 1199.12 578.015C1196.69 590.546 1196.71 603.508 1196.99 613.407C1197.25 621.843 1196.98 630.253 1196.72 638.385L1196.69 639.116C1196.49 645.541 1196.28 652.167 1196.35 658.701C1196.65 686.161 1201.38 715.051 1211.27 749.622C1215.44 764.191 1220.34 778.859 1225.08 793.037C1227.89 801.426 1230.79 810.104 1233.5 818.648L1234.09 820.504C1240.2 839.694 1247.11 861.449 1244.46 880.875C1243.14 891.237 1238.05 899.876 1229.35 906.568C1215.73 917.04 1195.55 920.928 1175.96 920.618C1164.68 920.44 1153.61 918.871 1144.1 916.368C1109.85 907.508 1077.62 886.459 1046.46 866.088L1046.22 865.927C1034.12 858.027 1021.61 849.859 1009.14 842.519C982.522 826.785 954.991 815.278 925.847 803.11L925.769 803.074L922.946 801.897C918.998 800.249 914.996 798.583 910.941 796.872L898.712 791.697L898.137 791.452C870.568 779.788 842.058 767.735 812.758 757.175C709.839 721.314 614.714 703.869 569.892 702.829C531.94 702.437 514.359 716.68 497.371 730.435L497.349 730.452C491.504 735.194 485.986 739.662 479.721 743.5L479.426 743.67C470.75 748.82 460.894 754.665 437.761 747.226C427.131 743.792 414.248 737.726 398.379 728.703C371.541 713.453 342.759 694.949 314.915 677.044L314.84 676.999C309.217 673.383 303.595 669.766 297.987 666.184C225.233 620.008 144.208 560.984 65.8351 503.883L65.5981 503.705L65.2797 503.474C30.4489 478.098 -2.46324 454.111 -33.5553 432.069C-117.568 372.44 -168.759 342.989 -222.958 311.81L-228.326 308.72C-235.781 304.43 -243.288 300.104 -250.951 295.654C-300.911 266.083 -351.164 228.974 -409.094 178.869C-473.9 122.897 -554.431 42.5836 -610.566 -14.9232C-669.423 -75.1036 -723.367 -132.785 -775.493 -191.256C-837 -260.137 -925.681 -363.819 -998.826 -466.672C-1023.46 -501.312 -1043.5 -531.733 -1060.2 -558.651C-1058.41 -555.339 -1056.56 -551.939 -1054.64 -548.467L-1054.27 -548.697L-1050.61 -541.218L-1050.54 -541.077C-1029.99 -504.499 -1002.35 -459.681 -961.8 -402.961C-888.601 -300.612 -799.475 -197.637 -737.607 -129.299C-678.805 -64.2157 -618.356 -0.891671 -552.797 64.2989C-469.653 147.145 -402.866 209.524 -354.302 249.664C-298.262 296.107 -249.124 331.248 -204.102 357.09C-188.686 365.87 -174.818 373.076 -160.132 380.703C-143.365 389.4 -126.034 398.403 -106.27 409.952C-72.2741 429.827 -28.317 459.015 14.1282 487.613C45.1226 508.73 78.0635 531.846 112.894 556.281L112.909 556.29L115.658 558.224L116.259 558.643C196.917 615.249 280.274 673.735 354.236 718.327C359.951 721.823 365.91 725.524 372.018 729.323L374.813 731.065C409.835 752.865 449.51 777.56 475.374 785.713C498.24 792.999 507.349 787.028 514.64 782.24C520.604 778.197 525.868 773.428 531.433 768.386L531.617 768.223C548.174 753.198 566.959 736.161 609.15 736.794C665.386 738.198 762.877 759.043 846.229 787.504C877.854 798.64 908.303 811.612 937.754 824.169L948.04 828.547L957.85 832.709C989.186 845.957 1016.24 857.413 1043.46 873.889C1055.36 881.063 1067.31 889.022 1078.87 896.722L1078.9 896.749C1109.53 917.128 1141.2 938.195 1174.74 946.687C1205.01 954.474 1238.37 950.411 1255.87 936.812C1263.99 930.504 1268.7 922.425 1269.89 912.767C1272.4 893.748 1265.46 871.983 1259.34 852.767L1259.31 852.671L1259 851.707C1255.88 841.902 1252.5 831.945 1249.22 822.311C1244.28 807.8 1239.17 792.798 1234.8 777.834C1225.13 744.746 1220.1 716.941 1218.95 690.329C1218.59 682.031 1218.58 673.669 1218.57 665.585L1218.57 664.348C1218.55 656.456 1218.53 648.32 1218.17 640.231C1217.57 627.156 1217.93 617.17 1219.3 607.846C1222.78 584.618 1235.67 564.482 1255.61 551.148C1268.15 542.758 1283.07 537.446 1298.47 535.599L1298.41 539.23C1262.73 543.779 1228.52 567.766 1222.43 608.435C1221.09 617.499 1220.75 627.258 1221.33 640.072C1221.72 648.667 1221.74 657.273 1221.75 665.601C1221.7 673.797 1221.83 681.986 1222.12 690.17C1223.25 716.45 1228.24 743.95 1237.82 776.723C1242.16 791.565 1247.23 806.479 1252.14 820.912L1252.18 821.043C1255.47 830.694 1258.86 840.669 1262 850.509L1262.3 851.472L1262.34 851.595C1268.59 871.197 1275.67 893.399 1273.03 913.287C1271.71 923.954 1266.54 932.87 1257.67 939.767C1243.88 950.49 1223.94 954.521 1204.46 954.213C1193.81 954.044 1183.3 952.571 1174.02 950.186C1139.98 941.581 1108.08 920.354 1077.23 899.814L1076.96 899.636L1076.96 899.627C1065.51 892.016 1053.68 884.146 1041.94 877.07C1014.95 860.729 988.018 849.327 956.85 836.126L956.718 836.071C954.634 835.193 952.537 834.307 950.422 833.411C949.251 832.913 948.075 832.415 946.893 831.918L936.607 827.539C907.207 815.001 876.796 802.046 845.276 790.947C762.177 762.586 665.044 741.79 609.078 740.408C568.063 739.802 550.553 755.675 533.622 771.016L533.603 771.033C527.886 776.221 522.496 781.11 516.255 785.349C506.631 791.66 496.847 796.305 474.502 789.192C448.299 780.929 408.47 756.135 373.318 734.256L373.272 734.229L371.134 732.897C364.797 728.956 358.624 725.121 352.725 721.509C278.488 676.755 194.85 618.056 113.969 561.29C78.1305 536.124 44.2783 512.366 12.4835 490.696C-29.91 462.143 -73.8223 432.973 -107.752 413.16C-127.241 401.754 -144.386 392.842 -160.952 384.244L-161.465 383.975C-176.181 376.338 -190.078 369.123 -205.547 360.29C-250.731 334.358 -300.003 299.128 -356.183 252.57C-404.836 212.341 -471.69 149.909 -554.907 66.9918C-620.504 1.75716 -680.989 -61.6022 -739.843 -126.722C-801.769 -195.147 -890.984 -298.211 -964.278 -400.709C-989.005 -435.281 -1008.93 -465.447 -1025.4 -492.04C-1023.16 -487.928 -1020.91 -483.824 -1018.65 -479.738L-1020.13 -482.401L-1022.62 -480.881C-1022.07 -479.705 -1021.5 -478.52 -1020.91 -477.317L-1020.61 -476.677C-1033.83 -500.335 -1043.89 -520.38 -1052.55 -537.947C-1043.8 -522.434 -1034.76 -507.144 -1025.43 -492.092L-1025.48 -492.189C-1034.79 -507.205 -1043.82 -522.461 -1052.54 -537.947C-1067.7 -564.867 -1079.01 -587.336 -1088.74 -606.793L-1088.77 -606.837C-1104.77 -635.147 -1116.78 -658.786 -1127.14 -679.176L-1126.95 -679.295C-1143.42 -708.25 -1156.07 -732.875 -1167.51 -755.114L-1167.52 -755.139L-1167.53 -755.156L-1167.54 -755.176L-1167.55 -755.205L-1167.56 -755.218L-1167.64 -755.372L-1167.05 -755.754C-1158.74 -741.271 -1150.23 -726.95 -1141.51 -712.799C-1118.07 -669.181 -1086.65 -615.392 -1034.77 -541.856C-962.262 -439.108 -874.693 -335.234 -814.005 -266.184C-762.468 -207.443 -709.225 -149.521 -651.241 -89.0665C-595.736 -31.108 -516.477 49.5341 -454.039 104.597C-397.892 154.186 -348.778 191.365 -299.466 221.613L-282.854 231.597C-224.832 266.434 -170.032 299.338 -77.2466 368.086C-48.2659 389.555 -17.8853 412.526 14.2575 436.832L14.3091 436.876L14.3314 436.886L14.9163 437.33C97.9572 500.132 183.827 565.069 260.516 615.375C265.93 618.954 271.328 622.541 276.719 626.119L279.373 627.886L280.723 628.778L280.723 628.787C304.755 644.742 329.542 661.213 353.206 675.499C369.571 685.391 382.861 692.204 393.818 696.323C417.901 705.328 428.042 700.401 436.167 696.453C443.253 692.872 449.527 688.39 456.173 683.652L456.257 683.592C473.983 670.929 494.074 656.596 534.575 658.421C596.272 661.819 696.86 688.688 769.183 713.83C800.737 725.122 831.463 738.125 861.168 750.703C867.703 753.472 874.209 756.223 880.67 758.938L890.496 763.04L890.512 763.048C923.339 776.773 951.69 788.615 980.593 805.64C992.514 812.64 1004.51 820.373 1016.11 827.856L1016.36 828.008L1016.42 828.053C1047.3 847.948 1079.22 868.523 1112.71 877.31C1144.38 885.781 1178.9 882.286 1196.69 868.796C1204.39 862.968 1208.91 855.471 1210.14 846.509C1212.66 829.154 1206.78 809.994 1201.08 791.463L1200.79 790.518C1198.03 781.511 1195.02 772.353 1192.11 763.491L1191.93 762.913C1187.16 748.361 1182.24 733.327 1178.17 718.324C1168.97 684.417 1164.8 654.421 1165.39 626.626C1165.48 621.706 1165.51 616.777 1165.54 611.577L1165.54 611.568L1165.55 610.889C1165.67 589.245 1165.8 566.87 1170.77 546.13C1177.62 518.069 1197.41 502.511 1212.8 494.392C1232.4 484.067 1256.64 479.79 1279.3 482.684C1286.13 483.567 1292.77 484.9 1299.25 486.571ZM1297.83 576.267L1297.77 580.02C1290.83 582.654 1284.24 586.078 1278.27 590.304C1260.21 603.084 1248.57 622.002 1245.5 643.529C1242.61 664.015 1244.08 685.858 1245.5 706.994L1245.5 707.003C1245.88 712.758 1246.29 718.714 1246.57 724.424C1248.03 753.026 1254.08 783.687 1265.6 820.907C1269.03 831.867 1273.37 843.285 1277.98 855.361C1283.25 869.207 1288.58 883.237 1292.75 897.118L1292.58 908.187C1288.25 891.237 1281.64 873.833 1275.13 856.736L1274.91 856.149C1270.37 844.231 1266.08 832.961 1262.69 822.071C1251.05 784.519 1244.95 753.561 1243.47 724.636C1243.19 718.944 1242.81 713.276 1242.4 707.268C1240.97 685.939 1239.49 663.869 1242.44 642.984C1245.65 620.44 1257.8 600.685 1276.64 587.343C1283.19 582.716 1290.33 579.032 1297.83 576.267ZM1291.76 959.906L1291.67 965.566C1289.49 968.258 1287.06 970.65 1284.41 972.698C1270.58 983.516 1250.65 987.591 1231.32 987.285C1221.04 987.122 1210.92 985.725 1201.98 983.423C1167.81 974.808 1135.88 953.014 1105 931.943L1104.98 931.925C1092.89 923.668 1080.38 915.134 1067.95 907.533C1043.19 892.351 1017.08 881.137 989.432 869.271L979.682 865.075L970.052 860.916C941.028 848.349 911.014 835.365 879.74 824.339C795.188 795.476 696.402 775.447 639.535 775.592C599.592 776.215 582.964 793.033 566.891 809.294L566.858 809.328L566.674 809.517C562.067 814.174 557.7 818.582 552.809 822.581C545.464 828.414 536.323 835.674 513.449 829.606C503.256 826.884 490.32 821.418 475.012 813.354C452.779 801.652 429.058 787.488 406.113 773.789L405.924 773.673C399.192 769.647 392.452 765.621 385.748 761.656C315.196 720.331 236.309 666.829 160.017 615.083C121.6 589.023 85.3258 564.416 51.4924 542.305C12.537 517.142 -31.8395 488.897 -65.5486 470.298C-83.2052 460.542 -99.0341 452.722 -114.328 445.163L-115.064 444.803L-115.421 444.623C-131.079 436.902 -145.897 429.586 -162.617 420.332C-208.223 394.968 -258.499 359.775 -316.336 312.754C-365.799 272.626 -435.951 208.295 -519.189 126.71C-585.702 61.644 -646.924 -1.54411 -706.365 -66.5072C-769.042 -134.858 -859.246 -237.911 -933.061 -340.644C-959.916 -378.054 -980.951 -410.093 -997.918 -437.904C-1005.03 -451.71 -1011.93 -465.669 -1018.63 -479.755C-998.611 -443.812 -971.333 -399.514 -930.643 -342.844C-856.939 -240.235 -766.823 -137.296 -704.205 -69.0078C-644.801 -4.09759 -583.615 59.0552 -517.147 124.077C-433.967 205.591 -363.905 269.86 -314.5 309.918C-256.797 356.84 -206.662 391.935 -161.227 417.209C-144.751 426.329 -130.082 433.573 -114.632 441.204L-114.625 441.204L-114.625 441.212L-113.8 441.617C-98.238 449.285 -82.1561 457.222 -64.1653 467.167C-30.3746 485.82 14.0466 514.083 53.0613 539.281C86.9243 561.419 123.221 586.035 161.645 612.095L162.171 612.451C238.256 664.046 316.896 717.388 387.206 758.56C392.704 761.818 398.207 765.102 403.71 768.386L407.397 770.587L407.778 770.81C430.633 784.464 454.247 798.557 476.343 810.187C491.473 818.153 504.209 823.537 514.185 826.204C535.704 831.918 543.854 825.436 551.025 819.731C555.812 815.817 560.148 811.435 564.735 806.804L564.738 806.795L564.809 806.726L564.819 806.718C580.556 790.791 598.4 772.738 639.538 772.091C696.683 771.898 795.849 792.029 880.677 821.001C912.041 832.054 942.073 845.047 971.109 857.614L971.19 857.65L980.828 861.809L990.57 866.014C1018.32 877.916 1044.53 889.166 1069.46 904.465C1081.69 911.94 1093.96 920.305 1105.83 928.402L1106.62 928.937C1137.28 949.883 1169 971.526 1202.69 980.02C1232.37 987.632 1265.27 983.44 1282.68 969.831C1286.43 966.894 1289.45 963.58 1291.76 959.906ZM1290.85 1017.01L1290.8 1020.47C1281.29 1023.14 1271 1024.24 1260.89 1024.08C1250.94 1023.92 1241.17 1022.56 1232.55 1020.35C1198.95 1011.87 1167.87 990.096 1137.83 969.029C1127.18 961.578 1116.17 953.87 1105.27 946.903C1077.77 929.282 1049.84 916.994 1017.5 902.771L1009.78 899.365L1009.41 899.203C978.259 885.479 946.054 871.285 912.166 859.599C831.638 832.672 735.449 814.217 678.254 814.706C636.4 815.533 620.071 833.645 604.291 851.156C600.317 855.562 596.565 859.719 592.397 863.625L591.842 864.138L591.827 864.156C584.631 870.723 576.469 878.18 555.46 873.772C544.759 871.512 530.596 865.904 513.373 857.104C489.646 844.978 464.393 830.407 439.958 816.31L439.571 816.086L436.373 814.241C431.522 811.447 426.671 808.643 421.825 805.875C355.077 767.965 280.951 719.502 209.257 672.62C168.134 645.724 129.28 620.328 93.3236 597.878C55.0701 574.294 15.3411 550.191 -16.1001 533.64C-33.8229 524.283 -49.7552 516.836 -65.1221 509.651L-65.1298 509.65L-65.1373 509.65L-66.1934 509.155C-82.4162 501.598 -99.182 493.781 -117.534 483.961C-163.131 459.434 -215.992 423.311 -274.665 376.583C-320.723 339.967 -383.962 283.488 -462.625 208.692C-528.652 146.116 -593.094 81.3088 -655.868 14.368C-724.215 -58.3839 -822.147 -167.918 -900.521 -276.568C-931.873 -320.051 -955.05 -356.009 -972.964 -386.387C-979.123 -396.841 -984.663 -406.606 -989.695 -415.815C-1002.64 -439.468 -1012.27 -459.307 -1020.57 -476.624C-1013.26 -463.529 -1005.7 -450.614 -997.933 -437.887L-997.926 -437.87C-977.712 -398.875 -948.507 -348.51 -898.172 -278.709C-819.915 -170.209 -722.079 -60.7717 -653.791 11.9095C-591.061 78.8148 -526.664 143.569 -460.68 206.101C-382.077 280.835 -318.904 337.26 -272.928 373.805C-214.388 420.436 -161.675 456.469 -116.234 480.898C-97.9563 490.682 -81.9643 498.139 -65.035 506.028L-64.6779 506.191C-49.043 513.494 -32.8874 521.031 -14.8075 530.559C16.7005 547.146 56.4812 571.286 94.7867 594.905C130.787 617.373 169.649 642.778 210.795 669.683C282.437 716.529 356.525 764.974 423.207 802.831L440.953 813.05L441.928 813.615C466.158 827.586 491.166 842.015 514.629 853.997C531.635 862.689 545.575 868.214 556.03 870.427C575.679 874.544 582.94 867.909 589.95 861.495L590.498 860.999C594.516 857.23 598.2 853.15 602.097 848.822L602.179 848.736L602.206 848.702C617.659 831.578 635.175 812.169 678.226 811.308C735.698 810.824 832.252 829.337 913.042 856.346C947.148 868.105 979.487 882.362 1010.77 896.15L1010.89 896.204L1018.61 899.601L1018.72 899.655C1051.12 913.904 1079.11 926.22 1106.76 943.939C1117.37 950.709 1128.03 958.177 1138.37 965.414L1139.42 966.145C1169.25 987.061 1200.11 1008.68 1233.22 1017.04C1250.48 1021.47 1272.34 1022.39 1290.85 1017.01ZM1290.2 1058.51L1290.15 1061.75C1279.96 1061.57 1269.82 1060.1 1259.91 1057.33C1227.61 1048.25 1197.77 1026.68 1168.92 1005.83L1168.87 1005.79C1157.86 997.829 1146.47 989.601 1135.15 982.209C1109.3 965.294 1082.86 953.421 1052.25 939.679L1046.33 937.016L1046.22 936.962C1015.94 923.347 984.636 909.263 951.471 897.711C871.99 870.871 772.142 852.601 714.067 854.269C672.606 855.965 657.087 874.935 642.073 893.286L642.006 893.363C637.965 898.308 634.147 902.978 629.822 907.325L629.811 907.334C623.086 913.9 614.719 922.068 592.581 917.319C583.882 915.44 572.855 911.432 559.801 905.372C536.464 894.559 510.483 880.046 485.34 866.007L485.106 865.873L482.522 864.43L482.503 864.42C476.474 861.059 470.484 857.715 464.561 854.442C399.976 819.188 328.14 773.993 258.646 730.273L258.52 730.192L258.349 730.085L258.342 730.085L258.327 730.076L258.319 730.067C215.689 703.243 175.425 677.912 138.339 655.801C101.457 634.086 59.3347 609.736 26.6263 593.713C10.722 585.918 -3.85556 579.521 -17.9571 573.339L-18.0019 573.321L-18.4706 573.113C-34.529 566.056 -51.138 558.764 -69.3123 549.522C-195.202 485.982 -407.796 304.713 -624.121 76.4974C-755.671 -61.6429 -834.841 -164.548 -870.339 -213.592C-906.489 -263.553 -931.254 -302.82 -950.362 -336.85C-953.649 -342.703 -956.773 -348.414 -959.757 -353.984C-971.474 -375.911 -981.042 -395.861 -990.209 -415.527L-989.702 -415.824C-984.67 -406.624 -979.138 -396.842 -972.972 -386.396C-950.772 -341.272 -922.18 -290.491 -868.073 -215.682C-785.499 -101.574 -678.534 14.8368 -622.112 74.0729C-406.016 302.068 -193.732 483.087 -68.1107 546.501C-49.8769 555.77 -33.9448 562.764 -17.0828 570.174L-16.9339 570.237C-2.79523 576.436 11.8195 582.861 27.7908 590.683C60.5884 606.75 102.763 631.128 139.704 652.879C176.879 675.043 217.232 700.428 259.944 727.305L260.226 727.484C329.627 771.151 401.382 816.292 465.837 851.465C472.626 855.223 479.504 859.051 486.411 862.914L486.64 863.04C511.732 877.06 537.665 891.547 560.913 902.315C573.782 908.285 584.622 912.246 593.127 914.079C613.878 918.527 621.316 911.259 627.867 904.855L627.876 904.847C632.102 900.611 635.892 895.976 639.903 891.065C654.604 873.084 671.276 852.713 713.977 850.967C772.329 849.303 872.566 867.631 952.323 894.545C985.612 906.152 1016.97 920.254 1047.3 933.887L1047.42 933.941L1053.34 936.604C1084.05 950.4 1110.58 962.318 1136.61 979.349C1147.76 986.625 1158.93 994.684 1169.75 1002.5L1170.45 1003C1199.12 1023.73 1228.77 1045.17 1260.63 1054.12C1270.3 1056.87 1280.22 1058.34 1290.2 1058.51ZM1289.66 1092.39L1289.62 1095.35L1288.42 1095.33C1257.2 1085.98 1228.46 1064.48 1200.64 1043.69L1200.61 1043.66C1190.22 1035.89 1179.48 1027.86 1168.82 1020.63C1142.13 1002.47 1114.51 989.722 1082.52 974.966L1082.52 974.965L1079.15 973.423C1048.36 959.199 1018.03 945.514 985.465 934.311C910.809 909.385 813.669 892.343 754.496 893.784C709.639 895.339 693.993 916.11 678.863 936.201L678.857 936.21L678.832 936.244C675.703 940.402 672.748 944.319 669.512 948.118L668.886 948.831C662.423 956.228 655.089 964.614 635.237 961.974C625.046 960.602 611.481 956.041 594.914 948.409C572.909 938.271 549.113 925.508 526.084 913.166L525.737 912.978L523.569 911.811L523.543 911.802L523.518 911.784C517.707 908.67 511.911 905.555 506.136 902.502C443.549 869.649 373.857 827.467 306.473 786.681C262.186 759.866 220.356 734.553 181.963 712.701C120.311 677.606 76.7435 658.363 34.6048 639.753C16.2702 631.649 -2.67463 623.275 -22.8746 613.722C-74.2066 588.912 -133.894 550.417 -200.26 499.29C-251.467 459.909 -318.205 402.444 -398.597 328.508C-468.318 264.489 -532.612 201.757 -595.192 136.727C-652.252 77.5766 -760.335 -38.7121 -843.25 -153.035C-884.755 -210.275 -911.249 -253.934 -930.821 -290.854C-909.683 -242.568 -882.767 -187.265 -817.539 -97.3073C-730.064 23.3417 -614.345 145.326 -553.149 207.303C-495.082 266.278 -435.693 323.156 -371.571 381.19C-287.159 457.698 -212.326 520.692 -155.17 563.381C-91.4315 611.061 -33.789 647.155 16.1328 670.636C40.3533 681.811 62.4779 690.959 83.8731 699.799L83.8805 699.808L84.1931 699.935C123.142 716.038 163.423 732.703 218.65 762.339C260.354 784.749 306.335 811.486 355.004 839.808C422.45 879.036 492.183 919.59 554.579 950.802C561.023 954.11 567.456 957.435 573.88 960.794L573.95 960.83C609.16 979.165 649.046 999.935 672.711 1002.61C692.148 1004.88 698.604 996.59 704.852 988.571L705.657 987.556C708.243 984.165 710.681 980.667 713.25 976.971L713.269 976.945C727.793 956.104 744.254 932.48 791.548 930.337C853.954 928.188 952.709 944.994 1026.37 970.305C1057.97 981.493 1087.67 995.316 1117.85 1009.7C1150.96 1025.46 1178.33 1038.96 1204.11 1057.36C1213.87 1064.3 1223.72 1071.94 1233.25 1079.33L1233.49 1079.51C1240.07 1084.62 1246.71 1089.77 1253.42 1094.77L1248.3 1094.69C1242.8 1090.53 1237.34 1086.3 1231.91 1082.08C1222.34 1074.65 1212.44 1066.97 1202.65 1060C1177.03 1041.74 1149.76 1028.28 1116.78 1012.56C1086.66 998.227 1057.03 984.423 1025.55 973.289C952.151 948.06 853.777 931.312 791.649 933.448C745.638 935.542 730.281 957.581 715.437 978.896L715.206 979.223C712.795 982.678 710.31 986.236 707.745 989.601L706.942 990.634L706.926 990.651C700.521 998.859 693.265 1008.15 672.437 1005.71C648.339 1002.99 608.322 982.148 572.959 963.732L572.726 963.615L570.699 962.564C564.777 959.474 558.993 956.464 553.44 953.641C491.049 922.42 421.342 881.884 353.923 842.683L353.739 842.575L352.705 841.976C304.424 813.904 258.821 787.382 217.467 765.16C162.344 735.569 122.129 718.94 83.2401 702.864L82.6148 702.601L82.6075 702.601C61.287 693.78 39.2293 684.659 15.0758 673.511C-35.0245 649.94 -92.8154 613.756 -156.694 565.97C-213.917 523.228 -288.824 460.172 -373.303 383.611C-437.469 325.541 -496.91 268.627 -554.998 209.608C-616.262 147.578 -732.098 25.4785 -819.684 -95.329C-887.015 -188.204 -913.658 -244.268 -935.167 -293.745L-932.975 -294.956C-944.044 -316.106 -952.893 -335.087 -961.073 -353.212L-959.758 -353.967C-956.774 -348.388 -953.649 -342.677 -950.363 -336.824C-928.824 -290.622 -900.245 -236.704 -841.046 -155.047C-758.24 -40.8915 -650.26 75.2912 -593.259 134.371C-530.724 199.365 -466.459 262.053 -396.797 326.028C-316.464 399.91 -249.792 457.322 -198.653 496.658C-132.434 547.67 -72.9102 586.067 -21.7491 610.778C-1.60152 620.33 17.3284 628.696 35.6483 636.782L35.7376 636.818C77.9058 655.455 121.533 674.733 183.244 709.855C221.608 731.699 263.379 756.975 307.599 783.746L307.613 783.755L307.821 783.88C375.176 824.649 444.823 866.803 507.351 899.621C512.625 902.422 517.928 905.267 523.237 908.104L523.242 908.113L523.259 908.122L523.268 908.122L526.966 910.105L527.131 910.195L527.137 910.195C550.176 922.563 574 935.352 595.995 945.473C612.316 952.988 625.634 957.493 635.572 958.817C653.995 961.269 660.516 953.846 666.814 946.664L666.853 946.621L667.464 945.916C670.632 942.195 673.571 938.295 676.679 934.172C691.488 914.503 708.276 892.208 754.419 890.604C813.862 889.158 911.368 906.257 986.285 931.266C1018.97 942.506 1049.37 956.227 1080.23 970.469L1083.59 972.021C1115.68 986.823 1143.4 999.613 1170.28 1017.91C1181 1025.18 1191.76 1033.23 1202.17 1041.02C1229.95 1061.8 1258.67 1083.27 1289.66 1092.39ZM1233.23 1094.45L1228.24 1094.38C1205.54 1078.15 1181.88 1066.03 1153.66 1052.06C1123.2 1036.97 1093.13 1022.45 1060.2 1010.76C986.224 985.314 884.647 969.326 823.916 973.574C780.024 977.209 765.488 999.757 751.433 1021.56L751.425 1021.57C749.044 1025.28 746.586 1029.1 744.026 1032.72L743.643 1033.23L743.625 1033.26C737.309 1041.97 730.156 1051.84 708.916 1049.61C700.739 1048.75 690.399 1045.92 678.178 1041.2C653.571 1031.71 624.893 1017.24 597.158 1003.23L593.485 1001.38C587.767 998.495 582.105 995.636 576.55 992.874C520.73 965.458 459.17 930.966 399.638 897.612L399.291 897.415C350.182 869.896 303.807 843.911 261.64 822.329C207.009 794.332 166.592 778.71 127.507 763.606C105.06 754.932 81.8538 745.959 56.3445 734.781C7.39393 712.9 -50.2184 678.227 -114.904 631.725C-193.107 575.681 -286.246 495.22 -350.614 437.592C-416.055 379.128 -475.824 322.609 -533.333 264.819C-595.064 202.973 -711.685 81.2006 -799.122 -39.5175C-866.775 -132.902 -893.075 -190.259 -912.414 -236.705L-909.988 -237.991C-890.714 -191.711 -864.509 -134.53 -797.046 -41.4184C-709.734 79.1409 -593.223 200.789 -531.552 262.582C-474.08 320.328 -414.354 376.811 -348.958 435.24C-284.642 492.833 -191.577 573.223 -113.471 629.204C-48.9252 675.59 8.546 710.183 57.3254 731.991C82.5444 743.043 105.542 751.935 127.781 760.536L128.384 760.772L128.398 760.781C167.55 775.903 208.027 791.543 262.762 819.604C304.973 841.212 351.364 867.206 400.487 894.734L401.198 895.128C460.603 928.41 521.981 962.786 577.635 990.129C583.06 992.828 588.571 995.616 594.142 998.422L598.256 1000.5C625.932 1014.48 654.551 1028.92 679.054 1038.36C691.067 1043 701.206 1045.79 709.165 1046.63C728.989 1048.68 735.385 1039.87 741.552 1031.35L741.92 1030.84C744.301 1027.48 746.528 1024.03 748.871 1020.41L748.874 1020.4L749.242 1019.83L749.247 1019.82C762.989 998.489 778.561 974.32 823.723 970.575C884.747 966.314 986.736 982.361 1060.98 1007.9C1094.06 1019.64 1124.19 1034.19 1154.73 1049.31C1184.54 1064.07 1209.27 1076.78 1233.23 1094.45ZM1199.74 1093.92L1193.37 1093.82C1190.68 1092.42 1187.95 1091.01 1185.16 1089.57C1158.72 1075.93 1127.69 1060.36 1094.31 1048.44C1022.42 1023.51 921.748 1008.4 860.153 1013.3C815.538 1017.39 801.218 1040.84 787.375 1063.51L787.365 1063.52L786.942 1064.21C784.552 1068.12 782.089 1072.15 779.511 1075.93L779.342 1076.18C776.713 1079.94 773.93 1083.91 769.997 1087.13L765.24 1087.05C770.697 1083.87 774.044 1079.08 777.325 1074.38L777.493 1074.16C780.163 1070.22 782.64 1066.18 785.256 1061.89C798.794 1039.72 814.125 1014.61 859.996 1010.41C921.885 1005.48 1022.96 1020.65 1095.13 1045.66C1128.65 1057.64 1159.77 1073.25 1186.28 1086.94C1190.89 1089.31 1195.37 1091.63 1199.74 1093.92ZM725.368 1086.42L715.676 1086.27C693.003 1078.28 665.943 1065.04 641.045 1052.85C634.338 1049.56 627.81 1046.37 621.585 1043.39C565.808 1017.25 504.141 984.08 444.502 951.987L443.95 951.691C390.437 922.901 339.898 895.717 294.431 873.892C244.382 849.93 206.196 836.243 169.255 823.01L169.247 823.01C146.135 814.735 122.233 806.178 95.7986 795.203C44.0383 773.313 -17.7008 737.093 -87.6964 687.555C-145.793 646.541 -220.542 586.336 -309.844 508.609C-382.753 445.28 -449.658 383.178 -514.398 318.793C-576.662 257.052 -694.154 135.422 -781.507 14.6011C-849.517 -79.4514 -874.583 -136.17 -892.742 -181.935L-890.37 -183.135C-872.284 -137.528 -847.304 -81.0277 -779.485 12.7518C-692.249 133.414 -574.875 254.92 -512.67 316.608C-447.974 380.957 -381.106 443.015 -308.241 506.309C-218.999 583.973 -144.338 644.116 -86.3011 685.086C-16.4465 734.535 45.1294 770.656 96.7185 792.473C123.086 803.422 146.966 811.97 170.056 820.236L170.063 820.236L170.145 820.263C207.109 833.505 245.346 847.202 295.47 871.208C341.145 893.133 391.906 920.442 445.645 949.358C505.254 981.432 566.899 1014.6 622.624 1040.7C628.856 1043.7 635.4 1046.9 642.106 1050.18L642.28 1050.26C670.459 1064.04 701.398 1079.18 725.368 1086.42ZM829.891 1088.07C842.134 1070.14 859.577 1053.82 895.581 1050.18C958.273 1044.63 1058.42 1059 1128.53 1083.63C1136.77 1086.61 1144.83 1089.82 1152.71 1093.18L1145.19 1093.06C1139.47 1090.72 1133.66 1088.46 1127.75 1086.33C1057.91 1061.79 958.183 1047.47 895.768 1053.02C861.657 1056.46 844.983 1071.03 832.996 1088.12L829.891 1088.07ZM647.303 1085.18L654.252 1085.29C602.125 1061.61 544.642 1031.86 489.041 1003.09L488.055 1002.58C433.823 974.527 382.607 948.038 336.369 926.967C286.882 904.408 248.784 891.828 211.931 879.66C185.886 871.06 158.962 862.167 128.473 849.864C75.3261 827.97 9.55297 790.031 -61.7406 740.133C-117.057 701.489 -185.189 647.825 -270.051 576.058C-350.079 508.461 -424.174 440.94 -496.552 369.623C-603.347 264.73 -701.145 153.883 -764.861 65.4904C-833.153 -29.2199 -856.905 -85.1866 -873.816 -130.226L-876.134 -129.113C-859.158 -83.9069 -835.313 -27.7036 -766.808 67.2801C-703.019 155.787 -605.11 266.767 -498.204 371.765C-425.782 443.127 -351.65 510.683 -271.571 578.325C-186.649 650.137 -118.451 703.862 -63.0751 742.551C8.35937 792.547 74.3033 830.576 127.606 852.533C158.162 864.863 185.131 873.774 211.213 882.384L211.4 882.447C248.126 894.579 286.12 907.122 335.413 929.591C381.879 950.77 433.414 977.439 487.967 1005.67C541.472 1033.35 596.724 1061.95 647.303 1085.18ZM932.486 1089.7C956.795 1087.6 985.427 1088.18 1015.3 1091.01L932.486 1089.7ZM587.568 1084.24C568.944 1075.1 550.253 1065.82 531.777 1056.63L531.625 1056.56C473.442 1027.64 418.493 1000.34 369.206 979.358C322.717 959.59 285.982 948.469 250.441 937.715C223.057 929.434 194.734 920.859 162.404 908.422C108.258 887.166 42.0636 850.283 -29.0496 801.772C-157.948 714.352 -322.006 577.805 -467.885 436.512C-532.577 374.235 -654.589 251.333 -745.1 127.839C-816.415 30.5379 -842.574 -29.0991 -860.217 -79.0284L-862.466 -78.0187C-844.759 -27.8706 -818.506 31.9856 -746.978 129.578C-656.343 253.23 -534.204 376.257 -469.477 438.586C-323.501 579.977 -159.318 716.613 -30.308 804.104C40.9386 852.713 107.304 889.677 161.606 910.997C193.929 923.433 222.215 931.99 249.554 940.271L249.807 940.344C285.289 951.08 321.972 962.183 368.349 981.905C417.54 1002.84 472.424 1030.11 530.531 1058.99L530.634 1059.04C547.419 1067.38 564.38 1075.82 581.308 1084.14L587.568 1084.24ZM517.307 1083.13L511.026 1083.03C472.067 1064.74 433.852 1047.43 399.604 1033.92C355.862 1016.7 320.446 1006.97 286.202 997.582L285.844 997.481C257.307 989.652 227.77 981.536 193.738 969.117C139.657 949.002 74.7347 914.126 0.761235 865.483C-67.1258 820.969 -153.726 755.315 -249.65 675.637C-319.12 618.015 -382.473 562.041 -443.298 504.521C-509.796 441.841 -635.454 317.749 -729.891 190.936C-808.031 86 -835.299 21.1889 -851.659 -28.363L-849.472 -29.2866C-833.169 20.0554 -806.016 84.6122 -728.103 189.239C-633.769 315.902 -508.236 439.871 -441.805 502.506C-381.002 560 -317.694 615.939 -248.26 673.516C-152.388 753.15 -65.8694 818.75 1.95111 863.211C74.7455 911.077 141.317 946.842 194.482 966.629C228.559 979.066 258.148 987.182 286.759 995.03L286.886 995.067L286.894 995.067C321.154 1004.47 356.595 1014.18 400.385 1031.44C436.259 1045.59 476.459 1063.89 517.307 1083.13ZM425.046 1081.67L417.085 1081.54C381.364 1069.25 350.891 1061.77 321.283 1054.52L321.181 1054.49C289.463 1046.71 256.651 1038.66 217.803 1024.75C161.898 1004.29 92.2286 967.319 16.3358 917.801C-48.3895 875.671 -128.136 816.371 -220.683 741.538C-297.701 679.337 -368.341 617.925 -436.615 553.806C-503.496 491.182 -629.754 367.158 -723.888 240.149C-802.512 134.056 -828.546 69.3693 -843.644 20.0987L-841.503 19.2614C-826.469 68.3306 -800.536 132.737 -722.154 238.522C-628.138 365.38 -501.989 489.281 -435.16 551.852C-366.923 615.935 -296.335 677.303 -219.361 739.468C-126.867 814.249 -47.1865 873.513 17.4794 915.606C93.2315 965.026 162.752 1001.94 218.5 1022.34C257.289 1036.22 290.071 1044.26 321.771 1052.04C353.419 1059.79 386.058 1067.8 425.046 1081.67ZM242.843 1078.78L235.457 1078.67C179.677 1057.96 112.702 1023.04 40.5762 976.972C-104.634 884.755 -277.698 747.735 -434.245 601.055C-501.212 538.647 -627.484 415.015 -720.878 288.131C-800.115 180.478 -825.232 113.706 -838.266 67.5778L-836.201 66.8266C-823.231 112.762 -798.207 179.245 -719.205 286.572C-625.921 413.306 -499.76 536.832 -432.859 599.178C-276.401 745.77 -103.455 882.692 41.6513 974.846C116.589 1022.7 185.91 1058.5 242.843 1078.78ZM137.727 1077.12L132.783 1077.04C111.084 1065.16 88.58 1052.05 65.4717 1037.83C-6.51158 993.63 -93.9432 931.299 -194.378 852.587C-272.589 791.377 -344.526 730.537 -414.279 666.613C-486.347 600.77 -621.871 470.346 -719.755 336.492C-799.554 227.402 -823.499 160.466 -835.425 114.338L-833.421 113.672C-821.536 159.582 -797.699 226.229 -718.143 334.994C-620.361 468.689 -484.963 599.007 -412.946 664.787C-343.238 728.676 -271.345 789.481 -193.164 850.664C-92.7958 929.331 -5.43792 991.609 66.486 1035.77C90.9968 1050.86 114.823 1064.69 137.727 1077.12ZM55.7216 1075.82L51.474 1075.76C-91.6148 985.403 -250.493 863.406 -398.432 730.111C-528.747 613.357 -646.43 487.187 -721.3 383.958C-801.327 273.688 -824.056 206.614 -834.919 160.503L-832.984 159.915C-822.171 205.808 -799.534 272.593 -719.742 382.519C-644.951 485.633 -527.379 611.68 -397.168 728.336C-248.187 862.563 -88.1218 985.327 55.7216 1075.82ZM-19.6173 1074.63L-23.3928 1074.57C-63.8663 1046.86 -107.223 1015.72 -153.225 981.301C-241.454 915.351 -322.294 849.344 -400.367 779.487C-531.548 662.527 -649.659 535.949 -724.409 432.183C-805.986 319.005 -827.524 249.128 -836.619 206.415L-834.76 205.905C-825.692 248.425 -804.246 317.996 -722.911 430.83C-648.257 534.482 -530.249 660.945 -399.172 777.798C-321.15 847.611 -240.347 913.591 -152.155 979.506C-105.124 1014.7 -60.8629 1046.46 -19.6173 1074.63ZM-95.7125 1073.43L-99.2259 1073.37C-201.63 1000.2 -307.145 915.827 -406.078 827.391C-537.486 710.577 -655.468 583.922 -729.779 479.884C-811.649 365.351 -832.058 295.083 -840.281 252.184L-838.49 251.742C-830.302 294.44 -809.979 364.402 -728.343 478.591C-654.12 582.515 -536.241 709.063 -404.929 825.772C-305.227 914.882 -198.852 999.881 -95.7125 1073.43ZM-169.201 1072.26L-172.812 1072.21C-247.451 1016.39 -322.224 955.796 -394.562 892.284C-473.644 823.204 -622.077 685.615 -727.679 540.368C-795.954 446.512 -833.46 369.492 -845.704 298.011L-843.99 297.638C-831.8 368.787 -794.402 445.517 -726.318 539.127C-620.826 684.224 -472.504 821.706 -393.481 890.742C-321.291 954.112 -245.257 1015.54 -169.201 1072.26ZM-242.877 1071.1L-245.866 1071.05C-292.808 1034.47 -339.307 996.387 -384.473 957.459C-465.187 888.249 -617.011 749.953 -726.944 601.397C-800.218 502.427 -841.342 418.242 -852.651 344.041L-851.013 343.718C-839.751 417.588 -798.75 501.483 -725.666 600.189C-615.828 748.613 -464.115 886.802 -383.46 955.968C-337.658 995.446 -290.485 1034.04 -242.877 1071.1ZM-316.036 1069.94L-318.785 1069.9C-344.137 1049.3 -369.252 1028.31 -394.039 1007.01C-474.851 937.859 -626.766 799.606 -736.301 650.56C-809.969 550.372 -850.711 465.288 -860.841 390.434L-859.278 390.154C-849.188 464.685 -808.561 549.489 -735.077 649.429C-625.644 798.343 -473.841 936.49 -393.087 1005.6C-367.716 1027.4 -341.995 1048.87 -316.036 1069.94ZM-388.333 1068.8L-390.857 1068.76C-395.375 1064.92 -399.877 1061.07 -404.372 1057.22C-485.253 988.137 -637.235 849.9 -746.433 700.319C-820.493 598.924 -860.92 512.877 -869.997 437.274L-868.517 437.036C-859.473 512.317 -819.161 598.091 -745.269 699.24C-636.175 848.689 -484.296 986.837 -403.467 1055.88C-398.44 1060.2 -393.39 1064.5 -388.333 1068.8ZM-459.102 1067.68L-461.424 1067.64C-549.83 988.727 -667.963 873.508 -757.031 750.717C-831.522 648.112 -871.679 561.103 -879.829 484.687L-878.432 484.483C-870.322 560.585 -830.251 647.348 -755.943 749.706C-666.465 873.061 -547.605 988.78 -459.102 1067.68ZM-527.983 1066.59L-529.856 1066.56C-550.321 1047.24 -570.186 1027.86 -589.236 1008.65C-660.652 936.653 -720.732 867.028 -767.804 801.756C-841.692 699.387 -882.812 608.861 -890.022 532.695L-888.693 532.525C-881.509 608.411 -840.489 698.675 -766.77 800.822C-728.431 853.997 -652.791 948.867 -527.983 1066.59ZM-593.599 1065.55L-595.344 1065.52C-596.598 1064.27 -597.852 1063 -599.098 1061.74C-670.639 989.594 -730.797 919.759 -777.917 854.155C-852.569 750.346 -893.729 658.565 -900.256 581.356L-899.01 581.21C-892.509 658.149 -851.442 749.684 -776.944 853.282C-744.634 898.26 -685.885 972.829 -593.599 1065.55ZM-655.655 1064.57L-657.356 1064.54C-708.119 1009.98 -751.969 956.967 -788.125 906.405C-863.209 801.526 -904.287 708.754 -910.215 630.657L-909.059 630.544C-903.15 708.371 -862.151 800.907 -787.206 905.592C-761.43 941.635 -718.788 996.602 -655.655 1064.57ZM-713.809 1063.65L-715.33 1063.62C-736.946 1038.46 -757.9 1012.6 -777.707 986.262C-825.057 923.346 -861.188 863.647 -885.092 808.81C-905.36 762.341 -916.958 719.197 -919.569 680.594L-918.504 680.498C-915.89 718.953 -904.335 761.957 -884.132 808.277C-860.256 863.017 -824.176 922.637 -776.885 985.483C-756.866 1012.11 -735.676 1038.22 -713.809 1063.65ZM-766.937 1062.81L-768.277 1062.79C-774.307 1055.09 -780.247 1047.34 -786.088 1039.55C-833.487 976.399 -869.65 916.351 -893.585 861.087C-914.013 813.91 -925.595 770.174 -928.019 731.095L-927.021 731.007C-920.4 838.208 -846.309 957.573 -785.327 1038.83C-779.303 1046.87 -773.165 1054.87 -766.937 1062.81ZM-814.513 1062.05L-815.682 1062.04C-871.539 982.243 -929.803 877.509 -935.247 782.077L-934.34 782.022C-928.903 877.445 -870.423 982.304 -814.513 1062.05ZM-855.7 1061.4L-856.704 1061.39C-899.781 990.82 -936.922 909.242 -940.945 833.431L-940.127 833.366C-936.097 909.185 -898.844 990.826 -855.7 1061.4ZM-889.889 1060.86L-890.751 1060.85C-920.008 1003.79 -941.978 942.767 -944.856 885.032L-944.121 884.983C-941.236 942.718 -919.206 1003.79 -889.889 1060.86ZM-916.258 1060.44L-916.94 1060.43C-937.844 1008.24 -945.271 967.122 -946.708 936.691L-946.055 936.649C-944.14 977.131 -932.87 1019.22 -916.258 1060.44ZM-933.72 1060.17L-934.32 1060.16C-942.075 1031.74 -945.405 1007.8 -946.279 988.238L-945.709 988.204C-944.835 1007.76 -941.497 1031.72 -933.72 1060.17ZM-941.211 1060.05L-941.698 1060.04C-942.556 1052.71 -943.085 1045.86 -943.358 1039.46L-942.878 1039.44C-942.605 1045.84 -942.077 1052.71 -941.211 1060.05ZM1293.33 860.343C1292.45 857.594 1291.58 854.845 1290.72 852.096C1279.62 816.286 1273.47 786.651 1271.4 758.849C1270.99 753.512 1270.52 747.947 1270.04 742.547L1270.02 742.338C1268.13 720.514 1266.17 697.94 1268.32 676.442C1270.58 654.222 1281.3 634.837 1297.12 621.132L1297.05 625.53C1282.91 638.555 1273.38 656.427 1271.32 676.812C1269.19 698.023 1271.14 720.483 1273.05 742.203L1273.13 743.206C1273.58 748.291 1274.03 753.507 1274.41 758.548C1276.46 785.984 1282.52 815.269 1293.49 850.685L1293.33 860.343ZM1295.16 744.626C1294.25 732.025 1293.92 719.407 1295.07 707.108C1295.26 705.047 1295.52 703.013 1295.85 701.006L1295.16 744.626ZM-1062.49 -562.921C-1065.73 -568.956 -1068.77 -574.744 -1071.64 -580.312C-1068.63 -574.498 -1065.58 -568.692 -1062.49 -562.921ZM-1062.49 -562.921C-1062.05 -562.086 -1061.61 -561.252 -1061.15 -560.408L-1060.2 -558.651L-1060.22 -558.669C-1060.98 -560.083 -1061.74 -561.498 -1062.49 -562.921Z" fill="black"/>
</g>
</g>
<defs>
<clipPath id="clip0_495_14294">
<rect width="1280" height="866" fill="white"/>
</clipPath>
<clipPath id="clip1_495_14294">
<rect width="1018" height="793.548" fill="white" transform="matrix(-0.999875 -0.0158206 -0.0158206 0.999875 966.428 72.1053)"/>
</clipPath>
</defs>
</svg>
