<svg width="64" height="64" viewBox="0 0 64 64" fill="none" xmlns="http://www.w3.org/2000/svg">
<path d="M47.7875 16.9013C44.7919 15.5584 41.5795 14.569 38.2208 14.0024C38.1596 13.9914 38.0985 14.0188 38.067 14.0734C37.6539 14.7913 37.1963 15.7279 36.8758 16.464C33.2633 15.9356 29.6693 15.9356 26.1309 16.464C25.8104 15.7115 25.3361 14.7913 24.9211 14.0734C24.8896 14.0206 24.8285 13.9933 24.7673 14.0024C21.4105 14.5672 18.1981 15.5566 15.2007 16.9013C15.1747 16.9122 15.1525 16.9305 15.1377 16.9541C9.04456 25.8477 7.37539 34.5227 8.19423 43.0901C8.19793 43.132 8.22202 43.1721 8.25536 43.1976C12.2755 46.0819 16.1696 47.833 19.9914 48.9936C20.0526 49.0119 20.1174 48.99 20.1563 48.9408C21.0604 47.7346 21.8663 46.4628 22.5572 45.1253C22.598 45.047 22.5591 44.9541 22.4757 44.9231C21.1975 44.4494 19.9803 43.8718 18.8095 43.2158C18.7169 43.163 18.7094 43.0336 18.7946 42.9716C19.041 42.7913 19.2875 42.6036 19.5227 42.4141C19.5653 42.3795 19.6246 42.3722 19.6747 42.394C27.3665 45.8251 35.6939 45.8251 43.2949 42.394C43.345 42.3704 43.4043 42.3777 43.4487 42.4123C43.6841 42.6018 43.9304 42.7913 44.1787 42.9716C44.2639 43.0336 44.2583 43.163 44.1657 43.2158C42.9949 43.8845 41.7777 44.4494 40.4976 44.9213C40.4142 44.9523 40.3772 45.047 40.418 45.1253C41.1237 46.4609 41.9296 47.7327 42.817 48.939C42.8541 48.99 42.9207 49.0119 42.9819 48.9936C46.8223 47.833 50.7164 46.0819 54.7365 43.1976C54.7717 43.1721 54.7939 43.1338 54.7976 43.0919C55.7776 33.187 53.1562 24.5832 47.8486 16.956C47.8356 16.9305 47.8134 16.9122 47.7875 16.9013ZM23.7059 37.8735C21.3901 37.8735 19.482 35.7963 19.482 33.2454C19.482 30.6944 21.3531 28.6173 23.7059 28.6173C26.0771 28.6173 27.9668 30.7127 27.9297 33.2454C27.9297 35.7963 26.0586 37.8735 23.7059 37.8735ZM39.323 37.8735C37.0073 37.8735 35.0992 35.7963 35.0992 33.2454C35.0992 30.6944 36.9703 28.6173 39.323 28.6173C41.6944 28.6173 43.584 30.7127 43.547 33.2454C43.547 35.7963 41.6944 37.8735 39.323 37.8735Z" fill="#5865F2"/>
</svg>
