<svg width="64" height="64" viewBox="0 0 64 64" fill="none" xmlns="http://www.w3.org/2000/svg">
<rect width="64" height="64" fill="#5865F2"/>
<path d="M48.7875 17.9013C45.7919 16.5584 42.5795 15.569 39.2208 15.0024C39.1596 14.9914 39.0985 15.0188 39.067 15.0734C38.6539 15.7913 38.1963 16.7279 37.8758 17.464C34.2633 16.9356 30.6693 16.9356 27.1309 17.464C26.8104 16.7115 26.3361 15.7913 25.9211 15.0734C25.8896 15.0206 25.8285 14.9933 25.7673 15.0024C22.4105 15.5672 19.1981 16.5566 16.2007 17.9013C16.1747 17.9122 16.1525 17.9305 16.1377 17.9541C10.0446 26.8477 8.37539 35.5227 9.19423 44.0901C9.19793 44.132 9.22202 44.1721 9.25536 44.1976C13.2755 47.0819 17.1696 48.833 20.9914 49.9936C21.0526 50.0119 21.1174 49.99 21.1563 49.9408C22.0604 48.7346 22.8663 47.4628 23.5572 46.1253C23.598 46.047 23.5591 45.9541 23.4757 45.9231C22.1975 45.4494 20.9803 44.8718 19.8095 44.2158C19.7169 44.163 19.7094 44.0336 19.7946 43.9716C20.041 43.7913 20.2875 43.6036 20.5227 43.4141C20.5653 43.3795 20.6246 43.3722 20.6747 43.394C28.3665 46.8251 36.6939 46.8251 44.2949 43.394C44.345 43.3704 44.4043 43.3777 44.4487 43.4123C44.6841 43.6018 44.9304 43.7913 45.1787 43.9716C45.2639 44.0336 45.2583 44.163 45.1657 44.2158C43.9949 44.8845 42.7777 45.4494 41.4976 45.9213C41.4142 45.9523 41.3772 46.047 41.418 46.1253C42.1237 47.4609 42.9296 48.7327 43.817 49.939C43.8541 49.99 43.9207 50.0119 43.9819 49.9936C47.8223 48.833 51.7164 47.0819 55.7365 44.1976C55.7717 44.1721 55.7939 44.1338 55.7976 44.0919C56.7776 34.187 54.1562 25.5832 48.8486 17.956C48.8356 17.9305 48.8134 17.9122 48.7875 17.9013ZM24.7059 38.8735C22.3901 38.8735 20.482 36.7963 20.482 34.2454C20.482 31.6944 22.3531 29.6173 24.7059 29.6173C27.0771 29.6173 28.9668 31.7127 28.9297 34.2454C28.9297 36.7963 27.0586 38.8735 24.7059 38.8735ZM40.323 38.8735C38.0073 38.8735 36.0992 36.7963 36.0992 34.2454C36.0992 31.6944 37.9703 29.6173 40.323 29.6173C42.6944 29.6173 44.584 31.7127 44.547 34.2454C44.547 36.7963 42.6944 38.8735 40.323 38.8735Z" fill="white"/>
</svg>
