<?xml version="1.0" encoding="utf-8"?>
<!-- Generator: Adobe Illustrator 23.0.3, SVG Export Plug-In . SVG Version: 6.00 Build 0)  -->
<svg version="1.1" id="Layer_1" xmlns="http://www.w3.org/2000/svg" xmlns:xlink="http://www.w3.org/1999/xlink" x="0px" y="0px"
	 width="64px" height="64px" viewBox="0 0 64 64" style="enable-background:new 0 0 64 64;" xml:space="preserve">
<style type="text/css">
	.st0{fill:none;}
</style>
<g>
	<g>
		<circle class="st0" cx="11" cy="42" r="9"/>
		<path class="st0" d="M19.9,35.6c1.3,1.8,2.1,4,2.1,6.4c0,1.2-0.2,2.4-0.6,3.5l17.9,7.2c1-3.7,4.3-6.5,8.3-6.6l1.4-20.2
			c-3-0.4-5.6-1.9-7.6-4L19.9,35.6z"/>
		<path d="M55,55c0,3.9-3.1,7-7,7s-7-3.1-7-7c0-3.7,2.9-6.7,6.5-7l0.1-2c-4,0.2-7.3,2.9-8.3,6.6l-17.9-7.2c0.4-1.1,0.6-2.3,0.6-3.5
			c0-2.4-0.8-4.6-2.1-6.4l21.6-13.7c2,2.1,4.6,3.5,7.6,4l0.1-2C44,23,40,18.5,40,13c0-6.1,4.9-11,11-11s11,4.9,11,11
			c0,6-4.8,10.9-10.8,11l-0.1,2C58.2,26,64,20.1,64,13c0-7.2-5.8-13-13-13c-7.2,0-13,5.8-13,13c0,2.7,0.8,5.2,2.2,7.3L18.6,34.1
			c-2-1.9-4.7-3.1-7.6-3.1C4.9,31,0,35.9,0,42s4.9,11,11,11c4.1,0,7.7-2.3,9.6-5.7L39,54.7c0,0.1,0,0.2,0,0.3c0,5,4,9,9,9s9-4,9-9
			c0-4.4-3.2-8.1-7.4-8.8l-0.1,2C52.6,48.8,55,51.7,55,55z M11,51c-5,0-9-4-9-9s4-9,9-9s9,4,9,9S16,51,11,51z"/>
		<path d="M51,26c-0.7,0-1.3-0.1-1.9-0.2L47.6,46c0.1,0,0.2,0,0.4,0c0.6,0,1.1,0.1,1.6,0.2L51,26C51,26,51,26,51,26z"/>
		<path d="M51,24c-0.6,0-1.2-0.1-1.8-0.2l-0.1,2c0.6,0.1,1.3,0.2,1.9,0.2c0,0,0,0,0.1,0l0.1-2C51.1,24,51.1,24,51,24z"/>
		<path d="M47.6,46l-0.1,2c0.2,0,0.3,0,0.5,0c0.5,0,1,0.1,1.5,0.2l0.1-2C49.1,46.1,48.6,46,48,46C47.9,46,47.8,46,47.6,46z"/>
	</g>
</g>
</svg>
