<?xml version="1.0" encoding="utf-8"?>
<!-- Generator: Adobe Illustrator 16.0.0, SVG Export Plug-In . SVG Version: 6.00 Build 0)  -->
<!DOCTYPE svg PUBLIC "-//W3C//DTD SVG 1.1//EN" "http://www.w3.org/Graphics/SVG/1.1/DTD/svg11.dtd">
<svg version="1.1" id="Layer_1" xmlns="http://www.w3.org/2000/svg" xmlns:xlink="http://www.w3.org/1999/xlink" x="0px" y="0px"
	 width="64px" height="64px" viewBox="0 0 64 64" enable-background="new 0 0 64 64" xml:space="preserve">
<g>
	<rect x="36" y="8" width="9" height="2"/>
	<rect x="19" y="16" width="26" height="2"/>
	<rect x="19" y="24" width="26" height="2"/>
	<path d="M54,0H10v21.142L0,25.335V64h64V25.335l-10-4.193V0z M52,2v29.716L32,44.253L12,31.716V2H52z M10,30.462l-6.835-4.285
		L10,23.311V30.462z M2,62V27.807l30,18.807l30-18.807V62H2z M60.835,26.177L54,30.462v-7.151L60.835,26.177z"/>
</g>
</svg>
