<?xml version="1.0" encoding="utf-8"?>
<!-- Generator: Adobe Illustrator 16.0.0, SVG Export Plug-In . SVG Version: 6.00 Build 0)  -->
<!DOCTYPE svg PUBLIC "-//W3C//DTD SVG 1.1//EN" "http://www.w3.org/Graphics/SVG/1.1/DTD/svg11.dtd">
<svg version="1.1" id="Layer_1" xmlns="http://www.w3.org/2000/svg" xmlns:xlink="http://www.w3.org/1999/xlink" x="0px" y="0px"
	 width="64px" height="64px" viewBox="0 0 64 64" enable-background="new 0 0 64 64" xml:space="preserve">
<g>
	<path d="M55.978,33.05C55.458,21.909,45.829,13,34.066,13c-10.404,0-19.648,6.823-21.872,16h-0.862C5.084,29,0,33.935,0,40
		c0,6.168,4.832,11,11,11h44c5.047,0,9-3.953,9-9C64,37.284,60.548,33.523,55.978,33.05z M55,49H11c-5.047,0-9-3.953-9-9
		c0-4.963,4.187-9,9.333-9h2.492l0.157-0.81C15.664,21.53,24.298,15,34.066,15C45.058,15,54,23.523,54,34v1h1c3.925,0,7,3.075,7,7
		S58.925,49,55,49z"/>
</g>
</svg>
