<?xml version="1.0" encoding="utf-8"?>
<!-- Generator: Adobe Illustrator 16.0.0, SVG Export Plug-In . SVG Version: 6.00 Build 0)  -->
<!DOCTYPE svg PUBLIC "-//W3C//DTD SVG 1.1//EN" "http://www.w3.org/Graphics/SVG/1.1/DTD/svg11.dtd">
<svg version="1.1" id="Layer_1" xmlns="http://www.w3.org/2000/svg" xmlns:xlink="http://www.w3.org/1999/xlink" x="0px" y="0px"
	 width="64px" height="64px" viewBox="0 0 64 64" enable-background="new 0 0 64 64" xml:space="preserve">
<g>
	<path d="M0,64h64V0H0V64z M2,2h60v60H2V2z"/>
	<polygon points="19,8 17,8 17,17 8,17 8,19 17,19 17,28 19,28 19,19 28,19 28,17 19,17 	"/>
	<rect x="36" y="17" width="20" height="2"/>
	<polygon points="25.293,37.293 18,44.586 10.707,37.293 9.293,38.707 16.586,46 9.293,53.293 10.707,54.707 18,47.414 
		25.293,54.707 26.707,53.293 19.414,46 26.707,38.707 	"/>
	<rect x="36" y="42" width="20" height="2"/>
	<rect x="36" y="48" width="20" height="2"/>
</g>
</svg>
