<!-- This icon originated from https://commons.wikimedia.org/wiki/File:Bluesky_Logo.svg -->
<svg viewBox="0 0 27 24" width="27px" height="24px" xmlns="http://www.w3.org/2000/svg"><path d="m5.8526 1.6155c3.0955 2.3461 6.425 7.103 7.6475 9.6558 1.2225-2.5526 4.5519-7.3098 7.6475-9.6558 2.2335-1.6928 5.8524-3.0027 5.8524 1.1653 0 0.8324-0.47273 6.9926-0.74999 7.9926-0.96376 3.477-4.4756 4.3638-7.5995 3.827 5.4605 0.93823 6.8496 4.046 3.8497 7.1537-5.6974 5.9022-8.1889-1.4809-8.8276-3.3727-0.11703-0.34682-0.17179-0.50906-0.1726-0.3711-8.1e-4 -0.13797-0.05557 0.02428-0.1726 0.3711-0.63841 1.8918-3.1298 9.2752-8.8276 3.3727-3-3.1078-1.6109-6.2157 3.8497-7.1537-3.124 0.53674-6.6359-0.35008-7.5995-3.827-0.27727-1.0002-0.74999-7.1603-0.74999-7.9926 0-4.1679 3.619-2.8581 5.8524-1.1653z" fill="currentColor"/></svg>
