<svg width="10" height="11" viewBox="0 0 10 11" fill="none" xmlns="http://www.w3.org/2000/svg">
<path d="M6.96223 5.00986L9.83777 1.41543C9.94279 1.28416 10 1.12106 10 0.952959C10 0.544096 9.66855 0.212646 9.25969 0.212646C9.09158 0.212646 8.92848 0.269858 8.79722 0.374872L5.20278 3.25042C4.40339 3.88994 3.67729 4.61603 3.03777 5.41543L0.162226 9.00986C0.0572119 9.14113 0 9.30423 0 9.47233C0 9.8812 0.331449 10.2126 0.740312 10.2126C0.908416 10.2126 1.07151 10.1554 1.20278 10.0504L4.79722 7.17487C5.59661 6.53536 6.32271 5.80926 6.96223 5.00986Z" fill="#61708B"/>
<path d="M5.20278 7.17487L8.79722 10.0504C8.92848 10.1554 9.09158 10.2126 9.25969 10.2126C9.66855 10.2126 10 9.8812 10 9.47233C10 9.30423 9.94279 9.14113 9.83777 9.00986L6.96223 5.41543C6.32271 4.61603 5.59661 3.88994 4.79722 3.25042L1.20278 0.374872C1.07152 0.269858 0.908416 0.212646 0.740313 0.212646C0.33145 0.212646 -1.44881e-08 0.544095 -3.23601e-08 0.952959C-3.97081e-08 1.12106 0.0572118 1.28416 0.162226 1.41543L3.03777 5.00986C3.67729 5.80926 4.40339 6.53536 5.20278 7.17487Z" fill="#61708B"/>
</svg>
