<?xml version="1.0" encoding="UTF-8" standalone="no"?>
<svg
   width="10"
   height="13"
   viewBox="0 0 10 13"
   fill="none"
   version="1.1"
   id="svg2"
   sodipodi:docname="hourglass_partial.svg"
   inkscape:version="1.4.3 (0d15f75042, 2025-12-25)"
   xmlns:inkscape="http://www.inkscape.org/namespaces/inkscape"
   xmlns:sodipodi="http://sodipodi.sourceforge.net/DTD/sodipodi-0.dtd"
   xmlns="http://www.w3.org/2000/svg"
   xmlns:svg="http://www.w3.org/2000/svg">
  <defs
     id="defs2" />
  <sodipodi:namedview
     id="namedview2"
     pagecolor="#ffffff"
     bordercolor="#000000"
     borderopacity="0.25"
     inkscape:showpageshadow="2"
     inkscape:pageopacity="0.0"
     inkscape:pagecheckerboard="0"
     inkscape:deskcolor="#d1d1d1"
     showgrid="false"
     showguides="true"
     inkscape:zoom="65.02564"
     inkscape:cx="4.844243"
     inkscape:cy="6.6896689"
     inkscape:window-width="1920"
     inkscape:window-height="1145"
     inkscape:window-x="0"
     inkscape:window-y="0"
     inkscape:window-maximized="0"
     inkscape:current-layer="svg2">
    <sodipodi:guide
       position="1.4365011,10.780636"
       orientation="0,-1"
       id="guide2"
       inkscape:locked="false" />
    <sodipodi:guide
       position="1.6213206,0.79208348"
       orientation="0,-1"
       id="guide3"
       inkscape:locked="false" />
  </sodipodi:namedview>
  <path
     d="m 1.2218068,0.29061521 c -0.41378072,0 -0.74807868,0.33429724 -0.74807868,0.74807779 0,0.4137804 0.33429796,0.7480776 0.74807868,0.7480776 v 0.2571517 c 0,0.9912029 0.3950778,1.9426642 1.0964006,2.643987 L 3.9055355,6.2752366 2.3182074,7.862564 C 1.6168846,8.5638868 1.2218068,9.5153481 1.2218068,10.506552 v 0.257151 c -0.41378072,0 -0.74807868,0.334297 -0.74807868,0.748077 0,0.413781 0.33429796,0.748078 0.74807868,0.748078 h 7.4807765 c 0.4137808,0 0.7480776,-0.334297 0.7480776,-0.748078 0,-0.41378 -0.3342968,-0.748077 -0.7480776,-0.748077 v -0.257151 c 0,-0.9912039 -0.3950778,-1.9426652 -1.0964011,-2.643988 L 6.0188549,6.2752366 7.6061822,4.6879093 C 8.3075043,3.9865865 8.7025833,3.0351252 8.7025833,2.0439223 V 1.7867706 c 0.4137808,0 0.7480776,-0.3342972 0.7480776,-0.7480776 0,-0.41378055 -0.3342968,-0.74807779 -0.7480776,-0.74807779 z M 2.7179621,2.0439223 V 1.7867706 h 4.4884662 v 0.2571517 c 0,0.4441711 -0.1309131,0.8743158 -0.3740388,1.2390036 H 3.092001 C 2.8512128,2.9182381 2.7179621,2.4880934 2.7179621,2.0439223 Z M 3.092001,9.2675474 C 3.1738208,9.143647 3.2696694,9.0267598 3.3748672,8.9192238 L 4.9621957,7.3318964 6.5495218,8.9192238 c 0.107533,0.1075366 0.2010463,0.2244233 0.2852051,0.3483236 z"
     fill="#61708b"
     id="path1-3"
     style="stroke-width:0.0233775"
     inkscape:label="path1" />
</svg>
