<svg width="440" height="400" viewBox="0 0 440 400" fill="none" xmlns="http://www.w3.org/2000/svg">
<path d="M526.834 200.032L526.747 199.488L526.483 198.937L526.045 198.374L525.433 197.794L524.648 197.19L523.691 196.556L522.564 195.887L521.27 195.177L519.811 194.42L518.188 193.612L516.407 192.746L514.469 191.819L510.139 189.756L507.755 188.612L505.23 187.387L502.57 186.077L499.779 184.678L496.861 183.185L493.823 181.596L490.67 179.907L487.408 178.116L484.041 176.219L480.577 174.215L477.022 172.1L473.381 169.874L469.661 167.535L465.869 165.081L462.01 162.511L458.093 159.825L454.122 157.024L450.106 154.105L446.051 151.071L441.963 147.921L437.85 144.657L433.718 141.279L429.573 137.791L425.423 134.192L421.273 130.486L417.131 126.675L413.003 122.762L408.895 118.749L404.813 114.641L400.762 110.441L396.75 106.153L392.782 101.782L388.862 97.3304L384.997 92.8044L381.191 88.2086L377.449 83.5482L373.776 78.8285L370.176 74.0551L366.654 69.2338L363.213 64.3704L359.856 59.471L356.588 54.542L353.411 49.5896L350.327 44.6203L347.34 39.6408L344.452 34.6576L341.664 29.6776L338.977 24.7076L336.394 19.7544L333.915 14.8249L331.541 9.9261L329.271 5.06472L327.106 0.247724L325.046 -4.51806L323.09 -9.22583L321.236 -13.8689L319.484 -18.4406L317.833 -22.9344L316.279 -27.3438L314.822 -31.6626L313.458 -35.8846L312.185 -40.0038L311 -44.0143L309.9 -47.9105L308.88 -51.6869L307.939 -55.3383L307.07 -58.8595L306.271 -62.2459L305.536 -65.4928L304.861 -68.5959L304.242 -71.5512L303.673 -74.3549L303.149 -77.0035L302.665 -79.4937L302.215 -81.8227L301.794 -83.9878L301.396 -85.9867L301.015 -87.8174L300.646 -89.4783L300.283 -90.9679L299.919 -92.2852L299.549 -93.4295L299.166 -94.4005L298.765 -95.1979L298.34 -95.8222L297.885 -96.2738L297.393 -96.5537L296.86 -96.6632L296.278 -96.6037L295.643 -96.3772L294.949 -95.9857L294.191 -95.4318L293.363 -94.7183L292.459 -93.8482L291.476 -92.8248L290.408 -91.6518L289.25 -90.333L287.999 -88.8727L286.65 -87.2751L283.64 -83.6869L281.974 -81.7063L280.194 -79.6082L278.299 -77.3982L276.285 -75.0817L274.151 -72.6647L271.894 -70.153L269.512 -67.5527L267.003 -64.87L264.367 -62.1112L261.603 -59.2826L258.709 -56.3906L255.685 -53.4419L252.532 -50.4428L249.25 -47.4001L245.839 -44.3202L242.301 -41.2097L238.636 -38.0753L234.846 -34.9233L230.934 -31.7603L226.901 -28.5927L222.749 -25.4268L218.483 -22.2688L214.104 -19.1249L209.616 -16.0009L205.023 -12.9028L200.329 -9.83619L195.538 -6.80667L190.655 -3.81954L185.684 -0.879929L180.63 2.00718L175.498 4.83709L170.295 7.60529L165.025 10.3075L159.694 12.9398L154.308 15.4983L148.874 17.9796L143.397 20.3804L137.884 22.6979L132.342 24.9293L126.778 27.0724L121.198 29.125L115.608 31.0854L110.017 32.9521L104.43 34.724L98.855 36.4004L93.2989 37.9805L87.7686 39.4644L82.2711 40.8519L76.8134 42.1437L71.4023 43.3404L66.0448 44.4431L60.7476 45.4531L55.5174 46.372L50.3607 47.2019L45.2841 47.9449L40.2937 48.6035L35.3959 49.1806L30.5966 49.6792L25.9015 50.1027L21.3165 50.4546L16.8468 50.7389L12.4977 50.9595L8.27419 51.1207L4.18098 51.227L0.222596 51.2832L-3.59672 51.2942L-7.27303 51.265L-10.8026 51.2008L-14.182 51.107L-17.4082 50.9893L-20.4783 50.8531L-23.3899 50.7042L-26.1406 50.5486L-28.7287 50.3921L-33.4108 50.1004L-35.5027 49.9773L-37.4275 49.8775L-39.185 49.807L-40.7753 49.772L-42.1986 49.7785L-43.4558 49.8324L-44.5477 49.9397L-45.4758 50.1063L-46.2417 50.3379L-46.8473 50.6401L-47.295 51.0186L-47.5872 51.4786L-47.7268 52.0256L-47.7169 52.6645L-47.561 53.4002L-47.2626 54.2375L-46.8259 55.181L-46.2548 56.2348L-45.5539 57.4032L-44.7277 58.6899L-43.7812 60.0986L-42.7193 61.6325L-41.5474 63.2949L-40.2707 65.0884L-38.895 67.0156L-37.426 69.0788L-35.8695 71.2799L-34.2314 73.6205L-32.518 76.1019L-30.7353 78.7253L-28.8897 81.4912L-26.9874 84.4002L-25.0348 87.4521L-23.0383 90.6469L-21.0043 93.9839L-18.9392 97.4623L-16.8494 101.081L-14.7412 104.838L-12.621 108.732L-10.4949 112.76L-8.36919 116.921L-6.24983 121.211L-4.14281 125.627L-2.05396 130.166L0.0110302 134.825L2.04661 139.599L4.04743 144.484L6.00829 149.476L7.92415 154.569L9.79024 159.76L11.602 165.043L13.355 170.412L15.0451 175.862L16.6685 181.387L18.2215 186.981L19.7008 192.638L21.1032 198.351L22.426 204.115L23.6666 209.922L24.8228 215.766L25.8926 221.64L26.8745 227.537L27.767 233.451L28.5692 239.374L29.2803 245.298L29.8999 251.219L30.428 257.127L30.8647 263.016L31.2106 268.879L31.4665 274.709L31.6336 280.499L31.7134 286.242L31.7075 291.932L31.6181 297.561L31.4475 303.124L31.1983 308.613L30.8734 314.023L30.476 319.347L30.0096 324.58L29.4778 329.715L28.8846 334.747L28.2342 339.672L27.531 344.483L26.7795 349.175L25.9846 353.745L25.1514 358.188L24.2849 362.499L23.3906 366.675L22.474 370.713L21.5406 374.608L20.5963 378.359L19.6469 381.961L18.6984 385.414L17.7568 388.714L16.8283 391.861L15.9189 394.852L15.0349 397.687L14.1826 400.365L13.368 402.885L11.877 407.452L11.2129 409.5L10.6111 411.391L10.0777 413.128L9.61853 414.71L9.23936 416.141L8.9459 417.423L8.74366 418.556L8.63806 419.545L8.63433 420.393L8.73746 421.101L8.95238 421.675L9.28372 422.117L9.73592 422.432L10.3132 422.623L11.0196 422.696L11.8587 422.655L12.8342 422.505L13.9492 422.251L15.2067 421.898L16.6092 421.451L18.1593 420.917L19.8589 420.3L21.7099 419.607L23.7136 418.843L28.1839 417.129L30.6517 416.19L33.275 415.205L36.0537 414.181L38.9874 413.122L42.0752 412.037L45.3161 410.93L48.7086 409.809L52.2511 408.678L55.9414 407.545L59.7772 406.415L63.7559 405.295L67.8745 404.189L72.1296 403.104L76.5178 402.046L81.0352 401.019L85.6777 400.028L90.4409 399.08L95.3202 398.179L100.311 397.329L105.407 396.535L110.605 395.801L115.897 395.131L121.28 394.529L126.745 393.998L132.288 393.542L137.902 393.164L143.581 392.866L149.319 392.65L155.107 392.52L160.941 392.476L166.812 392.52L172.714 392.653L178.64 392.877L184.584 393.191L190.537 393.596L196.492 394.093L202.444 394.68L208.384 395.358L214.306 396.124L220.203 396.979L226.067 397.919L231.892 398.944L237.672 400.051L243.399 401.238L249.068 402.502L254.672 403.84L260.204 405.249L265.659 406.724L271.031 408.263L276.314 409.861L281.503 411.514L286.593 413.217L291.578 414.965L296.455 416.755L301.218 418.579L305.863 420.434L310.386 422.314L314.785 424.212L319.054 426.124L323.192 428.043L327.195 429.964L331.061 431.879L334.788 433.784L338.373 435.671L341.816 437.535L345.115 439.369L348.269 441.166L351.278 442.921L354.142 444.627L356.859 446.277L359.431 447.866L361.859 449.387L364.143 450.834L366.286 452.201L368.287 453.482L370.15 454.67L371.876 455.762L373.469 456.75L374.93 457.629L376.263 458.395L377.472 459.042L378.559 459.565L379.529 459.96L380.386 460.223L381.134 460.348L381.778 460.333L382.322 460.173L382.771 459.865L383.131 459.407L383.406 458.794L383.602 458.026L383.725 457.098L383.78 456.011L383.774 454.76L383.711 453.347L383.597 451.769L383.44 450.025L383.245 448.116L383.017 446.042L382.491 441.397L382.204 438.828L381.909 436.097L381.613 433.205L381.321 430.153L381.04 426.945L380.774 423.583L380.53 420.068L380.313 416.406L380.129 412.598L379.982 408.649L379.879 404.562L379.823 400.342L379.821 395.994L379.875 391.522L379.991 386.931L380.173 382.226L380.424 377.413L380.749 372.497L381.15 367.484L381.631 362.381L382.194 357.193L382.843 351.927L383.578 346.588L384.404 341.185L385.32 335.723L386.329 330.209L387.432 324.651L388.629 319.054L389.921 313.426L391.308 307.775L392.79 302.106L394.366 296.427L396.036 290.746L397.799 285.068L399.653 279.402L401.597 273.753L403.628 268.129L405.744 262.536L407.942 256.981L410.221 251.47L412.576 246.01L415.004 240.606L417.502 235.266L420.065 229.994L422.69 224.797L425.371 219.679L428.105 214.646L430.885 209.703L433.708 204.855L436.568 200.106L439.459 195.46L442.376 190.923L445.313 186.496L448.264 182.184L451.223 177.989L454.184 173.915L457.14 169.965L460.086 166.14L463.014 162.442L465.919 158.873L468.793 155.434L471.631 152.127L474.425 148.951L477.169 145.908L479.857 142.997L482.482 140.218L485.038 137.57L487.518 135.053L489.917 132.665L492.227 130.404L494.444 128.27L496.56 126.259L498.571 124.369L500.47 122.598L503.913 119.4L505.447 117.966L506.849 116.637L508.114 115.409L509.239 114.279L510.219 113.24L511.049 112.29L511.728 111.422L512.25 110.633L512.614 109.917L512.817 109.268L512.855 108.681L512.727 108.151L512.431 107.672L511.965 107.238L511.329 106.843L510.521 106.482L509.54 106.148L508.387 105.835L507.062 105.538L505.564 105.25L503.896 104.965L502.057 104.678L500.048 104.383L497.873 104.073L495.533 103.743L493.029 103.387L490.365 102.999L487.544 102.575L484.569 102.108L481.443 101.594L478.171 101.027L474.755 100.404L471.201 99.7177L467.514 98.9654L463.697 98.1423L459.756 97.2446L455.696 96.2682L451.523 95.2098L447.243 94.0659L442.861 92.8337L438.383 91.5102L433.816 90.093L429.165 88.5799L424.438 86.969L419.64 85.2586L414.779 83.4476L409.862 81.5347L404.894 79.5193L399.883 77.4011L394.836 75.18L389.76 72.8561L384.661 70.4301L379.547 67.9028L374.424 65.2754L369.299 62.5493L364.18 59.7264L359.072 56.8088L353.983 53.7989L348.918 50.6993L343.885 47.5131L338.889 44.2435L333.937 40.8941L329.035 37.4686L324.188 33.9712L319.402 30.4062L314.683 26.7781L310.035 23.0918L305.464 19.3522L300.974 15.5647L296.57 11.7345L292.256 7.8673L288.036 3.96891L283.914 0.0452408L279.893 -3.89762L275.976 -7.85349L272.166 -11.816L268.466 -15.7787L264.878 -19.7352L261.404 -23.6788L258.045 -27.6029L254.804 -31.5008L251.68 -35.3658L248.674 -39.1912L245.788 -42.9702L243.02 -46.6963L240.371 -50.3626L237.84 -53.9628L235.427 -57.4901L233.129 -60.9382L230.946 -64.3006L228.876 -67.5713L226.916 -70.7441L225.064 -73.8129L223.318 -76.7721L221.675 -79.616L220.131 -82.3391L218.683 -84.9361L217.327 -87.4022L216.059 -89.7323L213.772 -93.9668L212.744 -95.8628L211.786 -97.606L210.893 -99.193L210.061 -100.62L209.284 -101.885L208.556 -102.985L207.873 -103.917L207.228 -104.679L206.616 -105.27L206.03 -105.687L205.466 -105.931L204.917 -106L204.377 -105.894L203.84 -105.612L203.301 -105.154L202.753 -104.522L202.19 -103.716L201.607 -102.737L200.997 -101.587L200.356 -100.267L199.676 -98.779L198.953 -97.1263L198.182 -95.3113L197.356 -93.3368L195.522 -88.9232L194.504 -86.4915L193.412 -83.9152L192.242 -81.1988L190.99 -78.3468L189.652 -75.3641L188.223 -72.2558L186.701 -69.0271L185.082 -65.6836L183.364 -62.2309L181.542 -58.6748L179.616 -55.0214L177.583 -51.2769L175.44 -47.4474L173.187 -43.5393L170.822 -39.5593L168.344 -35.5138L165.752 -31.4095L163.047 -27.2532L160.227 -23.0515L157.294 -18.8112L154.248 -14.5392L151.09 -10.2422L147.821 -5.9269L144.443 -1.60009L140.957 2.7316L137.366 7.06158L133.672 11.3833L129.878 15.6905L125.987 19.9767L122.002 24.2358L117.927 28.4619L113.766 32.649L109.523 36.7914L105.202 40.8836L100.809 44.9204L96.3471 48.8965L91.8225 52.8072L87.2403 56.6477L82.606 60.4136L77.9253 64.1008L73.2041 67.7054L68.4485 71.2236L63.6646 74.6522L58.8588 77.988L54.0376 81.2282L49.2074 84.3704L44.375 87.4123L39.547 90.352L34.7303 93.188L29.9316 95.919L25.1578 98.5439L20.4159 101.062L15.7126 103.474L11.0548 105.778L6.44938 107.975L1.90302 110.067L-2.57758 112.053L-6.98574 113.936L-11.315 115.716L-15.5589 117.395L-19.7111 118.976L-23.7656 120.46L-27.7163 121.852L-31.5574 123.152L-35.2833 124.366L-38.8885 125.496L-42.3677 126.545L-45.7159 127.519L-48.9283 128.421L-52.0005 129.255L-54.928 130.026L-57.7068 130.739L-60.3332 131.399L-62.8036 132.011L-65.1149 132.58L-67.2641 133.112L-69.2486 133.613L-71.0661 134.086L-72.7147 134.54L-74.1926 134.979L-75.4985 135.409L-76.6313 135.837L-77.5903 136.268L-78.3752 136.708L-78.9859 137.163L-79.4226 137.64L-79.6859 138.143L-79.7768 138.68L-79.6965 139.256L-79.4466 139.876L-79.0289 140.546L-78.4455 141.273L-77.6991 142.061L-76.7923 142.915L-75.7282 143.842L-74.5103 144.845L-73.142 145.93L-71.6274 147.101L-69.9705 148.364L-66.2479 151.177L-64.1917 152.736L-62.0122 154.402L-59.7148 156.177L-57.3049 158.065L-54.7881 160.068L-52.1702 162.189L-49.4572 164.431L-46.6552 166.794L-43.7704 169.281L-40.809 171.892L-37.7776 174.63L-34.6825 177.493L-31.5303 180.484L-28.3275 183.602L-25.0809 186.846L-21.7969 190.216L-18.4822 193.711L-15.1434 197.33L-11.787 201.071L-8.4196 204.933L-5.04755 208.912L-1.67726 213.008L1.68501 217.216L5.03314 221.535L8.36107 225.959L11.6629 230.487L14.933 235.113L18.1656 239.835L21.3555 244.646L24.4975 249.543L27.5864 254.521L30.6177 259.574L33.5866 264.697L36.4889 269.885L39.3206 275.131L42.0778 280.43L44.7569 285.776L47.3548 291.162L49.8683 296.583L52.2949 302.03L54.6321 307.499L56.8777 312.981L59.0299 318.471L61.0874 323.961L63.0488 329.444L64.9132 334.914L66.6801 340.363L68.3493 345.785L69.9208 351.172L71.3949 356.518L72.7723 361.815L74.054 367.057L75.2414 372.238L76.336 377.349L77.3396 382.386L78.2546 387.34L79.0833 392.207L79.8285 396.98L80.4931 401.653L81.0807 406.22L81.5945 410.675L82.0385 415.013L82.4166 419.23L82.7331 423.319L82.9925 427.276L83.1994 431.097L83.3586 434.777L83.4753 438.312L83.5546 441.7L83.6019 444.936L83.6225 448.017L83.6222 450.94L83.6067 453.703L83.5818 456.304L83.5274 461.011L83.5098 463.115L83.5067 465.051L83.5242 466.818L83.5683 468.417L83.6451 469.847L83.7605 471.108L83.9206 472.201L84.1312 473.128L84.3983 473.889L84.7276 474.487L85.1247 474.923L85.5951 475.2L86.1443 475.319L86.7775 475.285L87.4998 475.099L88.3161 474.766L89.2312 474.289L90.2494 473.672L91.3753 472.92L92.6128 472.036L93.9658 471.026L95.438 469.893L97.0326 468.644L98.7528 467.284L100.601 465.818L102.581 464.251L104.694 462.59L106.941 460.839L109.326 459.006L111.849 457.097L114.511 455.117L117.312 453.073L120.254 450.971L123.337 448.817L126.56 446.619L129.922 444.382L133.423 442.113L137.062 439.819L140.836 437.505L144.745 435.178L148.786 432.844L152.957 430.51L157.255 428.182L161.676 425.865L166.218 423.566L170.877 421.29L175.649 419.042L180.53 416.829L185.515 414.656L190.599 412.527L195.779 410.447L201.048 408.422L206.401 406.455L211.833 404.55L217.338 402.713L222.909 400.945L228.541 399.251L234.228 397.634L239.963 396.097L245.739 394.642L251.55 393.272L257.388 391.988L263.248 390.793L269.122 389.687L275.003 388.672L280.885 387.749L286.759 386.918L292.619 386.179L298.458 385.532L304.269 384.976L310.046 384.512L315.78 384.137L321.465 383.85L327.095 383.65L332.662 383.534L338.161 383.501L343.584 383.548L348.926 383.671L354.18 383.868L359.34 384.136L364.401 384.47L369.358 384.867L374.204 385.323L378.935 385.833L383.545 386.393L388.031 386.998L392.387 387.643L396.61 388.323L400.695 389.033L404.64 389.767L408.441 390.519L412.094 391.284L415.598 392.057L418.95 392.83L422.147 393.598L425.188 394.356L428.072 395.096L430.798 395.813L433.364 396.5L438.017 397.762L440.104 398.324L442.031 398.833L443.8 399.28L445.412 399.662L446.868 399.972L448.17 400.205L449.321 400.353L450.321 400.413L451.175 400.379L451.884 400.245L452.453 400.007L452.885 399.659L453.183 399.198L453.351 398.617L453.395 397.915L453.317 397.085L453.123 396.125L452.818 395.031L452.407 393.8L451.895 392.429L451.287 390.915L450.59 389.256L449.808 387.45L448.948 385.495L447.015 381.133L445.956 378.724L444.842 376.161L443.68 373.446L442.477 370.577L441.238 367.556L439.97 364.383L438.679 361.059L437.371 357.586L436.053 353.965L434.73 350.198L433.41 346.289L432.096 342.238L430.796 338.051L429.516 333.728L428.26 329.275L427.034 324.695L425.844 319.992L424.694 315.17L423.59 310.235L422.536 305.19L421.537 300.042L420.597 294.795L419.72 289.455L418.91 284.027L418.17 278.518L417.504 272.934L416.915 267.281L416.405 261.565L415.977 255.793L415.633 249.971L415.375 244.107L415.205 238.207L415.124 232.279L415.132 226.328L415.231 220.363L415.421 214.39L415.702 208.416L416.073 202.449L416.534 196.495L417.084 190.561L417.722 184.655L418.446 178.783L419.255 172.953L420.147 167.17L421.118 161.442L422.166 155.774L423.289 150.174L424.483 144.648L425.744 139.201L427.07 133.839L428.455 128.568L429.895 123.394L431.386 118.321L432.924 113.355L434.503 108.5L436.119 103.76L437.766 99.1414L439.438 94.6464L441.13 90.2791L442.837 86.0428L444.551 81.9408L446.269 77.9758L447.982 74.1502L449.686 70.4664L451.374 66.9263L453.04 63.5313L454.677 60.2826L456.279 57.1814L457.84 54.228L459.353 51.4229L460.813 48.7659L462.212 46.2568L463.545 43.8949L464.805 41.6791L465.987 39.6081L467.084 37.6803L468.091 35.8939L469.003 34.2465L469.812 32.7358L470.515 31.3588L471.106 30.1126L471.579 28.9938L471.931 27.9988L472.156 27.1238L472.25 26.3646L472.209 25.717L472.029 25.1766L471.706 24.7384L471.237 24.3977L470.619 24.1493L469.849 23.9879L468.925 23.9082L467.843 23.9046L466.603 23.9714L465.203 24.1028L463.641 24.2929L461.916 24.5358L460.027 24.8255L457.975 25.1558L453.379 25.9141L450.837 26.3297L448.132 26.7616L445.266 27.2035L442.242 27.6495L439.06 28.0936L435.722 28.5299L432.233 28.9525L428.593 29.3558L424.807 29.7341L420.877 30.082L416.808 30.3941L412.603 30.6654L408.267 30.8908L403.804 31.0656L399.219 31.1851L394.517 31.245L389.702 31.2411L384.782 31.1694L379.76 31.0264L374.644 30.8085L369.438 30.5126L364.15 30.1358L358.785 29.6755L353.35 29.1292L347.851 28.495L342.296 27.7711L336.691 26.956L331.043 26.0486L325.359 25.048L319.646 23.9537L313.91 22.7655L308.16 21.4834L302.401 20.1079L296.641 18.6397L290.887 17.0797L285.147 15.4294L279.426 13.6903L273.731 11.8644L268.07 9.95399L262.449 7.96155L256.874 5.88992L251.352 3.74218L245.888 1.52173L240.49 -0.767785L235.162 -3.12249L229.911 -5.53819L224.742 -8.01053L219.661 -10.5349L214.671 -13.1064L209.778 -15.72L204.987 -18.3705L200.302 -21.0525L195.726 -23.7604L191.264 -26.4883L186.92 -29.2306L182.695 -31.981L178.593 -34.7335L174.617 -37.4819L170.77 -40.2198L167.051 -42.9409L163.465 -45.6387L160.011 -48.3067L156.692 -50.9385L153.506 -53.5275L150.456 -56.0672L147.541 -58.5511L144.76 -60.9729L142.114 -63.3261L139.601 -65.6043L137.22 -67.8015L134.969 -69.9115L132.848 -71.9282L130.852 -73.8457L128.981 -75.6584L125.601 -78.947L124.085 -80.4123L122.682 -81.7515L121.386 -82.9598L120.194 -84.0326L119.103 -84.9655L118.107 -85.7544L117.202 -86.3956L116.383 -86.8853L115.645 -87.2202L114.983 -87.3973L114.392 -87.414L113.866 -87.2676L113.399 -86.956L112.987 -86.4775L112.623 -85.8304L112.301 -85.0136L112.015 -84.0261L111.76 -82.8674L111.529 -81.5372L111.316 -80.0357L111.116 -78.3632L110.923 -76.5204L110.729 -74.5084L110.53 -72.3285L110.32 -69.9826L110.092 -67.4725L109.842 -64.8006L109.562 -61.9695L109.249 -58.9823L108.896 -55.842L108.498 -52.5522L108.051 -49.1167L107.548 -45.5396L106.987 -41.8253L106.362 -37.9782L105.668 -34.0032L104.902 -29.9054L104.061 -25.6901L103.139 -21.3627L102.135 -16.929L101.044 -12.3948L99.8645 -7.76609L98.5935 -3.04914L97.2289 1.74975L95.7686 6.62408L94.2109 11.5673L92.5546 16.5727L90.7985 21.6335L88.9418 26.743L86.9842 31.8942L84.9255 37.0802L82.7659 42.2941L80.5059 47.5289L78.1463 52.7776L75.6882 58.0335L73.1331 63.2896L70.4827 68.539L67.739 73.7752L64.9044 78.9913L61.9815 84.1809L58.9734 89.3375L55.8831 94.4549L52.7142 99.5268L49.4704 104.547L46.1558 109.511L42.7747 114.411L39.3315 119.243L35.831 124.002L32.2781 128.682L28.6782 133.279L25.0364 137.787L21.3584 142.204L17.65 146.525L13.9169 150.746L10.1653 154.863L6.40125 158.874L2.63113 162.775L-1.13871 166.565L-4.9018 170.24L-8.65159 173.799L-12.3815 177.24L-16.0848 180.562L-19.7549 183.763L-23.3851 186.843L-26.9686 189.802L-30.499 192.64L-33.9695 195.356L-37.3735 197.951L-40.7046 200.426L-43.9564 202.783L-47.1225 205.022L-50.1966 207.146L-53.1729 209.156L-56.0452 211.055L-58.8078 212.846L-61.4552 214.531L-63.9818 216.114L-66.3824 217.598L-68.6521 218.986L-72.7794 221.493L-74.6282 222.621L-76.3283 223.67L-77.8757 224.645L-79.267 225.552L-80.4989 226.395L-81.5684 227.18L-82.4729 227.913L-83.2099 228.598L-83.7775 229.241L-84.1737 229.848L-84.3973 230.425L-84.447 230.978L-84.3222 231.513L-84.0222 232.035L-83.5469 232.551L-82.8966 233.066L-82.0717 233.587L-81.0731 234.119L-79.9019 234.668L-78.5596 235.241L-77.048 235.843L-75.3692 236.479L-73.5256 237.156L-71.5199 237.878L-67.0347 239.48L-64.562 240.371L-61.9411 241.327L-59.1761 242.354L-56.2712 243.456L-53.2312 244.638L-50.0609 245.903L-46.7655 247.255L-43.3501 248.698L-39.8204 250.235L-36.1819 251.868L-32.4407 253.602L-28.6026 255.438L-24.6739 257.379L-20.6608 259.426L-16.5698 261.581L-12.4074 263.845L-8.18022 266.22L-3.89491 268.706L0.441789 271.303L4.82308 274.012L9.24219 276.832L13.6923 279.763L18.1665 282.804L22.6582 285.953L27.1606 289.21L31.6668 292.572L36.1705 296.037L40.6649 299.603L45.1436 303.268L49.6004 307.027L54.029 310.878L58.4233 314.817L62.7775 318.841L67.0858 322.945L71.3426 327.124L75.5426 331.376L79.6807 335.693L83.7518 340.072L87.7513 344.507L91.6748 348.992L95.518 353.523L99.2769 358.092L102.948 362.695L106.527 367.324L110.013 371.974L113.4 376.639L116.688 381.311L119.874 385.984L122.955 390.651L125.931 395.306L128.8 399.942L131.561 404.552L134.213 409.129L136.755 413.666L139.189 418.157L141.513 422.594L143.73 426.971L145.838 431.282L147.84 435.52L149.738 439.677L151.532 443.749L153.225 447.727L154.819 451.608L156.318 455.383L157.723 459.049L159.038 462.598L160.267 466.026L161.413 469.327L162.48 472.496L163.473 475.529L164.395 478.421L165.251 481.168L166.046 483.765L166.785 486.209L168.115 490.624L168.717 492.589L169.284 494.388L169.822 496.02L170.336 497.483L170.833 498.774L171.318 499.892L171.797 500.837L172.276 501.607L172.761 502.203L173.258 502.623L173.774 502.87L174.313 502.942L174.882 502.841L175.487 502.569L176.133 502.126L176.827 501.515L177.573 500.738L178.377 499.797L179.245 498.696L180.182 497.436L181.193 496.023L182.282 494.458L183.454 492.747L186.066 488.9L187.514 486.774L189.062 484.519L190.713 482.141L192.471 479.644L194.339 477.035L196.319 474.318L198.414 471.5L200.627 468.587L202.958 465.584L205.41 462.498L207.984 459.336L210.682 456.103L213.503 452.806L216.448 449.452L219.517 446.048L222.71 442.599L226.027 439.114L229.466 435.597L233.026 432.057L236.706 428.499L240.504 424.93L244.418 421.356L248.445 417.785L252.583 414.222L256.828 410.673L261.177 407.145L265.627 403.643L270.174 400.174L274.813 396.743L279.54 393.354L284.351 390.015L289.24 386.729L294.203 383.501L299.234 380.336L304.327 377.239L309.477 374.213L314.678 371.263L319.924 368.391L325.208 365.602L330.524 362.899L335.866 360.283L341.227 357.758L346.6 355.326L351.979 352.988L357.356 350.747L362.725 348.603L368.079 346.557L373.41 344.61L378.713 342.763L383.979 341.015L389.202 339.366L394.375 337.816L399.492 336.363L404.545 335.006L409.527 333.744L414.434 332.574L419.257 331.496L423.99 330.505L428.628 329.601L433.165 328.779L437.594 328.036L441.91 327.369L446.108 326.774L450.182 326.248L454.127 325.785L457.94 325.382L461.614 325.034L465.146 324.736L468.533 324.483L471.77 324.27L474.853 324.092L477.781 323.943L480.549 323.817L483.156 323.71L487.877 323.525L489.988 323.436L491.93 323.342L493.702 323.235L495.305 323.111L496.738 322.964L498 322.786L499.092 322.573L500.016 322.318L500.771 322.015L501.36 321.659L501.783 321.243L502.044 320.763L502.143 320.212L502.084 319.585L501.87 318.877L501.504 318.084L500.989 317.199L500.328 316.218L499.527 315.137L498.588 313.951L497.517 312.656L496.318 311.249L494.996 309.726L493.556 308.083L490.343 304.426L488.582 302.406L486.725 300.257L484.778 297.975L482.747 295.559L480.639 293.007L478.459 290.32L476.213 287.495L473.91 284.532L471.553 281.432L469.151 278.194L466.71 274.819L464.235 271.308L461.734 267.662L459.213 263.883L456.678 259.972L454.136 255.931L451.593 251.763L449.055 247.471L446.528 243.057L444.017 238.525L441.53 233.879L439.071 229.122L436.646 224.259L434.26 219.294L431.919 214.231L429.626 209.076L427.388 203.833L425.208 198.509L423.09 193.108L421.039 187.636L419.059 182.1L417.152 176.506L415.322 170.859L413.573 165.166L411.906 159.433L410.324 153.669L408.829 147.878L407.422 142.068L406.106 136.247L404.882 130.42L403.749 124.595L402.71 118.779L401.763 112.979L400.909 107.202L400.148 101.455L399.479 95.7456L398.9 90.0797L398.41 84.4647L398.009 78.9072L397.693 73.4141L397.46 67.9916L397.309 62.6464L397.236 57.3847L397.238 52.2126L397.312 47.136L397.455 42.1607L397.661 37.2922L397.928 32.536L398.251 27.8971L398.626 23.3803L399.047 18.9905L399.511 14.7319L400.011 10.6087L400.542 6.62474L401.1 2.78359L401.678 -0.911441L402.272 -4.45738L402.874 -7.85155L403.479 -11.0915L404.082 -14.1753L404.676 -17.101L405.255 -19.8673L405.813 -22.4731L406.841 -27.2001L407.298 -29.3208L407.711 -31.2797L408.071 -33.0773L408.374 -34.7145L408.613 -36.1924L408.783 -37.5125L408.877 -38.6764L408.891 -39.6864L408.818 -40.5447L408.653 -41.2541L408.391 -41.8174L408.027 -42.2379L407.556 -42.5191L406.974 -42.6648L406.276 -42.6789L405.458 -42.5657L404.515 -42.3296L403.444 -41.9754L402.242 -41.5079L400.906 -40.9323L399.432 -40.2538L397.818 -39.4777L396.061 -38.6098L394.159 -37.6558L389.915 -35.5126L387.57 -34.3356L385.075 -33.0964L382.429 -31.8012L379.633 -30.4563L376.686 -29.068L373.588 -27.6426L370.342 -26.1863L366.946 -24.7054L363.404 -23.2063L359.717 -21.6951L355.886 -20.178L351.915 -18.6611L347.805 -17.1504L343.56 -15.6516L339.183 -14.1708L334.677 -12.7133L330.046 -11.2849L325.295 -9.89066L320.427 -8.53588L315.448 -7.22552L310.362 -5.96429L305.174 -4.7568L299.89 -3.60737L294.515 -2.5201L289.055 -1.49883L283.515 -0.547219L277.903 0.331393L272.223 1.13397L266.483 1.85765L260.689 2.49994L254.848 3.05863L248.966 3.53177L243.051 3.91769L237.108 4.21509L231.147 4.42292L225.172 4.54051L219.192 4.56741L213.213 4.50355L207.243 4.34914L201.288 4.10471L195.356 3.77109L189.453 3.34948L183.587 2.84128L177.764 2.2483L171.992 1.57256L166.275 0.816401L160.622 -0.0175046L155.039 -0.926236L149.531 -1.90664L144.104 -2.95523L138.766 -4.0683L133.52 -5.2419L128.373 -6.47182L123.33 -7.75362L118.396 -9.08268L113.575 -10.4541L108.872 -11.8629L104.292 -13.3038L99.8384 -14.7715L95.5145 -16.2603L91.3241 -17.7646L87.2703 -19.2786L83.3558 -20.7963L79.5833 -22.3118L75.9548 -23.8188L72.4725 -25.3112L69.1377 -26.7828L65.9517 -28.2273L62.9156 -29.6384L60.0298 -31.0098L57.2948 -32.3352L54.7105 -33.6083L52.2766 -34.8229L49.9922 -35.9729L45.8684 -38.0544L44.026 -38.9741L42.3274 -39.8053L40.7706 -40.5422L39.3529 -41.1795L38.0716 -41.7117L36.9236 -42.1337L35.9056 -42.4403L35.0141 -42.6269L34.2451 -42.6887L33.5946 -42.6216L33.0583 -42.4212L32.6317 -42.0836L32.31 -41.6053L32.0883 -40.9829L31.9615 -40.2132L31.9244 -39.2934L31.9715 -38.221L32.0972 -36.9937L32.2958 -35.6095L32.5616 -34.0669L32.8887 -32.3645L33.271 -30.5012L33.7026 -28.4765L34.6889 -23.9413L35.2314 -21.4311L35.7987 -18.7598L36.3844 -15.9284L36.9826 -12.9381L37.5871 -9.79049L38.192 -6.48742L38.7912 -3.03114L39.3791 0.575887L39.9496 4.33081L40.4974 8.23055L41.0168 12.2717L41.5026 16.4505L41.9494 20.7631L42.3523 25.2052L42.7065 29.7722L43.0073 34.4595L43.2502 39.2621L43.4311 44.1747L43.546 49.192L43.5912 54.3082L43.5631 59.5176L43.4585 64.814L43.2745 70.1915L43.0085 75.6435L42.6578 81.1637L42.2206 86.7454L41.6949 92.3819L41.0793 98.0665L40.3725 103.792L39.5737 109.552L38.6821 115.339L37.6976 121.147L36.6202 126.967L35.4502 132.794L34.1883 138.619L32.8353 144.437L31.3927 150.24L29.862 156.021L28.245 161.773L26.544 167.49L24.7614 173.165L22.9 178.791L20.9628 184.363L18.9532 189.873L16.8748 195.317L14.7312 200.687L12.5268 205.979L10.2659 211.187L7.95286 216.305L5.59263 221.328L3.19017 226.253L0.75066 231.073L-1.72055 235.785L-4.21787 240.385L-6.73562 244.87L-9.26799 249.234L-11.809 253.476L-14.3525 257.592L-16.8923 261.581L-19.4223 265.438L-21.9359 269.164L-24.4269 272.755L-26.8888 276.21L-29.3151 279.529L-31.6993 282.711L-34.035 285.755L-36.3158 288.662L-38.5351 291.431L-40.6868 294.063L-42.7644 296.559L-44.7619 298.92L-46.673 301.148L-48.4918 303.245L-50.2125 305.212L-53.3366 308.767L-54.7292 310.361L-56.0017 311.836L-57.1492 313.197L-58.1669 314.447L-59.0502 315.589L-59.7948 316.629L-60.3965 317.57L-60.8516 318.418L-61.1564 319.176L-61.3075 319.85L-61.3021 320.445L-61.1373 320.967L-60.8107 321.42L-60.3202 321.811L-59.6639 322.145L-58.8402 322.427L-57.848 322.665L-56.6864 322.863L-55.3548 323.027L-53.853 323.164L-52.181 323.28L-50.3392 323.381L-48.3285 323.473L-46.1498 323.561L-41.2943 323.752L-38.6213 323.866L-35.7877 324L-32.7962 324.161L-29.6498 324.352L-26.3516 324.581L-22.9052 324.852L-19.3144 325.169L-15.5833 325.539L-11.7162 325.966L-7.7177 326.454L-3.59262 327.008L0.653978 327.632L5.01676 328.329L9.49028 329.104L14.0688 329.959L18.7465 330.898L23.5173 331.924L28.3749 333.04L33.3131 334.246L38.3253 335.547L43.405 336.943L48.5454 338.436L53.7398 340.026L58.9813 341.715L64.2631 343.504L69.5782 345.391L74.9196 347.378L80.2803 349.464L85.6535 351.648L91.0322 353.929L96.4094 356.305L101.778 358.776L107.132 361.338L112.465 363.99L117.768 366.728L123.038 369.551L128.266 372.455L133.447 375.437L138.574 378.492L143.643 381.617L148.647 384.808L153.58 388.06L158.438 391.369L163.215 394.729L167.907 398.135L172.509 401.583L177.017 405.066L181.427 408.579L185.734 412.117L189.936 415.672L194.029 419.239L198.01 422.812L201.877 426.384L205.627 429.95L209.258 433.501L212.77 437.033L216.159 440.538L219.425 444.009L222.568 447.44L225.587 450.825L228.481 454.156L231.252 457.428L233.899 460.633L236.423 463.765L238.826 466.817L241.109 469.784L243.273 472.66L245.321 475.437L247.255 478.111L249.078 480.675L250.792 483.125L252.4 485.453L253.907 487.656L256.63 491.665L257.854 493.461L258.991 495.113L260.048 496.617L261.028 497.968L261.936 499.164L262.777 500.2L263.558 501.074L264.282 501.784L264.955 502.327L265.584 502.701L266.174 502.903L266.73 502.933L267.259 502.79L267.766 502.473L268.257 501.981L268.739 501.314L269.218 500.473L269.698 499.457L270.187 498.268L270.69 496.907L271.214 495.376L271.763 493.675L272.343 491.808L272.961 489.777L274.329 485.232L275.09 482.725L275.91 480.067L276.792 477.26L277.742 474.311L278.765 471.221L279.863 467.998L281.043 464.644L282.306 461.167L283.658 457.569L285.101 453.858L286.638 450.039L288.272 446.118L290.006 442.101L291.842 437.994L293.782 433.803L295.828 429.535L297.98 425.196L300.24 420.793L302.609 416.333L305.087 411.823L307.674 407.269L310.37 402.677L313.175 398.056L316.088 393.412L319.107 388.751L322.231 384.08L325.459 379.407L328.787 374.737L332.215 370.078L335.739 365.436L339.356 360.816L343.064 356.227L346.857 351.672L350.734 347.159L354.689 342.694L358.718 338.281L362.817 333.927L366.981 329.636L371.205 325.413L375.483 321.264L379.811 317.192L384.182 313.202L388.591 309.298L393.032 305.484L397.498 301.763L401.984 298.139L406.483 294.613L410.989 291.19L415.494 287.871L419.993 284.658L424.478 281.552L428.943 278.556L433.382 275.67L437.786 272.895L442.15 270.232L446.467 267.68L450.729 265.239L454.931 262.91L459.065 260.69L463.125 258.579L467.104 256.576L470.997 254.678L474.796 252.884L478.496 251.191L482.091 249.597L485.575 248.099L488.942 246.693L492.187 245.377L495.305 244.147L498.291 242.998L501.139 241.927L503.846 240.929L506.407 240L508.818 239.135L513.176 237.578L515.116 236.875L516.893 236.215L518.504 235.594L519.947 235.005L521.219 234.442L522.32 233.9L523.248 233.373L524.002 232.856L524.581 232.341L524.985 231.823L525.214 231.297L525.268 230.756L525.147 230.193L524.853 229.605L524.387 228.983L523.75 228.324L522.944 227.62L521.972 226.867L520.836 226.059L519.539 225.19L518.084 224.256L516.474 223.251L514.713 222.171L510.753 219.766L508.563 218.432L506.24 217.005L503.787 215.481L501.211 213.857L498.516 212.129L495.708 210.295L492.792 208.351L489.776 206.294L486.663 204.124L483.461 201.837L480.177 199.432L476.815 196.908L473.383 194.264L469.887 191.498L466.335 188.612L462.731 185.603L459.084 182.474L455.4 179.223L451.685 175.853L447.946 172.363L444.19 168.757L440.423 165.035L436.652 161.2L432.884 157.253L429.124 153.198L425.38 149.039L421.656 144.777L417.959 140.416L414.295 135.962L410.67 131.416L407.088 126.785L403.556 122.073L400.078 117.283L396.66 112.423L393.305 107.496L390.019 102.509L386.805 97.4667L383.668 92.3755L380.611 87.2414L377.637 82.0705L374.75 76.8694L371.952 71.6443L369.246 66.4019L366.634 61.1489L364.118 55.8921L361.7 50.6383L359.381 45.3944L357.162 40.1673L355.043 34.9639L353.026 29.7913L351.109 24.6563L349.294 19.5658L347.578 14.5267L345.962 9.54581L344.445 4.62985L343.023 -0.214546L341.697 -4.98082L340.464 -9.66258L339.321 -14.2535L338.266 -18.7475L337.295 -23.1387L336.407 -27.421L335.596 -31.5891L334.861 -35.6375L334.195 -39.561L333.597 -43.3546L333.06 -47.0136L332.581 -50.5335L332.154 -53.9101L331.775 -57.1394L331.439 -60.2178L331.14 -63.1418L330.873 -65.9083L330.632 -68.5146L330.207 -73.2366L330.011 -75.3483L329.818 -77.2915L329.623 -79.0651L329.419 -80.668L329.199 -82.0998L328.959 -83.3601L328.692 -84.449L328.393 -85.3669L328.054 -86.1144L327.671 -86.6927L327.237 -87.103L326.747 -87.347L326.195 -87.4267L325.576 -87.3444L324.884 -87.1026L324.113 -86.7043L323.26 -86.1525L322.318 -85.4507L321.284 -84.6026L320.152 -83.6122L318.919 -82.4837L317.58 -81.2215L316.131 -79.8303L314.569 -78.3151L311.091 -74.933L309.17 -73.0769L307.123 -71.1183L304.949 -69.0629L302.646 -66.9167L300.211 -64.6857L297.644 -62.3762L294.943 -59.9943L292.108 -57.5464L289.137 -55.039L286.032 -52.4784L282.792 -49.8712L279.418 -47.2239L275.91 -44.543L272.269 -41.8349L268.498 -39.1062L264.598 -36.3633L260.571 -33.6124L256.419 -30.86L252.145 -28.1122L247.752 -25.3751L243.243 -22.6546L238.622 -19.9566L233.894 -17.2867L229.061 -14.6506L224.128 -12.0535L219.1 -9.50062L213.982 -6.99689L208.779 -4.54707L203.496 -2.15571L198.139 0.172923L192.713 2.43477L187.225 4.62603L181.681 6.74316L176.087 8.7829L170.448 10.7423L164.773 12.6185L159.066 14.4093L153.337 16.1124L147.59 17.7262L141.833 19.2489L136.072 20.6795L130.316 22.017L124.571 23.2608L118.844 24.4108L113.141 25.4669L107.471 26.4294L101.84 27.2991L96.2541 28.0769L90.7213 28.7641L85.248 29.3622L79.8408 29.8732L74.5063 30.2993L69.2509 30.6428L64.0808 30.9065L59.0023 31.0935L54.0211 31.207L49.1431 31.2506L44.3738 31.228L39.7186 31.1434L35.1826 31.0008L30.7707 30.8048L26.4876 30.5602L22.3375 30.2716L18.3247 29.9443L14.4531 29.5833L10.7262 29.1942L7.14724 28.7824L3.71928 28.3535L0.445001 27.9133L-2.67319 27.4677L-5.63325 27.0226L-8.4334 26.5841L-11.0722 26.1581L-15.8616 25.3683L-18.011 25.0167L-19.9965 24.7022L-21.8183 24.4309L-23.4769 24.2088L-24.9731 24.0418L-26.3081 23.936L-27.4833 23.8972L-28.5006 23.9312L-29.3618 24.0435L-30.0696 24.2396L-30.6264 24.525L-31.0353 24.9048L-31.2995 25.3841L-31.4225 25.9676L-31.408 26.6601L-31.2601 27.466L-30.9829 28.3894L-30.5811 29.4344L-30.0592 30.6047L-29.4223 31.9038L-28.6753 33.3349L-27.8237 34.9009L-26.8727 36.6047L-25.8281 38.4484L-23.481 42.5641L-22.1903 44.8393L-20.8297 47.2611L-19.4052 49.8304L-17.9232 52.5477L-16.3898 55.4132L-14.8114 58.4268L-13.1943 61.5882L-11.5448 64.8966L-9.86938 68.3509L-8.1742 71.9498L-6.46554 75.6916L-4.74961 79.5742L-3.03252 83.5953L-1.32033 87.7524L0.381047 92.0424L2.06581 96.4622L3.72824 101.008L5.36284 105.677L6.96422 110.464L8.52717 115.364L10.0467 120.375L11.5179 125.489L12.9363 130.704L14.2974 136.012L15.5971 141.41L16.8314 146.89L17.9968 152.447L19.0897 158.075L20.1071 163.768L21.046 169.519L21.9039 175.323L22.6786 181.171L23.368 187.057L23.9704 192.975L24.4844 198.918L24.9089 204.878L25.2432 210.849L25.4868 216.823L25.6395 222.794L25.7016 228.754L25.6734 234.697L25.5557 240.615L25.3497 246.501L25.0567 252.348L24.6784 258.15L24.2169 263.9L23.6744 269.591L23.0535 275.217L22.357 280.772L21.5882 286.248L20.7503 291.641L19.8471 296.944L18.8824 302.151L17.8604 307.258L16.7855 312.259L15.6623 317.148L14.4956 321.922L13.2903 326.576L12.0516 331.105L10.785 335.505L9.49583 339.773L8.1898 343.905L6.87269 347.898L5.5504 351.75L4.22889 355.457L2.91424 359.018L1.61264 362.431L0.330237 365.694L-0.926718 368.805L-2.15195 371.764L-3.33917 374.57L-4.48216 377.223L-5.57464 379.723L-6.61044 382.071L-8.48739 386.31L-9.31649 388.204L-10.0648 389.95L-10.7264 391.549L-11.2959 393.005L-11.7675 394.318L-12.1361 395.493L-12.3964 396.532L-12.5434 397.438L-12.5722 398.216L-12.4785 398.868L-12.2576 399.4L-11.9056 399.815L-11.4186 400.117L-10.7927 400.312L-10.0248 400.405L-9.1117 400.4L-8.05053 400.303L-6.83878 400.12L-5.47419 399.855L-3.95483 399.515L-2.27905 399.106L-0.445508 398.633L1.54679 398.102L6.01016 396.891L8.48167 396.224L11.1128 395.524L13.9029 394.797L16.8512 394.049L19.9563 393.286L23.2167 392.515L26.6306 391.742L30.1957 390.971L33.9095 390.211L37.7692 389.465L41.7718 388.741L45.9138 388.042L50.1915 387.376L54.6009 386.747L59.1379 386.159L63.7979 385.619L68.5762 385.13L73.4678 384.698L78.4675 384.326L83.5699 384.018L88.7693 383.779L94.0598 383.612L99.4356 383.519L104.89 383.505L110.418 383.571L116.011 383.721L121.664 383.956L127.37 384.279L133.122 384.69L138.914 385.191L144.737 385.784L150.586 386.469L156.452 387.245L162.33 388.114L168.212 389.075L174.091 390.127L179.96 391.269L185.813 392.501L191.641 393.82L197.438 395.225L203.198 396.713L208.914 398.283L214.579 399.932L220.188 401.656L225.733 403.453L231.209 405.318L236.609 407.249L241.929 409.24L247.162 411.288L252.303 413.388L257.348 415.536L262.291 417.726L267.128 419.954L271.854 422.214L276.466 424.5L280.959 426.807L285.331 429.129L289.577 431.461L293.695 433.795L297.683 436.127L301.537 438.449L305.257 440.756L308.839 443.041L312.284 445.298L315.59 447.52L318.755 449.7L321.781 451.834L324.666 453.913L327.41 455.932L330.015 457.884L332.482 459.763L334.81 461.563L337.003 463.277L339.061 464.901L342.783 467.851L344.452 469.167L345.996 470.369L347.419 471.452L348.725 472.412L349.916 473.243L350.998 473.94L351.973 474.501L352.848 474.919L353.625 475.193L354.311 475.317L354.909 475.289L355.425 475.106L355.865 474.765L356.234 474.263L356.537 473.599L356.781 472.771L356.97 471.776L357.111 470.614L357.21 469.284L357.273 467.786L357.305 466.119L357.314 464.283L357.304 462.279L357.282 460.107L357.227 455.264L357.205 452.597L357.195 449.768L357.203 446.78L357.234 443.636L357.293 440.338L357.387 436.89L357.52 433.295L357.699 429.557L357.926 425.68L358.208 421.669L358.549 417.527L358.954 413.261L359.426 408.874L359.969 404.373L360.588 399.762L361.285 395.048L362.064 390.236L362.927 385.332L363.878 380.344L364.919 375.276L366.051 370.135L367.276 364.929L368.597 359.663L370.014 354.346L371.527 348.982L373.139 343.58L374.848 338.146L376.654 332.688L378.558 327.212L380.559 321.725L382.655 316.234L384.846 310.746L387.129 305.269L389.503 299.808L391.965 294.371L394.513 288.964L397.144 283.593L399.856 278.266L402.644 272.987L405.505 267.764L408.435 262.602L411.43 257.507L414.485 252.484L417.596 247.538L420.758 242.675L423.966 237.9L427.215 233.217L430.498 228.63L433.811 224.144L437.148 219.762L440.503 215.489L443.869 211.326L447.241 207.277L450.612 203.345L453.976 199.532L457.326 195.841L460.655 192.272L463.958 188.828L467.228 185.509L470.458 182.316L473.641 179.251L476.77 176.312L479.84 173.499L482.844 170.813L485.775 168.253L488.627 165.816L491.393 163.503L494.068 161.311L496.646 159.238L499.119 157.282L501.484 155.44L503.734 153.71L505.864 152.089L509.743 149.156L511.482 147.838L513.081 146.614L514.537 145.478L515.844 144.427L517 143.455L518.001 142.559L518.842 141.732L519.523 140.97L520.039 140.267L520.388 139.617L520.57 139.016L520.58 138.457L520.419 137.935L520.085 137.443L519.578 136.976L518.896 136.527L518.04 136.092L517.01 135.663L515.807 135.235L514.431 134.802L512.883 134.357L511.166 133.896L509.28 133.412L507.228 132.9L502.636 131.767L500.102 131.137L497.413 130.456L494.573 129.719L491.586 128.923L488.456 128.062L485.188 127.131L481.786 126.127L478.255 125.045L474.6 123.882L470.826 122.633L466.94 121.296L462.946 119.867L458.851 118.343L454.661 116.723L450.381 115.003L446.019 113.181L441.581 111.257L437.072 109.228L432.501 107.093L427.873 104.852L423.196 102.504L418.476 100.049L413.721 97.4875L408.936 94.8193L404.129 92.0454L399.307 89.167L394.476 86.1854L389.644 83.1024L384.817 79.92L380.001 76.6405L375.203 73.2666L370.43 69.8011L365.688 66.2473L360.983 62.6086L356.32 58.8889L351.706 55.092L347.147 51.2224L342.647 47.2845L338.213 43.283L333.848 39.2231L329.559 35.1097L325.349 30.9484L321.222 26.7448L317.184 22.5046L313.237 18.2336L309.385 13.9382L305.631 9.62429L301.979 5.29841L298.43 0.966934L294.988 -3.36356L291.654 -7.68649L288.43 -11.9951L285.317 -16.2828L282.317 -20.5427L279.43 -24.7681L276.657 -28.9521L273.998 -33.0881L271.453 -37.1692L269.021 -41.1888L266.702 -45.1403L264.494 -49.0171L262.396 -52.8128L260.406 -56.521L258.523 -60.1355L256.744 -63.6501L255.066 -67.0591L253.487 -70.3565L252.003 -73.5368L250.612 -76.5945L249.309 -79.5246L248.091 -82.322L246.954 -84.9818L245.892 -87.4997L244.903 -89.8714L243.121 -94.1601L242.318 -96.07L241.567 -97.8193L240.862 -99.405L240.199 -100.825L239.571 -102.076L238.972 -103.157L238.398 -104.065L237.842 -104.801L237.298 -105.362L236.761 -105.748L236.223 -105.958L235.681 -105.993L235.126 -105.853L234.554 -105.538L233.958 -105.05L233.334 -104.389L232.674 -103.557L231.973 -102.557L231.226 -101.39L230.427 -100.058L229.57 -98.5656L228.652 -96.9146L227.666 -95.1087L225.472 -91.0473L224.254 -88.7998L222.951 -86.4138L221.558 -83.8938L220.072 -81.2447L218.488 -78.4718L216.803 -75.5803L215.014 -72.5757L213.119 -69.4638L211.114 -66.2505L208.998 -62.9417L206.769 -59.5436L204.424 -56.0624L201.963 -52.5047L199.384 -48.8768L196.687 -45.1853L193.871 -41.4369L190.936 -37.6381L187.882 -33.7958L184.71 -29.9166L181.42 -26.0072L178.014 -22.0744L174.494 -18.1247L170.86 -14.1649L167.115 -10.2015L163.261 -6.24092L159.302 -2.2896L155.239 1.6462L151.076 5.5603L146.818 9.44668L142.466 13.2995L138.027 17.113L133.503 20.8816L128.9 24.6001L124.223 28.2633L119.476 31.8663L114.664 35.4043L109.794 38.8729L104.871 42.2678L99.9003 45.5852L94.8887 48.8212L89.842 51.9726L84.7666 55.036L79.6689 58.0086L74.5556 60.8879L69.4332 63.6716L64.3086 66.3576L59.1885 68.9444L54.0797 71.4306L48.9893 73.8151L43.924 76.0972L38.8908 78.2764L33.8967 80.3527L28.9484 82.3262L24.053 84.1975L19.217 85.9674L14.4474 87.6371L9.75053 89.208L5.1331 90.6817L0.601449 92.0605L-3.83812 93.3465L-8.17955 94.5424L-12.4168 95.6511L-16.5442 96.6756L-20.556 97.6195L-24.447 98.4864L-28.2118 99.2801L-31.8456 100.005L-35.3437 100.665L-38.7015 101.265L-41.9148 101.809L-44.9798 102.304L-47.8926 102.752L-50.65 103.161L-53.2488 103.535L-57.9597 104.201L-60.0671 104.504L-62.0065 104.796L-63.7764 105.081L-65.3756 105.366L-66.803 105.657L-68.0582 105.96L-69.1409 106.281L-70.051 106.625L-70.7891 106.999L-71.3558 107.409L-71.7521 107.861L-71.9794 108.361L-72.0395 108.913L-71.9341 109.524L-71.6657 110.2L-71.2368 110.946L-70.6503 111.766L-69.9094 112.667L-69.0175 113.652L-67.9784 114.728L-66.7959 115.898L-65.4744 117.166L-64.0182 118.537L-62.4322 120.015L-58.8904 123.306L-56.945 125.125L-54.8905 127.063L-52.7327 129.124L-50.4773 131.31L-48.1303 133.622L-45.6978 136.062L-43.186 138.633L-40.6012 141.334L-37.9497 144.166L-35.238 147.131L-32.4726 150.229L-29.6599 153.458L-26.8066 156.819L-23.9192 160.311L-21.0042 163.932L-18.0681 167.682L-15.1174 171.559L-12.1585 175.56L-9.19764 179.683L-6.24113 183.926L-3.2951 188.285L-0.365543 192.758L2.54164 197.34L5.42075 202.028L8.26619 206.818L11.0726 211.705L13.8346 216.685L16.5475 221.753L19.2062 226.904L21.8062 232.133L24.3432 237.433L26.8131 242.8L29.212 248.227L31.5363 253.709L33.7827 259.238L35.9482 264.81L38.0299 270.416L40.0255 276.051L41.9327 281.708L43.7496 287.38L45.4748 293.06L47.1068 298.741L48.6448 304.417L50.0881 310.079L51.4365 315.722L52.6897 321.338L53.8482 326.92L54.9126 332.461L55.8838 337.955L56.763 343.393L57.5517 348.771L58.2518 354.081L58.8653 359.316L59.3947 364.47L59.8427 369.537L60.2123 374.511L60.5066 379.386L60.7291 384.156L60.8836 388.815L60.9741 393.358L61.0047 397.78L60.9799 402.077L60.9044 406.243L60.7829 410.274L60.6204 414.166L60.4222 417.915L60.1935 421.518L59.94 424.971L59.667 428.271L59.3805 431.415L59.0861 434.402L58.7899 437.229L58.4977 439.894L57.9499 444.734L57.7063 446.907L57.4912 448.914L57.3106 450.755L57.1705 452.431L57.0771 453.942L57.0363 455.289L57.054 456.473L57.136 457.495L57.2881 458.358L57.516 459.063L57.825 459.612L58.2205 460.009L58.7078 460.256L59.2918 460.356L59.9775 460.314L60.7693 460.132L61.6718 459.815L62.6893 459.367L63.8256 458.793L65.0845 458.097L66.4695 457.285L67.9839 456.36L69.6305 455.329L71.4122 454.198L75.3897 451.654L77.5895 450.254L79.9321 448.776L82.4186 447.227L85.0501 445.612L87.8269 443.938L90.7494 442.212L93.8175 440.439L97.0309 438.626L100.389 436.779L103.89 434.905L107.533 433.01L111.317 431.1L115.239 429.182L119.297 427.261L123.489 425.344L127.811 423.437L132.261 421.546L136.835 419.675L141.528 417.832L146.338 416.021L151.259 414.248L156.288 412.517L161.419 410.834L166.647 409.203L171.967 407.629L177.373 406.115L182.86 404.667L188.422 403.286L194.053 401.978L199.747 400.745L205.496 399.591L211.295 398.517L217.137 397.526L223.016 396.62L228.923 395.801L234.854 395.071L240.799 394.43L246.753 393.88L252.709 393.42L258.659 393.052L264.596 392.775L270.513 392.588L276.403 392.491L282.26 392.483L288.076 392.562L293.845 392.728L299.559 392.977L305.212 393.308L310.798 393.719L316.311 394.206L321.743 394.766L327.089 395.396L332.344 396.092L337.501 396.851L342.555 397.668L347.501 398.54L352.333 399.461L357.048 400.427L361.64 401.433L366.105 402.473L370.44 403.543L374.64 404.637L378.702 405.75L382.622 406.875L386.399 408.007L390.03 409.139L393.511 410.267L396.842 411.383L400.021 412.482L403.046 413.557L405.917 414.602L408.632 415.611L411.192 416.578L413.597 417.496L417.941 419.162L419.882 419.898L421.671 420.561L423.31 421.145L424.799 421.644L426.143 422.053L427.342 422.367L428.399 422.579L429.319 422.686L430.104 422.681L430.757 422.56L431.283 422.319L431.685 421.952L431.969 421.457L432.137 420.829L432.196 420.064L432.151 419.16L432.005 418.112L431.765 416.919L431.436 415.577L431.023 414.084L430.533 412.439L429.971 410.64L429.343 408.685L428.656 406.573L427.914 404.304L427.125 401.877L426.294 399.293L425.428 396.551L424.533 393.652L423.615 390.598L422.681 387.388L421.735 384.026L420.786 380.512L419.838 376.849L418.897 373.039L417.97 369.085L417.062 364.991L416.178 360.759L415.325 356.394L414.506 351.899L413.729 347.278L412.996 342.537L412.314 337.679L411.686 332.71L411.118 327.635L410.612 322.46L410.173 317.189L409.805 311.829L409.511 306.386L409.293 300.866L409.155 295.276L409.1 289.621L409.128 283.909L409.244 278.145L409.447 272.338L409.739 266.494L410.122 260.619L410.596 254.722L411.161 248.808L411.818 242.885L412.566 236.96L413.405 231.041L414.334 225.133L415.352 219.244L416.458 213.381L417.648 207.552L418.923 201.761L420.278 196.017L421.712 190.326L423.222 184.694L424.804 179.127L426.455 173.632L428.171 168.214L429.949 162.88L431.783 157.634L433.67 152.482L435.605 147.43L437.583 142.481L439.598 137.64L441.647 132.913L443.722 128.303L445.819 123.813L447.932 119.448L450.054 115.21L452.181 111.103L454.305 107.129L456.422 103.291L458.523 99.59L460.603 96.0284L462.657 92.6075L464.676 89.3283L466.656 86.1917L468.588 83.1979L470.468 80.3473L472.289 77.6395L474.044 75.0741L475.728 72.6501L477.333 70.3665L478.855 68.2218L481.623 64.3418L482.857 62.602L483.985 60.9924L485.001 59.5098L485.899 58.1512L486.675 56.9132L487.323 55.792L487.84 54.7836L488.221 53.8839L488.462 53.0885L488.558 52.3928L488.508 51.792L488.306 51.2811L487.951 50.8549L487.44 50.5081L486.769 50.2353L485.937 50.0309L484.942 49.8892L483.783 49.8043L482.459 49.7705L480.967 49.7816L479.309 49.8318L477.483 49.9149L475.49 50.0249L473.331 50.1558L468.514 50.4556L465.859 50.6124L463.043 50.766L460.066 50.9104L456.932 51.0398L453.644 51.1484L450.202 51.2308L446.613 51.2814L442.878 51.2949L439.001 51.2661L434.987 51.19L430.841 51.0619L426.565 50.877L422.166 50.631L417.649 50.3197L413.019 49.939L408.28 49.4854L403.44 48.9552L398.504 48.3452L393.478 47.6525L388.368 46.8745L383.18 46.0086L377.922 45.0528L372.599 44.0052L367.219 42.8644L361.788 41.6291L356.314 40.2983L350.802 38.8715L345.26 37.3485L339.696 35.7291L334.115 34.0137L328.526 32.2031L322.934 30.298L317.347 28.2999L311.773 26.2102L306.217 24.0309L300.686 21.7641L295.187 19.4124L289.727 16.9784L284.312 14.4652L278.948 11.8762L273.641 9.21501L268.397 6.4854L263.222 3.69153L258.121 0.837778L253.101 -2.0713L248.165 -5.03088L243.318 -8.03592L238.566 -11.0812L233.913 -14.1613L229.363 -17.2707L224.919 -20.4035L220.585 -23.5539L216.365 -26.7158L212.262 -29.8832L208.278 -33.0497L204.415 -36.2089L200.676 -39.3545L197.062 -42.48L193.576 -45.5788L190.217 -48.6444L186.988 -51.6701L183.887 -54.6495L180.917 -57.5759L178.075 -60.4428L175.363 -63.2438L172.779 -65.9724L170.322 -68.6223L167.991 -71.1872L165.784 -73.661L163.7 -76.0378L161.735 -78.3116L159.887 -80.4767L158.154 -82.5276L156.532 -84.4589L155.018 -86.2654L153.608 -87.9421L152.299 -89.4844L151.087 -90.8876L149.966 -92.1474L148.933 -93.2599L147.983 -94.2213L147.111 -95.028L146.312 -95.6769L145.58 -96.1649L144.911 -96.4895L144.299 -96.6482L143.737 -96.6391L143.221 -96.4604L142.745 -96.1106L142.303 -95.5888L141.888 -94.894L141.496 -94.0259L141.119 -92.9843L140.752 -91.7694L140.389 -90.3818L140.024 -88.8223L139.651 -87.0921L139.264 -85.1926L138.858 -83.1258L137.962 -78.4986L137.463 -75.9435L136.921 -73.2314L136.332 -70.3655L135.691 -67.3495L134.992 -64.1873L134.232 -60.883L133.405 -57.4412L132.507 -53.8663L131.534 -50.1634L130.482 -46.3376L129.347 -42.3942L128.127 -38.3387L126.817 -34.1769L125.416 -29.9147L123.919 -25.5583L122.326 -21.1137L120.634 -16.5874L118.841 -11.9858L116.946 -7.31557L114.947 -2.58334L112.844 2.20413L110.637 7.04002L108.325 11.9175L105.907 16.8297L103.386 21.7696L100.76 26.7305L98.0324 31.7054L95.2032 36.6875L92.2743 41.67L89.2478 46.6461L86.1259 51.6093L82.9112 56.553L79.6066 61.4707L76.2152 66.3561L72.7404 71.2031L69.1861 76.0057L65.556 80.7579L61.8545 85.4541L58.0861 90.0888L54.2553 94.6567L50.3673 99.1528L46.4271 103.572L42.44 107.91L38.4117 112.163L34.3478 116.326L30.2543 120.395L26.1371 124.368L22.0025 128.24L17.8567 132.008L13.7061 135.671L9.55737 139.225L5.41694 142.669L1.29152 146L-2.81224 149.218L-6.88756 152.321L-10.9277 155.308L-14.926 158.179L-18.8756 160.933L-22.7698 163.572L-26.6021 166.094L-30.3657 168.501L-34.0542 170.795L-37.6611 172.975L-41.1801 175.044L-44.6051 177.005L-47.9298 178.858L-51.1485 180.608L-54.2553 182.255L-57.2447 183.805L-60.1113 185.259L-62.85 186.621L-65.4556 187.896L-67.9236 189.088L-70.2493 190.2L-74.4574 192.204L-76.332 193.106L-78.049 193.948L-79.6051 194.734L-80.9976 195.471L-82.2238 196.164L-83.2814 196.818L-84.1685 197.439L-84.8835 198.033L-85.4249 198.605L-85.7919 199.162L-85.9837 199.71L-86 200.254L-85.8407 200.8L-85.5061 201.355L-84.9969 201.924L-84.314 202.514L-83.4587 203.129L-82.4325 203.777L-81.2374 204.462L-79.8756 205.19L-78.3496 205.967L-76.6622 206.798L-74.8165 207.688L-72.816 208.643L-70.6643 209.667L-68.3654 210.765L-65.9235 211.941L-63.343 213.2L-60.6286 214.546L-57.7854 215.983L-54.8183 217.515L-51.7328 219.144L-48.5344 220.874L-45.2289 222.708L-41.8221 224.649L-38.32 226.698L-34.7289 228.857L-31.0551 231.13L-27.3049 233.516L-23.4849 236.017L-19.6016 238.633L-15.6617 241.366L-11.672 244.216L-7.63909 247.181L-3.56977 250.263L0.529224 253.459L4.65115 256.77L8.78929 260.193L12.937 263.727L17.0877 267.369L21.2348 271.119L25.372 274.972L29.4929 278.926L33.5913 282.977L37.6611 287.123L41.6965 291.359L45.6916 295.682L49.6409 300.087L53.539 304.569L57.3807 309.124L61.1611 313.747L64.8754 318.432L68.519 323.174L72.0877 327.968L75.5775 332.807L78.9846 337.686L82.3055 342.598L85.5371 347.537L88.6764 352.497L91.7208 357.472L94.6679 362.453L97.5157 367.436L100.263 372.413L102.907 377.377L105.448 382.321L107.885 387.239L110.216 392.124L112.443 396.968L114.565 401.765L116.583 406.508L118.497 411.19L120.309 415.805L122.02 420.345L123.631 424.806L125.146 429.179L126.565 433.459L127.891 437.64L129.128 441.715L130.278 445.68L131.345 449.528L132.332 453.254L133.244 456.853L134.084 460.32L134.856 463.65L135.566 466.839L136.217 469.882L136.815 472.776L137.366 475.517L137.873 478.102L138.78 482.789L139.191 484.887L139.581 486.817L139.956 488.579L140.322 490.17L140.685 491.59L141.051 492.837L141.425 493.91L141.814 494.811L142.224 495.538L142.661 496.091L143.13 496.473L143.638 496.683L144.191 496.724L144.793 496.596L145.452 496.302L146.171 495.844L146.958 495.225L147.816 494.447L148.751 493.514L149.768 492.429L150.872 491.196L152.067 489.819L153.358 488.303L154.749 486.65L157.845 482.959L159.557 480.93L161.383 478.786L163.327 476.532L165.389 474.173L167.573 471.717L169.881 469.169L172.314 466.534L174.875 463.819L177.563 461.031L180.38 458.176L183.327 455.26L186.403 452.29L189.609 449.273L192.944 446.214L196.407 443.121L199.997 440L203.713 436.858L207.553 433.7L211.515 430.535L215.596 427.367L219.795 424.204L224.107 421.051L228.531 417.914L233.062 414.8L237.697 411.714L242.431 408.662L247.26 405.649L252.179 402.681L257.185 399.762L262.271 396.897L267.433 394.092L272.664 391.35L277.96 388.676L283.314 386.073L288.72 383.546L294.172 381.097L299.664 378.73L305.19 376.447L310.742 374.251L316.313 372.145L321.898 370.13L327.489 368.207L333.08 366.379L338.663 364.646L344.231 363.009L349.777 361.468L355.295 360.023L360.777 358.675L366.217 357.422L371.607 356.264L376.94 355.199L382.211 354.226L387.412 353.344L392.537 352.55L397.579 351.841L402.533 351.216L407.391 350.671L412.149 350.204L416.799 349.81L421.338 349.486L425.759 349.228L430.058 349.032L434.229 348.894L438.268 348.809L442.17 348.772L445.931 348.778L449.548 348.822L453.017 348.899L456.335 349.003L459.498 349.129L462.503 349.271L465.35 349.423L468.034 349.58L470.556 349.735L472.912 349.883L475.103 350.017L477.127 350.131L478.983 350.22L480.673 350.276L482.195 350.295L483.55 350.27L484.74 350.195L485.765 350.064L486.627 349.872L487.327 349.612L487.868 349.28L488.252 348.869L488.482 348.374L488.56 347.79L488.49 347.112L488.276 346.336L487.921 345.456L487.429 344.468L486.804 343.368L486.052 342.152L485.176 340.816L484.182 339.356L483.075 337.77L481.859 336.055L479.127 332.225L477.622 330.106L476.031 327.848L474.362 325.45L472.62 322.911L470.81 320.23L468.941 317.406L467.017 314.438L465.046 311.328L463.034 308.075L460.986 304.681L458.91 301.145L456.812 297.47L454.698 293.657L452.575 289.708L450.448 285.625L448.324 281.411L446.209 277.07L444.109 272.603L442.029 268.015L439.976 263.309L437.954 258.489L435.968 253.56L434.025 248.526L432.129 243.392L430.285 238.163L428.496 232.845L426.768 227.442L425.105 221.961L423.51 216.407L421.987 210.787L420.538 205.106L419.168 199.371L417.878 193.589L416.672 187.766L415.551 181.909L414.516 176.024L413.571 170.12L412.715 164.202L411.95 158.277L411.276 152.353L410.694 146.437L410.203 140.536L409.803 134.657L409.494 128.807L409.274 122.992L409.143 117.22L409.098 111.498L409.139 105.832L409.261 100.229L409.464 94.6956L409.745 89.2379L410.1 83.8622L410.526 78.5746L411.019 73.3809L411.576 68.2868L412.193 63.2977L412.866 58.419L413.589 53.6556L414.359 49.0124L415.17 44.4938L416.018 40.1041L416.896 35.8474L417.8 31.7274L418.724 27.7475L419.663 23.9109L420.61 20.2204L421.56 16.6786L422.506 13.2878L423.443 10.0498L424.365 6.96632L425.264 4.0386L426.136 1.26764L426.974 -1.34593L427.771 -3.80179L429.22 -8.24066L429.86 -10.2246L430.434 -12.0528L430.938 -13.7265L431.366 -15.2472L431.711 -16.6169L431.967 -17.8377L432.131 -18.9122L432.196 -19.8431L432.157 -20.6334L432.008 -21.2866L431.747 -21.8061L431.367 -22.1959L430.864 -22.46L430.235 -22.6028L429.475 -22.6287L428.58 -22.5426L427.548 -22.3494L426.376 -22.0541L425.059 -21.6623L423.597 -21.1792L421.986 -20.6105L420.225 -19.9619L418.312 -19.2394L416.246 -18.4488L414.025 -17.5962L411.649 -16.6877L409.118 -15.7295L406.432 -14.7278L403.59 -13.6888L400.593 -12.6187L397.443 -11.5238L394.14 -10.4103L390.686 -9.28445L387.083 -8.15224L383.333 -7.01979L379.439 -5.89305L375.403 -4.77787L371.228 -3.68004L366.918 -2.60518L362.477 -1.55877L357.908 -0.546129L353.216 0.427546L348.405 1.35733L343.48 2.23838L338.445 3.06616L333.307 3.83628L328.07 4.54459L322.74 5.18724L317.323 5.76054L311.826 6.2611L306.253 6.68583L300.611 7.03182L294.908 7.29655L289.149 7.4777L283.341 7.57331L277.492 7.58165L271.607 7.50135L265.694 7.33133L259.76 7.07078L253.812 6.71927L247.857 6.27664L241.902 5.743L235.954 5.11889L230.021 4.40506L224.108 3.60259L218.224 2.71288L212.375 1.73765L206.567 0.678905L200.808 -0.461081L195.104 -1.67969L189.461 -2.97409L183.886 -4.34112L178.384 -5.77735L172.962 -7.27912L167.626 -8.84249L162.38 -10.4633L157.231 -12.1371L152.183 -13.8594L147.242 -15.6252L142.411 -17.4296L137.695 -19.2673L133.099 -21.1328L128.626 -23.0208L124.28 -24.9255L120.064 -26.8409L115.981 -28.7613L112.033 -30.6805L108.224 -32.5923L104.554 -34.4906L101.027 -36.369L97.6422 -38.2213L94.4021 -40.0411L91.307 -41.822L88.3575 -43.5576L85.5536 -45.2416L82.8953 -46.8677L80.3819 -48.4297L78.0127 -49.9212L75.7866 -51.3362L71.7573 -53.9128L69.9504 -55.0626L68.2789 -56.1126L66.7403 -57.0571L65.3315 -57.8909L64.0495 -58.6089L62.8907 -59.206L61.8516 -59.6776L60.9281 -60.0191L60.116 -60.2261L59.4111 -60.2947L58.8086 -60.2209L58.3037 -60.0013L57.8916 -59.6326L57.5669 -59.1117L57.3245 -58.4359L57.1587 -57.6028L57.0641 -56.6103L57.035 -55.4565L57.0654 -54.14L57.1495 -52.6594L57.2814 -51.0141L57.455 -49.2032L57.6642 -47.2267L57.9029 -45.0847L58.4445 -40.3058L58.7352 -37.6708L59.0312 -34.8738L59.3263 -31.9165L59.6148 -28.801L59.8907 -25.5295L60.1483 -22.1047L60.382 -18.5295L60.5862 -14.8073L60.7557 -10.9415L60.8852 -6.93583L60.9696 -2.79452L61.0041 1.47814L60.9841 5.87756L60.905 10.3989L60.7627 15.037L60.5531 19.7867L60.2724 24.6423L59.9171 29.5982L59.4838 34.6485L58.9697 39.7871L58.372 45.0078L57.6881 50.3041L56.9159 55.6696L56.0536 61.0977L55.0996 66.5815L54.0526 72.1144L52.9115 77.6893L51.6759 83.2995L50.3452 88.9377L48.9194 94.5971L47.3989 100.271L45.7843 105.951L44.0763 111.632L42.2762 117.306L40.3856 122.966L38.4063 128.606L36.3403 134.218L34.1902 139.797L31.9585 145.334L29.6484 150.825L27.2631 156.263L24.8061 161.641L22.2812 166.955L19.6925 172.197L17.0444 177.363L14.3412 182.446L11.5879 187.443L8.78934 192.348L5.95074 197.156L3.07746 201.863L0.175036 206.466L-2.75081 210.959L-5.69423 215.339L-8.64927 219.604L-11.6098 223.749L-14.5695 227.773L-17.5223 231.673L-20.4616 235.447L-23.3809 239.092L-26.274 242.608L-29.1341 245.994L-31.9547 249.247L-34.7294 252.369L-37.4516 255.359L-40.1147 258.216L-42.7124 260.941L-45.2382 263.536L-47.6858 266L-50.0491 268.336L-52.3219 270.545L-54.4983 272.629L-56.5723 274.59L-58.5383 276.431L-60.3908 278.154L-62.1244 279.763L-63.734 281.261L-65.2146 282.652L-66.5614 283.939L-67.7699 285.127L-68.836 286.22L-69.7555 287.222L-70.5246 288.138L-71.14 288.973L-71.5983 289.732L-71.8966 290.42L-72.0324 291.043L-72.0031 291.606L-71.8069 292.114L-71.442 292.575L-70.907 292.992L-70.2008 293.372L-69.3225 293.722L-68.2719 294.047L-67.0486 294.352L-65.6531 294.645L-64.0857 294.931L-62.3473 295.215L-60.4392 295.505L-58.3628 295.806L-53.7127 296.463L-51.1436 296.832L-48.4154 297.233L-45.5311 297.674L-42.4941 298.16L-39.308 298.695L-35.9766 299.284L-32.5043 299.932L-28.8952 300.645L-25.1543 301.426L-21.2863 302.279L-17.2965 303.208L-13.1901 304.217L-8.97277 305.31L-4.65021 306.49L-0.22835 307.759L4.28669 309.12L8.88871 310.576L13.5713 312.129L18.328 313.78L23.1521 315.531L28.0371 317.384L32.976 319.338L37.9622 321.396L42.9887 323.556L48.0485 325.819L53.1348 328.184L58.2407 330.652L63.3593 333.22L68.4836 335.888L73.6069 338.653L78.7224 341.515L83.8234 344.471L88.9034 347.518L93.9559 350.653L98.9746 353.873L103.953 357.176L108.886 360.557L113.766 364.012L118.589 367.537L123.348 371.129L128.039 374.781L132.656 378.49L137.195 382.25L141.65 386.055L146.018 389.901L150.294 393.782L154.475 397.691L158.556 401.623L162.535 405.572L166.409 409.532L170.174 413.495L173.829 417.456L177.371 421.408L180.798 425.344L184.109 429.259L187.303 433.144L190.379 436.994L193.336 440.801L196.174 444.559L198.893 448.262L201.494 451.902L203.977 455.473L206.343 458.969L208.594 462.383L210.73 465.709L212.756 468.94L214.671 472.071L216.479 475.096L218.183 478.009L219.786 480.804L221.29 483.477L222.7 486.021L224.02 488.432L225.252 490.706L227.475 494.822L228.474 496.656L229.405 498.336L230.272 499.858L231.082 501.22L231.838 502.418L232.547 503.449L233.214 504.312L233.845 505.005L234.446 505.525L235.022 505.872L235.579 506.045L236.123 506.042L236.661 505.864L237.198 505.511L237.741 504.982L238.294 504.279L238.864 503.402L239.458 502.353L240.08 501.134L240.736 499.745L241.433 498.19L242.175 496.471L242.968 494.59L243.817 492.552L244.727 490.359L245.704 488.015L246.751 485.524L247.874 482.89L249.077 480.118L250.364 477.212L251.739 474.177L253.205 471.019L254.766 467.743L256.425 464.354L258.185 460.859L260.049 457.262L262.019 453.571L264.097 449.791L266.284 445.929L268.583 441.991L270.994 437.983L273.518 433.913L276.156 429.787L278.908 425.611L281.773 421.393L284.753 417.139L287.844 412.856L291.048 408.551L294.362 404.23L297.784 399.9L301.313 395.568L304.946 391.241L308.682 386.924L312.516 382.625L316.445 378.349L320.467 374.103L324.578 369.892L328.773 365.722L333.048 361.6L337.399 357.529L341.821 353.517L346.308 349.567L350.857 345.684L355.461 341.873L360.115 338.139L364.813 334.485L369.549 330.915L374.317 327.433L379.11 324.042L383.923 320.745L388.749 317.544L393.581 314.443L398.412 311.442L403.237 308.545L408.047 305.751L412.836 303.063L417.598 300.482L422.325 298.007L427.01 295.639L431.648 293.378L436.23 291.224L440.75 289.176L445.202 287.232L449.579 285.391L453.874 283.653L458.081 282.014L462.195 280.473L466.208 279.026L470.114 277.672L473.909 276.407L477.586 275.228L481.141 274.132L484.567 273.114L487.861 272.17L491.017 271.296L494.03 270.488L496.898 269.741L499.615 269.05L502.178 268.41L506.83 267.263L508.912 266.745L510.829 266.256L512.578 265.791L514.157 265.344L515.565 264.909L516.801 264.481L517.863 264.053L518.751 263.619L519.465 263.173L520.004 262.71L520.37 262.223L520.563 261.707L520.584 261.155L520.435 260.562L520.116 259.922L519.631 259.229L518.981 258.478L518.169 257.664L517.197 256.781L516.07 255.824L514.791 254.787L513.362 253.668L511.789 252.46L510.076 251.16L506.245 248.265L504.138 246.663L501.91 244.953L499.566 243.132L497.112 241.198L494.553 239.147L491.896 236.977L489.146 234.686L486.309 232.273L483.393 229.735L480.402 227.072L477.344 224.284L474.225 221.368L471.051 218.326L467.83 215.157L464.567 211.861L461.27 208.44L457.944 204.894L454.598 201.225L451.236 197.435L447.866 193.525L444.494 189.498L441.126 185.356L437.769 181.102L434.428 176.74L431.11 172.273L427.821 167.705L424.565 163.039L421.349 158.281L418.178 153.434L415.057 148.503L411.991 143.494L408.985 138.412L406.043 133.262L403.169 128.049L400.367 122.781L397.641 117.462L394.995 112.099L392.431 106.698L389.952 101.266L387.562 95.8089L385.262 90.334L383.054 84.8478L380.94 79.3571L378.922 73.869L377 68.3903L375.175 62.9281L373.448 57.4892L371.818 52.0807L370.287 46.7095L368.852 41.3826L367.514 36.1069L366.271 30.8891L365.121 25.736L364.064 20.6542L363.097 15.6502L362.217 10.7305L361.423 5.90118L360.711 1.16845L360.078 -3.46182L359.521 -7.98388L359.036 -12.3922L358.619 -16.6814L358.267 -20.8464L357.974 -24.8823L357.737 -28.7845L357.55 -32.5485L357.409 -36.1703L357.308 -39.646L357.242 -42.972L357.207 -46.145L357.195 -49.1621L357.202 -52.0204L357.222 -54.7178L357.249 -57.2519L357.278 -59.6212L357.301 -61.8242L357.313 -63.8597L357.309 -65.727L357.281 -67.4255L357.224 -68.9552L357.133 -70.3162L357 -71.509L356.82 -72.5344L356.587 -73.3937L356.295 -74.0882L355.939 -74.6198L355.513 -74.9905L355.011 -75.2027L354.428 -75.2591L353.759 -75.1626L352.999 -74.9166L352.143 -74.5245L351.186 -73.9902L350.125 -73.3176L348.954 -72.511L347.67 -71.5751L346.269 -70.5144L344.747 -69.334L343.102 -68.0391L339.428 -65.1269L337.394 -63.5209L335.227 -61.8226L332.924 -60.038L330.483 -58.173L327.904 -56.234L325.185 -54.2272L322.326 -52.1587L319.327 -50.0351L316.187 -47.8626L312.907 -45.6479L309.488 -43.3971L305.931 -41.117L302.237 -38.8137L298.407 -36.4937L294.444 -34.1633L290.35 -31.8288L286.127 -29.4963L281.779 -27.1719L277.308 -24.8615L272.718 -22.571L268.012 -20.306L263.196 -18.072L258.272 -15.8745L253.246 -13.7185L248.122 -11.6091L242.905 -9.55099L237.601 -7.54878L232.215 -5.60677L226.753 -3.72904L221.22 -1.91945L215.623 -0.181567L209.968 1.48129L204.261 3.0661L198.509 4.57009L192.718 5.9908L186.895 7.32604L181.046 8.57394L175.18 9.7329L169.302 10.8017L163.42 11.7793L157.541 12.6652L151.672 13.4588L145.819 14.1604L139.99 14.77L134.193 15.2884L128.433 15.7164L122.718 16.0553L117.054 16.3065L111.449 16.4719L105.909 16.5536L100.441 16.554L95.0497 16.4758L89.7429 16.3219L84.5262 16.0957L79.4055 15.8004L74.3863 15.4401L69.4743 15.0185L64.6746 14.54L59.9923 14.009L55.4322 13.43L50.9987 12.8081L46.6963 12.1481L42.5289 11.4554L38.5003 10.7352L34.6138 9.99315L30.8727 9.23485L27.2799 8.46607L23.8378 7.6927L20.5488 6.92065L17.4148 6.15601L14.4374 5.40486L11.6178 4.67333L8.95721 3.96759L6.45609 3.29384L1.93348 2.06698L-0.0883345 1.52615L-1.95123 1.04184L-3.65616 0.620065L-5.20439 0.266758L-6.59752 -0.0122264L-7.83743 -0.211183L-8.92632 -0.324505L-9.86667 -0.346719L-10.6613 -0.27253L-11.3132 -0.096752L-11.8257 0.18552L-12.2025 0.579125L-12.4473 1.08857L-12.5643 1.71825L-12.5578 2.47227L-12.4323 3.35452L-12.1926 4.36864L-11.8438 5.51798L-11.3908 6.80568L-10.8391 8.23457L-10.1941 9.80717L-9.46141 11.5258L-8.64686 13.3923L-7.75628 15.4084L-6.79566 17.5754L-5.77105 19.8945L-4.6886 22.3662L-3.55451 24.9909L-2.375 27.7689L-1.15635 30.6997L0.0951904 33.7829L1.37336 37.0176L2.6719 40.4025L3.98458 43.936L5.30526 47.6164L6.62788 51.4415L7.94638 55.4088L9.25491 59.5155L10.5476 63.7586L11.8189 68.1346L13.0631 72.6399L14.275 77.2706L15.4493 82.0225L16.5809 86.891L17.6651 91.8716L18.6972 96.9591L19.6728 102.148L20.5877 107.434L21.438 112.811L22.2199 118.272L22.93 123.812L23.5652 129.425L24.1224 135.105L24.5991 140.845L24.993 146.637L25.3019 152.477L25.5242 158.357L25.6583 164.269L25.7031 170.207L25.6579 176.165L25.522 182.134L25.2952 188.108L24.9777 194.08L24.5698 200.043L24.0723 205.99L23.4862 211.913L22.8128 217.806L22.0538 223.661L21.2112 229.473L20.287 235.235L19.284 240.939L18.2049 246.58L17.0527 252.15L15.8309 257.645L14.543 263.058L13.193 268.384L11.7849 273.616L10.3231 278.75L8.81218 283.78L7.2569 288.701L5.66225 293.509L4.03341 298.2L2.3757 302.769L0.69466 307.213L-1.00408 311.527L-2.71469 315.709L-4.43133 319.755L-6.14793 323.664L-7.85841 327.432L-9.55655 331.057L-11.2361 334.539L-12.8909 337.874L-14.5144 341.063L-16.1005 344.104L-17.6427 346.997L-19.1348 349.742L-20.5704 352.338L-21.9433 354.787L-23.2474 357.09L-25.6247 361.259L-26.686 363.129L-27.6548 364.858L-28.5253 366.45L-29.292 367.906L-29.9498 369.229L-30.4933 370.423L-30.9177 371.491L-31.2183 372.436L-31.3905 373.264L-31.43 373.977L-31.3328 374.58L-31.0951 375.078L-30.7133 375.476L-30.1841 375.779L-29.5045 375.991L-28.6719 376.119L-27.6837 376.167L-26.5379 376.141L-25.2326 376.047L-23.7663 375.891L-22.1379 375.679L-20.3464 375.416L-18.3913 375.109L-16.2723 374.764L-11.5434 373.983L-8.9346 373.56L-6.16426 373.124L-3.23371 372.679L-0.144674 372.233L3.10085 371.792L6.50052 371.36L10.0517 370.945L13.7515 370.551L17.5965 370.185L21.5834 369.851L25.7084 369.555L29.9672 369.301L34.3556 369.096L38.8689 368.943L43.5024 368.848L48.251 368.813L53.1092 368.844L58.0717 368.944L63.1327 369.118L68.2862 369.367L73.5263 369.695L78.8466 370.106L84.2408 370.601L89.7023 371.183L95.2246 371.853L100.801 372.614L106.424 373.467L112.088 374.412L117.785 375.451L123.508 376.583L129.251 377.81L135.005 379.13L140.765 380.543L146.523 382.049L152.273 383.646L158.006 385.333L163.717 387.108L169.399 388.968L175.045 390.912L180.648 392.937L186.202 395.04L191.701 397.218L197.139 399.467L202.509 401.784L207.806 404.164L213.024 406.603L218.158 409.097L223.203 411.641L228.154 414.231L233.006 416.86L237.754 419.524L242.395 422.217L246.925 424.934L251.339 427.668L255.636 430.415L259.811 433.167L263.861 435.918L267.785 438.663L271.581 441.395L275.245 444.107L278.778 446.794L282.177 449.448L285.442 452.063L288.572 454.633L291.567 457.151L294.428 459.61L297.153 462.004L299.745 464.328L302.205 466.574L304.532 468.736L306.73 470.809L308.8 472.786L310.744 474.661L312.566 476.43L314.266 478.086L315.85 479.623L317.319 481.038L318.679 482.324L319.931 483.478L321.082 484.494L322.134 485.369L323.092 486.098L323.962 486.678L324.747 487.105L325.453 487.376L326.086 487.488L326.65 487.439L327.151 487.225L327.595 486.846L327.987 486.299L328.333 485.583L328.64 484.696L328.912 483.639L329.157 482.411L329.379 481.011L329.586 479.439L329.783 477.697L329.975 475.786L330.17 473.705L330.59 469.044L330.826 466.468L331.088 463.731L331.381 460.836L331.71 457.786L332.08 454.584L332.498 451.235L332.967 447.741L333.493 444.107L334.079 440.338L334.732 436.439L335.455 432.413L336.251 428.267L337.125 424.005L338.08 419.634L339.119 415.158L340.245 410.585L341.462 405.919L342.771 401.168L344.174 396.338L345.674 391.435L347.272 386.465L348.968 381.437L350.765 376.355L352.663 371.228L354.662 366.062L356.762 360.863L358.962 355.64L361.263 350.399L363.663 345.146L366.161 339.89L368.755 334.635L371.444 329.391L374.225 324.162L377.095 318.956L380.053 313.779L383.095 308.637L386.218 303.538L389.418 298.486L392.691 293.488L396.033 288.55L399.44 283.676L402.907 278.874L406.43 274.147L410.003 269.5L413.62 264.938L417.277 260.466L420.969 256.088L424.688 251.808L428.429 247.629L432.187 243.555L435.954 239.588L439.725 235.732L443.492 231.989L447.251 228.361L450.993 224.849L454.713 221.457L458.404 218.184L462.059 215.032L465.671 212.001L469.233 209.092L472.74 206.304L476.184 203.637L479.559 201.091L482.859 198.664L486.076 196.356L489.206 194.164L492.241 192.086L495.175 190.122L498.004 188.267L500.72 186.52L503.319 184.877L505.795 183.335L508.143 181.89L510.358 180.539L514.37 178.102L516.159 177.007L517.797 175.989L519.281 175.042L520.608 174.162L521.774 173.343L522.777 172.58L523.613 171.867L524.281 171.2L524.779 170.572L525.105 169.978L525.258 169.411L525.237 168.867L525.041 168.338L524.669 167.819L524.123 167.304L523.401 166.787L522.506 166.263L521.436 165.724L520.195 165.166L518.784 164.582L517.204 163.967L515.458 163.315L513.548 162.62L511.477 161.878L509.248 161.083L506.865 160.229L504.332 159.312L501.652 158.328L498.829 157.271L495.869 156.137L492.775 154.922L489.553 153.622L486.208 152.233L482.745 150.752L479.171 149.176L475.49 147.502L471.708 145.727L467.833 143.848L463.869 141.865L459.823 139.774L455.702 137.574L451.513 135.265L447.261 132.845L442.954 130.314L438.598 127.671L434.201 124.917L429.768 122.052L425.307 119.076L420.825 115.991L416.328 112.797L411.824 109.497L407.318 106.093L402.817 102.587L398.328 98.9801L393.858 95.2769L389.412 91.4798L384.996 87.5924L380.618 83.6182L376.281 79.5614L371.993 75.426L367.759 71.2167L363.584 66.9379L359.472 62.5948L355.43 58.1925L351.461 53.7363L347.569 49.2318L343.76 44.6847L340.037 40.1009L336.402 35.4866L332.861 30.848L329.415 26.1913L326.068 21.5232L322.821 16.85L319.678 12.1784L316.639 7.51532L313.707 2.8673L310.882 -1.75872L308.166 -6.35597L305.558 -10.9176L303.06 -15.4367L300.671 -19.9066L298.39 -24.3204L296.218 -28.6714L294.153 -32.9531L292.194 -37.1587L290.339 -41.2819L288.586 -45.3164L286.933 -49.2558L285.378 -53.0942L283.918 -56.8256L282.55 -60.4443L281.27 -63.9448L280.076 -67.3216L278.962 -70.5696L277.926 -73.684L276.963 -76.66L276.068 -79.4932L275.238 -82.1793L274.466 -84.7146L273.08 -89.3179L272.455 -91.3796L271.868 -93.2774L271.313 -95.009L270.786 -96.572L270.279 -97.9648L269.788 -99.1856L269.306 -100.233L268.828 -101.107L268.347 -101.806L267.858 -102.331L267.354 -102.68L266.83 -102.856L266.279 -102.857L265.696 -102.687L265.075 -102.345L264.41 -101.833L263.696 -101.154L262.926 -100.31L262.097 -99.3034L261.201 -98.1371L260.235 -96.8144L259.193 -95.3387L258.071 -93.7138L256.863 -91.9438L254.176 -87.9855L252.687 -85.8065L251.098 -83.5008L249.403 -81.0736L247.601 -78.5303L245.688 -75.8764L243.661 -73.1177L241.519 -70.26L239.258 -67.3095L236.877 -64.2721L234.376 -61.1543L231.752 -57.9623L229.004 -54.7027L226.133 -51.382L223.137 -48.0068L220.017 -44.5836L216.773 -41.1192L213.407 -37.6201L209.918 -34.0931L206.309 -30.5446L202.581 -26.9814L198.735 -23.4099L194.775 -19.8366L190.702 -16.2678L186.521 -12.7099L182.233 -9.16884L177.842 -5.6508L173.352 -2.16159L168.767 1.29307L164.091 4.70762L159.329 8.0767L154.486 11.3952L149.566 14.658L144.575 17.8606L139.518 20.9983L134.401 24.0669L129.23 27.0624L124.01 29.981L118.748 32.8192L113.45 35.5739L108.122 38.242L102.772 40.821L97.4051 43.3085L92.0289 45.7024L86.65 48.001L81.2753 50.2029L75.9117 52.307L70.5662 54.3123L65.2457 56.2185L59.9573 58.0253L54.7077 59.7328L49.5041 61.3416L44.3531 62.8523L39.2617 64.266L34.2365 65.5841L29.2841 66.8082L24.411 67.9403L19.6237 68.9827L14.9283 69.9378L10.331 70.8085L5.83757 71.5979L1.45383 72.3093L-2.8147 72.9463L-6.96269 73.5127L-10.985 74.0126L-14.8769 74.4504L-18.6335 74.8305L-22.2506 75.1576L-25.7241 75.4366L-29.05 75.6726L-32.2248 75.8707L-35.2452 76.0365L-38.1082 76.1753L-40.8112 76.2928L-43.3517 76.3947L-45.7277 76.4869L-47.9374 76.5753L-49.9794 76.6658L-51.8525 76.7643L-53.556 76.877L-55.0894 77.0099L-56.4525 77.169L-57.6456 77.3604L-58.6691 77.59L-59.5239 77.8638L-60.2111 78.1877L-60.7323 78.5674L-61.0891 79.0087L-61.2837 79.5172L-61.3184 80.0983L-61.1961 80.7574L-60.9195 81.4997L-60.4921 82.3301L-59.9172 83.2536L-59.1988 84.2747L-58.3409 85.398L-57.3478 86.6276L-56.224 87.9676L-54.9742 89.4217L-53.6035 90.9934L-50.5201 94.5025L-48.8182 96.4456L-47.0172 98.5177L-45.1227 100.721L-43.1408 103.058L-41.0776 105.529L-38.9391 108.135L-36.7319 110.879L-34.462 113.76L-32.136 116.779L-29.7602 119.935L-27.3413 123.229L-24.8855 126.659L-22.3994 130.225L-19.8895 133.926L-17.3621 137.759L-14.8236 141.723L-12.2803 145.816L-9.73838 150.035L-7.20397 154.377L-4.68305 158.839L-2.18151 163.418L0.294946 168.11L2.74075 172.91L5.15048 177.816L7.51891 182.822L9.84103 187.922L12.112 193.114L14.3272 198.39L16.4823 203.747L18.5732 209.177L20.5958 214.676L22.5467 220.236L24.4224 225.853L26.2198 231.52L27.9361 237.229L29.5688 242.976L31.1157 248.752L32.5747 254.551L33.9444 260.366L35.2233 266.191L36.4104 272.018L37.505 277.84L38.5067 283.65L39.4154 289.442L40.2315 295.207L40.9553 300.94L41.5877 306.633L42.1299 312.279L42.5834 317.871L42.9499 323.403L43.2315 328.868L43.4305 334.26L43.5496 339.572L43.5916 344.798L43.5598 349.932L43.4575 354.968L43.2885 359.9L43.0568 364.723L42.7664 369.433L42.4218 374.022L42.0275 378.488L41.5885 382.825L41.1096 387.029L40.596 391.096L40.053 395.022L39.4862 398.804L38.9012 402.438L38.3036 405.923L37.6993 409.254L37.0943 412.431L36.4945 415.451L35.906 418.312L35.3349 421.013L34.7873 423.553L33.7875 428.148L33.3475 430.203L32.9556 432.096L32.6178 433.828L32.3402 435.4L32.1287 436.813L31.989 438.07L31.9269 439.171L31.948 440.119L32.0578 440.916L32.2615 441.565L32.5643 442.07L32.9711 442.433L33.4867 442.659L34.1157 442.751L34.8624 442.712L35.731 442.548L36.7252 442.264L37.8489 441.863L39.1052 441.351L40.4974 440.732L42.0283 440.014L43.7004 439.199L45.5161 438.296L47.4771 437.308L49.5853 436.243L51.842 435.105L54.2482 433.902L56.8046 432.64L59.5117 431.323L62.3694 429.96L65.3778 428.556L68.536 427.117L71.8433 425.65L75.2985 424.161L78.9 422.656L82.646 421.142L86.5343 419.624L90.5625 418.109L94.7279 416.602L99.0272 415.11L103.457 413.638L108.014 412.192L112.695 410.777L117.494 409.398L122.407 408.061L127.431 406.77L132.559 405.53L137.786 404.346L143.108 403.221L148.519 402.16L154.012 401.167L159.582 400.245L165.223 399.397L170.928 398.626L176.691 397.935L182.505 397.327L188.363 396.803L194.26 396.365L200.187 396.015L206.138 395.754L212.106 395.583L218.084 395.502L224.064 395.512L230.04 395.613L236.005 395.804L241.951 396.085L247.872 396.455L253.761 396.912L259.61 397.455L265.413 398.082L271.164 398.79L276.855 399.578L282.481 400.443L288.034 401.382L293.509 402.39L298.901 403.465L304.202 404.604L309.408 405.801L314.514 407.052L319.513 408.354L324.402 409.701L329.175 411.088L333.828 412.511L338.357 413.963L342.758 415.44L347.028 416.936L351.164 418.445L355.161 419.961L359.018 421.479L362.732 422.991L366.301 424.493L369.724 425.978L372.998 427.439L376.123 428.871L379.098 430.267L381.922 431.62L384.596 432.925L387.119 434.175L389.492 435.364L393.791 437.534L395.719 438.504L397.503 439.388L399.143 440.182L400.643 440.879L402.005 441.474L403.232 441.962L404.326 442.337L405.292 442.595L406.133 442.732L406.854 442.742L407.457 442.621L407.948 442.365L408.331 441.97L408.612 441.434L408.794 440.752L408.884 439.921L408.886 438.94L408.806 437.804L408.65 436.513L408.423 435.065L408.132 433.457L407.782 431.689L407.378 429.76L406.929 427.67L405.913 423.003L405.36 420.427L404.784 417.69L404.193 414.794L403.591 411.739L402.986 408.528L402.383 405.162L401.787 401.644L401.206 397.977L400.644 394.162L400.107 390.205L399.601 386.107L399.13 381.873L398.701 377.507L398.317 373.014L397.984 368.397L397.706 363.662L397.488 358.814L397.334 353.858L397.247 348.8L397.231 343.645L397.29 338.4L397.426 333.069L397.644 327.661L397.944 322.18L398.329 316.634L398.803 311.029L399.365 305.372L400.017 299.67L400.761 293.93L401.598 288.158L402.527 282.362L403.55 276.548L404.665 270.724L405.873 264.897L407.172 259.074L408.561 253.262L410.04 247.467L411.606 241.697L413.258 235.958L414.992 230.258L416.807 224.602L418.7 218.997L420.667 213.449L422.705 207.965L424.811 202.551L426.979 197.212L429.207 191.954L431.49 186.782L433.823 181.702L436.201 176.718L438.619 171.835L441.072 167.058L443.555 162.391L446.061 157.838L448.585 153.402L451.122 149.087L453.665 144.896L456.208 140.832L458.744 136.896L461.268 133.093L463.773 129.422L466.253 125.886L468.701 122.486L471.111 119.222L473.477 116.096L475.791 113.108L478.047 110.258L480.24 107.545L482.362 104.968L484.408 102.527L486.371 100.22L488.245 98.0464L490.025 96.0031L491.704 94.0883L493.277 92.2995L494.738 90.6341L496.082 89.0888L497.304 87.6603L498.399 86.3452L499.363 85.1395L500.19 84.0393L500.877 83.0403L501.42 82.1379L501.814 81.3274L502.056 80.6041L502.144 79.9628L502.074 79.3982L501.844 78.9051L501.451 78.478L500.893 78.1112L500.168 77.7989L499.276 77.5354L498.215 77.3148L496.984 77.1311L495.583 76.9784L494.012 76.8505L492.271 76.7414L490.36 76.6452L488.281 76.5557L483.621 76.3732L481.045 76.2682L478.306 76.1465L475.408 76.0022L472.353 75.8297L469.144 75.6236L465.785 75.3785L462.279 75.0893L458.631 74.7509L454.844 74.3584L450.923 73.9072L446.872 73.3928L442.697 72.811L438.402 72.1579L433.994 71.4295L429.477 70.6223L424.857 69.7331L420.141 68.7589L415.334 67.6968L410.443 66.5444L405.473 65.2996L400.433 63.9604L395.328 62.5253L390.165 60.9929L384.95 59.3622L379.691 57.6327L374.395 55.8038L369.069 53.8756L363.718 51.8483L358.352 49.7224L352.975 47.499L347.597 45.179L342.222 42.7642L336.858 40.2562L331.512 37.6572L326.191 34.9696L320.9 32.1961L315.647 29.3397L310.437 26.4037L305.277 23.3917L300.173 20.3074L295.13 17.1549L290.155 13.9386L285.251 10.663L280.426 7.33281L275.683 3.9532L271.027 0.529278L266.463 -2.93353L261.994 -6.42965L257.626 -9.95332L253.361 -13.4986L249.203 -17.0595L245.156 -20.6299L241.221 -24.2033L237.401 -27.7735L233.699 -31.334L230.116 -34.8783L226.655 -38.3997L223.315 -41.8917L220.099 -45.3475L217.007 -48.7606L214.039 -52.1243L211.195 -55.432L208.475 -58.6771L205.878 -61.8532L203.403 -64.9537L201.05 -67.9723L198.815 -70.9028L196.699 -73.739L194.697 -76.475L192.809 -79.1048L191.031 -81.6228L189.36 -84.0235L187.793 -86.3014L186.327 -88.4516L183.681 -92.3492L182.492 -94.0873L181.388 -95.6794L180.364 -97.1214L179.414 -98.4097L178.533 -99.5408L177.717 -100.512L176.961 -101.319L176.258 -101.961L175.603 -102.435L174.991 -102.739L174.416 -102.872L173.872 -102.832L173.352 -102.618L172.852 -102.229L172.365 -101.666L171.885 -100.928L171.407 -100.016L170.924 -98.9294L170.429 -97.6703L169.919 -96.2396L169.386 -94.639L168.825 -92.8703L168.23 -90.9359L167.595 -88.8382L166.916 -86.5802L166.187 -84.1649L165.403 -81.5958L164.558 -78.8767L163.649 -76.0114L162.67 -73.0043L161.617 -69.8598L160.486 -66.5828L159.273 -63.178L157.974 -59.6509L156.585 -56.0066L155.104 -52.251L153.528 -48.3896L151.853 -44.4286L150.078 -40.3739L148.2 -36.2318L146.217 -32.0087L144.128 -27.7111L141.932 -23.3455L139.628 -18.9187L137.215 -14.4373L134.692 -9.90814L132.06 -5.33803L129.32 -0.733811L126.471 3.89769L123.515 8.54963L120.453 13.2152L117.286 17.8877L114.017 22.5603L110.648 27.2265L107.181 31.8797L103.618 36.5135L99.9639 41.1216L96.221 45.6977L92.3932 50.2358L88.4843 54.7301L84.4985 59.1748L80.4403 63.5645L76.3142 67.8937L72.1253 72.1575L67.8786 76.3508L63.5795 80.4691L59.2334 84.5079L54.846 88.4631L50.4233 92.3308L45.9713 96.1073L41.4962 99.7893L37.0042 103.374L32.5018 106.858L27.9955 110.239L23.4919 113.516L18.9978 116.685L14.5198 119.746L10.0647 122.697L5.63932 125.538L1.2505 128.268L-3.09496 130.886L-7.39032 133.392L-11.6288 135.787L-15.8037 138.072L-19.9084 140.248L-23.9364 142.314L-27.8812 144.275L-31.7366 146.13L-35.4962 147.882L-39.1542 149.535L-42.7045 151.089L-46.1415 152.549L-49.4595 153.918L-52.6534 155.199L-55.7179 156.395L-58.6482 157.512L-61.4395 158.552L-64.0874 159.522L-66.5879 160.424L-71.1306 162.047L-73.166 162.778L-75.0399 163.463L-76.7494 164.106L-78.2922 164.714L-79.666 165.292L-80.8691 165.845L-81.8998 166.38L-82.7569 166.903L-83.4396 167.418L-83.9473 167.934L-84.2798 168.454L-84.4371 168.986L-84.4197 169.535L-84.2282 170.107L-83.8639 170.708L-83.328 171.345L-82.6222 172.022L-81.7486 172.745L-80.7094 173.52L-79.5074 174.352L-78.1454 175.246L-76.6266 176.209L-74.9546 177.244L-73.1331 178.356L-69.0579 180.831L-66.813 182.202L-64.4363 183.668L-61.9326 185.233L-59.3073 186.899L-56.5656 188.669L-53.7131 190.548L-50.7557 192.538L-47.6992 194.64L-44.5497 196.858L-41.3134 199.193L-37.9965 201.646L-34.6055 204.219L-31.1468 206.912L-27.6271 209.727L-24.0528 212.664L-20.4308 215.721L-16.7676 218.9L-13.0699 222.2L-9.34446 225.619L-5.59786 229.156L-1.83674 232.81L1.93235 236.578L5.70289 240.459L9.46853 244.45L13.2229 248.548L16.9599 252.75L20.6733 257.052L24.3574 261.451L28.0063 265.944L31.6145 270.524L35.1764 275.189L38.687 279.934L42.1412 284.753L45.5342 289.641L48.8614 294.593L52.1186 299.603L55.3017 304.666L58.4068 309.775L61.4305 314.925L64.3694 320.109L67.2205 325.321L69.9812 330.554L72.6491 335.801L75.222 341.057L77.6982 346.313L80.0762 351.564L82.3547 356.802L84.5329 362.02L86.6103 367.212L88.5867 372.37L90.462 377.488L92.2367 382.558L93.9115 387.574L95.4873 392.529L96.9656 397.417L98.3478 402.23L99.6359 406.963L100.832 411.608L101.939 416.161L102.959 420.613L103.896 424.961L104.752 429.197L105.532 433.317L106.238 437.316L106.876 441.187L107.449 444.926L107.962 448.529L108.419 451.991L108.826 455.308L109.186 458.476L109.507 461.492L109.792 464.352L110.048 467.054L110.279 469.594L110.492 471.971L110.693 474.181L110.887 476.225L111.08 478.099L111.279 479.803L111.488 481.336L111.715 482.698L111.965 483.889L112.245 484.908L112.56 485.756L112.916 486.435L113.319 486.944L113.775 487.287L114.29 487.464L114.868 487.477L115.517 487.329L116.24 487.024L117.044 486.562L117.932 485.949L118.911 485.187L119.985 484.281L121.157 483.233L122.433 482.05L123.817 480.735L125.311 479.292L128.648 476.047L130.496 474.254L132.468 472.356L134.567 470.357L136.793 468.264L139.15 466.082L141.638 463.819L144.26 461.479L147.016 459.069L149.906 456.596L152.931 454.066L156.091 451.486L159.386 448.862L162.815 446.2L166.377 443.507L170.071 440.79L173.895 438.055L177.847 435.308L181.926 432.556L186.127 429.804L190.45 427.06L194.891 424.329L199.445 421.617L204.111 418.93L208.883 416.273L213.757 413.652L218.729 411.072L223.794 408.539L228.947 406.057L234.183 403.63L239.497 401.264L244.883 398.962L250.335 396.728L255.846 394.567L261.412 392.481L267.025 390.474L272.679 388.548L278.368 386.706L284.085 384.951L289.823 383.284L295.574 381.707L301.334 380.222L307.093 378.829L312.845 377.529L318.584 376.324L324.302 375.212L329.992 374.194L335.648 373.27L341.261 372.438L346.826 371.697L352.336 371.046L357.783 370.484L363.161 370.008L368.464 369.615L373.685 369.305L378.819 369.073L383.859 368.916L388.798 368.831L393.633 368.815L398.356 368.864L402.963 368.972L407.449 369.137L411.81 369.354L416.039 369.617L420.134 369.922L424.089 370.263L427.902 370.637L431.569 371.036L435.087 371.455L438.453 371.889L441.664 372.332L444.718 372.778L447.613 373.222L450.348 373.656L452.92 374.075L457.577 374.843L459.659 375.181L461.578 375.478L463.333 375.73L464.926 375.931L466.356 376.073L467.626 376.153L468.736 376.162L469.69 376.097L470.488 375.951L471.134 375.72L471.63 375.396L471.98 374.977L472.186 374.455L472.253 373.828L472.183 373.09L471.982 372.237L471.654 371.264L471.202 370.169L470.633 368.946L469.951 367.594L469.16 366.108L468.268 364.486L467.278 362.726L466.197 360.824L463.784 356.591L462.464 354.256L461.077 351.775L459.628 349.145L458.124 346.367L456.572 343.442L454.977 340.368L453.346 337.146L451.685 333.778L450.001 330.265L448.299 326.608L446.587 322.808L444.87 318.869L443.154 314.792L441.445 310.58L439.75 306.237L438.074 301.765L436.422 297.169L434.8 292.452L433.214 287.618L431.668 282.672L430.168 277.619L428.717 272.463L427.322 267.209L425.985 261.864L424.712 256.432L423.505 250.92L422.369 245.333L421.306 239.678L420.321 233.96L419.414 228.187L418.59 222.365L417.85 216.5L417.196 210.6L416.629 204.671L416.152 198.72L415.764 192.755L415.466 186.782L415.26 180.808L415.144 174.841L415.119 168.887L415.184 162.954L415.337 157.048L415.579 151.177L415.907 145.347L416.319 139.565L416.814 133.839L417.389 128.173L418.041 122.576L418.767 117.052L419.565 111.609L420.43 106.252L421.358 100.988L422.347 95.8205L423.391 90.7563L424.486 85.8002L425.628 80.9572L426.811 76.2318L428.03 71.6286L429.281 67.1517L430.557 62.8049L431.854 58.5918L433.165 54.5158L434.485 50.5798L435.808 46.7867L437.128 43.1387L438.438 39.638L439.732 36.2864L441.005 33.0852L442.25 30.0358L443.46 27.1389L444.63 24.3949L445.753 21.8041L446.823 19.3664L448.78 14.9477L449.654 12.965L450.451 11.1314L451.165 9.44545L451.79 7.90497L452.32 6.50768L452.75 5.25095L453.075 4.1319L453.29 3.14736L453.389 2.2939L453.369 1.56783L453.224 0.965221L452.95 0.481876L452.543 0.11339L452 -0.144822L451.317 -0.297598L450.49 -0.349925L449.517 -0.307033L448.395 -0.174211L447.121 0.0429986L445.694 0.338989L444.111 0.708017L442.371 1.14419L440.473 1.64156L438.416 2.19412L433.822 3.44036L431.285 4.12175L428.589 4.83374L425.735 5.57017L422.722 6.32484L419.554 7.09166L416.231 7.86452L412.755 8.63739L409.129 9.40434L405.355 10.1595L401.437 10.8972L397.377 11.6117L393.18 12.2977L388.848 12.9496L384.386 13.5625L379.798 14.1312L375.089 14.651L370.264 15.1172L365.328 15.5255L360.286 15.8718L355.143 16.152L349.906 16.3624L344.58 16.4998L339.171 16.5608L333.686 16.5425L328.131 16.4424L322.513 16.2582L316.837 15.9876L311.112 15.6291L305.343 15.1812L299.538 14.6426L293.703 14.0126L287.846 13.2906L281.974 12.4764L276.093 11.5702L270.212 10.5722L264.336 9.48333L258.473 8.30448L252.63 7.03705L246.813 5.68266L241.03 4.24326L235.287 2.72111L229.591 1.1187L223.948 -0.561088L218.365 -2.31517L212.848 -4.14021L207.402 -6.03254L202.034 -7.98828L196.749 -10.0033L191.552 -12.0732L186.449 -14.1933L181.446 -16.359L176.545 -18.5651L171.753 -20.8064L167.073 -23.0776L162.509 -25.373L158.065 -27.687L153.744 -30.0137L149.55 -32.3472L145.484 -34.6813L141.551 -37.0099L137.751 -39.3268L134.087 -41.6255L130.56 -43.8997L127.172 -46.143L123.924 -48.3489L120.815 -50.511L117.847 -52.623L115.019 -54.6783L112.331 -56.6707L109.783 -58.5938L107.373 -60.4413L105.1 -62.2073L102.962 -63.8856L100.958 -65.4704L97.3418 -68.3362L95.7241 -69.6062L94.2295 -70.7604L92.8547 -71.7938L91.5961 -72.7014L90.4498 -73.4786L89.4119 -74.1209L88.4781 -74.624L87.6439 -74.984L86.9045 -75.1971L86.2552 -75.2599L85.6908 -75.1691L85.2061 -74.922L84.7959 -74.5157L84.4545 -73.9482L84.1763 -73.2172L83.9556 -72.3211L83.7866 -71.2586L83.6633 -70.0285L83.5799 -68.6301L83.5302 -67.0629L83.5082 -65.3269L83.5079 -63.4223L83.5233 -61.3495L83.5766 -56.7034L83.6027 -54.1329L83.6203 -51.3996L83.6239 -48.5058L83.6075 -45.4539L83.5656 -42.2466L83.4927 -38.8871L83.3833 -35.3786L83.2324 -31.7249L83.0346 -27.9298L82.7854 -23.9976L82.4798 -19.9326L82.1134 -15.7396L81.6819 -11.4235L81.1813 -6.98945L80.6077 -2.44286L79.9576 2.21067L79.2276 6.96536L78.4146 11.8153L77.5158 16.7543L76.5288 21.7761L75.4512 26.8743L74.2812 32.0423L73.017 37.2735L71.6574 42.5612L70.2012 47.8985L68.6479 53.2786L66.9968 58.6944L65.248 64.1391L63.4016 69.6057L61.4581 75.087L59.4184 80.5763L57.2836 86.0666L55.0551 91.5508L52.7348 97.0223L50.3246 102.474L47.827 107.9L45.2446 113.293L42.5802 118.647L39.8372 123.955L37.0191 129.212L34.1296 134.411L31.1727 139.546L28.1526 144.613L25.074 149.605L21.9415 154.517L18.7601 159.345L15.535 164.083L12.2715 168.728L8.97507 173.274L5.65153 177.718L2.3067 182.056L-1.05343 186.285L-4.42269 190.402L-7.79489 194.403L-11.1637 198.287L-14.5226 202.05L-17.8651 205.692L-21.1848 209.21L-24.475 212.604L-27.729 215.871L-30.9404 219.012L-34.1025 222.026L-37.2087 224.914L-40.2524 227.675L-43.2272 230.309L-46.1267 232.819L-48.9445 235.205L-51.6745 237.469L-54.3104 239.612L-56.8464 241.637L-59.2766 243.546L-61.5953 245.342L-63.797 247.028L-65.8764 248.606L-69.6482 251.457L-71.3309 252.736L-72.8723 253.924L-74.2679 255.025L-75.514 256.043L-76.6069 256.983L-77.5431 257.85L-78.3194 258.65L-78.9332 259.388L-79.3818 260.068L-79.663 260.697L-79.7748 261.281L-79.7158 261.824L-79.4844 262.334L-79.0799 262.815L-78.5015 263.273L-77.7489 263.716L-76.8221 264.148L-75.7215 264.576L-74.4476 265.005L-73.0015 265.442L-71.3844 265.893L-69.5981 266.362L-67.6443 266.857L-65.5255 267.383L-60.8028 268.548L-58.2051 269.199L-55.4543 269.902L-52.554 270.662L-49.5084 271.484L-46.3216 272.373L-42.9981 273.333L-39.5428 274.368L-35.9606 275.483L-32.2567 276.681L-28.4366 277.965L-24.5057 279.339L-20.47 280.807L-16.3354 282.369L-12.108 284.03L-7.79413 285.791L-3.4001 287.654L1.06756 289.621L5.60224 291.693L10.1973 293.871L14.8459 296.156L19.5412 298.547L24.2765 301.046L29.0449 303.651L33.8395 306.362L38.6534 309.179L43.4798 312.1L48.3119 315.123L53.143 318.246L57.9664 321.469L62.7756 324.787L67.564 328.199L72.3253 331.7L77.0533 335.289L81.742 338.961L86.3853 342.713L90.9776 346.54L95.5132 350.438L99.9869 354.403L104.393 358.428L108.728 362.511L112.986 366.644L117.162 370.824L121.253 375.043L125.255 379.296L129.164 383.578L132.976 387.882L136.689 392.201L140.299 396.53L143.805 400.862L147.203 405.19L150.493 409.508L153.671 413.809L156.738 418.086L159.692 422.333L162.533 426.542L165.259 430.708L167.872 434.822L170.371 438.879L172.757 442.871L175.031 446.793L177.194 450.638L179.247 454.399L181.193 458.069L183.034 461.644L184.772 465.116L186.409 468.481L187.948 471.731L189.394 474.862L190.749 477.868L192.017 480.745L193.201 483.487L194.307 486.089L195.339 488.548L197.197 493.018L198.033 495.022L198.814 496.867L199.546 498.55L200.233 500.068L200.881 501.419L201.496 502.601L202.084 503.612L202.65 504.45L203.2 505.115L203.741 505.605L204.278 505.919L204.816 506.058L205.363 506.022L205.924 505.81L206.505 505.425L207.112 504.866L207.75 504.135L208.426 503.235L209.145 502.166L209.913 500.931L210.735 499.534L211.616 497.976L212.561 496.262L213.576 494.394L215.834 490.213L217.085 487.909L218.425 485.468L219.855 482.894L221.381 480.194L223.006 477.372L224.733 474.434L226.565 471.385L228.504 468.231L230.554 464.978L232.716 461.632L234.992 458.2L237.384 454.686L239.893 451.099L242.52 447.445L245.266 443.729L248.13 439.96L251.114 436.142L254.216 432.284L257.436 428.392L260.773 424.472L264.226 420.532L267.793 416.577L271.472 412.615L275.262 408.652L279.159 404.694L283.161 400.749L287.265 396.821L291.467 392.917L295.764 389.044L300.151 385.206L304.626 381.411L309.182 377.662L313.816 373.965L318.523 370.326L323.297 366.749L328.133 363.239L333.025 359.799L337.968 356.436L342.956 353.151L347.983 349.949L353.042 346.833L358.127 343.807L363.232 340.872L368.35 338.031L373.474 335.287L378.598 332.641L383.714 330.095L388.816 327.65L393.897 325.307L398.95 323.067L403.968 320.93L408.945 318.895L413.872 316.964L418.744 315.134L423.554 313.405L428.295 311.776L432.96 310.245L437.543 308.81L442.038 307.469L446.438 306.22L450.738 305.06L454.931 303.986L459.012 302.995L462.976 302.083L466.816 301.246L470.528 300.481L474.107 299.783L477.548 299.148L480.848 298.571L484.001 298.048L487.005 297.573L489.854 297.141L492.548 296.747L495.081 296.386L499.658 295.738L501.697 295.44L503.568 295.152L505.268 294.867L506.797 294.581L508.155 294.286L509.34 293.976L510.352 293.647L511.192 293.291L511.86 292.903L512.357 292.476L512.685 292.006L512.844 291.486L512.836 290.91L512.664 290.273L512.33 289.57L511.837 288.794L511.187 287.941L510.384 287.007L509.432 285.985L508.334 284.872L507.094 283.662L505.717 282.352L504.207 280.938L500.809 277.781L498.931 276.032L496.941 274.165L494.843 272.177L492.645 270.065L490.352 267.828L487.969 265.464L485.504 262.971L482.961 260.347L480.348 257.593L477.672 254.706L474.937 251.687L472.152 248.536L469.322 245.253L466.454 241.839L463.554 238.294L460.63 234.62L457.687 230.818L454.732 226.89L451.772 222.839L448.812 218.667L445.859 214.376L442.919 209.971L439.998 205.453L437.102 200.827L434.235 196.097L431.405 191.267L428.616 186.341L425.874 181.325L423.182 176.222L420.547 171.039L417.972 165.781L415.462 160.453L413.021 155.061L410.652 149.61L408.359 144.109L406.145 138.561L404.013 132.975L401.966 127.356L400.007 121.711L398.136 116.047L396.356 110.371L394.669 104.69L393.075 99.0101L391.576 93.3391L390.171 87.6837L388.861 82.0511L387.647 76.4482L386.527 70.882L385.5 65.3594L384.567 59.8874L383.725 54.4726L382.972 49.1219L382.308 43.8418L381.729 38.6388L381.233 33.5193L380.817 28.4894L380.479 23.5553L380.214 18.7227L380.02 13.9973L379.892 9.38469L379.826 4.89001L379.819 0.518332L379.865 -3.72554L379.96 -7.8371L380.098 -11.812L380.276 -15.6463L380.487 -19.3362L380.727 -22.8782L380.989 -26.2692L381.268 -29.5063L381.559 -32.5869L381.854 -35.5088L382.15 -38.2699L382.438 -40.8688L382.972 -45.5746L383.205 -47.6799L383.407 -49.6196L383.571 -51.3937L383.693 -53.0024L383.766 -54.4464L383.784 -55.7267L383.74 -56.8446L383.63 -57.8015L383.448 -58.5994L383.188 -59.2406L382.844 -59.7275L382.412 -60.0628L381.886 -60.2498L381.261 -60.2916L380.533 -60.192L379.696 -59.9547L378.748 -59.584L377.682 -59.0841L376.496 -58.4598L375.186 -57.7156L373.749 -56.8567L372.181 -55.8883L370.48 -54.8157L368.643 -53.6445L364.551 -51.029L362.293 -49.5964L359.892 -48.0887L357.347 -46.512L354.656 -44.8725L351.82 -43.1765L348.838 -41.4302L345.711 -39.6402L342.438 -37.8126L339.022 -35.954L335.463 -34.0706L331.762 -32.1687L327.922 -30.2548L323.944 -28.3348L319.831 -26.415L315.586 -24.5014L311.211 -22.6L306.71 -20.7165L302.087 -18.8566L297.346 -17.0259L292.49 -15.2296L287.525 -13.473L282.454 -11.7611L277.283 -10.0987L272.017 -8.49024L266.661 -6.94019L261.221 -5.45266L255.702 -4.03148L250.112 -2.6803L244.454 -1.40246L238.737 -0.201067L232.967 0.921094L227.15 1.96149L221.292 2.91789L215.401 3.78835L209.483 4.57124L203.546 5.26524L197.596 5.86933L191.64 6.38278L185.686 6.80518L179.741 7.13648L173.811 7.37687L167.904 7.52689L162.026 7.5874L156.185 7.55956L150.388 7.4448L144.64 7.24492L138.95 6.96193L133.323 6.59822L127.767 6.15642L122.286 5.63942L116.888 5.05041L111.579 4.39286L106.363 3.67048L101.247 2.88719L96.2367 2.04721L91.3365 1.15492L86.5514 0.214972L81.8862 -0.767785L77.3453 -1.78838L72.9328 -2.84158L68.6527 -3.92203L64.5086 -5.0242L60.5038 -6.14242L56.6413 -7.27096L52.9238 -8.40388L49.3538 -9.5352L45.9334 -10.6589L42.6643 -11.7688L39.548 -12.8587L36.5857 -13.9223L33.7782 -14.9536L31.1261 -15.9462L28.6294 -16.894L24.1018 -18.6299L22.0696 -19.4059L20.1904 -20.1125L18.4629 -20.7439L16.8853 -21.294L15.4555 -21.7573L14.1714 -22.1282L13.0302 -22.4013L12.0291 -22.5711L11.1649 -22.6328L10.4342 -22.5813L9.83332 -22.412L9.35825 -22.1204L9.00485 -21.7021L8.76872 -21.1532L8.64521 -20.4699L8.62954 -19.6486L8.71665 -18.6861L8.90137 -17.5794L9.17834 -16.3257L9.54206 -14.9227L9.98684 -13.3681L10.507 -11.6603L11.0965 -9.79762L11.7495 -7.77889L13.2217 -3.27012L14.0286 -0.779229L14.8744 1.86932L15.753 4.67516L16.6581 7.63757L17.5836 10.7555L18.5232 14.0275L19.4709 17.4521L20.4206 21.0271L21.3663 24.7502L22.3021 28.6189L23.2223 32.6302L24.1211 36.7809L24.9932 41.0674L25.833 45.4861L26.6353 50.0327L27.3952 54.7031L28.1077 59.4925L28.7683 64.3962L29.3724 69.409L29.9159 74.5257L30.3947 79.7407L30.8051 85.0485L31.1437 90.4429L31.4071 95.918L31.5925 101.467L31.6972 107.085L31.7187 112.764L31.6549 118.498L31.5041 124.28L31.2648 130.103L30.9356 135.96L30.5158 141.845L30.0047 147.75L29.402 153.668L28.7078 159.593L27.9225 165.516L27.0467 171.432L26.0813 177.333L25.0276 183.212L23.8873 189.062L22.6621 194.877L21.3544 200.649L19.9665 206.372L18.5013 212.04L16.9617 217.646L15.351 223.184L13.673 228.649L11.9314 234.033L10.1302 239.332L8.27384 244.54L6.36684 249.653L4.41397 254.664L2.42016 259.569L0.390614 264.363L-1.66933 269.044L-3.75418 273.605L-5.85828 278.045L-7.9758 282.358L-10.1008 286.543L-12.2273 290.596L-14.3491 294.515L-16.4599 298.298L-18.5536 301.942L-20.6238 305.447L-22.664 308.81L-24.6679 312.031L-26.6291 315.11L-28.5413 318.045L-30.3979 320.837L-32.1927 323.487L-33.9194 325.995L-35.5719 328.361L-37.144 330.588L-38.6297 332.677L-41.3185 336.447L-42.5103 338.134L-43.593 339.691L-44.5613 341.123L-45.4101 342.432L-46.1346 343.622L-46.7301 344.697L-47.192 345.66L-47.5163 346.517L-47.6989 347.271L-47.7361 347.928L-47.6245 348.491L-47.3608 348.967L-46.9421 349.36L-46.366 349.676L-45.6299 349.92L-44.732 350.098L-43.6705 350.216L-42.4441 350.28L-41.0516 350.295L-39.4923 350.267L-37.7658 350.202L-35.872 350.108L-33.811 349.988L-29.1903 349.701L-26.6325 349.545L-23.9118 349.389L-21.0299 349.238L-17.989 349.099L-14.7915 348.978L-11.4403 348.879L-7.93827 348.809L-4.28889 348.773L-0.495776 348.776L3.43716 348.823L7.50571 348.92L11.7054 349.071L16.0316 349.28L20.4794 349.552L25.0434 349.891L29.7185 350.301L34.4989 350.786L39.379 351.348L44.3526 351.991L49.4137 352.718L54.556 353.532L59.7731 354.434L65.0584 355.427L70.4053 356.513L75.8069 357.692L81.2565 358.966L86.7472 360.336L92.2719 361.802L97.8238 363.364L103.396 365.023L108.981 366.777L114.572 368.626L120.162 370.569L125.745 372.605L131.313 374.731L136.859 376.946L142.378 379.248L147.862 381.634L153.304 384.1L158.7 386.645L164.041 389.264L169.323 391.953L174.539 394.71L179.685 397.528L184.753 400.405L189.74 403.335L194.64 406.314L199.449 409.336L204.161 412.396L208.773 415.489L213.28 418.609L217.679 421.749L221.967 424.905L226.14 428.07L230.195 431.238L234.13 434.402L237.943 437.557L241.631 440.695L245.193 443.81L248.628 446.896L251.934 449.947L255.111 452.954L258.158 455.913L261.076 458.816L263.865 461.657L266.524 464.429L269.057 467.126L271.462 469.742L273.742 472.271L275.899 474.706L277.935 477.041L279.852 479.271L281.652 481.391L283.34 483.393L286.388 487.029L287.756 488.651L289.026 490.137L290.2 491.483L291.285 492.683L292.283 493.734L293.201 494.633L294.043 495.376L294.814 495.96L295.519 496.381L296.165 496.639L296.756 496.729L297.298 496.651L297.797 496.403L298.258 495.983L298.689 495.391L299.094 494.626L299.479 493.687L299.851 492.575L300.215 491.289L300.579 489.832L300.946 488.202L301.324 486.403L301.718 484.435L302.135 482.301L303.056 477.541L303.572 474.922L304.133 472.147L304.742 469.219L305.406 466.143L306.13 462.923L306.917 459.562L307.772 456.065L308.7 452.438L309.705 448.684L310.79 444.81L311.959 440.82L313.215 436.72L314.562 432.517L316.002 428.216L317.538 423.823L319.171 419.344L320.904 414.786L322.738 410.156L324.676 405.459L326.716 400.704L328.862 395.896L331.112 391.042L333.467 386.15L335.927 381.225L338.491 376.276L341.158 371.309L343.928 366.33L346.798 361.347L349.767 356.366L352.832 351.395L355.992 346.439L359.244 341.505L362.584 336.599L366.01 331.729L369.518 326.899L373.103 322.117L376.763 317.387L380.492 312.715L384.287 308.107L388.142 303.567L392.051 299.102L396.011 294.715L400.016 290.411L404.059 286.195L408.136 282.069L412.24 278.039L416.365 274.107L420.505 270.277L424.654 266.551L428.804 262.933L432.95 259.423L437.085 256.025L441.203 252.74L445.296 249.569L449.358 246.513L453.382 243.573L457.361 240.749L461.289 238.042L465.158 235.451L468.964 232.976L472.697 230.615L476.353 228.368L479.925 226.233L483.407 224.208L486.792 222.292L490.074 220.481L493.248 218.774L496.307 217.166L499.247 215.656L502.062 214.24L504.747 212.913L507.298 211.673L509.708 210.514L514.093 208.425L516.06 207.485L517.87 206.608L519.522 205.79L521.012 205.024L522.337 204.306L523.495 203.63L524.483 202.99L525.3 202.381L525.945 201.796L526.415 201.231L526.711 200.678L526.831 200.133" stroke="white" stroke-opacity="0.25"/>
</svg>
