<svg xmlns="http://www.w3.org/2000/svg" width="24px" height="24px" viewBox="0 0 24 24" fill="currentColor"><path d="M23.349 5.314C22.997 2.735 20.713.703 18.007.309 17.55.242 15.82 0 11.811 0h-.03C7.772 0 6.912.242 6.455.309 3.824.691 1.421 2.518.837 5.127.557 6.412.527 7.836.579 9.143c.074 1.874.089 3.745.262 5.611.119 1.241.328 2.471.624 3.681.554 2.236 2.797 4.097 4.996 4.856 2.356.792 4.884.923 7.309.38.267-.061.531-.132.792-.213.588-.184 1.279-.391 1.787-.753a.06.06 0 0 0 .023-.043v-1.809a.054.054 0 0 0-.067-.051 20.576 20.576 0 0 1-4.743.545c-2.749 0-3.488-1.283-3.7-1.818a5.544 5.544 0 0 1-.322-1.433.054.054 0 0 1 .02-.044.056.056 0 0 1 .047-.01c1.529.363 3.094.546 4.665.546.379 0 .755 0 1.133-.01 1.581-.044 3.247-.123 4.802-.422.039-.008.078-.014.111-.024 2.453-.464 4.788-1.919 5.025-5.604.009-.145.031-1.519.031-1.67.001-.511.167-3.629-.025-5.545v.001Zm-3.775 9.194h-2.58V8.29c0-1.309-.554-1.976-1.681-1.976-1.24 0-1.86.79-1.86 2.349v3.404h-2.564V8.663c0-1.559-.622-2.349-1.861-2.349-1.121 0-1.681.667-1.682 1.976v6.218H4.769V8.101c0-1.309.34-2.349 1.019-3.119.7-.769 1.619-1.164 2.76-1.164 1.32 0 2.318.5 2.983 1.498l.642 1.06.642-1.06c.665-.998 1.663-1.498 2.981-1.498 1.139 0 2.059.395 2.761 1.164.68.77 1.019 1.81 1.019 3.119l-.002 6.407Z"/></svg>