
<svg preserveAspectRatio="none" viewBox="0 0 1281 378" fill="none" xmlns="http://www.w3.org/2000/svg">
<mask id="mask0_1_4" style="mask-type:luminance" maskUnits="userSpaceOnUse" x="0" y="0" width="1281" height="378">
<rect x="0.335449" y="0.707153" width="1280" height="377" fill="white"/>
</mask>
<g mask="url(#mask0_1_4)">
<path fill-rule="evenodd" clip-rule="evenodd" d="M-31.9999 90.9952L-31.9999 95.2889C-10.2803 85.0118 12.5631 76.2065 37.9764 72.8447C60.8798 69.866 85.4014 73.3412 105.256 82.3816C120.899 89.5147 141.218 103.493 149.107 129.604C154.409 147.52 155.491 167.194 156.536 186.207L156.547 186.39L156.57 186.817L156.57 186.825C156.877 192.46 157.194 198.278 157.625 203.844C159.776 231.357 156.861 260.612 148.702 293.281C144.558 309.864 139.16 326.525 133.938 342.638L133.913 342.716L133.805 343.047C131.591 349.884 129.308 356.939 127.155 363.88L126.376 366.397C120.787 384.33 115.025 402.872 117.64 420.1C118.966 429.445 123.739 437.257 131.823 443.328C144.544 452.856 163.319 456.619 182.274 456.619C195.925 456.619 209.658 454.659 221.278 451.506C255.871 442.291 288.939 422.007 320.931 402.385L321.073 402.298C333.78 394.503 346.921 386.446 359.995 379.165C388.58 363.201 417.679 351.452 448.481 339.006L448.739 338.901C454.388 336.628 460.127 334.303 465.971 331.916C474.175 328.563 482.438 325.149 490.77 321.7C518.513 310.23 547.208 298.368 576.33 287.786C652.562 260.891 756.387 230.765 819.164 226.863C854.9 225.034 873.84 235.755 892.166 246.128C900.729 250.979 908.807 255.552 918.359 258.748C929.747 262.38 942.034 264.758 967.155 253.932C977.345 249.525 989.647 242.801 1004.8 233.343C1030.64 217.195 1058.2 197.982 1084.88 179.388L1084.88 179.379L1084.89 179.379L1084.89 179.37L1085.41 179.013C1092.45 174.092 1099.51 169.18 1106.55 164.303C1187.75 108.475 1278.85 36.3957 1366.96 -33.3236C1398.15 -58.0062 1427.61 -81.3127 1455.94 -103.356C1499.38 -136.853 1548.81 -174.739 1585.77 -200.423C1611.93 -218.609 1633.48 -231.751 1654.29 -244.458L1654.3 -244.458L1654.64 -244.667L1656.74 -245.948L1656.76 -245.965L1656.77 -245.965C1667.74 -252.663 1678.21 -259.064 1689.4 -266.241C1740.66 -299.276 1788.89 -337.049 1845.82 -388.722C1889.67 -428.498 1950.82 -489.664 2027.54 -570.523C2085.05 -631.054 2137.87 -688.893 2189.01 -747.334C2276.74 -847.458 2350.91 -939.709 2409.46 -1021.53C2435.44 -1057.85 2456.72 -1089.7 2474.7 -1118.14C2478.15 -1124.37 2481.96 -1130.31 2485.76 -1136.24C2489.96 -1142.8 2494.16 -1149.36 2497.88 -1156.3L2498.16 -1156.3C2517.9 -1189.4 2533.08 -1217.45 2546.69 -1242.59L2546.93 -1243.04L2545.53 -1244L2545.53 -1243.99C2539.17 -1233.31 2532.36 -1222.14 2525.02 -1210.41L2525.07 -1210.51L2525.01 -1210.41C2526.32 -1212.78 2527.62 -1215.12 2528.89 -1217.44L2530.59 -1220.55L2532.8 -1224.58C2534.18 -1227.11 2535.61 -1229.72 2537.02 -1232.32L2538.81 -1235.61L2540.3 -1238.38C2535.23 -1229.03 2530.13 -1219.7 2524.99 -1210.4C2498.68 -1162.84 2464.13 -1104.28 2406.71 -1024.02C2348.24 -942.287 2274.14 -850.132 2186.5 -750.112C2133.76 -689.921 2079.96 -631.002 2025.12 -573.406C1948.46 -492.608 1887.38 -431.512 1843.59 -391.805C1786.82 -340.271 1738.72 -302.603 1687.63 -269.672C1675.77 -262.069 1664.69 -255.302 1652.95 -248.142L1652.85 -248.081L1652.84 -248.081C1631.9 -235.305 1610.24 -222.092 1583.91 -203.785C1546.89 -178.057 1497.4 -140.136 1453.93 -106.614C1424.19 -83.3942 1394.52 -60.0441 1364.93 -36.5634L1364.72 -36.3979C1276.72 33.2255 1185.75 105.209 1104.7 160.924C1097.66 165.801 1090.6 170.713 1083.56 175.643L1083.25 175.86C1056.54 194.481 1028.93 213.729 1003.1 229.876C988.096 239.23 975.929 245.902 965.904 250.222C941.787 260.621 930.107 258.391 919.348 254.933C910.118 251.85 902.169 247.356 893.748 242.583C875.033 231.993 855.671 221.036 818.992 222.9C755.87 226.828 651.715 257.041 575.273 284.006C546.069 294.622 517.337 306.493 489.563 317.981C475.585 323.79 461.582 329.513 447.555 335.165L447.538 335.174C416.549 347.681 387.283 359.499 358.429 375.612C345.806 382.64 333.169 390.374 320.891 397.891L320.886 397.891L319.38 398.814C287.554 418.34 254.648 438.529 220.447 447.648C193.43 455.016 154.778 455.765 133.77 440.027C126.541 434.601 122.278 427.694 121.109 419.447C118.651 403.212 124.27 385.149 129.702 367.686L130.489 365.178C132.669 358.141 134.984 350.981 137.232 344.057L137.258 343.979C142.501 327.797 147.923 311.066 152.104 294.335C160.382 261.196 163.342 231.479 161.139 203.487C160.717 197.982 160.408 192.46 160.081 186.634L160.053 186.129C159.004 166.794 157.91 146.814 152.441 128.333C145.848 106.542 129.994 89.384 106.567 78.7062C86.1881 69.4219 61.0371 65.851 37.5643 68.9167C12.241 72.2611 -10.4601 80.8748 -31.9999 90.9952ZM-31.9999 108.641L-31.9999 112.717C-17.2705 107.16 -1.85918 102.927 14.6385 101.177C56.2422 96.8218 107.114 115.8 119.528 159.46C124.96 178.935 125.385 200.316 125.796 221.019L125.799 221.184L125.803 221.385C125.914 227.176 126.019 232.646 126.233 238.115C127.32 265.42 123.499 294.814 114.538 327.962C110.215 343.988 104.821 360.074 99.599 375.638L99.4671 376.03L99.4649 376.038C96.9295 383.598 94.311 391.402 91.8596 399.084L91.3651 400.643C85.4613 419.107 79.3703 438.18 81.7602 456.07C82.944 465.511 87.5666 473.489 95.5008 479.759C108.552 490.08 128.556 494.13 148.208 494.13C159.551 494.13 170.789 492.78 180.484 490.489C216.551 482.189 251.059 460.903 284.444 440.306L284.69 440.158L284.692 440.149L284.698 440.149C297.894 432.005 311.541 423.592 325.097 416.119C351.511 401.47 378.267 390.827 406.588 379.557L406.791 379.479C412.275 377.301 417.841 375.08 423.52 372.799C430.162 370.116 436.854 367.39 443.587 364.655L446.791 363.349C474.384 352.096 502.922 340.46 531.976 330.174C602.312 306.023 707.719 276.637 773.297 273.345C810.764 271.83 829.412 283.919 847.434 295.607L847.447 295.615L847.489 295.641C855.497 300.832 863.062 305.736 872.073 309.368C882.914 313.548 894.722 316.457 919.618 306.25C929.882 302.026 942.566 295.363 957.341 286.436C979.757 272.892 1003.31 257.189 1026.12 241.991L1026.87 241.495C1034.21 236.591 1041.57 231.688 1048.94 226.819C1130.48 173.378 1222.16 103.659 1310.83 36.2216L1312.67 34.828C1344.58 10.5634 1374.77 -12.386 1403.64 -33.9071C1502.91 -107.938 1560.42 -142.619 1621.3 -179.329L1626.78 -182.638C1680.54 -215.63 1731.33 -254.195 1791.48 -307.663C1848.83 -358.578 1924.04 -434.49 1977.04 -489.203C2035.35 -549.298 2088.85 -606.763 2140.63 -664.89C2229.49 -764.509 2304.5 -856.455 2363.57 -938.141C2389.05 -973.388 2409.88 -1004.25 2427.42 -1031.76C2436.1 -1047.32 2443.74 -1061.6 2450.89 -1074.99L2450.93 -1075.06L2450.95 -1075.09L2450.97 -1075.13L2450.98 -1075.14L2450.98 -1075.14L2450.98 -1075.16L2450.99 -1075.17L2451.01 -1075.19L2451.36 -1075.85L2451.37 -1075.86L2453.64 -1074.31C2472.15 -1105.47 2486.38 -1131.88 2499.17 -1155.62L2498.17 -1156.29C2490.51 -1143.45 2482.7 -1130.73 2474.73 -1118.14L2474.73 -1118.17L2474.71 -1118.13C2449.51 -1072.8 2416.12 -1016.96 2360.91 -940.588C2301.91 -858.998 2226.98 -767.157 2138.2 -667.625C2086.45 -609.533 2032.98 -552.103 1974.72 -492.042C1921.76 -437.373 1846.61 -361.531 1789.35 -310.685C1729.36 -257.357 1678.7 -218.905 1625.14 -186.027L1619.67 -182.734L1619.55 -182.665C1558.65 -145.937 1501.08 -111.212 1401.73 -37.1296C1373.56 -16.1224 1344.14 6.25232 1313.07 29.8636L1313.05 29.8722L1308.9 33.0339L1308.34 33.4606L1308.33 33.4694C1219.87 100.715 1128.45 170.225 1047.19 223.492C1039.82 228.37 1032.45 233.282 1025.11 238.177C1002.1 253.523 978.296 269.391 955.693 283.048C941.06 291.888 928.519 298.481 918.419 302.635C894.572 312.407 883.409 309.672 873.189 305.736C864.476 302.226 857.029 297.401 849.155 292.288L849.084 292.245C830.645 280.304 811.577 267.963 773.14 269.504C707.232 272.814 601.496 302.278 530.942 326.508C501.829 336.811 473.283 348.456 445.673 359.717L445.607 359.743L442.661 360.945C435.849 363.715 429.077 366.476 422.352 369.193C416.68 371.475 411.113 373.687 405.629 375.864L405.539 375.899C377.08 387.222 350.182 397.917 323.561 412.688C309.865 420.257 296.095 428.739 282.781 436.952C249.621 457.411 215.337 478.558 179.772 486.744C153.977 492.815 117.213 492.231 97.4487 476.633C90.3312 471.006 86.1806 463.917 85.1392 455.547C82.8713 438.633 88.8058 420.03 94.547 402.036L94.5643 401.984L95.0587 400.434C97.3011 393.405 99.6904 386.263 102.017 379.313L102.017 379.305L102.776 377.04C108.02 361.424 113.437 345.259 117.797 329.129C126.863 295.546 130.736 265.733 129.635 237.976C129.413 232.55 129.307 227.089 129.196 221.324L129.193 221.141C128.788 200.125 128.369 178.395 122.772 158.328C109.803 112.743 57.2161 92.8852 14.3163 97.327C-2.09144 99.0602 -17.3903 103.197 -31.9999 108.641ZM-31.9999 128.855L-31.9999 132.714C-25.3844 131.094 -18.619 129.822 -11.6514 129.038C10.4279 126.547 33.9306 131.068 52.8257 141.414C67.4503 149.427 86.1656 164.59 92.2567 191.354C96.7894 211.682 96.5647 233.804 96.3474 255.212L96.3414 255.839C96.2912 261.082 96.2433 266.038 96.265 271.02C96.4148 298.411 91.8147 327.954 82.1948 361.337C77.9063 376.204 72.7442 391.158 67.7477 405.633L67.6002 406.06C64.4789 415.005 61.4394 423.993 58.4823 433.016L58.1751 433.956L58.1683 433.974C52.326 451.968 45.7015 472.365 48.0832 490.664C49.2819 500.715 54.1743 509.154 62.5804 515.747C75.834 526.129 95.6956 530.222 115.25 530.222C127.155 530.222 138.94 528.698 149.039 526.172C183.173 517.785 215.652 497.57 247.066 478.009L247.323 477.852C259.006 470.58 271.092 463.063 283.066 456.287C312.053 439.827 340.493 428.461 373.443 415.31L383.348 411.347C389.58 408.847 395.845 406.304 402.152 403.752L402.185 403.743L402.209 403.735L402.977 403.421C432.841 391.332 463.731 378.834 495.355 368.078C567.856 344.162 668.52 318.957 729.955 316.544C769.401 315.377 787.974 329.086 805.925 342.342C812.623 347.289 818.954 351.957 826.244 355.789C836.808 361.137 847.477 364.882 871.017 356.503C882.217 352.488 895.778 345.808 912.471 336.08C936.865 321.866 962.443 305.44 987.167 289.554L988.987 288.387L989.025 288.36L989.04 288.352C994.757 284.685 1000.48 281.01 1006.21 277.36C1083.7 228.274 1170.53 164.747 1254.51 103.302L1254.78 103.101C1287.55 79.1243 1318.5 56.4797 1348 35.3505C1441.68 -31.7994 1496.92 -63.7892 1555.38 -97.6517L1555.47 -97.7039L1572.26 -107.432C1622.21 -137.001 1672.07 -173.502 1729.14 -222.328C1792.52 -276.483 1873.14 -355.931 1929.58 -413.047C1988.56 -472.611 2042.75 -529.737 2095.24 -587.672C2157.08 -655.815 2246.37 -758.395 2320.58 -860.113C2345.63 -894.446 2366.05 -924.458 2383.18 -951.126C2379.59 -944.725 2375.78 -938.062 2371.19 -930.189L2371.14 -930.111C2366.01 -920.138 2360.79 -910.236 2355.47 -900.385C2361.22 -911.081 2366.36 -920.94 2371.13 -930.119C2349.33 -892.825 2320.31 -847.336 2278.35 -790.245C2203.68 -688.71 2113.46 -586.531 2050.93 -518.711C1997.92 -461.106 1943.1 -404.321 1883.34 -345.122C1826.34 -288.554 1744.62 -209.603 1679.03 -154.733C1620.47 -105.673 1569.79 -69.4678 1519.55 -40.7962C1512.22 -36.6941 1505.03 -32.6965 1497.9 -28.7424L1497.88 -28.7338L1497.87 -28.725L1491.33 -25.093C1436.57 5.25947 1384.85 33.9309 1299.78 92.3104C1269 113.413 1236.46 136.337 1202.06 160.566L1199.46 162.395C1120.17 218.275 1038.17 276.054 964.698 321.064L947.661 331.62C919.551 349.074 890.481 367.12 863.472 381.909C847.634 390.583 834.852 396.366 824.363 399.563C802.393 406.252 793.641 400.878 785.184 395.687L784.917 395.513C778.914 391.716 773.559 387.23 767.894 382.483L767.858 382.457L767.85 382.449C751.444 368.723 732.856 353.176 693.806 352.959C629.171 353.411 524.379 378.73 449.188 403.604C419.485 413.768 390.632 425.447 362.711 436.744L362.705 436.744L362.512 436.822L350.21 441.804C346.726 443.206 343.285 444.582 339.877 445.941C338.346 446.55 336.819 447.16 335.301 447.77L335.272 447.778C305.816 459.536 277.992 470.641 250.925 486.065C238.211 493.294 225.451 501.333 213.127 509.119C181.855 528.855 149.519 549.261 115.61 557.456C84.5098 565.13 50.5781 560.792 33.099 546.901C25.2847 540.691 20.8119 532.835 19.763 523.498C17.5304 504.947 24.6329 483.766 30.9038 465.084L31.5256 463.238C34.3577 454.772 37.392 446.15 40.3364 437.823C45.3186 423.679 50.4657 409.047 54.8935 394.468C65.4274 359.7 70.6794 330.54 71.4137 302.713C71.5912 295.929 71.4841 289.075 71.3799 282.464L71.3762 282.22L71.3739 282.072C71.2473 274.042 71.1162 265.742 71.4886 257.485C71.9456 247.382 72.1704 234.135 69.8628 221.158C60.8423 171.462 10.75 148.356 -31.9999 151.735L-31.9999 155.419C23.4267 150.873 60.198 186.251 66.6637 221.872C68.8963 234.44 68.6715 247.4 68.237 257.294C67.8474 265.724 67.9823 274.138 68.1171 282.272L68.1284 283.004C68.2303 289.432 68.3351 296.06 68.1621 302.592C67.4278 330.044 62.2358 358.855 51.8068 393.266C47.4089 407.767 42.2768 422.356 37.3096 436.456C34.3651 444.8 31.3308 453.431 28.4838 461.931L27.8695 463.778C21.4562 482.869 14.2039 504.512 16.5414 523.977C17.7027 534.359 22.6475 543.077 31.2409 549.906C44.6968 560.592 64.8131 564.799 84.4049 564.799C95.6881 564.799 106.784 563.405 116.329 561.054C150.718 552.736 183.271 532.199 214.753 512.324L214.995 512.167C227.221 504.46 239.86 496.49 252.438 489.349C279.303 474.037 307.014 462.968 336.346 451.262L336.425 451.227L339.266 450.095C343.239 448.51 347.267 446.907 351.349 445.261L363.658 440.28L364.237 440.044C391.988 428.818 420.684 417.217 450.147 407.123C553.621 372.894 649.01 356.956 693.843 356.625C731.797 356.834 749.15 371.353 765.918 385.375L765.94 385.393C771.709 390.226 777.156 394.781 783.359 398.718L783.651 398.892C792.245 404.179 802.007 410.18 825.255 403.108C835.939 399.842 848.915 393.98 864.926 385.21C892.001 370.386 921.072 352.34 949.196 334.878L949.272 334.834C954.951 331.307 960.63 327.779 966.294 324.287C1039.77 279.268 1121.72 221.533 1200.98 165.679L1201.22 165.505L1201.55 165.278C1236.77 140.456 1270.06 116.993 1301.5 95.4459C1386.44 37.1535 1438.09 8.51667 1492.78 -21.801L1498.2 -24.8057C1505.72 -28.9775 1513.29 -33.1843 1521.02 -37.5129C1571.45 -66.2889 1622.28 -102.599 1681 -151.781C1746.68 -206.72 1828.47 -285.75 1885.51 -342.361C1945.31 -401.603 2000.16 -458.424 2053.2 -516.063C2115.79 -583.962 2206.1 -686.228 2280.87 -787.911C2306.05 -822.157 2326.57 -852.257 2343.69 -878.908C2341.85 -875.624 2339.94 -872.254 2337.96 -868.813L2337.61 -869.049L2333.82 -861.628L2333.75 -861.489C2312.63 -825.24 2284.28 -780.866 2242.84 -724.794C2168.03 -623.616 2077.28 -522.064 2014.34 -454.713C1954.52 -390.568 1893.08 -328.208 1826.49 -264.063C1742.05 -182.543 1674.28 -121.228 1625.09 -81.8614C1568.32 -36.3109 1518.64 -1.95207 1473.21 23.1747C1457.66 31.71 1443.68 38.695 1428.87 46.0893C1411.97 54.5201 1394.5 63.2471 1374.55 74.4822C1340.25 93.8173 1295.83 122.306 1252.94 150.228C1221.62 170.852 1188.32 193.445 1153.1 217.326L1153.09 217.335L1150.31 219.225L1149.7 219.634C1068.16 274.957 983.885 332.117 909.226 375.533C903.458 378.939 897.441 382.545 891.273 386.246L888.451 387.944C853.088 409.187 813.028 433.251 787.038 440.994C764.059 447.918 755.046 441.804 747.831 436.9C741.932 432.763 736.745 427.912 731.26 422.782L731.079 422.617C714.761 407.332 696.248 390 654.053 389.965C597.802 390.479 499.992 409.779 416.201 436.918C384.404 447.552 353.754 460.041 324.108 472.13L313.754 476.345L303.879 480.352C272.337 493.102 245.103 504.129 217.63 520.171C205.62 527.156 193.543 534.925 181.862 542.441L181.828 542.468C150.882 562.36 118.887 582.923 85.2141 590.884C54.8186 598.191 21.5311 593.601 4.24684 579.727C-3.76971 573.29 -8.34739 565.138 -9.3888 555.462C-11.5952 536.406 -4.31813 514.754 2.1101 495.637L2.14157 495.541L2.46374 494.583C5.74528 484.828 9.28156 474.926 12.7129 465.345C17.8825 450.914 23.2244 435.995 27.832 421.101C38.0213 388.171 43.4905 360.449 45.0639 333.859C45.5509 325.567 45.7007 317.206 45.8356 309.124L45.8581 307.887C45.9997 299.996 46.1458 291.862 46.6372 283.779C47.4389 270.715 47.2441 260.725 46.0229 251.38C42.9062 228.1 30.3419 207.763 10.6077 194.115C-1.79175 185.528 -16.6261 179.98 -32 177.89L-32 181.521C3.61006 186.634 37.4369 211.16 42.8837 251.92C44.075 261.004 44.2622 270.767 43.4756 283.57C42.9511 292.158 42.8013 300.763 42.6589 309.089C42.5743 317.284 42.3195 325.471 41.8947 333.649C40.3514 359.909 34.9271 387.326 24.8277 419.943C20.2568 434.714 14.9486 449.546 9.8165 463.9L9.76855 464.03C6.32967 473.628 2.7784 483.548 -0.510639 493.337L-0.832798 494.296L-0.873251 494.418C-7.43409 513.918 -14.861 536.005 -12.5355 555.932C-11.3892 566.619 -6.36199 575.616 2.40378 582.653C16.0244 593.592 35.8935 597.938 55.373 597.938C66.0268 597.938 76.5607 596.632 85.8734 594.394C120.052 586.329 152.283 565.609 183.451 545.559L183.728 545.385L183.729 545.377C195.293 537.947 207.243 530.266 219.098 523.376C246.346 507.464 273.452 496.49 304.824 483.783L304.958 483.731C307.056 482.886 309.166 482.033 311.295 481.171C312.473 480.692 313.657 480.212 314.847 479.733L325.201 475.518C354.795 463.447 385.408 450.975 417.1 440.375C500.637 413.332 598.087 394.076 654.068 393.579C695.087 393.623 712.344 409.77 729.03 425.378L729.049 425.395C734.683 430.673 739.995 435.646 746.168 439.984C755.691 446.446 765.4 451.245 787.854 444.486C814.185 436.639 854.402 412.479 889.895 391.158L889.942 391.132L892.1 389.834C898.499 385.994 904.732 382.257 910.687 378.738C985.624 335.165 1070.18 277.796 1151.95 222.317C1188.18 197.721 1222.4 174.502 1254.54 153.338C1297.38 125.459 1341.75 96.9874 1375.99 77.7133C1395.65 66.6174 1412.94 57.9777 1429.64 49.6428L1430.15 49.3815C1444.99 41.9785 1459 34.9847 1474.6 26.3972C1520.19 1.1833 1570.02 -33.2626 1626.93 -78.9263C1676.21 -118.38 1744.04 -179.747 1828.56 -261.337C1895.18 -325.526 1956.66 -387.92 2016.54 -452.101C2079.54 -519.538 2170.37 -621.177 2245.28 -722.503C2270.55 -756.679 2290.95 -786.527 2307.84 -812.855C2305.54 -808.779 2303.22 -804.712 2300.89 -800.662L2302.41 -803.301L2304.89 -801.742C2304.31 -800.575 2303.73 -799.399 2303.12 -798.206L2302.8 -797.57C2316.4 -821.016 2326.78 -840.9 2335.71 -858.327C2326.72 -842.955 2317.44 -827.809 2307.87 -812.907L2307.92 -813.003C2317.47 -827.871 2326.73 -842.981 2335.7 -858.327C2351.29 -885.004 2362.95 -907.292 2372.99 -926.592L2373.02 -926.636C2389.47 -954.689 2401.85 -978.135 2412.53 -998.358L2412.34 -998.48C2429.26 -1027.17 2442.31 -1051.59 2454.09 -1073.65L2454.11 -1073.67L2454.11 -1073.69L2454.12 -1073.71L2454.14 -1073.74L2454.14 -1073.75L2454.23 -1073.9L2453.64 -1074.3C2445.11 -1059.95 2436.37 -1045.76 2427.43 -1031.75C2403.3 -988.508 2371.03 -935.223 2318 -862.517C2243.87 -760.929 2154.67 -658.454 2092.9 -590.372C2040.44 -532.454 1986.29 -475.381 1927.35 -415.852C1870.94 -358.779 1790.41 -279.401 1727.11 -225.332C1670.19 -176.638 1620.49 -140.241 1570.71 -110.777L1553.94 -101.057C1495.37 -67.1424 1440.06 -35.109 1346.2 32.1628C1316.88 53.1701 1286.14 75.6579 1253.62 99.4522L1253.56 99.4958L1253.54 99.5045L1252.95 99.9399C1168.93 161.42 1082.04 224.99 1004.56 274.077C999.094 277.569 993.64 281.071 988.193 284.563L985.511 286.288L984.148 287.158L984.148 287.167C959.866 302.74 934.821 318.817 910.935 332.726C894.415 342.359 881.019 348.961 869.998 352.906C845.776 361.529 835.714 356.442 827.652 352.366C820.624 348.673 814.421 344.092 807.852 339.25L807.768 339.189C790.244 326.247 770.383 311.597 729.858 312.782C668.115 315.203 567.114 340.478 494.403 364.472C462.674 375.263 431.747 387.779 401.846 399.885C395.268 402.55 388.72 405.198 382.216 407.811L372.327 411.756L372.31 411.765C339.271 424.968 310.736 436.36 281.567 452.926C269.536 459.736 257.416 467.279 245.7 474.577L245.455 474.725L245.387 474.769C214.196 494.174 181.958 514.24 148.328 522.497C116.531 530.466 82.0674 526.425 64.4984 512.655C56.8939 506.707 52.4886 499.138 51.4022 490.159C49.1546 472.766 55.3431 453.701 61.3367 435.263L61.6364 434.322C64.5434 425.36 67.6901 416.25 70.7393 407.436L70.9364 406.861C75.9329 392.386 81.0905 377.432 85.3939 362.495C95.1337 328.737 99.7788 298.812 99.6289 271.011C99.6147 266.09 99.6619 261.161 99.7121 255.961L99.7121 255.952L99.7189 255.273C99.9361 233.63 100.161 211.255 95.5233 190.44C89.11 162.273 69.5706 146.405 54.3167 138.044C34.8821 127.409 10.7126 122.75 -11.9885 125.284C-18.8363 126.059 -25.4968 127.288 -31.9999 128.855ZM-32 218.563L-32 222.317C-25.1072 225.06 -18.5666 228.587 -12.6703 232.907C5.19088 245.971 16.5264 265.071 19.2611 286.645C21.8226 307.173 20.011 328.99 18.2579 350.102L18.2571 350.11C17.7776 355.859 17.2831 361.807 16.9085 367.512C14.998 396.088 8.46492 426.649 -3.64982 463.682C-7.24604 474.586 -11.7713 485.934 -16.5662 497.936C-22.058 511.697 -27.6096 525.641 -32 539.454L-32 550.524C-27.4073 533.645 -20.5221 516.348 -13.7417 499.356L-13.5102 498.772C-8.78568 486.927 -4.31813 475.727 -0.750384 464.892C11.4767 427.529 18.0698 396.671 20.0028 367.773C20.3774 362.086 20.8419 356.425 21.3514 350.424C23.1195 329.121 24.9476 307.077 22.3253 286.148C19.4708 263.556 7.64081 243.611 -10.9846 229.972C-17.4653 225.243 -24.5453 221.446 -32 218.563ZM-32 602.249L-32 607.91C-29.8677 610.636 -27.4718 613.066 -24.86 615.157C-11.1944 626.192 8.66719 630.581 27.9968 630.581C38.276 630.581 48.4203 629.344 57.3959 627.185C91.7008 619.111 123.969 597.825 155.174 577.244L155.198 577.227C167.418 569.162 180.057 560.827 192.606 553.424C217.607 538.636 243.89 527.836 271.723 516.409L281.537 512.368L291.232 508.361C320.451 496.255 350.667 483.748 382.112 473.219C467.11 445.697 566.2 427.233 623.058 428.278C662.986 429.532 679.346 446.611 695.159 463.124L695.192 463.159L695.373 463.351C699.906 468.08 704.202 472.557 709.03 476.633C716.281 482.581 725.306 489.985 748.274 484.28C758.508 481.719 771.529 476.459 786.963 468.637C809.378 457.289 833.32 443.502 856.479 430.168L856.669 430.055C863.465 426.135 870.268 422.216 877.033 418.358C948.23 378.155 1027.95 325.907 1105.06 275.375C1143.88 249.926 1180.54 225.896 1214.72 204.323C1254.07 179.78 1298.88 152.24 1332.88 134.177C1350.69 124.701 1366.64 117.132 1382.05 109.816L1382.8 109.468L1383.16 109.294C1398.93 101.821 1413.87 94.7404 1430.73 85.7522C1476.73 61.1131 1527.56 26.7195 1586.13 -19.3797C1636.22 -58.7203 1707.38 -121.934 1791.9 -202.191C1859.44 -266.197 1921.65 -328.409 1982.11 -392.423C2045.86 -459.774 2137.69 -561.387 2213.12 -662.939C2240.56 -699.92 2262.1 -731.622 2279.5 -759.161C2286.83 -772.853 2293.96 -786.701 2300.88 -800.679C2280.29 -765.058 2252.32 -721.197 2210.73 -665.178C2135.42 -563.747 2043.68 -462.247 1979.99 -394.958C1919.57 -330.996 1857.39 -268.819 1789.9 -204.856C1705.44 -124.668 1634.37 -61.516 1584.34 -22.245C1525.9 23.7583 1475.22 58.0562 1429.39 82.6082C1412.77 91.4657 1397.99 98.4767 1382.42 105.862L1382.41 105.862L1382.41 105.871L1381.58 106.263C1365.9 113.683 1349.7 121.365 1331.55 131.024C1297.47 149.14 1252.61 176.697 1213.2 201.275C1178.99 222.874 1142.31 246.912 1103.47 272.361L1102.94 272.71C1026.05 323.094 946.577 375.185 875.624 415.24C870.076 418.41 864.522 421.606 858.967 424.803L855.246 426.945L854.861 427.163C831.793 440.454 807.959 454.171 785.682 465.45C770.428 473.175 757.609 478.357 747.592 480.866C725.984 486.239 717.938 479.629 710.858 473.811C706.133 469.822 701.868 465.372 697.355 460.668L697.352 460.66L697.282 460.59L697.272 460.581C681.788 444.408 664.233 426.074 623.11 424.777C565.975 423.679 466.503 442.239 381.227 469.866C349.692 480.422 319.459 492.937 290.227 505.043L290.146 505.078L280.444 509.084L270.636 513.134C242.706 524.596 216.319 535.43 191.145 550.332C178.799 557.613 166.403 565.783 154.399 573.691L153.61 574.214C122.615 594.672 90.5635 615.81 56.7366 623.77C26.9405 630.912 -5.88249 626.2 -23.0769 612.317C-26.778 609.321 -29.7524 605.96 -32 602.249ZM-32 659.357L-32 662.824C-22.5375 665.646 -12.2658 666.9 -2.15143 666.9C7.79809 666.9 17.5903 665.698 26.2437 663.625C59.9732 655.673 91.3951 634.396 121.768 613.807C132.527 606.526 143.66 598.992 154.666 592.199C182.447 575.015 210.565 563.17 243.125 549.461L250.902 546.178L251.271 546.021C282.638 532.791 315.063 519.109 349.131 507.961C430.076 482.311 526.544 465.38 583.724 466.774C625.56 468.263 641.601 486.631 657.102 504.39C661.005 508.858 664.691 513.073 668.797 517.045L669.344 517.567L669.358 517.585C676.45 524.265 684.492 531.851 705.568 527.775C716.305 525.685 730.555 520.302 747.914 511.775C771.83 500.026 797.31 485.856 821.966 472.148L822.355 471.93L825.582 470.136C830.478 467.418 835.372 464.692 840.262 462.001C907.601 425.151 982.484 377.868 1054.91 332.126C1096.45 305.884 1135.71 281.105 1172.01 259.227C1210.63 236.252 1250.74 212.78 1282.44 196.728C1300.31 187.653 1316.36 180.459 1331.83 173.517L1331.84 173.517L1331.85 173.517L1332.91 173.038C1349.25 165.74 1366.14 158.189 1384.65 148.661C1430.63 124.858 1484.05 89.5757 1543.46 43.7813C1590.09 7.89834 1654.21 -47.5722 1734.05 -121.115C1801.06 -182.639 1866.52 -246.418 1930.34 -312.357C1999.83 -384.019 2099.48 -491.99 2179.57 -599.386C2211.6 -642.367 2235.35 -677.954 2253.74 -708.046C2260.06 -718.401 2265.76 -728.077 2270.93 -737.205C2284.25 -760.651 2294.2 -780.334 2302.77 -797.518C2295.24 -784.541 2287.49 -771.747 2279.52 -759.144L2279.51 -759.127C2258.68 -720.457 2228.68 -670.56 2177.25 -601.564C2097.29 -494.315 1997.73 -386.44 1928.3 -314.848C1864.52 -248.944 1799.11 -185.217 1732.15 -123.736C1652.37 -50.2547 1588.31 5.16365 1541.76 40.9769C1482.49 86.6755 1429.22 121.87 1383.39 145.578C1364.96 155.071 1348.86 162.273 1331.8 169.894L1331.44 170.051C1315.7 177.106 1299.42 184.387 1281.19 193.628C1249.43 209.714 1209.27 233.221 1170.6 256.231C1134.24 278.127 1094.99 302.914 1053.42 329.164C981.046 374.871 906.2 422.138 838.928 458.935L821.022 468.873L820.038 469.422C795.591 483.008 770.357 497.039 746.708 508.649C729.566 517.071 715.54 522.375 705.051 524.422C685.34 528.228 678.185 521.478 671.277 514.955L670.738 514.449C666.78 510.617 663.161 506.48 659.332 502.091L659.252 502.004L659.225 501.969C644.045 484.602 626.838 464.919 583.807 463.377C526.35 461.984 429.514 478.967 348.307 504.695C314.019 515.913 281.459 529.656 249.96 542.947L249.846 542.999L242.069 546.274L241.954 546.326C209.337 560.061 181.155 571.932 153.227 589.211C142.515 595.813 131.739 603.112 121.279 610.184L120.225 610.898C90.0615 631.339 58.8643 652.468 25.6293 660.298C8.30007 664.461 -13.5769 665.036 -32 659.357ZM-32 700.867L-32 704.107C-21.807 704.089 -11.6462 702.774 -1.70189 700.17C30.7405 691.6 60.9157 670.505 90.0952 650.108L90.1514 650.073C101.285 642.287 112.8 634.239 124.241 627.028C150.351 610.523 176.97 599.07 207.8 585.815L213.756 583.245L213.871 583.193C244.358 570.059 275.885 556.472 309.228 545.446C389.124 519.867 489.249 503.179 547.29 505.766C588.719 508.117 603.936 527.331 618.658 545.917L618.724 545.995C622.686 551.003 626.429 555.732 630.685 560.148L630.696 560.157C637.317 566.828 645.554 575.128 667.763 570.73C676.492 568.988 687.58 565.156 700.729 559.303C724.234 548.86 750.441 534.76 775.803 521.121L776.039 520.99L778.646 519.588L778.665 519.579C784.746 516.313 790.788 513.065 796.762 509.886C861.897 475.657 934.439 431.605 1004.62 388.99L1004.74 388.911L1004.92 388.807L1004.92 388.807L1004.94 388.798L1004.95 388.789C1048 362.643 1088.66 337.952 1126.09 316.431C1163.31 295.302 1205.81 271.621 1238.77 256.118C1254.79 248.576 1269.47 242.409 1283.67 236.452L1283.71 236.435L1284.18 236.234C1300.35 229.432 1317.07 222.404 1335.39 213.45C1462.27 151.909 1677.71 -25.9728 1897.62 -250.738C2031.33 -386.78 2112.12 -488.419 2148.39 -536.896C2185.33 -586.279 2210.71 -625.149 2230.36 -658.872C2233.73 -664.673 2236.95 -670.334 2240.02 -675.855C2252.08 -697.594 2261.96 -717.391 2271.44 -736.909L2270.94 -737.214C2265.76 -728.095 2260.08 -718.401 2253.75 -708.054C2230.84 -663.288 2201.44 -612.964 2146.16 -539.021C2061.79 -426.234 1953 -311.53 1895.65 -253.194C1675.97 -28.6465 1460.85 148.992 1334.24 210.411C1315.86 219.39 1299.82 226.131 1282.84 233.273L1282.69 233.334C1268.46 239.309 1253.74 245.501 1237.65 253.07C1204.6 268.616 1162.05 292.323 1124.77 313.487C1087.25 335.061 1046.5 359.804 1003.36 386.002L1003.08 386.176C932.998 428.74 860.537 472.74 795.534 506.889C788.686 510.539 781.748 514.258 774.781 518.011L774.55 518.133C749.239 531.755 723.08 545.829 699.665 556.229C686.703 561.994 675.802 565.783 667.269 567.481C646.45 571.601 639.128 564.215 632.679 557.709L632.67 557.701C628.512 553.398 624.796 548.704 620.863 543.731C606.448 525.519 590.1 504.886 547.432 502.465C489.114 499.878 388.6 516.618 308.427 542.267C274.958 553.346 243.38 566.95 212.842 580.101L212.722 580.154L206.759 582.723C175.831 596.031 149.114 607.527 122.817 624.145C111.557 631.243 100.262 639.125 89.3168 646.772L88.6155 647.26C59.621 667.535 29.6301 688.499 -2.36121 696.947C-12.083 699.543 -22.025 700.858 -32 700.867ZM-32 734.746L-32 737.708L-30.805 737.708C0.558472 728.859 29.6391 707.817 57.778 687.463L57.8154 687.437C68.3194 679.833 79.1904 671.969 89.9641 664.914C116.933 647.173 144.757 634.866 176.97 620.618L176.977 620.618L180.364 619.128C211.381 605.394 241.927 592.19 274.66 581.503C349.701 557.761 447.098 542.259 506.241 544.636C551.068 546.901 566.384 567.917 581.193 588.245L581.199 588.253L581.224 588.288C584.287 592.495 587.18 596.458 590.355 600.307L590.969 601.03C597.315 608.529 604.515 617.03 624.406 614.704C634.618 613.493 648.254 609.147 664.939 601.779C687.101 591.99 711.096 579.605 734.318 567.629L734.668 567.446L736.854 566.314L736.88 566.306L736.906 566.288C742.765 563.266 748.61 560.244 754.432 557.282C817.531 525.423 887.882 484.35 955.902 444.634C1000.61 418.523 1042.83 393.876 1081.57 372.633C1143.77 338.518 1187.63 319.967 1230.06 302.026C1248.52 294.213 1267.6 286.139 1287.95 276.907C1339.66 252.913 1399.95 215.366 1467.12 165.296C1518.94 126.73 1586.58 70.3278 1668.13 -2.32651C1738.86 -65.235 1804.14 -126.942 1867.74 -190.974C1925.73 -249.214 2035.64 -363.778 2120.35 -476.774C2162.75 -533.351 2189.94 -576.585 2210.09 -613.191C2188.19 -565.245 2160.4 -510.376 2093.76 -421.461C2004.39 -302.211 1886.75 -182.072 1824.58 -121.071C1765.59 -63.0228 1705.31 -7.09067 1640.28 49.9215C1554.66 125.084 1478.84 186.886 1421.02 228.666C1356.54 275.331 1298.33 310.509 1248.04 333.197C1223.65 343.988 1201.38 352.784 1179.85 361.285L1179.84 361.294L1179.53 361.415C1140.33 376.901 1099.79 392.926 1044.1 421.685C1002.05 443.432 955.648 469.439 906.537 496.987C838.478 535.143 768.113 574.588 705.231 604.81C698.736 608.015 692.25 611.238 685.774 614.495L685.704 614.53C650.209 632.306 609.998 652.442 586.294 654.741C566.823 656.701 560.499 648.314 554.379 640.196L553.591 639.169C551.059 635.737 548.676 632.201 546.166 628.465L546.147 628.439C531.954 607.371 515.87 583.489 468.615 580.598C406.251 577.462 307.243 592.704 233.191 616.846C201.417 627.533 171.501 640.885 141.098 654.785C107.743 670.026 80.1644 683.091 54.0919 701.076C44.2307 707.86 34.2587 715.342 24.6082 722.588L24.3706 722.762C17.7057 727.77 10.989 732.813 4.20263 737.708L9.31675 737.708C14.8894 733.632 20.4156 729.486 25.9065 725.358C35.5938 718.077 45.6183 710.552 55.5154 703.741C81.4156 685.886 108.897 672.857 142.124 657.668C172.467 643.811 202.308 630.477 233.962 619.843C307.752 595.778 406.378 580.589 468.466 583.707C514.437 586.529 529.444 608.808 543.949 630.355L544.174 630.686C546.53 634.178 548.959 637.775 551.471 641.181L552.257 642.226L552.272 642.243C558.547 650.552 565.655 659.958 586.519 657.851C610.658 655.508 650.999 635.302 686.649 617.447L686.883 617.334L688.927 616.315C694.897 613.319 700.729 610.401 706.325 607.667C769.202 577.436 839.542 538.008 907.572 499.878L907.758 499.774L908.802 499.19C957.521 471.886 1003.54 446.089 1045.24 424.524C1100.82 395.809 1141.29 379.818 1180.43 364.359L1181.06 364.107L1181.07 364.107C1202.53 355.624 1224.73 346.853 1249.05 336.088C1299.52 313.313 1357.88 278.048 1422.5 231.279C1480.4 189.447 1556.29 127.584 1641.97 52.3689C1707.05 -4.67807 1767.38 -60.6452 1826.4 -118.737C1888.63 -179.791 2006.39 -300.042 2095.87 -419.449C2164.66 -511.247 2192.19 -566.883 2214.48 -616.013L2212.31 -617.258C2223.71 -638.231 2232.86 -657.069 2241.32 -675.063L2240.02 -675.838C2236.95 -670.308 2233.73 -664.646 2230.36 -658.846C2208.09 -612.991 2178.66 -559.532 2118.18 -478.821C2033.58 -365.99 1923.77 -251.53 1865.84 -193.36C1802.29 -129.363 1737.04 -67.6998 1666.37 -4.83487C1584.88 67.7672 1517.31 124.117 1465.55 162.639C1398.54 212.597 1338.41 250.048 1286.87 273.946C1266.57 283.178 1247.51 291.243 1229.06 299.038L1228.97 299.073C1186.52 317.041 1142.59 335.627 1080.33 369.768C1041.63 391.001 999.461 415.614 954.824 441.682L954.808 441.69L954.599 441.812C886.608 481.51 816.302 522.558 753.263 554.382C747.945 557.099 742.597 559.86 737.244 562.613L737.24 562.621L737.223 562.63L737.214 562.63L733.484 564.555L733.318 564.642L733.312 564.642C710.08 576.644 686.057 589.054 663.905 598.826C647.467 606.081 634.079 610.375 624.122 611.542C605.662 613.702 599.259 606.177 593.075 598.896L593.037 598.853L592.438 598.139C589.328 594.367 586.451 590.422 583.41 586.25C568.913 566.349 552.48 543.792 506.368 541.457C446.956 539.071 349.191 554.626 273.888 578.446C241.028 589.168 210.415 602.406 179.338 616.158L175.951 617.656C143.63 631.949 115.714 644.299 88.5481 662.17C77.7145 669.269 66.821 677.151 56.2945 684.772C28.1841 705.108 -0.870274 726.124 -32 734.746ZM24.3909 737.708L29.3844 737.708C52.3402 721.839 76.1808 710.099 104.626 696.573C135.321 681.967 165.612 667.927 198.727 656.762C273.094 632.489 374.912 618.109 435.568 623.318C479.397 627.646 493.574 650.421 507.282 672.448L507.29 672.456C509.612 676.201 512.01 680.06 514.512 683.718L514.887 684.24L514.904 684.267C521.081 693.072 528.078 703.053 549.35 701.163C557.539 700.431 567.923 697.766 580.218 693.237C604.971 684.145 633.875 670.122 661.828 656.562L665.53 654.767C671.293 651.972 676.999 649.202 682.598 646.528C738.844 619.999 800.941 586.485 860.994 554.077L861.344 553.886C910.882 527.148 957.663 501.899 1000.17 480.988C1055.23 453.858 1095.89 438.877 1135.21 424.394C1157.79 416.076 1181.14 407.471 1206.82 396.698C1256.11 375.595 1314.27 341.837 1379.68 296.364C1458.76 241.565 1553.16 162.587 1618.43 105.984C1684.79 48.5628 1745.44 -7.00351 1803.86 -63.8763C1866.56 -124.738 1985.09 -244.65 2074.43 -363.97C2143.55 -456.272 2170.76 -513.206 2190.83 -559.34L2188.42 -560.664C2168.42 -514.695 2141.31 -457.936 2072.38 -365.903C1983.18 -246.74 1864.76 -126.95 1802.11 -66.1408C1743.74 -9.31155 1683.12 46.22 1616.81 103.607C1551.59 160.175 1457.27 239.082 1378.29 293.821C1313.01 339.18 1255 372.86 1205.88 393.893C1180.49 404.545 1157.36 413.071 1134.99 421.319L1134.38 421.546L1134.36 421.554C1094.98 436.056 1054.26 451.053 999.087 478.244C956.539 499.182 909.743 524.439 860.191 551.186L859.474 551.569C799.549 583.907 737.635 617.308 681.556 643.767C676.088 646.38 670.535 649.08 664.92 651.797L660.773 653.809C632.88 667.353 604.035 681.34 579.386 690.389C567.302 694.84 557.12 697.461 549.148 698.175C529.294 699.917 523.038 691.007 517.007 682.394L516.647 681.871C514.319 678.475 512.148 674.991 509.862 671.333L509.86 671.324L509.5 670.749L509.495 670.741C496.093 649.193 480.905 624.781 435.807 620.322C374.859 615.096 272.629 629.528 197.993 653.888C164.728 665.106 134.37 679.171 103.6 693.812C73.5579 708.095 48.6286 720.411 24.3909 737.708ZM57.8836 737.708L64.2534 737.708C66.9678 736.349 69.7256 734.982 72.5299 733.588C99.1869 720.367 130.459 705.291 164.024 693.899C236.3 670.105 337.196 656.596 398.707 662.467C443.252 667.265 457.198 690.938 470.681 713.818L470.691 713.835L471.103 714.532C473.431 718.477 475.83 722.544 478.348 726.359L478.512 726.612C481.081 730.418 483.802 734.433 487.684 737.708L492.441 737.708C487.035 734.442 483.764 729.599 480.558 724.852L480.393 724.626C477.786 720.646 475.373 716.561 472.826 712.233C459.64 689.849 444.708 664.505 398.909 659.575C337.106 653.67 235.806 667.239 163.252 691.103C129.537 702.556 98.1829 717.667 71.4511 730.932C66.8067 733.231 62.2897 735.487 57.8836 737.708ZM532.318 737.708L542.011 737.708C564.807 730.078 592.073 717.267 617.162 705.474C623.919 702.295 630.497 699.203 636.768 696.329C692.952 671.072 755.136 638.881 815.275 607.736L815.832 607.449C869.794 579.509 920.757 553.128 966.564 532.025C1016.99 508.858 1055.38 495.776 1092.53 483.13L1092.54 483.13C1115.78 475.222 1139.81 467.044 1166.42 456.488C1218.52 435.42 1280.82 400.181 1351.59 351.757C1410.33 311.667 1486.02 252.652 1576.54 176.348C1650.44 114.18 1718.32 53.1441 1784.07 -10.2085C1847.31 -70.9571 1966.71 -190.712 2055.96 -310.136C2125.45 -403.101 2151.41 -459.416 2170.29 -504.889L2167.94 -506.125C2149.13 -460.81 2123.26 -404.712 2053.97 -312.018C1964.84 -192.75 1845.55 -73.1171 1782.38 -12.4209C1716.67 50.8969 1648.83 111.889 1574.98 174.023C1484.52 250.265 1408.91 309.22 1350.23 349.266C1279.61 397.603 1217.47 432.746 1165.54 453.744C1139 464.274 1114.99 472.444 1091.77 480.343L1091.76 480.343L1091.68 480.369C1054.51 493.024 1016.06 506.114 965.567 529.325C919.551 550.524 868.365 577.027 814.174 605.089C754.065 636.216 691.903 668.406 635.772 693.62C629.494 696.521 622.9 699.612 616.143 702.791L615.968 702.87C587.574 716.204 556.4 730.845 532.318 737.708ZM427.782 737.708C415.824 719.583 398.641 702.992 362.699 698.785C300.103 692.236 199.746 705.021 129.253 728.537C120.961 731.393 112.852 734.468 104.918 737.708L112.447 737.708C118.203 735.452 124.049 733.292 129.987 731.254C200.203 707.826 300.148 695.083 362.467 701.616C396.52 705.596 412.961 720.428 424.676 737.708L427.782 737.708ZM610.392 737.708L603.443 737.708C655.938 714.854 713.884 686.017 769.933 658.129L770.927 657.633C825.597 630.442 877.225 604.766 923.791 584.43C973.629 562.656 1011.92 550.681 1048.96 539.097C1075.14 530.91 1102.2 522.445 1132.88 510.626C1186.37 489.575 1252.73 452.682 1324.81 403.917C1380.73 366.153 1449.7 313.574 1535.69 243.158C1616.77 176.836 1691.93 110.496 1765.43 40.3324C1873.87 -62.8573 1973.41 -172.144 2038.51 -259.517C2108.29 -353.135 2132.93 -408.719 2150.55 -453.485L2152.85 -452.336C2135.16 -407.404 2110.43 -351.585 2040.43 -257.697C1975.25 -170.21 1875.6 -60.7932 1767.04 42.501C1693.5 112.708 1618.31 179.083 1537.17 245.449C1451.12 315.908 1382.08 368.548 1326.1 406.356C1253.89 455.216 1187.35 492.197 1133.71 513.308C1102.96 525.153 1075.85 533.636 1049.64 541.832L1049.45 541.893C1012.54 553.442 974.348 565.382 924.705 587.069C877.909 607.51 825.959 633.36 770.967 660.725C717.031 687.559 661.333 715.281 610.392 737.708ZM325.174 737.708C300.901 735.225 272.263 735.356 242.348 737.708L325.174 737.708ZM670.135 737.708C688.901 728.868 707.737 719.879 726.356 710.987L726.509 710.917C785.142 682.925 840.516 656.492 890.129 636.295C936.925 617.264 973.831 606.726 1009.54 596.536C1037.05 588.689 1065.5 580.563 1098.03 568.64C1152.5 548.242 1219.27 512.411 1291.14 465.032C1421.41 379.662 1587.61 245.728 1735.7 106.759C1801.37 45.5146 1925.31 -75.4425 2017.77 -197.488C2090.61 -293.649 2117.71 -352.865 2136.14 -402.509L2138.37 -401.464C2119.88 -351.602 2092.68 -292.169 2019.62 -195.72C1927.04 -73.5177 1802.97 47.5613 1737.26 108.858C1589.07 247.922 1422.74 381.944 1292.37 467.384C1220.36 514.859 1153.42 550.768 1098.78 571.226C1066.27 583.15 1037.85 591.258 1010.38 599.105L1010.13 599.175C974.483 609.348 937.629 619.869 890.946 638.855C841.43 659.009 786.121 685.407 727.565 713.365L727.46 713.417C710.545 721.491 693.453 729.66 676.396 737.708L670.135 737.708ZM740.405 737.708L746.687 737.708C785.93 720.036 824.414 703.34 858.872 690.372C902.881 673.841 938.446 664.679 972.835 655.83L973.194 655.734C1001.85 648.357 1031.51 640.71 1065.74 628.831C1120.13 609.574 1185.6 575.729 1260.33 528.263C1328.91 484.828 1416.54 420.553 1513.71 342.403C1584.09 285.887 1648.32 230.922 1710.04 174.371C1777.52 112.752 1905.13 -9.3376 2001.56 -134.641C2081.35 -238.327 2109.64 -302.698 2126.78 -351.985L2124.61 -352.943C2107.53 -303.866 2079.36 -239.746 1999.8 -136.365C1903.47 -11.2101 1776 110.757 1708.58 172.333C1646.88 228.857 1582.69 283.788 1512.36 340.26C1415.24 418.367 1327.69 482.59 1259.18 525.972C1185.63 572.681 1118.5 607.388 1065.03 626.331C1030.76 638.228 1001.05 645.875 972.318 653.269L972.19 653.304L972.183 653.304C937.777 662.162 902.188 671.315 858.13 687.881C822.037 701.459 781.552 719.122 740.405 737.708ZM832.677 737.708L840.639 737.708C876.55 725.985 907.138 718.991 936.857 712.206L936.959 712.18C968.796 704.899 1001.73 697.366 1040.8 684.075C1097.02 664.505 1167.26 628.639 1243.93 580.328C1309.31 539.228 1389.99 481.197 1483.71 407.837C1561.7 346.862 1633.3 286.575 1702.58 223.545C1770.44 161.986 1898.65 39.9753 1994.78 -85.5281C2075.07 -190.364 2102.13 -254.631 2118 -303.656L2115.88 -304.528C2100.07 -255.702 2073.12 -191.714 1993.07 -87.1828C1897.06 38.1725 1768.97 160.061 1701.16 221.568C1631.92 284.563 1560.37 344.807 1482.42 405.747C1388.75 479.054 1308.14 537.05 1242.82 578.116C1166.3 626.331 1096.2 662.136 1040.14 681.654C1001.13 694.918 968.227 702.443 936.408 709.716C904.641 716.971 871.88 724.461 832.677 737.708ZM1014.9 737.708L1022.29 737.708C1078.39 717.885 1145.91 684.031 1218.76 639.108C1365.41 549.2 1540.62 414.935 1699.46 270.75C1767.41 209.409 1895.62 87.7903 1991.01 -37.5998C2071.94 -143.986 2098.11 -210.352 2111.88 -256.268L2109.82 -257.052C2096.13 -211.328 2070.05 -145.249 1989.36 -39.185C1894.09 86.0571 1765.99 207.572 1698.11 268.851C1539.35 412.949 1364.26 547.119 1217.71 636.966C1142.03 683.631 1072.15 718.329 1014.9 737.708ZM1120.03 737.708L1124.98 737.708C1146.86 726.168 1169.57 713.417 1192.9 699.56C1265.57 656.509 1353.98 595.569 1455.65 518.456C1534.82 458.491 1607.71 398.796 1678.46 335.984C1751.56 271.29 1889.13 143.026 1989.12 10.7377C2070.64 -97.0767 2095.64 -163.626 2108.29 -209.559L2106.3 -210.256C2093.69 -164.54 2068.8 -98.2786 1987.54 9.21356C1887.65 141.345 1750.21 269.504 1677.16 334.137C1606.45 396.915 1533.6 456.575 1454.47 516.514C1352.86 593.584 1264.53 654.471 1191.92 697.487C1167.17 712.189 1143.13 725.636 1120.03 737.708ZM1202.05 737.708L1206.3 737.708C1350.8 649.629 1511.58 530.161 1661.61 399.223C1793.76 284.546 1913.42 160.253 1989.92 58.2217C2071.68 -50.7686 2095.47 -117.474 2107.06 -163.408L2105.13 -164.026C2093.59 -118.31 2069.9 -51.892 1988.38 56.7585C1911.97 158.677 1792.42 282.847 1660.38 397.429C1509.29 529.282 1347.31 649.498 1202.05 737.708ZM1277.4 737.708L1281.17 737.708C1322.08 710.639 1365.92 680.191 1412.46 646.502C1501.73 581.957 1583.6 517.237 1662.77 448.623C1795.78 333.754 1915.88 209.061 1992.26 106.489C2075.62 -5.3836 2098.26 -74.9112 2108.03 -117.474L2106.18 -118.014C2096.44 -75.6428 2073.9 -6.41992 1990.79 105.113C1914.5 207.572 1794.51 332.152 1661.6 446.916C1582.48 515.486 1500.65 580.18 1411.42 644.691C1363.84 679.137 1319.08 710.195 1277.4 737.708ZM1353.5 737.708L1357.02 737.708C1460.56 666.168 1567.4 583.472 1667.72 496.612C1800.96 381.891 1920.93 257.12 1996.88 154.27C2080.55 41.0466 2102.07 -28.8904 2110.97 -71.6538L2109.19 -72.1241C2100.32 -29.561 2078.9 40.0712 1995.46 152.955C1919.61 255.691 1799.74 380.359 1666.6 494.975C1565.5 582.496 1457.79 665.802 1353.5 737.708ZM1427 737.708L1430.61 737.708C1506.12 683.073 1581.85 623.675 1655.18 561.315C1735.34 493.495 1885.94 358.271 1993.82 214.713C2063.57 121.949 2102.29 45.532 2115.67 -25.7463L2113.96 -26.1468C2100.64 44.8005 2062.04 120.93 1992.48 213.45C1884.71 356.86 1734.23 491.979 1654.12 559.756C1580.94 621.976 1503.94 682.194 1427 737.708ZM1500.68 737.708L1503.67 737.708C1551.19 701.868 1598.28 664.531 1644.06 626.322C1725.86 558.397 1879.85 422.521 1992.12 275.723C2066.95 177.924 2109.4 94.4009 2121.88 20.3878L2120.25 20.0394C2107.82 93.7214 2065.5 176.958 1990.86 274.495C1878.69 421.162 1724.81 556.934 1643.07 624.816C1596.65 663.564 1548.87 701.407 1500.68 737.708ZM1573.85 737.708L1576.6 737.708C1602.28 717.511 1627.72 696.921 1652.84 676.019C1734.74 608.154 1888.82 472.322 2000.7 325.027C2075.94 226.018 2118.03 141.589 2129.34 66.905L2127.78 66.6002C2116.51 140.962 2074.55 225.112 1999.49 323.878C1887.72 471.041 1733.75 606.77 1651.91 674.59C1626.2 695.989 1600.14 717.049 1573.85 737.708ZM1646.16 737.708L1648.68 737.708C1653.26 733.945 1657.82 730.166 1662.38 726.386C1744.34 658.591 1898.49 522.776 2010.04 374.941C2085.7 274.73 2127.48 189.334 2137.75 113.884L2136.28 113.623C2126.04 188.75 2084.38 273.877 2008.9 373.844C1897.45 521.548 1743.41 657.276 1661.49 725.036C1656.4 729.268 1651.28 733.492 1646.16 737.708ZM1716.94 737.708L1719.26 737.708C1808.9 660.202 1928.84 546.866 2019.84 425.5C2095.95 324.087 2137.48 237.724 2146.83 161.446L2145.44 161.22C2136.13 237.184 2094.69 323.303 2018.77 424.472C1927.35 546.396 1806.68 660.22 1716.94 737.708ZM1785.83 737.708L1787.7 737.708C1808.47 718.712 1828.64 699.656 1847.99 680.748C1920.53 609.888 1981.71 541.222 2029.81 476.703C2105.3 375.516 2147.85 285.652 2156.27 209.61L2154.94 209.418C2146.56 285.182 2104.11 374.785 2028.79 475.753C1989.61 528.315 1912.48 621.976 1785.83 737.708ZM1851.45 737.708L1853.19 737.708C1854.47 736.471 1855.74 735.226 1857.01 733.989C1929.68 662.981 1990.94 594.106 2039.09 529.256C2115.37 426.641 2157.98 335.522 2165.73 258.426L2164.48 258.261C2156.77 335.087 2114.26 425.961 2038.13 528.367C2005.11 572.829 1945.19 646.459 1851.45 737.708ZM1913.51 737.708L1915.21 737.708C1966.84 683.953 2011.52 631.644 2048.47 581.66C2125.2 477.983 2167.74 385.872 2174.91 307.878L2173.75 307.748C2166.61 385.471 2124.15 477.347 2047.56 580.833C2021.22 616.463 1977.71 670.749 1913.51 737.708ZM1971.68 737.708L1973.2 737.708C1995.21 712.886 2016.57 687.367 2036.79 661.343C2085.13 599.184 2122.2 540.064 2146.97 485.612C2167.97 439.47 2180.25 396.515 2183.47 357.958L2182.41 357.845C2179.18 396.253 2166.95 439.069 2146.02 485.064C2121.28 539.42 2084.26 598.461 2035.98 660.551C2015.54 686.853 1993.94 712.633 1971.68 737.708ZM2024.81 737.708L2026.15 737.708C2032.3 730.104 2038.36 722.457 2044.33 714.758C2092.72 652.364 2129.83 592.895 2154.63 538.017C2175.81 491.169 2188.08 447.622 2191.12 408.586L2190.12 408.481C2181.81 515.564 2105.84 633.743 2043.58 714.027C2037.43 721.97 2031.16 729.869 2024.81 737.708ZM2072.39 737.708L2073.56 737.708C2130.67 658.809 2190.59 555.009 2197.54 459.676L2196.63 459.606C2189.69 554.931 2129.56 658.852 2072.39 737.708ZM2113.58 737.708L2114.59 737.708C2158.78 667.832 2197.2 586.851 2202.42 511.114L2201.61 511.035C2196.38 586.782 2157.84 667.823 2113.58 737.708ZM2147.78 737.708L2148.64 737.708C2178.79 681.122 2201.73 620.452 2205.52 562.77L2204.78 562.709C2200.99 620.391 2177.99 681.105 2147.78 737.708ZM2174.15 737.708L2174.83 737.708C2196.56 685.852 2204.64 644.856 2206.55 614.451L2205.9 614.399C2203.35 654.846 2191.41 696.747 2174.15 737.708ZM2191.61 737.708L2192.21 737.708C2200.42 709.411 2204.13 685.53 2205.31 665.986L2204.74 665.942C2203.56 685.486 2199.84 709.385 2191.61 737.708ZM2199.11 737.708L2199.59 737.708C2200.57 730.392 2201.2 723.546 2201.58 717.154L2201.1 717.127C2200.72 723.52 2200.09 730.383 2199.11 737.708ZM-32 502.674C-31.071 499.939 -30.1569 497.204 -29.2579 494.47C-17.5927 458.839 -10.9771 429.306 -8.45976 401.54C-7.97277 396.21 -7.41086 390.653 -6.84895 385.262L-6.82723 385.053C-4.58633 363.262 -2.26977 340.722 -4.08436 319.192C-5.98735 296.939 -16.4014 277.386 -32 263.434L-32 267.832C-18.0721 281.079 -8.82686 299.099 -7.08869 319.514C-5.29058 340.756 -7.59816 363.183 -9.84579 384.87L-9.94843 385.871C-10.4714 390.949 -11.0071 396.157 -11.4641 401.191C-13.9515 428.591 -20.4771 457.777 -32 493.015L-32 502.674ZM-32 386.943C-30.8911 374.358 -30.3517 361.746 -31.3107 349.431C-31.468 347.367 -31.7003 345.329 -32 343.317L-32 386.943ZM2346.05 -883.141C2349.38 -889.124 2352.51 -894.864 2355.47 -900.385C2352.36 -894.62 2349.23 -888.863 2346.05 -883.141ZM2346.05 -883.141C2345.59 -882.313 2345.13 -881.486 2344.66 -880.65L2343.69 -878.908L2343.71 -878.925C2344.49 -880.327 2345.27 -881.73 2346.05 -883.141Z" fill="url(#paint0_linear_1_4)" fill-opacity="0.1"/>
</g>
<defs>
<linearGradient id="paint0_linear_1_4" x1="-31.9999" y1="-253.146" x2="2546.93" y2="-253.146" gradientUnits="userSpaceOnUse">
<stop offset="0.123502" stop-color="white" stop-opacity="0"/>
<stop offset="0.13309" stop-color="white"/>
<stop offset="1" stop-color="white"/>
</linearGradient>
</defs>
</svg>
