<?xml version="1.0" encoding="UTF-8"?>
<svg width="229px" height="256px" viewBox="0 0 229 256" version="1.1" xmlns="http://www.w3.org/2000/svg" xmlns:xlink="http://www.w3.org/1999/xlink">
    <!-- Generator: Sketch 55 (78076) - https://sketchapp.com -->
    <title>Group</title>
    <desc>Created with Sketch.</desc>
    <defs>
        <linearGradient x1="50%" y1="99.881295%" x2="50%" y2="8.74460432%" id="linearGradient-1">
            <stop stop-color="#4BB749" offset="0%"></stop>
            <stop stop-color="#79B481" offset="100%"></stop>
        </linearGradient>
        <radialGradient cx="51.1418983%" cy="55.2282158%" fx="51.1418983%" fy="55.2282158%" r="46.9942249%" gradientTransform="translate(0.511419,0.552282),scale(0.118655,1.000000),translate(-0.511419,-0.552282)" id="radialGradient-2">
            <stop stop-color="#000000" offset="0%"></stop>
            <stop stop-color="#030303" offset="19.01%"></stop>
            <stop stop-color="#0C0C0C" offset="32.36%"></stop>
            <stop stop-color="#1C1C1C" offset="43.97%"></stop>
            <stop stop-color="#323232" offset="54.61%"></stop>
            <stop stop-color="#4E4E4E" offset="64.56%"></stop>
            <stop stop-color="#717171" offset="74.02%"></stop>
            <stop stop-color="#9A9A9A" offset="83.09%"></stop>
            <stop stop-color="#C9C9C9" offset="91.61%"></stop>
            <stop stop-color="#FEFEFE" offset="99.85%"></stop>
            <stop stop-color="#FFFFFF" offset="100%"></stop>
        </radialGradient>
        <linearGradient x1="-48.6516854%" y1="-66.0245958%" x2="56.5617978%" y2="57.71113%" id="linearGradient-3">
            <stop stop-color="#23FF16" offset="0%"></stop>
            <stop stop-color="#189A33" offset="100%"></stop>
        </linearGradient>
        <linearGradient x1="174.299229%" y1="-115.2717%" x2="24.2992292%" y2="84.2339818%" id="linearGradient-4">
            <stop stop-color="#23FF16" offset="0%"></stop>
            <stop stop-color="#189A33" offset="100%"></stop>
        </linearGradient>
    </defs>
    <g id="Page-1" stroke="none" stroke-width="1" fill="none" fill-rule="evenodd">
        <g id="Artboard" transform="translate(-1073.000000, -629.000000)" fill-rule="nonzero">
            <g id="Group" transform="translate(1073.000000, 629.000000)">
                <path d="M208.876868,92.729336 L208.876868,92.736784 L198.45879,92.736784 L198.45879,83.448954 C198.45879,37.3598674 160.789409,0 114.315071,0 C67.8482012,0 30.1788202,37.3598674 30.1788202,83.448954 L30.1788202,92.736784 L19.7756783,92.736784 C8.84976538,92.736784 0,101.510692 0,112.347735 L0,188.959297 C0.0224044694,194.061273 0.328598884,197.770446 2.33006481,200.47412 C4.40621231,203.185244 7.89384136,204.153502 13.0991464,204.138605 L29.835285,204.138605 L32.3893945,244.477729 C32.3893945,244.574554 32.3819263,244.730965 32.3819263,244.932065 C32.3893945,246.004597 32.508885,248.455035 33.8680895,250.808647 C35.2048895,253.184604 38.0129163,255.307323 42.5535554,255.270083 L85.0847065,255.270083 L107.168045,231.905269 L123.672671,231.905269 L145.02413,256 L145.621583,256 C145.621583,256 153.351125,256 161.9171,256 C170.468139,256 179.855612,256 183.164005,256 L183.171473,256 C186.457462,255.985104 189.467129,256.067033 192.073515,254.413546 C194.672434,252.722818 196.233279,249.512671 196.987563,243.919118 C198.085382,235.78575 198.339299,213.530709 198.839665,204.146053 L215.560868,204.146053 C220.706428,204.131157 224.067098,203.63958 226.2478,201.300864 C228.35382,198.91746 228.630141,195.521108 228.660014,190.426581 L228.660014,112.347735 C228.645078,101.510692 219.795312,92.736784 208.876868,92.729336 Z" id="Shape" fill="#349334"></path>
                <path d="M226.226441,190.582909 C226.256329,195.604616 225.740757,198.413493 224.500396,199.709898 C223.342227,201.058457 220.809199,201.71411 215.765559,201.699209 L196.525009,201.699209 L196.457761,202.936009 C195.994493,211.787326 195.680666,235.465342 194.567329,243.757863 C193.84254,249.107396 192.445265,251.372379 190.823828,252.415464 C189.19492,253.510703 186.69178,253.592659 183.359242,253.577758 L183.35177,253.577758 C177.269514,253.577758 150.721291,253.577758 146.387497,253.577758 L125.024882,229.467606 L106.187823,229.467606 L84.0854737,252.847599 L42.6678542,252.847599 C38.8944647,252.810346 37.2879721,251.364929 36.2643001,249.695994 C35.2779884,248.004707 35.1210751,245.933439 35.1285472,245.113873 C35.1285472,244.860553 35.1360192,244.756244 35.1360192,244.756244 L35.1434913,244.651936 L32.4087179,201.691758 L13.2055278,201.691758 C8.20672075,201.684308 5.80818999,200.767884 4.53794005,199.069146 C3.19296954,197.355507 2.7147578,194.129397 2.72970191,189.122591 L2.72970191,112.493139 C2.74464603,103.097928 10.4109779,95.505764 19.885548,95.4908625 L32.9392341,95.4908625 L32.9392341,83.584799 C33.0139547,38.9258844 69.4402392,2.79791028 114.481808,2.72340425 C159.515903,2.79791028 195.949661,38.9258844 196.031853,83.584799 L196.031853,95.4908625 L209.093011,95.4908625 C218.560109,95.505764 226.218969,103.097928 226.233913,112.493139 L226.233913,190.582909 L226.226441,190.582909 Z" id="Shape" fill="#4BB749"></path>
                <rect id="Rectangle-path" fill="#118011" x="35.1784637" y="199.413712" width="158.303087" height="5.2349882"></rect>
                <polygon id="Shape" fill="#118011" points="32.7523628 201.229314 32.7523628 102.27896 35.4286554 102.27896 35.4286554 201.229314"></polygon>
                <polygon id="Shape" fill="#118011" points="193.784813 201.229314 193.784813 102.27896 196.461106 102.27896 196.461106 201.229314"></polygon>
                <ellipse id="Oval" fill="url(#linearGradient-1)" cx="113.116957" cy="123.460993" rx="56.7101097" ry="10.2884161"></ellipse>
                <path d="M165.884652,97.134752 L165.884652,82.045273 C165.884652,53.6131275 142.739832,30.5626478 114.182109,30.5626478 C85.6243863,30.5626478 62.4720995,53.6131275 62.4720995,82.045273 L62.4720995,97.134752 L165.884652,97.134752 Z" id="Shape" fill="#FFFFFF"></path>
                <rect id="Rectangle-path" fill="url(#radialGradient-2)" x="92.4950984" y="81.399527" width="46.095918" height="5.46950355"></rect>
                <ellipse id="Oval" fill="#000000" cx="97.1956691" cy="58.5531915" rx="9.55277248" ry="9.5319149"></ellipse>
                <ellipse id="Oval" fill="#000000" cx="131.161082" cy="58.5531915" rx="9.55277248" ry="9.5319149"></ellipse>
                <rect id="Rectangle-path" fill="#FFFFFF" x="95.8309875" y="154.628841" width="34.5719385" height="25.7210402"></rect>
                <path d="M101.168228,151.905437 C102.726919,146.472797 107.559605,142.531907 113.272317,142.524485 C118.985029,142.531907 123.817715,146.472797 125.383863,151.905437 L129.493138,151.905437 C127.837496,144.320522 121.244757,138.591016 113.264859,138.591016 C105.284961,138.598438 98.6996805,144.320522 97.044038,151.905437 L101.168228,151.905437 Z" id="Shape" fill="#FFFFFF"></path>
                <path d="M218.166368,206.614197 C219.095947,206.606731 219.95056,206.584332 220.775186,206.547001 L220.775186,203.650118 C219.268369,203.88157 217.536653,203.963698 215.520067,203.971164 L198.735171,203.971164 C198.480286,208.652468 198.292871,216.506905 198.030489,224.22695 L200.76675,224.22695 C200.991648,217.395382 201.16407,210.757935 201.388968,206.614197 L218.166368,206.614197 Z" id="Shape" fill="#118011"></path>
                <path d="M220.775186,208.106574 L220.775186,206.676123 C219.958081,206.713182 219.103493,206.742828 218.166446,206.742828 L201.382053,206.742828 C201.157161,210.856302 200.984745,217.445272 200.759853,224.226951 L204.650474,224.226945 C213.563669,224.234357 220.775186,217.015395 220.775186,208.106574 Z" id="Shape" fill="url(#linearGradient-3)"></path>
                <path d="M29.9648393,204.146872 L13.2072947,204.146872 C10.6125299,204.154274 8.45894992,203.917428 6.6717776,203.347518 L6.6717776,206.685563 C7.72613449,206.811387 8.87770158,206.863197 10.1414343,206.863197 L26.9064565,206.855796 L28.0131573,224.226951 L31.2360497,224.226951 L29.9648393,204.146872 Z" id="Shape" fill="#118011"></path>
                <path d="M10.1230635,206.853853 C8.86602183,206.853853 7.72055195,206.802015 6.6717776,206.676123 L6.6717776,208.120179 C6.6717776,217.014079 13.8272452,224.226951 22.656289,224.226951 L27.9001609,224.226951 L26.7993197,206.846448 L10.1230635,206.853853 Z" id="Shape" fill="url(#linearGradient-4)"></path>
            </g>
        </g>
    </g>
</svg>