<?xml version="1.0" encoding="UTF-8"?>
<svg width="126px" height="128px" viewBox="0 0 126 128" version="1.1" xmlns="http://www.w3.org/2000/svg" xmlns:xlink="http://www.w3.org/1999/xlink">
    <!-- Generator: Sketch 55 (78076) - https://sketchapp.com -->
    <title>python</title>
    <desc>Created with Sketch.</desc>
    <g id="Page-1" stroke="none" stroke-width="1" fill="none" fill-rule="evenodd">
        <g id="Artboard" transform="translate(-110.000000, -143.000000)" fill="#333333" fill-rule="nonzero">
            <g id="python" transform="translate(110.000000, 143.000000)">
                <path d="M47.8490164,61.9354839 L77.9640492,61.9354839 C86.3471803,61.9354839 92.9508197,54.8459355 92.9508197,46.432 L92.9508197,17.7372903 C92.9508197,9.57006452 86.101377,3.43432258 77.9186066,2.07174194 C72.7402131,1.20980645 67.3893443,0.817548387 62.2336721,0.842322581 C57.0800656,0.866064516 52.3065246,1.30477419 47.9760492,2.07174194 C35.2159672,4.32309677 33.0491803,9.04051613 33.0491803,17.7372903 L33.0491803,28.9032258 L63,28.9032258 L63,33.0322581 L21.4571803,33.0322581 C12.6950164,33.0322581 5.02140984,38.3050323 2.6222459,48.3210323 C-0.146655738,59.7997419 -0.269557377,66.8180645 2.6222459,78.8036129 C4.76527869,87.7243871 9.8827377,93.9354839 18.6459344,93.9354839 L28.9180328,93.9354839 L28.9180328,80.4665806 C28.9180328,70.5187097 37.6223607,61.9354839 47.8490164,61.9354839 Z M45.9507541,21.563871 C42.825541,21.563871 40.2931475,19.0049032 40.2931475,15.84 C40.2931475,12.6616774 42.8245082,10.0789677 45.9507541,10.0789677 C49.0646066,10.0789677 51.6093934,12.6616774 51.6093934,15.84 C51.6083607,19.0049032 49.0635738,21.563871 45.9507541,21.563871 Z M123.191852,48.3210323 C121.025066,39.6005161 116.888754,33.0322581 108.114197,33.0322581 L97.0819672,33.0322581 L97.0819672,46.432 C97.0819672,56.8061935 87.9996393,65.0322581 77.9640492,65.0322581 L47.8490164,65.0322581 C39.5991148,65.0322581 33.0491803,72.5945806 33.0491803,80.8526452 L33.0491803,109.549419 C33.0491803,117.714581 40.0153279,122.51871 47.9853443,124.861935 C57.5303607,127.666581 66.5693115,128.173419 77.9888361,124.861935 C85.5787869,122.664258 92.9508197,118.244129 92.9508197,109.549419 L92.9508197,98.0645161 L63,98.0645161 L63,93.9354839 L108.114197,93.9354839 C116.876361,93.9354839 120.143066,87.9731613 123.191852,78.8025806 C126.338754,69.3625806 126.203459,60.4294194 123.191852,48.3210323 Z M79.8612787,105.720774 C82.9875246,105.720774 85.519918,108.279742 85.519918,111.44671 C85.519918,114.621935 82.9885574,117.205677 79.8612787,117.205677 C76.7474262,117.205677 74.2036721,114.622968 74.2036721,111.44671 C74.2036721,108.279742 76.7474262,105.720774 79.8612787,105.720774 Z" id="Shape"></path>
            </g>
        </g>
    </g>
</svg>