<?xml version="1.0" encoding="UTF-8" standalone="no"?>
<svg
   width="10"
   height="13"
   viewBox="0 0 10 13"
   fill="none"
   version="1.1"
   id="svg2"
   sodipodi:docname="question_unknown.svg"
   inkscape:version="1.4.3 (0d15f75042, 2025-12-25)"
   xmlns:inkscape="http://www.inkscape.org/namespaces/inkscape"
   xmlns:sodipodi="http://sodipodi.sourceforge.net/DTD/sodipodi-0.dtd"
   xmlns="http://www.w3.org/2000/svg"
   xmlns:svg="http://www.w3.org/2000/svg">
  <defs
     id="defs2" />
  <sodipodi:namedview
     id="namedview2"
     pagecolor="#ffffff"
     bordercolor="#000000"
     borderopacity="0.25"
     inkscape:showpageshadow="2"
     inkscape:pageopacity="0.0"
     inkscape:pagecheckerboard="0"
     inkscape:deskcolor="#d1d1d1"
     showgrid="false"
     showguides="true"
     inkscape:zoom="65.02564"
     inkscape:cx="4.844243"
     inkscape:cy="4.3367509"
     inkscape:window-width="1920"
     inkscape:window-height="1145"
     inkscape:window-x="0"
     inkscape:window-y="0"
     inkscape:window-maximized="0"
     inkscape:current-layer="svg2">
    <sodipodi:guide
       position="1.4365011,10.780636"
       orientation="0,-1"
       id="guide2"
       inkscape:locked="false" />
    <sodipodi:guide
       position="1.6213206,0.79208348"
       orientation="0,-1"
       id="guide3"
       inkscape:locked="false" />
  </sodipodi:namedview>
  <path
     d="m 2.7310725,4.0248423 c 0,-1.2421875 1.0078125,-2.2499999 2.25,-2.2499999 1.2421875,0 2.25,1.0078124 2.25,2.2499999 0,1.0007813 -0.6539062,1.8492188 -1.5585938,2.1421875 -0.6656249,0.215625 -1.4414062,0.8273437 -1.4414062,1.7953125 v 0.5625 c 0,0.4148437 0.3351563,0.75 0.75,0.75 0.4148437,0 0.75,-0.3351563 0.75,-0.75 v -0.5625 c 0,-0.039844 0.014062,-0.096094 0.082031,-0.1710938 0.070313,-0.077344 0.1851565,-0.1523437 0.321094,-0.1968749 1.5070313,-0.4851563 2.596875,-1.8984375 2.596875,-3.5695313 0,-2.0718749 -1.678125,-3.74999995 -3.75,-3.74999995 -2.071875,0 -3.75,1.67812505 -3.75,3.74999995 0,0.4148438 0.3351563,0.75 0.75,0.75 0.4148437,0 0.75,-0.3351562 0.75,-0.75 z m 2.25,8.2499997 c 0.5179688,0 0.9375,-0.419531 0.9375,-0.9375 0,-0.517968 -0.4195312,-0.9375 -0.9375,-0.9375 -0.5179688,0 -0.9375,0.419532 -0.9375,0.9375 0,0.517969 0.4195312,0.9375 0.9375,0.9375 z"
     fill="#61708b"
     id="path1"
     style="stroke-width:0.0234375" />
</svg>
