<svg xmlns="http://www.w3.org/2000/svg" width="24px" height="24px" viewBox="0 0 24 24" fill="currentColor"><path d="M0 1.5C0 .677.677 0 1.5 0 13.926 0 24 10.074 24 22.5c0 .823-.677 1.5-1.5 1.5s-1.5-.677-1.5-1.5C21 11.73 12.27 3 1.5 3 .677 3 0 2.323 0 1.5ZM0 9c0-.823.677-1.5 1.5-1.5 8.285 0 15 6.716 15 15 0 .823-.677 1.5-1.5 1.5s-1.5-.677-1.5-1.5c0-6.583-5.417-12-12-12C.677 10.5 0 9.823 0 9Zm3.75 15a3.768 3.768 0 0 0 3.75-3.75 3.768 3.768 0 0 0-3.75-3.75A3.768 3.768 0 0 0 0 20.25 3.768 3.768 0 0 0 3.75 24Z" /></svg>