<!DOCTYPE svg PUBLIC "-//W3C//DTD SVG 1.1//EN" "http://www.w3.org/Graphics/SVG/1.1/DTD/svg11.dtd">

<!-- Uploaded to: SVG Repo, www.svgrepo.com, Transformed by: SVG Repo Mixer Tools -->
<svg width="24px" height="24px" viewBox="0 0 24 24" fill="none" xmlns="http://www.w3.org/2000/svg" stroke="#999999">

<g id="SVGRepo_bgCarrier" stroke-width="0"/>

<g id="SVGRepo_tracerCarrier" stroke-linecap="round" stroke-linejoin="round"/>

<g id="SVGRepo_iconCarrier"> <path fill-rule="evenodd" clip-rule="evenodd" d="M4 5C4 4.44772 4.44772 4 5 4C13.2843 4 20 10.7157 20 19C20 19.5523 19.5523 20 19 20C18.4477 20 18 19.5523 18 19C18 11.8203 12.1797 6 5 6C4.44772 6 4 5.55228 4 5ZM4 10C4 9.44772 4.44772 9 5 9C10.5228 9 15 13.4772 15 19C15 19.5523 14.5523 20 14 20C13.4477 20 13 19.5523 13 19C13 14.5817 9.41828 11 5 11C4.44772 11 4 10.5523 4 10ZM6.5 20C7.88071 20 9 18.8807 9 17.5C9 16.1193 7.88071 15 6.5 15C5.11929 15 4 16.1193 4 17.5C4 18.8807 5.11929 20 6.5 20Z" fill="#999999"/> </g>

</svg>