<?xml version="1.0" encoding="UTF-8" standalone="no"?>
<!-- Uploaded to: SVG Repo, www.svgrepo.com, Transformed by: SVG Repo Mixer Tools -->

<svg
   width="17"
   height="17"
   viewBox="0 0 17 17"
   fill="none"
   stroke="#999999"
   version="1.1"
   id="svg1"
   sodipodi:docname="rss.svg"
   inkscape:version="1.3.2 (091e20ef0f, 2023-11-25)"
   xmlns:inkscape="http://www.inkscape.org/namespaces/inkscape"
   xmlns:sodipodi="http://sodipodi.sourceforge.net/DTD/sodipodi-0.dtd"
   xmlns="http://www.w3.org/2000/svg"
   xmlns:svg="http://www.w3.org/2000/svg">
  <defs
     id="defs1" />
  <sodipodi:namedview
     id="namedview1"
     pagecolor="#ffffff"
     bordercolor="#000000"
     borderopacity="0.25"
     inkscape:showpageshadow="2"
     inkscape:pageopacity="0.0"
     inkscape:pagecheckerboard="0"
     inkscape:deskcolor="#d1d1d1"
     inkscape:zoom="35.333333"
     inkscape:cx="8.4764151"
     inkscape:cy="8.490566"
     inkscape:window-width="1920"
     inkscape:window-height="1052"
     inkscape:window-x="0"
     inkscape:window-y="0"
     inkscape:window-maximized="1"
     inkscape:current-layer="svg1" />
  <g
     id="SVGRepo_bgCarrier"
     stroke-width="0"
     transform="translate(-3.5,-3.5)" />
  <g
     id="SVGRepo_tracerCarrier"
     stroke-linecap="round"
     stroke-linejoin="round"
     transform="translate(-3.5,-3.5)" />
  <g
     id="SVGRepo_iconCarrier"
     transform="translate(-3.5,-3.5)">
    <path
       fill-rule="evenodd"
       clip-rule="evenodd"
       d="M 4,5 C 4,4.44772 4.44772,4 5,4 c 8.2843,0 15,6.7157 15,15 0,0.5523 -0.4477,1 -1,1 -0.5523,0 -1,-0.4477 -1,-1 C 18,11.8203 12.1797,6 5,6 4.44772,6 4,5.55228 4,5 Z m 0,5 C 4,9.44772 4.44772,9 5,9 c 5.5228,0 10,4.4772 10,10 0,0.5523 -0.4477,1 -1,1 -0.5523,0 -1,-0.4477 -1,-1 C 13,14.5817 9.41828,11 5,11 4.44772,11 4,10.5523 4,10 Z M 6.5,20 C 7.88071,20 9,18.8807 9,17.5 9,16.1193 7.88071,15 6.5,15 5.11929,15 4,16.1193 4,17.5 4,18.8807 5.11929,20 6.5,20 Z"
       fill="#999999"
       id="path1" />
  </g>
</svg>
