<?xml version="1.0" encoding="utf-8"?>
<!-- Generator: Adobe Illustrator 16.0.0, SVG Export Plug-In . SVG Version: 6.00 Build 0)  -->
<!DOCTYPE svg PUBLIC "-//W3C//DTD SVG 1.1//EN" "http://www.w3.org/Graphics/SVG/1.1/DTD/svg11.dtd">
<svg version="1.1" id="Layer_1" xmlns="http://www.w3.org/2000/svg" xmlns:xlink="http://www.w3.org/1999/xlink" x="0px" y="0px"
	 width="64px" height="64px" viewBox="0 0 64 64" enable-background="new 0 0 64 64" xml:space="preserve">
<g>
	<path d="M32,5.91L-0.601,20.037l15.6,6.239l-15.6,6.761l15.6,6.239l-15.6,6.761L32,59.077l32.601-13.04L49,39.277l15.601-6.24
		L49,26.277l15.601-6.24L32,5.91z M59.399,45.963L32,56.923L4.601,45.963l13.015-5.64L32,46.077l14.384-5.753L59.399,45.963z
		 M59.399,32.963l-12.984,5.194l-0.018-0.008l-0.008,0.018L32,43.923l-14.39-5.756l-0.008-0.019l-0.019,0.008L4.601,32.963
		l13.015-5.64L32,33.077l14.384-5.753L59.399,32.963z M46.397,25.149l-0.008,0.018L32,30.923l-14.39-5.756l-0.008-0.019
		l-0.019,0.008L4.601,19.963L32,8.09l27.399,11.873l-12.984,5.194L46.397,25.149z"/>
</g>
</svg>
