<?xml version="1.0" encoding="UTF-8"?>
<svg width="400px" height="159px" viewBox="0 0 400 159" version="1.1" xmlns="http://www.w3.org/2000/svg" xmlns:xlink="http://www.w3.org/1999/xlink">
    <!-- Generator: Sketch 55 (78076) - https://sketchapp.com -->
    <title>upcloud</title>
    <desc>Created with Sketch.</desc>
    <g id="Page-1" stroke="none" stroke-width="1" fill="none" fill-rule="evenodd">
        <g id="Artboard" transform="translate(-549.000000, -653.000000)" fill="#7B00FF" fill-rule="nonzero">
            <g id="upcloud" transform="translate(549.000000, 653.000000)">
                <path d="M368.633358,96.2519288 L174.05385,96.2519288 L174.05385,110.87542 L368.766267,110.87542 C378.069933,110.87542 385.512865,118.320107 385.512865,127.625964 C385.512865,136.931823 378.069933,144.376509 368.766267,144.376509 L159.300896,144.376509 L159.300896,77.3743316 L144.680851,77.3743316 L144.680851,159 L368.633358,159 C385.911593,159 400,144.908272 400,127.625964 C400,110.343657 385.911593,96.2519288 368.633358,96.2519288 L368.633358,96.2519288 Z" id="Path"></path>
                <path d="M14.6200449,79.7703545 C14.6200449,70.4326875 22.0629769,62.962554 31.366642,62.962554 L223.952507,62.962554 C241.230742,62.962554 255.319149,48.8226584 255.319149,31.481277 C255.319149,14.1398956 241.230742,0 223.952507,0 L144.472626,0 L144.472626,33.6156008 L159.092671,33.6156008 L159.092671,14.6734766 L223.952507,14.6734766 C233.256172,14.6734766 240.699104,22.1436101 240.699104,31.481277 C240.699104,40.8189439 233.256172,48.2890775 223.952507,48.2890775 L31.366642,48.2890775 C14.088407,48.2890775 0,62.4289731 0,79.7703545 C0,97.1117362 13.9554974,111.385027 31.366642,111.385027 L129.719671,111.385027 L129.719671,96.7115502 L31.366642,96.7115502 C22.0629769,96.5781551 14.6200449,89.1080214 14.6200449,79.7703545 Z" id="Path"></path>
            </g>
        </g>
    </g>
</svg>