<svg width="277" height="89" viewBox="0 0 277 89" fill="none" xmlns="http://www.w3.org/2000/svg">
<rect x="1.83887" y="17.7126" width="53" height="53" rx="26.5" fill="white"/>
<path d="M20.4849 56.2382L20.4901 56.0077L20.7186 55.9455C22.2971 55.5166 23.8203 54.8077 25.2951 53.8155C25.6907 53.5494 26.2989 53.0916 26.2905 53.0663C26.2865 53.0543 26.2016 52.9959 26.1018 52.9365C24.1004 51.7454 22.3039 50.4065 20.5728 48.816C20.1946 48.4685 19.2929 47.5709 18.9018 47.1525C15.6408 43.6643 13.4735 39.7918 12.6754 36.0277C12.4991 35.196 12.381 34.2841 12.3511 33.5223L12.3389 33.2126L12.456 33.2571C12.5205 33.2816 13.5317 33.6733 14.7033 34.1275C17.7502 35.3088 17.7922 35.3233 20.2695 36.0566C21.4052 36.3927 22.339 36.6724 22.3447 36.6781C22.3504 36.6837 22.3523 36.9528 22.349 37.276C22.3357 38.5792 22.4917 39.8466 22.8397 41.2613C23.553 44.1613 24.9993 47.1055 26.9272 49.582C27.4559 50.2611 28.2733 51.1896 28.3426 51.1896C28.3929 51.1896 28.8356 50.7102 29.3086 50.1434C31.732 47.2395 33.4667 43.6021 34.0925 40.1122C34.2761 39.0882 34.3443 38.3096 34.3379 37.311C34.3357 36.9668 34.3373 36.6819 34.3415 36.6778C34.3457 36.6737 35.2583 36.4017 36.3695 36.0734C38.8303 35.3462 38.938 35.3088 42.074 34.0941L44.332 33.2194L44.3379 33.3585C44.3445 33.5145 44.3166 33.9659 44.2758 34.3654C44.2062 35.0472 44.0538 35.9083 43.8768 36.6214C42.771 41.0745 39.7251 45.6864 35.4004 49.456C33.9693 50.7035 32.4448 51.8147 30.8067 52.8046C30.5779 52.9429 30.3907 53.0628 30.3907 53.0712C30.3907 53.0902 30.8105 53.4086 31.1495 53.6467C32.6925 54.7307 34.3251 55.5024 36.0678 55.9716L36.1958 56.006L36.2009 56.2374L36.206 56.4688L36.146 56.4688C36.0503 56.4688 35.4615 56.3995 35.0439 56.3392C33.4781 56.1129 31.7924 55.6405 30.3358 55.0199C29.6087 54.7101 29.0293 54.4563 28.7452 54.3233C28.5792 54.2456 28.4188 54.1738 28.3886 54.1638C28.3395 54.1475 28.2957 54.1631 27.9681 54.3138C27.5987 54.4838 26.8784 54.7988 26.3408 55.0253C24.5925 55.7623 22.7169 56.2459 20.8492 56.4413C20.7048 56.4565 20.5627 56.4688 20.5333 56.4688H20.4798L20.4849 56.2382Z" fill="black"/>
<rect x="1.83887" y="17.7126" width="53" height="53" rx="26.5" stroke="black" stroke-width="3"/>
<rect x="45.8389" y="17.7126" width="53" height="53" rx="26.5" fill="white"/>
<path d="M72.3389 60.2126C81.1754 60.2126 88.3389 53.0492 88.3389 44.2126C88.3389 35.3761 81.1754 28.2126 72.3389 28.2126C63.5023 28.2126 56.3389 35.3761 56.3389 44.2126C56.3389 53.0492 63.5023 60.2126 72.3389 60.2126Z" fill="url(#paint0_linear_1488_18164)"/>
<path d="M67.1694 45.3822L69.0677 50.6364C69.0677 50.6364 69.305 51.128 69.5591 51.128C69.8133 51.128 73.5931 47.1957 73.5931 47.1957L77.7965 39.077L67.2371 44.026L67.1694 45.3822Z" fill="#C8DAEA"/>
<path d="M69.6863 46.7297L69.3219 50.6025C69.3219 50.6025 69.1694 51.7892 70.3558 50.6025C71.5422 49.4158 72.6778 48.5008 72.6778 48.5008" fill="#A9C6D8"/>
<path d="M67.2037 45.5697L63.2989 44.2974C63.2989 44.2974 62.8322 44.1081 62.9825 43.6788C63.0134 43.5902 63.0758 43.5149 63.2625 43.3854C64.1277 42.7824 79.2766 37.3374 79.2766 37.3374C79.2766 37.3374 79.7043 37.1933 79.9566 37.2892C80.019 37.3085 80.0752 37.344 80.1193 37.3922C80.1635 37.4403 80.1941 37.4993 80.2079 37.5632C80.2352 37.6759 80.2466 37.7919 80.2418 37.9078C80.2406 38.0081 80.2285 38.101 80.2193 38.2468C80.127 39.7354 77.3659 50.8458 77.3659 50.8458C77.3659 50.8458 77.2007 51.496 76.6089 51.5182C76.4634 51.5229 76.3185 51.4983 76.1828 51.4458C76.0471 51.3933 75.9233 51.314 75.8189 51.2126C74.6574 50.2136 70.643 47.5157 69.7559 46.9224C69.7359 46.9087 69.7191 46.891 69.7065 46.8703C69.694 46.8496 69.686 46.8264 69.6831 46.8024C69.6707 46.7398 69.7387 46.6624 69.7387 46.6624C69.7387 46.6624 76.7289 40.449 76.9149 39.7968C76.9293 39.7462 76.8749 39.7213 76.8018 39.7434C76.3375 39.9142 68.2893 44.9968 67.401 45.5577C67.3371 45.5771 67.2695 45.5812 67.2037 45.5697Z" fill="white"/>
<rect x="45.8389" y="17.7126" width="53" height="53" rx="26.5" stroke="black" stroke-width="3"/>
<rect x="89.8389" y="17.7126" width="53" height="53" rx="26.5" fill="white"/>
<path d="M107.192 48.3703C107.192 50.2097 105.706 51.6963 103.866 51.6963C102.027 51.6963 100.54 50.2097 100.54 48.3703C100.54 46.5309 102.027 45.0443 103.866 45.0443H107.192V48.3703ZM108.855 48.3703C108.855 46.5309 110.342 45.0443 112.181 45.0443C114.021 45.0443 115.507 46.5309 115.507 48.3703V56.6853C115.507 58.5246 114.021 60.0113 112.181 60.0113C110.342 60.0113 108.855 58.5246 108.855 56.6853V48.3703Z" fill="#E01E5A"/>
<path d="M112.181 35.016C110.342 35.016 108.855 33.5294 108.855 31.69C108.855 29.8506 110.342 28.364 112.181 28.364C114.021 28.364 115.507 29.8506 115.507 31.69V35.016H112.181ZM112.181 36.7042C114.021 36.7042 115.507 38.1908 115.507 40.0302C115.507 41.8695 114.021 43.3561 112.181 43.3561H103.841C102.002 43.3561 100.515 41.8695 100.515 40.0302C100.515 38.1908 102.002 36.7042 103.841 36.7042H112.181Z" fill="#36C5F0"/>
<path d="M125.511 40.0302C125.511 38.1908 126.997 36.7042 128.837 36.7042C130.676 36.7042 132.163 38.1908 132.163 40.0302C132.163 41.8695 130.676 43.3561 128.837 43.3561H125.511V40.0302ZM123.848 40.0302C123.848 41.8695 122.361 43.3561 120.522 43.3561C118.682 43.3561 117.196 41.8695 117.196 40.0302V31.69C117.196 29.8506 118.682 28.364 120.522 28.364C122.361 28.364 123.848 29.8506 123.848 31.69V40.0302Z" fill="#2EB67D"/>
<path d="M120.522 53.3593C122.361 53.3593 123.848 54.8459 123.848 56.6853C123.848 58.5246 122.361 60.0113 120.522 60.0113C118.682 60.0113 117.196 58.5246 117.196 56.6853V53.3593H120.522ZM120.522 51.6963C118.682 51.6963 117.196 50.2097 117.196 48.3703C117.196 46.5309 118.682 45.0443 120.522 45.0443H128.862C130.701 45.0443 132.188 46.5309 132.188 48.3703C132.188 50.2097 130.701 51.6963 128.862 51.6963H120.522Z" fill="#ECB22E"/>
<rect x="89.8389" y="17.7126" width="53" height="53" rx="26.5" stroke="black" stroke-width="3"/>
<rect x="133.839" y="17.7126" width="53" height="53" rx="26.5" fill="white"/>
<g clip-path="url(#clip0_1488_18164)">
<path d="M166.659 39.3755H174.925C175.706 39.3755 176.339 40.0085 176.339 40.7894V48.3184C176.339 51.1884 174.012 53.515 171.142 53.515H171.118C168.248 53.5154 165.921 51.1891 165.92 48.3191C165.92 48.3189 165.92 48.3186 165.92 48.3184V40.1145C165.92 39.7063 166.251 39.3755 166.659 39.3755Z" fill="#5059C9"/>
<path d="M172.246 37.887C174.095 37.887 175.595 36.3877 175.595 34.5382C175.595 32.6887 174.095 31.1893 172.246 31.1893C170.396 31.1893 168.897 32.6887 168.897 34.5382C168.897 36.3877 170.396 37.887 172.246 37.887Z" fill="#5059C9"/>
<path d="M161.827 37.8871C164.499 37.8871 166.664 35.7214 166.664 33.0499C166.664 30.3783 164.499 28.2126 161.827 28.2126C159.156 28.2126 156.99 30.3783 156.99 33.0499C156.99 35.7214 159.156 37.8871 161.827 37.8871Z" fill="#7B83EB"/>
<path d="M168.277 39.3755H154.633C153.862 39.3946 153.251 40.0349 153.269 40.8066V49.3937C153.161 54.0242 156.825 57.8668 161.455 57.9802C166.086 57.8668 169.749 54.0242 169.641 49.3937V40.8066C169.659 40.0349 169.049 39.3946 168.277 39.3755Z" fill="#7B83EB"/>
<path opacity="0.1" d="M162.199 39.3755V51.409C162.196 51.9608 161.861 52.4565 161.351 52.6666C161.188 52.7354 161.014 52.7708 160.837 52.7708H153.924C153.827 52.5253 153.738 52.2797 153.663 52.0267C153.403 51.1727 153.27 50.285 153.269 49.3922V40.8043C153.251 40.0339 153.861 39.3946 154.631 39.3755H162.199Z" fill="black"/>
<path opacity="0.2" d="M161.455 39.3755V52.1532C161.455 52.3296 161.42 52.5042 161.351 52.6666C161.141 53.1769 160.645 53.5113 160.093 53.515H154.274C154.147 53.2694 154.028 53.0239 153.924 52.7708C153.82 52.5178 153.738 52.2797 153.663 52.0267C153.403 51.1727 153.27 50.285 153.269 49.3922V40.8043C153.251 40.0339 153.861 39.3946 154.631 39.3755H161.455Z" fill="black"/>
<path opacity="0.2" d="M161.455 39.3755V50.6648C161.45 51.4146 160.843 52.021 160.093 52.0267H153.664C153.403 51.1727 153.27 50.285 153.269 49.3922V40.8043C153.251 40.0339 153.861 39.3946 154.631 39.3755H161.455Z" fill="black"/>
<path opacity="0.2" d="M160.711 39.3755V50.6648C160.705 51.4146 160.099 52.021 159.349 52.0267H153.664C153.403 51.1727 153.27 50.285 153.269 49.3922V40.8043C153.251 40.0339 153.861 39.3946 154.631 39.3755H160.711Z" fill="black"/>
<path opacity="0.1" d="M162.199 35.528V37.8722C162.073 37.8796 161.954 37.8871 161.827 37.8871C161.701 37.8871 161.582 37.8796 161.455 37.8722C161.204 37.8555 160.955 37.8156 160.711 37.7531C159.204 37.3962 157.959 36.3394 157.362 34.9103C157.259 34.6703 157.18 34.4212 157.124 34.1661H160.837C161.588 34.169 162.196 34.777 162.199 35.528Z" fill="black"/>
<path opacity="0.2" d="M161.455 36.2721V37.8721C161.204 37.8555 160.955 37.8156 160.711 37.7531C159.204 37.3962 157.959 36.3393 157.362 34.9103H160.093C160.844 34.9131 161.452 35.5212 161.455 36.2721Z" fill="black"/>
<path opacity="0.2" d="M161.455 36.2721V37.8721C161.204 37.8555 160.955 37.8156 160.711 37.7531C159.204 37.3962 157.959 36.3393 157.362 34.9103H160.093C160.844 34.9131 161.452 35.5212 161.455 36.2721Z" fill="black"/>
<path opacity="0.2" d="M160.711 36.2721V37.7531C159.204 37.3962 157.959 36.3393 157.362 34.9103H159.349C160.1 34.9131 160.708 35.5212 160.711 36.2721Z" fill="black"/>
<path d="M145.703 34.9103H159.347C160.1 34.9103 160.711 35.521 160.711 36.2744V49.9183C160.711 50.6716 160.1 51.2824 159.347 51.2824H145.703C144.95 51.2824 144.339 50.6716 144.339 49.9183V36.2744C144.339 35.521 144.95 34.9103 145.703 34.9103Z" fill="url(#paint1_linear_1488_18164)"/>
<path d="M156.115 40.1032H153.387V47.5302H151.65V40.1032H148.935V38.6625H156.115V40.1032Z" fill="white"/>
</g>
<rect x="133.839" y="17.7126" width="53" height="53" rx="26.5" stroke="black" stroke-width="3"/>
<rect x="177.839" y="17.7126" width="53" height="53" rx="26.5" fill="white"/>
<path fill-rule="evenodd" clip-rule="evenodd" d="M204.339 60.2126C213.175 60.2126 220.339 53.0492 220.339 44.2126C220.339 35.3761 213.175 28.2126 204.339 28.2126C195.502 28.2126 188.339 35.3761 188.339 44.2126C188.339 53.0492 195.502 60.2126 204.339 60.2126Z" fill="#0DBD8B"/>
<path d="M202.585 34.4984C201.938 34.4984 201.414 35.0219 201.414 35.6677C201.414 36.3135 201.938 36.8372 202.585 36.8372C205.677 36.8372 208.184 39.3385 208.184 42.4242C208.184 43.07 208.709 43.5936 209.356 43.5936C210.003 43.5936 210.528 43.07 210.528 42.4242C210.528 38.0469 206.972 34.4984 202.585 34.4984Z" fill="white"/>
<path d="M214.053 42.4242C214.053 41.7783 213.528 41.2548 212.881 41.2548C212.234 41.2548 211.709 41.7783 211.709 42.4242C211.709 45.5098 209.203 48.0112 206.111 48.0112C205.464 48.0112 204.939 48.5348 204.939 49.1806C204.939 49.8264 205.464 50.35 206.111 50.35C210.497 50.35 214.053 46.8015 214.053 42.4242Z" fill="white"/>
<path d="M207.283 52.7575C207.283 53.4033 206.758 53.9269 206.111 53.9269C201.724 53.9269 198.168 50.3784 198.168 46.001C198.168 45.3551 198.693 44.8316 199.34 44.8316C199.987 44.8316 200.512 45.3551 200.512 46.001C200.512 49.0867 203.019 51.5881 206.111 51.5881C206.758 51.5881 207.283 52.1116 207.283 52.7575Z" fill="white"/>
<path d="M194.625 46.001C194.625 46.6469 195.149 47.1704 195.796 47.1704C196.444 47.1704 196.968 46.6469 196.968 46.001C196.968 42.9154 199.475 40.414 202.567 40.414C203.214 40.414 203.739 39.8904 203.739 39.2446C203.739 38.5987 203.214 38.0752 202.567 38.0752C198.18 38.0752 194.625 41.6237 194.625 46.001Z" fill="white"/>
<rect x="177.839" y="17.7126" width="53" height="53" rx="26.5" stroke="black" stroke-width="3"/>
<rect x="221.839" y="17.7126" width="53" height="53" rx="26.5" fill="white"/>
<path d="M250.057 45.5326L250.057 54.7721C250.057 55.1178 249.923 55.4242 249.656 55.6913C249.389 55.9585 249.083 56.092 248.737 56.092C248.391 56.092 248.085 55.9585 247.818 55.6913C247.55 55.4242 247.417 55.1178 247.417 54.7721L247.417 45.5326L238.177 45.5326C237.832 45.5326 237.525 45.399 237.258 45.1319C236.991 44.8648 236.857 44.5583 236.857 44.2126C236.857 43.8669 236.991 43.5605 237.258 43.2934C237.525 43.0263 237.832 42.8927 238.177 42.8927L247.417 42.8927L247.417 33.6532C247.417 33.3075 247.55 33.0011 247.818 32.7339C248.085 32.4668 248.391 32.3333 248.737 32.3333C249.083 32.3333 249.389 32.4668 249.656 32.7339C249.923 33.0011 250.057 33.3075 250.057 33.6532L250.057 42.8927H259.296C259.642 42.8927 259.948 43.0263 260.216 43.2934C260.483 43.5605 260.616 43.867 260.616 44.2126C260.616 44.5583 260.483 44.8648 260.216 45.1319C259.948 45.399 259.642 45.5326 259.296 45.5326H250.057Z" fill="black"/>
<rect x="221.839" y="17.7126" width="53" height="53" rx="26.5" stroke="black" stroke-width="3"/>
<defs>
<linearGradient id="paint0_linear_1488_18164" x1="72.3389" y1="60.2126" x2="72.3389" y2="28.2126" gradientUnits="userSpaceOnUse">
<stop stop-color="#1D93D2"/>
<stop offset="1" stop-color="#38B0E3"/>
</linearGradient>
<linearGradient id="paint1_linear_1488_18164" x1="147.183" y1="33.8444" x2="157.867" y2="52.3482" gradientUnits="userSpaceOnUse">
<stop stop-color="#5A62C3"/>
<stop offset="0.5" stop-color="#4D55BD"/>
<stop offset="1" stop-color="#3940AB"/>
</linearGradient>
<clipPath id="clip0_1488_18164">
<rect width="32" height="29.7674" fill="white" transform="translate(144.339 28.2126)"/>
</clipPath>
</defs>
</svg>
