<svg xmlns="http://www.w3.org/2000/svg" width="24px" height="24px" viewBox="0 0 24 24" fill="currentColor"><path d="M23.495 6.206a3.009 3.009 0 0 0-2.088-2.088c-1.87-.501-9.396-.501-9.396-.501s-7.507-.01-9.396.501A3.005 3.005 0 0 0 .527 6.206a31.127 31.127 0 0 0-.522 5.805c-.006 1.94.169 3.876.522 5.783a3.009 3.009 0 0 0 2.088 2.088c1.868.502 9.396.502 9.396.502s7.506 0 9.396-.502a3.013 3.013 0 0 0 2.088-2.088c.346-1.908.513-3.844.5-5.783a31.292 31.292 0 0 0-.5-5.805ZM9.609 15.602V8.409l6.264 3.602-6.264 3.591Z"/></svg>