<?xml version="1.0" encoding="UTF-8"?>
<svg width="24px" height="18px" viewBox="0 0 24 18" version="1.1" xmlns="http://www.w3.org/2000/svg" xmlns:xlink="http://www.w3.org/1999/xlink">
    <!-- Generator: Sketch 55 (78076) - https://sketchapp.com -->
    <title>youtube</title>
    <desc>Created with Sketch.</desc>
    <g id="Page-1" stroke="none" stroke-width="1" fill="none" fill-rule="evenodd">
        <g id="Artboard-Copy-2" transform="translate(-3568.000000, -2476.000000)" fill="#999999" fill-rule="nonzero">
            <g id="Group-3" transform="translate(1953.000000, 243.000000)">
                <g id="Group-4" transform="translate(0.000000, 61.000000)">
                    <g id="Group-9" transform="translate(762.000000, 1999.000000)">
                        <g id="Stacked-Group-Copy" transform="translate(720.000000, 173.000000)">
                            <g id="youtube" transform="translate(133.000000, 0.000000)">
                                <path d="M23.495,3.205 C23.212191,2.19165677 22.4203432,1.39980902 21.407,1.117 C19.537,0.616 12.011,0.616 12.011,0.616 C12.011,0.616 4.504,0.606 2.615,1.117 C1.60165677,1.39980902 0.809809023,2.19165677 0.527,3.205 C0.172520594,5.11951056 -0.00223945169,7.06296279 0.005,9.01 C-0.000870868833,10.9496902 0.173883448,12.8857136 0.527,14.793 C0.809809023,15.8063432 1.60165677,16.598191 2.615,16.881 C4.483,17.383 12.011,17.383 12.011,17.383 C12.011,17.383 19.517,17.383 21.407,16.881 C22.4203432,16.598191 23.212191,15.8063432 23.495,14.793 C23.8407392,12.8850228 24.0081279,10.949005 23.995,9.01 C24.0094964,7.06365058 23.8421022,5.12020397 23.495,3.205 L23.495,3.205 Z M9.609,12.601 L9.609,5.408 L15.873,9.01 L9.609,12.601 Z" id="Shape"></path>
                            </g>
                        </g>
                    </g>
                </g>
            </g>
        </g>
    </g>
</svg>