<?xml version="1.0" encoding="UTF-8" standalone="no"?>
<!-- Created with Inkscape (http://www.inkscape.org/) -->

<svg
   xmlns:dc="http://purl.org/dc/elements/1.1/"
   xmlns:cc="http://creativecommons.org/ns#"
   xmlns:rdf="http://www.w3.org/1999/02/22-rdf-syntax-ns#"
   xmlns:svg="http://www.w3.org/2000/svg"
   xmlns="http://www.w3.org/2000/svg"
   xmlns:xlink="http://www.w3.org/1999/xlink"
   xmlns:sodipodi="http://sodipodi.sourceforge.net/DTD/sodipodi-0.dtd"
   xmlns:inkscape="http://www.inkscape.org/namespaces/inkscape"
   id="svg8"
   version="1.1"
   viewBox="0 0 66.165833 76.39119"
   height="76.39119mm"
   width="66.165833mm"
   inkscape:version="0.92.2 (5c3e80d, 2017-08-06)"
   sodipodi:docname="Hangouts icon.svg">
  <title
     id="title1096">Hangouts icon</title>
  <sodipodi:namedview
     inkscape:window-maximized="1"
     inkscape:window-y="-8"
     inkscape:window-x="1358"
     inkscape:window-height="1017"
     inkscape:window-width="1920"
     inkscape:snap-object-midpoints="false"
     inkscape:snap-center="false"
     showgrid="false"
     inkscape:current-layer="layer1"
     inkscape:document-units="mm"
     inkscape:cy="172.96502"
     inkscape:cx="313.60923"
     inkscape:zoom="1"
     inkscape:pageshadow="2"
     inkscape:pageopacity="0.0"
     borderopacity="1.0"
     bordercolor="#666666"
     pagecolor="#ffffff"
     id="base"
     fit-margin-top="0.01"
     fit-margin-left="0.01"
     fit-margin-right="0.01"
     fit-margin-bottom="0.01" />
  <defs
     id="defs2">
    <linearGradient
       inkscape:collect="always"
       id="linearGradient1053">
      <stop
         style="stop-color:#3aba7b;stop-opacity:1"
         offset="0"
         id="stop1049" />
      <stop
         style="stop-color:#077d41;stop-opacity:1"
         offset="1"
         id="stop1051" />
    </linearGradient>
    <linearGradient
       inkscape:collect="always"
       id="linearGradient1026">
      <stop
         style="stop-color:#000000;stop-opacity:0.348"
         offset="0"
         id="stop1022" />
      <stop
         style="stop-color:#1ba261;stop-opacity:0;"
         offset="1"
         id="stop1024" />
    </linearGradient>
    <inkscape:path-effect
       effect="spiro"
       id="path-effect834"
       is_visible="true" />
    <inkscape:path-effect
       is_visible="true"
       id="path-effect830"
       effect="spiro" />
    <linearGradient
       inkscape:collect="always"
       xlink:href="#linearGradient1026"
       id="linearGradient1030"
       gradientUnits="userSpaceOnUse"
       x1="-727.56104"
       y1="467.18359"
       x2="-561.09009"
       y2="633.65454"
       gradientTransform="matrix(0.2191384,0,0,0.2191384,-14.694878,32.234034)" />
    <linearGradient
       inkscape:collect="always"
       xlink:href="#linearGradient1053"
       id="linearGradient1055"
       x1="-522.8443"
       y1="367.0983"
       x2="-522.8443"
       y2="689.95544"
       gradientUnits="userSpaceOnUse"
       gradientTransform="matrix(0.2191384,0,0,0.2191384,-32.846556,32.234034)" />
    <filter
       inkscape:collect="always"
       style="color-interpolation-filters:sRGB"
       id="filter1075"
       x="-0.02581518"
       width="1.0516304"
       y="-0.022423318"
       height="1.0448467">
      <feGaussianBlur
         inkscape:collect="always"
         stdDeviation="3.1129687"
         id="feGaussianBlur1077" />
    </filter>
  </defs>
  <metadata
     id="metadata5">
    <rdf:RDF>
      <cc:Work
         rdf:about="">
        <dc:format>image/svg+xml</dc:format>
        <dc:type
           rdf:resource="http://purl.org/dc/dcmitype/StillImage" />
        <dc:title>Hangouts icon</dc:title>
        <dc:date>04/04/2018</dc:date>
        <dc:creator>
          <cc:Agent>
            <dc:title>Google Inc</dc:title>
          </cc:Agent>
        </dc:creator>
        <dc:publisher>
          <cc:Agent>
            <dc:title>CMetalCore</dc:title>
          </cc:Agent>
        </dc:publisher>
        <dc:source>https://commons.wikimedia.org/wiki/File:Hangouts_Icon.png</dc:source>
      </cc:Work>
    </rdf:RDF>
  </metadata>
  <g
     id="layer1"
     inkscape:groupmode="layer"
     inkscape:label="Capa 1"
     transform="translate(191.24475,-111.28883)">
    <g
       id="g889">
      <path
         inkscape:connector-curvature="0"
         id="path1057"
         d="m -571.85352,362.64844 a 144.70434,142.68404 0 0 0 -144.70507,142.68359 144.70434,142.68404 0 0 0 144.70507,142.68359 144.70434,142.68404 0 0 0 9.52149,-0.33203 144.70434,142.68404 0 0 1 -9.52149,0.33203 v 47.81836 a 255.22956,251.64121 0 0 0 132.80079,-133.95507 144.70434,142.68404 0 0 0 11.90234,-56.54688 144.70434,142.68404 0 0 0 -144.70313,-142.68359 z m 126.4336,211.98047 a 144.70434,142.68404 0 0 1 -0.35352,0.56836 144.70434,142.68404 0 0 0 0.35352,-0.56836 z m -7.63086,12.08007 a 144.70434,142.68404 0 0 1 -0.65625,0.85157 144.70434,142.68404 0 0 0 0.65625,-0.85157 z m -8.81641,11.27344 a 144.70434,142.68404 0 0 1 -0.97851,1.03516 144.70434,142.68404 0 0 0 0.97851,-1.03516 z m -9.90234,10.33985 a 144.70434,142.68404 0 0 1 -1.51367,1.31054 144.70434,142.68404 0 0 0 1.51367,-1.31054 z m -10.88477,9.30664 a 144.70434,142.68404 0 0 1 -2.2207,1.5664 144.70434,142.68404 0 0 0 2.2207,-1.5664 z m -11.77929,8.19921 a 144.70434,142.68404 0 0 1 -2.85352,1.61524 144.70434,142.68404 0 0 0 2.85352,-1.61524 z m -12.55274,7.00586 a 144.70434,142.68404 0 0 1 -3.60547,1.58985 144.70434,142.68404 0 0 0 3.60547,-1.58985 z m -13.16211,5.72266 a 144.70434,142.68404 0 0 1 -4.58594,1.50391 144.70434,142.68404 0 0 0 4.58594,-1.50391 z m -13.71094,4.41797 a 144.70434,142.68404 0 0 1 -5.31835,1.17578 144.70434,142.68404 0 0 0 5.31835,-1.17578 z m -14.0625,3.04492 a 144.70434,142.68404 0 0 1 -6.28515,0.75195 144.70434,142.68404 0 0 0 6.28515,-0.75195 z"
         style="opacity:0.68599997;fill:#000000;fill-opacity:1;stroke:none;stroke-width:4;stroke-linecap:round;stroke-linejoin:round;stroke-miterlimit:4;stroke-dasharray:none;stroke-dashoffset:0;stroke-opacity:1;paint-order:markers stroke fill;filter:url(#filter1075)"
         transform="matrix(0.21733443,0,0,0.2191384,-33.878159,33.548864)" />
      <path
         id="path870"
         d="m -158.16211,111.29883 c -17.72922,-9e-5 -32.11518,14.18296 -32.11523,31.67383 5e-5,17.35419 14.17276,31.41169 31.71093,31.63086 v 10.73242 L -158,185.08984 c 13.26305,-5.7682 23.76134,-16.35774 29.31055,-29.56445 1.73938,-3.96314 2.63882,-8.23402 2.64257,-12.55273 -5e-5,-17.49071 -14.38618,-31.67368 -32.11523,-31.67383 z"
         style="color:#000000;font-style:normal;font-variant:normal;font-weight:normal;font-stretch:normal;font-size:medium;line-height:normal;font-family:sans-serif;font-variant-ligatures:normal;font-variant-position:normal;font-variant-caps:normal;font-variant-numeric:normal;font-variant-alternates:normal;font-feature-settings:normal;text-indent:0;text-align:start;text-decoration:none;text-decoration-line:none;text-decoration-style:solid;text-decoration-color:#000000;letter-spacing:normal;word-spacing:normal;text-transform:none;writing-mode:lr-tb;direction:ltr;text-orientation:mixed;dominant-baseline:auto;baseline-shift:baseline;text-anchor:start;white-space:normal;shape-padding:0;clip-rule:nonzero;display:inline;overflow:visible;visibility:visible;opacity:1;isolation:auto;mix-blend-mode:normal;color-interpolation:sRGB;color-interpolation-filters:linearRGB;solid-color:#000000;solid-opacity:1;vector-effect:none;fill:url(#linearGradient1055);fill-opacity:1;fill-rule:nonzero;stroke:none;stroke-width:0.81099999;stroke-linecap:butt;stroke-linejoin:miter;stroke-miterlimit:4;stroke-dasharray:none;stroke-dashoffset:0;stroke-opacity:1;paint-order:markers stroke fill;color-rendering:auto;image-rendering:auto;shape-rendering:auto;text-rendering:auto;enable-background:accumulate" />
      <path
         sodipodi:nodetypes="cccccczcccc"
         inkscape:connector-curvature="0"
         id="path868"
         d="m -158.16211,112.10938 c 17.2962,1.4e-4 31.30355,13.81603 31.30469,30.86132 -0.004,4.2066 -0.87969,8.36953 -2.57422,12.23047 v 0.002 l -0.002,0.004 c -5.3856,12.82188 -15.5215,23.11838 -28.32227,28.85938 0,0 0,-8.56347 0,-9.43555 0,-0.87208 0.0769,-0.79689 -0.40627,-0.79689 -17.29704,9e-5 -31.30463,-13.81496 -31.30469,-30.86132 5e-5,-17.04637 14.00765,-30.86337 31.30469,-30.86328 z"
         style="color:#000000;font-style:normal;font-variant:normal;font-weight:normal;font-stretch:normal;font-size:medium;line-height:normal;font-family:sans-serif;font-variant-ligatures:normal;font-variant-position:normal;font-variant-caps:normal;font-variant-numeric:normal;font-variant-alternates:normal;font-feature-settings:normal;text-indent:0;text-align:start;text-decoration:none;text-decoration-line:none;text-decoration-style:solid;text-decoration-color:#000000;letter-spacing:normal;word-spacing:normal;text-transform:none;writing-mode:lr-tb;direction:ltr;text-orientation:mixed;dominant-baseline:auto;baseline-shift:baseline;text-anchor:start;white-space:normal;shape-padding:0;clip-rule:nonzero;display:inline;overflow:visible;visibility:visible;opacity:1;isolation:auto;mix-blend-mode:normal;color-interpolation:sRGB;color-interpolation-filters:linearRGB;solid-color:#000000;solid-opacity:1;vector-effect:none;fill:#18a15f;fill-opacity:1;fill-rule:nonzero;stroke:none;stroke-width:0.81099999;stroke-linecap:butt;stroke-linejoin:miter;stroke-miterlimit:4;stroke-dasharray:none;stroke-dashoffset:0;stroke-opacity:1;paint-order:markers stroke fill;color-rendering:auto;image-rendering:auto;shape-rendering:auto;text-rendering:auto;enable-background:accumulate" />
      <path
         id="path1028"
         d="m -160.46215,134.6119 v 13.66919 l -7.09503,-7.17336 -6.57415,7.17336 28.68701,28.68744 c 0.89902,-0.72088 1.77305,-1.46938 2.62282,-2.24232 a 55.930597,55.144252 0 0 0 1.66065,-1.57335 c 0.7247,-0.71594 1.42889,-1.45096 2.11221,-2.20465 a 55.930597,55.144252 0 0 0 1.73299,-2.00605 c 0.30097,-0.3656 0.59788,-0.73454 0.88939,-1.10768 l 0.036,0.0359 a 55.930597,55.144252 0 0 0 7.33044,-12.50715 31.710278,31.267552 0 0 0 1.82458,-5.58375 l -15.07518,-15.16763 v 13.66919 l -7.09503,-7.17336 -2.20679,2.40795 z"
         style="opacity:1;fill:url(#linearGradient1030);fill-opacity:1;stroke:none;stroke-width:0.25774848;stroke-linecap:round;stroke-linejoin:round;stroke-miterlimit:4;stroke-dasharray:none;stroke-dashoffset:0;stroke-opacity:1;paint-order:markers stroke fill"
         inkscape:connector-curvature="0" />
      <path
         id="path893"
         d="m -174.13143,134.6119 v 13.66918 h 7.55385 v 8.08244 a 7.4204148,8.2181093 0 0 0 6.11576,-8.08244 7.4204148,8.2181093 0 0 0 -4.3e-4,-0.0137 v -13.65549 z"
         style="opacity:1;fill:#ffffff;fill-opacity:1;stroke:none;stroke-width:0.25774848;stroke-linecap:round;stroke-linejoin:round;stroke-miterlimit:4;stroke-dasharray:none;stroke-dashoffset:0;stroke-opacity:1;paint-order:markers stroke fill"
         inkscape:connector-curvature="0" />
      <path
         style="opacity:1;fill:#ffffff;fill-opacity:1;stroke:none;stroke-width:0.25774848;stroke-linecap:round;stroke-linejoin:round;stroke-miterlimit:4;stroke-dasharray:none;stroke-dashoffset:0;stroke-opacity:1;paint-order:markers stroke fill"
         d="m -155.97965,134.6119 v 13.66919 h 7.55385 v 8.08244 a 7.420415,8.2181094 0 0 0 6.11576,-8.08244 7.420415,8.2181094 0 0 0 -4.4e-4,-0.0137 V 134.6119 Z"
         id="rect878"
         inkscape:connector-curvature="0" />
    </g>
  </g>
</svg>
