<svg width="16" height="16" viewBox="0 0 16 16" fill="none" version="1.1" xmlns="http://www.w3.org/2000/svg" xmlns:svg="http://www.w3.org/2000/svg"><path d="M 13.632767,13.632439 H 11.261771 V 9.9192471 c 0,-0.8854529 -0.01586,-2.0253019 -1.233201,-2.0253019 -1.2349072,0 -1.4238508,0.9647349 -1.4238508,1.9608358 v 3.77739 H 6.2337099 V 5.9963349 H 8.509874 V 7.0398585 H 8.541747 C 8.7695384,6.6503692 9.0986959,6.3299467 9.4941729,6.1127443 9.88965,5.8955285 10.336644,5.7896546 10.787544,5.8063911 c 2.403136,0 2.846156,1.5807352 2.846156,3.6371497 z M 3.5584279,4.9525579 C 3.2862947,4.9526111 3.0202429,4.8719555 2.7939454,4.7208059 2.5676479,4.5696431 2.3912668,4.3547746 2.2870865,4.1033789 2.1829061,3.8519699 2.1555942,3.5753159 2.2086446,3.3083837 2.2616815,3.0414651 2.3926805,2.7962705 2.585078,2.6038062 2.7774754,2.4113288 3.0226166,2.2802365 3.2895088,2.2270927 c 0.266892,-0.05313 0.543546,-0.025938 0.7949818,0.078162 0.2514356,0.1041 0.4663576,0.2804281 0.6175871,0.5066722 0.1512294,0.2262575 0.2319786,0.4922694 0.2320319,0.7644159 2.66e-5,0.1806886 -0.03554,0.3596169 -0.104647,0.5265694 C 4.7603425,4.2698647 4.6590293,4.4215742 4.5312843,4.5493725 4.4035395,4.6771575 4.2518698,4.7785373 4.0849438,4.8477241 3.9180181,4.9168977 3.7391165,4.9525178 3.5584279,4.9525579 Z M 4.7439258,13.632439 H 2.3704494 V 5.9963349 H 4.7439258 Z M 14.814731,-0.0012887 H 1.1790169 C 0.86952986,-0.00478272 0.57129828,0.11474725 0.34988173,0.3310295 0.12846531,0.54731165 0.00198727,0.84264934 -0.00178683,1.1521496 V 14.844941 c 0.00364373,0.309661 0.13005202,0.605185 0.35145519,0.821762 0.22140331,0.216441 0.51970147,0.336197 0.82934854,0.332863 H 14.814731 c 0.310327,0.0039 0.609451,-0.115489 0.831762,-0.331931 0.22231,-0.216576 0.349535,-0.512366 0.353802,-0.822694 V 1.1511628 C 15.995895,0.84104894 15.868536,0.54536457 15.646227,0.32909579 15.423917,0.11281354 15.124925,-0.00636976 14.814731,-0.0022756" fill="#0a66c2" style="stroke-width:1.3336" /><path d="m 11.261771,13.632439 h 2.370996 L 13.6337,9.4435546 c 0,-2.0564149 -0.44302,-3.6371501 -2.846156,-3.6371501 C 10.33663,5.7896684 9.8896364,5.8955421 9.4941593,6.1127577 9.098669,6.32996 8.7695112,6.6503826 8.5417202,7.0398719 H 8.5098474 V 5.9963483 H 6.2336833 V 13.632171 H 8.6047058 V 9.8547946 c 0,-0.9961011 0.1889436,-1.960836 1.4238372,-1.960836 1.217359,0 1.233228,1.139849 1.233228,2.0253022 z" fill="#ffffff" style="stroke-width:1.3336" /><path d="m 2.7939321,4.7208193 c 0.2262974,0.1511496 0.492336,0.2318052 0.764469,0.231752 0.1806887,-2.67e-5 0.3596036,-0.03566 0.5265162,-0.1048339 C 4.2518432,4.7785506 4.4035128,4.6771708 4.5312575,4.5493859 4.6590026,4.4215876 4.7603157,4.269878 4.8294358,4.1029254 4.8985561,3.9359729 4.9341096,3.7570447 4.934083,3.576356 4.9340295,3.3042096 4.8532805,3.0381976 4.702051,2.8119402 4.5508214,2.5856961 4.3358996,2.4093683 4.0844638,2.305268 3.833028,2.2011678 3.5563875,2.1739757 3.289482,2.2271195 3.02259,2.2802498 2.7774488,2.4113421 2.5850513,2.6038196 2.3926671,2.7962837 2.2616548,3.0414782 2.2086178,3.3083971 c -0.053037,0.266932 -0.025738,0.5435862 0.078442,0.7949952 0.1041937,0.2514091 0.2805747,0.4662642 0.5068723,0.617427 z" fill="#ffffff" style="stroke-width:1.3336" /><path d="M 2.3704226,13.632439 H 4.7438992 V 5.9963483 H 2.3704226 Z" fill="#ffffff" style="stroke-width:1.3336" /></svg>
