<?xml version="1.0" encoding="UTF-8" standalone="no"?>
<!-- Generator: Adobe Illustrator 15.0.0, SVG Export Plug-In . SVG Version: 6.00 Build 0)  -->

<svg
   xmlns:dc="http://purl.org/dc/elements/1.1/"
   xmlns:cc="http://creativecommons.org/ns#"
   xmlns:rdf="http://www.w3.org/1999/02/22-rdf-syntax-ns#"
   xmlns:svg="http://www.w3.org/2000/svg"
   xmlns="http://www.w3.org/2000/svg"
   xmlns:sodipodi="http://sodipodi.sourceforge.net/DTD/sodipodi-0.dtd"
   xmlns:inkscape="http://www.inkscape.org/namespaces/inkscape"
   version="1.1"
   id="Layer_1"
   x="0px"
   y="0px"
   width="289px"
   height="109px"
   viewBox="0 0 289 109"
   enable-background="new 0 0 289 109"
   xml:space="preserve"
   inkscape:version="0.48.5 r10040"
   sodipodi:docname="logo.svg"><metadata
     id="metadata23"><rdf:RDF><cc:Work
         rdf:about=""><dc:format>image/svg+xml</dc:format><dc:type
           rdf:resource="http://purl.org/dc/dcmitype/StillImage" /></cc:Work></rdf:RDF></metadata><defs
     id="defs21" /><sodipodi:namedview
     pagecolor="#ffffff"
     bordercolor="#666666"
     borderopacity="1"
     objecttolerance="10"
     gridtolerance="10"
     guidetolerance="10"
     inkscape:pageopacity="0"
     inkscape:pageshadow="2"
     inkscape:window-width="1278"
     inkscape:window-height="774"
     id="namedview19"
     showgrid="false"
     inkscape:zoom="1.2249135"
     inkscape:cx="113.6534"
     inkscape:cy="54.5"
     inkscape:window-x="0"
     inkscape:window-y="24"
     inkscape:window-maximized="0"
     inkscape:current-layer="Layer_1" /><g
     id="g3"
     style="stroke:none;stroke-opacity:1;fill:#414141;fill-opacity:1"><path
       d="m 120.434,35.367 49.389,0 0,13.332 -17.371,0 0,53.934 -14.646,0 0,-53.934 -17.373,0 0,-13.332 z"
       id="path5"
       style="fill:#414141;fill-opacity:1;stroke:none;stroke-opacity:1"
       inkscape:connector-curvature="0"
       sodipodi:nodetypes="cccccccccc" /></g><g
     id="g7"
     style="stroke:none;stroke-opacity:1;fill:#414141;fill-opacity:1"><path
       d="m 226.131,95.867 c -0.574,1.348 -1.363,2.524 -2.373,3.534 -1.012,1.011 -2.189,1.804 -3.535,2.374 -1.349,0.573 -2.795,0.857 -4.344,0.857 l -24.847,0 c -1.55,0 -2.997,-0.284 -4.343,-0.857 -1.348,-0.57 -2.525,-1.363 -3.535,-2.374 -1.01,-1.01 -1.803,-2.187 -2.373,-3.534 -0.573,-1.347 -0.857,-2.794 -0.857,-4.344 l 0,-45.045 c 0,-1.548 0.284,-2.996 0.857,-4.343 0.57,-1.346 1.363,-2.525 2.373,-3.535 1.01,-1.01 2.188,-1.8 3.535,-2.374 1.346,-0.571 2.793,-0.858 4.343,-0.858 l 24.847,0 c 1.549,0 2.995,0.287 4.344,0.858 1.346,0.573 2.523,1.364 3.535,2.374 1.01,1.01 1.799,2.189 2.373,3.535 0.57,1.348 0.857,2.795 0.857,4.343 l 0,45.045 c 0.001,1.55 -0.286,2.997 -0.857,4.344 z m -14.798,-47.168 -15.756,0 c -0.674,0 -1.011,0.338 -1.011,1.01 l 0,38.582 c 0,0.674 0.337,1.01 1.011,1.01 l 15.756,0 c 0.673,0 1.011,-0.336 1.011,-1.01 l 0,-38.582 c 0,-0.672 -0.338,-1.01 -1.011,-1.01 z"
       id="path9"
       style="fill:#414141;fill-opacity:1;stroke:none;stroke-opacity:1"
       inkscape:connector-curvature="0"
       sodipodi:nodetypes="cccsscccsscscsscccsccsssssssss" /></g><g
     id="g11"
     style="stroke:none;stroke-opacity:1;fill:#414141;fill-opacity:1"><path
       d="m 261.834,55.466 10.707,-20.099 15.352,0 -17.775,33.129 18.281,34.137 -15.354,0 -11.211,-21.108 -11.211,21.108 -15.352,0 18.281,-34.137 -17.775,-33.129 15.352,0 z"
       id="path13"
       style="fill:#414141;fill-opacity:1;stroke:none;stroke-opacity:1"
       inkscape:connector-curvature="0"
       sodipodi:nodetypes="ccccccccccccc" /></g><g
     id="g15"
     style="stroke:none;stroke-opacity:1;fill:#414141;fill-opacity:1"><path
       d="M71.574,41.851c0-4.685,0.074-10.553-0.033-15.237c-0.047-2.018-0.268-4.076-0.746-6.034   C67.374,6.581,53.823-2.125,39.594,0.45C26.998,2.729,17.621,13.968,17.621,26.786v13.865v1.17c-0.475,0-0.794-0.001-1.116,0H5.023   C2.25,41.821,0,44.07,0,46.844v56.875c0,2.773,2.25,5.023,5.023,5.023h79.451c2.775,0,5.024-2.25,5.024-5.023V46.844   c0-2.774-2.249-5.023-5.024-5.023L71.574,41.851z M52.107,95.118H37.332c-2.322,0-4.203-1.914-4.203-4.274   c0-0.063,0.007-0.127,0.009-0.19c-0.005,0-0.006-1.021-0.008-2.041c-0.001-1.129,0.511-4.289,2.061-6.574   c1.641-2.418,3.855-3.99,6.257-4.697c-3.166-1.291-5.396-4.398-5.396-8.025c0-4.789,3.88-8.668,8.667-8.668   c4.789,0,8.667,3.879,8.667,8.668c0,3.719-2.344,6.891-5.637,8.12c2.332,0.753,4.537,2.313,6.273,4.707   c1.621,2.235,2.285,5.343,2.285,6.47v2.043c-0.006,0.062,0,0.125,0,0.189C56.308,93.204,54.427,95.118,52.107,95.118    M61.779,33.104c-1.562,4.611-4.52,8.305-7.61,11.912c-2.386,2.783-5.19,5.125-8.176,7.247c-0.144,0.103-0.298,0.188-0.685,0.427   c1.781-3.076,3.217-5.998,3.633-9.404c-4.234,1.002-8.227,0.564-12.093-1.14c-6.862-3.023-10.963-9.618-10.263-17.063   c0.573-6.127,3.94-10.543,9.321-13.395c8.667-4.593,19.734-1.655,24.689,6.516C63.482,22.962,63.527,27.945,61.779,33.104"
       id="path17"
       style="fill:#414141;fill-opacity:1;stroke:none;stroke-opacity:1;stroke-width:1;stroke-miterlimit:4;stroke-dasharray:none" /></g></svg>