<svg width="360" height="270" viewBox="0 0 360 270" fill="none" xmlns="http://www.w3.org/2000/svg">
<g clip-path="url(#clip0_968_14752)">
<rect y="0.0447998" width="360" height="269" rx="24" fill="white"/>
<rect width="360" height="77" transform="translate(0 0.0447998)" fill="#DBDBDB"/>
<path d="M30.0781 38.1568H32.3821L31.9741 41.1328H29.6461L30.0781 38.1568ZM27.0301 43.2928L26.3581 48.0448H28.6861L29.3581 43.2928H31.6621L31.0141 48.0448H33.3421L33.9901 43.2928H36.0781V41.1328H34.3021L34.7101 38.1568H36.7981V35.9968H35.0221L35.6701 31.2448H33.3421L32.6941 35.9968H30.3661L31.0381 31.2448H28.7101L28.0381 35.9968H25.7581V38.1568H27.7501L27.3181 41.1328H25.0381V43.2928H27.0301ZM44.662 45.1168C44.134 45.1168 43.694 45.0048 43.342 44.7808C42.99 44.5568 42.702 44.2688 42.478 43.9168C42.27 43.5648 42.118 43.1728 42.022 42.7408C41.942 42.2928 41.902 41.8448 41.902 41.3968C41.902 40.9328 41.95 40.4928 42.046 40.0768C42.158 39.6448 42.326 39.2688 42.55 38.9488C42.79 38.6128 43.078 38.3488 43.414 38.1568C43.766 37.9648 44.182 37.8688 44.662 37.8688C45.222 37.8688 45.686 37.9728 46.054 38.1808C46.422 38.3888 46.718 38.6688 46.942 39.0208C47.166 39.3728 47.326 39.7808 47.422 40.2448C47.518 40.6928 47.566 41.1728 47.566 41.6848C47.566 42.1328 47.502 42.5648 47.374 42.9808C47.262 43.3808 47.086 43.7408 46.846 44.0608C46.606 44.3808 46.302 44.6368 45.934 44.8288C45.566 45.0208 45.142 45.1168 44.662 45.1168ZM50.806 47.2528V35.6368H47.566V37.2928H47.518C47.102 36.5728 46.582 36.0608 45.958 35.7568C45.35 35.4528 44.638 35.3008 43.822 35.3008C42.958 35.3008 42.19 35.4688 41.518 35.8048C40.862 36.1408 40.31 36.5968 39.862 37.1728C39.414 37.7328 39.07 38.3888 38.83 39.1408C38.606 39.8768 38.494 40.6448 38.494 41.4448C38.494 42.2928 38.59 43.1008 38.782 43.8688C38.99 44.6208 39.31 45.2848 39.742 45.8608C40.174 46.4208 40.726 46.8688 41.398 47.2048C42.07 47.5248 42.87 47.6848 43.798 47.6848C44.55 47.6848 45.262 47.5328 45.934 47.2288C46.622 46.9088 47.15 46.4208 47.518 45.7648H47.566V47.3968C47.582 48.2768 47.366 49.0048 46.918 49.5808C46.486 50.1568 45.79 50.4448 44.83 50.4448C44.222 50.4448 43.686 50.3168 43.222 50.0608C42.758 49.8208 42.446 49.3808 42.286 48.7408H38.902C38.95 49.4448 39.142 50.0448 39.478 50.5408C39.83 51.0528 40.262 51.4688 40.774 51.7888C41.302 52.1088 41.878 52.3408 42.502 52.4848C43.142 52.6448 43.766 52.7248 44.374 52.7248C45.798 52.7248 46.934 52.5328 47.782 52.1488C48.63 51.7648 49.278 51.2928 49.726 50.7328C50.174 50.1888 50.462 49.5968 50.59 48.9568C50.734 48.3168 50.806 47.7488 50.806 47.2528ZM56.5739 41.8528C56.5739 41.3568 56.6219 40.8688 56.7179 40.3888C56.8139 39.9088 56.9739 39.4848 57.1979 39.1168C57.4379 38.7488 57.7499 38.4528 58.1339 38.2288C58.5179 37.9888 58.9979 37.8688 59.5739 37.8688C60.1499 37.8688 60.6299 37.9888 61.0139 38.2288C61.4139 38.4528 61.7259 38.7488 61.9499 39.1168C62.1899 39.4848 62.3579 39.9088 62.4539 40.3888C62.5499 40.8688 62.5979 41.3568 62.5979 41.8528C62.5979 42.3488 62.5499 42.8368 62.4539 43.3168C62.3579 43.7808 62.1899 44.2048 61.9499 44.5888C61.7259 44.9568 61.4139 45.2528 61.0139 45.4768C60.6299 45.7008 60.1499 45.8128 59.5739 45.8128C58.9979 45.8128 58.5179 45.7008 58.1339 45.4768C57.7499 45.2528 57.4379 44.9568 57.1979 44.5888C56.9739 44.2048 56.8139 43.7808 56.7179 43.3168C56.6219 42.8368 56.5739 42.3488 56.5739 41.8528ZM53.1659 41.8528C53.1659 42.8448 53.3179 43.7408 53.6219 44.5408C53.9259 45.3408 54.3579 46.0288 54.9179 46.6048C55.4779 47.1648 56.1499 47.5968 56.9339 47.9008C57.7179 48.2048 58.5979 48.3568 59.5739 48.3568C60.5499 48.3568 61.4299 48.2048 62.2139 47.9008C63.0139 47.5968 63.6939 47.1648 64.2539 46.6048C64.8139 46.0288 65.2459 45.3408 65.5499 44.5408C65.8539 43.7408 66.0059 42.8448 66.0059 41.8528C66.0059 40.8608 65.8539 39.9648 65.5499 39.1648C65.2459 38.3488 64.8139 37.6608 64.2539 37.1008C63.6939 36.5248 63.0139 36.0848 62.2139 35.7808C61.4299 35.4608 60.5499 35.3008 59.5739 35.3008C58.5979 35.3008 57.7179 35.4608 56.9339 35.7808C56.1499 36.0848 55.4779 36.5248 54.9179 37.1008C54.3579 37.6608 53.9259 38.3488 53.6219 39.1648C53.3179 39.9648 53.1659 40.8608 53.1659 41.8528ZM71.2458 41.8528C71.2458 41.3568 71.2938 40.8688 71.3898 40.3888C71.4858 39.9088 71.6458 39.4848 71.8698 39.1168C72.1098 38.7488 72.4218 38.4528 72.8058 38.2288C73.1898 37.9888 73.6698 37.8688 74.2458 37.8688C74.8218 37.8688 75.3018 37.9888 75.6858 38.2288C76.0858 38.4528 76.3978 38.7488 76.6218 39.1168C76.8618 39.4848 77.0298 39.9088 77.1258 40.3888C77.2218 40.8688 77.2698 41.3568 77.2698 41.8528C77.2698 42.3488 77.2218 42.8368 77.1258 43.3168C77.0298 43.7808 76.8618 44.2048 76.6218 44.5888C76.3978 44.9568 76.0858 45.2528 75.6858 45.4768C75.3018 45.7008 74.8218 45.8128 74.2458 45.8128C73.6698 45.8128 73.1898 45.7008 72.8058 45.4768C72.4218 45.2528 72.1098 44.9568 71.8698 44.5888C71.6458 44.2048 71.4858 43.7808 71.3898 43.3168C71.2938 42.8368 71.2458 42.3488 71.2458 41.8528ZM67.8378 41.8528C67.8378 42.8448 67.9898 43.7408 68.2938 44.5408C68.5978 45.3408 69.0298 46.0288 69.5898 46.6048C70.1498 47.1648 70.8218 47.5968 71.6058 47.9008C72.3898 48.2048 73.2698 48.3568 74.2458 48.3568C75.2218 48.3568 76.1018 48.2048 76.8858 47.9008C77.6858 47.5968 78.3658 47.1648 78.9258 46.6048C79.4858 46.0288 79.9178 45.3408 80.2218 44.5408C80.5258 43.7408 80.6778 42.8448 80.6778 41.8528C80.6778 40.8608 80.5258 39.9648 80.2218 39.1648C79.9178 38.3488 79.4858 37.6608 78.9258 37.1008C78.3658 36.5248 77.6858 36.0848 76.8858 35.7808C76.1018 35.4608 75.2218 35.3008 74.2458 35.3008C73.2698 35.3008 72.3898 35.4608 71.6058 35.7808C70.8218 36.0848 70.1498 36.5248 69.5898 37.1008C69.0298 37.6608 68.5978 38.3488 68.2938 39.1648C67.9898 39.9648 67.8378 40.8608 67.8378 41.8528ZM91.7017 41.8048C91.7017 42.3168 91.6537 42.8128 91.5577 43.2928C91.4617 43.7728 91.3017 44.2048 91.0777 44.5888C90.8537 44.9568 90.5497 45.2528 90.1657 45.4768C89.7977 45.7008 89.3337 45.8128 88.7737 45.8128C88.2457 45.8128 87.7897 45.7008 87.4057 45.4768C87.0377 45.2368 86.7257 44.9328 86.4697 44.5648C86.2297 44.1808 86.0537 43.7488 85.9417 43.2688C85.8297 42.7888 85.7737 42.3088 85.7737 41.8288C85.7737 41.3168 85.8217 40.8288 85.9177 40.3648C86.0297 39.8848 86.1977 39.4608 86.4217 39.0928C86.6617 38.7248 86.9737 38.4288 87.3577 38.2048C87.7417 37.9808 88.2137 37.8688 88.7737 37.8688C89.3337 37.8688 89.7977 37.9808 90.1657 38.2048C90.5337 38.4288 90.8297 38.7248 91.0537 39.0928C91.2937 39.4448 91.4617 39.8608 91.5577 40.3408C91.6537 40.8048 91.7017 41.2928 91.7017 41.8048ZM91.7497 46.4608V48.0448H94.9897V30.9088H91.5817V37.1488H91.5337C91.1497 36.5408 90.6217 36.0848 89.9497 35.7808C89.2937 35.4608 88.5977 35.3008 87.8617 35.3008C86.9497 35.3008 86.1497 35.4848 85.4617 35.8528C84.7737 36.2048 84.1977 36.6768 83.7337 37.2688C83.2857 37.8608 82.9417 38.5488 82.7017 39.3328C82.4777 40.1008 82.3657 40.9008 82.3657 41.7328C82.3657 42.5968 82.4777 43.4288 82.7017 44.2288C82.9417 45.0288 83.2857 45.7408 83.7337 46.3648C84.1977 46.9728 84.7817 47.4608 85.4857 47.8288C86.1897 48.1808 87.0057 48.3568 87.9337 48.3568C88.7497 48.3568 89.4777 48.2128 90.1177 47.9248C90.7737 47.6208 91.3017 47.1328 91.7017 46.4608H91.7497ZM98.3095 37.9168V48.0448H101.718V37.9168H104.07V35.6368H101.718V34.8928C101.718 34.3808 101.814 34.0208 102.006 33.8128C102.214 33.5888 102.55 33.4768 103.014 33.4768C103.446 33.4768 103.862 33.5008 104.262 33.5488V31.0048C103.974 30.9888 103.678 30.9728 103.374 30.9568C103.07 30.9248 102.766 30.9088 102.462 30.9088C101.07 30.9088 100.03 31.2608 99.3415 31.9648C98.6535 32.6688 98.3095 33.5728 98.3095 34.6768V35.6368H96.2695V37.9168H98.3095ZM105.558 35.6368V48.0448H108.966V42.4528C108.966 41.8928 109.022 41.3728 109.134 40.8928C109.246 40.4128 109.43 39.9968 109.686 39.6448C109.958 39.2768 110.31 38.9888 110.742 38.7808C111.174 38.5728 111.702 38.4688 112.326 38.4688C112.534 38.4688 112.75 38.4848 112.974 38.5168C113.198 38.5328 113.39 38.5568 113.55 38.5888V35.4208C113.278 35.3408 113.03 35.3008 112.806 35.3008C112.374 35.3008 111.958 35.3648 111.558 35.4928C111.158 35.6208 110.782 35.8048 110.43 36.0448C110.078 36.2688 109.766 36.5488 109.494 36.8848C109.222 37.2048 109.006 37.5568 108.846 37.9408H108.798V35.6368H105.558ZM118.39 33.7168V30.9088H114.982V33.7168H118.39ZM114.982 35.6368V48.0448H118.39V35.6368H114.982ZM129.425 40.5088H123.881C123.897 40.2688 123.945 39.9968 124.025 39.6928C124.121 39.3888 124.273 39.1008 124.481 38.8288C124.705 38.5568 124.993 38.3328 125.345 38.1568C125.713 37.9648 126.169 37.8688 126.713 37.8688C127.545 37.8688 128.161 38.0928 128.561 38.5408C128.977 38.9888 129.265 39.6448 129.425 40.5088ZM123.881 42.6688H132.833C132.897 41.7088 132.817 40.7888 132.593 39.9088C132.369 39.0288 132.001 38.2448 131.489 37.5568C130.993 36.8688 130.353 36.3248 129.569 35.9248C128.785 35.5088 127.865 35.3008 126.809 35.3008C125.865 35.3008 125.001 35.4688 124.217 35.8048C123.449 36.1408 122.785 36.6048 122.225 37.1968C121.665 37.7728 121.233 38.4608 120.929 39.2608C120.625 40.0608 120.473 40.9248 120.473 41.8528C120.473 42.8128 120.617 43.6928 120.905 44.4928C121.209 45.2928 121.633 45.9808 122.177 46.5568C122.721 47.1328 123.385 47.5808 124.169 47.9008C124.953 48.2048 125.833 48.3568 126.809 48.3568C128.217 48.3568 129.417 48.0368 130.409 47.3968C131.401 46.7568 132.137 45.6928 132.617 44.2048H129.617C129.505 44.5888 129.201 44.9568 128.705 45.3088C128.209 45.6448 127.617 45.8128 126.929 45.8128C125.969 45.8128 125.233 45.5648 124.721 45.0688C124.209 44.5728 123.929 43.7728 123.881 42.6688ZM134.855 35.6368V48.0448H138.263V41.5408C138.263 40.2768 138.471 39.3728 138.887 38.8288C139.303 38.2688 139.975 37.9888 140.903 37.9888C141.719 37.9888 142.287 38.2448 142.607 38.7568C142.927 39.2528 143.087 40.0128 143.087 41.0368V48.0448H146.495V40.4128C146.495 39.6448 146.423 38.9488 146.279 38.3248C146.151 37.6848 145.919 37.1488 145.583 36.7168C145.247 36.2688 144.783 35.9248 144.191 35.6848C143.615 35.4288 142.871 35.3008 141.959 35.3008C141.239 35.3008 140.535 35.4688 139.847 35.8048C139.159 36.1248 138.599 36.6448 138.167 37.3648H138.095V35.6368H134.855ZM157.889 41.8048C157.889 42.3168 157.841 42.8128 157.745 43.2928C157.649 43.7728 157.489 44.2048 157.265 44.5888C157.041 44.9568 156.737 45.2528 156.353 45.4768C155.985 45.7008 155.521 45.8128 154.961 45.8128C154.433 45.8128 153.977 45.7008 153.593 45.4768C153.225 45.2368 152.913 44.9328 152.657 44.5648C152.417 44.1808 152.241 43.7488 152.129 43.2688C152.017 42.7888 151.961 42.3088 151.961 41.8288C151.961 41.3168 152.009 40.8288 152.105 40.3648C152.217 39.8848 152.385 39.4608 152.609 39.0928C152.849 38.7248 153.161 38.4288 153.545 38.2048C153.929 37.9808 154.401 37.8688 154.961 37.8688C155.521 37.8688 155.985 37.9808 156.353 38.2048C156.721 38.4288 157.017 38.7248 157.241 39.0928C157.481 39.4448 157.649 39.8608 157.745 40.3408C157.841 40.8048 157.889 41.2928 157.889 41.8048ZM157.937 46.4608V48.0448H161.177V30.9088H157.769V37.1488H157.721C157.337 36.5408 156.809 36.0848 156.137 35.7808C155.481 35.4608 154.785 35.3008 154.049 35.3008C153.137 35.3008 152.337 35.4848 151.649 35.8528C150.961 36.2048 150.385 36.6768 149.921 37.2688C149.473 37.8608 149.129 38.5488 148.889 39.3328C148.665 40.1008 148.553 40.9008 148.553 41.7328C148.553 42.5968 148.665 43.4288 148.889 44.2288C149.129 45.0288 149.473 45.7408 149.921 46.3648C150.385 46.9728 150.969 47.4608 151.673 47.8288C152.377 48.1808 153.193 48.3568 154.121 48.3568C154.937 48.3568 155.665 48.2128 156.305 47.9248C156.961 47.6208 157.489 47.1328 157.889 46.4608H157.937ZM166.393 44.0128H163.153C163.185 44.8448 163.369 45.5408 163.705 46.1008C164.057 46.6448 164.497 47.0848 165.025 47.4208C165.569 47.7568 166.185 47.9968 166.873 48.1408C167.561 48.2848 168.265 48.3568 168.985 48.3568C169.689 48.3568 170.377 48.2848 171.049 48.1408C171.737 48.0128 172.345 47.7808 172.873 47.4448C173.401 47.1088 173.825 46.6688 174.145 46.1248C174.481 45.5648 174.649 44.8768 174.649 44.0608C174.649 43.4848 174.537 43.0048 174.313 42.6208C174.089 42.2208 173.793 41.8928 173.425 41.6368C173.057 41.3648 172.633 41.1488 172.153 40.9888C171.689 40.8288 171.209 40.6928 170.713 40.5808C170.233 40.4688 169.761 40.3648 169.297 40.2688C168.833 40.1728 168.417 40.0688 168.049 39.9568C167.697 39.8288 167.409 39.6688 167.185 39.4768C166.961 39.2848 166.849 39.0368 166.849 38.7328C166.849 38.4768 166.913 38.2768 167.041 38.1328C167.169 37.9728 167.321 37.8528 167.497 37.7728C167.689 37.6928 167.897 37.6448 168.121 37.6288C168.345 37.5968 168.553 37.5808 168.745 37.5808C169.353 37.5808 169.881 37.7008 170.329 37.9408C170.777 38.1648 171.025 38.6048 171.073 39.2608H174.313C174.249 38.4928 174.049 37.8608 173.713 37.3648C173.393 36.8528 172.985 36.4448 172.489 36.1408C171.993 35.8368 171.425 35.6208 170.785 35.4928C170.161 35.3648 169.513 35.3008 168.841 35.3008C168.169 35.3008 167.513 35.3648 166.873 35.4928C166.233 35.6048 165.657 35.8128 165.145 36.1168C164.633 36.4048 164.217 36.8048 163.897 37.3168C163.593 37.8288 163.441 38.4848 163.441 39.2848C163.441 39.8288 163.553 40.2928 163.777 40.6768C164.001 41.0448 164.297 41.3568 164.665 41.6128C165.033 41.8528 165.449 42.0528 165.913 42.2128C166.393 42.3568 166.881 42.4848 167.377 42.5968C168.593 42.8528 169.537 43.1088 170.209 43.3648C170.897 43.6208 171.241 44.0048 171.241 44.5168C171.241 44.8208 171.169 45.0768 171.025 45.2848C170.881 45.4768 170.697 45.6368 170.473 45.7648C170.265 45.8768 170.025 45.9648 169.753 46.0288C169.497 46.0768 169.249 46.1008 169.009 46.1008C168.673 46.1008 168.345 46.0608 168.025 45.9808C167.721 45.9008 167.449 45.7808 167.209 45.6208C166.969 45.4448 166.769 45.2288 166.609 44.9728C166.465 44.7008 166.393 44.3808 166.393 44.0128ZM180.58 39.5488V35.8528H176.812V39.5488H180.58ZM176.812 44.3488V48.0448H180.58V44.3488H176.812ZM191.675 40.5088H186.131C186.147 40.2688 186.195 39.9968 186.275 39.6928C186.371 39.3888 186.523 39.1008 186.731 38.8288C186.955 38.5568 187.243 38.3328 187.595 38.1568C187.963 37.9648 188.419 37.8688 188.963 37.8688C189.795 37.8688 190.411 38.0928 190.811 38.5408C191.227 38.9888 191.515 39.6448 191.675 40.5088ZM186.131 42.6688H195.083C195.147 41.7088 195.067 40.7888 194.843 39.9088C194.619 39.0288 194.251 38.2448 193.739 37.5568C193.243 36.8688 192.603 36.3248 191.819 35.9248C191.035 35.5088 190.115 35.3008 189.059 35.3008C188.115 35.3008 187.251 35.4688 186.467 35.8048C185.699 36.1408 185.035 36.6048 184.475 37.1968C183.915 37.7728 183.483 38.4608 183.179 39.2608C182.875 40.0608 182.723 40.9248 182.723 41.8528C182.723 42.8128 182.867 43.6928 183.155 44.4928C183.459 45.2928 183.883 45.9808 184.427 46.5568C184.971 47.1328 185.635 47.5808 186.419 47.9008C187.203 48.2048 188.083 48.3568 189.059 48.3568C190.467 48.3568 191.667 48.0368 192.659 47.3968C193.651 46.7568 194.387 45.6928 194.867 44.2048H191.867C191.755 44.5888 191.451 44.9568 190.955 45.3088C190.459 45.6448 189.867 45.8128 189.179 45.8128C188.219 45.8128 187.483 45.5648 186.971 45.0688C186.459 44.5728 186.179 43.7728 186.131 42.6688ZM200.273 41.5168L195.809 48.0448H199.625L202.217 44.1328L204.809 48.0448H208.697L204.113 41.4448L208.193 35.6368H204.425L202.265 38.8768L200.081 35.6368H196.193L200.273 41.5168ZM209.851 39.4528C209.899 38.6528 210.099 37.9888 210.451 37.4608C210.803 36.9328 211.251 36.5088 211.795 36.1888C212.339 35.8688 212.947 35.6448 213.619 35.5168C214.307 35.3728 214.995 35.3008 215.683 35.3008C216.307 35.3008 216.939 35.3488 217.579 35.4448C218.219 35.5248 218.803 35.6928 219.331 35.9488C219.859 36.2048 220.291 36.5648 220.627 37.0288C220.963 37.4768 221.131 38.0768 221.131 38.8288V45.2848C221.131 45.8448 221.163 46.3808 221.227 46.8928C221.291 47.4048 221.403 47.7888 221.563 48.0448H218.107C218.043 47.8528 217.987 47.6608 217.939 47.4688C217.907 47.2608 217.883 47.0528 217.867 46.8448C217.323 47.4048 216.683 47.7968 215.947 48.0208C215.211 48.2448 214.459 48.3568 213.691 48.3568C213.099 48.3568 212.547 48.2848 212.035 48.1408C211.523 47.9968 211.075 47.7728 210.691 47.4688C210.307 47.1648 210.003 46.7808 209.779 46.3168C209.571 45.8528 209.467 45.3008 209.467 44.6608C209.467 43.9568 209.587 43.3808 209.827 42.9328C210.083 42.4688 210.403 42.1008 210.787 41.8288C211.187 41.5568 211.635 41.3568 212.131 41.2288C212.643 41.0848 213.155 40.9728 213.667 40.8928C214.179 40.8128 214.683 40.7488 215.179 40.7008C215.675 40.6528 216.115 40.5808 216.499 40.4848C216.883 40.3888 217.187 40.2528 217.411 40.0768C217.635 39.8848 217.739 39.6128 217.723 39.2608C217.723 38.8928 217.659 38.6048 217.531 38.3968C217.419 38.1728 217.259 38.0048 217.051 37.8928C216.859 37.7648 216.627 37.6848 216.355 37.6528C216.099 37.6048 215.819 37.5808 215.515 37.5808C214.843 37.5808 214.315 37.7248 213.931 38.0128C213.547 38.3008 213.323 38.7808 213.259 39.4528H209.851ZM217.723 41.9728C217.579 42.1008 217.395 42.2048 217.171 42.2848C216.963 42.3488 216.731 42.4048 216.475 42.4528C216.235 42.5008 215.979 42.5408 215.707 42.5728C215.435 42.6048 215.163 42.6448 214.891 42.6928C214.635 42.7408 214.379 42.8048 214.123 42.8848C213.883 42.9648 213.667 43.0768 213.475 43.2208C213.299 43.3488 213.155 43.5168 213.043 43.7248C212.931 43.9328 212.875 44.1968 212.875 44.5168C212.875 44.8208 212.931 45.0768 213.043 45.2848C213.155 45.4928 213.307 45.6608 213.499 45.7888C213.691 45.9008 213.915 45.9808 214.171 46.0288C214.427 46.0768 214.691 46.1008 214.963 46.1008C215.635 46.1008 216.155 45.9888 216.523 45.7648C216.891 45.5408 217.163 45.2768 217.339 44.9728C217.515 44.6528 217.619 44.3328 217.651 44.0128C217.699 43.6928 217.723 43.4368 217.723 43.2448V41.9728ZM223.872 35.6368V48.0448H227.28V40.8448C227.28 40.2368 227.368 39.7488 227.544 39.3808C227.72 38.9968 227.928 38.7088 228.168 38.5168C228.424 38.3088 228.68 38.1728 228.936 38.1088C229.208 38.0288 229.424 37.9888 229.584 37.9888C230.128 37.9888 230.536 38.0848 230.808 38.2768C231.096 38.4528 231.296 38.6928 231.408 38.9968C231.536 39.3008 231.608 39.6368 231.624 40.0048C231.64 40.3568 231.648 40.7168 231.648 41.0848V48.0448H235.056V41.1328C235.056 40.7488 235.08 40.3728 235.128 40.0048C235.192 39.6208 235.304 39.2848 235.464 38.9968C235.64 38.6928 235.872 38.4528 236.16 38.2768C236.464 38.0848 236.856 37.9888 237.336 37.9888C237.816 37.9888 238.192 38.0688 238.464 38.2288C238.752 38.3888 238.968 38.6048 239.112 38.8768C239.256 39.1488 239.344 39.4688 239.376 39.8368C239.408 40.2048 239.424 40.5968 239.424 41.0128V48.0448H242.832V39.7408C242.832 38.9408 242.72 38.2608 242.496 37.7008C242.272 37.1248 241.96 36.6608 241.56 36.3088C241.16 35.9568 240.68 35.7008 240.12 35.5408C239.56 35.3808 238.952 35.3008 238.296 35.3008C237.432 35.3008 236.68 35.5088 236.04 35.9248C235.416 36.3408 234.92 36.8208 234.552 37.3648C234.216 36.5968 233.72 36.0608 233.064 35.7568C232.424 35.4528 231.712 35.3008 230.928 35.3008C230.112 35.3008 229.384 35.4768 228.744 35.8288C228.12 36.1808 227.584 36.6768 227.136 37.3168H227.088V35.6368H223.872ZM251.79 45.8128C251.246 45.8128 250.782 45.7008 250.398 45.4768C250.014 45.2528 249.702 44.9648 249.462 44.6128C249.238 44.2448 249.07 43.8208 248.958 43.3408C248.862 42.8608 248.814 42.3728 248.814 41.8768C248.814 41.3648 248.862 40.8688 248.958 40.3888C249.054 39.9088 249.214 39.4848 249.438 39.1168C249.678 38.7488 249.982 38.4528 250.35 38.2288C250.734 37.9888 251.206 37.8688 251.766 37.8688C252.31 37.8688 252.766 37.9888 253.134 38.2288C253.518 38.4528 253.83 38.7568 254.07 39.1408C254.31 39.5088 254.478 39.9328 254.574 40.4128C254.686 40.8928 254.742 41.3808 254.742 41.8768C254.742 42.3728 254.694 42.8608 254.598 43.3408C254.502 43.8208 254.334 44.2448 254.094 44.6128C253.87 44.9648 253.566 45.2528 253.182 45.4768C252.814 45.7008 252.35 45.8128 251.79 45.8128ZM245.526 35.6368V52.3888H248.934V46.5088H248.982C249.398 47.1168 249.926 47.5808 250.566 47.9008C251.222 48.2048 251.934 48.3568 252.702 48.3568C253.614 48.3568 254.406 48.1808 255.078 47.8288C255.766 47.4768 256.334 47.0048 256.782 46.4128C257.246 45.8208 257.59 45.1408 257.814 44.3728C258.038 43.6048 258.15 42.8048 258.15 41.9728C258.15 41.0928 258.038 40.2528 257.814 39.4528C257.59 38.6368 257.246 37.9248 256.782 37.3168C256.318 36.7088 255.734 36.2208 255.03 35.8528C254.326 35.4848 253.486 35.3008 252.51 35.3008C251.742 35.3008 251.038 35.4528 250.398 35.7568C249.758 36.0608 249.23 36.5488 248.814 37.2208H248.766V35.6368H245.526ZM260.294 30.9088V48.0448H263.702V30.9088H260.294ZM274.738 40.5088H269.194C269.21 40.2688 269.258 39.9968 269.338 39.6928C269.434 39.3888 269.586 39.1008 269.794 38.8288C270.018 38.5568 270.306 38.3328 270.658 38.1568C271.026 37.9648 271.482 37.8688 272.026 37.8688C272.858 37.8688 273.474 38.0928 273.874 38.5408C274.29 38.9888 274.578 39.6448 274.738 40.5088ZM269.194 42.6688H278.146C278.21 41.7088 278.13 40.7888 277.906 39.9088C277.682 39.0288 277.314 38.2448 276.802 37.5568C276.306 36.8688 275.666 36.3248 274.882 35.9248C274.098 35.5088 273.178 35.3008 272.122 35.3008C271.178 35.3008 270.314 35.4688 269.53 35.8048C268.762 36.1408 268.098 36.6048 267.538 37.1968C266.978 37.7728 266.546 38.4608 266.242 39.2608C265.938 40.0608 265.786 40.9248 265.786 41.8528C265.786 42.8128 265.93 43.6928 266.218 44.4928C266.522 45.2928 266.946 45.9808 267.49 46.5568C268.034 47.1328 268.698 47.5808 269.482 47.9008C270.266 48.2048 271.146 48.3568 272.122 48.3568C273.53 48.3568 274.73 48.0368 275.722 47.3968C276.714 46.7568 277.45 45.6928 277.93 44.2048H274.93C274.818 44.5888 274.514 44.9568 274.018 45.3088C273.522 45.6448 272.93 45.8128 272.242 45.8128C271.282 45.8128 270.546 45.5648 270.034 45.0688C269.522 44.5728 269.242 43.7728 269.194 42.6688ZM280.311 44.3488V48.0448H284.079V44.3488H280.311ZM295.295 40.0048H298.631C298.583 39.2048 298.391 38.5168 298.055 37.9408C297.719 37.3488 297.279 36.8608 296.735 36.4768C296.207 36.0768 295.599 35.7808 294.911 35.5888C294.239 35.3968 293.535 35.3008 292.799 35.3008C291.791 35.3008 290.895 35.4688 290.111 35.8048C289.327 36.1408 288.663 36.6128 288.119 37.2208C287.575 37.8128 287.159 38.5248 286.871 39.3568C286.599 40.1728 286.463 41.0608 286.463 42.0208C286.463 42.9488 286.615 43.8048 286.919 44.5888C287.223 45.3568 287.647 46.0208 288.191 46.5808C288.735 47.1408 289.391 47.5808 290.159 47.9008C290.943 48.2048 291.799 48.3568 292.727 48.3568C294.375 48.3568 295.727 47.9248 296.783 47.0608C297.839 46.1968 298.479 44.9408 298.703 43.2928H295.415C295.303 44.0608 295.023 44.6768 294.575 45.1408C294.143 45.5888 293.519 45.8128 292.703 45.8128C292.175 45.8128 291.727 45.6928 291.359 45.4528C290.991 45.2128 290.695 44.9088 290.471 44.5408C290.263 44.1568 290.111 43.7328 290.015 43.2688C289.919 42.8048 289.871 42.3488 289.871 41.9008C289.871 41.4368 289.919 40.9728 290.015 40.5088C290.111 40.0288 290.271 39.5968 290.495 39.2128C290.735 38.8128 291.039 38.4928 291.407 38.2528C291.775 37.9968 292.231 37.8688 292.775 37.8688C294.231 37.8688 295.071 38.5808 295.295 40.0048ZM303.652 41.8528C303.652 41.3568 303.7 40.8688 303.796 40.3888C303.892 39.9088 304.052 39.4848 304.276 39.1168C304.516 38.7488 304.828 38.4528 305.212 38.2288C305.596 37.9888 306.076 37.8688 306.652 37.8688C307.228 37.8688 307.708 37.9888 308.092 38.2288C308.492 38.4528 308.804 38.7488 309.028 39.1168C309.268 39.4848 309.436 39.9088 309.532 40.3888C309.628 40.8688 309.676 41.3568 309.676 41.8528C309.676 42.3488 309.628 42.8368 309.532 43.3168C309.436 43.7808 309.268 44.2048 309.028 44.5888C308.804 44.9568 308.492 45.2528 308.092 45.4768C307.708 45.7008 307.228 45.8128 306.652 45.8128C306.076 45.8128 305.596 45.7008 305.212 45.4768C304.828 45.2528 304.516 44.9568 304.276 44.5888C304.052 44.2048 303.892 43.7808 303.796 43.3168C303.7 42.8368 303.652 42.3488 303.652 41.8528ZM300.244 41.8528C300.244 42.8448 300.396 43.7408 300.7 44.5408C301.004 45.3408 301.436 46.0288 301.996 46.6048C302.556 47.1648 303.228 47.5968 304.012 47.9008C304.796 48.2048 305.676 48.3568 306.652 48.3568C307.628 48.3568 308.508 48.2048 309.292 47.9008C310.092 47.5968 310.772 47.1648 311.332 46.6048C311.892 46.0288 312.324 45.3408 312.628 44.5408C312.932 43.7408 313.084 42.8448 313.084 41.8528C313.084 40.8608 312.932 39.9648 312.628 39.1648C312.324 38.3488 311.892 37.6608 311.332 37.1008C310.772 36.5248 310.092 36.0848 309.292 35.7808C308.508 35.4608 307.628 35.3008 306.652 35.3008C305.676 35.3008 304.796 35.4608 304.012 35.7808C303.228 36.0848 302.556 36.5248 301.996 37.1008C301.436 37.6608 301.004 38.3488 300.7 39.1648C300.396 39.9648 300.244 40.8608 300.244 41.8528ZM315.396 35.6368V48.0448H318.804V40.8448C318.804 40.2368 318.892 39.7488 319.068 39.3808C319.244 38.9968 319.452 38.7088 319.692 38.5168C319.948 38.3088 320.204 38.1728 320.46 38.1088C320.732 38.0288 320.948 37.9888 321.108 37.9888C321.652 37.9888 322.06 38.0848 322.332 38.2768C322.62 38.4528 322.82 38.6928 322.932 38.9968C323.06 39.3008 323.132 39.6368 323.148 40.0048C323.164 40.3568 323.172 40.7168 323.172 41.0848V48.0448H326.58V41.1328C326.58 40.7488 326.604 40.3728 326.652 40.0048C326.716 39.6208 326.828 39.2848 326.988 38.9968C327.164 38.6928 327.396 38.4528 327.684 38.2768C327.988 38.0848 328.38 37.9888 328.86 37.9888C329.34 37.9888 329.716 38.0688 329.988 38.2288C330.276 38.3888 330.492 38.6048 330.636 38.8768C330.78 39.1488 330.868 39.4688 330.9 39.8368C330.932 40.2048 330.948 40.5968 330.948 41.0128V48.0448H334.356V39.7408C334.356 38.9408 334.244 38.2608 334.02 37.7008C333.796 37.1248 333.484 36.6608 333.084 36.3088C332.684 35.9568 332.204 35.7008 331.644 35.5408C331.084 35.3808 330.476 35.3008 329.82 35.3008C328.956 35.3008 328.204 35.5088 327.564 35.9248C326.94 36.3408 326.444 36.8208 326.076 37.3648C325.74 36.5968 325.244 36.0608 324.588 35.7568C323.948 35.4528 323.236 35.3008 322.452 35.3008C321.636 35.3008 320.908 35.4768 320.268 35.8288C319.644 36.1808 319.108 36.6768 318.66 37.3168H318.612V35.6368H315.396Z" fill="black"/>
<circle cx="40" cy="117.045" r="16" fill="#DBDBDB"/>
<path d="M78.1869 119.921L80.4189 113.633H80.4669L82.6269 119.921H78.1869ZM78.5469 109.409L72.0669 126.545H75.8589L77.2029 122.729H83.6109L84.9069 126.545H88.8189L82.4109 109.409H78.5469ZM90.0326 109.409V126.545H93.4406V109.409H90.0326ZM99.6281 112.217V109.409H96.2201V112.217H99.6281ZM96.2201 114.137V126.545H99.6281V114.137H96.2201ZM110.76 118.505H114.096C114.048 117.705 113.856 117.017 113.52 116.441C113.184 115.849 112.744 115.361 112.2 114.977C111.672 114.577 111.064 114.281 110.376 114.089C109.704 113.897 109 113.801 108.264 113.801C107.256 113.801 106.36 113.969 105.576 114.305C104.792 114.641 104.128 115.113 103.584 115.721C103.04 116.313 102.624 117.025 102.336 117.857C102.064 118.673 101.928 119.561 101.928 120.521C101.928 121.449 102.08 122.305 102.384 123.089C102.688 123.857 103.112 124.521 103.656 125.081C104.2 125.641 104.856 126.081 105.624 126.401C106.408 126.705 107.264 126.857 108.192 126.857C109.84 126.857 111.192 126.425 112.248 125.561C113.304 124.697 113.944 123.441 114.168 121.793H110.88C110.768 122.561 110.488 123.177 110.04 123.641C109.608 124.089 108.984 124.313 108.168 124.313C107.64 124.313 107.192 124.193 106.824 123.953C106.456 123.713 106.16 123.409 105.936 123.041C105.728 122.657 105.576 122.233 105.48 121.769C105.384 121.305 105.336 120.849 105.336 120.401C105.336 119.937 105.384 119.473 105.48 119.009C105.576 118.529 105.736 118.097 105.96 117.713C106.2 117.313 106.504 116.993 106.872 116.753C107.24 116.497 107.696 116.369 108.24 116.369C109.696 116.369 110.536 117.081 110.76 118.505ZM124.445 119.009H118.901C118.917 118.769 118.965 118.497 119.045 118.193C119.141 117.889 119.293 117.601 119.501 117.329C119.725 117.057 120.013 116.833 120.365 116.657C120.733 116.465 121.189 116.369 121.733 116.369C122.565 116.369 123.181 116.593 123.581 117.041C123.997 117.489 124.285 118.145 124.445 119.009ZM118.901 121.169H127.853C127.917 120.209 127.837 119.289 127.613 118.409C127.389 117.529 127.021 116.745 126.509 116.057C126.013 115.369 125.373 114.825 124.589 114.425C123.805 114.009 122.885 113.801 121.829 113.801C120.885 113.801 120.021 113.969 119.237 114.305C118.469 114.641 117.805 115.105 117.245 115.697C116.685 116.273 116.253 116.961 115.949 117.761C115.645 118.561 115.493 119.425 115.493 120.353C115.493 121.313 115.637 122.193 115.925 122.993C116.229 123.793 116.653 124.481 117.197 125.057C117.741 125.633 118.405 126.081 119.189 126.401C119.973 126.705 120.853 126.857 121.829 126.857C123.237 126.857 124.437 126.537 125.429 125.897C126.421 125.257 127.157 124.193 127.637 122.705H124.637C124.525 123.089 124.221 123.457 123.725 123.809C123.229 124.145 122.637 124.313 121.949 124.313C120.989 124.313 120.253 124.065 119.741 123.569C119.229 123.073 118.949 122.273 118.901 121.169ZM133.81 118.049V114.353H130.042V118.049H133.81ZM130.042 122.849V126.545H133.81V122.849H130.042ZM143.81 109.409V126.545H146.09V118.697H155.114V126.545H157.394V109.409H155.114V116.777H146.09V109.409H143.81ZM162.954 111.905V109.409H160.914V111.905H162.954ZM160.914 114.137V126.545H162.954V114.137H160.914ZM166.354 123.881V126.545H169.018V123.881H166.354ZM168.826 114.689V109.409H166.546V114.689L167.146 122.153H168.226L168.826 114.689Z" fill="black"/>
<circle cx="40" cy="173.045" r="16" fill="#DBDBDB"/>
<path d="M77.5803 172.345V168.337H81.1083C81.4443 168.337 81.7643 168.369 82.0683 168.433C82.3883 168.481 82.6683 168.577 82.9083 168.721C83.1483 168.865 83.3403 169.065 83.4843 169.321C83.6283 169.577 83.7003 169.905 83.7003 170.305C83.7003 171.025 83.4843 171.545 83.0523 171.865C82.6203 172.185 82.0683 172.345 81.3963 172.345H77.5803ZM73.8123 165.409V182.545H82.1163C82.8843 182.545 83.6283 182.449 84.3483 182.257C85.0843 182.065 85.7323 181.769 86.2923 181.369C86.8683 180.969 87.3243 180.457 87.6603 179.833C87.9963 179.193 88.1643 178.441 88.1643 177.577C88.1643 176.505 87.9003 175.593 87.3723 174.841C86.8603 174.073 86.0763 173.537 85.0203 173.233C85.7883 172.865 86.3643 172.393 86.7483 171.817C87.1483 171.241 87.3483 170.521 87.3483 169.657C87.3483 168.857 87.2123 168.185 86.9403 167.641C86.6843 167.097 86.3163 166.665 85.8363 166.345C85.3563 166.009 84.7803 165.769 84.1083 165.625C83.4363 165.481 82.6923 165.409 81.8763 165.409H73.8123ZM77.5803 179.617V174.913H81.6843C82.5003 174.913 83.1563 175.105 83.6523 175.489C84.1483 175.857 84.3963 176.481 84.3963 177.361C84.3963 177.809 84.3163 178.177 84.1562 178.465C84.0123 178.753 83.8123 178.985 83.5563 179.161C83.3003 179.321 83.0043 179.441 82.6683 179.521C82.3323 179.585 81.9803 179.617 81.6123 179.617H77.5803ZM93.3747 176.353C93.3747 175.857 93.4227 175.369 93.5187 174.889C93.6147 174.409 93.7747 173.985 93.9987 173.617C94.2387 173.249 94.5507 172.953 94.9347 172.729C95.3187 172.489 95.7987 172.369 96.3747 172.369C96.9507 172.369 97.4307 172.489 97.8147 172.729C98.2147 172.953 98.5267 173.249 98.7507 173.617C98.9907 173.985 99.1587 174.409 99.2547 174.889C99.3507 175.369 99.3987 175.857 99.3987 176.353C99.3987 176.849 99.3507 177.337 99.2547 177.817C99.1587 178.281 98.9907 178.705 98.7507 179.089C98.5267 179.457 98.2147 179.753 97.8147 179.977C97.4307 180.201 96.9507 180.313 96.3747 180.313C95.7987 180.313 95.3187 180.201 94.9347 179.977C94.5507 179.753 94.2387 179.457 93.9987 179.089C93.7747 178.705 93.6147 178.281 93.5187 177.817C93.4227 177.337 93.3747 176.849 93.3747 176.353ZM89.9667 176.353C89.9667 177.345 90.1187 178.241 90.4227 179.041C90.7267 179.841 91.1587 180.529 91.7187 181.105C92.2787 181.665 92.9507 182.097 93.7347 182.401C94.5187 182.705 95.3987 182.857 96.3747 182.857C97.3507 182.857 98.2307 182.705 99.0147 182.401C99.8147 182.097 100.495 181.665 101.055 181.105C101.615 180.529 102.047 179.841 102.351 179.041C102.655 178.241 102.807 177.345 102.807 176.353C102.807 175.361 102.655 174.465 102.351 173.665C102.047 172.849 101.615 172.161 101.055 171.601C100.495 171.025 99.8147 170.585 99.0147 170.281C98.2307 169.961 97.3507 169.801 96.3747 169.801C95.3987 169.801 94.5187 169.961 93.7347 170.281C92.9507 170.585 92.2787 171.025 91.7187 171.601C91.1587 172.161 90.7267 172.849 90.4227 173.665C90.1187 174.465 89.9667 175.361 89.9667 176.353ZM114.119 176.353C114.119 176.865 114.063 177.361 113.951 177.841C113.839 178.321 113.663 178.745 113.423 179.113C113.183 179.481 112.879 179.777 112.511 180.001C112.159 180.209 111.727 180.313 111.215 180.313C110.719 180.313 110.287 180.209 109.919 180.001C109.551 179.777 109.247 179.481 109.007 179.113C108.767 178.745 108.591 178.321 108.479 177.841C108.367 177.361 108.311 176.865 108.311 176.353C108.311 175.825 108.367 175.321 108.479 174.841C108.591 174.361 108.767 173.937 109.007 173.569C109.247 173.201 109.551 172.913 109.919 172.705C110.287 172.481 110.719 172.369 111.215 172.369C111.727 172.369 112.159 172.481 112.511 172.705C112.879 172.913 113.183 173.201 113.423 173.569C113.663 173.937 113.839 174.361 113.951 174.841C114.063 175.321 114.119 175.825 114.119 176.353ZM105.023 165.409V182.545H108.263V180.961H108.311C108.679 181.649 109.223 182.137 109.943 182.425C110.663 182.713 111.479 182.857 112.391 182.857C113.015 182.857 113.631 182.729 114.239 182.473C114.847 182.217 115.391 181.825 115.871 181.297C116.367 180.769 116.767 180.097 117.071 179.281C117.375 178.449 117.527 177.465 117.527 176.329C117.527 175.193 117.375 174.217 117.071 173.401C116.767 172.569 116.367 171.889 115.871 171.361C115.391 170.833 114.847 170.441 114.239 170.185C113.631 169.929 113.015 169.801 112.391 169.801C111.623 169.801 110.879 169.953 110.159 170.257C109.455 170.545 108.895 171.009 108.479 171.649H108.431V165.409H105.023ZM123.63 174.049V170.353H119.862V174.049H123.63ZM119.862 178.849V182.545H123.63V178.849H119.862ZM133.678 165.409V182.545H135.838V168.289H135.886L141.238 182.545H143.182L148.534 168.289H148.582V182.545H150.742V165.409H147.622L142.198 179.809L136.798 165.409H133.678ZM155.688 176.353C155.688 175.601 155.784 174.937 155.976 174.361C156.184 173.769 156.464 173.273 156.816 172.873C157.168 172.473 157.576 172.169 158.04 171.961C158.52 171.753 159.024 171.649 159.552 171.649C160.08 171.649 160.576 171.753 161.04 171.961C161.52 172.169 161.936 172.473 162.288 172.873C162.64 173.273 162.912 173.769 163.104 174.361C163.312 174.937 163.416 175.601 163.416 176.353C163.416 177.105 163.312 177.777 163.104 178.369C162.912 178.945 162.64 179.433 162.288 179.833C161.936 180.217 161.52 180.513 161.04 180.721C160.576 180.929 160.08 181.033 159.552 181.033C159.024 181.033 158.52 180.929 158.04 180.721C157.576 180.513 157.168 180.217 156.816 179.833C156.464 179.433 156.184 178.945 155.976 178.369C155.784 177.777 155.688 177.105 155.688 176.353ZM153.528 176.353C153.528 177.265 153.656 178.113 153.912 178.897C154.168 179.681 154.552 180.369 155.064 180.961C155.576 181.537 156.208 181.993 156.96 182.329C157.712 182.649 158.576 182.809 159.552 182.809C160.544 182.809 161.408 182.649 162.144 182.329C162.896 181.993 163.528 181.537 164.04 180.961C164.552 180.369 164.936 179.681 165.192 178.897C165.448 178.113 165.576 177.265 165.576 176.353C165.576 175.441 165.448 174.593 165.192 173.809C164.936 173.009 164.552 172.321 164.04 171.745C163.528 171.153 162.896 170.689 162.144 170.353C161.408 170.017 160.544 169.849 159.552 169.849C158.576 169.849 157.712 170.017 156.96 170.353C156.208 170.689 155.576 171.153 155.064 171.745C154.552 172.321 154.168 173.009 153.912 173.809C153.656 174.593 153.528 175.441 153.528 176.353ZM167.909 170.137V182.545H169.949V177.025C169.949 176.225 170.029 175.521 170.189 174.913C170.349 174.289 170.605 173.761 170.957 173.329C171.309 172.897 171.773 172.569 172.349 172.345C172.925 172.121 173.621 172.009 174.437 172.009V169.849C173.333 169.817 172.421 170.041 171.701 170.521C170.981 171.001 170.373 171.745 169.877 172.753H169.829V170.137H167.909ZM176.395 170.137V182.545H178.435V175.537C178.435 174.977 178.507 174.465 178.651 174.001C178.811 173.521 179.043 173.105 179.347 172.753C179.651 172.401 180.027 172.129 180.475 171.937C180.939 171.745 181.483 171.649 182.107 171.649C182.891 171.649 183.507 171.873 183.955 172.321C184.403 172.769 184.627 173.377 184.627 174.145V182.545H186.667V174.385C186.667 173.713 186.595 173.105 186.451 172.561C186.323 172.001 186.091 171.521 185.755 171.121C185.419 170.721 184.979 170.409 184.435 170.185C183.891 169.961 183.211 169.849 182.395 169.849C180.555 169.849 179.211 170.601 178.363 172.105H178.315V170.137H176.395ZM191.891 167.905V165.409H189.851V167.905H191.891ZM189.851 170.137V182.545H191.891V170.137H189.851ZM195.052 170.137V182.545H197.092V175.537C197.092 174.977 197.164 174.465 197.308 174.001C197.468 173.521 197.7 173.105 198.004 172.753C198.308 172.401 198.684 172.129 199.132 171.937C199.596 171.745 200.14 171.649 200.764 171.649C201.548 171.649 202.164 171.873 202.612 172.321C203.06 172.769 203.284 173.377 203.284 174.145V182.545H205.324V174.385C205.324 173.713 205.252 173.105 205.108 172.561C204.98 172.001 204.748 171.521 204.412 171.121C204.076 170.721 203.636 170.409 203.092 170.185C202.548 169.961 201.868 169.849 201.052 169.849C199.212 169.849 197.868 170.601 197.02 172.105H196.972V170.137H195.052ZM219.092 181.489V170.137H217.172V171.913H217.148C216.78 171.225 216.268 170.713 215.612 170.377C214.956 170.025 214.236 169.849 213.452 169.849C212.38 169.849 211.476 170.057 210.74 170.473C210.004 170.873 209.412 171.393 208.964 172.033C208.516 172.657 208.196 173.361 208.004 174.145C207.812 174.913 207.716 175.665 207.716 176.401C207.716 177.249 207.828 178.057 208.052 178.825C208.292 179.577 208.644 180.241 209.108 180.817C209.572 181.377 210.148 181.825 210.836 182.161C211.524 182.497 212.332 182.665 213.26 182.665C214.06 182.665 214.812 182.489 215.516 182.137C216.236 181.769 216.772 181.201 217.124 180.433H217.172V181.249C217.172 181.937 217.1 182.569 216.956 183.145C216.828 183.721 216.612 184.209 216.308 184.609C216.004 185.025 215.62 185.345 215.156 185.569C214.692 185.809 214.124 185.929 213.452 185.929C213.116 185.929 212.764 185.889 212.396 185.809C212.028 185.745 211.684 185.633 211.364 185.473C211.06 185.313 210.796 185.105 210.572 184.849C210.364 184.593 210.252 184.281 210.236 183.913H208.196C208.228 184.585 208.404 185.153 208.724 185.617C209.044 186.081 209.444 186.457 209.924 186.745C210.42 187.033 210.964 187.241 211.556 187.369C212.164 187.497 212.756 187.561 213.332 187.561C215.316 187.561 216.772 187.057 217.7 186.049C218.628 185.041 219.092 183.521 219.092 181.489ZM213.38 180.889C212.708 180.889 212.148 180.753 211.7 180.481C211.252 180.193 210.892 179.825 210.62 179.377C210.348 178.913 210.156 178.401 210.044 177.841C209.932 177.281 209.876 176.721 209.876 176.161C209.876 175.569 209.94 175.001 210.068 174.457C210.212 173.913 210.428 173.433 210.716 173.017C211.02 172.601 211.404 172.273 211.868 172.033C212.332 171.777 212.892 171.649 213.548 171.649C214.188 171.649 214.732 171.777 215.18 172.033C215.628 172.289 215.988 172.633 216.26 173.065C216.548 173.481 216.756 173.953 216.884 174.481C217.012 175.009 217.076 175.545 217.076 176.089C217.076 176.665 217.004 177.241 216.86 177.817C216.732 178.393 216.524 178.913 216.236 179.377C215.948 179.825 215.564 180.193 215.084 180.481C214.62 180.753 214.052 180.889 213.38 180.889ZM222.409 179.881V182.545H225.073V179.881H222.409ZM224.881 170.689V165.409H222.601V170.689L223.201 178.153H224.281L224.881 170.689Z" fill="black"/>
<circle cx="40" cy="229.045" r="16" fill="#DBDBDB"/>
<path d="M85.4081 227.169H89.0561C88.9441 226.177 88.6721 225.297 88.2401 224.529C87.8081 223.761 87.2561 223.121 86.5841 222.609C85.9281 222.081 85.1761 221.681 84.3281 221.409C83.4961 221.137 82.6081 221.001 81.6641 221.001C80.3521 221.001 79.1681 221.233 78.1121 221.697C77.0721 222.161 76.1921 222.801 75.4721 223.617C74.7521 224.433 74.2001 225.393 73.8161 226.497C73.4321 227.585 73.2401 228.769 73.2401 230.049C73.2401 231.297 73.4321 232.465 73.8161 233.553C74.2001 234.625 74.7521 235.561 75.4721 236.361C76.1921 237.161 77.0721 237.793 78.1121 238.257C79.1681 238.705 80.3521 238.929 81.6641 238.929C82.7201 238.929 83.6881 238.769 84.5681 238.449C85.4481 238.129 86.2161 237.665 86.8721 237.057C87.5281 236.449 88.0561 235.713 88.4561 234.849C88.8561 233.985 89.1041 233.017 89.2001 231.945H85.5521C85.4081 233.097 85.0081 234.025 84.3521 234.729C83.7121 235.433 82.8161 235.785 81.6641 235.785C80.8161 235.785 80.0961 235.625 79.5041 235.305C78.9121 234.969 78.4321 234.529 78.0641 233.985C77.6961 233.441 77.4241 232.833 77.2481 232.161C77.0881 231.473 77.0081 230.769 77.0081 230.049C77.0081 229.297 77.0881 228.569 77.2481 227.865C77.4241 227.161 77.6961 226.537 78.0641 225.993C78.4321 225.433 78.9121 224.993 79.5041 224.673C80.0961 224.337 80.8161 224.169 81.6641 224.169C82.1281 224.169 82.5681 224.249 82.9841 224.409C83.4161 224.553 83.8001 224.761 84.1361 225.033C84.4721 225.305 84.7521 225.625 84.9761 225.993C85.2001 226.345 85.3441 226.737 85.4081 227.169ZM91.2692 229.953C91.3172 229.153 91.5172 228.489 91.8692 227.961C92.2212 227.433 92.6692 227.009 93.2132 226.689C93.7572 226.369 94.3652 226.145 95.0372 226.017C95.7252 225.873 96.4132 225.801 97.1012 225.801C97.7252 225.801 98.3572 225.849 98.9972 225.945C99.6372 226.025 100.221 226.193 100.749 226.449C101.277 226.705 101.709 227.065 102.045 227.529C102.381 227.977 102.549 228.577 102.549 229.329V235.785C102.549 236.345 102.581 236.881 102.645 237.393C102.709 237.905 102.821 238.289 102.981 238.545H99.5252C99.4612 238.353 99.4052 238.161 99.3572 237.969C99.3252 237.761 99.3012 237.553 99.2852 237.345C98.7412 237.905 98.1012 238.297 97.3652 238.521C96.6292 238.745 95.8772 238.857 95.1092 238.857C94.5172 238.857 93.9652 238.785 93.4532 238.641C92.9412 238.497 92.4932 238.273 92.1092 237.969C91.7252 237.665 91.4212 237.281 91.1972 236.817C90.9892 236.353 90.8852 235.801 90.8852 235.161C90.8852 234.457 91.0052 233.881 91.2452 233.433C91.5012 232.969 91.8212 232.601 92.2052 232.329C92.6052 232.057 93.0532 231.857 93.5492 231.729C94.0612 231.585 94.5732 231.473 95.0852 231.393C95.5972 231.313 96.1012 231.249 96.5972 231.201C97.0932 231.153 97.5332 231.081 97.9172 230.985C98.3012 230.889 98.6052 230.753 98.8292 230.577C99.0532 230.385 99.1572 230.113 99.1412 229.761C99.1412 229.393 99.0772 229.105 98.9492 228.897C98.8372 228.673 98.6772 228.505 98.4692 228.393C98.2772 228.265 98.0452 228.185 97.7732 228.153C97.5172 228.105 97.2372 228.081 96.9332 228.081C96.2612 228.081 95.7332 228.225 95.3492 228.513C94.9652 228.801 94.7412 229.281 94.6772 229.953H91.2692ZM99.1412 232.473C98.9972 232.601 98.8132 232.705 98.5892 232.785C98.3812 232.849 98.1492 232.905 97.8932 232.953C97.6532 233.001 97.3972 233.041 97.1252 233.073C96.8532 233.105 96.5812 233.145 96.3092 233.193C96.0532 233.241 95.7972 233.305 95.5412 233.385C95.3012 233.465 95.0852 233.577 94.8932 233.721C94.7172 233.849 94.5732 234.017 94.4612 234.225C94.3492 234.433 94.2932 234.697 94.2932 235.017C94.2932 235.321 94.3492 235.577 94.4612 235.785C94.5732 235.993 94.7252 236.161 94.9172 236.289C95.1092 236.401 95.3332 236.481 95.5892 236.529C95.8452 236.577 96.1092 236.601 96.3812 236.601C97.0532 236.601 97.5732 236.489 97.9412 236.265C98.3092 236.041 98.5812 235.777 98.7572 235.473C98.9332 235.153 99.0372 234.833 99.0692 234.513C99.1172 234.193 99.1412 233.937 99.1412 233.745V232.473ZM105.194 226.137V238.545H108.602V232.953C108.602 232.393 108.658 231.873 108.77 231.393C108.882 230.913 109.066 230.497 109.322 230.145C109.594 229.777 109.946 229.489 110.378 229.281C110.81 229.073 111.338 228.969 111.962 228.969C112.17 228.969 112.386 228.985 112.61 229.017C112.834 229.033 113.026 229.057 113.186 229.089V225.921C112.914 225.841 112.666 225.801 112.442 225.801C112.01 225.801 111.594 225.865 111.194 225.993C110.794 226.121 110.418 226.305 110.066 226.545C109.714 226.769 109.402 227.049 109.13 227.385C108.858 227.705 108.642 228.057 108.482 228.441H108.434V226.137H105.194ZM117.125 232.353C117.125 231.857 117.173 231.369 117.269 230.889C117.365 230.409 117.525 229.985 117.749 229.617C117.989 229.249 118.301 228.953 118.685 228.729C119.069 228.489 119.549 228.369 120.125 228.369C120.701 228.369 121.181 228.489 121.565 228.729C121.965 228.953 122.277 229.249 122.501 229.617C122.741 229.985 122.909 230.409 123.005 230.889C123.101 231.369 123.149 231.857 123.149 232.353C123.149 232.849 123.101 233.337 123.005 233.817C122.909 234.281 122.741 234.705 122.501 235.089C122.277 235.457 121.965 235.753 121.565 235.977C121.181 236.201 120.701 236.313 120.125 236.313C119.549 236.313 119.069 236.201 118.685 235.977C118.301 235.753 117.989 235.457 117.749 235.089C117.525 234.705 117.365 234.281 117.269 233.817C117.173 233.337 117.125 232.849 117.125 232.353ZM113.717 232.353C113.717 233.345 113.869 234.241 114.173 235.041C114.477 235.841 114.909 236.529 115.469 237.105C116.029 237.665 116.701 238.097 117.485 238.401C118.269 238.705 119.149 238.857 120.125 238.857C121.101 238.857 121.981 238.705 122.765 238.401C123.565 238.097 124.245 237.665 124.805 237.105C125.365 236.529 125.797 235.841 126.101 235.041C126.405 234.241 126.557 233.345 126.557 232.353C126.557 231.361 126.405 230.465 126.101 229.665C125.797 228.849 125.365 228.161 124.805 227.601C124.245 227.025 123.565 226.585 122.765 226.281C121.981 225.961 121.101 225.801 120.125 225.801C119.149 225.801 118.269 225.961 117.485 226.281C116.701 226.585 116.029 227.025 115.469 227.601C114.909 228.161 114.477 228.849 114.173 229.665C113.869 230.465 113.717 231.361 113.717 232.353ZM128.869 221.409V238.545H132.277V221.409H128.869ZM138.896 230.049V226.353H135.128V230.049H138.896ZM135.128 234.849V238.545H138.896V234.849H135.128ZM148.559 221.409V238.545H150.599V231.537C150.599 230.977 150.671 230.465 150.815 230.001C150.975 229.521 151.207 229.105 151.511 228.753C151.815 228.401 152.191 228.129 152.639 227.937C153.103 227.745 153.647 227.649 154.271 227.649C155.055 227.649 155.671 227.873 156.119 228.321C156.567 228.769 156.791 229.377 156.791 230.145V238.545H158.831V230.385C158.831 229.713 158.759 229.105 158.615 228.561C158.487 228.001 158.255 227.521 157.919 227.121C157.583 226.721 157.143 226.409 156.599 226.185C156.055 225.961 155.375 225.849 154.559 225.849C154.191 225.849 153.807 225.889 153.407 225.969C153.023 226.049 152.647 226.177 152.279 226.353C151.927 226.513 151.607 226.729 151.319 227.001C151.031 227.257 150.807 227.577 150.647 227.961H150.599V221.409H148.559ZM170.511 231.153H163.383C163.415 230.673 163.519 230.225 163.695 229.809C163.871 229.377 164.111 229.001 164.415 228.681C164.719 228.361 165.079 228.113 165.495 227.937C165.927 227.745 166.407 227.649 166.935 227.649C167.447 227.649 167.911 227.745 168.327 227.937C168.759 228.113 169.127 228.361 169.431 228.681C169.751 228.985 169.999 229.353 170.175 229.785C170.367 230.217 170.479 230.673 170.511 231.153ZM172.479 234.609H170.463C170.287 235.425 169.919 236.033 169.359 236.433C168.815 236.833 168.111 237.033 167.247 237.033C166.575 237.033 165.991 236.921 165.495 236.697C164.999 236.473 164.591 236.177 164.271 235.809C163.951 235.425 163.719 234.993 163.575 234.513C163.431 234.017 163.367 233.497 163.383 232.953H172.671C172.703 232.201 172.631 231.409 172.455 230.577C172.295 229.745 171.991 228.977 171.543 228.273C171.111 227.569 170.527 226.993 169.791 226.545C169.071 226.081 168.159 225.849 167.055 225.849C166.207 225.849 165.423 226.009 164.703 226.329C163.999 226.649 163.383 227.097 162.855 227.673C162.343 228.249 161.943 228.929 161.655 229.713C161.367 230.497 161.223 231.361 161.223 232.305C161.255 233.249 161.391 234.121 161.631 234.921C161.887 235.721 162.263 236.409 162.759 236.985C163.255 237.561 163.863 238.009 164.583 238.329C165.319 238.649 166.183 238.809 167.175 238.809C168.583 238.809 169.751 238.457 170.679 237.753C171.607 237.049 172.207 236.001 172.479 234.609ZM174.906 221.409V238.545H176.946V221.409H174.906ZM180.226 221.409V238.545H182.266V221.409H180.226ZM186.915 232.353C186.915 231.601 187.011 230.937 187.203 230.361C187.411 229.769 187.691 229.273 188.043 228.873C188.395 228.473 188.803 228.169 189.267 227.961C189.747 227.753 190.251 227.649 190.779 227.649C191.307 227.649 191.803 227.753 192.267 227.961C192.747 228.169 193.163 228.473 193.515 228.873C193.867 229.273 194.139 229.769 194.331 230.361C194.539 230.937 194.643 231.601 194.643 232.353C194.643 233.105 194.539 233.777 194.331 234.369C194.139 234.945 193.867 235.433 193.515 235.833C193.163 236.217 192.747 236.513 192.267 236.721C191.803 236.929 191.307 237.033 190.779 237.033C190.251 237.033 189.747 236.929 189.267 236.721C188.803 236.513 188.395 236.217 188.043 235.833C187.691 235.433 187.411 234.945 187.203 234.369C187.011 233.777 186.915 233.105 186.915 232.353ZM184.755 232.353C184.755 233.265 184.883 234.113 185.139 234.897C185.395 235.681 185.779 236.369 186.291 236.961C186.803 237.537 187.435 237.993 188.187 238.329C188.939 238.649 189.803 238.809 190.779 238.809C191.771 238.809 192.635 238.649 193.371 238.329C194.123 237.993 194.755 237.537 195.267 236.961C195.779 236.369 196.163 235.681 196.419 234.897C196.675 234.113 196.803 233.265 196.803 232.353C196.803 231.441 196.675 230.593 196.419 229.809C196.163 229.009 195.779 228.321 195.267 227.745C194.755 227.153 194.123 226.689 193.371 226.353C192.635 226.017 191.771 225.849 190.779 225.849C189.803 225.849 188.939 226.017 188.187 226.353C187.435 226.689 186.803 227.153 186.291 227.745C185.779 228.321 185.395 229.009 185.139 229.809C184.883 230.593 184.755 231.441 184.755 232.353Z" fill="black"/>
</g>
<rect x="3" y="3.0448" width="354" height="263" rx="21" stroke="black" stroke-width="6"/>
<defs>
<clipPath id="clip0_968_14752">
<rect y="0.0447998" width="360" height="269" rx="24" fill="white"/>
</clipPath>
</defs>
</svg>
