<svg width="280" height="173" viewBox="0 0 280 173" fill="none" xmlns="http://www.w3.org/2000/svg">
<rect y="0.212646" width="280" height="171.818" rx="6.13139" fill="black"/>
<rect x="5.41992" y="5.96362" width="59.6129" height="160.316" rx="6.13139" fill="white"/>
<rect x="11.1533" y="16.0632" width="28.9032" height="3.59452" rx="1.79726" fill="black"/>
<rect x="11.2432" y="30.7249" width="8.75" height="8.75" rx="3.18182" fill="black"/>
<rect x="22.8789" y="33.2959" width="28.8622" height="3.60777" rx="1.80389" fill="black"/>
<rect x="11.2432" y="46.634" width="8.75" height="8.75" rx="3.18182" fill="black"/>
<rect x="22.8789" y="49.2051" width="28.8622" height="3.60777" rx="1.80389" fill="black"/>
<rect x="11.2432" y="62.543" width="8.75" height="8.75" rx="3.18182" fill="black"/>
<rect x="22.8789" y="65.114" width="28.8622" height="3.60777" rx="1.80389" fill="black"/>
<rect x="11.2432" y="78.4521" width="8.75" height="8.75" rx="3.18182" fill="black"/>
<rect x="22.8789" y="81.0232" width="28.8622" height="3.60777" rx="1.80389" fill="black"/>
<rect x="11.2432" y="94.3613" width="8.75" height="8.75" rx="3.18182" fill="black"/>
<rect x="22.8789" y="96.9324" width="28.8622" height="3.60777" rx="1.80389" fill="black"/>
<rect x="73.7031" y="11.7151" width="71.5355" height="3.59452" rx="1.79726" fill="#DBDBDB"/>
<ellipse cx="81.2811" cy="31.5089" rx="6.49399" ry="6.49399" fill="white"/>
<rect x="90.6611" y="27.5403" width="28.8622" height="3.60777" rx="1.80389" fill="#DBDBDB"/>
<rect x="90.6611" y="35.8384" width="95.2452" height="3.60777" rx="1.80389" fill="#DBDBDB"/>
<ellipse cx="81.2811" cy="54.5985" rx="6.49399" ry="6.49399" fill="white"/>
<rect x="90.6611" y="50.6301" width="28.8622" height="3.60777" rx="1.80389" fill="#DBDBDB"/>
<rect x="90.6611" y="58.928" width="95.2452" height="3.60777" rx="1.80389" fill="#DBDBDB"/>
<rect x="90.6611" y="67.2261" width="126.272" height="3.60777" rx="1.80389" fill="#DBDBDB"/>
<ellipse cx="81.2811" cy="85.9867" rx="6.49399" ry="6.49399" fill="white"/>
<rect x="90.6611" y="82.0183" width="28.8622" height="3.60777" rx="1.80389" fill="#DBDBDB"/>
<rect x="90.6611" y="90.3164" width="50.5088" height="3.60777" rx="1.80389" fill="#DBDBDB"/>
<rect x="90.6611" y="98.614" width="67.8261" height="3.60777" rx="1.80389" fill="#DBDBDB"/>
<rect x="90.6611" y="106.912" width="67.8261" height="3.60777" rx="1.80389" fill="#DBDBDB"/>
<ellipse cx="81.2811" cy="125.672" rx="6.49399" ry="6.49399" fill="white"/>
<rect x="90.6611" y="121.704" width="28.8622" height="3.60777" rx="1.80389" fill="#DBDBDB"/>
<rect x="90.6611" y="130.002" width="50.5088" height="3.60777" rx="1.80389" fill="#DBDBDB"/>
<rect x="90.6611" y="138.3" width="67.8261" height="3.60777" rx="1.80389" fill="#DBDBDB"/>
<rect x="73.7031" y="149.745" width="195.819" height="16.5348" rx="6.13139" fill="white"/>
</svg>
