<svg width="176" height="220" viewBox="0 0 176 220" fill="none" xmlns="http://www.w3.org/2000/svg">
<path fill-rule="evenodd" clip-rule="evenodd" d="M0 20.3133C0 9.0946 9.0946 -4.76837e-06 20.3133 -4.76837e-06H90.5718C93.128 -4.76837e-06 95.6866 0.242381 98.1677 0.857387C108.129 3.32656 114.295 6.62629 123.75 14.6667L162.25 53.1667C171.139 63.7747 174.445 70.468 176 84.3333V199.687C176 210.905 166.905 220 155.687 220H20.3133C9.0946 220 0 210.905 0 199.687V20.3133ZM14.6672 35.7689C14.6672 26.1395 22.1513 18.3333 31.3834 18.3333H89.2002C91.3037 18.3333 93.4092 18.5413 95.4509 19.0692C103.648 21.1886 108.723 24.0209 116.503 30.9222L148.185 63.968C155.5 73.0733 158.221 78.8184 159.5 90.7194V189.731C159.5 199.36 152.016 207.167 142.784 207.167H31.3834C22.1513 207.167 14.6672 199.36 14.6672 189.731V35.7689Z" fill="#131212"/>
<path d="M36.5643 47.6664C32.5704 47.6664 29.3328 50.9041 29.3328 54.8979V54.8979C29.3328 58.8917 32.5704 62.1294 36.5643 62.1294H79.8513C83.8451 62.1294 87.0828 58.8917 87.0828 54.8979V54.8979C87.0828 50.9041 83.8451 47.6664 79.8513 47.6664H36.5643ZM36.5643 76.5924C32.5704 76.5924 29.3328 79.83 29.3328 83.8239V83.8239C29.3328 87.8177 32.5704 91.0553 36.5643 91.0553H79.8513C83.8451 91.0553 87.0828 87.8177 87.0828 83.8239V83.8239C87.0828 79.83 83.8451 76.5924 79.8513 76.5924H36.5643ZM36.5643 105.518C32.5704 105.518 29.3328 108.756 29.3328 112.75V112.75C29.3328 116.744 32.5704 119.981 36.5643 119.981H137.601C141.595 119.981 144.833 116.744 144.833 112.75V112.75C144.833 108.756 141.595 105.518 137.601 105.518H36.5643ZM36.5643 134.444C32.5704 134.444 29.3328 137.682 29.3328 141.676V141.676C29.3328 145.67 32.5704 148.907 36.5643 148.907H137.601C141.595 148.907 144.833 145.67 144.833 141.676V141.676C144.833 137.682 141.595 134.444 137.601 134.444H36.5643ZM36.5643 163.37C32.5704 163.37 29.3328 166.608 29.3328 170.602V170.602C29.3328 174.596 32.5704 177.833 36.5643 177.833H137.601C141.595 177.833 144.833 174.596 144.833 170.602V170.602C144.833 166.608 141.595 163.37 137.601 163.37H36.5643Z" fill="#131212"/>
<path d="M161.334 75.1667V89.8334H115.5C104.971 89.8024 102.706 86.5 102.667 77.0001V16.5L161.334 75.1667Z" fill="#131212"/>
</svg>
