<svg width="548" height="171" viewBox="0 0 548 171" fill="none" xmlns="http://www.w3.org/2000/svg">
<g clip-path="url(#clip0_968_14509)">
<rect x="94" y="33.3528" width="66.4615" height="66.4615" rx="33.2308" fill="#131212"/>
<g clip-path="url(#clip1_968_14509)">
<rect x="94" y="33.3528" width="66.4615" height="66.4615" rx="33.2308" fill="white"/>
<circle cx="127.231" cy="55.5066" r="11.0769" fill="black"/>
<circle cx="127.231" cy="91.5066" r="22.1538" fill="black"/>
<circle cx="127.231" cy="66.5835" r="30.4615" stroke="black" stroke-width="5.53846"/>
</g>
</g>
<path d="M163.231 66.5835L218.615 66.5835" stroke="black" stroke-width="5.53846" stroke-miterlimit="4.13936" stroke-linecap="round" stroke-linejoin="round" stroke-dasharray="2.77 13.85"/>
<rect x="218.615" y="0.121826" width="110.769" height="132.923" rx="11.0769" fill="#131212"/>
<path d="M240.77 36.1218H307.231" stroke="white" stroke-width="11.0769" stroke-linecap="round"/>
<path d="M240.77 69.3525H274" stroke="white" stroke-width="11.0769" stroke-linecap="round"/>
<path d="M304.461 69.3525H307.23" stroke="white" stroke-width="11.0769" stroke-linecap="round"/>
<g clip-path="url(#clip2_968_14509)">
<rect x="387.539" y="33.3533" width="66.4615" height="66.4615" rx="33.2308" fill="#131212"/>
<g clip-path="url(#clip3_968_14509)">
<rect x="387.539" y="33.3533" width="66.4615" height="66.4615" rx="33.2308" fill="white"/>
<circle cx="420.77" cy="55.5071" r="11.0769" fill="black"/>
<circle cx="420.77" cy="91.5071" r="22.1538" fill="black"/>
<circle cx="420.77" cy="66.584" r="30.4615" stroke="black" stroke-width="5.53846"/>
</g>
</g>
<path d="M329.385 66.5837L384.77 66.5837" stroke="black" stroke-width="5.53846" stroke-miterlimit="4.13936" stroke-linecap="round" stroke-linejoin="round" stroke-dasharray="2.77 13.85"/>
<path d="M206.785 157.509H201.241C201.257 157.269 201.305 156.997 201.385 156.693C201.481 156.389 201.633 156.101 201.841 155.829C202.065 155.557 202.353 155.333 202.705 155.157C203.073 154.965 203.529 154.869 204.073 154.869C204.905 154.869 205.521 155.093 205.921 155.541C206.337 155.989 206.625 156.645 206.785 157.509ZM201.241 159.669H210.193C210.257 158.709 210.177 157.789 209.953 156.909C209.729 156.029 209.361 155.245 208.849 154.557C208.353 153.869 207.713 153.325 206.929 152.925C206.145 152.509 205.225 152.301 204.169 152.301C203.225 152.301 202.361 152.469 201.577 152.805C200.809 153.141 200.145 153.605 199.585 154.197C199.025 154.773 198.593 155.461 198.289 156.261C197.985 157.061 197.833 157.925 197.833 158.853C197.833 159.813 197.977 160.693 198.265 161.493C198.569 162.293 198.993 162.981 199.537 163.557C200.081 164.133 200.745 164.581 201.529 164.901C202.313 165.205 203.193 165.357 204.169 165.357C205.577 165.357 206.777 165.037 207.769 164.397C208.761 163.757 209.497 162.693 209.977 161.205H206.977C206.865 161.589 206.561 161.957 206.065 162.309C205.569 162.645 204.977 162.813 204.289 162.813C203.329 162.813 202.593 162.565 202.081 162.069C201.569 161.573 201.289 160.773 201.241 159.669ZM215.382 158.517L210.918 165.045H214.734L217.326 161.133L219.918 165.045H223.806L219.222 158.445L223.302 152.637H219.534L217.374 155.877L215.19 152.637H211.302L215.382 158.517ZM224.961 156.453C225.009 155.653 225.209 154.989 225.561 154.461C225.913 153.933 226.361 153.509 226.905 153.189C227.449 152.869 228.057 152.645 228.729 152.517C229.417 152.373 230.105 152.301 230.793 152.301C231.417 152.301 232.049 152.349 232.689 152.445C233.329 152.525 233.913 152.693 234.441 152.949C234.969 153.205 235.401 153.565 235.737 154.029C236.073 154.477 236.241 155.077 236.241 155.829V162.285C236.241 162.845 236.273 163.381 236.337 163.893C236.401 164.405 236.513 164.789 236.673 165.045H233.217C233.153 164.853 233.097 164.661 233.049 164.469C233.017 164.261 232.993 164.053 232.977 163.845C232.433 164.405 231.793 164.797 231.057 165.021C230.321 165.245 229.569 165.357 228.801 165.357C228.209 165.357 227.657 165.285 227.145 165.141C226.633 164.997 226.185 164.773 225.801 164.469C225.417 164.165 225.113 163.781 224.889 163.317C224.681 162.853 224.577 162.301 224.577 161.661C224.577 160.957 224.697 160.381 224.937 159.933C225.193 159.469 225.513 159.101 225.897 158.829C226.297 158.557 226.745 158.357 227.241 158.229C227.753 158.085 228.265 157.973 228.777 157.893C229.289 157.813 229.793 157.749 230.289 157.701C230.785 157.653 231.225 157.581 231.609 157.485C231.993 157.389 232.297 157.253 232.521 157.077C232.745 156.885 232.849 156.613 232.833 156.261C232.833 155.893 232.769 155.605 232.641 155.397C232.529 155.173 232.369 155.005 232.161 154.893C231.969 154.765 231.737 154.685 231.465 154.653C231.209 154.605 230.929 154.581 230.625 154.581C229.953 154.581 229.425 154.725 229.041 155.013C228.657 155.301 228.433 155.781 228.369 156.453H224.961ZM232.833 158.973C232.689 159.101 232.505 159.205 232.281 159.285C232.073 159.349 231.841 159.405 231.585 159.453C231.345 159.501 231.089 159.541 230.817 159.573C230.545 159.605 230.273 159.645 230.001 159.693C229.745 159.741 229.489 159.805 229.233 159.885C228.993 159.965 228.777 160.077 228.585 160.221C228.409 160.349 228.265 160.517 228.153 160.725C228.041 160.933 227.985 161.197 227.985 161.517C227.985 161.821 228.041 162.077 228.153 162.285C228.265 162.493 228.417 162.661 228.609 162.789C228.801 162.901 229.025 162.981 229.281 163.029C229.537 163.077 229.801 163.101 230.073 163.101C230.745 163.101 231.265 162.989 231.633 162.765C232.001 162.541 232.273 162.277 232.449 161.973C232.625 161.653 232.729 161.333 232.761 161.013C232.809 160.693 232.833 160.437 232.833 160.245V158.973ZM238.982 152.637V165.045H242.39V157.845C242.39 157.237 242.478 156.749 242.654 156.381C242.83 155.997 243.038 155.709 243.278 155.517C243.534 155.309 243.79 155.173 244.046 155.109C244.318 155.029 244.534 154.989 244.694 154.989C245.238 154.989 245.646 155.085 245.918 155.277C246.206 155.453 246.406 155.693 246.518 155.997C246.646 156.301 246.718 156.637 246.734 157.005C246.75 157.357 246.758 157.717 246.758 158.085V165.045H250.166V158.133C250.166 157.749 250.19 157.373 250.238 157.005C250.302 156.621 250.414 156.285 250.574 155.997C250.75 155.693 250.982 155.453 251.27 155.277C251.574 155.085 251.966 154.989 252.446 154.989C252.926 154.989 253.302 155.069 253.574 155.229C253.862 155.389 254.078 155.605 254.222 155.877C254.366 156.149 254.454 156.469 254.486 156.837C254.518 157.205 254.534 157.597 254.534 158.013V165.045H257.942V156.741C257.942 155.941 257.83 155.261 257.606 154.701C257.382 154.125 257.07 153.661 256.67 153.309C256.27 152.957 255.79 152.701 255.23 152.541C254.67 152.381 254.062 152.301 253.406 152.301C252.542 152.301 251.79 152.509 251.15 152.925C250.526 153.341 250.03 153.821 249.662 154.365C249.326 153.597 248.83 153.061 248.174 152.757C247.534 152.453 246.822 152.301 246.038 152.301C245.222 152.301 244.494 152.477 243.854 152.829C243.23 153.181 242.694 153.677 242.246 154.317H242.198V152.637H238.982ZM266.9 162.813C266.356 162.813 265.892 162.701 265.508 162.477C265.124 162.253 264.812 161.965 264.572 161.613C264.348 161.245 264.18 160.821 264.068 160.341C263.972 159.861 263.924 159.373 263.924 158.877C263.924 158.365 263.972 157.869 264.068 157.389C264.164 156.909 264.324 156.485 264.548 156.117C264.788 155.749 265.092 155.453 265.46 155.229C265.844 154.989 266.316 154.869 266.876 154.869C267.42 154.869 267.876 154.989 268.244 155.229C268.628 155.453 268.94 155.757 269.18 156.141C269.42 156.509 269.588 156.933 269.684 157.413C269.796 157.893 269.852 158.381 269.852 158.877C269.852 159.373 269.804 159.861 269.708 160.341C269.612 160.821 269.444 161.245 269.204 161.613C268.98 161.965 268.676 162.253 268.292 162.477C267.924 162.701 267.46 162.813 266.9 162.813ZM260.636 152.637V169.389H264.044V163.509H264.092C264.508 164.117 265.036 164.581 265.676 164.901C266.332 165.205 267.044 165.357 267.812 165.357C268.724 165.357 269.516 165.181 270.188 164.829C270.876 164.477 271.444 164.005 271.892 163.413C272.356 162.821 272.7 162.141 272.924 161.373C273.148 160.605 273.26 159.805 273.26 158.973C273.26 158.093 273.148 157.253 272.924 156.453C272.7 155.637 272.356 154.925 271.892 154.317C271.428 153.709 270.844 153.221 270.14 152.853C269.436 152.485 268.596 152.301 267.62 152.301C266.852 152.301 266.148 152.453 265.508 152.757C264.868 153.061 264.34 153.549 263.924 154.221H263.876V152.637H260.636ZM275.404 147.909V165.045H278.812V147.909H275.404ZM289.847 157.509H284.303C284.319 157.269 284.367 156.997 284.447 156.693C284.543 156.389 284.695 156.101 284.903 155.829C285.127 155.557 285.415 155.333 285.767 155.157C286.135 154.965 286.591 154.869 287.135 154.869C287.967 154.869 288.583 155.093 288.983 155.541C289.399 155.989 289.687 156.645 289.847 157.509ZM284.303 159.669H293.255C293.319 158.709 293.239 157.789 293.015 156.909C292.791 156.029 292.423 155.245 291.911 154.557C291.415 153.869 290.775 153.325 289.991 152.925C289.207 152.509 288.287 152.301 287.231 152.301C286.287 152.301 285.423 152.469 284.639 152.805C283.871 153.141 283.207 153.605 282.647 154.197C282.087 154.773 281.655 155.461 281.351 156.261C281.047 157.061 280.895 157.925 280.895 158.853C280.895 159.813 281.039 160.693 281.327 161.493C281.631 162.293 282.055 162.981 282.599 163.557C283.143 164.133 283.807 164.581 284.591 164.901C285.375 165.205 286.255 165.357 287.231 165.357C288.639 165.357 289.839 165.037 290.831 164.397C291.823 163.757 292.559 162.693 293.039 161.205H290.039C289.927 161.589 289.623 161.957 289.127 162.309C288.631 162.645 288.039 162.813 287.351 162.813C286.391 162.813 285.655 162.565 285.143 162.069C284.631 161.573 284.351 160.773 284.303 159.669ZM295.42 161.349V165.045H299.188V161.349H295.42ZM310.404 157.005H313.74C313.692 156.205 313.5 155.517 313.164 154.941C312.828 154.349 312.388 153.861 311.844 153.477C311.316 153.077 310.708 152.781 310.02 152.589C309.348 152.397 308.644 152.301 307.908 152.301C306.9 152.301 306.004 152.469 305.22 152.805C304.436 153.141 303.772 153.613 303.228 154.221C302.684 154.813 302.268 155.525 301.98 156.357C301.708 157.173 301.572 158.061 301.572 159.021C301.572 159.949 301.724 160.805 302.028 161.589C302.332 162.357 302.756 163.021 303.3 163.581C303.844 164.141 304.5 164.581 305.268 164.901C306.052 165.205 306.908 165.357 307.836 165.357C309.484 165.357 310.836 164.925 311.892 164.061C312.948 163.197 313.588 161.941 313.812 160.293H310.524C310.412 161.061 310.132 161.677 309.684 162.141C309.252 162.589 308.628 162.813 307.812 162.813C307.284 162.813 306.836 162.693 306.468 162.453C306.1 162.213 305.804 161.909 305.58 161.541C305.372 161.157 305.22 160.733 305.124 160.269C305.028 159.805 304.98 159.349 304.98 158.901C304.98 158.437 305.028 157.973 305.124 157.509C305.22 157.029 305.38 156.597 305.604 156.213C305.844 155.813 306.148 155.493 306.516 155.253C306.884 154.997 307.34 154.869 307.884 154.869C309.34 154.869 310.18 155.581 310.404 157.005ZM318.761 158.853C318.761 158.357 318.809 157.869 318.905 157.389C319.001 156.909 319.161 156.485 319.385 156.117C319.625 155.749 319.937 155.453 320.321 155.229C320.705 154.989 321.185 154.869 321.761 154.869C322.337 154.869 322.817 154.989 323.201 155.229C323.601 155.453 323.913 155.749 324.137 156.117C324.377 156.485 324.545 156.909 324.641 157.389C324.737 157.869 324.785 158.357 324.785 158.853C324.785 159.349 324.737 159.837 324.641 160.317C324.545 160.781 324.377 161.205 324.137 161.589C323.913 161.957 323.601 162.253 323.201 162.477C322.817 162.701 322.337 162.813 321.761 162.813C321.185 162.813 320.705 162.701 320.321 162.477C319.937 162.253 319.625 161.957 319.385 161.589C319.161 161.205 319.001 160.781 318.905 160.317C318.809 159.837 318.761 159.349 318.761 158.853ZM315.353 158.853C315.353 159.845 315.505 160.741 315.809 161.541C316.113 162.341 316.545 163.029 317.105 163.605C317.665 164.165 318.337 164.597 319.121 164.901C319.905 165.205 320.785 165.357 321.761 165.357C322.737 165.357 323.617 165.205 324.401 164.901C325.201 164.597 325.881 164.165 326.441 163.605C327.001 163.029 327.433 162.341 327.737 161.541C328.041 160.741 328.193 159.845 328.193 158.853C328.193 157.861 328.041 156.965 327.737 156.165C327.433 155.349 327.001 154.661 326.441 154.101C325.881 153.525 325.201 153.085 324.401 152.781C323.617 152.461 322.737 152.301 321.761 152.301C320.785 152.301 319.905 152.461 319.121 152.781C318.337 153.085 317.665 153.525 317.105 154.101C316.545 154.661 316.113 155.349 315.809 156.165C315.505 156.965 315.353 157.861 315.353 158.853ZM330.505 152.637V165.045H333.913V157.845C333.913 157.237 334.001 156.749 334.177 156.381C334.353 155.997 334.561 155.709 334.801 155.517C335.057 155.309 335.313 155.173 335.569 155.109C335.841 155.029 336.057 154.989 336.217 154.989C336.761 154.989 337.169 155.085 337.441 155.277C337.729 155.453 337.929 155.693 338.041 155.997C338.169 156.301 338.241 156.637 338.257 157.005C338.273 157.357 338.281 157.717 338.281 158.085V165.045H341.689V158.133C341.689 157.749 341.713 157.373 341.761 157.005C341.825 156.621 341.937 156.285 342.097 155.997C342.273 155.693 342.505 155.453 342.793 155.277C343.097 155.085 343.489 154.989 343.969 154.989C344.449 154.989 344.825 155.069 345.097 155.229C345.385 155.389 345.601 155.605 345.745 155.877C345.889 156.149 345.977 156.469 346.009 156.837C346.041 157.205 346.057 157.597 346.057 158.013V165.045H349.465V156.741C349.465 155.941 349.353 155.261 349.129 154.701C348.905 154.125 348.593 153.661 348.193 153.309C347.793 152.957 347.313 152.701 346.753 152.541C346.193 152.381 345.585 152.301 344.929 152.301C344.065 152.301 343.313 152.509 342.673 152.925C342.049 153.341 341.553 153.821 341.185 154.365C340.849 153.597 340.353 153.061 339.697 152.757C339.057 152.453 338.345 152.301 337.561 152.301C336.745 152.301 336.017 152.477 335.377 152.829C334.753 153.181 334.217 153.677 333.769 154.317H333.721V152.637H330.505Z" fill="black"/>
<defs>
<clipPath id="clip0_968_14509">
<rect x="94" y="33.3528" width="66.4615" height="66.4615" rx="33.2308" fill="white"/>
</clipPath>
<clipPath id="clip1_968_14509">
<rect x="94" y="33.3528" width="66.4615" height="66.4615" rx="33.2308" fill="white"/>
</clipPath>
<clipPath id="clip2_968_14509">
<rect x="387.539" y="33.3533" width="66.4615" height="66.4615" rx="33.2308" fill="white"/>
</clipPath>
<clipPath id="clip3_968_14509">
<rect x="387.539" y="33.3533" width="66.4615" height="66.4615" rx="33.2308" fill="white"/>
</clipPath>
</defs>
</svg>
