<svg width="1065" height="1065" viewBox="0 0 1065 1065" fill="none" xmlns="http://www.w3.org/2000/svg">
<path d="M532.242 868.579C472.327 868.579 417.326 848.507 381.916 818.53C363.931 823.908 340.926 832.559 326.412 843.292C313.983 852.469 315.537 861.828 317.774 865.603C327.603 882.207 486.401 876.206 532.242 871.039V868.579ZM532.242 868.579C592.168 868.579 647.164 848.507 682.579 818.53C700.554 823.908 723.563 832.559 738.082 843.292C750.502 852.469 748.953 861.828 746.711 865.603C736.882 882.207 578.089 876.206 532.242 871.039V868.579Z" fill="#FAAB07"/>
<path d="M532.592 509.153C631.542 508.483 710.843 489.31 737.715 481.961C744.121 480.205 747.544 477.061 747.544 477.061C747.567 476.157 747.95 460.936 747.95 453.089C747.95 320.865 685.591 188.005 532.229 188C378.866 188.005 316.503 320.87 316.503 453.084C316.503 460.941 316.885 476.157 316.914 477.056C316.914 477.056 319.701 479.999 324.802 481.425C349.614 488.334 430.406 508.459 531.861 509.153H532.592ZM801.479 619.299C795.345 599.543 786.974 576.504 778.493 554.379C778.493 554.379 773.617 553.776 771.145 554.489C695.071 576.609 602.858 590.71 532.592 589.858H531.861C461.987 590.696 370.4 576.762 294.579 554.857C291.682 554.02 285.964 554.379 285.964 554.379C277.484 576.504 269.113 599.548 262.979 619.299C233.726 713.513 243.206 752.499 250.42 753.37C265.905 755.246 310.685 682.454 310.685 682.454C310.685 756.423 377.408 869.996 530.202 871.039H534.256C687.045 869.996 753.768 756.423 753.768 682.454C753.768 682.454 798.553 755.246 814.037 753.375C821.246 752.5 830.726 713.508 801.479 619.299Z" fill="black"/>
<path d="M477.657 383.336C456.852 384.278 439.077 360.56 437.959 330.401C436.831 300.233 452.769 275.012 473.574 274.069C494.356 273.136 512.125 296.845 513.254 327.013C514.391 357.187 498.448 382.407 477.657 383.336ZM626.492 330.401C625.378 360.555 607.604 384.278 586.799 383.336C566.003 382.403 550.064 357.187 551.202 327.018C552.33 296.85 570.095 273.141 590.881 274.069C611.687 275.012 627.625 300.233 626.492 330.401Z" fill="white"/>
<path d="M663.466 425.925C657.911 413.605 601.915 399.872 532.601 399.872H531.855C462.536 399.872 406.545 413.605 400.985 425.93C400.722 426.479 400.584 427.078 400.579 427.686C400.579 428.576 400.88 429.371 401.344 430.06C406.029 436.888 468.201 470.668 531.855 470.668H532.601C596.25 470.668 658.422 436.897 663.107 430.06C663.6 429.362 663.867 428.531 663.872 427.677C663.867 427.072 663.728 426.475 663.466 425.93" fill="#FAAB07"/>
<path d="M503.229 330.846C504.18 342.76 497.65 353.344 488.667 354.498C479.665 355.656 471.61 346.938 470.653 335.023C469.712 323.1 476.232 312.516 485.201 311.367C494.217 310.2 502.287 318.932 503.229 330.846ZM560.386 334.827C562.226 331.53 574.747 314.195 600.672 320.506C607.485 322.167 610.635 324.607 611.3 325.564C612.28 326.98 612.552 328.999 611.553 331.717C609.583 337.105 605.515 336.956 603.263 335.904C601.805 335.224 583.749 323.176 567.112 341.153C565.965 342.382 563.919 342.808 561.983 341.344C560.037 339.87 559.238 336.894 560.386 334.827Z" fill="black"/>
<path d="M532.591 585.523H531.86C484.073 586.098 426.132 579.762 370.017 568.69C365.217 596.528 362.32 631.525 364.806 673.253C371.097 778.725 433.68 845.028 530.282 845.985H534.202C630.809 845.028 693.388 778.725 699.689 673.253C702.175 631.515 699.273 596.528 694.468 568.686C638.348 579.762 580.393 586.102 532.596 585.519" fill="white"/>
<path d="M396.468 576.695V680.493C396.468 680.493 443.973 690.081 491.569 683.44V587.7C461.417 585.992 428.9 582.188 396.468 576.695Z" fill="#EB1923"/>
<path d="M747.543 477.061C747.543 477.061 655.133 506.258 532.591 507.086H531.86C409.519 506.263 317.229 477.156 316.913 477.061L285.964 554.374C363.376 577.734 459.314 592.787 531.86 591.911H532.591C605.137 592.787 701.07 577.734 778.492 554.374L747.543 477.061Z" fill="#EB1923"/>
</svg>
