<?xml version="1.0" encoding="iso-8859-1"?>
<!-- Generator: Adobe Illustrator 16.0.0, SVG Export Plug-In . SVG Version: 6.00 Build 0)  -->
<!DOCTYPE svg PUBLIC "-//W3C//DTD SVG 1.1//EN" "http://www.w3.org/Graphics/SVG/1.1/DTD/svg11.dtd">
<svg version="1.1" id="Capa_1" xmlns="http://www.w3.org/2000/svg" xmlns:xlink="http://www.w3.org/1999/xlink" x="0px" y="0px"
	 width="79.536px" height="79.536px" viewBox="0 0 79.536 79.536" style="enable-background:new 0 0 79.536 79.536;"
	 xml:space="preserve">
<g>
	<path style="fill:#010002;" d="M39.773,1.31L0,31.004v47.222h79.536V31.004L39.773,1.31z M28.77,22.499
		c1.167-2.133,2.775-3.739,4.815-4.805c2.035-1.075,4.357-1.616,6.983-1.616c2.214,0,4.191,0.435,5.921,1.292
		c1.729,0.87,3.045,2.094,3.967,3.687c0.9,1.595,1.367,3.334,1.367,5.217c0,2.247-0.694,4.279-2.082,6.097
		c-1.74,2.292-3.961,3.436-6.68,3.436c-0.732,0-1.279-0.122-1.654-0.38c-0.365-0.262-0.621-0.632-0.743-1.129
		c-1.022,1.012-2.231,1.52-3.589,1.52c-1.465,0-2.679-0.507-3.643-1.509c-0.966-1.012-1.447-2.361-1.447-4.031
		c0-2.084,0.578-3.966,1.743-5.672c1.416-2.084,3.218-3.13,5.424-3.13c1.571,0,2.731,0.601,3.475,1.805l0.331-1.468h3.5
		l-1.998,9.479c-0.125,0.606-0.187,0.986-0.187,1.163c0,0.228,0.052,0.38,0.149,0.497c0.099,0.111,0.223,0.165,0.357,0.165
		c0.436,0,0.979-0.248,1.646-0.769c0.901-0.663,1.627-1.574,2.181-2.695c0.554-1.129,0.839-2.299,0.839-3.508
		c0-2.165-0.782-3.977-2.352-5.445c-1.573-1.45-3.77-2.185-6.578-2.185c-2.393,0-4.417,0.487-6.077,1.468
		c-1.66,0.966-2.913,2.343-3.765,4.114c-0.839,1.76-1.258,3.607-1.258,5.52c0,1.856,0.479,3.552,1.411,5.074
		c0.945,1.533,2.26,2.641,3.956,3.345c1.696,0.697,3.643,1.046,5.828,1.046c2.097,0,3.909-0.293,5.432-0.881
		c1.522-0.587,2.739-1.457,3.666-2.641h2.807c-0.88,1.792-2.227,3.192-4.049,4.215c-2.092,1.163-4.64,1.74-7.644,1.74
		c-2.918,0-5.426-0.487-7.542-1.468c-2.121-0.986-3.689-2.434-4.73-4.35c-1.028-1.918-1.535-4.008-1.535-6.268
		C27.017,26.952,27.595,24.64,28.77,22.499z M2.804,31.941l29.344,19.68L2.804,74.333V31.941z M5.033,75.844l34.74-26.885
		l34.729,26.885H5.033z M76.729,74.333L47.391,51.621l29.339-19.68V74.333z M41.205,24.661c0.466,0.531,0.699,1.295,0.699,2.292
		c0,0.891-0.174,1.856-0.513,2.879c-0.334,1.036-0.743,1.826-1.209,2.361c-0.318,0.375-0.658,0.652-0.992,0.826
		c-0.439,0.249-0.906,0.37-1.41,0.37c-0.674,0.006-1.23-0.264-1.691-0.794c-0.45-0.531-0.673-1.346-0.673-2.465
		c0-0.839,0.158-1.805,0.487-2.889c0.329-1.088,0.81-1.916,1.453-2.509c0.647-0.588,1.346-0.881,2.1-0.881
		C40.162,23.856,40.749,24.125,41.205,24.661z"/>
</g>
<g>
</g>
<g>
</g>
<g>
</g>
<g>
</g>
<g>
</g>
<g>
</g>
<g>
</g>
<g>
</g>
<g>
</g>
<g>
</g>
<g>
</g>
<g>
</g>
<g>
</g>
<g>
</g>
<g>
</g>
</svg>
