<?xml version="1.0" encoding="iso-8859-1"?>
<!-- Generator: Adobe Illustrator 17.1.0, SVG Export Plug-In . SVG Version: 6.00 Build 0)  -->
<!DOCTYPE svg PUBLIC "-//W3C//DTD SVG 1.1//EN" "http://www.w3.org/Graphics/SVG/1.1/DTD/svg11.dtd">
<svg version="1.1" id="Capa_1" xmlns="http://www.w3.org/2000/svg" xmlns:xlink="http://www.w3.org/1999/xlink" x="0px" y="0px"
	 viewBox="0 0 351.378 351.378" style="enable-background:new 0 0 351.378 351.378;" xml:space="preserve">
<g>
	<path d="M161.218,307.244h-21.439c-1.626,0-3,1.374-3,3v14.411c0,1.626,1.374,3,3,3h21.439c1.626,0,3-1.374,3-3v-14.411
		C164.218,308.618,162.844,307.244,161.218,307.244z"/>
	<path d="M305.521,86.638H264.14V20c0-11.028-8.972-20-20-20H56.857c-11.028,0-20,8.972-20,20v311.378c0,11.028,8.972,20,20,20
		H244.14c11.028,0,20-8.972,20-20V207.395h41.381c4.962,0,9-4.038,9-9V95.638C314.521,90.675,310.484,86.638,305.521,86.638z
		 M134.639,15.972h31.719c2.761,0,5,2.239,5,5c0,2.761-2.239,5-5,5h-31.719c-2.761,0-5-2.239-5-5
		C129.639,18.211,131.878,15.972,134.639,15.972z M174.218,324.655c0,7.169-5.832,13-13,13h-21.439c-7.168,0-13-5.831-13-13v-14.411
		c0-7.168,5.832-13,13-13h21.439c7.168,0,13,5.832,13,13V324.655z M240.755,280.846c0,2.75-2.25,5-5,5H65.242c-2.75,0-5-2.25-5-5
		V44.611c0-2.75,2.25-5,5-5h170.513c2.75,0,5,2.25,5,5v42.026h-68.766c-4.962,0-9,4.038-9,9v102.758c0,4.962,4.038,9,9,9h9.927
		v22.425c0,4.731,3.251,7.206,6.464,7.206c1.151,0,2.917-0.318,4.789-1.832l32.661-26.396c0.828-0.669,2.904-1.403,3.968-1.403
		h10.957V280.846z M201.398,152.764c-5.327-0.506-14.244-2.936-14.244-13.54c0-10.757,9.146-13.627,14.55-13.627
		c5.3,0,9.813,3.175,10.003,3.311c2.014,1.436,2.528,4.275,1.146,6.327c0,0-1.275,2.417-1.987,2.951
		c-0.405,0.303-1.221,0.388-2-0.303c-1.974-1.755-4.107-2.675-7.027-2.675c-2.084,0-5.58,0.478-5.58,3.676
		c0,1.564,0.597,3.691,5.754,4.105c6.85,0.558,14.712,2.65,14.712,13.967c0,7.122-4.583,14.309-14.82,14.309
		c-4.753,0-10.258-0.855-15.281-7.039c-0.173-0.213-0.606-0.963-0.302-1.671c0.386-0.899,1.878-3.436,1.878-3.436
		c0.723-1.322,2.006-2.111,3.434-2.111c0.858,0,1.698,0.288,2.428,0.833c0.044,0.033,4.48,3.309,7.99,3.39l0.176,0.002
		c2.617,0,5.324-1.695,5.324-4.532C207.553,154.543,206.524,153.134,201.398,152.764z M264.935,168.763c0,1.378-1.122,2.5-2.5,2.5
		h-3.668c-1.378,0-2.5-1.122-2.5-2.5v-26.48c0-0.165-0.014-0.285-0.031-0.368c-0.059,0.057-0.142,0.146-0.239,0.281l-10.895,15.003
		c-0.458,0.631-1.536,1.824-2.335,1.824c-0.802,0-1.868-1.206-2.319-1.843l-10.644-15.035c-0.09-0.127-0.164-0.212-0.221-0.268
		c-0.015,0.079-0.026,0.191-0.026,0.346v26.54c0,1.378-1.122,2.5-2.5,2.5h-3.668c-1.378,0-2.5-1.122-2.5-2.5v-38
		c0-1.378,1.122-2.5,2.5-2.5h4.83c1.267,0,2.831,0.812,3.561,1.847l10.419,14.79c0.42,0.597,1.065,0.597,1.486,0l10.419-14.79
		c0.73-1.036,2.294-1.847,3.561-1.847h4.772c1.378,0,2.5,1.122,2.5,2.5V168.763z M283.946,171.263
		c-4.759,0-10.273-0.857-15.302-7.065c-0.166-0.205-0.625-0.718-0.135-1.912c0.343-0.835,1.732-3.169,1.732-3.169
		c0.723-1.322,2.006-2.111,3.434-2.111c0.859,0,1.698,0.288,2.428,0.833c0.044,0.033,4.48,3.309,7.99,3.39l0.176,0.002
		c2.617,0,5.324-1.695,5.324-4.532c0-2.155-1.03-3.564-6.156-3.934c-5.327-0.506-14.244-2.936-14.244-13.54
		c0-10.757,9.146-13.627,14.55-13.627c5.3,0,9.813,3.175,10.003,3.311c2.014,1.436,2.528,4.275,1.146,6.327
		c0,0-1.492,2.179-1.967,2.921c-0.468,0.731-1.542,0.216-1.723,0.026c-1.958-2.052-4.25-2.975-7.324-2.975
		c-2.083,0-5.579,0.478-5.579,3.676c0,1.564,0.597,3.691,5.754,4.105c6.85,0.558,14.712,2.65,14.712,13.967
		C298.766,164.076,294.183,171.263,283.946,171.263z"/>
</g>
<g>
</g>
<g>
</g>
<g>
</g>
<g>
</g>
<g>
</g>
<g>
</g>
<g>
</g>
<g>
</g>
<g>
</g>
<g>
</g>
<g>
</g>
<g>
</g>
<g>
</g>
<g>
</g>
<g>
</g>
</svg>
