<?xml version="1.0" ?><!DOCTYPE svg  PUBLIC '-//W3C//DTD SVG 1.1//EN'  'http://www.w3.org/Graphics/SVG/1.1/DTD/svg11.dtd'><svg height="512px" style="enable-background:new 0 0 512 512;" version="1.1" viewBox="0 0 512 512" width="512px" xml:space="preserve" xmlns="http://www.w3.org/2000/svg" xmlns:xlink="http://www.w3.org/1999/xlink"><g id="_x35_95_x2C__Api_x2C__interface_x2C__mobile_x2C__phone_x2C__smartphone"><g><path d="M140.106,97.469h231.785V63.768v-0.173v-0.173l-0.027-0.201v-0.174v-0.174    l-0.029-0.201v-0.173l-0.027-0.173l-0.031-0.202v-0.173l-0.028-0.173l-0.028-0.173l0,0l-0.028-0.173l-0.028-0.173l-0.031-0.203    l-0.027-0.172l-0.057-0.174l-0.031-0.172l0,0l-0.057-0.174l0,0l-0.027-0.172l-0.061-0.174l-0.027-0.173l0,0l-0.057-0.173    l-0.06-0.145l0,0l-0.056-0.172l0,0l-0.061-0.174l0,0l-0.056-0.174l0,0L371,58.838l-0.061-0.145l-0.056-0.172l-0.06-0.145    l-0.084-0.174l0,0l-0.061-0.173l-0.084-0.144l-0.06-0.173l-0.085-0.144l-0.059-0.174l-0.088-0.145l-0.084-0.144l-0.088-0.173    l-0.084-0.145l-0.088-0.145l-0.088-0.144l-0.084-0.173l-0.088-0.145l-0.088-0.145l-0.116-0.144l-0.084-0.145l-0.088-0.144    l-0.116-0.145l-0.084-0.145l-0.115-0.115l-0.116-0.144l-0.088-0.144l-0.116-0.146l-0.111-0.114l-0.116-0.145l-0.088-0.115    l-0.116-0.145l-0.115-0.115l-0.112-0.145l-0.116-0.115l-0.144-0.115l-0.116-0.145l-0.115-0.115l-0.115-0.115l-0.145-0.115    l-0.115-0.115l-0.145-0.115l0,0l-0.115-0.115l-0.145-0.115l0,0l-0.115-0.115l-0.145-0.115l-0.144-0.087l-0.116-0.115l0,0    l-0.144-0.114l0,0l-0.144-0.088l-0.145-0.114l0,0l-0.144-0.087l0,0l-0.288-0.201l0,0l-0.144-0.088l0,0l-0.288-0.201l-0.436-0.26    h-0.027l-0.145-0.086l0,0l-0.144-0.086l0,0l-0.144-0.059h-0.028l-0.144-0.086l0,0l-0.32-0.145l0,0l-0.144-0.087l0,0l-0.172-0.058    l0,0l-0.491-0.201l0,0l-0.316-0.145l0,0l-0.315-0.115l0,0l-0.175-0.058l-0.344-0.086l0,0l-0.176-0.058l0,0l-0.172-0.059    l-0.172-0.029l-0.176-0.057l0,0l-0.344-0.087l-0.172-0.028l-0.176-0.029l-0.172-0.029l-0.172-0.027l-0.176-0.029l0,0l-0.2-0.029    l-0.172-0.029l-0.175-0.028l-0.173-0.028h-0.172l-0.204-0.029h-0.172l-0.172-0.028l0,0h-0.203h-0.172h-0.203h-0.172H154.491    h-0.172l0,0h-0.176h-0.028h-0.172l0,0h-0.172l0,0l-0.176,0.028h-0.028h-0.144h-0.028l-0.144,0.029h-0.028h-0.175h-0.028    l-0.144,0.028h-0.028l-0.144,0.028h-0.028h-0.147l-0.028,0.029h-0.144l-0.028,0.029h-0.144l-0.06,0.029h-0.112l-0.06,0.027h-0.116    l-0.056,0.029l-0.116,0.029h-0.056l-0.116,0.028h-0.06l-0.116,0.029l-0.056,0.028h-0.116l-0.056,0.029l-0.087,0.028l-0.088,0.028    h-0.084l-0.088,0.029l-0.088,0.029l-0.084,0.029l-0.088,0.028l-0.084,0.029h-0.087l-0.088,0.028l-0.056,0.028l-0.116,0.029    l-0.056,0.028l-0.088,0.029l-0.087,0.029l-0.26,0.086l-0.056,0.029l-0.116,0.028l-0.028,0.029l-0.116,0.058l-0.172,0.057    l-0.06,0.029l-0.116,0.029l-0.144,0.086h-0.028l-0.144,0.058l-0.144,0.087h-0.028c-1.53,0.721-2.885,1.701-4.067,2.854    l-0.112,0.145l-0.116,0.115l-0.116,0.115l-0.144,0.145l-0.088,0.115l-0.144,0.145l-0.087,0.115l-0.112,0.145l-0.116,0.114    l-0.116,0.146l-0.087,0.144l-0.116,0.144l-0.112,0.115l-0.088,0.145l-0.116,0.145l-0.088,0.144l-0.084,0.145l-0.116,0.144    l-0.087,0.145l-0.084,0.145l-0.088,0.173l-0.087,0.144l-0.084,0.145l-0.087,0.145l-0.088,0.173l-0.084,0.144l-0.06,0.145    l-0.084,0.174l-0.088,0.144l-0.056,0.173l-0.088,0.144l-0.056,0.173l0,0l-0.06,0.174l-0.088,0.145l-0.056,0.172L141,58.838    l-0.06,0.172l0,0l-0.056,0.174l0,0l-0.06,0.174l0,0l-0.056,0.172l0,0l-0.06,0.145l-0.056,0.173l0,0l-0.028,0.173l-0.06,0.174    l-0.028,0.172l0,0l-0.056,0.174l0,0l-0.028,0.172l-0.031,0.174l-0.057,0.172l-0.028,0.203l-0.032,0.173l-0.028,0.173l0,0    l-0.028,0.173l-0.028,0.173v0.173l-0.028,0.202l-0.031,0.173v0.173l-0.028,0.201v0.174v0.174v0.201l-0.028,0.173v0.173V97.469z     M371.891,368.261H140.106v47.423c0,3.864,1.558,7.381,4.064,9.977l0.172,0.172c2.597,2.595,6.201,4.209,10.149,4.209h203.015    c3.951,0,7.552-1.614,10.148-4.209c2.594-2.596,4.236-6.198,4.236-10.148V368.261z M262.829,392.218    c-1.758-1.73-4.18-2.825-6.829-2.825c-2.653,0-5.075,1.095-6.805,2.825c-1.758,1.759-2.825,4.149-2.825,6.831    c0,2.653,1.067,5.075,2.825,6.805c1.73,1.759,4.151,2.825,6.805,2.825c2.649,0,5.071-1.066,6.829-2.825    c1.73-1.729,2.825-4.151,2.825-6.805C265.654,396.367,264.56,393.977,262.829,392.218z M256,382.301    c4.611,0,8.819,1.902,11.819,4.9c3.025,3.027,4.899,7.207,4.899,11.848c0,4.613-1.874,8.793-4.899,11.82    c-3,3.026-7.208,4.9-11.819,4.9c-4.615,0-8.795-1.874-11.82-4.9c-3.029-3.027-4.903-7.207-4.903-11.82    c0-4.641,1.874-8.82,4.903-11.848C247.205,384.203,251.385,382.301,256,382.301z M237.951,74.175    c-1.958,0-3.544-1.585-3.544-3.546s1.586-3.546,3.544-3.546h36.095c1.962,0,3.544,1.585,3.544,3.546s-1.582,3.546-3.544,3.546    H237.951z M231.781,218.176c-0.807,0.779-1.555,1.644-2.246,2.537c-4.008,5.103-6.401,11.531-6.401,18.509    c0,7.38,2.653,14.126,7.064,19.345c0.516,0.633,1.095,1.238,1.67,1.815l0.375,0.376l13.259-13.263    c2.078-2.075,4.787-3.112,7.528-3.112c2.709,0,5.447,1.037,7.493,3.112l13.263,13.263l0.375-0.376    c5.419-5.421,8.764-12.887,8.764-21.16c0-8.216-3.316-15.654-8.679-21.046l-13.723,13.723c-2.046,2.047-4.783,3.086-7.493,3.086    c-2.712,0-5.45-1.039-7.528-3.086L231.781,218.176z M253,209.326h0.031l0,0v0.029L253,209.326z M285.347,178.969    c3.775,2.248,7.58-3.719,3.344-6.256c-2.221-1.154-4.383-2.191-6.688-3.172c-4.468-1.787-6.949,4.844-2.737,6.545    C281.366,176.951,283.328,177.902,285.347,178.969z M318.557,219.647c2.018,5.015,8.248,1.585,6.777-2.077    c-0.723-2.363-1.53-4.67-2.481-6.976c-1.643-4.095-8.304-1.702-6.542,2.709C317.174,215.12,317.981,217.715,318.557,219.647z     M321.038,246.284c-0.607,3.114,4.296,5.968,6.745,1.874c0.172-0.461,0.2-0.605,0.316-1.152c0.175-2.537,0.318-4.873,0.375-7.408    c0-1.357-0.863-2.74-1.99-3.201c-2.361-1.183-5.07,0.633-5.07,3.201C321.498,241.759,321.182,244.123,321.038,246.284z     M272.287,304.865c-5.046,2.018-1.586,8.245,2.046,6.775c2.307-0.664,4.756-1.499,6.978-2.422    c4.208-1.701,1.758-8.332-2.653-6.574C276.64,303.51,274.394,304.26,272.287,304.865z M245.619,307.229    c-1.499-0.316-3.141,0.923-3.601,2.076c-1.011,2.51,0.516,4.497,2.881,4.959c2.509,0.231,4.871,0.403,7.409,0.434    c4.699,0,4.671-7.094,0.028-7.094C250.059,307.576,247.896,307.431,245.619,307.229z M220.105,299.187    c-3.86-2.308-7.465,3.776-3.517,6.17c2.078,1.181,4.583,2.392,6.805,3.284c4.496,1.818,6.917-4.843,2.769-6.515    C224.057,301.175,222.123,300.281,220.105,299.187z M278.801,265.744l0.376-0.375c6.688-6.688,10.841-15.941,10.841-26.147    c0-10.147-4.096-19.345-10.753-26.062l9.079-9.081h83.547v71.208h-52.555l0.028-0.059c1.183-2.277,2.134-4.411,3.229-6.717    c1.79-4.439-4.871-6.919-6.542-2.709c-0.895,2.076-1.846,4.063-2.912,6.054l-0.116,0.26c-0.491,1.21-0.376,2.306,0.144,3.171    h-24.822L278.801,265.744z M247.265,275.776c1.875,0.29,3.805,0.434,5.766,0.434c1.958,0,3.861-0.144,5.735-0.434l17.646,17.673    c0.951,0.922,2.162,1.729,3.488,2.277c1.295,0.52,2.649,0.837,4.036,0.837h11.068c0.864,1.844,3.173,3.085,5.363,1.44    c0.575-0.461,1.183-0.951,1.758-1.44h69.766v64.634H140.106v-64.634h81.989c1.415,0,2.797-0.317,4.036-0.837    c1.326-0.548,2.481-1.327,3.432-2.248L247.265,275.776z M187.298,258.19c-1.786-4.468-7.724-2.624-6.801,1.962    c0.516,1.96,1.239,3.948,1.958,5.852l0.463,1.211c1.583,3.979,7.956,1.844,6.686-2.336l-0.112-0.346    C188.684,262.574,187.846,260.238,187.298,258.19z M185.08,231.495c0.807-4.008-6.198-5.853-7.037-0.864    c-0.316,2.479-0.432,5.016-0.488,7.523c0,4.785,7.089,4.642,7.089,0.086C184.705,235.965,184.82,233.773,185.08,231.495z     M193.236,206.01c0.347-0.547,0.463-1.239,0.435-1.931h24.043l9.079,9.081c-1.902,1.932-3.604,4.035-5.043,6.342    c-3.632,5.708-5.71,12.482-5.71,19.72c0,7.61,2.306,14.673,6.257,20.583c1.327,1.99,2.881,3.864,4.583,5.594l0.375,0.346    l-9.542,9.543h-77.609v-2.682V206.76v-2.681h46.125c-0.891,1.7-1.698,3.401-2.478,5.188c-0.895,2.191,0.231,3.893,1.814,4.584    c0.607,0.289,1.298,0.375,1.99,0.317c1.126-0.144,2.162-0.778,2.681-2.104C191.19,209.989,192.141,208.028,193.236,206.01z     M211.917,182.832c-0.2-2.451-3.113-4.729-5.619-2.854c-1.098,0.808-2.309,1.816-3.432,2.854h-62.76v-78.3h231.785v78.3h-87.955    c-1.387,0-2.741,0.289-4.036,0.807c-1.326,0.576-2.537,1.355-3.488,2.307l-16.867,16.865c-2.105-0.375-4.295-0.576-6.513-0.576    c-2.221,0-4.411,0.201-6.545,0.576l-16.923-16.895c-0.951-0.951-2.106-1.729-3.432-2.277c-1.239-0.518-2.622-0.807-4.036-0.807    H211.917z M234.378,173.434c4.524-1.816,2.622-7.727-1.934-6.804c-2.306,0.605-4.815,1.47-7.033,2.364    c-4.383,1.73-1.702,8.303,2.594,6.572C230.051,174.789,232.272,173.981,234.378,173.434z M64.027,154.406h17.93    c1.961,0,3.548,1.586,3.548,3.546v17.932c0,1.961-1.586,3.546-3.548,3.546h-17.93c-1.962,0-3.548-1.585-3.548-3.546v-17.932    C60.479,155.992,62.065,154.406,64.027,154.406z M64.027,300.021h17.93c1.961,0,3.548,1.587,3.548,3.547v17.96    c0,1.962-1.586,3.546-3.548,3.546h-17.93c-1.962,0-3.548-1.584-3.548-3.546v-17.96C60.479,301.608,62.065,300.021,64.027,300.021z     M85.389,263.957c1.958,0,3.544,1.613,3.544,3.546c0,1.96-1.586,3.546-3.544,3.546H29.546c-1.962,0-3.544-1.586-3.544-3.546    c0-1.933,1.583-3.546,3.544-3.546H85.389z M50.561,197.016c-1.958,0-3.545-1.615-3.545-3.546c0-1.961,1.586-3.546,3.545-3.546    h171.534c0.982,0,1.874,0.375,2.509,1.037l28.427,28.396l28.395-28.396c0.664-0.662,1.527-1.037,2.51-1.037h171.563    c1.958,0,3.544,1.585,3.544,3.546c0,1.931-1.586,3.546-3.544,3.546H285.402l-29.866,29.867c-1.383,1.384-3.632,1.384-5.015,0    l-29.897-29.867H50.561z M455.498,282.379c1.958,0,3.544,1.585,3.544,3.545c0,1.961-1.586,3.547-3.544,3.547H283.936    c-0.982,0-1.846-0.404-2.51-1.037l-28.395-28.428l-28.427,28.428c-0.635,0.633-1.527,1.037-2.509,1.037H50.561    c-1.958,0-3.545-1.586-3.545-3.547c0-1.96,1.586-3.545,3.545-3.545h170.063l29.897-29.867c1.383-1.385,3.632-1.385,5.015,0    l29.866,29.867H455.498z M424.073,300.021h17.958c1.962,0,3.549,1.587,3.549,3.547v17.96c0,1.962-1.587,3.546-3.549,3.546h-17.958    c-1.934,0-3.548-1.584-3.548-3.546v-17.96C420.525,301.608,422.14,300.021,424.073,300.021z M424.073,154.406h17.958    c1.962,0,3.549,1.586,3.549,3.546v17.932c0,1.961-1.587,3.546-3.549,3.546h-17.958c-1.934,0-3.548-1.585-3.548-3.546v-17.932    C420.525,155.992,422.14,154.406,424.073,154.406z M403.662,216.188c-1.962,0-3.548-1.586-3.548-3.546    c0-1.933,1.586-3.518,3.548-3.518h78.788c1.962,0,3.549,1.585,3.549,3.518c0,1.96-1.587,3.546-3.549,3.546H403.662z     M104.674,447.338c-1.958,0-3.544-1.584-3.544-3.546c0-1.96,1.586-3.545,3.544-3.545h250.554c1.962,0,3.548,1.585,3.548,3.545    c0,1.962-1.586,3.546-3.548,3.546H104.674z M251.385,462.589c-1.958,0-3.545-1.614-3.545-3.545c0-1.962,1.586-3.546,3.545-3.546    h173.379c1.959,0,3.545,1.584,3.545,3.546c0,1.931-1.586,3.545-3.545,3.545H251.385z M442.523,462.589    c-1.962,0-3.545-1.614-3.545-3.545c0-1.962,1.583-3.546,3.545-3.546h21.678c1.934,0,3.548,1.584,3.548,3.546    c0,1.931-1.614,3.545-3.548,3.545H442.523z M94.815,462.099c-1.961,0-3.548-1.586-3.548-3.517c0-1.961,1.586-3.546,3.548-3.546    h82.161c1.934,0,3.548,1.585,3.548,3.546c0,1.931-1.615,3.517-3.548,3.517H94.815z M253.031,163.775    c-1.358,0-2.741,0.865-3.201,1.99c-1.183,2.363,0.632,5.102,3.201,5.102c2.218-0.028,4.496,0.086,6.717,0.317    c2.709,0.548,5.015-3.171,3.372-5.333c-0.635-1.096-1.442-1.471-2.681-1.73C257.958,163.891,255.509,163.805,253.031,163.775z" style="fill-rule:evenodd;clip-rule:evenodd;"/></g></g><g id="Layer_1"/></svg>