<svg width="507" height="92" viewBox="0 0 507 92" fill="none" xmlns="http://www.w3.org/2000/svg">
<path d="M119.408 72.4984V1.14924H167.006V12.6417H132.432V32.3705H162.696V43.863H132.432V72.4984H119.408Z" fill="#1E1B4B"/>
<path d="M187.163 73.6477C183.524 73.6477 180.363 73.0411 177.682 71.828C175 70.6149 172.925 68.891 171.457 66.6564C169.988 64.3579 169.254 61.7082 169.254 58.7074C169.254 55.8343 169.892 53.2804 171.169 51.0458C172.446 48.7473 174.426 46.8319 177.107 45.2995C179.789 43.7672 183.173 42.6818 187.259 42.0433L204.306 39.266V48.843L189.653 51.3331C187.163 51.78 185.312 52.5781 184.098 53.7274C182.885 54.8766 182.279 56.377 182.279 58.2286C182.279 60.0163 182.949 61.4529 184.29 62.5383C185.695 63.5598 187.418 64.0706 189.462 64.0706C192.079 64.0706 194.378 63.5279 196.357 62.4425C198.4 61.2932 199.964 59.729 201.05 57.7497C202.199 55.7705 202.774 53.5997 202.774 51.2373V37.8294C202.774 35.5948 201.88 33.7432 200.092 32.2747C198.368 30.7424 196.07 29.9762 193.197 29.9762C190.515 29.9762 188.121 30.7105 186.014 32.1789C183.971 33.5836 182.47 35.4671 181.513 37.8294L171.265 32.8493C172.287 30.1039 173.883 27.7416 176.054 25.7623C178.288 23.7192 180.906 22.123 183.907 20.9738C186.908 19.8245 190.164 19.2499 193.676 19.2499C197.953 19.2499 201.72 20.048 204.976 21.6442C208.233 23.1765 210.755 25.3473 212.542 28.1566C214.394 30.902 215.32 34.1263 215.32 37.8294V72.4984H203.444V63.5917L206.126 63.4002C204.785 65.6348 203.189 67.5183 201.337 69.0507C199.486 70.5191 197.379 71.6684 195.016 72.4984C192.654 73.2646 190.036 73.6477 187.163 73.6477Z" fill="#1E1B4B"/>
<path d="M225.479 72.4984V20.3992H237.259V32.4663L235.918 30.4551C236.876 26.6881 238.791 23.8788 241.664 22.0273C244.537 20.1757 247.921 19.2499 251.816 19.2499C256.094 19.2499 259.861 20.3672 263.117 22.6019C266.373 24.8365 268.48 27.7735 269.438 31.4128L265.894 31.7001C267.49 27.55 269.885 24.4534 273.077 22.4103C276.269 20.3034 279.94 19.2499 284.091 19.2499C287.794 19.2499 291.082 20.0799 293.955 21.7399C296.892 23.4 299.19 25.7304 300.85 28.7312C302.51 31.6682 303.34 35.084 303.34 38.9787V72.4984H290.794V41.9476C290.794 39.6491 290.379 37.6698 289.549 36.0098C288.719 34.3498 287.57 33.0728 286.102 32.1789C284.633 31.2212 282.845 30.7424 280.739 30.7424C278.759 30.7424 277.003 31.2212 275.471 32.1789C273.939 33.0728 272.758 34.3498 271.928 36.0098C271.098 37.6698 270.683 39.6491 270.683 41.9476V72.4984H258.137V41.9476C258.137 39.6491 257.722 37.6698 256.892 36.0098C256.062 34.3498 254.88 33.0728 253.348 32.1789C251.88 31.2212 250.124 30.7424 248.081 30.7424C246.101 30.7424 244.346 31.2212 242.813 32.1789C241.281 33.0728 240.1 34.3498 239.27 36.0098C238.44 37.6698 238.025 39.6491 238.025 41.9476V72.4984H225.479Z" fill="#1E1B4B"/>
<path d="M337.706 73.6477C332.342 73.6477 327.65 72.4346 323.627 70.0084C319.605 67.5822 316.476 64.294 314.242 60.144C312.007 55.9939 310.89 51.3969 310.89 46.353C310.89 41.1175 312.007 36.4886 314.242 32.4663C316.54 28.38 319.637 25.1558 323.532 22.7934C327.49 20.4311 331.896 19.2499 336.748 19.2499C340.834 19.2499 344.41 19.9203 347.474 21.2611C350.603 22.6019 353.252 24.4534 355.423 26.8158C357.594 29.1781 359.254 31.8916 360.403 34.9563C361.553 37.9571 362.127 41.2133 362.127 44.7249C362.127 45.6188 362.063 46.5446 361.936 47.5023C361.872 48.46 361.712 49.29 361.457 49.9923H321.233V40.4152H354.37L348.432 44.9164C349.007 41.9795 348.847 39.3618 347.953 37.0633C347.123 34.7648 345.718 32.9451 343.739 31.6043C341.824 30.2635 339.493 29.5931 336.748 29.5931C334.13 29.5931 331.8 30.2635 329.757 31.6043C327.714 32.8813 326.149 34.7967 325.064 37.3506C324.042 39.8406 323.659 42.8733 323.915 46.4488C323.659 49.6411 324.074 52.4823 325.16 54.9724C326.309 57.3986 327.969 59.2821 330.14 60.6228C332.374 61.9636 334.928 62.634 337.801 62.634C340.675 62.634 343.101 62.0275 345.08 60.8144C347.123 59.6013 348.719 57.9732 349.869 55.9301L360.02 60.9102C358.999 63.4002 357.402 65.6029 355.232 67.5183C353.061 69.4337 350.475 70.9342 347.474 72.0196C344.537 73.105 341.281 73.6477 337.706 73.6477Z" fill="#1E1B4B"/>
<path d="M394.91 73.6477C389.866 73.6477 385.365 72.4665 381.406 70.1041C377.448 67.6779 374.319 64.3898 372.021 60.2398C369.722 56.0897 368.573 51.4927 368.573 46.4488C368.573 41.341 369.722 36.744 372.021 32.6578C374.319 28.5716 377.448 25.3154 381.406 22.8892C385.429 20.463 389.898 19.2499 394.814 19.2499C398.773 19.2499 402.284 20.048 405.349 21.6442C408.477 23.1765 410.936 25.3473 412.723 28.1566L410.808 30.7424V0H423.354V72.4984H411.478V62.4425L412.819 64.9325C411.031 67.7418 408.541 69.9126 405.349 71.4449C402.157 72.9134 398.677 73.6477 394.91 73.6477ZM396.251 62.1552C399.124 62.1552 401.646 61.4848 403.817 60.144C405.987 58.8032 407.679 56.9516 408.892 54.5893C410.169 52.2269 410.808 49.5134 410.808 46.4488C410.808 43.448 410.169 40.7664 408.892 38.404C407.679 35.9778 405.987 34.0944 403.817 32.7536C401.646 31.4128 399.124 30.7424 396.251 30.7424C393.441 30.7424 390.919 31.4447 388.685 32.8493C386.45 34.1901 384.694 36.0417 383.417 38.404C382.204 40.7025 381.598 43.3841 381.598 46.4488C381.598 49.5134 382.204 52.2269 383.417 54.5893C384.694 56.9516 386.45 58.8032 388.685 60.144C390.919 61.4848 393.441 62.1552 396.251 62.1552Z" fill="#1E1B4B"/>
<path d="M434.068 72.4984V0H446.614V72.4984H434.068Z" fill="#1E1B4B"/>
<path d="M464.806 91.6525L474.575 67.231L475.149 77.7658L452.452 20.3992H465.955L481.853 62.7298H477.065L492.867 20.3992H506.466L478.31 91.6525H464.806Z" fill="#1E1B4B"/>
<path d="M75.0194 3.80938C75.0194 2.32698 73.8176 1.12524 72.3352 1.12524H3.01287C1.53047 1.12524 0.328735 2.32698 0.328735 3.80938V33.7185C0.328735 35.4721 2.44895 36.3503 3.68895 35.1103L17.4291 21.3702C18.4358 20.3635 19.8012 19.7979 21.225 19.7979H72.3352C73.8176 19.7979 75.0194 18.5962 75.0194 17.1138V3.80938Z" fill="#1E1B4B"/>
<path d="M75.0194 41.1545C75.0194 39.6721 73.8176 38.4703 72.3352 38.4703H21.6855C20.2031 38.4703 19.0014 39.6721 19.0014 41.1545V71.0636C19.0014 72.8172 21.1216 73.6954 22.3616 72.4554L36.1017 58.7153C37.1085 57.7086 38.4739 57.143 39.8977 57.143H72.3352C73.8176 57.143 75.0194 55.9413 75.0194 54.4588V41.1545Z" fill="#1E1B4B"/>
</svg>
