<svg width="249" height="40" viewBox="0 0 249 40" fill="none" xmlns="http://www.w3.org/2000/svg">
<path d="M29.634 5.19585L39.9942 19.6662C39.9981 19.6714 40.0002 19.6777 40.0002 19.6842C40.0002 19.6908 39.9981 19.6971 39.9942 19.7023L36.1848 24.362C36.1821 24.3654 36.1801 24.3694 36.179 24.3737C36.178 24.3779 36.1779 24.3824 36.1787 24.3868C36.1796 24.3911 36.1814 24.3952 36.184 24.3987C36.1866 24.4022 36.1899 24.4051 36.1938 24.4072L38.8134 25.7421C38.8177 25.7444 38.8213 25.7477 38.8241 25.7518C38.8268 25.7559 38.8285 25.7606 38.829 25.7656C38.8294 25.7705 38.8287 25.7754 38.8268 25.78C38.8249 25.7846 38.8219 25.7886 38.8181 25.7916L24.0511 37.3252C24.0461 37.3291 24.0399 37.3312 24.0336 37.3311H18.1231C18.1184 37.3311 18.1138 37.3299 18.1096 37.3276C18.1055 37.3254 18.1019 37.3221 18.0992 37.3182C18.0966 37.3142 18.0949 37.3096 18.0944 37.3048C18.0939 37.3001 18.0945 37.2952 18.0962 37.2908L25.9544 17.5554C25.9559 17.5518 25.9566 17.5479 25.9566 17.544C25.9566 17.5401 25.9558 17.5362 25.9544 17.5326C25.9529 17.529 25.9508 17.5258 25.9481 17.523C25.9453 17.5203 25.9421 17.5181 25.9386 17.5166L14.867 13.042C14.8618 13.0399 14.8573 13.0364 14.8541 13.0317C14.8508 13.0271 14.8489 13.0217 14.8487 13.016C14.8484 13.0103 14.8497 13.0047 14.8525 12.9997C14.8552 12.9948 14.8594 12.9908 14.8643 12.9882L29.5987 5.18617C29.6048 5.18339 29.6116 5.18284 29.6181 5.18461C29.6245 5.18637 29.6301 5.19034 29.634 5.19585Z" fill="#9881E0"/>
<path d="M19.9934 19.7107L14.8313 39.9825C14.829 39.9877 14.8253 39.992 14.8206 39.9951C14.8159 39.9982 14.8105 39.9998 14.8049 39.9998C14.7994 39.9998 14.7939 39.9982 14.7893 39.9951C14.7846 39.992 14.7809 39.9877 14.7785 39.9825L10.0067 26.1697C10.0041 26.1647 10.0001 26.1605 9.99522 26.1578C9.99036 26.155 9.98481 26.1537 9.97926 26.1541L2.50974 25.178C2.50503 25.1774 2.50056 25.1756 2.4967 25.1728C2.49284 25.17 2.4897 25.1662 2.48759 25.1619L0.00302749 20.0976C0.000287007 20.0919 -0.00062283 20.0856 0.000420125 20.0794C0.00146308 20.0732 0.00439751 20.0675 0.00882163 20.0631L5.36718 14.7965C5.37094 14.7927 5.37562 14.7901 5.38073 14.7889C5.38584 14.7876 5.39118 14.7879 5.39618 14.7895L19.9739 19.6773C19.9806 19.6795 19.9862 19.6841 19.9898 19.6903C19.9934 19.6964 19.9947 19.7036 19.9934 19.7107Z" fill="#9881E0"/>
<path d="M4.41758 5.77521L3.65443 13.1635C3.65395 13.1686 3.65477 13.1737 3.65681 13.1784C3.65886 13.1831 3.66208 13.1871 3.66612 13.1901C3.67015 13.1932 3.67488 13.1951 3.67986 13.1957C3.68484 13.1963 3.68988 13.1956 3.69451 13.1936L22.8733 4.78785C22.8773 4.78608 22.8808 4.78341 22.8836 4.78006C22.8864 4.77671 22.8885 4.77275 22.8896 4.76848L23.4972 2.54893C23.4985 2.54387 23.501 2.53925 23.5047 2.53556C23.5083 2.53187 23.5128 2.52924 23.5178 2.52795L29.337 1.05256C29.3436 1.05084 29.3494 1.0468 29.3534 1.04116C29.3574 1.03552 29.3593 1.02863 29.3588 1.0217C29.3583 1.01477 29.3554 1.00824 29.3507 1.00326C29.3459 0.998275 29.3396 0.995154 29.3328 0.994444L18.5486 8.78185e-05C18.5437 -0.0003022 18.5387 0.000611331 18.5342 0.00273975C18.5297 0.00486818 18.5258 0.00813953 18.5229 0.0122432C18.52 0.0163469 18.5181 0.0211445 18.5176 0.0261761C18.517 0.0312078 18.5177 0.0363079 18.5196 0.0409834L19.9789 3.49487C19.9809 3.49979 19.9816 3.50517 19.9808 3.51044C19.9801 3.51571 19.9779 3.52068 19.9746 3.52481C19.9713 3.52894 19.967 3.53209 19.9621 3.53392C19.9572 3.53575 19.9519 3.5362 19.9468 3.53522L10.0106 1.45127C10.0066 1.45044 10.0024 1.45049 9.99844 1.45142C9.99444 1.45235 9.99067 1.45413 9.9874 1.45665L4.42917 5.75477C4.42594 5.75715 4.42325 5.76021 4.42125 5.76373C4.41925 5.76725 4.41801 5.77117 4.41758 5.77521Z" fill="#9881E0"/>
<path d="M52 7.03223H60.9467C66.1713 7.03223 69.331 10.1152 69.331 14.5756V14.6382C69.331 19.6879 65.3887 22.3067 60.4771 22.3067H56.8233V28.8526H52V7.03223ZM60.6346 18.0358C63.0435 18.0358 64.4513 16.6022 64.4513 14.7316V14.669C64.4513 12.5182 62.9498 11.3647 60.5381 11.3647H56.8233V18.0358H60.6346Z" fill="#9881E0"/>
<path d="M71.0869 24.0525V23.9899C71.0869 20.3429 73.8717 18.66 77.8449 18.66C79.2398 18.6478 80.6259 18.8798 81.9402 19.3455V19.0653C81.9402 17.1013 80.7207 16.0104 78.3427 16.0104C76.7551 16.0129 75.1829 16.3208 73.7124 16.9172L72.5239 13.301C74.5628 12.3685 76.7878 11.9103 79.0307 11.9608C81.6271 11.9608 83.5045 12.6463 84.694 13.8315C85.3362 14.5555 85.8274 15.3997 86.1389 16.3147C86.4504 17.2298 86.5761 18.1975 86.5086 19.1614V28.8556H81.91V27.0448C81.2741 27.7485 80.49 28.3035 79.6137 28.67C78.7374 29.0365 77.7906 29.2055 76.8411 29.1648C73.6833 29.1648 71.0869 27.3567 71.0869 24.0525ZM82.0075 22.9644V22.1211C81.0516 21.7012 80.0171 21.4886 78.9725 21.4972C76.9395 21.4972 75.6881 22.3079 75.6881 23.804V23.8666C75.6881 25.1442 76.7519 25.8923 78.2844 25.8923C80.5022 25.8914 82.0057 24.6763 82.0057 22.9617L82.0075 22.9644Z" fill="#9881E0"/>
<path d="M90.6084 12.145H95.3633V14.5144C95.8973 13.6988 96.6255 13.0273 97.4828 12.5597C98.3402 12.0921 99.3003 11.8428 100.278 11.834C103.875 11.834 105.972 14.2034 105.972 18.0372V28.8539H101.217V19.5324C101.217 17.2882 100.152 16.1348 98.3382 16.1348C96.5245 16.1348 95.3661 17.2882 95.3661 19.5324V28.853H90.6111L90.6084 12.145Z" fill="#9881E0"/>
<path d="M110.192 32.1568L111.819 28.6032C113.532 29.6162 115.49 30.1442 117.482 30.1302C120.735 30.1302 122.269 28.5715 122.269 25.5792V24.7685C121.646 25.6296 120.822 26.3265 119.868 26.799C118.914 27.2716 117.859 27.5055 116.794 27.4806C112.88 27.4806 109.348 24.6443 109.348 19.6879V19.6253C109.348 14.6382 112.946 11.8326 116.794 11.8326C117.827 11.8104 118.851 12.0235 119.789 12.4556C120.727 12.8878 121.554 13.5276 122.206 14.3262V12.1446H126.961V25.0786C126.961 28.071 126.241 30.2535 124.834 31.6563C123.27 33.215 120.861 33.9005 117.607 33.9005C115.03 33.9262 112.486 33.3278 110.192 32.1568ZM122.269 19.6879V19.6253C122.217 18.5812 121.764 17.597 121.004 16.8763C120.244 16.1556 119.235 15.7537 118.186 15.7537C117.136 15.7537 116.127 16.1556 115.367 16.8763C114.607 17.597 114.155 18.5812 114.103 19.6253V19.6879C114.095 20.2137 114.196 20.7354 114.4 21.2203C114.604 21.7052 114.907 22.1429 115.289 22.5058C115.671 22.8688 116.124 23.1492 116.619 23.3294C117.115 23.5097 117.643 23.586 118.17 23.5534C118.698 23.5839 119.226 23.5064 119.723 23.3257C120.219 23.1451 120.673 22.8651 121.057 22.503C121.441 22.1409 121.747 21.7044 121.955 21.2203C122.163 20.7361 122.27 20.2147 122.269 19.6879Z" fill="#9881E0"/>
<path d="M130.401 20.5923V20.5298C130.401 15.7602 133.811 11.833 138.692 11.833C144.292 11.833 146.857 16.1655 146.857 20.9006C146.857 21.2742 146.825 21.7113 146.794 22.1474H135.125C135.274 23.1041 135.777 23.9705 136.535 24.5761C137.293 25.1818 138.251 25.4828 139.22 25.4199C139.98 25.43 140.734 25.2828 141.434 24.9876C142.134 24.6925 142.765 24.2558 143.287 23.7053L146.008 26.1055C144.846 27.4714 143.294 28.4527 141.558 28.9188C139.823 29.385 137.986 29.3139 136.292 28.7151C134.598 28.1164 133.126 27.0182 132.074 25.5666C131.021 24.1149 130.436 22.3784 130.397 20.5878L130.401 20.5923ZM142.227 19.1896C141.945 17.0696 140.694 15.636 138.692 15.636C136.72 15.636 135.438 17.0387 135.063 19.1896H142.227Z" fill="#9881E0"/>
<path d="M149.392 24.0525V23.9899C149.392 20.3429 152.176 18.66 156.149 18.66C157.544 18.648 158.93 18.88 160.244 19.3455V19.0653C160.244 17.1013 159.024 16.0104 156.646 16.0104C155.058 16.013 153.486 16.3209 152.015 16.9172L150.827 13.301C152.866 12.3685 155.091 11.9102 157.334 11.9608C159.931 11.9608 161.808 12.6463 162.996 13.8315C163.638 14.5555 164.13 15.3996 164.441 16.3147C164.753 17.2297 164.878 18.1975 164.811 19.1614V28.8556H160.212V27.0448C159.576 27.7484 158.792 28.3033 157.916 28.6698C157.04 29.0363 156.093 29.2053 155.144 29.1648C151.988 29.1648 149.392 27.3567 149.392 24.0525ZM160.312 22.9644V22.1211C159.357 21.7013 158.322 21.4887 157.278 21.4972C155.245 21.4972 153.994 22.3079 153.994 23.804V23.8666C153.994 25.1442 155.057 25.8923 156.59 25.8923C158.808 25.8914 160.309 24.6764 160.309 22.9617L160.312 22.9644Z" fill="#9881E0"/>
<path d="M177.828 18.0048V17.9422C177.801 16.4451 178.079 14.9581 178.645 13.5709C179.211 12.1836 180.052 10.9249 181.119 9.8705C182.186 8.81612 183.457 7.98796 184.853 7.43592C186.25 6.88389 187.745 6.61943 189.247 6.65847C190.844 6.57924 192.439 6.83837 193.927 7.41874C195.416 7.99911 196.763 8.88752 197.882 10.0253L194.816 13.5481C193.346 12.0275 191.335 11.1431 189.216 11.0853C185.524 11.0853 182.865 14.1402 182.865 17.8806V17.9432C182.865 21.6836 185.462 24.801 189.216 24.801C191.719 24.801 193.252 23.8036 194.972 22.2448L198.038 25.3278C196.936 26.6133 195.555 27.6323 194 28.3078C192.444 28.9832 190.755 29.2976 189.06 29.2269C187.576 29.2509 186.102 28.9768 184.726 28.421C183.351 27.8651 182.101 27.0389 181.053 25.9916C180.005 24.9443 179.179 23.6973 178.625 22.3251C178.071 20.953 177.8 19.4836 177.828 18.0048Z" fill="#9881E0"/>
<path d="M201.386 6.09766H206.14V14.5142C206.674 13.6989 207.402 13.0276 208.26 12.56C209.117 12.0924 210.077 11.8429 211.054 11.8338C214.652 11.8338 216.747 14.2032 216.747 18.037V28.8538H211.992V19.5323C211.992 17.288 210.928 16.1346 209.114 16.1346C207.299 16.1346 206.142 17.288 206.142 19.5323V28.8529H201.388L201.386 6.09766Z" fill="#9881E0"/>
<path d="M219.875 24.0525V23.9899C219.875 20.3429 222.659 18.66 226.632 18.66C228.027 18.648 229.413 18.88 230.727 19.3455V19.0653C230.727 17.1013 229.507 16.0104 227.129 16.0104C225.541 16.0128 223.969 16.3207 222.499 16.9172L221.31 13.301C223.349 12.3685 225.574 11.9102 227.817 11.9608C230.413 11.9608 232.292 12.6463 233.479 13.8315C234.122 14.5554 234.613 15.3996 234.924 16.3147C235.236 17.2297 235.361 18.1975 235.294 19.1614V28.8556H230.694V27.0448C230.059 27.7485 229.275 28.3035 228.399 28.67C227.523 29.0365 226.576 29.2055 225.627 29.1648C222.472 29.1648 219.875 27.3567 219.875 24.0525ZM230.796 22.9644V22.1211C229.84 21.7013 228.806 21.4887 227.761 21.4972C225.728 21.4972 224.476 22.3079 224.476 23.804V23.8666C224.476 25.1442 225.539 25.8923 227.073 25.8923C229.291 25.8914 230.793 24.6764 230.793 22.9617L230.796 22.9644Z" fill="#9881E0"/>
<path d="M240.022 24.1144V16.2001H238.02V12.1478H240.022V7.87695H244.777V12.1478H248.719V16.2001H244.777V23.3382C244.777 24.4263 245.246 24.9595 246.31 24.9595C247.13 24.9635 247.938 24.7598 248.657 24.3674V28.1694C247.522 28.837 246.221 29.172 244.903 29.136C241.995 29.1333 240.022 27.9799 240.022 24.1144Z" fill="#9881E0"/>
</svg>