<?xml version="1.0" encoding="UTF-8" standalone="no"?>
<svg
   xmlns:dc="http://purl.org/dc/elements/1.1/"
   xmlns:cc="http://creativecommons.org/ns#"
   xmlns:rdf="http://www.w3.org/1999/02/22-rdf-syntax-ns#"
   xmlns:svg="http://www.w3.org/2000/svg"
   xmlns="http://www.w3.org/2000/svg"
   xmlns:sodipodi="http://sodipodi.sourceforge.net/DTD/sodipodi-0.dtd"
   xmlns:inkscape="http://www.inkscape.org/namespaces/inkscape"
   inkscape:version="1.0rc1 (09960d6, 2020-04-09)"
   height="120.27953"
   width="745.5105"
   sodipodi:docname="2020-04-14-stateresv2-2.svg"
   id="svg334"
   stroke-miterlimit="10"
   stroke-linecap="square"
   stroke="none"
   fill="none"
   viewBox="0 0 745.5105 120.27953"
   version="1.1">
  <metadata
     id="metadata340">
    <rdf:RDF>
      <cc:Work
         rdf:about="">
        <dc:format>image/svg+xml</dc:format>
        <dc:type
           rdf:resource="http://purl.org/dc/dcmitype/StillImage" />
        <dc:title></dc:title>
      </cc:Work>
    </rdf:RDF>
  </metadata>
  <defs
     id="defs338" />
  <sodipodi:namedview
     inkscape:current-layer="svg334"
     inkscape:window-maximized="0"
     inkscape:window-y="23"
     inkscape:window-x="0"
     inkscape:cy="274.55582"
     inkscape:cx="116.84522"
     inkscape:zoom="0.31481481"
     fit-margin-right="15"
     fit-margin-bottom="15"
     fit-margin-top="15"
     fit-margin-left="15"
     showgrid="false"
     id="namedview336"
     inkscape:window-height="967"
     inkscape:window-width="1174"
     inkscape:pageshadow="2"
     inkscape:pageopacity="0"
     guidetolerance="10"
     gridtolerance="10"
     objecttolerance="10"
     borderopacity="1"
     bordercolor="#666666"
     pagecolor="#ffffff" />
  <clipPath
     id="p.0">
    <path
       inkscape:connector-curvature="0"
       id="path281"
       clip-rule="nonzero"
       d="M 0,0 H 1152 V 864 H 0 Z" />
  </clipPath>
  <path
     fill="#cfe2f3"
     d="m 576.48426,63.96605 v 0 c 0,-4.50824 3.65466,-8.1629 8.1629,-8.1629 h 136.68207 c 2.16498,0 4.24121,0.86001 5.7721,2.39085 1.53082,1.53085 2.39081,3.60712 2.39081,5.77205 v 32.65059 c 0,4.50824 -3.65467,8.16289 -8.16291,8.16289 H 584.64716 c -4.50824,0 -8.1629,-3.65465 -8.1629,-8.16289 z"
     fill-rule="evenodd"
     id="path286"
     inkscape:connector-curvature="0" />
  <path
     stroke="#000000"
     stroke-width="1"
     stroke-linejoin="round"
     stroke-linecap="butt"
     d="m 576.48426,63.96605 v 0 c 0,-4.50824 3.65466,-8.1629 8.1629,-8.1629 h 136.68207 c 2.16498,0 4.24121,0.86001 5.7721,2.39085 1.53082,1.53085 2.39081,3.60712 2.39081,5.77205 v 32.65059 c 0,4.50824 -3.65467,8.16289 -8.16291,8.16289 H 584.64716 c -4.50824,0 -8.1629,-3.65465 -8.1629,-8.16289 z"
     fill-rule="evenodd"
     id="path288"
     inkscape:connector-curvature="0" />
  <path
     fill="#000000"
     d="m 593.86381,85.09134 v -6.90625 h 1.04688 v 0.96875 q 0.32812,-0.51563 0.85937,-0.8125 0.54688,-0.3125 1.23438,-0.3125 0.78125,0 1.26562,0.3125 0.48438,0.3125 0.6875,0.89062 0.82813,-1.20312 2.14063,-1.20312 1.03125,0 1.57812,0.57812 0.5625,0.5625 0.5625,1.73438 v 4.75 h -1.17187 v -4.35938 q 0,-0.70312 -0.125,-1 -0.10938,-0.3125 -0.40625,-0.5 -0.29688,-0.1875 -0.70313,-0.1875 -0.71875,0 -1.20312,0.48438 -0.48438,0.48437 -0.48438,1.54687 v 4.01563 h -1.17187 v -4.48438 q 0,-0.78125 -0.29688,-1.17187 -0.28125,-0.39063 -0.92187,-0.39063 -0.5,0 -0.92188,0.26563 -0.42187,0.25 -0.60937,0.75 -0.1875,0.5 -0.1875,1.45312 v 3.57813 z m 11.43054,0 v -1.32813 h 1.34375 v 1.32813 z m 3.35925,0 v -6.90625 h 1.0625 v 1.04687 q 0.40625,-0.73437 0.73438,-0.96875 0.34375,-0.23437 0.76562,-0.23437 0.59375,0 1.20313,0.375 l -0.40625,1.07812 q -0.4375,-0.25 -0.85938,-0.25 -0.39062,0 -0.70312,0.23438 -0.29688,0.23437 -0.42188,0.64062 -0.20312,0.625 -0.20312,1.35938 v 3.625 z m 4.01648,-3.45313 q 0,-1.92187 1.07813,-2.84375 0.89062,-0.76562 2.17187,-0.76562 1.42188,0 2.32813,0.9375 0.90625,0.92187 0.90625,2.57812 0,1.32813 -0.40625,2.09375 -0.39063,0.76563 -1.15625,1.1875 -0.76563,0.42188 -1.67188,0.42188 -1.45312,0 -2.35937,-0.92188 -0.89063,-0.9375 -0.89063,-2.6875 z m 1.20313,0 q 0,1.32813 0.57812,1.98438 0.59375,0.65625 1.46875,0.65625 0.875,0 1.45313,-0.65625 0.57812,-0.67188 0.57812,-2.03125 0,-1.28125 -0.59375,-1.9375 -0.57812,-0.65625 -1.4375,-0.65625 -0.875,0 -1.46875,0.65625 -0.57812,0.65625 -0.57812,1.98437 z m 6.20935,0 q 0,-1.92187 1.07813,-2.84375 0.89062,-0.76562 2.17187,-0.76562 1.42188,0 2.32813,0.9375 0.90625,0.92187 0.90625,2.57812 0,1.32813 -0.40625,2.09375 -0.39063,0.76563 -1.15625,1.1875 -0.76563,0.42188 -1.67188,0.42188 -1.45312,0 -2.35937,-0.92188 -0.89063,-0.9375 -0.89063,-2.6875 z m 1.20313,0 q 0,1.32813 0.57812,1.98438 0.59375,0.65625 1.46875,0.65625 0.875,0 1.45313,-0.65625 0.57812,-0.67188 0.57812,-2.03125 0,-1.28125 -0.59375,-1.9375 -0.57812,-0.65625 -1.4375,-0.65625 -0.875,0 -1.46875,0.65625 -0.57812,0.65625 -0.57812,1.98437 z m 6.64685,3.45313 v -6.90625 h 1.04687 v 0.96875 q 0.32813,-0.51563 0.85938,-0.8125 0.54687,-0.3125 1.23437,-0.3125 0.78125,0 1.26563,0.3125 0.48437,0.3125 0.6875,0.89062 0.82812,-1.20312 2.14062,-1.20312 1.03125,0 1.57813,0.57812 0.5625,0.5625 0.5625,1.73438 v 4.75 h -1.17188 v -4.35938 q 0,-0.70312 -0.125,-1 -0.10937,-0.3125 -0.40625,-0.5 -0.29687,-0.1875 -0.70312,-0.1875 -0.71875,0 -1.20313,0.48438 -0.48437,0.48437 -0.48437,1.54687 v 4.01563 h -1.17188 v -4.48438 q 0,-0.78125 -0.29687,-1.17187 -0.28125,-0.39063 -0.92188,-0.39063 -0.5,0 -0.92187,0.26563 -0.42188,0.25 -0.60938,0.75 -0.1875,0.5 -0.1875,1.45312 v 3.57813 z m 11.43054,0 v -1.32813 h 1.34375 v 1.32813 z m 3.37488,2.65625 v -9.5625 h 1.07812 v 0.89062 q 0.375,-0.53125 0.84375,-0.78125 0.48438,-0.26562 1.15625,-0.26562 0.875,0 1.54688,0.45312 0.6875,0.45313 1.03125,1.28125 0.34375,0.82813 0.34375,1.82813 0,1.04687 -0.375,1.90625 -0.375,0.84375 -1.10938,1.29687 -0.71875,0.45313 -1.53125,0.45313 -0.57812,0 -1.04687,-0.25 -0.46875,-0.25 -0.76563,-0.625 v 3.375 z m 1.0625,-6.07813 q 0,1.34375 0.53125,1.98438 0.54687,0.625 1.3125,0.625 0.78125,0 1.34375,-0.65625 0.5625,-0.65625 0.5625,-2.04688 0,-1.3125 -0.54688,-1.96875 -0.54687,-0.67187 -1.29687,-0.67187 -0.75,0 -1.32813,0.70312 -0.57812,0.70313 -0.57812,2.03125 z m 5.91247,-0.0312 q 0,-1.92187 1.07813,-2.84375 0.89062,-0.76562 2.17187,-0.76562 1.42188,0 2.32813,0.9375 0.90625,0.92187 0.90625,2.57812 0,1.32813 -0.40625,2.09375 -0.39063,0.76563 -1.15625,1.1875 -0.76563,0.42188 -1.67188,0.42188 -1.45312,0 -2.35937,-0.92188 -0.89063,-0.9375 -0.89063,-2.6875 z m 1.20313,0 q 0,1.32813 0.57812,1.98438 0.59375,0.65625 1.46875,0.65625 0.875,0 1.45313,-0.65625 0.57812,-0.67188 0.57812,-2.03125 0,-1.28125 -0.59375,-1.9375 -0.57812,-0.65625 -1.4375,-0.65625 -0.875,0 -1.46875,0.65625 -0.57812,0.65625 -0.57812,1.98437 z m 7.9281,3.45313 -2.125,-6.90625 h 1.21875 l 1.09375,3.98437 0.42187,1.48438 q 0.0156,-0.10938 0.35938,-1.42188 l 1.09375,-4.04687 h 1.20312 l 1.03125,4 0.34375,1.32812 0.40625,-1.34375 1.17188,-3.98437 h 1.14062 l -2.15625,6.90625 h -1.21875 l -1.09375,-4.14063 -0.26562,-1.17187 -1.40625,5.3125 z m 13.0783,-2.21875 1.20313,0.14062 q -0.28125,1.0625 -1.0625,1.65625 -0.76563,0.57813 -1.96875,0.57813 -1.51563,0 -2.40625,-0.9375 -0.89063,-0.9375 -0.89063,-2.60938 0,-1.75 0.89063,-2.70312 0.90625,-0.96875 2.34375,-0.96875 1.39062,0 2.26562,0.9375 0.875,0.9375 0.875,2.65625 0,0.10937 0,0.3125 h -5.15625 q 0.0625,1.14062 0.64063,1.75 0.57812,0.59375 1.4375,0.59375 0.65625,0 1.10937,-0.32813 0.45313,-0.34375 0.71875,-1.07812 z m -3.84375,-1.90625 h 3.85938 q -0.0781,-0.85938 -0.4375,-1.29688 -0.5625,-0.6875 -1.45313,-0.6875 -0.8125,0 -1.35937,0.54688 -0.54688,0.53125 -0.60938,1.4375 z m 6.50623,4.125 v -6.90625 h 1.0625 v 1.04687 q 0.40625,-0.73437 0.73438,-0.96875 0.34375,-0.23437 0.76562,-0.23437 0.59375,0 1.20313,0.375 l -0.40625,1.07812 q -0.4375,-0.25 -0.85938,-0.25 -0.39062,0 -0.70312,0.23438 -0.29688,0.23437 -0.42188,0.64062 -0.20312,0.625 -0.20312,1.35938 v 3.625 z m 3.37585,2.65625 v -0.85938 h 7.76563 v 0.85938 z m 8.47498,-2.65625 v -9.54688 h 1.17188 v 9.54688 z m 7.71106,-2.21875 1.20313,0.14062 q -0.28125,1.0625 -1.0625,1.65625 -0.76563,0.57813 -1.96875,0.57813 -1.51563,0 -2.40625,-0.9375 -0.89063,-0.9375 -0.89063,-2.60938 0,-1.75 0.89063,-2.70312 0.90625,-0.96875 2.34375,-0.96875 1.39062,0 2.26562,0.9375 0.875,0.9375 0.875,2.65625 0,0.10937 0,0.3125 h -5.15625 q 0.0625,1.14062 0.64063,1.75 0.57812,0.59375 1.4375,0.59375 0.65625,0 1.10937,-0.32813 0.45313,-0.34375 0.71875,-1.07812 z m -3.84375,-1.90625 h 3.85938 q -0.0781,-0.85938 -0.4375,-1.29688 -0.5625,-0.6875 -1.45313,-0.6875 -0.8125,0 -1.35937,0.54688 -0.54688,0.53125 -0.60938,1.4375 z m 8.44373,4.125 -2.625,-6.90625 h 1.23437 l 1.48438,4.14062 q 0.23437,0.65625 0.4375,1.39063 0.15625,-0.54688 0.4375,-1.3125 l 1.53125,-4.21875 h 1.21875 l -2.625,6.90625 z m 9.47656,-2.21875 1.20312,0.14062 q -0.28125,1.0625 -1.0625,1.65625 -0.76562,0.57813 -1.96875,0.57813 -1.51562,0 -2.40625,-0.9375 -0.89062,-0.9375 -0.89062,-2.60938 0,-1.75 0.89062,-2.70312 0.90625,-0.96875 2.34375,-0.96875 1.39063,0 2.26563,0.9375 0.875,0.9375 0.875,2.65625 0,0.10937 0,0.3125 h -5.15625 q 0.0625,1.14062 0.64062,1.75 0.57813,0.59375 1.4375,0.59375 0.65625,0 1.10938,-0.32813 0.45312,-0.34375 0.71875,-1.07812 z m -3.84375,-1.90625 h 3.85937 q -0.0781,-0.85938 -0.4375,-1.29688 -0.5625,-0.6875 -1.45312,-0.6875 -0.8125,0 -1.35938,0.54688 -0.54687,0.53125 -0.60937,1.4375 z m 6.50622,4.125 v -9.54688 h 1.17188 v 9.54688 z"
     fill-rule="nonzero"
     id="path290"
     inkscape:connector-curvature="0" />
  <path
     fill="#cfe2f3"
     d="m 389.48951,63.96605 v 0 c 0,-4.50824 3.65463,-8.1629 8.16287,-8.1629 h 136.68207 c 2.16498,0 4.24121,0.86001 5.7721,2.39085 1.53082,1.53085 2.3908,3.60712 2.3908,5.77205 v 32.65059 c 0,4.50824 -3.65466,8.16289 -8.1629,8.16289 H 397.65238 c -4.50824,0 -8.16287,-3.65465 -8.16287,-8.16289 z"
     fill-rule="evenodd"
     id="path292"
     inkscape:connector-curvature="0" />
  <path
     stroke="#000000"
     stroke-width="1"
     stroke-linejoin="round"
     stroke-linecap="butt"
     d="m 389.48951,63.96605 v 0 c 0,-4.50824 3.65463,-8.1629 8.16287,-8.1629 h 136.68207 c 2.16498,0 4.24121,0.86001 5.7721,2.39085 1.53082,1.53085 2.3908,3.60712 2.3908,5.77205 v 32.65059 c 0,4.50824 -3.65466,8.16289 -8.1629,8.16289 H 397.65238 c -4.50824,0 -8.16287,-3.65465 -8.16287,-8.16289 z"
     fill-rule="evenodd"
     id="path294"
     inkscape:connector-curvature="0" />
  <path
     fill="#000000"
     d="m 406.86906,85.09134 v -6.90625 h 1.04688 v 0.96875 q 0.32812,-0.51563 0.85937,-0.8125 0.54688,-0.3125 1.23438,-0.3125 0.78125,0 1.26562,0.3125 0.48438,0.3125 0.6875,0.89062 0.82813,-1.20312 2.14063,-1.20312 1.03125,0 1.57812,0.57812 0.5625,0.5625 0.5625,1.73438 v 4.75 h -1.17187 v -4.35938 q 0,-0.70312 -0.125,-1 -0.10938,-0.3125 -0.40625,-0.5 -0.29688,-0.1875 -0.70313,-0.1875 -0.71875,0 -1.20312,0.48438 -0.48438,0.48437 -0.48438,1.54687 v 4.01563 h -1.17187 v -4.48438 q 0,-0.78125 -0.29688,-1.17187 -0.28125,-0.39063 -0.92187,-0.39063 -0.5,0 -0.92188,0.26563 -0.42187,0.25 -0.60937,0.75 -0.1875,0.5 -0.1875,1.45312 v 3.57813 z m 11.43054,0 v -1.32813 h 1.34375 v 1.32813 z m 3.35926,0 v -6.90625 h 1.0625 v 1.04687 q 0.40625,-0.73437 0.73437,-0.96875 0.34375,-0.23437 0.76563,-0.23437 0.59375,0 1.20312,0.375 l -0.40625,1.07812 q -0.4375,-0.25 -0.85937,-0.25 -0.39063,0 -0.70313,0.23438 -0.29687,0.23437 -0.42187,0.64062 -0.20313,0.625 -0.20313,1.35938 v 3.625 z m 4.01647,-3.45313 q 0,-1.92187 1.07813,-2.84375 0.89062,-0.76562 2.17187,-0.76562 1.42188,0 2.32813,0.9375 0.90625,0.92187 0.90625,2.57812 0,1.32813 -0.40625,2.09375 -0.39063,0.76563 -1.15625,1.1875 -0.76563,0.42188 -1.67188,0.42188 -1.45312,0 -2.35937,-0.92188 -0.89063,-0.9375 -0.89063,-2.6875 z m 1.20313,0 q 0,1.32813 0.57812,1.98438 0.59375,0.65625 1.46875,0.65625 0.875,0 1.45313,-0.65625 0.57812,-0.67188 0.57812,-2.03125 0,-1.28125 -0.59375,-1.9375 -0.57812,-0.65625 -1.4375,-0.65625 -0.875,0 -1.46875,0.65625 -0.57812,0.65625 -0.57812,1.98437 z m 6.20935,0 q 0,-1.92187 1.07813,-2.84375 0.89062,-0.76562 2.17187,-0.76562 1.42188,0 2.32813,0.9375 0.90625,0.92187 0.90625,2.57812 0,1.32813 -0.40625,2.09375 -0.39063,0.76563 -1.15625,1.1875 -0.76563,0.42188 -1.67188,0.42188 -1.45312,0 -2.35937,-0.92188 -0.89063,-0.9375 -0.89063,-2.6875 z m 1.20313,0 q 0,1.32813 0.57812,1.98438 0.59375,0.65625 1.46875,0.65625 0.875,0 1.45313,-0.65625 0.57812,-0.67188 0.57812,-2.03125 0,-1.28125 -0.59375,-1.9375 -0.57812,-0.65625 -1.4375,-0.65625 -0.875,0 -1.46875,0.65625 -0.57812,0.65625 -0.57812,1.98437 z m 6.64685,3.45313 v -6.90625 h 1.04687 v 0.96875 q 0.32813,-0.51563 0.85938,-0.8125 0.54687,-0.3125 1.23437,-0.3125 0.78125,0 1.26563,0.3125 0.48437,0.3125 0.6875,0.89062 0.82812,-1.20312 2.14062,-1.20312 1.03125,0 1.57813,0.57812 0.5625,0.5625 0.5625,1.73438 v 4.75 h -1.17188 v -4.35938 q 0,-0.70312 -0.125,-1 -0.10937,-0.3125 -0.40625,-0.5 -0.29687,-0.1875 -0.70312,-0.1875 -0.71875,0 -1.20313,0.48438 -0.48437,0.48437 -0.48437,1.54687 v 4.01563 h -1.17188 v -4.48438 q 0,-0.78125 -0.29687,-1.17187 -0.28125,-0.39063 -0.92188,-0.39063 -0.5,0 -0.92187,0.26563 -0.42188,0.25 -0.60938,0.75 -0.1875,0.5 -0.1875,1.45312 v 3.57813 z m 11.43057,0 v -1.32813 h 1.34375 v 1.32813 z m 3.37485,2.65625 v -9.5625 h 1.07812 v 0.89062 q 0.375,-0.53125 0.84375,-0.78125 0.48438,-0.26562 1.15625,-0.26562 0.875,0 1.54688,0.45312 0.6875,0.45313 1.03125,1.28125 0.34375,0.82813 0.34375,1.82813 0,1.04687 -0.375,1.90625 -0.375,0.84375 -1.10938,1.29687 -0.71875,0.45313 -1.53125,0.45313 -0.57812,0 -1.04687,-0.25 -0.46875,-0.25 -0.76563,-0.625 v 3.375 z m 1.0625,-6.07813 q 0,1.34375 0.53125,1.98438 0.54687,0.625 1.3125,0.625 0.78125,0 1.34375,-0.65625 0.5625,-0.65625 0.5625,-2.04688 0,-1.3125 -0.54688,-1.96875 -0.54687,-0.67187 -1.29687,-0.67187 -0.75,0 -1.32813,0.70312 -0.57812,0.70313 -0.57812,2.03125 z m 5.91247,-0.0312 q 0,-1.92187 1.07813,-2.84375 0.89062,-0.76562 2.17187,-0.76562 1.42188,0 2.32813,0.9375 0.90625,0.92187 0.90625,2.57812 0,1.32813 -0.40625,2.09375 -0.39063,0.76563 -1.15625,1.1875 -0.76563,0.42188 -1.67188,0.42188 -1.45312,0 -2.35937,-0.92188 -0.89063,-0.9375 -0.89063,-2.6875 z m 1.20313,0 q 0,1.32813 0.57812,1.98438 0.59375,0.65625 1.46875,0.65625 0.875,0 1.45313,-0.65625 0.57812,-0.67188 0.57812,-2.03125 0,-1.28125 -0.59375,-1.9375 -0.57812,-0.65625 -1.4375,-0.65625 -0.875,0 -1.46875,0.65625 -0.57812,0.65625 -0.57812,1.98437 z m 7.9281,3.45313 -2.125,-6.90625 h 1.21875 l 1.09375,3.98437 0.42187,1.48438 q 0.0156,-0.10938 0.35938,-1.42188 l 1.09375,-4.04687 h 1.20312 l 1.03125,4 0.34375,1.32812 0.40625,-1.34375 1.17188,-3.98437 h 1.14062 l -2.15625,6.90625 h -1.21875 l -1.09375,-4.14063 -0.26562,-1.17187 -1.40625,5.3125 z m 13.0783,-2.21875 1.20313,0.14062 q -0.28125,1.0625 -1.0625,1.65625 -0.76563,0.57813 -1.96875,0.57813 -1.51563,0 -2.40625,-0.9375 -0.89063,-0.9375 -0.89063,-2.60938 0,-1.75 0.89063,-2.70312 0.90625,-0.96875 2.34375,-0.96875 1.39062,0 2.26562,0.9375 0.875,0.9375 0.875,2.65625 0,0.10937 0,0.3125 h -5.15625 q 0.0625,1.14062 0.64063,1.75 0.57812,0.59375 1.4375,0.59375 0.65625,0 1.10937,-0.32813 0.45313,-0.34375 0.71875,-1.07812 z m -3.84375,-1.90625 h 3.85938 q -0.0781,-0.85938 -0.4375,-1.29688 -0.5625,-0.6875 -1.45313,-0.6875 -0.8125,0 -1.35937,0.54688 -0.54688,0.53125 -0.60938,1.4375 z m 6.50623,4.125 v -6.90625 h 1.0625 v 1.04687 q 0.40625,-0.73437 0.73438,-0.96875 0.34375,-0.23437 0.76562,-0.23437 0.59375,0 1.20313,0.375 l -0.40625,1.07812 q -0.4375,-0.25 -0.85938,-0.25 -0.39062,0 -0.70312,0.23438 -0.29688,0.23437 -0.42188,0.64062 -0.20312,0.625 -0.20312,1.35938 v 3.625 z m 3.37585,2.65625 v -0.85938 h 7.76563 v 0.85938 z m 8.47498,-2.65625 v -9.54688 h 1.17188 v 9.54688 z m 7.71106,-2.21875 1.20313,0.14062 q -0.28125,1.0625 -1.0625,1.65625 -0.76563,0.57813 -1.96875,0.57813 -1.51563,0 -2.40625,-0.9375 -0.89063,-0.9375 -0.89063,-2.60938 0,-1.75 0.89063,-2.70312 0.90625,-0.96875 2.34375,-0.96875 1.39062,0 2.26562,0.9375 0.875,0.9375 0.875,2.65625 0,0.10937 0,0.3125 h -5.15625 q 0.0625,1.14062 0.64063,1.75 0.57812,0.59375 1.4375,0.59375 0.65625,0 1.10937,-0.32813 0.45313,-0.34375 0.71875,-1.07812 z m -3.84375,-1.90625 h 3.85938 q -0.0781,-0.85938 -0.4375,-1.29688 -0.5625,-0.6875 -1.45313,-0.6875 -0.8125,0 -1.35937,0.54688 -0.54688,0.53125 -0.60938,1.4375 z m 8.44373,4.125 -2.625,-6.90625 h 1.23437 l 1.48438,4.14062 q 0.23437,0.65625 0.4375,1.39063 0.15625,-0.54688 0.4375,-1.3125 l 1.53125,-4.21875 h 1.21875 l -2.625,6.90625 z m 9.47656,-2.21875 1.20312,0.14062 q -0.28125,1.0625 -1.0625,1.65625 -0.76562,0.57813 -1.96875,0.57813 -1.51562,0 -2.40625,-0.9375 -0.89062,-0.9375 -0.89062,-2.60938 0,-1.75 0.89062,-2.70312 0.90625,-0.96875 2.34375,-0.96875 1.39063,0 2.26563,0.9375 0.875,0.9375 0.875,2.65625 0,0.10937 0,0.3125 h -5.15625 q 0.0625,1.14062 0.64062,1.75 0.57813,0.59375 1.4375,0.59375 0.65625,0 1.10938,-0.32813 0.45312,-0.34375 0.71875,-1.07812 z m -3.84375,-1.90625 h 3.85937 q -0.0781,-0.85938 -0.4375,-1.29688 -0.5625,-0.6875 -1.45312,-0.6875 -0.8125,0 -1.35938,0.54688 -0.54687,0.53125 -0.60937,1.4375 z m 6.50622,4.125 v -9.54688 h 1.17188 v 9.54688 z"
     fill-rule="nonzero"
     id="path296"
     inkscape:connector-curvature="0" />
  <path
     fill="#cfe2f3"
     d="m 202.49475,63.96605 v 0 c 0,-4.50824 3.65465,-8.1629 8.16289,-8.1629 h 136.6821 c 2.16491,0 4.24118,0.86001 5.77203,2.39085 1.53085,1.53085 2.39087,3.60712 2.39087,5.77205 v 32.65059 c 0,4.50824 -3.65466,8.16289 -8.1629,8.16289 h -136.6821 c -4.50824,0 -8.16289,-3.65465 -8.16289,-8.16289 z"
     fill-rule="evenodd"
     id="path298"
     inkscape:connector-curvature="0" />
  <path
     stroke="#000000"
     stroke-width="1"
     stroke-linejoin="round"
     stroke-linecap="butt"
     d="m 202.49475,63.96605 v 0 c 0,-4.50824 3.65465,-8.1629 8.16289,-8.1629 h 136.6821 c 2.16491,0 4.24118,0.86001 5.77203,2.39085 1.53085,1.53085 2.39087,3.60712 2.39087,5.77205 v 32.65059 c 0,4.50824 -3.65466,8.16289 -8.1629,8.16289 h -136.6821 c -4.50824,0 -8.16289,-3.65465 -8.16289,-8.16289 z"
     fill-rule="evenodd"
     id="path300"
     inkscape:connector-curvature="0" />
  <path
     fill="#000000"
     d="m 219.87431,85.09134 v -6.90625 h 1.04687 v 0.96875 q 0.32813,-0.51563 0.85938,-0.8125 0.54687,-0.3125 1.23437,-0.3125 0.78125,0 1.26563,0.3125 0.48437,0.3125 0.6875,0.89062 0.82812,-1.20312 2.14062,-1.20312 1.03125,0 1.57813,0.57812 0.5625,0.5625 0.5625,1.73438 v 4.75 h -1.17188 v -4.35938 q 0,-0.70312 -0.125,-1 -0.10937,-0.3125 -0.40625,-0.5 -0.29687,-0.1875 -0.70312,-0.1875 -0.71875,0 -1.20313,0.48438 -0.48437,0.48437 -0.48437,1.54687 v 4.01563 h -1.17188 v -4.48438 q 0,-0.78125 -0.29687,-1.17187 -0.28125,-0.39063 -0.92188,-0.39063 -0.5,0 -0.92187,0.26563 -0.42188,0.25 -0.60938,0.75 -0.1875,0.5 -0.1875,1.45312 v 3.57813 z m 11.43054,0 v -1.32813 h 1.34375 v 1.32813 z m 3.35926,0 v -6.90625 h 1.0625 v 1.04687 q 0.40625,-0.73437 0.73437,-0.96875 0.34375,-0.23437 0.76563,-0.23437 0.59375,0 1.20312,0.375 l -0.40625,1.07812 q -0.4375,-0.25 -0.85937,-0.25 -0.39063,0 -0.70313,0.23438 -0.29687,0.23437 -0.42187,0.64062 -0.20313,0.625 -0.20313,1.35938 v 3.625 z m 4.01647,-3.45313 q 0,-1.92187 1.07813,-2.84375 0.89062,-0.76562 2.17187,-0.76562 1.42188,0 2.32813,0.9375 0.90625,0.92187 0.90625,2.57812 0,1.32813 -0.40625,2.09375 -0.39063,0.76563 -1.15625,1.1875 -0.76563,0.42188 -1.67188,0.42188 -1.45312,0 -2.35937,-0.92188 -0.89063,-0.9375 -0.89063,-2.6875 z m 1.20313,0 q 0,1.32813 0.57812,1.98438 0.59375,0.65625 1.46875,0.65625 0.875,0 1.45313,-0.65625 0.57812,-0.67188 0.57812,-2.03125 0,-1.28125 -0.59375,-1.9375 -0.57812,-0.65625 -1.4375,-0.65625 -0.875,0 -1.46875,0.65625 -0.57812,0.65625 -0.57812,1.98437 z m 6.20935,0 q 0,-1.92187 1.07813,-2.84375 0.89062,-0.76562 2.17187,-0.76562 1.42188,0 2.32813,0.9375 0.90625,0.92187 0.90625,2.57812 0,1.32813 -0.40625,2.09375 -0.39063,0.76563 -1.15625,1.1875 -0.76563,0.42188 -1.67188,0.42188 -1.45312,0 -2.35937,-0.92188 -0.89063,-0.9375 -0.89063,-2.6875 z m 1.20313,0 q 0,1.32813 0.57812,1.98438 0.59375,0.65625 1.46875,0.65625 0.875,0 1.45313,-0.65625 0.57812,-0.67188 0.57812,-2.03125 0,-1.28125 -0.59375,-1.9375 -0.57812,-0.65625 -1.4375,-0.65625 -0.875,0 -1.46875,0.65625 -0.57812,0.65625 -0.57812,1.98437 z m 6.64685,3.45313 v -6.90625 h 1.04687 v 0.96875 q 0.32813,-0.51563 0.85938,-0.8125 0.54687,-0.3125 1.23437,-0.3125 0.78125,0 1.26563,0.3125 0.48437,0.3125 0.6875,0.89062 0.82812,-1.20312 2.14062,-1.20312 1.03125,0 1.57813,0.57812 0.5625,0.5625 0.5625,1.73438 v 4.75 h -1.17188 v -4.35938 q 0,-0.70312 -0.125,-1 -0.10937,-0.3125 -0.40625,-0.5 -0.29687,-0.1875 -0.70312,-0.1875 -0.71875,0 -1.20313,0.48438 -0.48437,0.48437 -0.48437,1.54687 v 4.01563 h -1.17188 v -4.48438 q 0,-0.78125 -0.29687,-1.17187 -0.28125,-0.39063 -0.92188,-0.39063 -0.5,0 -0.92187,0.26563 -0.42188,0.25 -0.60938,0.75 -0.1875,0.5 -0.1875,1.45312 v 3.57813 z m 11.43057,0 v -1.32813 h 1.34375 v 1.32813 z m 3.37485,2.65625 v -9.5625 h 1.07812 v 0.89062 q 0.375,-0.53125 0.84375,-0.78125 0.48438,-0.26562 1.15625,-0.26562 0.875,0 1.54688,0.45312 0.6875,0.45313 1.03125,1.28125 0.34375,0.82813 0.34375,1.82813 0,1.04687 -0.375,1.90625 -0.375,0.84375 -1.10938,1.29687 -0.71875,0.45313 -1.53125,0.45313 -0.57812,0 -1.04687,-0.25 -0.46875,-0.25 -0.76563,-0.625 v 3.375 z m 1.0625,-6.07813 q 0,1.34375 0.53125,1.98438 0.54687,0.625 1.3125,0.625 0.78125,0 1.34375,-0.65625 0.5625,-0.65625 0.5625,-2.04688 0,-1.3125 -0.54688,-1.96875 -0.54687,-0.67187 -1.29687,-0.67187 -0.75,0 -1.32813,0.70312 -0.57812,0.70313 -0.57812,2.03125 z m 5.91247,-0.0312 q 0,-1.92187 1.07813,-2.84375 0.89062,-0.76562 2.17187,-0.76562 1.42188,0 2.32813,0.9375 0.90625,0.92187 0.90625,2.57812 0,1.32813 -0.40625,2.09375 -0.39063,0.76563 -1.15625,1.1875 -0.76563,0.42188 -1.67188,0.42188 -1.45312,0 -2.35937,-0.92188 -0.89063,-0.9375 -0.89063,-2.6875 z m 1.20313,0 q 0,1.32813 0.57812,1.98438 0.59375,0.65625 1.46875,0.65625 0.875,0 1.45313,-0.65625 0.57812,-0.67188 0.57812,-2.03125 0,-1.28125 -0.59375,-1.9375 -0.57812,-0.65625 -1.4375,-0.65625 -0.875,0 -1.46875,0.65625 -0.57812,0.65625 -0.57812,1.98437 z m 7.9281,3.45313 -2.125,-6.90625 h 1.21875 l 1.09375,3.98437 0.42187,1.48438 q 0.0156,-0.10938 0.35938,-1.42188 l 1.09375,-4.04687 h 1.20312 l 1.03125,4 0.34375,1.32812 0.40625,-1.34375 1.17188,-3.98437 h 1.14062 l -2.15625,6.90625 h -1.21875 l -1.09375,-4.14063 -0.26562,-1.17187 -1.40625,5.3125 z m 13.07827,-2.21875 1.20313,0.14062 q -0.28125,1.0625 -1.0625,1.65625 -0.76563,0.57813 -1.96875,0.57813 -1.51563,0 -2.40625,-0.9375 -0.89063,-0.9375 -0.89063,-2.60938 0,-1.75 0.89063,-2.70312 0.90625,-0.96875 2.34375,-0.96875 1.39062,0 2.26562,0.9375 0.875,0.9375 0.875,2.65625 0,0.10937 0,0.3125 h -5.15625 q 0.0625,1.14062 0.64063,1.75 0.57812,0.59375 1.4375,0.59375 0.65625,0 1.10937,-0.32813 0.45313,-0.34375 0.71875,-1.07812 z m -3.84375,-1.90625 h 3.85938 q -0.0781,-0.85938 -0.4375,-1.29688 -0.5625,-0.6875 -1.45313,-0.6875 -0.8125,0 -1.35937,0.54688 -0.54688,0.53125 -0.60938,1.4375 z m 6.50623,4.125 v -6.90625 h 1.0625 v 1.04687 q 0.40625,-0.73437 0.73438,-0.96875 0.34375,-0.23437 0.76562,-0.23437 0.59375,0 1.20313,0.375 l -0.40625,1.07812 q -0.4375,-0.25 -0.85938,-0.25 -0.39062,0 -0.70312,0.23438 -0.29688,0.23437 -0.42188,0.64062 -0.20312,0.625 -0.20312,1.35938 v 3.625 z m 3.37589,2.65625 v -0.85938 h 7.76562 v 0.85938 z m 8.47497,-2.65625 v -9.54688 h 1.17188 v 9.54688 z m 7.71109,-2.21875 1.20313,0.14062 q -0.28125,1.0625 -1.0625,1.65625 -0.76563,0.57813 -1.96875,0.57813 -1.51563,0 -2.40625,-0.9375 -0.89063,-0.9375 -0.89063,-2.60938 0,-1.75 0.89063,-2.70312 0.90625,-0.96875 2.34375,-0.96875 1.39062,0 2.26562,0.9375 0.875,0.9375 0.875,2.65625 0,0.10937 0,0.3125 h -5.15625 q 0.0625,1.14062 0.64063,1.75 0.57812,0.59375 1.4375,0.59375 0.65625,0 1.10937,-0.32813 0.45313,-0.34375 0.71875,-1.07812 z m -3.84375,-1.90625 h 3.85938 q -0.0781,-0.85938 -0.4375,-1.29688 -0.5625,-0.6875 -1.45313,-0.6875 -0.8125,0 -1.35937,0.54688 -0.54688,0.53125 -0.60938,1.4375 z m 8.44373,4.125 -2.625,-6.90625 h 1.23437 l 1.48438,4.14062 q 0.23437,0.65625 0.4375,1.39063 0.15625,-0.54688 0.4375,-1.3125 l 1.53125,-4.21875 h 1.21875 l -2.625,6.90625 z m 9.47653,-2.21875 1.20312,0.14062 q -0.28125,1.0625 -1.0625,1.65625 -0.76562,0.57813 -1.96872,0.57813 -1.51562,0 -2.40625,-0.9375 -0.89062,-0.9375 -0.89062,-2.60938 0,-1.75 0.89062,-2.70312 0.90625,-0.96875 2.34375,-0.96875 1.3906,0 2.2656,0.9375 0.875,0.9375 0.875,2.65625 0,0.10937 0,0.3125 h -5.15622 q 0.0625,1.14062 0.64062,1.75 0.57813,0.59375 1.4375,0.59375 0.65622,0 1.10935,-0.32813 0.45312,-0.34375 0.71875,-1.07812 z m -3.84372,-1.90625 h 3.85934 q -0.0781,-0.85938 -0.4375,-1.29688 -0.5625,-0.6875 -1.45309,-0.6875 -0.8125,0 -1.35938,0.54688 -0.54687,0.53125 -0.60937,1.4375 z m 6.50619,4.125 v -9.54688 h 1.17188 v 9.54688 z"
     fill-rule="nonzero"
     id="path302"
     inkscape:connector-curvature="0" />
  <path
     fill="#cfe2f3"
     d="m 15.5,63.96605 v 0 c 0,-4.50824 3.654652,-8.1629 8.162891,-8.1629 H 160.34499 c 2.16493,0 4.24119,0.86001 5.77203,2.39085 1.53084,1.53085 2.39086,3.60712 2.39086,5.77205 v 32.65059 c 0,4.50824 -3.65465,8.16289 -8.16289,8.16289 H 23.662891 c -4.50824,0 -8.162891,-3.65465 -8.162891,-8.16289 z"
     fill-rule="evenodd"
     id="path304"
     inkscape:connector-curvature="0" />
  <path
     stroke="#000000"
     stroke-width="1"
     stroke-linejoin="round"
     stroke-linecap="butt"
     d="m 15.5,63.96605 v 0 c 0,-4.50824 3.654652,-8.1629 8.162891,-8.1629 H 160.34499 c 2.16493,0 4.24119,0.86001 5.77203,2.39085 1.53084,1.53085 2.39086,3.60712 2.39086,5.77205 v 32.65059 c 0,4.50824 -3.65465,8.16289 -8.16289,8.16289 H 23.662891 c -4.50824,0 -8.162891,-3.65465 -8.162891,-8.16289 z"
     fill-rule="evenodd"
     id="path306"
     inkscape:connector-curvature="0" />
  <path
     fill="#000000"
     d="m 49.920432,85.09134 v -6.90625 h 1.046875 v 0.96875 q 0.328125,-0.51563 0.859375,-0.8125 0.54687,-0.3125 1.23437,-0.3125 0.78125,0 1.26563,0.3125 0.48437,0.3125 0.6875,0.89062 0.82812,-1.20312 2.14062,-1.20312 1.03125,0 1.57813,0.57812 0.5625,0.5625 0.5625,1.73438 v 4.75 h -1.17188 v -4.35938 q 0,-0.70312 -0.125,-1 -0.10937,-0.3125 -0.40625,-0.5 -0.29687,-0.1875 -0.70312,-0.1875 -0.71875,0 -1.20313,0.48438 -0.48437,0.48437 -0.48437,1.54687 v 4.01563 h -1.17188 v -4.48438 q 0,-0.78125 -0.29687,-1.17187 -0.28125,-0.39063 -0.92188,-0.39063 -0.5,0 -0.92187,0.26563 -0.421875,0.25 -0.609375,0.75 -0.1875,0.5 -0.1875,1.45312 v 3.57813 z m 11.43056,0 v -1.32813 h 1.34375 v 1.32813 z m 3.35923,0 v -6.90625 h 1.0625 v 1.04687 q 0.40625,-0.73437 0.73438,-0.96875 0.34375,-0.23437 0.76562,-0.23437 0.59375,0 1.20313,0.375 l -0.40625,1.07812 q -0.4375,-0.25 -0.85938,-0.25 -0.39062,0 -0.70312,0.23438 -0.29688,0.23437 -0.42188,0.64062 -0.20312,0.625 -0.20312,1.35938 v 3.625 z m 4.0165,-3.45313 q 0,-1.92187 1.07812,-2.84375 0.89063,-0.76562 2.17188,-0.76562 1.42187,0 2.32812,0.9375 0.90625,0.92187 0.90625,2.57812 0,1.32813 -0.40625,2.09375 -0.39062,0.76563 -1.15625,1.1875 -0.76562,0.42188 -1.67187,0.42188 -1.45313,0 -2.35938,-0.92188 -0.89062,-0.9375 -0.89062,-2.6875 z m 1.20312,0 q 0,1.32813 0.57813,1.98438 0.59375,0.65625 1.46875,0.65625 0.875,0 1.45312,-0.65625 0.57813,-0.67188 0.57813,-2.03125 0,-1.28125 -0.59375,-1.9375 -0.57813,-0.65625 -1.4375,-0.65625 -0.875,0 -1.46875,0.65625 -0.57813,0.65625 -0.57813,1.98437 z m 6.20936,0 q 0,-1.92187 1.07812,-2.84375 0.89063,-0.76562 2.17188,-0.76562 1.42188,0 2.32813,0.9375 0.90625,0.92187 0.90625,2.57812 0,1.32813 -0.40625,2.09375 -0.39063,0.76563 -1.15625,1.1875 -0.76563,0.42188 -1.67188,0.42188 -1.45313,0 -2.35938,-0.92188 -0.89062,-0.9375 -0.89062,-2.6875 z m 1.20312,0 q 0,1.32813 0.57813,1.98438 0.59375,0.65625 1.46875,0.65625 0.875,0 1.45313,-0.65625 0.57812,-0.67188 0.57812,-2.03125 0,-1.28125 -0.59375,-1.9375 -0.57812,-0.65625 -1.4375,-0.65625 -0.875,0 -1.46875,0.65625 -0.57813,0.65625 -0.57813,1.98437 z m 6.64686,3.45313 v -6.90625 h 1.04687 v 0.96875 q 0.32813,-0.51563 0.85938,-0.8125 0.54687,-0.3125 1.23437,-0.3125 0.78125,0 1.26563,0.3125 0.48437,0.3125 0.6875,0.89062 0.82812,-1.20312 2.14062,-1.20312 1.03125,0 1.57813,0.57812 0.5625,0.5625 0.5625,1.73438 v 4.75 h -1.17188 v -4.35938 q 0,-0.70312 -0.125,-1 -0.10937,-0.3125 -0.40625,-0.5 -0.29687,-0.1875 -0.70312,-0.1875 -0.71875,0 -1.20313,0.48438 -0.48437,0.48437 -0.48437,1.54687 v 4.01563 h -1.17188 v -4.48438 q 0,-0.78125 -0.29687,-1.17187 -0.28125,-0.39063 -0.92188,-0.39063 -0.5,0 -0.92187,0.26563 -0.42188,0.25 -0.60938,0.75 -0.1875,0.5 -0.1875,1.45312 v 3.57813 z m 11.43056,0 v -1.32813 h 1.34375 v 1.32813 z m 7.890478,-2.53125 1.15625,0.15625 q -0.1875,1.1875 -0.96875,1.85937 -0.78125,0.67188 -1.92187,0.67188 -1.40625,0 -2.281248,-0.92188 -0.85938,-0.9375 -0.85938,-2.65625 0,-1.125 0.375,-1.96875 0.375,-0.84375 1.125,-1.25 0.765628,-0.42187 1.656248,-0.42187 1.125,0 1.84375,0.57812 0.71875,0.5625 0.92188,1.60938 l -1.14063,0.17187 q -0.17187,-0.70312 -0.59375,-1.04687 -0.40625,-0.35938 -0.98437,-0.35938 -0.89063,0 -1.45313,0.64063 -0.546868,0.64062 -0.546868,2 0,1.40625 0.531248,2.03125 0.54687,0.625 1.40625,0.625 0.6875,0 1.14062,-0.42188 0.46875,-0.42187 0.59375,-1.29687 z m 2.13282,2.53125 v -6.90625 h 1.0625 v 1.04687 q 0.40625,-0.73437 0.73437,-0.96875 0.34375,-0.23437 0.76563,-0.23437 0.59375,0 1.20312,0.375 l -0.40625,1.07812 q -0.4375,-0.25 -0.85937,-0.25 -0.39063,0 -0.70313,0.23438 -0.29687,0.23437 -0.42187,0.64062 -0.20313,0.625 -0.20313,1.35938 v 3.625 z m 9.18837,-2.21875 1.20312,0.14062 q -0.28125,1.0625 -1.0625,1.65625 -0.76562,0.57813 -1.96875,0.57813 -1.51562,0 -2.40625,-0.9375 -0.89062,-0.9375 -0.89062,-2.60938 0,-1.75 0.89062,-2.70312 0.90625,-0.96875 2.34375,-0.96875 1.39063,0 2.26563,0.9375 0.875,0.9375 0.875,2.65625 0,0.10937 0,0.3125 h -5.15625 q 0.0625,1.14062 0.64062,1.75 0.57813,0.59375 1.4375,0.59375 0.65625,0 1.10938,-0.32813 0.45312,-0.34375 0.71875,-1.07812 z m -3.84375,-1.90625 h 3.85937 q -0.0781,-0.85938 -0.4375,-1.29688 -0.5625,-0.6875 -1.45312,-0.6875 -0.8125,0 -1.35938,0.54688 -0.54687,0.53125 -0.60937,1.4375 z m 11.03747,3.26562 q -0.65625,0.5625 -1.26562,0.79688 -0.59375,0.21875 -1.28125,0.21875 -1.14063,0 -1.75,-0.54688 -0.60938,-0.5625 -0.60938,-1.4375 0,-0.5 0.21875,-0.92187 0.23438,-0.42188 0.60938,-0.67188 0.375,-0.25 0.84375,-0.39062 0.34375,-0.0781 1.04687,-0.17188 1.42188,-0.17187 2.09375,-0.40625 0,-0.23437 0,-0.29687 0,-0.71875 -0.32812,-1.01563 -0.45313,-0.39062 -1.34375,-0.39062 -0.8125,0 -1.21875,0.29687 -0.39063,0.28125 -0.57813,1.01563 l -1.14062,-0.15625 q 0.15625,-0.73438 0.51562,-1.1875 0.35938,-0.45313 1.03125,-0.6875 0.67188,-0.25 1.5625,-0.25 0.89063,0 1.4375,0.20312 0.5625,0.20313 0.8125,0.53125 0.26563,0.3125 0.375,0.79688 0.0469,0.29687 0.0469,1.07812 v 1.5625 q 0,1.625 0.0781,2.0625 0.0781,0.4375 0.29688,0.82813 h -1.21875 q -0.1875,-0.35938 -0.23438,-0.85938 z m -0.0937,-2.60937 q -0.64062,0.26562 -1.92187,0.4375 -0.71875,0.10937 -1.01563,0.25 -0.29687,0.125 -0.46875,0.375 -0.15625,0.25 -0.15625,0.54687 0,0.46875 0.34375,0.78125 0.35938,0.3125 1.04688,0.3125 0.67187,0 1.20312,-0.29687 0.53125,-0.29688 0.78125,-0.8125 0.1875,-0.39063 0.1875,-1.17188 z m 5.5531,2.42187 0.17188,1.03125 q -0.5,0.10938 -0.89063,0.10938 -0.64062,0 -1,-0.20313 -0.34375,-0.20312 -0.48437,-0.53125 -0.14063,-0.32812 -0.14063,-1.39062 v -3.96875 h -0.85937 v -0.90625 h 0.85937 v -1.71875 l 1.17188,-0.70313 v 2.42188 h 1.17187 v 0.90625 h -1.17187 v 4.04687 q 0,0.5 0.0469,0.64063 0.0625,0.14062 0.20313,0.23437 0.14062,0.0781 0.40625,0.0781 0.20312,0 0.51562,-0.0469 z m 5.87486,-1.17187 1.20313,0.14062 q -0.28125,1.0625 -1.0625,1.65625 -0.76563,0.57813 -1.96875,0.57813 -1.51563,0 -2.40625,-0.9375 -0.89063,-0.9375 -0.89063,-2.60938 0,-1.75 0.89063,-2.70312 0.90625,-0.96875 2.34375,-0.96875 1.39062,0 2.26562,0.9375 0.875,0.9375 0.875,2.65625 0,0.10937 0,0.3125 h -5.15625 q 0.0625,1.14062 0.64063,1.75 0.57812,0.59375 1.4375,0.59375 0.65625,0 1.10937,-0.32813 0.45313,-0.34375 0.71875,-1.07812 z m -3.84375,-1.90625 h 3.85938 q -0.0781,-0.85938 -0.4375,-1.29688 -0.5625,-0.6875 -1.45313,-0.6875 -0.8125,0 -1.35937,0.54688 -0.54688,0.53125 -0.60938,1.4375 z"
     fill-rule="nonzero"
     id="path308"
     inkscape:connector-curvature="0" />
  <path
     fill="#000000"
     fill-opacity="0"
     d="M 576.48426,80.29134 H 542.50001"
     fill-rule="evenodd"
     id="path310"
     inkscape:connector-curvature="0" />
  <path
     stroke="#000000"
     stroke-width="3"
     stroke-linejoin="round"
     stroke-linecap="butt"
     d="M 576.48426,80.29134 H 560.50001"
     fill-rule="evenodd"
     id="path312"
     inkscape:connector-curvature="0" />
  <path
     fill="#000000"
     stroke="#000000"
     stroke-width="3"
     stroke-linecap="butt"
     d="m 560.49996,75.33614 -13.61426,4.9552 13.61426,4.9552 z"
     fill-rule="evenodd"
     id="path314"
     inkscape:connector-curvature="0" />
  <path
     fill="#000000"
     fill-opacity="0"
     d="M 389.48951,80.29134 H 355.50526"
     fill-rule="evenodd"
     id="path316"
     inkscape:connector-curvature="0" />
  <path
     stroke="#000000"
     stroke-width="3"
     stroke-linejoin="round"
     stroke-linecap="butt"
     d="M 389.48951,80.29134 H 373.50526"
     fill-rule="evenodd"
     id="path318"
     inkscape:connector-curvature="0" />
  <path
     fill="#000000"
     stroke="#000000"
     stroke-width="3"
     stroke-linecap="butt"
     d="m 373.50526,75.33614 -13.61432,4.9552 13.61432,4.9552 z"
     fill-rule="evenodd"
     id="path320"
     inkscape:connector-curvature="0" />
  <path
     fill="#000000"
     fill-opacity="0"
     d="M 202.49475,80.29134 H 168.5105"
     fill-rule="evenodd"
     id="path322"
     inkscape:connector-curvature="0" />
  <path
     stroke="#000000"
     stroke-width="3"
     stroke-linejoin="round"
     stroke-linecap="butt"
     d="M 202.49475,80.29134 H 186.5105"
     fill-rule="evenodd"
     id="path324"
     inkscape:connector-curvature="0" />
  <path
     fill="#000000"
     stroke="#000000"
     stroke-width="3"
     stroke-linecap="butt"
     d="m 186.51049,75.33614 -13.61429,4.9552 13.61429,4.9552 z"
     fill-rule="evenodd"
     id="path326"
     inkscape:connector-curvature="0" />
  <path
     fill="#000000"
     fill-opacity="0"
     d="M 577.5026,15 H 730.51047 V 46.59055 H 577.5026 Z"
     fill-rule="evenodd"
     id="path328"
     inkscape:connector-curvature="0" />
  <path
     fill="#000000"
     d="m 626.84831,38.08001 h -2.01562 v -7.59375 h 1.85937 v 1.07812 q 0.48438,-0.76562 0.85938,-1 0.39062,-0.25 0.875,-0.25 0.6875,0 1.32812,0.375 l -0.625,1.75 q -0.5,-0.32812 -0.9375,-0.32812 -0.42187,0 -0.71875,0.23437 -0.29687,0.23438 -0.46875,0.84375 -0.15625,0.60938 -0.15625,2.54688 z m 8.17236,-2.42188 2,0.34375 q -0.375,1.09375 -1.21875,1.67188 -0.82812,0.57812 -2.07812,0.57812 -1.98438,0 -2.9375,-1.29687 -0.75,-1.03125 -0.75,-2.625 0,-1.875 0.98437,-2.9375 0.98438,-1.07813 2.5,-1.07813 1.6875,0 2.67188,1.125 0.98437,1.10938 0.9375,3.42188 h -5.03125 q 0.0156,0.89062 0.48437,1.39062 0.46875,0.5 1.15625,0.5 0.46875,0 0.78125,-0.25 0.32813,-0.26562 0.5,-0.84375 z m 0.10938,-2.03125 q -0.0156,-0.875 -0.45313,-1.32812 -0.42187,-0.45313 -1.03125,-0.45313 -0.67187,0 -1.09375,0.48438 -0.42187,0.46875 -0.42187,1.29687 z m 2.93237,2.28125 2.01563,-0.29687 q 0.125,0.57812 0.51562,0.89062 0.40625,0.29688 1.10938,0.29688 0.78125,0 1.17187,-0.28125 0.26563,-0.20313 0.26563,-0.54688 0,-0.21875 -0.14063,-0.375 -0.15625,-0.14062 -0.67187,-0.26562 -2.4375,-0.53125 -3.07813,-0.98438 -0.90625,-0.60937 -0.90625,-1.70312 0,-0.98438 0.78125,-1.65625 0.78125,-0.67188 2.42188,-0.67188 1.54687,0 2.3125,0.51563 0.76562,0.5 1.04687,1.48437 l -1.90625,0.35938 q -0.10937,-0.45313 -0.45312,-0.6875 -0.34375,-0.23438 -0.96875,-0.23438 -0.79688,0 -1.14063,0.21875 -0.23437,0.15625 -0.23437,0.40625 0,0.21875 0.20312,0.375 0.28125,0.20313 1.875,0.5625 1.60938,0.35938 2.25,0.89063 0.625,0.54687 0.625,1.5 0,1.04687 -0.875,1.79687 -0.85937,0.75 -2.57812,0.75 -1.54688,0 -2.45313,-0.625 -0.90625,-0.64062 -1.1875,-1.71875 z m 8.40112,-1.73437 q 0,-1 0.48438,-1.9375 0.5,-0.9375 1.40625,-1.42188 0.90625,-0.5 2.01562,-0.5 1.71875,0 2.82813,1.125 1.10937,1.10938 1.10937,2.8125 0,1.73438 -1.125,2.875 -1.10937,1.125 -2.79687,1.125 -1.04688,0 -2,-0.46875 -0.9375,-0.46875 -1.4375,-1.375 -0.48438,-0.92187 -0.48438,-2.23437 z m 2.04688,0.10937 q 0,1.125 0.53125,1.73438 0.54687,0.59375 1.34375,0.59375 0.78125,0 1.3125,-0.59375 0.53125,-0.60938 0.53125,-1.75 0,-1.125 -0.53125,-1.71875 -0.53125,-0.60938 -1.3125,-0.60938 -0.79688,0 -1.34375,0.60938 -0.53125,0.59375 -0.53125,1.73437 z m 7.35882,3.79688 V 27.59564 h 2.01563 v 10.48437 z m 6.16578,0 -3.0625,-7.59375 h 2.10937 l 1.4375,3.875 0.40625,1.29687 q 0.17188,-0.5 0.21875,-0.65625 0.0937,-0.32812 0.20313,-0.64062 l 1.45312,-3.875 h 2.0625 l -3.01562,7.59375 z m 10.46356,-2.42188 2,0.34375 q -0.375,1.09375 -1.21875,1.67188 -0.82813,0.57812 -2.07813,0.57812 -1.98437,0 -2.9375,-1.29687 -0.75,-1.03125 -0.75,-2.625 0,-1.875 0.98438,-2.9375 0.98437,-1.07813 2.5,-1.07813 1.6875,0 2.67187,1.125 0.98438,1.10938 0.9375,3.42188 h -5.03125 q 0.0156,0.89062 0.48438,1.39062 0.46875,0.5 1.15625,0.5 0.46875,0 0.78125,-0.25 0.32812,-0.26562 0.5,-0.84375 z m 0.10937,-2.03125 q -0.0156,-0.875 -0.45312,-1.32812 -0.42188,-0.45313 -1.03125,-0.45313 -0.67188,0 -1.09375,0.48438 -0.42188,0.46875 -0.42188,1.29687 z m 10.60425,4.45313 h -1.85937 v -1.10938 q -0.46875,0.64063 -1.10938,0.96875 -0.625,0.3125 -1.26562,0.3125 -1.3125,0 -2.25,-1.04687 -0.9375,-1.0625 -0.9375,-2.95313 0,-1.9375 0.90625,-2.9375 0.92187,-1 2.3125,-1 1.26562,0 2.20312,1.04688 v -3.76562 h 2 z m -5.35937,-3.96875 q 0,1.21875 0.32812,1.76562 0.5,0.78125 1.35938,0.78125 0.70312,0 1.1875,-0.57812 0.48437,-0.59375 0.48437,-1.76563 0,-1.3125 -0.46875,-1.89062 -0.46875,-0.57813 -1.20312,-0.57813 -0.71875,0 -1.20313,0.57813 -0.48437,0.5625 -0.48437,1.6875 z"
     fill-rule="nonzero"
     id="path330"
     inkscape:connector-curvature="0" />
</svg>
