<?xml version="1.0" encoding="utf-8"?>
<svg version="1.0" id="Layer_1" xmlns="http://www.w3.org/2000/svg" xmlns:xlink="http://www.w3.org/1999/xlink" x="0px" y="0px"
	 viewBox="0 0 959 580.5" style="enable-background:new 0 0 959 580.5;" xml:space="preserve">
<style type="text/css">
	.st0{fill:#7B00FF;}
	.st1{fill:none;}
</style>
<path id="Shape" d="M432.6,295.6c0,15.5-8.7,22.1-23,22.1c-15,0-23.8-6.6-23.8-22.1v-60.4h-11.4v61.5c0,22,15,30.8,34.8,30.8
	c19.5,0,34.8-8.7,34.8-30.8v-61.5h-11.4V295.6z M492.6,258.9c-9.5,0-16.1,4.1-21.1,10.8h-0.2v-9.3H461v86.8h10.3v-28.9h0.3
	c5.5,7,11.9,9.7,20.7,9.7c17.8,0,28.6-13.5,28.6-34.6C520.8,271.6,509.2,258.9,492.6,258.9L492.6,258.9z M491.4,319.4
	c-15.1,0-20.8-11.5-20.8-25.8s6.6-26,21-26c12.5,0,18.7,11.2,18.7,25.9S504,319.4,491.4,319.4z M574.7,317.9
	c-18.9,0-31.2-15-31.2-37.2c0-21.4,11.2-37.5,31.2-37.5c14.4,0,23.4,7.8,25.5,19.1h11.2c-2.4-16.8-15.3-29-36.5-29
	c-27.1,0-43.1,20.8-43.1,47.4c0,27.6,16.8,47.3,42.5,47.3c11.5,0,20.8-3.3,27.2-9.5c6.7-6.9,10.6-15.9,11-25.5h-11.3
	C600,306.2,591.9,317.9,574.7,317.9z M626.1,235.2h10.3v90.9h-10.3V235.2z M680.5,258.7c-19.6,0-31.8,15.5-31.8,34.6
	s12.2,34.6,31.8,34.6c19.7,0,31.6-15.5,31.6-34.6S700.2,258.7,680.5,258.7z M680.5,319.2c-14,0-21.2-11.4-21.2-25.9
	s7.2-26.1,21.2-26.1s21.1,11.6,21.1,26.1S694.5,319.2,680.5,319.2z M766.3,300.9c0,10.4-6.8,18.3-17.2,18.3
	c-9.3,0-14.7-4.9-14.7-13.5v-45.3h-10.2V306c0,13.6,8.7,21.7,22.1,21.7c9.5,0,15.1-4.2,19.8-10.6h0.2v9h10.3v-65.8h-10.3
	L766.3,300.9L766.3,300.9z M838.7,235.2v34.4h-0.2c-4.6-6.9-12.3-10.9-20.6-10.8c-16.3,0-28.9,12.7-28.9,34.6
	c0,21.1,11.2,34.6,29.1,34.6c9.3,0,15.3-3.6,20.4-9.9h0.2v8H849v-90.9H838.7z M818.5,319.4c-12.6,0-18.9-10.9-18.9-25.8
	s6.4-25.9,18.8-25.9c13.6,0,21,10.6,21,25.9C839.3,308.5,833.2,319.4,818.5,319.4z"/>
<g id="logo-cables">
	<path id="Shape-2" class="st0" d="M320.5,290.4H209.3v8.4h111.3c5.3-0.2,9.7,4,9.9,9.3c0.2,5.3-4,9.7-9.3,9.9c-0.2,0-0.4,0-0.6,0
		H200.9v-38.3h-8.4v46.7h128c9.9-0.2,17.8-8.5,17.5-18.4C337.8,298.3,330.1,290.6,320.5,290.4L320.5,290.4z"/>
	<path id="Shape-3" class="st0" d="M118.4,280.8c0-5.3,4.3-9.5,9.5-9.5c0,0,0,0,0.1,0H238c9.9-0.2,17.8-8.5,17.5-18.4
		c-0.2-9.6-7.9-17.3-17.5-17.5h-45.4v19.2h8.4v-10.8H238c5.3,0.2,9.4,4.6,9.3,9.9c-0.2,5-4.2,9.1-9.3,9.3H127.9c-9.9,0-18,8.1-18,18
		s8.1,18,18,18h56.2v-8.4h-56.2C122.6,290.4,118.3,286.1,118.4,280.8z"/>
</g>
<rect x="88" y="207.5" class="st1" width="783" height="165.5"/>
</svg>
