<svg width="76" height="76" viewBox="0 0 76 76" fill="none" xmlns="http://www.w3.org/2000/svg">
<rect width="76" height="76" fill="#006699"/>
<path fill-rule="evenodd" clip-rule="evenodd" d="M23.4786 63.2311V29.0002H11.9559V63.2311H23.4786ZM17.7172 24.3265C21.7354 24.3265 24.2363 21.698 24.2363 18.413C24.1615 15.0541 21.7354 12.4985 17.7934 12.4985C13.8519 12.4985 11.2748 15.0541 11.2748 18.413C11.2748 21.698 13.7752 24.3265 17.6421 24.3265H17.7172Z" fill="white"/>
<path fill-rule="evenodd" clip-rule="evenodd" d="M29.8544 63.2311H41.3769V44.1151C41.3769 43.092 41.4518 42.07 41.756 41.3386C42.589 39.2946 44.485 37.1775 47.6681 37.1775C51.8376 37.1775 53.5055 40.3166 53.5055 44.9183V63.2311H65.0271V43.6036C65.0271 33.0894 59.3424 28.1969 51.7615 28.1969C45.5454 28.1969 42.8164 31.6277 41.3002 33.9645H41.3772V29.0002H29.8547C30.0059 32.2122 29.8544 63.2311 29.8544 63.2311Z" fill="white"/>
</svg>
