<svg width="176" height="128" viewBox="0 0 176 128" fill="none" xmlns="http://www.w3.org/2000/svg">
<path d="M138.805 14.5581C138.882 15.8711 137.018 15.5261 137.018 16.8511C137.018 55.4021 90.4601 114.217 45.3301 125.581V127.22C105.283 121.7 173.89 59.4201 175.4 0.370117L138.801 14.5591L138.805 14.5581Z" fill="url(#paint0_linear_1294_15101)"/>
<path d="M120.673 19.301C120.749 20.614 120.793 21.931 120.793 23.258C120.793 61.809 90.0941 113.755 44.9661 125.118V126.757C104.01 123.967 150.776 63.733 150.776 17.557C150.776 15.182 150.648 12.828 150.405 10.501L120.675 19.299L120.673 19.301Z" fill="#E96D1F"/>
<path d="M150.691 9.95224L143.074 12.6742C143.115 13.6362 143.14 14.9282 143.14 15.8992C143.14 57.1182 105.869 114.103 55.8681 123.019C52.6231 124.107 48.3301 125.096 44.9361 125.95V127.588C110.19 122.028 156.036 55.7222 150.696 9.94824L150.691 9.95224Z" fill="#D9541E"/>
<path d="M37.011 14.5571C36.934 15.8701 38.798 15.5251 38.798 16.8501C38.798 55.4011 85.356 114.216 130.486 125.58V127.219C70.533 121.699 1.92602 59.4191 0.416016 0.369141L37.015 14.5581L37.011 14.5571Z" fill="url(#paint1_linear_1294_15101)"/>
<path d="M55.143 19.3C55.067 20.613 55.023 21.93 55.023 23.257C55.023 61.808 85.722 113.754 130.85 125.117V126.756C71.806 123.966 25.04 63.732 25.04 17.556C25.04 15.181 25.168 12.827 25.411 10.5L55.141 19.298L55.143 19.3Z" fill="#A0CE67"/>
<path d="M25.125 9.95127L32.742 12.6733C32.701 13.6353 32.676 14.9273 32.676 15.8983C32.676 57.1173 69.947 114.102 119.948 123.018C123.193 124.106 127.486 125.095 130.88 125.949V127.587C65.626 122.027 19.78 55.7213 25.12 9.94727L25.125 9.95127Z" fill="#439639"/>
<defs>
<linearGradient id="paint0_linear_1294_15101" x1="110.404" y1="127.219" x2="110.404" y2="0.369119" gradientUnits="userSpaceOnUse">
<stop offset="0.011" stop-color="#1B3967"/>
<stop offset="0.467" stop-color="#13B5EA"/>
<stop offset="0.9945" stop-color="#002B5C"/>
</linearGradient>
<linearGradient id="paint1_linear_1294_15101" x1="65.412" y1="127.218" x2="65.412" y2="0.368143" gradientUnits="userSpaceOnUse">
<stop offset="0.011" stop-color="#1B3967"/>
<stop offset="0.467" stop-color="#13B5EA"/>
<stop offset="0.9945" stop-color="#002B5C"/>
</linearGradient>
</defs>
</svg>
