<svg width="515" height="515" viewBox="0 0 515 515" fill="none" xmlns="http://www.w3.org/2000/svg">
<path fill-rule="evenodd" clip-rule="evenodd" d="M210.229 90.8382C184.345 90.192 158.125 107.328 151.584 132.971C150.061 139.187 149.439 145.081 149.329 151.085C149.329 173.352 149.329 195.62 149.329 217.888C158.079 217.888 166.829 217.888 175.579 217.888C175.672 194.387 175.446 171.012 175.758 147.463C176.565 132.507 188.12 116.742 204.159 116.924C204.277 140.726 203.918 164.543 204.348 188.336C205.716 207.683 224.048 223.696 243.454 222.055C255.576 221.761 267.79 222.762 279.833 221.294C298.173 217.856 310.864 199.179 309.159 180.923C309.159 159.623 309.159 138.323 309.159 117.023C325.841 115.804 338.493 131.999 339.233 147.561C339.543 171.11 339.32 194.488 339.412 217.987C348.162 217.987 356.912 217.987 365.662 217.987C365.662 194.362 365.662 170.737 365.662 147.112C364.803 139.472 363.592 130.122 359.451 122.753C348.711 100.964 323.591 89.2079 299.898 90.979C292.978 90.1 285.533 94.7797 283.637 101.339C283.751 129.414 283.832 157.499 283.621 185.57C282.83 197.33 271.241 206.322 259.676 204.829C251.494 205.184 242.252 204.843 236.672 197.813C229.152 189.864 231.671 178.487 231.229 168.611C231.249 145.806 231.154 123.021 231.36 100.255C227.938 93.3346 220.332 89.7621 212.797 90.8979L211.55 90.8806L210.229 90.8382Z" fill="black" stroke="white" stroke-width="1.05"/>
<path opacity="0.9666" fill-rule="evenodd" clip-rule="evenodd" d="M162.828 213.4V391.244C127.7 387.39 100.091 349.055 100.091 302.322C100.091 255.588 127.7 217.253 162.828 213.4Z" fill="url(#paint0_radial_1089_14521)"/>
<path fill-rule="evenodd" clip-rule="evenodd" d="M355.148 386.462C354.414 386.455 351.672 385.858 351.011 386.287C351.011 386.287 349.923 389.454 346.176 392.243C342.887 394.691 339.763 397.037 336.417 399.238C333.412 401.215 330.188 403.352 327.167 404.806C324.789 405.95 322.847 406.117 322.847 406.117H289.016C286.903 406.117 285.172 407.783 285.172 409.857V410.776C285.172 412.85 286.903 414.549 289.016 414.549H324.59C325.409 414.549 328.367 413.688 330.126 412.916C334.512 410.992 337.37 408.542 342.421 405.538C347.791 402.103 357.723 394.107 357.723 394.107C359.486 392.965 359.957 390.654 358.793 388.923L358.291 388.135C357.563 387.054 356.372 386.474 355.148 386.462Z" fill="black" stroke="white" stroke-width="1.05"/>
<path opacity="0.9666" fill-rule="evenodd" clip-rule="evenodd" d="M352.865 213.507V391.351C387.993 387.498 415.603 349.163 415.603 302.429C415.603 255.695 387.993 217.361 352.865 213.507Z" fill="black" stroke="white" stroke-width="1.05"/>
<path opacity="0.9666" fill-rule="evenodd" clip-rule="evenodd" d="M161.737 214.452V392.296C126.609 388.442 99 350.108 99 303.374C99 256.64 126.609 218.306 161.737 214.452Z" fill="black" stroke="white" stroke-width="1.05"/>
<path opacity="0.9666" fill-rule="evenodd" clip-rule="evenodd" d="M289.198 409.147C289.198 413.602 286.155 417.875 280.74 421.026C275.325 424.177 267.981 425.947 260.323 425.947C252.664 425.947 245.32 424.177 239.905 421.026C234.49 417.875 231.448 413.602 231.448 409.147C231.448 404.691 234.49 400.418 239.905 397.267C245.32 394.117 252.664 392.347 260.323 392.347C267.981 392.347 275.325 394.117 280.74 397.267C286.155 400.418 289.198 404.691 289.198 409.147Z" fill="black" stroke="white" stroke-width="1.25891"/>
<path opacity="0.9666" d="M347.375 210.63H341.581C339.341 210.63 337.525 212.295 337.525 214.348V387.46C337.525 389.513 339.341 391.177 341.581 391.177H347.375C349.615 391.177 351.431 389.513 351.431 387.46V214.348C351.431 212.295 349.615 210.63 347.375 210.63Z" fill="black" stroke="white" stroke-width="1.10295"/>
<path opacity="0.9666" d="M172.556 211.675H166.877C164.682 211.675 162.902 213.339 162.902 215.392V388.515C162.902 390.568 164.682 392.232 166.877 392.232H172.556C174.752 392.232 176.531 390.568 176.531 388.515V215.392C176.531 213.339 174.752 211.675 172.556 211.675Z" fill="black" stroke="white" stroke-width="1.09192"/>
<path d="M328.029 245.969H187.195V357.854H328.029V245.969Z" fill="black"/>
<path d="M240.712 320.26C240.712 324.885 240.23 328.948 239.267 332.448C238.304 335.948 237.008 338.844 235.38 341.136C233.454 343.886 231.338 345.844 229.034 347.011C226.729 348.178 223.8 348.761 220.245 348.761H199.744V255.695H217.837C221.598 255.695 224.447 255.956 226.385 256.476C228.323 256.997 230.14 258.091 231.837 259.758C233.672 261.55 235.042 263.945 235.948 266.945C236.853 269.946 237.306 273.404 237.306 277.321C237.306 281.863 236.681 285.905 235.432 289.446C234.182 292.988 232.456 295.592 230.255 297.259V297.759C233.419 298.968 235.953 301.436 237.857 305.166C239.76 308.895 240.712 313.926 240.712 320.26ZM224.235 282.009C224.235 280.509 224.023 278.967 223.599 277.383C223.175 275.8 222.515 274.654 221.621 273.946C220.773 273.279 219.769 272.915 218.611 272.852C217.453 272.79 215.728 272.758 213.434 272.758H212.54V292.446H214.157C216.358 292.446 217.9 292.405 218.783 292.321C219.666 292.238 220.578 291.801 221.518 291.009C222.55 290.134 223.261 288.925 223.651 287.384C224.04 285.842 224.235 284.05 224.235 282.009ZM227.469 319.822C227.469 316.947 227.148 314.697 226.506 313.072C225.863 311.447 224.9 310.218 223.616 309.384C222.836 308.843 221.764 308.541 220.4 308.478C219.035 308.416 217.207 308.384 214.914 308.384H212.54V331.698H213.228C216.576 331.698 218.892 331.656 220.176 331.573C221.461 331.49 222.768 330.927 224.098 329.885C225.267 328.969 226.121 327.625 226.66 325.854C227.199 324.083 227.469 322.072 227.469 319.822Z" fill="url(#paint1_radial_1089_14521)"/>
<path d="M236.233 319.943C236.233 324.568 235.751 328.631 234.788 332.131C233.825 335.631 232.529 338.527 230.901 340.819C228.975 343.569 226.859 345.527 224.555 346.694C222.25 347.861 219.32 348.444 215.766 348.444H195.265V255.378H213.358C217.119 255.379 219.968 255.639 221.906 256.16C223.844 256.681 225.661 257.774 227.358 259.441C229.193 261.233 230.563 263.629 231.469 266.629C232.374 269.629 232.827 273.087 232.827 277.004C232.827 281.546 232.202 285.588 230.953 289.13C229.703 292.671 227.977 295.276 225.776 296.942V297.442C228.94 298.651 231.474 301.12 233.378 304.849C235.281 308.578 236.233 313.61 236.233 319.943ZM219.756 281.692C219.756 280.192 219.544 278.65 219.12 277.067C218.696 275.483 218.036 274.338 217.142 273.629C216.293 272.962 215.29 272.598 214.132 272.535C212.974 272.473 211.249 272.442 208.955 272.441H208.061V292.13H209.678C211.879 292.13 213.421 292.088 214.304 292.005C215.187 291.921 216.099 291.484 217.039 290.692C218.071 289.817 218.782 288.609 219.171 287.067C219.561 285.525 219.756 283.734 219.756 281.692ZM222.99 319.506C222.99 316.631 222.668 314.381 222.026 312.755C221.384 311.13 220.421 309.901 219.137 309.068C218.357 308.526 217.285 308.224 215.921 308.162C214.556 308.099 212.728 308.068 210.434 308.068H208.061V331.381H208.749C212.097 331.381 214.413 331.34 215.697 331.256C216.981 331.173 218.289 330.61 219.619 329.569C220.788 328.652 221.642 327.308 222.181 325.537C222.72 323.766 222.99 321.756 222.99 319.506Z" fill="white"/>
<path d="M282.23 348.761H248.038V255.695H260.903V331.01H282.23V348.761Z" fill="url(#paint2_radial_1089_14521)"/>
<path d="M242.871 254.701V349.232H256.996H257.058H278.433V329.982H257.058V254.701H242.871Z" fill="white"/>
<path d="M288.352 348.761V255.695H322.991V273.446H301.148V289.759H321.271V307.509H301.148V331.01H322.991V348.761H288.352Z" fill="url(#paint3_radial_1089_14521)"/>
<path d="M283.371 254.638V349.169H297.558H318.933V329.919H297.558V307.638H317.215V288.982H297.558V273.888H318.933V254.638H297.558H297.496H283.371Z" fill="white"/>
<path fill-rule="evenodd" clip-rule="evenodd" d="M210.928 90.1483C185.044 89.5021 158.824 106.638 152.283 132.281C150.759 138.498 150.138 144.391 150.028 150.395C150.028 172.662 150.028 194.93 150.028 217.198C158.778 217.198 167.528 217.198 176.278 217.198C176.371 193.697 176.145 170.322 176.457 146.773C177.264 131.817 188.819 116.052 204.858 116.234C204.975 140.036 204.617 163.853 205.047 187.646C206.415 206.993 224.747 223.006 244.152 221.365C256.275 221.071 268.489 222.072 280.532 220.604C298.871 217.166 311.563 198.489 309.858 180.233C309.858 158.933 309.858 137.633 309.858 116.333C326.54 115.114 339.192 131.309 339.932 146.871C340.242 170.42 340.019 193.798 340.111 217.297C348.861 217.297 357.611 217.297 366.361 217.297C366.361 193.672 366.361 170.047 366.361 146.422C365.502 138.782 364.29 129.433 360.15 122.063C349.41 100.275 324.289 88.518 300.597 90.289C293.676 89.41 286.231 94.0897 284.336 100.649C284.45 128.724 284.531 156.809 284.32 184.88C283.529 196.64 271.94 205.632 260.374 204.139C252.193 204.494 242.951 204.153 237.371 197.123C229.85 189.174 232.369 177.797 231.928 167.921C231.948 145.116 231.853 122.332 232.059 99.5655C228.637 92.6446 221.031 89.0722 213.496 90.2079L212.249 90.1907L210.928 90.1483Z" fill="url(#paint4_radial_1089_14521)"/>
<path fill-rule="evenodd" clip-rule="evenodd" d="M210.09 91.4067C178.435 91.4067 153.921 112.64 150.109 140.166H177.081C180.726 127.74 190.195 118.649 201.592 117.591C202.332 116.891 203.364 116.443 204.512 116.443H231.123L231.221 100.824C231.221 100.824 228.843 97.0986 226.923 95.3442C224.748 93.3565 221.811 91.9159 218.917 91.6036C216.492 91.342 213.717 91.5625 210.09 91.4067Z" fill="url(#paint5_radial_1089_14521)"/>
<path opacity="0.9666" fill-rule="evenodd" clip-rule="evenodd" d="M289.225 409.039C289.225 413.494 286.183 417.768 280.767 420.918C275.352 424.069 268.008 425.839 260.35 425.839C252.692 425.839 245.347 424.069 239.932 420.918C234.517 417.768 231.475 413.494 231.475 409.039C231.475 404.583 234.517 400.31 239.932 397.159C245.347 394.009 252.692 392.239 260.35 392.239C268.008 392.239 275.352 394.009 280.767 397.159C286.183 400.31 289.225 404.583 289.225 409.039Z" fill="url(#paint6_radial_1089_14521)"/>
<path opacity="0.9666" fill-rule="evenodd" clip-rule="evenodd" d="M354.215 214.394V392.238C389.343 388.384 416.953 350.05 416.953 303.316C416.953 256.582 389.343 218.248 354.215 214.394Z" fill="url(#paint7_radial_1089_14521)"/>
<path fill-rule="evenodd" clip-rule="evenodd" d="M303.527 90.5603C335.182 90.5603 359.696 111.794 363.509 139.32H336.537C332.892 126.894 323.423 117.802 312.026 116.745C311.285 116.045 310.254 115.596 309.105 115.596H282.495L282.396 99.9775C282.396 99.9775 284.775 96.2522 286.695 94.4978C288.87 92.5101 291.806 91.0695 294.701 90.7572C297.126 90.4955 299.9 90.716 303.527 90.5603Z" fill="url(#paint8_radial_1089_14521)"/>
<path opacity="0.9666" fill-rule="evenodd" clip-rule="evenodd" d="M163.48 213.29V391.134C128.352 387.28 100.743 348.946 100.743 302.212C100.743 255.478 128.352 217.144 163.48 213.29Z" fill="url(#paint9_radial_1089_14521)"/>
<defs>
<radialGradient id="paint0_radial_1089_14521" cx="0" cy="0" r="1" gradientUnits="userSpaceOnUse" gradientTransform="translate(128.173 256.316) rotate(-158.238) scale(30.5986 63.6611)">
<stop stop-color="#E6E6E6"/>
<stop offset="1" stop-color="#E6E6E6" stop-opacity="0"/>
</radialGradient>
<radialGradient id="paint1_radial_1089_14521" cx="0" cy="0" r="1" gradientUnits="userSpaceOnUse" gradientTransform="translate(220.228 302.228) scale(21.5436 50.0321)">
<stop stop-color="#B3B3B3"/>
<stop offset="1" stop-color="#B3B3B3" stop-opacity="0"/>
</radialGradient>
<radialGradient id="paint2_radial_1089_14521" cx="0" cy="0" r="1" gradientUnits="userSpaceOnUse" gradientTransform="translate(265.134 302.228) scale(18.1554 50.0321)">
<stop stop-color="#B3B3B3"/>
<stop offset="1" stop-color="#B3B3B3" stop-opacity="0"/>
</radialGradient>
<radialGradient id="paint3_radial_1089_14521" cx="0" cy="0" r="1" gradientUnits="userSpaceOnUse" gradientTransform="translate(305.672 302.228) scale(18.379 50.0321)">
<stop stop-color="#B3B3B3"/>
<stop offset="1" stop-color="#B3B3B3" stop-opacity="0"/>
</radialGradient>
<radialGradient id="paint4_radial_1089_14521" cx="0" cy="0" r="1" gradientUnits="userSpaceOnUse" gradientTransform="translate(258.194 187.691) rotate(-1.46094) scale(43.2154 36.0458)">
<stop stop-color="#BEBEBE"/>
<stop offset="1" stop-color="#B3B3B3" stop-opacity="0"/>
</radialGradient>
<radialGradient id="paint5_radial_1089_14521" cx="0" cy="0" r="1" gradientUnits="userSpaceOnUse" gradientTransform="translate(199.291 89.4973) rotate(146.175) scale(55.1634 14.6965)">
<stop stop-color="#AFAFAF"/>
<stop offset="1" stop-color="#E6E6E6" stop-opacity="0"/>
</radialGradient>
<radialGradient id="paint6_radial_1089_14521" cx="0" cy="0" r="1" gradientUnits="userSpaceOnUse" gradientTransform="translate(260.35 391.609) scale(29.5274 17.4073)">
<stop stop-color="#999999"/>
<stop offset="1" stop-color="#999999" stop-opacity="0"/>
</radialGradient>
<radialGradient id="paint7_radial_1089_14521" cx="0" cy="0" r="1" gradientUnits="userSpaceOnUse" gradientTransform="translate(390.613 259.053) rotate(-26.9087) scale(18.3121 42.28)">
<stop stop-color="#969696"/>
<stop offset="1" stop-color="#E6E6E6" stop-opacity="0"/>
</radialGradient>
<radialGradient id="paint8_radial_1089_14521" cx="0" cy="0" r="1" gradientUnits="userSpaceOnUse" gradientTransform="translate(314.326 88.6509) rotate(33.8251) scale(55.1634 14.6965)">
<stop stop-color="#AFAFAF"/>
<stop offset="1" stop-color="#E6E6E6" stop-opacity="0"/>
</radialGradient>
<radialGradient id="paint9_radial_1089_14521" cx="0" cy="0" r="1" gradientUnits="userSpaceOnUse" gradientTransform="translate(127.083 257.949) rotate(-153.091) scale(18.3121 42.28)">
<stop stop-color="#969696"/>
<stop offset="1" stop-color="#E6E6E6" stop-opacity="0"/>
</radialGradient>
</defs>
</svg>
