<?xml version="1.0" encoding="utf-8"?>
<!-- Generator: Adobe Illustrator 23.0.6, SVG Export Plug-In . SVG Version: 6.00 Build 0)  -->
<svg version="1.1" xmlns="http://www.w3.org/2000/svg" xmlns:xlink="http://www.w3.org/1999/xlink" x="0px" y="0px"
	 viewBox="0 0 500 500" style="enable-background:new 0 0 500 500;" xml:space="preserve">
<style type="text/css">
	.st0{fill:#F5F5F5;}
	.st1{fill:#E0E0E0;}
	.st2{display:none;}
	.st3{display:inline;fill:#EBEBEB;}
	.st4{fill:#263238;}
	.st5{fill:#FAFAFA;}
	.st6{fill:#455A64;}
	.st7{fill:#EBEBEB;}
	.st8{fill:#E8505B;}
	.st9{fill:#EB996E;}
	.st10{fill:#FFBE9D;}
	.st11{opacity:0.2;}
	.st12{opacity:0.3;}
	.st13{opacity:0.7;}
</style>
<g id="Background_Complete">
	<g>
		<path class="st0" d="M53.33,223.83v47.64c0,8.62,6.99,15.61,15.61,15.61h170.81c8.62,0,15.61-6.99,15.61-15.61v-40.25l21.26-22.34
			l-207.63-0.65C60.35,208.2,53.33,215.2,53.33,223.83z"/>
		<g>
			<polygon class="st1" points="230.17,237.09 75.18,236.37 75.19,231.61 230.19,232.33 			"/>
		</g>
		<g>
			<polygon class="st1" points="230.17,252.76 75.18,252.05 75.19,247.28 230.19,248 			"/>
		</g>
		<g>
			
				<rect x="197.14" y="234.84" transform="matrix(4.917783e-03 -1 1 4.917783e-03 -66.9651 463.7162)" class="st1" width="4.76" height="61.33"/>
		</g>
	</g>
	<g>
		<path class="st0" d="M138.36,295.72v47.64c0,8.62,6.99,15.61,15.61,15.61h170.81c8.62,0,15.61-6.99,15.61-15.61v-40.25
			l21.26-22.34l-207.63-0.65C145.37,280.09,138.36,287.08,138.36,295.72z"/>
		<g>
			<polygon class="st1" points="315.94,307.74 160.94,307.02 160.96,302.26 315.96,302.97 			"/>
		</g>
		<g>
			<polygon class="st1" points="315.94,323.41 160.94,322.69 160.96,317.93 315.96,318.65 			"/>
		</g>
		<g>
			
				<rect x="282.9" y="305.49" transform="matrix(4.919414e-03 -1 1 4.919414e-03 -52.2661 619.7834)" class="st1" width="4.76" height="61.33"/>
		</g>
	</g>
	<path class="st0" d="M144.63,44.39h100.74c4.99,0,9.03,4.04,9.03,9.03v49.28c0,4.99-4.04,9.03-9.03,9.03h-85.49
		c-4.99,0-9.03-4.04-9.03-9.03V50.62L144.63,44.39z"/>
	<g>
		<path class="st1" d="M203.81,50.28v31.59c0,5.72-4.63,10.35-10.35,10.35H80.17c-5.72,0-10.35-4.63-10.35-10.35v-26.7l-14.1-14.82
			l137.71-0.43C199.15,39.91,203.81,44.55,203.81,50.28z"/>
		<g>
			<polygon class="st0" points="86.52,59.07 189.32,58.6 189.31,55.44 86.51,55.91 			"/>
		</g>
		<g>
			<polygon class="st0" points="86.52,69.47 189.32,68.99 189.31,65.83 86.51,66.31 			"/>
		</g>
		<g>
			
				<rect x="86.51" y="76.34" transform="matrix(1 -4.921822e-03 4.921822e-03 1 -0.3822 0.5268)" class="st0" width="40.68" height="3.16"/>
		</g>
	</g>
	<g>
		<path class="st1" d="M404.91,232.15v31.59c0,5.72-4.63,10.35-10.35,10.35H281.27c-5.72,0-10.35-4.63-10.35-10.35v-26.7
			l-14.1-14.82l137.71-0.43C400.26,221.78,404.91,226.42,404.91,232.15z"/>
		<g>
			<polygon class="st0" points="287.62,240.94 390.42,240.46 390.41,237.3 287.61,237.78 			"/>
		</g>
		<g>
			<polygon class="st0" points="287.62,251.33 390.42,250.86 390.41,247.7 287.61,248.17 			"/>
		</g>
		<g>
			
				<rect x="287.61" y="258.21" transform="matrix(1 -4.921822e-03 4.921822e-03 1 -1.2749 1.5188)" class="st0" width="40.68" height="3.16"/>
		</g>
	</g>
</g>
<g id="Background_Simple" class="st2">
	<path class="st3" d="M422.54,129c28.59,56.97,19.55,128.88-16.19,181.66c-35.74,52.78-95.19,86.96-157.7,99.4
		c-44.63,8.88-92.63,7.07-133.41-13.12S42.4,336.12,39.96,290.69c-0.92-17.16,2.72-35.38,14.17-48.2
		c18.29-20.46,49.51-21.18,76.93-20.34c27.43,0.84,58.63,0.2,77-20.18c14.12-15.66,16.2-38.38,23.64-58.11
		c12.65-33.55,43.17-59.74,78.25-67.16c4.87-1.03,9.81-1.69,14.77-2c38.58-2.41,75.17,17.44,95.41,50.38L422.54,129z"/>
</g>
<g id="Plants">
</g>
<g id="Device">
	<g>
		<g>
			<g>
				<g>
					<g>
						<path class="st4" d="M296.74,352.48l-115.5-0.53c-13.89-0.06-25.1-11.37-25.04-25.27l1.22-289.56
							c0.06-13.9,11.38-25.12,25.28-25.05l115.5,0.53c13.89,0.06,25.1,11.37,25.04,25.27l-1.22,289.56
							C321.96,341.32,310.64,352.54,296.74,352.48z"/>
					</g>
					<g>
						<path class="st5" d="M298.04,22.59l-22.39-0.1c-3-0.01-5.45,2.52-5.46,5.66l-0.02,4.06c-0.01,3.14-2.46,5.67-5.46,5.66
							l-43.65-0.2c-3-0.01-5.43-2.57-5.41-5.71l0.02-4.06c0.01-3.14-2.41-5.7-5.41-5.71l-7.88-0.04l-19.6-0.09
							c-9.73-0.04-17.66,7.81-17.7,17.55l-1.19,282.63c-0.04,9.73,7.81,17.65,17.54,17.7l115.27,0.53
							c9.73,0.05,17.66-7.81,17.7-17.55l1.19-282.63C315.62,30.56,307.76,22.63,298.04,22.59z"/>
					</g>
				</g>
			</g>
			<g>
				<path class="st6" d="M232.8,313.41c-0.01,1.13-1.07,2.04-2.39,2.03c-1.31-0.01-2.37-0.93-2.37-2.05
					c0.01-1.13,1.07-2.04,2.39-2.03C231.74,311.36,232.8,312.28,232.8,313.41z"/>
			</g>
			<g>
				<path class="st6" d="M240.17,313.44c0,1.13-1.07,2.04-2.39,2.03c-1.31-0.01-2.37-0.93-2.37-2.05c0-1.13,1.07-2.04,2.39-2.03
					C239.11,311.39,240.17,312.31,240.17,313.44z"/>
			</g>
			<g>
				<path class="st6" d="M247.54,313.47c0,1.13-1.07,2.04-2.39,2.03c-1.31-0.01-2.37-0.93-2.37-2.05c0-1.13,1.07-2.04,2.39-2.03
					C246.48,311.42,247.54,312.34,247.54,313.47z"/>
			</g>
		</g>
	</g>
	<path class="st7" d="M163.87,382.9c0,0,123.26-17.44,122.18-16.9c-1.07,0.54-122.18,0-122.18,0V382.9z"/>
	<g>
		<path class="st4" d="M307.01,52.91c0.14,0,0.26,6.23,0.26,13.92c0,7.69-0.12,13.92-0.26,13.92s-0.26-6.23-0.26-13.92
			C306.75,59.14,306.86,52.91,307.01,52.91z"/>
	</g>
	<g>
		<path class="st4" d="M356.33,84.94c0.06,0.13-5.6,2.75-12.63,5.86c-7.03,3.1-12.78,5.51-12.84,5.38
			c-0.06-0.13,5.59-2.75,12.63-5.86C350.52,87.21,356.27,84.8,356.33,84.94z"/>
	</g>
	<g>
		<path class="st4" d="M355.08,36.36c0.02,0.01-0.08,0.19-0.27,0.53c-0.22,0.39-0.51,0.87-0.86,1.47c-0.75,1.28-1.86,3.11-3.26,5.35
			c-2.8,4.49-6.83,10.6-11.39,17.26c-4.57,6.66-8.64,12.73-11.52,17.16c-1.41,2.18-2.56,3.96-3.4,5.26
			c-0.38,0.58-0.69,1.05-0.94,1.42c-0.22,0.32-0.34,0.49-0.36,0.48c-0.02-0.01,0.08-0.19,0.27-0.53c0.22-0.39,0.51-0.87,0.85-1.47
			c0.75-1.28,1.86-3.1,3.26-5.35c2.8-4.49,6.83-10.6,11.4-17.26c4.56-6.66,8.64-12.72,11.51-17.16c1.41-2.18,2.56-3.96,3.4-5.26
			c0.38-0.58,0.69-1.05,0.94-1.42C354.95,36.52,355.07,36.35,355.08,36.36z"/>
	</g>
</g>
<g id="Speech_Bubbles">
	<g>
		<path class="st8" d="M480.42,91.99H254.98c-4.87,0-8.82,3.95-8.82,8.82v69.93c0,4.87,3.95,8.82,8.82,8.82h16.8
			c1.35,7.3,2.94,16.52,2.94,16.52l15.2-16.52h190.51c4.87,0,8.82-3.95,8.82-8.82v-69.93C489.24,95.94,485.29,91.99,480.42,91.99z"
			/>
		<g>
			<g>
				<path class="st0" d="M387.41,129.92c0,0.14-26.83,0.26-59.92,0.26c-33.1,0-59.93-0.12-59.93-0.26c0-0.14,26.83-0.26,59.93-0.26
					C360.58,129.66,387.41,129.78,387.41,129.92z"/>
			</g>
			<g>
				<path class="st0" d="M387.41,119.18c0,0.14-26.83,0.26-59.92,0.26c-33.1,0-59.93-0.12-59.93-0.26c0-0.14,26.83-0.26,59.93-0.26
					C360.58,118.91,387.41,119.03,387.41,119.18z"/>
			</g>
			<g>
				<path class="st0" d="M387.41,140.56c0,0.14-26.83,0.26-59.92,0.26c-33.1,0-59.93-0.12-59.93-0.26c0-0.14,26.83-0.26,59.93-0.26
					C360.58,140.3,387.41,140.41,387.41,140.56z"/>
			</g>
			<g>
				<path class="st0" d="M346.06,151.57c0,0.14-17.58,0.26-39.25,0.26c-21.68,0-39.25-0.12-39.25-0.26s17.57-0.26,39.25-0.26
					C328.49,151.31,346.06,151.42,346.06,151.57z"/>
			</g>
		</g>
	</g>
	<g>
		<path class="st6" d="M292.65,204.31H65.36c-3.41,0-6.17,2.76-6.17,6.17v73.99c0,3.41,2.76,6.17,6.17,6.17h165.08l15.03,16.33
			c0,0,1.58-9.18,2.9-16.33h44.28c3.41,0,6.17-2.76,6.17-6.17v-73.99C298.82,207.07,296.06,204.31,292.65,204.31z"/>
		<g>
			<g>
				<path class="st0" d="M283.74,242.46c0,0.14-26.83,0.26-59.92,0.26c-33.1,0-59.93-0.12-59.93-0.26c0-0.14,26.83-0.26,59.93-0.26
					C256.9,242.2,283.74,242.32,283.74,242.46z"/>
			</g>
			<g>
				<path class="st0" d="M283.74,231.71c0,0.14-26.83,0.26-59.92,0.26c-33.1,0-59.93-0.12-59.93-0.26s26.83-0.26,59.93-0.26
					C256.9,231.45,283.74,231.57,283.74,231.71z"/>
			</g>
			<g>
				<path class="st0" d="M283.74,253.09c0,0.14-26.83,0.26-59.92,0.26c-33.1,0-59.93-0.12-59.93-0.26s26.83-0.26,59.93-0.26
					C256.9,252.83,283.74,252.95,283.74,253.09z"/>
			</g>
			<g>
				<path class="st0" d="M242.39,264.11c0,0.14-17.58,0.26-39.25,0.26c-21.68,0-39.25-0.12-39.25-0.26c0-0.14,17.57-0.26,39.25-0.26
					C224.81,263.85,242.39,263.96,242.39,264.11z"/>
			</g>
		</g>
	</g>
</g>
<g id="Character_2">
	<g>
		<g>
			<path class="st4" d="M415.05,57.71c0.13-1.84-1.51-4.37-3.02-5.83c-1.52-1.46-2.46-3.43-1.67-6.37c0.61-2.27,2.05-2.1,2.62-3.44
				c0.42-0.99,0.24-2.12,0.33-3.19c0.3-3.68,4.34-6.56,7.92-5.64c1.01-3.5,4.27-6.23,7.89-6.6c3.62-0.38,7.37,1.62,9.08,4.84
				c2.07-1.07,4.67-1.04,6.7,0.1s3.44,3.32,3.61,5.65c2.01-1.45,5.1-0.89,6.7,1.01c1.59,1.91,1.69,4.82,0.48,6.99
				c-1.21,2.17-3.55,3.58-6.01,3.96c-2.45,0.38-4.99-0.2-7.22-1.31c-2.22-1.11-4.16-2.72-5.92-4.47"/>
			<ellipse class="st1" cx="431.4" cy="130.35" rx="43.29" ry="42.28"/>
			<g>
				<g>
					<path class="st9" d="M474.86,130.39l-4.79-12.29l-17.17,10.79l15.3,23.6C468.2,152.49,474.43,144.4,474.86,130.39z"/>
					<g>
						<g>
							<g>
								<g>
									<g>
										<g>
											<g>
												<path class="st10" d="M427.46,103.78L427.46,103.78c6.17,0.01,11.26-4.78,11.57-10.89c0.25-5.09,0.47-9.99,0.47-9.99
													s9.45-0.68,10.32-9.92c0.87-9.24,0.99-30.59,0.99-30.59l0,0c-10.42-5.47-23.01-4.92-32.91,1.43l-0.9,0.58l-1.09,47.79
													C415.83,98.56,421.02,103.77,427.46,103.78z"/>
											</g>
											<g>
												<g>
													<path class="st4" d="M432.88,56.6c0.71,0.23,1.1,1,0.86,1.7c-0.24,0.71-1.01,1.09-1.72,0.85c-0.71-0.23-1.1-1-0.86-1.7
														C431.4,56.75,432.16,56.36,432.88,56.6z"/>
												</g>
												<g>
													<g>
														<path class="st4" d="M435.47,57.08c-0.16,0.15-1.03-0.6-2.32-0.68c-1.29-0.1-2.26,0.52-2.39,0.35
															c-0.07-0.08,0.1-0.36,0.52-0.64c0.42-0.28,1.12-0.53,1.92-0.48c0.8,0.06,1.46,0.41,1.83,0.75
															C435.42,56.71,435.54,57.01,435.47,57.08z"/>
													</g>
												</g>
											</g>
											<g>
												<g>
													<path class="st4" d="M446.98,56.6c0.71,0.23,1.1,1,0.86,1.7c-0.24,0.71-1.01,1.09-1.72,0.85c-0.71-0.23-1.1-1-0.86-1.7
														C445.49,56.75,446.26,56.36,446.98,56.6z"/>
												</g>
												<g>
													<g>
														<path class="st4" d="M449.74,57.11c-0.16,0.15-1.03-0.6-2.32-0.68c-1.29-0.1-2.26,0.52-2.39,0.35
															c-0.07-0.08,0.1-0.36,0.52-0.64c0.42-0.28,1.12-0.53,1.92-0.48c0.8,0.06,1.46,0.41,1.83,0.75
															C449.69,56.74,449.81,57.04,449.74,57.11z"/>
													</g>
												</g>
											</g>
											<g>
												<g>
													<path class="st4" d="M440.03,67.09c0-0.1,0.81-0.2,2.11-0.27c0.34-0.01,0.61-0.06,0.65-0.24
														c0.08-0.2-0.02-0.56-0.16-0.97c-0.26-0.87-0.53-1.75-0.8-2.67c-1.1-3.8-1.84-6.92-1.64-6.98
														c0.19-0.06,1.25,2.98,2.35,6.78c0.26,0.93,0.51,1.81,0.75,2.68c0.09,0.4,0.29,0.86,0.07,1.4
														c-0.12,0.27-0.4,0.45-0.62,0.49c-0.23,0.05-0.42,0.03-0.58,0.03C440.84,67.28,440.03,67.19,440.03,67.09z"/>
												</g>
											</g>
											<g>
												<path class="st9" d="M439.52,82.77c0,0-5.93,0-11.88-4.41c0,0,2.33,6.89,11.71,6.8L439.52,82.77z"/>
											</g>
										</g>
									</g>
									<g>
										<g>
											<path class="st10" d="M416.77,57.96c0.01-0.75-0.57-1.39-1.32-1.43c-1.74-0.08-4.61,0.55-4.97,5.31
												c-0.51,6.8,6.13,5.23,6.15,5.04C416.66,66.73,416.73,60.61,416.77,57.96z"/>
										</g>
										<g>
											<g>
												<path class="st9" d="M415.17,64.18c-0.03-0.02-0.13,0.07-0.33,0.15c-0.2,0.07-0.55,0.11-0.9-0.05
													c-0.7-0.32-1.23-1.5-1.17-2.73c0.03-0.62,0.2-1.2,0.46-1.67c0.25-0.48,0.6-0.81,0.97-0.84
													c0.37-0.06,0.61,0.18,0.68,0.38c0.08,0.2,0.02,0.33,0.06,0.34c0.02,0.02,0.16-0.1,0.12-0.39
													c-0.02-0.14-0.09-0.3-0.24-0.45c-0.15-0.15-0.39-0.23-0.65-0.22c-0.53,0-1.04,0.44-1.33,0.96
													c-0.31,0.52-0.52,1.17-0.56,1.86c-0.06,1.37,0.55,2.71,1.52,3.07c0.47,0.16,0.89,0.05,1.11-0.1
													C415.15,64.34,415.2,64.19,415.17,64.18z"/>
											</g>
										</g>
									</g>
								</g>
								<g>
									<path class="st4" d="M429.38,53.46c0.34,0.44,1.52,0.23,3.06,0.17c1.53-0.12,2.73-0.06,3.01-0.54
										c0.32-0.49-1.17-1.63-3.14-1.46C430.32,51.7,429,53,429.38,53.46z"/>
								</g>
								<g>
									<path class="st4" d="M444.35,53c0.19,0.59,1.31,0.77,2.56,0.76c1.25-0.03,2.37-0.23,2.54-0.83
										c0.18-0.58-0.96-1.42-2.57-1.39C445.28,51.56,444.16,52.43,444.35,53z"/>
								</g>
							</g>
							<path class="st4" d="M452.11,45.32c0,0-5.6,2.71-12.9-0.93c-4.79-2.39-10.36-3.56-11.59-2.59c-1.23,0.96-1.49,5.89-6.23,7.33
								c0,0,0.33,9.41-3.43,9.07c-3.75-0.34-1.41-14.91-1.41-14.91l9.18-4.48l10.01-1.89l9.44,1.33l7.3,2L452.11,45.32z"/>
						</g>
					</g>
					<g>
						<g>
							<path class="st6" d="M389.31,99.76c9.81-10.09,27.07-8.98,27.07-8.98l14.31,10.24l8.11-9.45c0,0,8.53,0.94,16.52,5.11
								l0.55,0.17l-0.01,0.11c6.28,3.41,15.16,11.58,23.63,19.51l-10.13,9.4l-11.21,9.95c0,0,0.04,0.07,0.02,0.2
								c-0.12,0.6,1.56,14.3,3.28,24.7c-10.21,9.75-23.23,13.92-37.68,11.38c-4.59-0.8-6.81-1.92-11.05-3.04
								c-6.28-1.65-10.83-7.09-11.39-13.56l0,0c-0.76-8.72-1.35-19.52-1.35-19.52"/>
							<g>
								<path class="st4" d="M447.77,93.33c0.03-0.01,0.25,0.56,0.62,1.61c0.37,1.05,0.87,2.57,1.46,4.46
									c1.18,3.78,2.69,9.05,4.11,14.93c1.42,5.88,2.48,11.26,3.16,15.16c0.34,1.95,0.59,3.54,0.74,4.63
									c0.15,1.1,0.22,1.71,0.19,1.71s-0.17-0.59-0.39-1.68c-0.23-1.17-0.53-2.72-0.9-4.6c-0.77-3.88-1.89-9.24-3.3-15.11
									c-1.42-5.87-2.86-11.14-3.95-14.95c-0.53-1.84-0.97-3.36-1.3-4.51C447.89,93.94,447.73,93.34,447.77,93.33z"/>
							</g>
							<g>
								<path class="st4" d="M456.98,129.38c-0.09-0.11,4.19-3.75,9.55-8.12c5.37-4.37,9.79-7.83,9.88-7.72
									c0.09,0.11-4.19,3.75-9.55,8.12C461.5,126.04,457.07,129.49,456.98,129.38z"/>
							</g>
							<path class="st11" d="M402.25,113.6l-8.78,28.87l3.27,1.7l3.22-8.17C399.96,136.01,403.27,118.85,402.25,113.6z"/>
							<g class="st11">
								<path d="M446.82,93.35c4.73,2.49-7.13,8.5-12.48,8.34l3.89-10.26C438.22,91.42,445.23,92.51,446.82,93.35z"/>
							</g>
						</g>
						<path class="st6" d="M414.96,91.42v-7.65c0,0,14.93,3.84,15.48,12.78c0,0,1.9-9.88,9.59-10.35l1.09,13.89l-8.95,7.79h-9.08
							l-7.19-6.2l-0.94-9.65"/>
						<g>
							<path class="st4" d="M433.8,139.41c-0.04,0-0.04-0.59-0.03-1.64c0.02-1.06,0.04-2.59,0.05-4.47
								c0.01-3.78-0.11-8.99-0.58-14.73c-0.48-5.74-1.22-10.91-1.86-14.63c-0.32-1.79-0.58-3.28-0.78-4.4
								c-0.19-1.04-0.28-1.62-0.25-1.63c0.04-0.01,0.19,0.56,0.44,1.58c0.26,1.03,0.58,2.52,0.95,4.38
								c0.73,3.71,1.54,8.89,2.02,14.65c0.48,5.76,0.54,11,0.43,14.78c-0.05,1.89-0.13,3.42-0.21,4.48
								C433.9,138.83,433.84,139.42,433.8,139.41z"/>
						</g>
						<g>
							<path class="st4" d="M429.75,93.98c-0.01,0.04-0.34-0.13-0.89,0.08c-0.57,0.18-1.08,0.89-1.5,1.91
								c-0.92,1.99-2.05,4.85-2.84,8.26l-0.08,0.34l-0.3-0.18c-0.89-0.54-1.81-1.12-2.73-1.75c-1.78-1.21-3.42-2.45-4.84-3.68
								c-0.72-0.62-1.31-1.36-1.65-2.16c-0.34-0.8-0.47-1.59-0.5-2.31c-0.06-1.44,0.18-2.57,0.33-3.34
								c0.17-0.77,0.29-1.19,0.33-1.18c0.04,0.01-0.02,0.44-0.13,1.22c-0.09,0.78-0.27,1.91-0.16,3.29c0.06,0.68,0.2,1.43,0.53,2.15
								c0.33,0.72,0.87,1.39,1.57,1.97c1.41,1.18,3.05,2.41,4.82,3.61c0.91,0.62,1.82,1.2,2.7,1.74l-0.38,0.16
								c0.82-3.45,2.03-6.32,3.04-8.29c0.25-0.49,0.49-0.94,0.79-1.29c0.29-0.35,0.65-0.56,0.95-0.65
								C429.44,93.72,429.78,93.97,429.75,93.98z"/>
						</g>
						<g>
							<path class="st4" d="M440.03,86.2c0.04,0,0.08,0.42,0.14,1.19c0.06,0.88,0.14,1.97,0.24,3.25c0.11,1.37,0.28,3,0.56,4.79
								c0.11,0.88,0.42,1.85,0.18,2.93c-0.31,1.07-1.11,1.87-1.96,2.51c-1.2,0.89-2.45,1.55-3.29,2.5l-0.4,0.45l-0.04-0.59
								c-0.21-3.16-1.26-5.76-2.21-7.45c-0.95-1.7-1.73-2.58-1.67-2.63c0.02-0.02,0.23,0.18,0.59,0.59
								c0.35,0.41,0.84,1.03,1.35,1.88c1.04,1.68,2.19,4.32,2.43,7.57l-0.44-0.15c0.91-1.04,2.21-1.72,3.35-2.58
								c0.81-0.61,1.53-1.36,1.78-2.22c0.21-0.88-0.05-1.83-0.16-2.74c-0.26-1.81-0.39-3.46-0.45-4.84
								c-0.07-1.38-0.08-2.5-0.07-3.27C439.98,86.63,440,86.2,440.03,86.2z"/>
						</g>
					</g>
				</g>
				<g>
					<g>
						<path class="st4" d="M488.1,88.12c-0.61,0.72-22.59,30.11-22.59,30.11l3.1,1.75l22.56-29.02L488.1,88.12z"/>
						<path class="st10" d="M399.78,111.36c0,0,23.13,33.29,24.52,33.95c2.75,1.29,34.39-26.06,37.41-28.67
							c0.42-0.56,1.27-1.73,2.96-4.06c0,0,2.5-11.42,5.16-10.55c2.66,0.88-1.46,5.81,0.28,10.15c1.74,4.34,9.68-6.01,10-6.94
							l2.05-2.68c0,0,2.15,6.09,2,8.64c-0.47,8.15-8.18,17.84-8.18,17.84s-34.63,42.9-58.35,44.23c-6.83,0.38-18.97-19-27.09-33.54
							c-4.9-8.78-2.46-19.84,5.67-25.76L399.78,111.36z"/>
						<g>
							<path class="st9" d="M480.26,112.65c-0.08-0.05,0.66-1.36,1.48-3.02c0.82-1.66,1.41-3.04,1.5-3.01
								c0.08,0.03-0.39,1.47-1.22,3.15C481.2,111.44,480.33,112.69,480.26,112.65z"/>
						</g>
					</g>
					<g>
						<path class="st6" d="M395.86,95.12c0,0-24.83,8.83-6.37,50.57l28.66-17.3l-4.08-9.76L395.86,95.12z"/>
						<g>
							<path class="st4" d="M393.96,95.84c0,0,1.08-0.18,2.99,0.25c0.94,0.24,2.07,0.66,3.26,1.37c1.19,0.71,2.42,1.71,3.62,2.97
								c2.41,2.51,4.66,6.02,6.74,10.07c2.1,4.06,4.06,8.68,6.07,13.54c0.6,1.45,1.2,2.89,1.76,4.25l0.09,0.22l-0.2,0.11
								c-8.29,4.52-15.51,8.75-20.62,11.92c-2.55,1.58-4.59,2.88-5.98,3.78c-0.67,0.43-1.2,0.77-1.61,1.03
								c-0.37,0.23-0.57,0.35-0.58,0.33c-0.01-0.01,0.17-0.16,0.52-0.41c0.35-0.26,0.87-0.64,1.56-1.11c1.36-0.95,3.37-2.3,5.9-3.92
								c5.06-3.25,12.26-7.54,20.55-12.08l-0.11,0.33c-0.56-1.36-1.16-2.79-1.76-4.25c-2.01-4.86-3.95-9.47-6.02-13.52
								c-2.05-4.05-4.25-7.54-6.58-10.04c-1.16-1.25-2.35-2.25-3.5-2.97c-1.15-0.72-2.24-1.16-3.15-1.43
								C395.05,95.8,393.96,95.91,393.96,95.84z"/>
						</g>
					</g>
				</g>
			</g>
			<g>
				<path class="st6" d="M447.37,33.94c0.02,0,0.06,0.15,0.12,0.44c0.05,0.29,0.11,0.73,0.07,1.3c-0.06,1.11-0.46,2.83-1.89,4.33
					c-1.39,1.5-4.02,2.45-6.68,1.69c-1.3-0.38-2.62-1.17-3.42-2.48c-0.39-0.65-0.62-1.45-0.51-2.26c0.11-0.79,0.51-1.59,1.23-2.06
					c0.72-0.49,1.67-0.48,2.4-0.15c0.74,0.31,1.35,0.92,1.64,1.65c0.59,1.47,0.15,3.05-0.66,4.16c-1.72,2.28-4.83,2.46-6.56,1.43
					c-0.91-0.42-1.71-0.81-2.47-0.95c-0.75-0.15-1.42-0.02-1.91,0.2c-0.98,0.47-1.38,0.99-1.42,0.94c-0.01-0.01,0.09-0.13,0.29-0.34
					c0.1-0.11,0.23-0.24,0.41-0.37c0.17-0.13,0.37-0.29,0.64-0.41c0.5-0.27,1.23-0.44,2.05-0.3c0.82,0.12,1.66,0.51,2.57,0.9
					c0.46,0.18,0.93,0.39,1.44,0.48c0.5,0.09,1.06,0.08,1.61-0.03c1.1-0.2,2.23-0.8,2.97-1.82c0.72-0.99,1.08-2.44,0.57-3.68
					c-0.45-1.21-2.13-2.02-3.29-1.26c-0.56,0.37-0.91,1.03-1,1.7c-0.1,0.67,0.09,1.35,0.44,1.93c0.7,1.16,1.91,1.92,3.12,2.28
					c2.47,0.74,4.95-0.1,6.29-1.49c1.39-1.38,1.84-3.02,1.95-4.09C447.48,34.56,447.31,33.95,447.37,33.94z"/>
			</g>
			<g>
				<path class="st4" d="M441.96,71.65c0.01,0.06-0.31,0.19-0.86,0.22c-0.55,0.03-1.32-0.1-2.08-0.48
					c-0.75-0.38-1.31-0.93-1.62-1.39c-0.31-0.46-0.39-0.79-0.33-0.82c0.13-0.08,0.8,1.06,2.19,1.74
					C440.63,71.64,441.94,71.5,441.96,71.65z"/>
			</g>
			<g>
				<path class="st4" d="M415.74,67.23c0.05-0.04,0.33,0.44-0.04,1.13c-0.18,0.32-0.51,0.67-1.02,0.81
					c-0.51,0.14-1.12-0.02-1.55-0.41c-0.44-0.38-0.68-0.94-0.66-1.45c0.02-0.51,0.23-0.92,0.46-1.2c0.48-0.56,0.97-0.62,0.98-0.56
					c0.04,0.07-0.35,0.25-0.68,0.78c-0.34,0.49-0.47,1.45,0.24,2.04c0.33,0.28,0.75,0.41,1.1,0.33c0.36-0.07,0.64-0.3,0.82-0.54
					C415.75,67.68,415.65,67.24,415.74,67.23z"/>
			</g>
			<g>
				<path class="st6" d="M449.01,37.31c0.05-0.02,0.42,0.64,0.48,1.84c0.07,1.17-0.27,2.92-1.48,4.33c-1.23,1.41-2.9,1.99-4.08,2.08
					c-1.19,0.11-1.9-0.17-1.89-0.22c0.01-0.09,0.73,0.04,1.84-0.15c1.09-0.18,2.61-0.78,3.73-2.06c1.11-1.29,1.49-2.88,1.51-3.98
					C449.16,38.03,448.93,37.34,449.01,37.31z"/>
			</g>
		</g>
		<g>
			<path class="st1" d="M415.19,120.98c0.06,0.13-6.53,3.52-14.73,7.57c-8.2,4.05-14.89,7.23-14.96,7.11
				c-0.06-0.13,6.53-3.52,14.73-7.57C408.43,124.03,415.13,120.85,415.19,120.98z"/>
		</g>
		<g>
			<path class="st1" d="M409.19,109.64c0.07,0.13-5.8,3.41-13.11,7.33c-7.31,3.92-13.29,7-13.36,6.87s5.8-3.41,13.11-7.33
				C403.14,112.59,409.12,109.51,409.19,109.64z"/>
		</g>
		<g>
			<path class="st1" d="M403.38,100.47c0.03,0.07-1.1,0.71-2.94,1.74c-1.97,1.1-4.44,2.48-7.18,4c-2.72,1.55-5.19,2.96-7.14,4.07
				c-1.83,1.04-2.97,1.68-3.01,1.61c-0.04-0.06,1.03-0.8,2.82-1.93c1.78-1.13,4.27-2.63,7.08-4.21c2.8-1.58,5.38-2.94,7.26-3.88
				C402.16,100.94,403.35,100.41,403.38,100.47z"/>
		</g>
		<g>
			<path class="st1" d="M425.34,98.3c-0.01,0.06-0.78-0.04-1.93-0.52c-1.15-0.47-2.64-1.37-4.04-2.63c-1.41-1.26-2.5-2.57-3.26-3.53
				c-0.76-0.97-1.18-1.59-1.13-1.64c0.06-0.05,0.58,0.5,1.41,1.4c0.83,0.9,1.95,2.15,3.33,3.38c1.37,1.23,2.78,2.15,3.85,2.69
				C424.64,98,425.36,98.22,425.34,98.3z"/>
		</g>
		<g>
			<path class="st1" d="M439.93,92.88c0.13,0.04-0.48,1.66-2.08,3c-1.59,1.35-3.29,1.67-3.31,1.54c-0.05-0.15,1.49-0.67,2.97-1.93
				C439.02,94.24,439.79,92.81,439.93,92.88z"/>
		</g>
		<g>
			<path class="st1" d="M465.93,107.93c0,0.02-0.19,0.05-0.56,0.1c-0.43,0.05-0.96,0.12-1.61,0.2c-1.4,0.15-3.43,0.35-5.93,0.54
				c-5.02,0.4-11.96,0.79-19.63,1.07c-7.67,0.27-14.62,0.37-19.66,0.33c-2.52-0.02-4.55-0.07-5.96-0.12
				c-0.66-0.03-1.19-0.06-1.62-0.08c-0.37-0.02-0.56-0.05-0.56-0.06c0-0.02,0.2-0.03,0.57-0.04c0.43,0,0.96-0.01,1.62-0.01
				c1.48-0.01,3.49-0.03,5.95-0.05c5.03-0.05,11.97-0.21,19.64-0.48c7.66-0.28,14.6-0.61,19.62-0.92c2.45-0.16,4.47-0.28,5.94-0.38
				c0.65-0.04,1.19-0.07,1.62-0.1C465.73,107.91,465.93,107.91,465.93,107.93z"/>
		</g>
		<g>
			<path class="st1" d="M458.03,119.79c0,0.04-0.58,0.13-1.64,0.26c-1.06,0.13-2.6,0.3-4.51,0.47c-3.81,0.35-9.08,0.71-14.91,0.95
				c-5.83,0.23-11.12,0.3-14.94,0.26c-1.91-0.02-3.46-0.06-4.53-0.1c-1.07-0.05-1.66-0.09-1.66-0.13c0-0.04,0.59-0.06,1.66-0.08
				c1.16-0.02,2.68-0.04,4.53-0.06c3.82-0.05,9.1-0.17,14.92-0.41c5.82-0.24,11.09-0.54,14.91-0.8c1.84-0.12,3.36-0.23,4.52-0.3
				C457.44,119.78,458.03,119.75,458.03,119.79z"/>
		</g>
		<g>
			<path class="st1" d="M440.11,134.42c0.01,0.07-1.26,0.26-3.31,0.47c-2.06,0.21-4.9,0.44-8.05,0.6c-3.15,0.16-6,0.21-8.07,0.21
				c-2.07-0.01-3.34-0.07-3.34-0.14c0-0.07,1.28-0.14,3.34-0.23c2.21-0.1,4.98-0.22,8.05-0.36c3.07-0.17,5.84-0.32,8.05-0.44
				C438.83,134.4,440.1,134.34,440.11,134.42z"/>
		</g>
		<g>
			<path class="st1" d="M417.19,99.71c0,0.15-3.07,0.18-6.85,0.34c-3.78,0.15-6.84,0.37-6.85,0.22c-0.02-0.14,3.03-0.59,6.83-0.74
				C414.12,99.37,417.2,99.57,417.19,99.71z"/>
		</g>
		<g>
			<path class="st1" d="M459.38,99.17c0,0.14-3.98,0.25-8.89,0.23c-4.91-0.02-8.89-0.15-8.88-0.29c0-0.14,3.98-0.25,8.89-0.23
				C455.4,98.89,459.38,99.03,459.38,99.17z"/>
		</g>
		<g>
			<path class="st1" d="M460.92,160.02c0.02,0.03-0.31,0.22-0.91,0.52c-0.6,0.31-1.49,0.72-2.6,1.18c-2.23,0.94-5.39,2.04-8.98,2.87
				c-3.6,0.83-6.92,1.22-9.34,1.35c-1.21,0.07-2.18,0.09-2.86,0.07c-0.68-0.01-1.05-0.04-1.05-0.07c0-0.08,1.49-0.14,3.88-0.37
				c2.39-0.23,5.68-0.67,9.25-1.49c3.57-0.83,6.72-1.86,8.96-2.71C459.52,160.54,460.88,159.94,460.92,160.02z"/>
		</g>
	</g>
</g>
<g id="Character_1">
	<g>
		<ellipse class="st1" cx="111.55" cy="240.49" rx="43.29" ry="41.3"/>
		<g>
			<path class="st4" d="M102.73,140.92c-6.87,0.36-9.56,7.52-10.39,9.12c-0.82,1.6-0.95,3.45-1.1,5.24
				c-0.15,1.79-0.36,3.65-1.32,5.17c-1.51,2.41-4.69,3.66-5.55,6.37c-0.98,3.07,1.53,6.35,0.86,9.5c-0.36,1.69-1.59,3.08-2.03,4.75
				c-0.46,1.75,0.02,3.63,0.93,5.19c2.26,3.87,6.93,5.82,11.41,5.98c4.48,0.16,8.86-1.18,13.15-2.51"/>
			<path class="st4" d="M132.95,149.82c-0.67,1.45-0.04,3.22,1.02,4.43c1.05,1.21,2.47,2.02,3.72,3.03c1.25,1,2.39,2.33,2.54,3.92
				c0.13,1.46-0.6,2.92-0.4,4.37c0.51,3.74,6.48,4.87,6.8,8.63c0.21,2.51-2.36,4.81-1.65,7.22c0.27,0.92,0.99,1.64,1.49,2.47
				c1.69,2.81,0.55,6.69-1.91,8.87c-2.45,2.18-5.87,2.95-9.15,3.1c-2.76,0.12-5.89-0.33-7.52-2.56c-1.49-2.04-1.18-4.83-0.88-7.34
				c1.39-11.72,1.15-23.56,0.91-35.36"/>
			<g>
				<g>
					<g>
						<g>
							<g>
								<path class="st10" d="M104.54,204.05c0.05-6.16-0.01-12.64-0.01-12.64s-7.92-1.41-9.44-11.78
									c-1.45-9.89,1.01-31.15,1.01-31.15l0,0c11.47-4.52,24.38-2.77,32.41,6.46l0,0l-1.25,50c-0.14,5.8-5.25,10.3-11.46,10.1h0
									C109.53,214.83,104.49,209.92,104.54,204.05z"/>
							</g>
							<g>
								<g>
									<path class="st4" d="M98.26,164.82c-0.03,0.7,0.53,1.31,1.26,1.35c0.73,0.05,1.35-0.48,1.38-1.18
										c0.03-0.7-0.53-1.31-1.26-1.35C98.91,163.59,98.29,164.11,98.26,164.82z"/>
								</g>
								<g>
									<g>
										<path class="st4" d="M96.12,163.79c0.16,0.18,1.18-0.56,2.6-0.54c2.69,0.39,2.64,0.8,2.62,0.57
											c0.08-0.08-0.09-0.39-0.54-0.73c-0.45-0.34-1.21-0.67-2.1-0.67c-0.89-0.01-1.64,0.31-2.08,0.64
											C96.2,163.4,96.04,163.71,96.12,163.79z"/>
									</g>
								</g>
							</g>
							<g>
								<g>
									<path class="st4" d="M112.87,165.24c-0.03,0.7,0.53,1.31,1.26,1.35c0.73,0.05,1.35-0.48,1.38-1.18
										c0.03-0.7-0.53-1.31-1.26-1.35C113.53,164.01,112.91,164.54,112.87,165.24z"/>
								</g>
								<g>
									<g>
										<path class="st4" d="M111.02,164.28c0.16,0.18,1.18-0.56,2.6-0.54c1.43,0,2.47,0.75,2.62,0.57
											c0.08-0.08-0.09-0.39-0.54-0.73c-0.45-0.34-1.21-0.67-2.1-0.67c-0.89-0.01-1.64,0.31-2.08,0.64
											C111.09,163.89,110.94,164.2,111.02,164.28z"/>
									</g>
								</g>
							</g>
							<g>
								<g>
									<path class="st4" d="M105.71,174.53c0.01-0.08-0.88-0.24-2.31-0.45c-0.36-0.04-0.71-0.12-0.77-0.37
										c-0.08-0.26,0.07-0.66,0.26-1.08c0.35-0.88,0.72-1.8,1.11-2.76c1.54-3.94,2.66-7.17,2.51-7.24
										c-0.16-0.06-1.54,3.08-3.08,7.02c-0.37,0.97-0.73,1.9-1.07,2.78c-0.14,0.41-0.39,0.88-0.21,1.43
										c0.1,0.27,0.36,0.47,0.59,0.54c0.23,0.07,0.44,0.08,0.62,0.09C104.81,174.59,105.71,174.61,105.71,174.53z"/>
								</g>
							</g>
							<g>
								<path class="st9" d="M104.53,191.41c0,0,6.96,0.53,13.9-3.54c0,0-3.44,7.07-13.79,5.98L104.53,191.41z"/>
							</g>
							<g>
								<path class="st9" d="M106.28,177.97c0.52-0.67,1.43-1.04,2.32-0.93c0.62,0.07,1.24,0.38,1.61,0.89
									c0.37,0.51,0.44,1.23,0.09,1.7c-0.39,0.54-1.2,0.65-1.88,0.45c-0.68-0.2-1.26-0.66-1.81-1.11c-0.15-0.13-0.31-0.26-0.4-0.43
									c-0.09-0.17-0.11-0.39,0.01-0.53"/>
							</g>
							<g>
								<g>
									<path class="st4" d="M109.9,175.56c-0.23-0.02-0.25,1.53-1.59,2.62c-1.34,1.09-2.99,0.9-3,1.11
										c-0.02,0.1,0.36,0.31,1.06,0.33c0.68,0.03,1.69-0.18,2.5-0.84c0.82-0.67,1.18-1.56,1.24-2.2
										C110.18,175.94,110.01,175.55,109.9,175.56z"/>
								</g>
							</g>
						</g>
						<g>
							<path class="st4" d="M124.02,147.56c-3.79,5.4-13.81,10.95-20.99,12.24c0.84-1.1,5.25-3.82,6.09-4.92
								c-3.25,2.43-7.91,5.68-12.23,5.9c-0.51,0.03-1.06,0.02-1.48-0.23c-0.57-0.35-0.69-1.03-0.75-1.63
								c-0.28-2.53-0.1-6.87,0.3-9.38c0.4-2.51,1.56-5.01,3.73-6.69c2.77-2.14,6.72-2.66,10.45-2.75c3.13-0.08,6.35,0.11,9.21,1.24
								c2.86,1.13,5.3,3.36,5.72,6.04"/>
						</g>
						<g>
							<path class="st4" d="M134.88,171.75c0.52-2.68,0.94-5.22,1.03-6.92c0.31-5.34-1.24-25.05-19.65-23.46l-0.74,5.61
								c0,0-2.85,19.19,9.06,19.34c0,0,0.66,5.72,6.05,11.28C130.64,177.6,133.76,177.5,134.88,171.75"/>
						</g>
						<g>
							<path class="st10" d="M124.59,166.31c1.11-0.2,2.28-0.16,3.33,0.25c1.05,0.41,1.97,1.2,2.41,2.24
								c0.44,1.04,0.39,2.25-0.01,3.31c-0.4,1.06-1.1,1.98-1.92,2.76c-0.58,0.56-1.25,1.08-2.02,1.31c-0.78,0.23-1.69,0.15-2.3-0.38
								"/>
						</g>
						<g>
							<g>
								<path class="st9" d="M125.12,173.03c-0.13,0.04,0.35,0.71,1.36,0.45c0.49-0.12,0.97-0.55,1.26-1.08
									c0.3-0.54,0.49-1.13,0.57-1.83c0.08-0.69-0.07-1.43-0.45-1.95c-0.36-0.54-0.95-0.86-1.44-0.88
									c-1.04-0.04-1.37,0.68-1.25,0.7c0.08,0.09,0.49-0.28,1.17-0.11c0.65,0.13,1.28,1.03,1.13,2.15
									c-0.14,1.14-0.59,2.17-1.2,2.43C125.64,173.23,125.19,172.94,125.12,173.03z"/>
							</g>
						</g>
					</g>
				</g>
			</g>
			<path class="st4" d="M126.6,145.54c1.41,0.8,3.14,1.03,4.7,0.62c1.57-0.41,2.96-1.46,3.79-2.85c0.54-0.9,0.84-1.99,0.58-3
				c-0.36-1.39-1.71-2.32-3.09-2.68c-2.01-0.52-4.29-0.02-5.81,1.39c-1.52,1.42-2.17,3.73-1.5,5.7c0.67,1.96,2.7,3.41,4.78,3.3"/>
			<path class="st4" d="M128.27,175.39c-1.02,0.74-2.06,1.49-2.86,2.47c-0.8,0.98-1.35,2.22-1.24,3.48c0.07,0.7,0.33,1.4,0.23,2.1
				c-0.14,0.96-0.93,1.67-1.45,2.5c-1.35,2.12-0.77,5.1,0.94,6.95c1.7,1.85,4.29,2.68,6.8,2.77c1.46,0.05,2.99-0.16,4.18-0.99
				c1.72-1.21,2.38-3.46,2.43-5.57"/>
			<g>
				<path class="st6" d="M129.52,149.67c0.05,0.03-0.31,0.78-1.08,1.89c-0.77,1.1-1.98,2.54-3.55,3.88
					c-1.57,1.34-3.16,2.33-4.37,2.92c-1.21,0.6-2.01,0.85-2.03,0.79c-0.08-0.15,3-1.45,6.06-4.11
					C127.64,152.41,129.39,149.57,129.52,149.67z"/>
			</g>
			<g>
				<path class="st6" d="M131.43,149.56c0.06,0.01,0.02,0.99-0.34,2.52c-0.36,1.54-1.1,3.62-2.34,5.69
					c-1.25,2.07-2.74,3.7-3.93,4.73c-1.19,1.04-2.04,1.53-2.07,1.48c-0.12-0.13,3.13-2.39,5.56-6.48
					C130.79,153.45,131.26,149.52,131.43,149.56z"/>
			</g>
			<g>
				<path class="st6" d="M91.46,157.9c0.15-0.01,0.35,1.72,0.95,3.77c0.58,2.05,1.34,3.62,1.21,3.69c-0.11,0.07-1.1-1.43-1.71-3.55
					C91.29,159.7,91.33,157.9,91.46,157.9z"/>
			</g>
			<g>
				<path class="st6" d="M135.56,193.28c0.03-0.06,0.46,0.47,1.52,0.49c0.51,0,1.16-0.14,1.76-0.56c0.6-0.4,1.09-1.13,1.33-2.02
					c0.24-0.89,0.25-1.94,0.02-3.01c-0.22-1.09-0.64-2.21-1.01-3.43c-0.36-1.22-0.68-2.59-0.44-4.03c0.23-1.47,1.18-2.65,1.64-3.97
					c0.47-1.31,0.28-2.77-0.3-3.95c-0.59-1.19-1.59-2.06-2.74-2.51c-0.57-0.24-1.17-0.45-1.72-0.75c-0.55-0.29-1.06-0.7-1.37-1.23
					c-0.64-1.05-0.62-2.2-0.62-3.15c0.02-0.97,0.07-1.82-0.1-2.54c-0.16-0.73-0.43-1.32-0.75-1.72c-0.67-0.82-1.38-0.77-1.35-0.83
					c0-0.01,0.15-0.03,0.44,0.03c0.28,0.06,0.69,0.25,1.07,0.67c0.37,0.41,0.69,1.03,0.88,1.79c0.21,0.76,0.18,1.67,0.19,2.61
					c0.02,0.94,0.04,2.02,0.61,2.91c0.56,0.92,1.72,1.3,2.91,1.77c1.22,0.45,2.38,1.43,3.01,2.72c0.64,1.28,0.86,2.88,0.33,4.35
					c-0.52,1.43-1.43,2.58-1.63,3.88c-0.22,1.3,0.06,2.61,0.4,3.81c0.35,1.2,0.76,2.35,0.97,3.48c0.22,1.13,0.2,2.24-0.09,3.2
					c-0.29,0.95-0.84,1.73-1.53,2.16c-0.68,0.43-1.38,0.55-1.93,0.52c-0.56-0.03-0.96-0.23-1.2-0.39
					C135.64,193.41,135.56,193.28,135.56,193.28z"/>
			</g>
			<g>
				<path class="st6" d="M128.35,192.57c0.05-0.03,0.13,0.32,0.62,0.54c0.44,0.21,1.41,0.22,1.94-0.53
					c0.54-0.76,0.46-2.03-0.16-3.13c-0.57-1.13-1.7-2.24-1.99-3.89c-0.15-0.8,0.04-1.71,0.56-2.31c0.49-0.6,1.06-1.01,1.44-1.5
					c0.75-1,0.82-2.25,0.7-3.19c-0.13-0.97-0.41-1.74-0.57-2.27c-0.18-0.53-0.27-0.83-0.23-0.85c0.03-0.01,0.18,0.26,0.42,0.77
					c0.23,0.51,0.56,1.27,0.75,2.29c0.17,0.99,0.17,2.36-0.68,3.54c-0.43,0.57-1.01,1-1.42,1.52c-0.43,0.51-0.57,1.2-0.44,1.91
					c0.24,1.44,1.3,2.53,1.9,3.75c0.65,1.2,0.73,2.67,0.03,3.57c-0.34,0.46-0.85,0.65-1.27,0.69c-0.43,0.04-0.8-0.05-1.06-0.2
					C128.33,192.97,128.33,192.56,128.35,192.57z"/>
			</g>
			<g>
				<path class="st6" d="M89.15,189.96c-0.03,0.02-0.32-0.26-0.81-0.81c-0.48-0.56-1.21-1.38-1.74-2.63
					c-0.27-0.62-0.44-1.37-0.42-2.18c0.02-0.8,0.26-1.71,0.88-2.42c0.62-0.72,1.52-1.09,2.06-1.76c0.56-0.67,0.63-1.64,0.41-2.57
					c-0.22-0.95-0.65-1.8-1.1-2.64c-0.43-0.85-0.83-1.71-0.97-2.62c-0.16-0.9,0.04-1.85,0.52-2.52c0.46-0.68,1.04-1.15,1.52-1.59
					c1.01-0.83,1.58-1.73,1.71-2.44c0.14-0.7-0.1-1.09-0.04-1.1c0.01-0.01,0.08,0.08,0.15,0.26c0.07,0.18,0.14,0.49,0.09,0.87
					c-0.07,0.77-0.66,1.8-1.66,2.68c-0.47,0.46-1.02,0.93-1.41,1.55c-0.4,0.61-0.55,1.4-0.4,2.21c0.14,0.82,0.52,1.64,0.95,2.47
					c0.44,0.82,0.92,1.74,1.15,2.76c0.24,1,0.17,2.19-0.53,3.01c-0.68,0.8-1.57,1.15-2.1,1.76c-0.54,0.6-0.78,1.39-0.81,2.12
					c-0.04,0.74,0.1,1.43,0.33,2.03c0.46,1.2,1.13,2.05,1.56,2.64C88.93,189.61,89.18,189.94,89.15,189.96z"/>
			</g>
			<g>
				<path class="st8" d="M130.85,146.84c-0.14,0.07-0.84-1.46-2.44-2.65c-1.58-1.22-3.24-1.47-3.21-1.63
					c-0.02-0.13,1.81-0.1,3.53,1.21C130.46,145.07,130.98,146.83,130.85,146.84z"/>
			</g>
			<g>
				<path class="st6" d="M132.29,137.27c0.05-0.03,0.39,0.36,0.66,1.13c0.27,0.77,0.43,1.94,0.09,3.17
					c-0.34,1.23-1.08,2.16-1.7,2.68c-0.63,0.53-1.12,0.69-1.15,0.64c-0.04-0.07,0.37-0.34,0.89-0.9c0.53-0.55,1.15-1.44,1.46-2.55
					c0.31-1.11,0.23-2.19,0.06-2.93C132.43,137.75,132.22,137.31,132.29,137.27z"/>
			</g>
		</g>
		<path class="st12" d="M81.51,260.28c0,0,24.84,23.59,39.61,19.32c14.77-4.27,19.14-15.35,19.14-15.35l0.36-3.97l-1.48-0.97
			l-56.86-4.6L81.51,260.28z"/>
		<g>
			<g>
				<path class="st9" d="M66.81,238.18l4.79-12.29l17.17,10.79l-15.3,23.6C73.48,260.28,67.25,252.2,66.81,238.18z"/>
				<g>
					<g>
						<path class="st8" d="M86.19,204.24c7.99-4.17,18.34-5.38,18.34-5.38l0,0c3,6.01,12.47,6.77,18.2,2.67l4.83-3.27
							c0,0,0.75-0.03,2.02,0.08c11.3,1,20.56,9.44,22.86,20.56c0.84,4.05,1.46,8.69,1.21,12.99c-0.63,10.92-11.94,11.91-11.94,11.91
							s-0.58,10.8-1.35,19.52l0,0c-0.57,6.52-3.95,11.38-9.89,14.11c-4.43,2.03-6.87,2.97-12.61,3.89
							c-14.49,2.32-28.41-3.18-37.58-13.01c1.72-10.41,3.36-23.88,3.24-24.48c-0.02-0.13,0.02-0.2,0.02-0.2l-11.21-9.95l-6.36-5.34
							C65.97,228.34,79.92,207.64,86.19,204.24"/>
					</g>
				</g>
			</g>
			<g>
				<path class="st5" d="M100.09,210.97c-0.04,0.1-0.96-0.77-2.77-0.77c-0.88,0-1.97,0.26-2.86,0.99c-0.44,0.36-0.82,0.86-1.27,1.37
					c-0.44,0.49-1.01,1.06-1.81,1.2c-0.81,0.15-1.55-0.2-2.11-0.57c-0.58-0.37-1.07-0.77-1.57-1.06c-0.99-0.61-2.11-0.55-2.93-0.26
					c-0.84,0.29-1.39,0.79-1.7,1.18c-0.31,0.39-0.43,0.65-0.47,0.64c-0.02-0.01,0.03-0.3,0.31-0.76c0.28-0.44,0.84-1.03,1.74-1.4
					c0.87-0.37,2.16-0.48,3.3,0.18c0.56,0.31,1.06,0.71,1.61,1.05c0.54,0.34,1.14,0.6,1.75,0.49c0.61-0.11,1.1-0.56,1.53-1.03
					c0.44-0.48,0.84-1,1.35-1.4c1.02-0.8,2.22-1.03,3.17-0.99c0.96,0.04,1.69,0.34,2.14,0.61
					C99.92,210.72,100.1,210.95,100.09,210.97z"/>
			</g>
			<g>
				<path class="st5" d="M111.48,225.9c-0.07,0.08-0.66-1.03-2.38-1.61c-0.83-0.28-1.94-0.38-3.03,0.03
					c-0.54,0.2-1.06,0.55-1.64,0.89c-0.57,0.33-1.29,0.68-2.1,0.56c-0.81-0.11-1.41-0.69-1.82-1.21c-0.43-0.53-0.77-1.07-1.15-1.51
					c-0.74-0.89-1.83-1.2-2.7-1.18c-0.89,0.01-1.57,0.31-1.99,0.57c-0.42,0.27-0.62,0.48-0.65,0.45c-0.02-0.01,0.12-0.28,0.53-0.62
					c0.41-0.33,1.13-0.71,2.09-0.77c0.94-0.07,2.2,0.23,3.07,1.23c0.43,0.47,0.78,1.01,1.19,1.51c0.4,0.49,0.89,0.94,1.5,1.02
					c0.61,0.09,1.22-0.18,1.78-0.49c0.57-0.31,1.11-0.68,1.73-0.89c1.23-0.43,2.43-0.27,3.31,0.08c0.89,0.35,1.5,0.86,1.83,1.26
					C111.4,225.61,111.5,225.89,111.48,225.9z"/>
			</g>
			<g>
				<path class="st5" d="M136.79,204.04c-0.02,0.11-1.1-0.55-2.87-0.16c-0.86,0.19-1.87,0.67-2.58,1.57
					c-0.36,0.44-0.62,1.02-0.95,1.61c-0.32,0.57-0.76,1.25-1.52,1.56c-0.76,0.32-1.56,0.13-2.18-0.11c-0.64-0.24-1.21-0.53-1.76-0.7
					c-1.09-0.38-2.18-0.09-2.92,0.37c-0.75,0.46-1.19,1.07-1.42,1.51c-0.22,0.45-0.28,0.73-0.33,0.72c-0.02,0-0.04-0.3,0.14-0.8
					c0.18-0.49,0.6-1.19,1.4-1.74c0.77-0.54,2.01-0.93,3.26-0.52c0.61,0.18,1.19,0.47,1.79,0.68c0.6,0.22,1.24,0.35,1.81,0.1
					c0.57-0.23,0.96-0.78,1.27-1.33c0.33-0.56,0.61-1.15,1.02-1.65c0.83-1,1.95-1.48,2.88-1.63c0.94-0.16,1.73-0.03,2.22,0.14
					C136.57,203.83,136.8,204.02,136.79,204.04z"/>
			</g>
			<g>
				<path class="st5" d="M125.11,220.44c-0.07,0.07-0.5-0.8-1.8-1.29c-0.63-0.24-1.47-0.35-2.3-0.07c-0.41,0.13-0.82,0.39-1.29,0.63
					c-0.46,0.23-1.03,0.49-1.68,0.37c-0.65-0.12-1.09-0.6-1.4-1.02c-0.31-0.43-0.55-0.86-0.83-1.2c-0.53-0.7-1.33-0.97-2-1
					c-1.39-0.04-2.03,0.74-2.07,0.65c-0.02-0.02,0.09-0.22,0.42-0.48c0.33-0.25,0.9-0.53,1.65-0.54c0.74-0.03,1.72,0.25,2.36,1.06
					c0.32,0.38,0.57,0.81,0.87,1.2c0.29,0.39,0.64,0.73,1.09,0.81c0.92,0.16,1.76-0.67,2.72-0.94c0.98-0.29,1.91-0.11,2.58,0.19
					C124.84,219.46,125.16,220.46,125.11,220.44z"/>
			</g>
			<g>
				<path class="st5" d="M99.36,234.27c-0.07,0.07-0.5-0.8-1.8-1.29c-0.63-0.24-1.47-0.35-2.3-0.07c-0.41,0.13-0.82,0.39-1.29,0.63
					c-0.46,0.23-1.03,0.49-1.68,0.37c-0.65-0.12-1.09-0.6-1.4-1.02c-0.31-0.43-0.55-0.86-0.83-1.2c-0.53-0.7-1.33-0.97-2-1
					c-1.39-0.04-2.03,0.74-2.07,0.65c-0.02-0.02,0.09-0.22,0.42-0.48c0.33-0.25,0.9-0.53,1.65-0.54c0.74-0.03,1.72,0.25,2.36,1.06
					c0.32,0.38,0.57,0.81,0.87,1.2c0.29,0.39,0.64,0.73,1.09,0.81c0.92,0.16,1.76-0.67,2.72-0.94c0.98-0.29,1.91-0.11,2.58,0.19
					C99.09,233.28,99.41,234.28,99.36,234.27z"/>
			</g>
			<g>
				<path class="st5" d="M123.43,234.58c-0.05,0.09-0.73-0.59-2.12-0.64c-0.67-0.02-1.5,0.15-2.2,0.68
					c-0.35,0.26-0.65,0.63-1.02,1.01c-0.36,0.37-0.82,0.8-1.47,0.89c-0.65,0.09-1.23-0.21-1.65-0.51c-0.44-0.31-0.8-0.63-1.18-0.87
					c-0.73-0.49-1.58-0.49-2.21-0.3c-1.32,0.41-1.68,1.36-1.75,1.29c-0.03-0.01,0.01-0.24,0.24-0.59c0.23-0.34,0.68-0.79,1.39-1.05
					c0.69-0.27,1.71-0.32,2.58,0.24c0.43,0.26,0.81,0.58,1.21,0.86c0.4,0.28,0.84,0.49,1.29,0.42c0.92-0.15,1.45-1.2,2.27-1.77
					c0.83-0.59,1.77-0.73,2.51-0.66C122.86,233.73,123.49,234.57,123.43,234.58z"/>
			</g>
			<g>
				<path class="st5" d="M115.48,245.56c-0.05,0.09-0.73-0.59-2.12-0.64c-0.67-0.02-1.5,0.15-2.2,0.68
					c-0.35,0.26-0.65,0.63-1.02,1.01c-0.36,0.37-0.82,0.8-1.47,0.89c-0.65,0.09-1.23-0.21-1.65-0.51c-0.44-0.31-0.8-0.63-1.18-0.87
					c-0.73-0.49-1.58-0.49-2.21-0.3c-1.32,0.41-1.68,1.36-1.75,1.29c-0.03-0.01,0.01-0.24,0.24-0.59c0.23-0.34,0.68-0.79,1.39-1.05
					c0.69-0.27,1.71-0.32,2.58,0.24c0.43,0.26,0.81,0.58,1.21,0.86c0.4,0.28,0.84,0.49,1.29,0.42c0.92-0.15,1.45-1.2,2.27-1.77
					c0.83-0.59,1.77-0.73,2.51-0.66C114.91,244.71,115.53,245.55,115.48,245.56z"/>
			</g>
			<g>
				<path class="st5" d="M98.69,272.82c-0.07,0.07-0.51-0.79-1.81-1.26c-0.63-0.23-1.47-0.33-2.3-0.04
					c-0.41,0.14-0.82,0.4-1.28,0.65c-0.45,0.24-1.03,0.5-1.67,0.39c-0.65-0.11-1.1-0.59-1.41-1c-0.32-0.43-0.57-0.85-0.85-1.19
					c-0.54-0.69-1.35-0.95-2.01-0.97c-1.39-0.02-2.01,0.77-2.06,0.68c-0.02-0.02,0.09-0.22,0.41-0.48c0.32-0.25,0.89-0.54,1.65-0.57
					c0.73-0.04,1.72,0.23,2.38,1.03c0.33,0.38,0.59,0.8,0.89,1.19c0.3,0.39,0.65,0.72,1.1,0.8c0.92,0.15,1.75-0.69,2.71-0.98
					c0.97-0.31,1.91-0.14,2.59,0.15C98.4,271.84,98.74,272.83,98.69,272.82z"/>
			</g>
			<g>
				<path class="st5" d="M118.34,278.62c-0.05,0.09-0.72-0.6-2.11-0.67c-0.67-0.03-1.51,0.12-2.21,0.65c-0.35,0.25-0.66,0.62-1.03,1
					c-0.36,0.36-0.83,0.78-1.48,0.87c-0.65,0.09-1.23-0.23-1.64-0.54c-0.43-0.31-0.79-0.64-1.16-0.89c-0.72-0.5-1.57-0.51-2.21-0.33
					c-1.33,0.39-1.69,1.34-1.77,1.26c-0.03-0.01,0.02-0.24,0.25-0.58c0.23-0.34,0.69-0.78,1.4-1.03c0.69-0.26,1.71-0.29,2.58,0.27
					c0.42,0.26,0.8,0.59,1.2,0.87c0.4,0.28,0.84,0.5,1.29,0.44c0.92-0.13,1.47-1.18,2.3-1.74c0.84-0.58,1.78-0.7,2.51-0.62
					C117.78,277.76,118.39,278.61,118.34,278.62z"/>
			</g>
			<g>
				<g>
					<g>
						<path class="st4" d="M53.58,195.92c0.61,0.72,22.59,30.11,22.59,30.11l-3.1,1.75l-22.56-29.02L53.58,195.92z"/>
						<path class="st10" d="M139.39,216.89c0,0-20.62,35.56-22.02,36.22c-2.75,1.29-34.39-26.06-37.41-28.67
							c-0.42-0.56-1.27-1.73-2.96-4.06c0,0-2.5-11.42-5.16-10.55c-2.66,0.88,1.46,5.81-0.28,10.15c-1.74,4.34-9.68-6.01-10-6.94
							l-2.05-2.68c0,0-2.15,6.09-2,8.64c0.47,8.15,8.18,17.84,8.18,17.84s31.33,39.26,55.06,40.6c6.83,0.38,19.88-19.29,28-33.82
							c4.9-8.78,2.63-17.7-5.5-23.62L139.39,216.89z"/>
						<g>
							<path class="st9" d="M61.42,220.44c-0.07,0.04-0.94-1.2-1.76-2.88c-0.83-1.67-1.3-3.12-1.22-3.15
								c0.08-0.03,0.68,1.35,1.5,3.01C60.75,219.09,61.49,220.4,61.42,220.44z"/>
						</g>
					</g>
				</g>
				<path class="st8" d="M138.42,207c-0.81,0.49-19.99,36.09-19.99,36.09l24.68,19.33c0,0,6.42-15.82,9.81-28.68
					c0.92-3.49,0.45-12.82-0.85-16.42c-1.84-5.11-4.62-3.84-8.79-6.83L138.42,207z"/>
				<g class="st13">
					<path d="M146.53,207c-0.01,0.02-0.24-0.14-0.7-0.37c-0.45-0.23-1.2-0.51-2.17-0.46c-0.97,0.03-2.12,0.5-3.22,1.34
						c-1.11,0.84-2.19,2.03-3.21,3.46c-1.04,1.42-1.9,3.16-2.96,4.96c-1.03,1.82-2.14,3.75-3.3,5.79c-2.33,4.08-4.9,8.55-7.59,13.25
						c-1.64,2.85-3.23,5.62-4.73,8.23l-0.06-0.32c6.69,5.28,12.51,9.88,16.7,13.2c2.03,1.63,3.67,2.95,4.85,3.89
						c0.53,0.44,0.96,0.79,1.28,1.06c0.29,0.25,0.44,0.38,0.43,0.39c-0.01,0.01-0.17-0.1-0.48-0.32c-0.34-0.25-0.78-0.58-1.34-0.99
						c-1.2-0.91-2.87-2.19-4.94-3.77c-4.22-3.28-10.08-7.83-16.81-13.05l-0.17-0.13l0.11-0.19c1.49-2.61,3.08-5.38,4.72-8.23
						c2.7-4.69,5.27-9.16,7.62-13.23c1.17-2.03,2.29-3.96,3.34-5.77c1.06-1.79,1.96-3.54,3.04-4.97c1.06-1.44,2.18-2.64,3.34-3.48
						c1.15-0.84,2.36-1.31,3.39-1.31c1.02-0.03,1.78,0.3,2.23,0.57c0.24,0.12,0.39,0.26,0.5,0.33
						C146.49,206.95,146.54,206.99,146.53,207z"/>
				</g>
			</g>
			<g>
				<path class="st5" d="M139.16,240.38c-0.07,0.07-0.5-0.8-1.8-1.29c-0.63-0.24-1.47-0.35-2.3-0.07c-0.41,0.13-0.82,0.39-1.29,0.63
					c-0.46,0.23-1.03,0.49-1.68,0.37c-0.65-0.12-1.09-0.6-1.4-1.02c-0.31-0.43-0.55-0.86-0.83-1.2c-0.53-0.7-1.33-0.97-2-1
					c-1.38-0.04-2.03,0.74-2.07,0.65c-0.02-0.02,0.09-0.22,0.42-0.48c0.33-0.25,0.9-0.53,1.65-0.54c0.74-0.03,1.72,0.25,2.36,1.06
					c0.32,0.38,0.57,0.81,0.87,1.2c0.29,0.39,0.64,0.73,1.09,0.81c0.92,0.16,1.76-0.67,2.72-0.94c0.98-0.29,1.91-0.11,2.58,0.19
					C138.89,239.39,139.21,240.39,139.16,240.38z"/>
			</g>
			<g>
				<path class="st5" d="M150.44,235.78c-0.09,0.05-0.27-0.9-1.38-1.72c-0.54-0.4-1.32-0.73-2.2-0.69c-0.43,0.02-0.9,0.15-1.41,0.26
					c-0.5,0.1-1.13,0.19-1.72-0.1c-0.59-0.29-0.89-0.87-1.07-1.36c-0.19-0.5-0.3-0.98-0.48-1.38c-0.32-0.82-1.02-1.3-1.65-1.5
					c-1.32-0.41-2.15,0.17-2.17,0.07c-0.02-0.02,0.15-0.19,0.53-0.35c0.38-0.15,1-0.26,1.74-0.08c0.72,0.17,1.59,0.71,1.99,1.66
					c0.21,0.45,0.33,0.94,0.51,1.39c0.17,0.46,0.42,0.88,0.83,1.08c0.84,0.4,1.88-0.17,2.88-0.17c1.02-0.02,1.87,0.41,2.44,0.88
					C150.45,234.75,150.49,235.8,150.44,235.78z"/>
			</g>
			<g>
				<path class="st5" d="M151.02,221.06c-0.09,0.05-0.27-0.9-1.38-1.72c-0.54-0.4-1.32-0.73-2.2-0.69c-0.43,0.02-0.9,0.15-1.41,0.26
					c-0.5,0.1-1.13,0.19-1.72-0.1c-0.59-0.29-0.89-0.87-1.07-1.36c-0.19-0.5-0.3-0.98-0.48-1.38c-0.32-0.82-1.02-1.3-1.65-1.5
					c-1.32-0.41-2.15,0.17-2.17,0.07c-0.02-0.02,0.15-0.19,0.53-0.35c0.38-0.15,1-0.26,1.74-0.08c0.72,0.17,1.59,0.71,1.99,1.66
					c0.21,0.45,0.33,0.94,0.51,1.39c0.17,0.46,0.42,0.88,0.83,1.08c0.84,0.4,1.88-0.17,2.88-0.17c1.02-0.02,1.87,0.41,2.44,0.88
					C151.03,220.04,151.07,221.09,151.02,221.06z"/>
			</g>
			<g>
				<path class="st5" d="M145.56,254.89c-0.09,0.05-0.27-0.9-1.38-1.72c-0.54-0.4-1.32-0.73-2.2-0.69c-0.43,0.02-0.9,0.15-1.41,0.26
					c-0.5,0.1-1.13,0.19-1.72-0.1c-0.59-0.29-0.89-0.87-1.07-1.36c-0.19-0.5-0.3-0.98-0.48-1.38c-0.32-0.82-1.02-1.3-1.65-1.5
					c-1.32-0.41-2.15,0.17-2.17,0.07c-0.02-0.02,0.15-0.19,0.53-0.35c0.38-0.15,1-0.26,1.74-0.08c0.72,0.17,1.59,0.71,1.99,1.66
					c0.21,0.45,0.33,0.94,0.51,1.39c0.17,0.46,0.42,0.88,0.83,1.08c0.84,0.4,1.88-0.17,2.88-0.17c1.02-0.02,1.87,0.41,2.44,0.88
					C145.57,253.87,145.61,254.92,145.56,254.89z"/>
			</g>
		</g>
	</g>
</g>
</svg>
