<?xml version="1.0" encoding="UTF-8"?>
<svg width="109px" height="128px" viewBox="0 0 109 128" version="1.1" xmlns="http://www.w3.org/2000/svg" xmlns:xlink="http://www.w3.org/1999/xlink">
    <!-- Generator: Sketch 55 (78076) - https://sketchapp.com -->
    <title>android</title>
    <desc>Created with Sketch.</desc>
    <g id="Page-1" stroke="none" stroke-width="1" fill="none" fill-rule="evenodd">
        <g id="Artboard" transform="translate(-440.000000, -145.000000)" fill="#333333" fill-rule="nonzero">
            <g id="android" transform="translate(440.000000, 145.000000)">
                <path d="M8.55436275,41.6032 C4.22321569,41.6010667 0.71277451,45.1136 0.711705882,49.4336 L0.71704902,82.2186667 C0.718117647,86.5536 4.23069608,90.0522667 8.56291176,90.0512 C12.8972647,90.0512 16.4087745,86.5525333 16.4045,82.2197333 L16.4045,49.4293333 C16.4023627,45.1104 12.8876471,41.6010667 8.55436275,41.6032 L8.55436275,41.6032 Z M71.8096275,12.1610667 L77.2842059,2.1824 C77.5759412,1.6608 77.3846569,0.997333333 76.8556863,0.701866667 C76.3213725,0.4192 75.6620294,0.6112 75.3788431,1.136 L69.8486961,11.2192 C65.1958922,9.152 59.9884706,7.9936 54.4786275,7.99893333 C48.9837451,7.9936 43.7784608,9.1488 39.1448922,11.2042667 L33.6083333,1.14666667 C33.3208725,0.616533333 32.6583235,0.424533333 32.1357647,0.7136 C31.6035882,1.00053333 31.4080294,1.66506667 31.7040392,2.1856 L37.1807549,12.1578667 C26.4196765,17.6970667 19.1487353,28.2464 19.1551428,40.3584 L89.8106569,40.3498667 C89.8127941,28.2421333 82.5546765,17.7141333 71.8096275,12.1610667 L71.8096275,12.1610667 Z M38.4086078,27.5818667 C36.7832255,27.5786667 35.4559902,26.2581333 35.4559902,24.6261333 C35.4559902,23.0016 36.778951,21.6661333 38.4118137,21.6672 C40.0500196,21.6661333 41.3751176,23.0016 41.3772549,24.6261333 C41.3772549,26.256 40.048951,27.5808 38.4086078,27.5818667 L38.4086078,27.5818667 Z M70.5807059,27.5765333 C68.9478431,27.5786667 67.6184706,26.2570667 67.6184706,24.6208 C67.6248824,22.9994667 68.9457059,21.664 70.5817745,21.6576 C72.2071569,21.6629333 73.5397353,22.9994667 73.5386667,24.6218667 C73.5418725,26.2538667 72.2135686,27.5776 70.5807059,27.5765333 L70.5807059,27.5765333 Z M19.4436765,43.0826667 L19.4554314,93.8933333 C19.4522255,98.5152 23.1977647,102.2464 27.8249216,102.2464 L33.5239118,102.248533 L33.5303235,119.5968 C33.5292549,123.9168 37.0471765,127.428267 41.3687059,127.428267 C45.7030588,127.428267 49.2145686,123.9136 49.2156373,119.591467 L49.2113627,102.247467 L59.8003922,102.244267 L59.8046667,119.591467 C59.8046667,123.908267 63.3236569,127.4272 67.6462549,127.418667 C71.9806078,127.421867 75.4942549,123.9072 75.4931863,119.585067 L75.4878431,102.242133 L81.2071373,102.237867 C85.8236078,102.24 89.5787647,98.5045333 89.580902,93.8816 L89.5712843,43.0709333 L19.4436765,43.0826667 Z M108.282951,49.4218667 C108.281882,45.0965333 104.771441,41.5914667 100.438157,41.5936 C96.1070098,41.5893333 92.5976373,45.0997333 92.5976373,49.4250667 L92.604049,82.2122667 C92.6029804,86.5408 96.1123529,90.0394667 100.446706,90.0405333 C104.778922,90.0394667 108.287225,86.5408 108.288294,82.208 L108.282951,49.4218667 Z" id="Shape"></path>
            </g>
        </g>
    </g>
</svg>