<?xml version="1.0" encoding="utf-8"?>
<!-- Generator: Adobe Illustrator 16.0.0, SVG Export Plug-In . SVG Version: 6.00 Build 0)  -->
<!DOCTYPE svg PUBLIC "-//W3C//DTD SVG 1.1//EN" "http://www.w3.org/Graphics/SVG/1.1/DTD/svg11.dtd">
<svg version="1.1" id="Layer_1" xmlns="http://www.w3.org/2000/svg" xmlns:xlink="http://www.w3.org/1999/xlink" x="0px" y="0px"
	 width="64px" height="64px" viewBox="0 0 64 64" enable-background="new 0 0 64 64" xml:space="preserve">
<g>
	<path d="M53,5h-8v4H19V5h-8v4H0v50h64V9H53V5z M47,7h4v6h-4V7z M13,7h4v6h-4V7z M2,57V19h60v38H2z M62,11v6H2v-6h9v4h8v-4h26v4h8
		v-4H62z"/>
	<path d="M42,35h-6.307l-2.757-7.351c-0.148-0.395-0.511-0.677-0.948-0.649c-0.421,0.005-0.794,0.273-0.933,0.671L28.502,35H22
		c-0.44,0-0.829,0.289-0.957,0.71c-0.128,0.421,0.036,0.877,0.402,1.122l5.382,3.588l-1.909,6.29
		c-0.122,0.402,0.021,0.838,0.357,1.09c0.337,0.254,0.794,0.268,1.146,0.038l5.569-3.637l5.388,3.629
		c0.169,0.114,0.364,0.17,0.559,0.17c0.205,0,0.41-0.063,0.584-0.188c0.34-0.245,0.491-0.675,0.38-1.078l-1.744-6.303l5.397-3.599
		c0.366-0.245,0.53-0.7,0.402-1.122C42.829,35.289,42.44,35,42,35z M35.445,39.168c-0.359,0.24-0.524,0.683-0.409,1.099l1.216,4.392
		l-3.693-2.488c-0.334-0.224-0.77-0.228-1.105-0.008l-3.822,2.497l1.326-4.369c0.128-0.422-0.035-0.878-0.402-1.123L25.303,37h3.91
		c0.426,0,0.805-0.269,0.944-0.671l1.877-5.389l2.029,5.411C34.21,36.741,34.583,37,35,37h3.697L35.445,39.168z"/>
</g>
</svg>
