<?xml version="1.0" encoding="utf-8"?>
<!-- Generator: Adobe Illustrator 16.0.0, SVG Export Plug-In . SVG Version: 6.00 Build 0)  -->
<!DOCTYPE svg PUBLIC "-//W3C//DTD SVG 1.1//EN" "http://www.w3.org/Graphics/SVG/1.1/DTD/svg11.dtd">
<svg version="1.1" id="Layer_1" xmlns="http://www.w3.org/2000/svg" xmlns:xlink="http://www.w3.org/1999/xlink" x="0px" y="0px"
	 width="64px" height="64px" viewBox="0 0 64 64" enable-background="new 0 0 64 64" xml:space="preserve">
<g>
	<path d="M8,0v2c16,0,31.173,7.065,41.472,19.386C57.567,31.065,62.051,43.358,62.051,56h2c0-13.11-4.649-25.858-13.044-35.897
		C40.326,7.327,25,0,8,0z"/>
	<path d="M50.769,56h2C52.769,31.343,33,11.282,8,11.282v2C32,13.282,50.769,32.445,50.769,56z"/>
	<path d="M8,22.564v2c17,0,31.486,14.102,31.486,31.436h2C41.486,37.563,26,22.564,8,22.564z"/>
	<path d="M30.205,56C30.205,43.784,20,33.846,8,33.846v2c11,0,20.205,9.041,20.205,20.154H30.205z"/>
	<path d="M16.103,56c0-4.439-3.612-8.051-8.052-8.051S0,51.561,0,56s3.611,8.051,8.051,8.051S16.103,60.439,16.103,56z M2,56
		c0-3.336,2.715-6.051,6.051-6.051c3.337,0,6.052,2.715,6.052,6.051s-2.715,6.051-6.052,6.051C4.715,62.051,2,59.336,2,56z"/>
</g>
</svg>
