<?xml version="1.0" encoding="utf-8"?>
<!-- Generator: Adobe Illustrator 16.0.0, SVG Export Plug-In . SVG Version: 6.00 Build 0)  -->
<!DOCTYPE svg PUBLIC "-//W3C//DTD SVG 1.1//EN" "http://www.w3.org/Graphics/SVG/1.1/DTD/svg11.dtd">
<svg version="1.1" id="Layer_1" xmlns="http://www.w3.org/2000/svg" xmlns:xlink="http://www.w3.org/1999/xlink" x="0px" y="0px"
	 width="64px" height="64px" viewBox="0 0 64 64" enable-background="new 0 0 64 64" xml:space="preserve">
<g>
	<path d="M41,37.586l-4.15-4.15L44.409,26H48c5.019,0,11-2.342,11-13.5v-1.573l-8.778,4.115l-3.038-3.164L51.024,3H49.5
		C38.342,3,36,9.011,36,14v3.59l-7.442,7.554L16.414,13l3.198-3.198L7.845,2.741L4.741,5.845l7.061,11.768L15,14.414l12.154,12.154
		L2.788,51.298l-0.178,0.18l-1.992,6.831l2.968,2.793l6.857-1.696l24.98-24.567L39.586,39l-3,3L57,62.414L64.414,55L44,34.586
		L41,37.586z M7.259,6.155l0.896-0.896l8.232,4.939l-4.189,4.189L7.259,6.155z M9.432,57.595l-5.268,1.304l-1.282-1.207l1.508-5.169
		L38,18.41V14c0-5.6,3.261-8.521,9.958-8.896l-3.142,7.236l4.962,5.117l7.174-3.362C56.547,20.67,53.54,24,48,24h-4.409
		L9.432,57.595z M57,59.586L39.414,42L44,37.414L61.586,55L57,59.586z"/>
</g>
</svg>
