<?xml version="1.0" encoding="utf-8"?>
<!-- Generator: Adobe Illustrator 16.0.0, SVG Export Plug-In . SVG Version: 6.00 Build 0)  -->
<!DOCTYPE svg PUBLIC "-//W3C//DTD SVG 1.1//EN" "http://www.w3.org/Graphics/SVG/1.1/DTD/svg11.dtd">
<svg version="1.1" id="Layer_1" xmlns="http://www.w3.org/2000/svg" xmlns:xlink="http://www.w3.org/1999/xlink" x="0px" y="0px"
	 width="64px" height="64px" viewBox="0 0 64 64" enable-background="new 0 0 64 64" xml:space="preserve">
<g>
	<path d="M49,17c0-9.374-7.626-17-17-17S15,7.626,15,17v15H7v32h50V32h-8V17z M17,17c0-8.271,6.729-15,15-15s15,6.729,15,15v15H17
		V17z M55,62H9V34h46V62z"/>
	<path d="M31,51.898V55h2v-3.102c2.279-0.464,4-2.484,4-4.898c0-2.757-2.243-5-5-5s-5,2.243-5,5C27,49.414,28.721,51.435,31,51.898z
		 M32,44c1.654,0,3,1.346,3,3s-1.346,3-3,3s-3-1.346-3-3S30.346,44,32,44z"/>
</g>
</svg>
