<?xml version="1.0" encoding="utf-8"?>
<!-- Generator: Adobe Illustrator 16.0.0, SVG Export Plug-In . SVG Version: 6.00 Build 0)  -->
<!DOCTYPE svg PUBLIC "-//W3C//DTD SVG 1.1//EN" "http://www.w3.org/Graphics/SVG/1.1/DTD/svg11.dtd">
<svg version="1.1" id="Layer_1" xmlns="http://www.w3.org/2000/svg" xmlns:xlink="http://www.w3.org/1999/xlink" x="0px" y="0px"
	 width="64px" height="64px" viewBox="0 0 64 64" enable-background="new 0 0 64 64" xml:space="preserve">
<g>
	<path d="M40,64v-6h2v-6h2v-6l0.001-5.558C50.272,36.359,54,29.507,54,22C54,9.869,44.131,0,32,0S10,9.869,10,22
		c0,7.459,3.817,14.514,10,18.55V44v2v6h2v6h2v6H40z M38,62H26v-4h12V62z M21.524,39.148C15.649,35.53,12,28.96,12,22
		c0-11.028,8.972-20,20-20s20,8.972,20,20c0,6.995-3.561,13.366-9.523,17.041L42,39.334V44h-4.839l2.828-18.852l-1.979-0.297
		l-0.108,0.722l-2.809,2.106L32,24.586l-3.094,3.094l-2.809-2.106l-0.108-0.722l-1.979,0.297L26.839,44H22v-4.559L21.524,39.148z
		 M28.861,44L26.52,28.39l2.574,1.931L32,27.414l2.906,2.906l2.574-1.931L35.139,44H28.861z M22,46h20v4H22V46z M24,52h16v4H24V52z"
		/>
</g>
</svg>
