<?xml version="1.0" encoding="utf-8"?>
<!-- Generator: Adobe Illustrator 16.0.0, SVG Export Plug-In . SVG Version: 6.00 Build 0)  -->
<!DOCTYPE svg PUBLIC "-//W3C//DTD SVG 1.1//EN" "http://www.w3.org/Graphics/SVG/1.1/DTD/svg11.dtd">
<svg version="1.1" id="Layer_1" xmlns="http://www.w3.org/2000/svg" xmlns:xlink="http://www.w3.org/1999/xlink" x="0px" y="0px"
	 width="64px" height="64px" viewBox="0 0 64 64" enable-background="new 0 0 64 64" xml:space="preserve">
<g>
	<path d="M0,64h64.414L0-0.414V64z M2,55h6v-2H2v-6h4v-2H2v-6h6v-2H2v-6h4v-2H2v-6h6v-2H2V4.414L59.586,62H2V55z"/>
	<path d="M13,27.586V55h27.414L13,27.586z M15,32.414L35.586,53H15V32.414z"/>
	<path d="M64.375,46.375l-2.472-9.886L25-0.414L17.586,7l36.903,36.903L64.375,46.375z M61.625,43.625l-6.114-1.528L26.414,13
		L31,8.414l29.097,29.097L61.625,43.625z M25,2.414L29.586,7L25,11.586L20.414,7L25,2.414z"/>
</g>
</svg>
