<?xml version="1.0" encoding="utf-8"?>
<!-- Generator: Adobe Illustrator 16.0.0, SVG Export Plug-In . SVG Version: 6.00 Build 0)  -->
<!DOCTYPE svg PUBLIC "-//W3C//DTD SVG 1.1//EN" "http://www.w3.org/Graphics/SVG/1.1/DTD/svg11.dtd">
<svg version="1.1" id="Layer_1" xmlns="http://www.w3.org/2000/svg" xmlns:xlink="http://www.w3.org/1999/xlink" x="0px" y="0px"
	 width="64px" height="64px" viewBox="0 0 64 64" enable-background="new 0 0 64 64" xml:space="preserve">
<g>
	<path d="M53.861,0H10.139l-6,40H4v24h56V40h-0.139L53.861,0z M11.861,2h40.277l5.7,38H6.161L11.861,2z M58,62H6V42h52V62z"/>
	<path d="M48,56c2.206,0,4-1.794,4-4s-1.794-4-4-4s-4,1.794-4,4S45.794,56,48,56z M48,50c1.103,0,2,0.897,2,2s-0.897,2-2,2
		s-2-0.897-2-2S46.897,50,48,50z"/>
</g>
</svg>
