<?xml version="1.0" encoding="utf-8"?>
<!-- Generator: Adobe Illustrator 16.0.0, SVG Export Plug-In . SVG Version: 6.00 Build 0)  -->
<!DOCTYPE svg PUBLIC "-//W3C//DTD SVG 1.1//EN" "http://www.w3.org/Graphics/SVG/1.1/DTD/svg11.dtd">
<svg version="1.1" id="Layer_1" xmlns="http://www.w3.org/2000/svg" xmlns:xlink="http://www.w3.org/1999/xlink" x="0px" y="0px"
	 width="64px" height="64px" viewBox="0 0 64 64" enable-background="new 0 0 64 64" xml:space="preserve">
<g>
	<path d="M31.946,54.091l12.52,6.26l19.852-41.794L35.56,3.646l-3.847,7.692L28.45,4.641L-0.309,19.552l18.82,40.777L31.946,54.091z
		 M36.44,6.354l25.242,13.089L43.534,57.649L17.342,44.553L36.44,6.354z M27.55,7.359l3.036,6.232L14.658,45.447l15.002,7.501
		l-10.172,4.723L2.309,20.448L27.55,7.359z"/>
	<rect x="36.5" y="8.882" transform="matrix(0.8944 0.4472 -0.4472 0.8944 8.4311 -15.7148)" width="2" height="2.236"/>
	<rect x="5.382" y="21" transform="matrix(-0.4472 -0.8944 0.8944 -0.4472 -10.2705 37.6525)" width="2.236" height="2"/>
	<rect x="41.5" y="52.882" transform="matrix(-0.8944 -0.4472 0.4472 -0.8944 56.3636 121.3056)" width="2" height="2.236"/>
	<path d="M35.144,40.516l0.283,0.47l0.864,0.018c2.723,0,11.822-0.399,14.589-5.528c1.526-2.83,1.423-6.829-1.405-8.354
		c-1.75-0.945-4.276-1.166-5.991-0.545c-0.038-0.43-0.13-0.858-0.275-1.28c-0.468-1.35-1.438-2.477-2.733-3.175
		c-0.809-0.437-1.76-0.667-2.753-0.667c-2.358,0-4.609,1.234-5.602,3.072C29.037,30.242,34.893,40.099,35.144,40.516z M33.88,25.476
		c0.633-1.172,2.248-2.022,3.842-2.022c0.662,0,1.286,0.147,1.804,0.427c0.853,0.46,1.489,1.195,1.792,2.069
		c0.301,0.867,0.23,1.782-0.197,2.576l1.76,0.949c0.616-1.142,2.198-1.265,2.851-1.265c0.985,0,2.005,0.244,2.795,0.67
		c1.814,0.979,1.504,3.96,0.595,5.646C46.915,38.611,38.479,38.972,36.575,39C34.928,36.074,31.886,29.173,33.88,25.476z"/>
</g>
</svg>
