<?xml version="1.0" encoding="utf-8"?>
<!-- Generator: Adobe Illustrator 16.0.0, SVG Export Plug-In . SVG Version: 6.00 Build 0)  -->
<!DOCTYPE svg PUBLIC "-//W3C//DTD SVG 1.1//EN" "http://www.w3.org/Graphics/SVG/1.1/DTD/svg11.dtd">
<svg version="1.1" id="Layer_1" xmlns="http://www.w3.org/2000/svg" xmlns:xlink="http://www.w3.org/1999/xlink" x="0px" y="0px"
	 width="64px" height="64px" viewBox="0 0 64 64" enable-background="new 0 0 64 64" xml:space="preserve">
<g>
	<path d="M51,0c-7.168,0-13,5.832-13,13c0,2.702,0.83,5.213,2.246,7.294L18.602,34.068C16.624,32.173,13.949,31,11,31
		C4.935,31,0,35.935,0,42s4.935,11,11,11c4.134,0,7.739-2.295,9.618-5.676l18.397,7.359C39.013,54.789,39,54.894,39,55
		c0,4.963,4.037,9,9,9s9-4.037,9-9s-4.037-9-9-9c-4.149,0-7.642,2.826-8.679,6.651l-17.899-7.159C21.791,44.393,22,43.222,22,42
		c0-2.39-0.774-4.598-2.074-6.403l21.587-13.737C43.888,24.4,47.257,26,51,26c7.168,0,13-5.832,13-13S58.168,0,51,0z M48,48
		c3.859,0,7,3.141,7,7s-3.141,7-7,7s-7-3.141-7-7S44.141,48,48,48z M11,51c-4.963,0-9-4.037-9-9s4.037-9,9-9s9,4.037,9,9
		S15.963,51,11,51z M51,24c-6.065,0-11-4.935-11-11S44.935,2,51,2s11,4.935,11,11S57.065,24,51,24z"/>
</g>
</svg>
