<svg width="406" height="36" viewBox="0 0 406 36" fill="none" xmlns="http://www.w3.org/2000/svg">
<title>Element Matrix Services</title>
<path d="M69.6001 19.8H56.9601C57.1094 21.1227 57.5894 22.1787 58.4001 22.968C59.2107 23.736 60.2774 24.12 61.6001 24.12C62.4747 24.12 63.2641 23.9067 63.9681 23.48C64.6721 23.0533 65.1734 22.4773 65.4721 21.752H69.3121C68.8001 23.4373 67.8401 24.8027 66.4321 25.848C65.0454 26.872 63.4027 27.384 61.5041 27.384C59.0294 27.384 57.0241 26.5627 55.4881 24.92C53.9734 23.2773 53.2161 21.1973 53.2161 18.68C53.2161 16.2267 53.9841 14.168 55.5201 12.504C57.0561 10.84 59.0401 10.008 61.4721 10.008C63.9041 10.008 65.8667 10.8293 67.3601 12.472C68.8747 14.0933 69.6321 16.1413 69.6321 18.616L69.6001 19.8ZM61.4721 13.112C60.2774 13.112 59.2854 13.464 58.4961 14.168C57.7067 14.872 57.2161 15.8107 57.0241 16.984H65.8561C65.6854 15.8107 65.2161 14.872 64.4481 14.168C63.6801 13.464 62.6881 13.112 61.4721 13.112Z" fill="#1E1E1E"/>
<path d="M72.2526 22.04V3H76.0606V22.104C76.0606 22.9573 76.5299 23.384 77.4686 23.384L78.1406 23.352V26.968C77.7779 27.032 77.3939 27.064 76.9886 27.064C75.3459 27.064 74.1406 26.648 73.3726 25.816C72.6259 24.984 72.2526 23.7253 72.2526 22.04Z" fill="#1E1E1E"/>
<path d="M95.8751 19.8H83.2351C83.3844 21.1227 83.8644 22.1787 84.6751 22.968C85.4857 23.736 86.5524 24.12 87.8751 24.12C88.7497 24.12 89.5391 23.9067 90.2431 23.48C90.9471 23.0533 91.4484 22.4773 91.7471 21.752H95.5871C95.0751 23.4373 94.1151 24.8027 92.7071 25.848C91.3204 26.872 89.6777 27.384 87.7791 27.384C85.3044 27.384 83.2991 26.5627 81.7631 24.92C80.2484 23.2773 79.4911 21.1973 79.4911 18.68C79.4911 16.2267 80.2591 14.168 81.7951 12.504C83.3311 10.84 85.3151 10.008 87.7471 10.008C90.1791 10.008 92.1417 10.8293 93.6351 12.472C95.1497 14.0933 95.9071 16.1413 95.9071 18.616L95.8751 19.8ZM87.7471 13.112C86.5524 13.112 85.5604 13.464 84.7711 14.168C83.9817 14.872 83.4911 15.8107 83.2991 16.984H92.1311C91.9604 15.8107 91.4911 14.872 90.7231 14.168C89.9551 13.464 88.9631 13.112 87.7471 13.112Z" fill="#1E1E1E"/>
<path d="M113.056 17.464V27H109.248V17.048C109.248 14.5307 108.202 13.272 106.112 13.272C104.981 13.272 104.074 13.6347 103.392 14.36C102.73 15.0853 102.4 16.0773 102.4 17.336V27H98.5916V10.392H102.112V12.6C102.517 11.8533 103.136 11.2347 103.968 10.744C104.8 10.2533 105.834 10.008 107.072 10.008C109.376 10.008 111.04 10.8827 112.064 12.632C113.472 10.8827 115.349 10.008 117.696 10.008C119.637 10.008 121.13 10.616 122.176 11.832C123.221 13.0267 123.744 14.6053 123.744 16.568V27H119.936V17.048C119.936 14.5307 118.89 13.272 116.8 13.272C115.648 13.272 114.73 13.6453 114.048 14.392C113.386 15.1173 113.056 16.1413 113.056 17.464Z" fill="#1E1E1E"/>
<path d="M142.681 19.8H130.041C130.191 21.1227 130.671 22.1787 131.481 22.968C132.292 23.736 133.359 24.12 134.681 24.12C135.556 24.12 136.345 23.9067 137.049 23.48C137.753 23.0533 138.255 22.4773 138.553 21.752H142.393C141.881 23.4373 140.921 24.8027 139.513 25.848C138.127 26.872 136.484 27.384 134.585 27.384C132.111 27.384 130.105 26.5627 128.569 24.92C127.055 23.2773 126.297 21.1973 126.297 18.68C126.297 16.2267 127.065 14.168 128.601 12.504C130.137 10.84 132.121 10.008 134.553 10.008C136.985 10.008 138.948 10.8293 140.441 12.472C141.956 14.0933 142.713 16.1413 142.713 18.616L142.681 19.8ZM134.553 13.112C133.359 13.112 132.367 13.464 131.577 14.168C130.788 14.872 130.297 15.8107 130.105 16.984H138.937C138.767 15.8107 138.297 14.872 137.529 14.168C136.761 13.464 135.769 13.112 134.553 13.112Z" fill="#1E1E1E"/>
<path d="M148.918 10.392V12.6C149.302 11.8747 149.931 11.2667 150.806 10.776C151.702 10.264 152.779 10.008 154.038 10.008C156 10.008 157.515 10.6053 158.582 11.8C159.67 12.9947 160.214 14.584 160.214 16.568V27H156.406V17.048C156.406 15.8747 156.128 14.9573 155.574 14.296C155.04 13.6133 154.219 13.272 153.11 13.272C151.894 13.272 150.934 13.6347 150.23 14.36C149.547 15.0853 149.206 16.088 149.206 17.368V27H145.398V10.392H148.918Z" fill="#1E1E1E"/>
<path d="M171.335 23.608V26.904C170.866 27.032 170.204 27.096 169.351 27.096C166.108 27.096 164.487 25.464 164.487 22.2V13.432H161.959V10.392H164.487V6.072H168.295V10.392H171.399V13.432H168.295V21.816C168.295 23.1173 168.914 23.768 170.151 23.768L171.335 23.608Z" fill="#1E1E1E"/>
<path d="M194.946 17.496V27H192.674V17.048C192.674 15.576 192.333 14.424 191.65 13.592C190.989 12.7387 189.965 12.312 188.578 12.312C187.213 12.312 186.093 12.76 185.218 13.656C184.343 14.552 183.906 15.768 183.906 17.304V27H181.634V10.712H183.81V13.208C184.855 11.288 186.573 10.328 188.962 10.328C191.543 10.328 193.314 11.3733 194.274 13.464C194.786 12.5893 195.533 11.8533 196.514 11.256C197.495 10.6373 198.658 10.328 200.002 10.328C201.901 10.328 203.362 10.9253 204.386 12.12C205.431 13.2933 205.954 14.7867 205.954 16.6V27H203.682V17.048C203.682 15.5973 203.341 14.4453 202.658 13.592C201.997 12.7387 200.983 12.312 199.618 12.312C198.274 12.312 197.154 12.76 196.258 13.656C195.383 14.552 194.946 15.832 194.946 17.496Z" fill="#1E1E1E"/>
<path d="M222.104 19.256C219.181 19.256 217.187 19.32 216.12 19.448C215.075 19.5547 214.307 19.736 213.816 19.992C212.941 20.4827 212.504 21.272 212.504 22.36C212.504 24.4507 213.741 25.496 216.216 25.496C218.115 25.496 219.565 25.0693 220.568 24.216C221.592 23.3627 222.104 22.2213 222.104 20.792V19.256ZM215.96 27.384C214.104 27.384 212.685 26.936 211.704 26.04C210.744 25.1227 210.264 23.9173 210.264 22.424C210.264 21.4427 210.52 20.568 211.032 19.8C211.565 19.032 212.291 18.4667 213.208 18.104C213.976 17.8053 214.968 17.6133 216.184 17.528C217.4 17.4213 219.373 17.368 222.104 17.368V16.312C222.104 13.624 220.568 12.28 217.496 12.28C214.851 12.28 213.315 13.3573 212.888 15.512H210.68C210.915 13.9333 211.587 12.6747 212.696 11.736C213.827 10.7973 215.459 10.328 217.592 10.328C219.875 10.328 221.571 10.8613 222.68 11.928C223.811 12.9947 224.376 14.4667 224.376 16.344V27H222.2V24.632C221.069 26.4667 218.989 27.384 215.96 27.384Z" fill="#1E1E1E"/>
<path d="M236.102 24.856V26.904C235.718 27.0107 235.142 27.064 234.374 27.064C231.558 27.064 230.15 25.5813 230.15 22.616V12.632H227.046V10.712H230.15V6.072H232.422V10.712H236.166V12.632H232.422V22.456C232.422 24.1627 233.168 25.016 234.662 25.016L236.102 24.856Z" fill="#1E1E1E"/>
<path d="M247.758 10.584V12.728C247.502 12.7067 247.235 12.696 246.958 12.696C245.507 12.696 244.334 13.1333 243.438 14.008C242.542 14.8613 242.094 16.1093 242.094 17.752V27H239.822V10.712H241.998V13.24C242.382 12.536 243.011 11.9173 243.886 11.384C244.76 10.8293 245.87 10.552 247.214 10.552L247.758 10.584Z" fill="#1E1E1E"/>
<path d="M248.96 12.632V10.712H253.92V27H251.648V12.632H248.96ZM253.952 6.264C253.654 6.54133 253.27 6.68 252.8 6.68C252.331 6.68 251.936 6.54133 251.616 6.264C251.318 5.96533 251.168 5.592 251.168 5.144V5.016C251.168 4.78133 251.211 4.57867 251.296 4.408C251.595 3.78933 252.096 3.48 252.8 3.48C253.27 3.48 253.654 3.64 253.952 3.96C254.272 4.25867 254.432 4.64267 254.432 5.112C254.432 5.58133 254.272 5.96533 253.952 6.264Z" fill="#1E1E1E"/>
<path d="M273.141 10.712L266.677 18.744L273.365 27H270.517L265.333 20.472L260.149 27H257.365L263.989 18.776L257.525 10.712H260.341L265.365 17.016L270.357 10.712H273.141Z" fill="#1E1E1E"/>
<path d="M290.319 27.384C288.121 27.384 286.479 26.872 285.391 25.848C284.324 24.8027 283.737 23.4907 283.631 21.912H285.935C286.02 23 286.425 23.8533 287.151 24.472C287.897 25.0907 288.953 25.4 290.319 25.4C291.663 25.4 292.708 25.1547 293.455 24.664C294.223 24.152 294.607 23.48 294.607 22.648C294.607 21.7947 294.255 21.1653 293.551 20.76C292.868 20.3333 292.036 20.0453 291.055 19.896C290.073 19.7467 289.081 19.5653 288.079 19.352C287.097 19.1387 286.255 18.6907 285.551 18.008C284.868 17.3253 284.527 16.3653 284.527 15.128C284.527 13.8053 285.071 12.6747 286.159 11.736C287.247 10.7973 288.719 10.328 290.575 10.328C292.623 10.328 294.137 10.8507 295.119 11.896C296.1 12.9413 296.655 14.136 296.783 15.48H294.511C294.404 14.5413 294.02 13.784 293.359 13.208C292.697 12.6107 291.748 12.312 290.511 12.312C289.295 12.312 288.356 12.568 287.695 13.08C287.055 13.592 286.735 14.2427 286.735 15.032C286.735 15.736 286.98 16.2907 287.471 16.696C287.983 17.1013 288.612 17.368 289.359 17.496C290.105 17.6027 290.905 17.752 291.759 17.944C292.633 18.136 293.444 18.3493 294.191 18.584C294.937 18.8187 295.556 19.2773 296.047 19.96C296.559 20.6427 296.815 21.5173 296.815 22.584C296.815 23.9067 296.249 25.0373 295.119 25.976C294.009 26.9147 292.409 27.384 290.319 27.384Z" fill="#1E1E1E"/>
<path d="M315.82 19.512H302.284C302.39 21.2187 302.966 22.616 304.012 23.704C305.057 24.792 306.412 25.336 308.076 25.336C309.292 25.336 310.358 25.0267 311.276 24.408C312.193 23.768 312.833 22.936 313.196 21.912H315.564C315.073 23.5333 314.166 24.856 312.844 25.88C311.521 26.8827 309.921 27.384 308.044 27.384C305.569 27.384 303.606 26.5627 302.156 24.92C300.726 23.256 300.012 21.2293 300.012 18.84C300.012 16.4933 300.748 14.488 302.22 12.824C303.713 11.16 305.644 10.328 308.012 10.328C310.38 10.328 312.279 11.128 313.708 12.728C315.137 14.3067 315.852 16.28 315.852 18.648L315.82 19.512ZM308.012 12.376C306.476 12.376 305.196 12.8773 304.172 13.88C303.148 14.8613 302.54 16.12 302.348 17.656H313.58C313.43 16.056 312.854 14.776 311.852 13.816C310.87 12.856 309.59 12.376 308.012 12.376Z" fill="#1E1E1E"/>
<path d="M328.133 10.584V12.728C327.877 12.7067 327.61 12.696 327.333 12.696C325.882 12.696 324.709 13.1333 323.813 14.008C322.917 14.8613 322.469 16.1093 322.469 17.752V27H320.197V10.712H322.373V13.24C322.757 12.536 323.386 11.9173 324.261 11.384C325.135 10.8293 326.245 10.552 327.589 10.552L328.133 10.584Z" fill="#1E1E1E"/>
<path d="M337.143 24.376L342.775 10.712H345.143L338.263 27H335.959L329.143 10.712H331.607L337.143 24.376Z" fill="#1E1E1E"/>
<path d="M346.367 12.632V10.712H351.327V27H349.055V12.632H346.367ZM351.359 6.264C351.06 6.54133 350.676 6.68 350.207 6.68C349.737 6.68 349.343 6.54133 349.023 6.264C348.724 5.96533 348.575 5.592 348.575 5.144V5.016C348.575 4.78133 348.617 4.57867 348.703 4.408C349.001 3.78933 349.503 3.48 350.207 3.48C350.676 3.48 351.06 3.64 351.359 3.96C351.679 4.25867 351.839 4.64267 351.839 5.112C351.839 5.58133 351.679 5.96533 351.359 6.264Z" fill="#1E1E1E"/>
<path d="M357.907 24.888C356.435 23.2027 355.699 21.1973 355.699 18.872C355.699 16.5467 356.435 14.5413 357.907 12.856C359.401 11.1707 361.342 10.328 363.731 10.328C365.822 10.328 367.529 10.9253 368.851 12.12C370.174 13.2933 371.006 14.7547 371.347 16.504H369.043C368.702 15.224 368.073 14.2213 367.155 13.496C366.238 12.7493 365.097 12.376 363.731 12.376C362.025 12.376 360.638 12.984 359.571 14.2C358.526 15.416 358.003 16.9733 358.003 18.872C358.003 20.7493 358.526 22.296 359.571 23.512C360.638 24.728 362.025 25.336 363.731 25.336C365.097 25.336 366.238 24.9733 367.155 24.248C368.073 23.5013 368.702 22.488 369.043 21.208H371.347C371.006 22.9573 370.174 24.4293 368.851 25.624C367.529 26.7973 365.822 27.384 363.731 27.384C361.342 27.384 359.401 26.552 357.907 24.888Z" fill="#1E1E1E"/>
<path d="M389.789 19.512H376.253C376.359 21.2187 376.935 22.616 377.981 23.704C379.026 24.792 380.381 25.336 382.045 25.336C383.261 25.336 384.327 25.0267 385.245 24.408C386.162 23.768 386.802 22.936 387.165 21.912H389.533C389.042 23.5333 388.135 24.856 386.813 25.88C385.49 26.8827 383.89 27.384 382.013 27.384C379.538 27.384 377.575 26.5627 376.125 24.92C374.695 23.256 373.981 21.2293 373.981 18.84C373.981 16.4933 374.717 14.488 376.189 12.824C377.682 11.16 379.613 10.328 381.981 10.328C384.349 10.328 386.247 11.128 387.677 12.728C389.106 14.3067 389.821 16.28 389.821 18.648L389.789 19.512ZM381.981 12.376C380.445 12.376 379.165 12.8773 378.141 13.88C377.117 14.8613 376.509 16.12 376.317 17.656H387.549C387.399 16.056 386.823 14.776 385.821 13.816C384.839 12.856 383.559 12.376 381.981 12.376Z" fill="#1E1E1E"/>
<path d="M399.381 27.384C397.184 27.384 395.541 26.872 394.453 25.848C393.387 24.8027 392.8 23.4907 392.693 21.912H394.997C395.083 23 395.488 23.8533 396.213 24.472C396.96 25.0907 398.016 25.4 399.381 25.4C400.725 25.4 401.771 25.1547 402.517 24.664C403.285 24.152 403.669 23.48 403.669 22.648C403.669 21.7947 403.317 21.1653 402.613 20.76C401.931 20.3333 401.099 20.0453 400.117 19.896C399.136 19.7467 398.144 19.5653 397.141 19.352C396.16 19.1387 395.317 18.6907 394.613 18.008C393.931 17.3253 393.589 16.3653 393.589 15.128C393.589 13.8053 394.133 12.6747 395.221 11.736C396.309 10.7973 397.781 10.328 399.637 10.328C401.685 10.328 403.2 10.8507 404.181 11.896C405.163 12.9413 405.717 14.136 405.845 15.48H403.573C403.467 14.5413 403.083 13.784 402.421 13.208C401.76 12.6107 400.811 12.312 399.573 12.312C398.357 12.312 397.419 12.568 396.757 13.08C396.117 13.592 395.797 14.2427 395.797 15.032C395.797 15.736 396.043 16.2907 396.533 16.696C397.045 17.1013 397.675 17.368 398.421 17.496C399.168 17.6027 399.968 17.752 400.821 17.944C401.696 18.136 402.507 18.3493 403.253 18.584C404 18.8187 404.619 19.2773 405.109 19.96C405.621 20.6427 405.877 21.5173 405.877 22.584C405.877 23.9067 405.312 25.0373 404.181 25.976C403.072 26.9147 401.472 27.384 399.381 27.384Z" fill="#1E1E1E"/>
<path fill-rule="evenodd" clip-rule="evenodd" d="M12.96 2.16006C12.96 0.967126 13.927 6.10352e-05 15.12 6.10352e-05C23.0729 6.10352e-05 29.52 6.44716 29.52 14.4001C29.52 15.593 28.5529 16.5601 27.36 16.5601C26.167 16.5601 25.2 15.593 25.2 14.4001C25.2 8.83303 20.687 4.32006 15.12 4.32006C13.927 4.32006 12.96 3.353 12.96 2.16006Z" fill="#1E1E1E"/>
<path fill-rule="evenodd" clip-rule="evenodd" d="M23.04 33.84C23.04 35.0329 22.073 36 20.88 36C12.9271 36 6.48004 29.5529 6.48004 21.6C6.48004 20.4071 7.44711 19.44 8.64004 19.44C9.83298 19.44 10.8 20.4071 10.8 21.6C10.8 27.167 15.313 31.68 20.88 31.68C22.073 31.68 23.04 32.6471 23.04 33.84Z" fill="#1E1E1E"/>
<path fill-rule="evenodd" clip-rule="evenodd" d="M2.16 23.04C0.967065 23.04 -4.22718e-08 22.073 -9.44167e-08 20.88C-4.42049e-07 12.9271 6.4471 6.48004 14.4 6.48004C15.5929 6.48004 16.56 7.4471 16.56 8.64004C16.56 9.83297 15.5929 10.8 14.4 10.8C8.83297 10.8 4.32 15.313 4.32 20.88C4.32 22.073 3.35294 23.04 2.16 23.04Z" fill="#1E1E1E"/>
<path fill-rule="evenodd" clip-rule="evenodd" d="M33.84 12.96C35.0329 12.96 36 13.9271 36 15.12C36 23.0729 29.5529 29.52 21.6 29.52C20.4071 29.52 19.44 28.553 19.44 27.36C19.44 26.1671 20.4071 25.2 21.6 25.2C27.167 25.2 31.68 20.6871 31.68 15.12C31.68 13.9271 32.6471 12.96 33.84 12.96Z" fill="#1E1E1E"/>
</svg>