<?xml version="1.0" encoding="UTF-8"?>
<svg width="128px" height="128px" viewBox="0 0 128 128" version="1.1" xmlns="http://www.w3.org/2000/svg" xmlns:xlink="http://www.w3.org/1999/xlink">
    <!-- Generator: Sketch 55 (78076) - https://sketchapp.com -->
    <title>iOS</title>
    <desc>Created with Sketch.</desc>
    <g id="Page-1" stroke="none" stroke-width="1" fill="none" fill-rule="evenodd">
        <g id="Artboard" transform="translate(-580.000000, -143.000000)" fill="#333333" fill-rule="nonzero">
            <g id="iOS" transform="translate(580.000000, 143.000000)">
                <path d="M125.44,17.04 C124.24,13.88 121.36,9.44 117.28,6.28 C114.88,4.48 112.16,2.72 108.32,1.6 C104.16,0.4 99.04,0 92.8,0 L35.2,0 C28.92,0 23.84,0.4 19.72,1.64 C15.88,2.8 13.04,4.52 10.72,6.32 C6.64,9.44 3.76,13.92 2.52,17.08 C0.04,23.44 0,30.64 0,35.2 L0,92.8 C0,97.36 0.04,104.56 2.52,110.96 C3.76,114.12 6.64,118.56 10.72,121.72 C13.08,123.52 15.88,125.28 19.72,126.4 C23.84,127.6 28.92,128 35.2,128 L92.8,128 C99.08,128 104.16,127.6 108.28,126.36 C112.12,125.2 114.96,123.48 117.28,121.68 C121.36,118.56 124.24,114.08 125.48,110.92 C128,104.56 128,97.32 128,92.76 L128,35.16 C128,30.6 127.96,23.4 125.48,17 L125.44,17.04 Z M25.36,88 L20.6,88 L20.6,59.56 L25.36,59.56 L25.36,88 Z M23,54.76 C21.4,54.76 20.04,53.44 20.04,51.8 C20.04,50.16 21.36,48.84 23,48.84 C24.64,48.84 26,50.16 26,51.8 C25.96,53.44 24.64,54.76 23,54.76 Z M51.6,88.72 C39.04,88.72 31.12,79.76 31.12,65.48 C31.12,51.2 39.04,42.2 51.6,42.2 C64.16,42.2 72.08,51.2 72.08,65.48 C72.08,79.76 64.16,88.72 51.6,88.72 L51.6,88.72 Z M93.04,88.72 C83.6,88.72 76.96,83.52 76.52,75.76 L80.8,75.76 C81.28,81.16 86.36,84.84 93.44,84.84 C100.2,84.84 105.04,81.16 105.04,76.08 C105.04,71.88 102.12,69.36 95.44,67.68 L89.84,66.24 C81.48,64.12 77.76,60.6 77.76,54.64 C77.76,47.36 84.32,42.16 93.2,42.16 C102,42.16 108.4,47.36 108.68,54.52 L104.4,54.52 C104,49.44 99.48,46.04 93.08,46.04 C86.84,46.04 82.2,49.52 82.2,54.48 C82.2,58.36 85,60.64 91.64,62.32 L96.52,63.56 C105.6,65.84 109.4,69.32 109.4,75.6 C109.4,83.52 103.04,88.72 93.04,88.72 L93.04,88.72 Z M67.72,65.48 C67.72,77.28 61.48,84.76 51.6,84.76 C41.72,84.76 35.52,77.28 35.52,65.48 C35.52,53.64 41.72,46.16 51.6,46.16 C61.48,46.16 67.72,53.64 67.72,65.48 Z" id="Shape"></path>
            </g>
        </g>
    </g>
</svg>