<?xml version="1.0" encoding="UTF-8"?>
<svg width="128px" height="128px" viewBox="0 0 128 128" version="1.1" xmlns="http://www.w3.org/2000/svg" xmlns:xlink="http://www.w3.org/1999/xlink">
    <!-- Generator: Sketch 55 (78076) - https://sketchapp.com -->
    <title>js</title>
    <desc>Created with Sketch.</desc>
    <g id="Page-1" stroke="none" stroke-width="1" fill="none" fill-rule="evenodd">
        <g id="Artboard" transform="translate(-288.000000, -144.000000)" fill="#333333" fill-rule="nonzero">
            <g id="js" transform="translate(288.000000, 144.000000)">
                <path d="M0,0 L0,128 L128,128 L128,0 L0,0 Z M67.705856,109.069312 C65.816576,112.908288 62.210048,115.4304 58.031104,116.647936 C51.6096,118.122496 45.467648,117.281792 40.89856,114.53952 C37.840896,112.663552 35.452928,109.775872 33.831936,106.448896 L43.580416,100.478976 C43.665408,100.514816 43.921408,100.977664 44.263424,101.57568 C45.50656,103.658496 46.578688,105.133056 48.68608,106.16832 C50.756608,106.87488 55.302144,107.326464 57.05728,103.683072 C58.129408,101.829632 57.788416,95.872 57.788416,89.280512 C57.787392,78.922752 57.83552,68.608 57.83552,58.368 L69.825536,58.368 C69.825536,69.632 69.886976,80.300032 69.825536,91.291648 C69.851136,98.029568 70.43584,104.036352 67.705856,109.069312 Z M117.445632,105.68192 C113.277952,119.938048 90.041344,120.400896 80.755712,110.982144 C78.793728,108.765184 77.563904,107.60704 76.393472,105.048064 C81.328128,102.209536 81.328128,102.209536 86.129664,99.431424 C88.737792,103.440384 91.149312,105.645056 95.488,106.5472 C101.373952,107.266048 107.295744,105.243648 105.967616,98.992128 C104.602624,93.886464 93.915136,92.644352 86.641664,87.184384 C79.2576,82.225152 77.52704,70.17472 83.595264,63.289344 C85.617664,60.742656 89.066496,58.842112 92.685312,57.928704 L96.461824,57.440256 C103.712768,57.293824 108.244992,59.208704 111.571968,62.923776 C112.497664,63.86176 113.253376,64.873472 114.666496,67.065856 C110.803968,69.527552 110.816256,69.504 105.283584,73.085952 C104.101888,70.540288 102.140928,68.942848 100.068352,68.248576 C96.850944,67.273728 92.793856,68.333568 91.952128,71.733248 C91.660288,72.7808 91.720704,73.755648 92.184576,75.486208 C93.488128,78.45888 97.862656,79.751168 101.786624,81.554432 C113.082368,86.135808 116.896768,91.047936 117.834752,96.894976 C118.73792,101.92896 117.61664,105.194496 117.445632,105.68192 L117.445632,105.68192 Z" id="Shape"></path>
            </g>
        </g>
    </g>
</svg>