<svg width="339" height="112" viewBox="0 0 339 112" fill="none" xmlns="http://www.w3.org/2000/svg">
<path fill-rule="evenodd" clip-rule="evenodd" d="M56 112C86.9279 112 112 86.9279 112 56C112 25.0721 86.9279 0 56 0C25.0721 0 0 25.0721 0 56C0 86.9279 25.0721 112 56 112Z" fill="#7E69FF"/>
<path fill-rule="evenodd" clip-rule="evenodd" d="M45.7615 26.093C45.7615 23.8325 47.5977 22.0001 49.8629 22.0001C65.2154 22.0001 77.6611 34.4199 77.6611 49.7406C77.6611 52.001 75.8248 53.8335 73.5597 53.8335C71.2945 53.8335 69.4583 52.001 69.4583 49.7406C69.4583 38.9408 60.6851 30.1859 49.8629 30.1859C47.5977 30.1859 45.7615 28.3534 45.7615 26.093Z" fill="white"/>
<path fill-rule="evenodd" clip-rule="evenodd" d="M85.8986 45.6477C88.1637 45.6477 89.9999 47.4802 89.9999 49.7406C89.9999 65.0612 77.5543 77.4811 62.2017 77.4811C59.9366 77.4811 58.1003 75.6487 58.1003 73.3882C58.1003 71.1278 59.9366 69.2953 62.2017 69.2953C73.024 69.2953 81.7972 60.5404 81.7972 49.7406C81.7972 47.4802 83.6334 45.6477 85.8986 45.6477Z" fill="white"/>
<path fill-rule="evenodd" clip-rule="evenodd" d="M66.3031 85.907C66.3031 88.1675 64.4668 89.9999 62.2017 89.9999C46.8492 89.9999 34.4035 77.58 34.4035 62.2594C34.4035 59.9989 36.2398 58.1665 38.5049 58.1665C40.77 58.1665 42.6063 59.9989 42.6063 62.2594C42.6063 73.0592 51.3795 81.8141 62.2017 81.8141C64.4668 81.8141 66.3031 83.6466 66.3031 85.907Z" fill="white"/>
<path fill-rule="evenodd" clip-rule="evenodd" d="M26.1014 66.3523C23.8363 66.3523 22.0001 64.5199 22.0001 62.2594C22 46.9388 34.4457 34.5189 49.7983 34.5189C52.0634 34.5189 53.8997 36.3513 53.8997 38.6118C53.8997 40.8722 52.0634 42.7047 49.7983 42.7047C38.976 42.7047 30.2028 51.4596 30.2028 62.2594C30.2028 64.5199 28.3666 66.3523 26.1014 66.3523Z" fill="white"/>
<path d="M197 63.5H157.5C157.967 67.6333 159.467 70.9333 162 73.4C164.533 75.8 167.867 77 172 77C174.733 77 177.2 76.3333 179.4 75C181.6 73.6667 183.167 71.8667 184.1 69.6H196.1C194.5 74.8667 191.5 79.1333 187.1 82.4C182.767 85.6 177.633 87.2 171.7 87.2C163.967 87.2 157.7 84.6333 152.9 79.5C148.167 74.3667 145.8 67.8667 145.8 60C145.8 52.3333 148.2 45.9 153 40.7C157.8 35.5 164 32.9 171.6 32.9C179.2 32.9 185.333 35.4667 190 40.6C194.733 45.6667 197.1 52.0667 197.1 59.8L197 63.5ZM171.6 42.6C167.867 42.6 164.767 43.7 162.3 45.9C159.833 48.1 158.3 51.0333 157.7 54.7H185.3C184.767 51.0333 183.3 48.1 180.9 45.9C178.5 43.7 175.4 42.6 171.6 42.6ZM250.689 56.2V86H238.789V54.9C238.789 47.0333 235.522 43.1 228.989 43.1C225.456 43.1 222.622 44.2333 220.489 46.5C218.422 48.7667 217.389 51.8667 217.389 55.8V86H205.489V34.1H216.489V41C217.756 38.6667 219.689 36.7333 222.289 35.2C224.889 33.6667 228.122 32.9 231.989 32.9C239.189 32.9 244.389 35.6333 247.589 41.1C251.989 35.6333 257.856 32.9 265.189 32.9C271.256 32.9 275.922 34.8 279.189 38.6C282.456 42.3333 284.089 47.2667 284.089 53.4V86H272.189V54.9C272.189 47.0333 268.922 43.1 262.389 43.1C258.789 43.1 255.922 44.2667 253.789 46.6C251.722 48.8667 250.689 52.0667 250.689 56.2ZM313.27 87.2C306.136 87.2 300.77 85.5333 297.17 82.2C293.57 78.8667 291.603 74.6 291.27 69.4H302.77C302.903 71.8 303.936 73.7333 305.87 75.2C307.803 76.6667 310.503 77.4 313.97 77.4C317.036 77.4 319.403 76.8667 321.07 75.8C322.736 74.7333 323.57 73.3 323.57 71.5C323.57 69.5 322.536 68.0333 320.47 67.1C318.47 66.1 316.003 65.3667 313.07 64.9C310.136 64.4333 307.203 63.8333 304.27 63.1C301.336 62.3 298.836 60.7667 296.77 58.5C294.77 56.2333 293.77 53.1333 293.77 49.2C293.77 44.6667 295.636 40.8333 299.37 37.7C303.17 34.5 308.17 32.9 314.37 32.9C317.903 32.9 321.003 33.4667 323.67 34.6C326.403 35.6667 328.503 37.1 329.97 38.9C331.503 40.7 332.636 42.5333 333.37 44.4C334.17 46.2667 334.636 48.1667 334.77 50.1H323.37C323.17 48.0333 322.27 46.2667 320.67 44.8C319.136 43.3333 316.936 42.6 314.07 42.6C311.203 42.6 309.003 43.1667 307.47 44.3C305.936 45.3667 305.17 46.8667 305.17 48.8C305.17 50.6 306.17 51.9667 308.17 52.9C310.236 53.8333 312.736 54.5333 315.67 55C318.603 55.4667 321.536 56.1333 324.47 57C327.403 57.8 329.87 59.3667 331.87 61.7C333.936 64.0333 334.97 67.1333 334.97 71C334.97 75.6667 333.07 79.5333 329.27 82.6C325.536 85.6667 320.203 87.2 313.27 87.2Z" fill="black"/>
</svg>