<?xml version="1.0" encoding="utf-8"?>
<!-- Generator: Adobe Illustrator 16.0.0, SVG Export Plug-In . SVG Version: 6.00 Build 0)  -->
<!DOCTYPE svg PUBLIC "-//W3C//DTD SVG 1.1//EN" "http://www.w3.org/Graphics/SVG/1.1/DTD/svg11.dtd">
<svg version="1.1" id="Layer_1" xmlns="http://www.w3.org/2000/svg" xmlns:xlink="http://www.w3.org/1999/xlink" x="0px" y="0px"
	 width="64px" height="64px" viewBox="0 0 64 64" enable-background="new 0 0 64 64" xml:space="preserve">
<g>
	<path d="M26,21v22l1.809,0.786l14.191-11v-1.572l-14.191-11L26,21z M28,23.058L39.381,32L28,40.942V23.058z"/>
	<path d="M32,0c-8.547,0-16.583,3.33-22.626,9.375C3.329,15.417,0,23.453,0,32s3.329,16.583,9.374,22.626
		C15.417,60.671,23.453,64,32,64s16.583-3.33,22.627-9.375C60.671,48.583,64,40.547,64,32s-3.329-16.583-9.374-22.626
		C48.583,3.329,40.547,0,32,0z M53.213,53.212C47.546,58.879,40.013,62,32,62c-8.013,0-15.546-3.121-21.212-8.789
		C5.121,47.546,2,40.013,2,32s3.121-15.546,8.788-21.212C16.454,5.121,23.987,2,32,2c8.013,0,15.546,3.122,21.213,8.789
		C58.88,16.454,62,23.987,62,32S58.88,47.546,53.213,53.212z"/>
</g>
</svg>
