<?xml version="1.0" encoding="UTF-8"?>
<svg width="256px" height="256px" viewBox="0 0 256 256" version="1.1" xmlns="http://www.w3.org/2000/svg" xmlns:xlink="http://www.w3.org/1999/xlink">
    <!-- Generator: Sketch 55 (78076) - https://sketchapp.com -->
    <title>omisego</title>
    <desc>Created with Sketch.</desc>
    <g id="Page-1" stroke="none" stroke-width="1" fill="none" fill-rule="evenodd">
        <g id="Artboard" transform="translate(-1326.000000, -629.000000)" fill-rule="nonzero">
            <g id="omisego" transform="translate(1326.000000, 629.000000)">
                <circle id="Oval" fill="#1A53F0" cx="128" cy="128" r="128"></circle>
                <path d="M102.8096,145.33632 C86.46272,145.33632 73.21088,158.62656 73.21088,175.0208 C73.21088,191.41504 86.464,204.70528 102.81088,204.70528 C119.15776,204.70528 132.41088,191.41504 132.41088,175.0208 C132.41088,158.62656 119.15904,145.33632 102.81088,145.33632 L102.8096,145.33632 Z M102.8096,195.72608 C91.4176,195.72608 82.17472,186.46144 82.17472,175.03104 C82.17472,163.60064 91.41376,154.336 102.8096,154.336 C114.20544,154.336 123.44576,163.60064 123.44576,175.03104 C123.42656,186.4512 114.19904,195.712 102.8096,195.72608 Z M166.02368,82.016 C149.6768,82.016 136.42368,95.30624 136.42368,111.70048 C136.42368,128.09472 149.6768,141.38496 166.02368,141.38496 C182.37056,141.38496 195.62368,128.09472 195.62368,111.70048 C195.62368,95.30624 182.37312,82.01472 166.02496,82.01472 L166.02368,82.016 Z M166.02368,132.40576 C154.63168,132.40576 145.3888,123.14112 145.3888,111.71072 C145.3888,100.28032 154.624,91.01568 166.02496,91.01568 C177.42592,91.01568 186.66112,100.28032 186.66112,111.71072 C186.64192,123.136 177.408,132.38528 166.02496,132.40448 L166.02368,132.40576 Z M102.8096,82.01472 C88.71808,82.00576 76.5696,91.95904 73.76896,105.80992 C70.96832,119.6608 78.28864,133.57184 91.264,139.072 C104.277641,144.538066 119.340598,140.082164 127.286198,128.415966 C135.231798,116.749768 133.861395,101.101454 124.00896,90.99392 L132.40192,90.99392 L132.40192,82.01472 L102.8096,82.01472 Z M123.44704,111.6992 C123.44704,123.12832 114.208,132.39424 102.81088,132.39424 C91.41376,132.39424 82.176,123.12832 82.176,111.6992 C82.176,100.27008 91.41376,91.008 102.8096,91.008 C114.20544,91.008 123.4368,100.27648 123.45728,111.70304 L123.44704,111.70304 L123.44704,111.6992 Z" id="Shape" fill="#FFFFFF"></path>
            </g>
        </g>
    </g>
</svg>