<?xml version="1.0" encoding="UTF-8" standalone="no"?>
<!-- Created with Inkscape (http://www.inkscape.org/) -->

<svg
   width="1053.0649"
   height="192"
   viewBox="0 0 278.62343 50.800001"
   version="1.1"
   id="svg5"
   inkscape:version="1.1.1 (3bf5ae0d25, 2021-09-20)"
   sodipodi:docname="ossrox-new.svg"
   xmlns:inkscape="http://www.inkscape.org/namespaces/inkscape"
   xmlns:sodipodi="http://sodipodi.sourceforge.net/DTD/sodipodi-0.dtd"
   xmlns="http://www.w3.org/2000/svg"
   xmlns:svg="http://www.w3.org/2000/svg">
  <sodipodi:namedview
     id="namedview7"
     pagecolor="#505050"
     bordercolor="#ffffff"
     borderopacity="1"
     inkscape:pageshadow="0"
     inkscape:pageopacity="0"
     inkscape:pagecheckerboard="1"
     inkscape:document-units="mm"
     showgrid="false"
     inkscape:zoom="0.60399831"
     inkscape:cx="679.63766"
     inkscape:cy="182.11971"
     inkscape:window-width="1920"
     inkscape:window-height="1131"
     inkscape:window-x="0"
     inkscape:window-y="0"
     inkscape:window-maximized="1"
     inkscape:current-layer="text1640"
     units="px" />
  <defs
     id="defs2" />
  <g
     inkscape:label="Ebene 1"
     inkscape:groupmode="layer"
     id="layer1">
    <g
       aria-label="Ossrox"
       id="text1640"
       style="font-size:10.5833px;line-height:1.25;font-family:Orbitron;-inkscape-font-specification:'Orbitron, Normal';stroke-width:0.264583">
      <path
         d="m 8.4666724,50.800034 q -2.3283349,0 -4.3038918,-1.12889 Q 2.2577793,48.542254 1.1288896,46.637253 0,44.661696 0,42.333361 V 8.4666718 Q 0,6.1383369 1.1288896,4.2333356 2.2577793,2.2577787 4.1627806,1.128889 6.1383375,-6.1035156e-7 8.4666724,-6.1035156e-7 H 42.333362 q 2.328335,0 4.233336,1.12888961035156 1.975557,1.1288897 3.104447,3.1044466 1.128889,1.9050013 1.128889,4.2333362 V 42.333361 q 0,2.328335 -1.128889,4.303892 -1.12889,1.905001 -3.104447,3.033891 -1.905001,1.12889 -4.233336,1.12889 z m 0,-5.715004 H 42.333362 q 1.128889,0 1.905001,-0.776112 0.846667,-0.846667 0.846667,-1.975557 V 8.4666718 q 0,-1.1288897 -0.846667,-1.9050013 Q 43.462251,5.7150032 42.333362,5.7150032 H 8.4666724 q -1.1288897,0 -1.9755569,0.8466673 Q 5.7150038,7.3377821 5.7150038,8.4666718 V 42.333361 q 0,1.12889 0.7761117,1.975557 0.8466672,0.776112 1.9755569,0.776112 z"
         style="font-size:70.5556px;fill:#006269;fill-opacity:1"
         id="path25504" />
      <path
         d="m 66.53387,50.800034 q -2.328335,0 -4.303892,-1.12889 -1.905001,-1.199445 -3.104447,-3.104447 -1.128889,-1.975556 -1.128889,-4.303891 v -0.564445 h 5.785559 v 0.564445 q 0,1.128889 0.776112,1.975556 0.846667,0.776112 1.975557,0.776112 h 24.553349 q 1.12889,0 1.905002,-0.776112 0.846667,-0.846667 0.846667,-1.975556 v -6.279449 q 0,-1.12889 -0.846667,-1.905001 -0.776112,-0.846668 -1.905002,-0.846668 H 66.53387 q -2.328335,0 -4.303892,-1.128889 -1.905001,-1.199445 -3.104447,-3.104447 -1.128889,-1.975557 -1.128889,-4.303892 v -6.279448 q 0,-2.328335 1.128889,-4.233336 1.199446,-1.975557 3.104447,-3.104447 1.975557,-1.1994452 4.303892,-1.1994452 h 24.553349 q 2.398891,0 4.303892,1.1994452 1.975557,1.12889 3.104447,3.104447 1.199445,1.905001 1.199445,4.233336 v 0.564445 h -5.856115 v -0.564445 q 0,-1.12889 -0.846667,-1.905002 -0.776112,-0.846667 -1.905002,-0.846667 H 66.53387 q -1.12889,0 -1.975557,0.846667 -0.776112,0.776112 -0.776112,1.905002 v 6.279448 q 0,1.12889 0.776112,1.975557 0.846667,0.776112 1.975557,0.776112 h 24.553349 q 2.398891,0 4.303892,1.199445 1.975557,1.12889 3.104447,3.104447 1.199445,1.905001 1.199445,4.233336 v 6.279449 q 0,2.328335 -1.199445,4.303891 -1.12889,1.905002 -3.104447,3.104447 -1.905001,1.12889 -4.303892,1.12889 H 66.53387 Z"
         style="font-size:70.5556px;fill:#006269;fill-opacity:1"
         id="path25506" />
      <path
         d="m 114.93494,50.800034 q -2.32834,0 -4.30389,-1.12889 -1.905,-1.199445 -3.10445,-3.104447 -1.12889,-1.975556 -1.12889,-4.303891 v -0.564445 h 5.78556 v 0.564445 q 0,1.128889 0.77611,1.975556 0.84667,0.776112 1.97556,0.776112 h 24.55335 q 1.12889,0 1.905,-0.776112 0.84667,-0.846667 0.84667,-1.975556 v -6.279449 q 0,-1.12889 -0.84667,-1.905001 -0.77611,-0.846668 -1.905,-0.846668 h -24.55335 q -2.32834,0 -4.30389,-1.128889 -1.905,-1.199445 -3.10445,-3.104447 -1.12889,-1.975557 -1.12889,-4.303892 v -6.279448 q 0,-2.328335 1.12889,-4.233336 1.19945,-1.975557 3.10445,-3.104447 1.97555,-1.1994452 4.30389,-1.1994452 h 24.55335 q 2.39889,0 4.30389,1.1994452 1.97556,1.12889 3.10445,3.104447 1.19944,1.905001 1.19944,4.233336 v 0.564445 h -5.85611 v -0.564445 q 0,-1.12889 -0.84667,-1.905002 -0.77611,-0.846667 -1.905,-0.846667 h -24.55335 q -1.12889,0 -1.97556,0.846667 -0.77611,0.776112 -0.77611,1.905002 v 6.279448 q 0,1.12889 0.77611,1.975557 0.84667,0.776112 1.97556,0.776112 h 24.55335 q 2.39889,0 4.30389,1.199445 1.97556,1.12889 3.10445,3.104447 1.19944,1.905001 1.19944,4.233336 v 6.279449 q 0,2.328335 -1.19944,4.303891 -1.12889,1.905002 -3.10445,3.104447 -1.905,1.12889 -4.30389,1.12889 h -24.55335 z"
         style="font-size:70.5556px;fill:#006269;fill-opacity:1"
         id="path25508" />
      <path
         d="m 155.081,50.800034 v 0 -32.385022 q 0,-2.328335 1.12889,-4.233336 1.19944,-1.975557 3.10444,-3.104447 1.97556,-1.1994452 4.30389,-1.1994452 h 23.00113 v 5.7855592 h -23.00113 q -1.12889,0 -1.97555,0.846667 -0.77611,0.776112 -0.77611,1.905002 v 32.385022 z"
         style="font-size:70.5556px;fill:#006269;fill-opacity:1"
         id="path25510" />
      <path
         d="m 199.31921,50.800034 q -2.32833,0 -4.30389,-1.12889 -1.905,-1.199445 -3.10444,-3.104447 -1.12889,-1.975556 -1.12889,-4.303891 V 18.415012 q 0,-2.328335 1.12889,-4.233336 1.19944,-1.975557 3.10444,-3.104447 1.97556,-1.1994452 4.30389,-1.1994452 h 24.55335 q 2.39889,0 4.3039,1.1994452 1.97555,1.12889 3.10444,3.104447 1.19945,1.905001 1.19945,4.233336 v 23.847794 q 0,2.328335 -1.19945,4.303891 -1.12889,1.905002 -3.10444,3.104447 -1.90501,1.12889 -4.3039,1.12889 h -24.55335 z m 0,-5.78556 h 24.55335 q 1.12889,0 1.905,-0.776112 0.84667,-0.846667 0.84667,-1.975556 V 18.415012 q 0,-1.12889 -0.84667,-1.905002 -0.77611,-0.846667 -1.905,-0.846667 h -24.55335 q -1.12889,0 -1.97555,0.846667 -0.77612,0.776112 -0.77612,1.905002 v 23.847794 q 0,1.128889 0.77612,1.975556 0.84666,0.776112 1.97555,0.776112 z"
         style="font-size:70.5556px;fill:#006269;fill-opacity:1"
         id="path25512" />
      <path
         d="m 236.78408,50.800034 v 0 -0.07056 L 253.85854,29.986131 236.78408,9.9483394 v -0.070556 h 7.62001 L 257.66854,25.400016 271.00355,9.8777838 h 7.54945 v 0.070556 l -17.07446,20.0377916 17.14501,20.743347 v 0.07056 h -7.62 l -13.33501,-16.3689 -13.26445,16.3689 z"
         style="font-size:70.5556px;fill:#006269;fill-opacity:1"
         id="path25514" />
    </g>
  </g>
</svg>
