<svg version="1.1" viewBox="0 0 23 23" xmlns="http://www.w3.org/2000/svg">
 <title>zamphyr</title>
 <path d="M22.29,12.126A10.212,10.212,0,0,1,12.01,22.265,10.212,10.212,0,0,1,1.724,12.132,10.212,10.212,0,0,1,12,1.987,10.212,10.212,0,0,1,22.29,12.114" fill="#fff"/>
 <path d="m11.5 0a11.5 11.5 0 0 0 -11.5 11.5 11.5 11.5 0 1 0 11.5 -11.5zm0 3.946a1.92 1.92 0 0 1 1.193 0.4 1.783 1.783 0 0 1 0.6 0.7 2.017 2.017 0 0 1 -0.845 2.661c-0.526 0.225-0.857 0.2-1.094 0.323a2.106 2.106 0 0 0 -0.945 1.045 1.72 1.72 0 0 0 0.522 2.188 5.155 5.155 0 0 0 0.488 0.342v-6e-3 5e-3a5.456 5.456 0 0 1 0.26 -1.276c0.442-1.426 2.851-2.928 4.793-2.629a3.13 3.13 0 0 1 1.9 1.005 1.873 1.873 0 0 1 0.347 1.874 1.789 1.789 0 0 1 -0.478 0.783 2.017 2.017 0 0 1 -2.792 0.018c-0.375-0.431-0.454-0.753-0.645-0.941a2.108 2.108 0 0 0 -1.286 -0.576 1.72 1.72 0 0 0 -1.92 1.173 5.178 5.178 0 0 0 -0.175 0.571l7e-3 -6e-3 -5e-3 5e-3a5.46 5.46 0 0 1 1.294 -0.148c1.493-0.02 3.666 1.806 3.982 3.746a3.136 3.136 0 0 1 -0.37 2.115 1.878 1.878 0 0 1 -1.674 0.909 1.807 1.807 0 0 1 -0.893 -0.213 2.015 2.015 0 0 1 -0.879 -2.649c0.293-0.49 0.576-0.666 0.695-0.906a2.1 2.1 0 0 0 0.151 -1.4 1.719 1.719 0 0 0 -1.709 -1.464 5.18 5.18 0 0 0 -0.6 0.01l7e-3 5e-3h-7e-3a5.471 5.471 0 0 1 0.541 1.187c0.48 1.412-0.584 4.044-2.332 4.944a3.135 3.135 0 0 1 -2.125 0.3 1.876 1.876 0 0 1 -1.384 -1.319 1.792 1.792 0 0 1 -0.074 -0.914 2.017 2.017 0 0 1 2.244 -1.656c0.557 0.128 0.811 0.342 1.075 0.381a2.1 2.1 0 0 0 1.378 -0.29 1.719 1.719 0 0 0 0.864 -2.077 5.225 5.225 0 0 0 -0.195 -0.566v7e-3 -6e-3a5.444 5.444 0 0 1 -0.959 0.879c-1.2 0.893-4.027 0.694-5.424-0.69a3.132 3.132 0 0 1 -0.939 -1.926 1.876 1.876 0 0 1 0.821 -1.721 1.793 1.793 0 0 1 0.847 -0.352 2.017 2.017 0 0 1 2.269 1.626c0.051 0.569-0.075 0.877-0.031 1.141a2.106 2.106 0 0 0 0.7 1.221 1.72 1.72 0 0 0 2.243 0.18 5.146 5.146 0 0 0 0.476 -0.359 5.506 5.506 0 0 1 -1.134 -0.641c-1.219-0.862-1.9-3.616-1.019-5.371a3.135 3.135 0 0 1 1.541 -1.492 1.921 1.921 0 0 1 0.7 -0.149zm-0.085 7.654z" fill="#63c"/>
</svg>