<?xml version="1.0" encoding="utf-8"?>
<!-- Generator: Adobe Illustrator 19.1.0, SVG Export Plug-In . SVG Version: 6.00 Build 0)  -->
<svg version="1.1" id="Layer_1" xmlns:sketch="http://www.bohemiancoding.com/sketch/ns"
	 xmlns="http://www.w3.org/2000/svg" xmlns:xlink="http://www.w3.org/1999/xlink" x="0px" y="0px" viewBox="104 -14 255 80"
	 xml:space="preserve">
<style type="text/css">
	.st0{fill:none;}
	.st1{fill:none;stroke:#EBEBEB;stroke-width:20;}
	.st2{fill:#FFFFFF;}
</style>
<title>Integration@2x</title>
<desc>Created with sketchtool.</desc>
<g>
	<path class="st2" d="M152.1-9.1v66.1h4.8v1.6h-6.6v-69.3h6.6v1.6H152.1z"/>
	<path class="st2" d="M170.5,11.9v3.3h0.1c0.9-1.3,2-2.3,3.2-3c1.3-0.7,2.7-1.1,4.3-1.1c1.6,0,3,0.3,4.3,0.9
		c1.3,0.6,2.3,1.7,2.9,3.2c0.7-1.1,1.7-2,3-2.9c1.3-0.8,2.7-1.2,4.5-1.2c1.3,0,2.5,0.2,3.6,0.5c1.1,0.3,2.1,0.8,2.9,1.5
		c0.8,0.7,1.4,1.6,1.9,2.7c0.4,1.1,0.7,2.5,0.7,4.1v16.5H195v-14c0-0.8,0-1.6-0.1-2.3c-0.1-0.7-0.2-1.4-0.5-1.9
		c-0.3-0.5-0.7-1-1.3-1.3c-0.6-0.3-1.3-0.5-2.3-0.5c-1,0-1.7,0.2-2.3,0.5c-0.6,0.4-1.1,0.8-1.4,1.4c-0.3,0.6-0.6,1.3-0.7,2
		c-0.1,0.7-0.2,1.5-0.2,2.3v13.8h-6.8V22.8c0-0.7,0-1.5,0-2.2c0-0.7-0.2-1.4-0.4-2c-0.2-0.6-0.6-1.1-1.2-1.5
		c-0.6-0.4-1.4-0.5-2.5-0.5c-0.3,0-0.7,0.1-1.3,0.2c-0.5,0.1-1,0.4-1.5,0.8c-0.5,0.4-0.9,1-1.3,1.7c-0.4,0.7-0.5,1.7-0.5,2.9v14.3
		h-6.8V11.9H170.5z"/>
	<path class="st2" d="M206.2,15.5c0.7-1.1,1.6-1.9,2.7-2.5c1.1-0.6,2.3-1.1,3.7-1.4c1.4-0.3,2.7-0.4,4.1-0.4c1.2,0,2.5,0.1,3.8,0.3
		c1.3,0.2,2.4,0.5,3.5,1c1.1,0.5,1.9,1.2,2.6,2.1c0.7,0.9,1,2.1,1,3.6v12.9c0,1.1,0.1,2.2,0.2,3.2c0.1,1,0.3,1.8,0.7,2.3h-6.9
		c-0.1-0.4-0.2-0.8-0.3-1.2c-0.1-0.4-0.1-0.8-0.2-1.2c-1.1,1.1-2.4,1.9-3.8,2.3c-1.5,0.4-3,0.7-4.5,0.7c-1.2,0-2.3-0.1-3.3-0.4
		c-1-0.3-1.9-0.7-2.7-1.3c-0.8-0.6-1.4-1.4-1.8-2.3c-0.4-0.9-0.6-2-0.6-3.3c0-1.4,0.2-2.6,0.7-3.5c0.5-0.9,1.1-1.6,1.9-2.2
		c0.8-0.5,1.7-0.9,2.7-1.2c1-0.3,2-0.5,3-0.6c1-0.2,2-0.3,3-0.4c1-0.1,1.9-0.2,2.6-0.4c0.8-0.2,1.4-0.5,1.8-0.8
		c0.4-0.4,0.7-0.9,0.6-1.6c0-0.7-0.1-1.3-0.4-1.7c-0.2-0.4-0.6-0.8-1-1c-0.4-0.2-0.9-0.4-1.4-0.5c-0.5-0.1-1.1-0.1-1.7-0.1
		c-1.3,0-2.4,0.3-3.2,0.9c-0.8,0.6-1.2,1.5-1.3,2.9H205C205.1,17.9,205.5,16.6,206.2,15.5z M219.6,25.1c-0.4,0.1-0.9,0.3-1.4,0.4
		c-0.5,0.1-1,0.2-1.6,0.2c-0.5,0.1-1.1,0.1-1.6,0.2c-0.5,0.1-1,0.2-1.5,0.4c-0.5,0.2-0.9,0.4-1.3,0.6c-0.4,0.3-0.7,0.6-0.9,1
		c-0.2,0.4-0.3,0.9-0.3,1.6c0,0.6,0.1,1.1,0.3,1.5c0.2,0.4,0.5,0.7,0.9,1c0.4,0.2,0.8,0.4,1.3,0.5c0.5,0.1,1,0.1,1.6,0.1
		c1.3,0,2.4-0.2,3.1-0.7c0.7-0.4,1.3-1,1.6-1.6c0.4-0.6,0.6-1.2,0.6-1.9c0.1-0.6,0.1-1.1,0.1-1.5v-2.5C220.4,24.8,220,25,219.6,25.1
		z"/>
	<path class="st2" d="M245.3,11.9v4.5h-5v12.2c0,1.1,0.2,1.9,0.6,2.3c0.4,0.4,1.1,0.6,2.3,0.6c0.4,0,0.7,0,1.1,0
		c0.4,0,0.7-0.1,1-0.1v5.3c-0.6,0.1-1.2,0.2-1.9,0.2c-0.7,0-1.4,0-2.1,0c-1.1,0-2-0.1-3-0.2c-0.9-0.1-1.8-0.4-2.5-0.8
		c-0.7-0.4-1.3-1-1.7-1.8c-0.4-0.8-0.6-1.8-0.6-3V16.4h-4.1v-4.5h4.1V4.5h6.8v7.4H245.3z"/>
	<path class="st2" d="M255,11.9v4.6h0.1c0.3-0.8,0.7-1.5,1.3-2.1c0.5-0.7,1.2-1.2,1.9-1.7c0.7-0.5,1.4-0.8,2.2-1.1
		c0.8-0.3,1.6-0.4,2.5-0.4c0.4,0,0.9,0.1,1.5,0.2v6.3c-0.3-0.1-0.7-0.1-1.1-0.2c-0.4,0-0.9-0.1-1.3-0.1c-1.2,0-2.3,0.2-3.2,0.6
		c-0.9,0.4-1.6,1-2.1,1.7c-0.5,0.7-0.9,1.6-1.1,2.5c-0.2,1-0.3,2-0.3,3.1v11.1h-6.8V11.9H255z"/>
	<path class="st2" d="M267.4,8.1V2.5h6.8v5.6C274.1,8.1,267.4,8.1,267.4,8.1z M274.1,11.9v24.7h-6.8V11.9H274.1z"/>
	<path class="st2" d="M277.7,11.9h7.7l4.3,6.5l4.3-6.5h7.5l-8.1,11.6l9.1,13.1h-7.7l-5.2-7.8l-5.2,7.8h-7.6l8.9-13L277.7,11.9z"/>
	<path class="st2" d="M310.9,57.1V-9.1h-4.8v-1.6h6.6v69.3h-6.6v-1.6H310.9z"/>
</g>
</svg>
