<svg width="1398" height="1398" viewBox="0 0 1398 1398" fill="none" xmlns="http://www.w3.org/2000/svg">
<path d="M787.933 490C787.933 567.178 757.173 641.195 702.418 695.768C647.664 750.341 573.401 781 495.967 781C418.532 781 344.269 750.341 289.515 695.768C234.761 641.195 204 567.178 204 490C204 412.822 234.761 338.805 289.515 284.232C344.269 229.659 418.532 199 495.967 199C573.401 199 647.664 229.659 702.418 284.232C757.173 338.805 787.933 412.822 787.933 490Z" fill="url(#paint0_linear_1089_14535)"/>
<path d="M1194.83 907.9C1194.83 946.128 1187.28 983.981 1172.6 1019.3C1157.92 1054.62 1136.41 1086.71 1109.29 1113.74C1082.17 1140.77 1049.97 1162.21 1014.54 1176.84C979.101 1191.47 941.121 1199 902.767 1199C825.306 1199 751.017 1168.33 696.244 1113.74C641.471 1059.15 610.7 985.105 610.7 907.9C610.7 830.696 641.471 756.653 696.244 702.061C751.017 647.469 825.306 616.8 902.767 616.8C941.121 616.8 979.101 624.33 1014.54 638.959C1049.97 653.588 1082.17 675.03 1109.29 702.061C1136.41 729.092 1157.92 761.183 1172.6 796.501C1187.28 831.819 1194.83 869.672 1194.83 907.9Z" fill="url(#paint1_linear_1089_14535)"/>
<path opacity="0.05" fill-rule="evenodd" clip-rule="evenodd" d="M205.067 514.9C209.602 569.882 229.624 622.454 262.812 666.524C296.001 710.594 340.998 744.357 392.589 763.902C444.179 783.447 500.253 787.973 554.31 776.956C608.368 765.939 658.198 739.829 698.025 701.653C737.852 663.477 766.047 614.797 779.342 561.254C792.637 507.711 790.488 451.496 773.143 399.124C755.799 346.753 723.97 300.367 681.345 265.343C638.719 230.32 587.041 208.091 532.3 201.233C457.972 226.097 390.076 267.121 333.495 321.357C276.914 375.592 233.053 441.691 205.067 514.9Z" fill="black"/>
<path opacity="0.05" fill-rule="evenodd" clip-rule="evenodd" d="M1194.07 887C1190.25 831.348 1170.58 777.952 1137.37 733.128C1104.17 688.305 1058.82 653.929 1006.69 634.068C954.566 614.207 897.841 609.691 843.228 621.054C788.614 632.417 738.398 659.184 698.519 698.189C658.64 737.194 630.766 786.805 618.195 841.153C605.624 895.501 608.882 952.312 627.583 1004.87C646.284 1057.42 679.646 1103.52 723.722 1137.71C767.799 1171.9 820.746 1192.75 876.3 1197.8C948.597 1172.06 1014.45 1130.93 1069.31 1077.27C1124.17 1023.61 1166.74 958.712 1194.07 887Z" fill="black"/>
<path opacity="0.1" fill-rule="evenodd" clip-rule="evenodd" d="M218.733 581.433C234.069 628.346 261.052 670.603 297.159 704.253C333.266 737.902 377.318 761.844 425.193 773.84C473.069 785.836 523.206 785.493 570.913 772.844C618.621 760.195 662.341 735.653 697.985 701.514C733.628 667.374 760.031 624.752 774.724 577.634C789.417 530.516 791.92 480.441 781.998 432.092C772.077 383.744 750.055 338.702 717.993 301.178C685.93 263.655 644.875 234.876 598.667 217.533C507.606 236.505 423.707 280.677 356.532 345.017C289.358 409.357 241.611 491.275 218.733 581.433Z" fill="black"/>
<path opacity="0.1" fill-rule="evenodd" clip-rule="evenodd" d="M1180.8 818.6C1165.69 771.132 1138.68 728.32 1102.35 694.238C1066.02 660.156 1021.57 635.938 973.239 623.888C924.904 611.838 874.289 612.356 826.211 625.395C778.133 638.433 734.19 663.557 698.566 698.377C662.941 733.196 636.819 776.552 622.685 824.32C608.551 872.088 606.875 922.678 617.817 971.276C628.759 1019.87 651.955 1064.86 685.198 1101.96C718.44 1139.07 760.623 1167.04 807.733 1183.23C897.628 1163.06 980.136 1118.27 1046.02 1053.87C1111.91 989.472 1158.58 908.01 1180.8 818.6Z" fill="black"/>
<path opacity="0.1" fill-rule="evenodd" clip-rule="evenodd" d="M229.467 609.033C248.463 651.838 277.485 689.441 314.078 718.665C350.672 747.889 393.762 767.875 439.708 776.934C485.654 785.994 533.106 783.86 578.053 770.714C623.001 757.568 664.124 733.795 697.947 701.406C731.77 669.016 757.3 628.96 772.379 584.623C787.457 540.286 791.642 492.971 784.579 446.676C777.517 400.381 759.414 356.467 731.801 318.643C704.188 280.819 667.876 250.198 625.933 229.367C528.934 244.465 438.905 288.967 368.005 356.863C297.104 424.76 248.748 512.779 229.467 609.033Z" fill="black"/>
<path opacity="0.1" fill-rule="evenodd" clip-rule="evenodd" d="M1170.03 790.433C1151.13 747.132 1122.01 709.067 1085.15 679.506C1048.29 649.946 1004.81 629.774 958.442 620.725C912.071 611.675 864.196 614.018 818.93 627.552C773.664 641.085 732.36 665.406 698.567 698.423C664.773 731.441 639.5 772.168 624.918 817.108C610.337 862.047 606.882 909.854 614.852 956.423C622.823 1002.99 641.978 1046.93 670.675 1084.46C699.371 1121.99 736.75 1152 779.6 1171.9C875.749 1155.56 964.631 1110.3 1034.39 1042.14C1104.15 973.983 1151.47 886.177 1170.03 790.433Z" fill="black"/>
<path d="M1161.9 701.167C1161.9 761.693 1149.94 821.626 1126.7 877.545C1103.46 933.464 1069.4 984.274 1026.46 1027.07C983.516 1069.87 932.537 1103.82 876.432 1126.98C820.327 1150.15 760.194 1162.07 699.467 1162.07C638.739 1162.07 578.606 1150.15 522.501 1126.98C466.396 1103.82 415.418 1069.87 372.477 1027.07C329.536 984.274 295.473 933.464 272.234 877.545C248.995 821.626 237.033 761.693 237.033 701.167C237.033 640.64 248.995 580.707 272.234 524.788C295.473 468.869 329.536 418.06 372.477 375.261C415.418 332.463 466.396 298.513 522.501 275.351C578.606 252.188 638.739 240.267 699.467 240.267C760.194 240.267 820.327 252.188 876.432 275.351C932.537 298.513 983.516 332.463 1026.46 375.261C1069.4 418.06 1103.46 468.869 1126.7 524.788C1149.94 580.707 1161.9 640.64 1161.9 701.167Z" fill="url(#paint2_linear_1089_14535)"/>
<path fill-rule="evenodd" clip-rule="evenodd" d="M569.433 685.167C550.746 672.867 535.152 656.417 523.867 637.1C512.972 616.691 507.594 593.792 508.267 570.667C507.441 541.319 517.456 512.696 536.4 490.267C556.087 467.742 581.39 450.836 609.733 441.267C640.56 430.376 673.04 424.906 705.733 425.1C727.123 424.898 748.491 426.537 769.6 430C784.709 432.333 799.549 436.163 813.9 441.433C827.078 445.894 838.975 453.489 848.567 463.567C855.634 471.858 859.438 482.44 859.267 493.333C859.519 498.993 858.653 504.646 856.72 509.971C854.787 515.295 851.824 520.187 848 524.367C844.382 528.218 839.99 531.26 835.112 533.294C830.235 535.328 824.983 536.307 819.7 536.167C812.432 536.107 805.26 534.493 798.667 531.433C782.415 524.159 765.674 518.033 748.567 513.1C732.819 508.948 716.585 506.929 700.3 507.1C679.075 506.319 658.076 511.69 639.833 522.567C632.135 527.244 625.834 533.904 621.588 541.849C617.343 549.794 615.31 558.734 615.7 567.733C615.588 579.549 620.084 590.944 628.233 599.5C637.917 609.551 649.362 617.742 662 623.667C676.156 630.689 697.267 640 725.333 651.6C728.442 652.584 731.472 653.799 734.4 655.233C761.79 666.068 788.049 679.566 812.8 695.533C832.348 708.279 848.831 725.195 861.067 745.067C873.114 765.952 879.148 789.764 878.5 813.867C879.511 843.378 871.054 872.439 854.367 896.8C837.374 919.865 813.864 937.314 786.867 946.9C754.329 958.526 719.945 964.128 685.4 963.433C637.928 965.095 590.683 956.156 547.1 937.267C535.958 932.304 526.189 924.709 518.633 915.133C512.361 906.358 509.108 895.783 509.367 885C509.055 879.312 509.982 873.625 512.082 868.331C514.183 863.036 517.407 858.26 521.533 854.333C530.183 846.759 541.412 842.797 552.9 843.267C565.7 843.441 578.272 846.676 589.567 852.7C603.611 859.722 614.689 864.989 622.8 868.5C632.063 872.378 641.658 875.413 651.467 877.567C663.562 880.22 675.918 881.495 688.3 881.367C710.197 882.93 731.987 877.122 750.2 864.867C757.018 859.531 762.467 852.649 766.096 844.788C769.725 836.928 771.429 828.317 771.067 819.667C771.087 807.401 766.412 795.593 758 786.667C746.884 775.19 733.87 765.718 719.533 758.667C702.578 749.733 678.733 738.844 648 726C620.513 715.047 594.193 701.367 569.433 685.167Z" fill="white"/>
<defs>
<linearGradient id="paint0_linear_1089_14535" x1="450.433" y1="202.533" x2="541.5" y2="777.467" gradientUnits="userSpaceOnUse">
<stop offset="0.012" stop-color="#00B7F0"/>
<stop offset="0.339" stop-color="#009DE5"/>
<stop offset="0.755" stop-color="#0082D9"/>
<stop offset="1" stop-color="#0078D4"/>
</linearGradient>
<linearGradient id="paint1_linear_1089_14535" x1="649.967" y1="1053.83" x2="1155.53" y2="761.967" gradientUnits="userSpaceOnUse">
<stop stop-color="#0078D4"/>
<stop offset="0.37" stop-color="#007AD5"/>
<stop offset="0.573" stop-color="#0082D9"/>
<stop offset="0.735" stop-color="#0090DF"/>
<stop offset="0.875" stop-color="#00A3E7"/>
<stop offset="1" stop-color="#00BCF2"/>
</linearGradient>
<linearGradient id="paint2_linear_1089_14535" x1="519" y1="388.633" x2="980.367" y2="1187.73" gradientUnits="userSpaceOnUse">
<stop stop-color="#00B7F0"/>
<stop offset="1" stop-color="#007CC1"/>
</linearGradient>
</defs>
</svg>
