<svg width="534" height="534" viewBox="0 0 534 534" fill="none" xmlns="http://www.w3.org/2000/svg">
<path fill-rule="evenodd" clip-rule="evenodd" d="M109.532 0.333374C49.3074 0.333374 0.0418701 49.5455 0.0418701 109.717V424.288C0.0418701 484.446 49.3074 533.658 109.532 533.658H424.463C484.372 533.658 533.455 484.948 533.958 425.213V108.796C533.455 49.0561 484.372 0.333374 424.463 0.333374H109.532Z" fill="url(#paint0_linear_1089_14572)"/>
<path fill-rule="evenodd" clip-rule="evenodd" d="M482.89 317.832C482.89 257.883 424.521 209.374 352.532 209.374C280.538 209.374 222.173 257.883 222.173 317.832C222.173 377.567 280.538 426.072 352.532 426.29C367.402 426.072 381.765 423.954 395.292 420.034C396.289 419.767 396.209 419.776 398.829 419.26C401.455 418.748 403.737 420.034 405.717 421.075L433.874 437.761C435.169 438.455 435.939 438.802 437.002 438.802C439.285 438.802 441.225 436.862 441.176 434.633C441.225 433.4 440.829 432.421 440.526 431.385C440.219 430.357 436.726 417.636 434.92 409.604C434.662 408.465 434.519 407.811 434.519 405.662C434.519 403.508 435.632 401.194 438.048 399.174C465.324 379.756 482.89 350.367 482.89 317.832ZM308.218 299.059C299.515 299.059 292.04 291.593 292.04 281.87C292.04 273.158 299.515 265.687 308.218 265.687C317.945 265.687 325.412 273.163 325.412 281.87C325.412 291.593 317.945 299.059 308.218 299.059ZM394.776 299.059C386.072 299.059 378.597 291.593 378.597 281.87C378.597 273.158 386.072 265.687 394.776 265.687C404.503 265.687 411.969 273.163 411.969 281.87C411.969 291.593 404.503 299.059 394.776 299.059Z" fill="white"/>
<path fill-rule="evenodd" clip-rule="evenodd" d="M50.0994 219.804C50.0994 258.648 71.1592 293.911 104.331 317.827C106.773 319.629 108.077 321.685 108.077 325.138C108.077 326.335 107.868 327.616 107.454 329.303C104.682 340.649 101.639 353.633 101.198 355.377C100.762 357.113 100.068 358.269 100.157 359.547C100.068 362.434 102.4 364.761 105.372 364.761C106.409 364.761 107.339 364.339 108.5 363.716L142.913 343.902C145.093 342.585 147.54 341.904 149.187 341.904C150.842 341.904 153.596 342.416 155.429 342.861C171.386 346.936 188.61 349.49 206.528 349.117C209.299 349.45 212.1 349.45 214.871 349.117C211.582 339.007 209.825 328.462 209.656 317.832C209.79 251.934 273.628 198.833 352.532 198.944C355.237 198.833 358.058 198.922 360.875 198.944C349.097 136.948 284.453 89.4403 206.528 89.4403C120.1 89.4403 50.0994 147.663 50.0994 219.804ZM153.343 198.944C150.604 198.944 147.891 198.405 145.361 197.356C142.83 196.308 140.531 194.772 138.594 192.835C136.657 190.898 135.121 188.599 134.073 186.068C133.025 183.538 132.485 180.826 132.485 178.087C132.485 175.348 133.025 172.635 134.073 170.105C135.121 167.574 136.657 165.275 138.594 163.338C140.531 161.402 142.83 159.865 145.361 158.817C147.891 157.769 150.604 157.229 153.343 157.229C156.082 157.229 158.794 157.769 161.324 158.817C163.855 159.865 166.154 161.402 168.091 163.338C170.028 165.275 171.564 167.574 172.612 170.105C173.66 172.635 174.2 175.348 174.2 178.087C174.2 180.826 173.66 183.538 172.612 186.068C171.564 188.599 170.028 190.898 168.091 192.835C166.154 194.772 163.855 196.308 161.324 197.356C158.794 198.405 156.082 198.944 153.343 198.944ZM257.631 198.944C254.892 198.944 252.18 198.405 249.65 197.356C247.119 196.308 244.82 194.772 242.883 192.835C240.946 190.898 239.41 188.599 238.362 186.068C237.314 183.538 236.774 180.826 236.774 178.087C236.774 175.348 237.314 172.635 238.362 170.105C239.41 167.574 240.946 165.275 242.883 163.338C244.82 161.402 247.119 159.865 249.65 158.817C252.18 157.769 254.892 157.229 257.631 157.229C263.11 157.309 268.338 159.542 272.184 163.445C276.03 167.348 278.186 172.607 278.186 178.087C278.186 183.566 276.03 188.826 272.184 192.729C268.338 196.631 263.11 198.864 257.631 198.944Z" fill="white"/>
<defs>
<linearGradient id="paint0_linear_1089_14572" x1="267.002" y1="1.78284" x2="267.002" y2="533.667" gradientUnits="userSpaceOnUse">
<stop stop-color="#02E36F"/>
<stop offset="1" stop-color="#07C160"/>
</linearGradient>
</defs>
</svg>
